<svg width="220" height="40" viewBox="0 0 220 40" fill="none" xmlns="http://www.w3.org/2000/svg">
<path fill-rule="evenodd" clip-rule="evenodd" d="M164.751 3.01577V0.530255H163.934V0.0165863H166.139V0.530255H165.314V3.01577H164.751ZM166.484 3.01577V0H167.309L167.811 2.05473L168.307 0H169.124V3.01577H168.607V0.654551L168.066 3.02406H167.527L166.986 0.654551V3.01577H166.484Z" fill="white"/>
<path fill-rule="evenodd" clip-rule="evenodd" d="M146.778 26.2799C146.609 26.599 146.366 26.8633 146.076 27.0465C145.785 27.2297 145.455 27.3254 145.12 27.3239C144.83 27.3195 144.544 27.2427 144.285 27.0992C144.025 26.9558 143.798 26.7494 143.62 26.4954C143.214 25.965 142.991 25.2928 142.99 24.598V24.482C142.99 23.8929 143.146 23.3168 143.44 22.825L154.391 3.83571C154.899 2.94375 155.59 2.19709 156.409 1.65674C157.222 1.10871 158.157 0.821808 159.109 0.828231C160.011 0.831279 160.898 1.09096 161.682 1.5822C162.486 2.08988 163.166 2.80651 163.663 3.67L174.606 22.5517C174.777 22.8379 174.925 23.1401 175.049 23.4547C175.169 23.7896 175.23 24.1467 175.229 24.5069V24.6063C175.231 25.3002 175.011 25.9724 174.606 26.5036C174.407 26.7831 174.147 27.0037 173.852 27.146C173.556 27.2882 173.233 27.3476 172.912 27.3189C172.591 27.2902 172.281 27.1743 172.01 26.9815C171.739 26.7887 171.515 26.5249 171.358 26.2136L160.895 8.15224C160.671 7.78718 160.42 7.44352 160.144 7.1249C160.031 6.95745 159.884 6.82154 159.715 6.72804C159.546 6.63455 159.359 6.58603 159.169 6.58635C158.981 6.58468 158.795 6.63267 158.627 6.72632C158.458 6.81998 158.313 6.95663 158.202 7.1249C157.923 7.44059 157.672 7.78455 157.452 8.15224L146.808 26.2716L146.778 26.2799Z" fill="white"/>
<path fill-rule="evenodd" clip-rule="evenodd" d="M110.506 27.3239C109.816 27.3146 109.138 27.1273 108.525 26.7771C107.854 26.3972 107.257 25.8734 106.77 25.2361C106.23 24.5248 105.801 23.7182 105.503 22.85C105.178 21.8878 105.01 20.8695 105.008 19.8425C105.008 19.8425 105.008 19.7597 105.008 19.71V14.4904C105 14.38 105 14.2693 105.008 14.159C105.006 13.8259 105.069 13.4963 105.192 13.1921C105.315 12.8879 105.495 12.6159 105.72 12.3943C106.3 12.0459 106.95 11.8636 107.61 11.864H138.131C138.421 11.8707 138.706 11.9485 138.966 12.0918C139.225 12.2351 139.453 12.4403 139.632 12.6925C140.036 13.2237 140.256 13.8959 140.254 14.5898V14.7555C140.254 15.4465 140.034 16.1155 139.632 16.6445C139.448 16.9012 139.214 17.109 138.948 17.2524C138.682 17.3959 138.39 17.4713 138.094 17.473H109.321V20.3148C109.322 20.507 109.357 20.6971 109.425 20.8741C109.492 21.0512 109.591 21.2117 109.715 21.3464C109.839 21.4812 109.986 21.5874 110.148 21.6592C110.309 21.731 110.482 21.7668 110.656 21.7647H139.121C139.412 21.769 139.697 21.8458 139.957 21.9892C140.217 22.1327 140.444 22.3392 140.622 22.5932C141.029 23.1535 141.251 23.8506 141.251 24.5692C141.251 25.2877 141.029 25.9848 140.622 26.5452C140.444 26.7992 140.217 27.0056 139.957 27.149C139.697 27.2925 139.412 27.3693 139.121 27.3737L110.506 27.3239Z" fill="white"/>
<path fill-rule="evenodd" clip-rule="evenodd" d="M105.013 4.78863C105.009 4.76117 105.009 4.73322 105.013 4.70575C105.015 4.01383 105.238 3.34499 105.643 2.81679C105.821 2.56323 106.048 2.35708 106.307 2.21366C106.567 2.07024 106.853 1.99323 107.143 1.98828H139.074C139.364 1.995 139.649 2.0728 139.909 2.21609C140.168 2.35937 140.395 2.56456 140.574 2.81679C140.985 3.37357 141.207 4.07057 141.204 4.78863C141.205 5.50624 140.983 6.20234 140.574 6.76048C140.397 7.01448 140.17 7.2209 139.91 7.36436C139.65 7.50783 139.365 7.58463 139.074 7.58898H107.143C106.853 7.58403 106.567 7.50697 106.307 7.36355C106.048 7.22013 105.821 7.01403 105.643 6.76048C105.237 6.2301 105.013 5.55794 105.013 4.86317C105.009 4.83848 105.009 4.81333 105.013 4.78863Z" fill="white"/>
<path fill-rule="evenodd" clip-rule="evenodd" d="M84.4095 27.324C83.587 27.326 82.7753 27.1161 82.0391 26.7109C81.2926 26.309 80.6269 25.7455 80.0815 25.0539C78.9064 23.5501 78.2594 21.6302 78.2586 19.6437V4.81348C78.2549 4.78324 78.2549 4.75259 78.2586 4.72235C78.2637 4.02952 78.4895 3.36079 78.8963 2.83339C79.0755 2.58159 79.3031 2.37669 79.5625 2.23345C79.8219 2.09021 80.1066 2.01218 80.3965 2.00488C80.6863 2.01275 80.9711 2.09106 81.2304 2.23426C81.4897 2.37746 81.7171 2.58202 81.8966 2.83339C82.3157 3.36049 82.5476 4.03748 82.5493 4.73894C82.5493 4.73894 82.5493 4.78862 82.5493 4.81348V19.6603C82.5507 20.2057 82.735 20.7311 83.0668 21.135C83.2129 21.3313 83.3957 21.4901 83.603 21.6003C83.8103 21.7104 84.037 21.7694 84.267 21.773H100.829C101.119 21.7797 101.404 21.8575 101.663 22.0008C101.923 22.1441 102.15 22.3493 102.329 22.6015C102.742 23.1593 102.967 23.8573 102.967 24.5775C102.967 25.2977 102.742 25.9957 102.329 26.5534C102.15 26.8052 101.922 27.0101 101.663 27.1534C101.404 27.2966 101.119 27.3747 100.829 27.3819H84.4168L84.4095 27.324Z" fill="white"/>
<path fill-rule="evenodd" clip-rule="evenodd" d="M48.1568 26.2798C47.9841 26.5955 47.7412 26.8572 47.451 27.0399C47.1609 27.2227 46.8331 27.3204 46.4991 27.3237C46.2087 27.3194 45.9231 27.2426 45.6634 27.0991C45.4036 26.9556 45.1764 26.7492 44.999 26.4952C44.5888 25.9701 44.3625 25.2998 44.3613 24.6062V24.4074C44.3611 23.8427 44.521 23.2922 44.8188 22.8332L55.7328 3.84387C56.2411 2.94975 56.9352 2.20269 57.7578 1.6649C58.5452 1.13123 59.4484 0.841199 60.3721 0.825166C61.2958 0.809132 62.2062 1.0677 63.0084 1.57377C63.8176 2.07736 64.4988 2.79829 64.9887 3.66987L75.9401 22.5432C76.1205 22.8245 76.2716 23.1274 76.3902 23.4463C76.5037 23.7743 76.5621 24.1225 76.5627 24.4737C76.5627 24.4737 76.5627 24.4737 76.5627 24.5234C76.5664 24.5508 76.5664 24.5787 76.5627 24.6062C76.5612 25.2968 76.3409 25.9652 75.9401 26.4952C75.758 26.7538 75.5246 26.9629 75.2581 27.1065C74.9916 27.2501 74.6991 27.3244 74.4025 27.3237C74.053 27.3226 73.7098 27.2193 73.4082 27.0243C73.1065 26.8293 72.8569 26.5495 72.6848 26.2135L62.2209 8.15211C61.977 7.79282 61.7141 7.44978 61.4335 7.12477C61.3211 6.95847 61.1748 6.82345 61.0068 6.73044C60.8388 6.63743 60.6538 6.589 60.4659 6.589C60.278 6.589 60.0925 6.63743 59.9245 6.73044C59.7566 6.82345 59.6106 6.95847 59.4982 7.12477C59.2196 7.44046 58.9684 7.78442 58.7481 8.15211L48.1568 26.2798Z" fill="white"/>
<path fill-rule="evenodd" clip-rule="evenodd" d="M158.982 15.5178C159.769 15.5309 160.534 15.8004 161.182 16.2926C161.831 16.7848 162.333 17.4777 162.626 18.2841C162.918 19.0906 162.989 19.9746 162.828 20.8252C162.668 21.6758 162.283 22.455 161.723 23.0648C161.162 23.6746 160.451 24.0879 159.679 24.2526C158.906 24.4174 158.107 24.3263 157.382 23.9908C156.656 23.6554 156.036 23.0905 155.6 22.3672C155.164 21.6439 154.932 20.7943 154.932 19.9254C154.942 18.7542 155.371 17.6349 156.125 16.8121C156.88 15.9893 157.899 15.5299 158.96 15.5344L158.982 15.5178Z" fill="white"/>
<path fill-rule="evenodd" clip-rule="evenodd" d="M60.3609 15.5344C61.1475 15.5475 61.9131 15.8171 62.5614 16.3093C63.2097 16.8015 63.7116 17.4943 64.0044 18.3008C64.2973 19.1072 64.368 19.9913 64.2073 20.8419C64.0467 21.6925 63.662 22.4716 63.1016 23.0814C62.5412 23.6912 61.8299 24.1045 61.0576 24.2693C60.2852 24.434 59.4861 24.343 58.7604 24.0075C58.0347 23.672 57.4148 23.1071 56.979 22.3838C56.5431 21.6605 56.3106 20.811 56.3105 19.9421C56.3204 18.7701 56.7493 17.6499 57.5038 16.8258C58.2583 16.0017 59.2775 15.5405 60.3386 15.5427L60.3609 15.5344Z" fill="white"/>
<path d="M70.5781 38.3016V33.0488H71.6055V35.4266L73.2108 33.0488H74.4033L72.6782 35.4432L74.4633 38.3016H73.2184L71.6055 35.5592V38.3016H70.5781Z" fill="white"/>
<path d="M74.959 38.3016V33.0488H75.994V38.3016H74.959Z" fill="white"/>
<path d="M78.8883 34.0016V38.3016H77.8533V34.0016H76.6758V33.0488H80.0585V34.0016H78.8883Z" fill="white"/>
<path d="M84.4991 34.4241C84.3121 34.2306 84.0928 34.0788 83.8538 33.9768C83.6349 33.8772 83.4005 33.8265 83.1638 33.8276H83.0664C82.6416 33.8277 82.2332 34.0088 81.9262 34.333C81.6407 34.7018 81.4825 35.1704 81.4797 35.6556C81.477 36.1409 81.6298 36.6115 81.9112 36.9842C82.0516 37.1403 82.2189 37.2639 82.4031 37.3478C82.5872 37.4318 82.7847 37.4744 82.9839 37.4731H83.0664C83.3225 37.4665 83.5759 37.4133 83.8164 37.3157C84.0614 37.2081 84.2875 37.0539 84.4841 36.8599V37.995C84.2704 38.1391 84.0372 38.2453 83.7937 38.3098C83.5495 38.3842 83.297 38.4205 83.0436 38.4175H82.9689C82.2846 38.4146 81.6282 38.1174 81.1388 37.589C80.9031 37.3426 80.715 37.0459 80.5861 36.717C80.4572 36.388 80.3901 36.0336 80.3887 35.6752V35.5344C80.3895 35.1782 80.4563 34.8261 80.5853 34.4997C80.7144 34.1734 80.9028 33.8798 81.1388 33.6371C81.6313 33.1089 82.2897 32.812 82.9763 32.8086H83.0436C83.2956 32.8139 83.5467 32.8444 83.7937 32.8997C84.0528 32.9611 84.3046 33.0556 84.5438 33.1814L84.5065 34.3827L84.4991 34.4241Z" fill="white"/>
<path d="M85.4277 38.3016V33.0488H86.4554V35.1615H88.5405V33.0488H89.5756V38.3016H88.5405V36.0977H86.4554V38.3016H85.4277Z" fill="white"/>
<path d="M90.6562 38.3016V33.0488H93.4987V33.9933H91.6836V35.0787H93.4987V36.0232H91.6836V37.3405H93.4987V38.3016H90.6562Z" fill="white"/>
<path d="M94.5195 38.3098V33.0488H95.5846L97.7147 36.106C97.7893 36.2226 97.8569 36.3444 97.9173 36.4706C97.9923 36.6363 98.0673 36.8102 98.1498 37.0339C98.1218 36.881 98.1043 36.7259 98.0975 36.57C98.0975 36.4706 98.0975 36.3712 98.0975 36.28C98.0975 36.1889 98.0975 36.0811 98.0975 35.99V33.0488H99.0874V38.3098H98.0748L95.8846 35.1864C95.8032 35.0779 95.7351 34.9582 95.682 34.8301C95.607 34.6644 95.532 34.4821 95.4494 34.2667C95.4748 34.4174 95.4926 34.5696 95.5022 34.7224V38.3016L94.5195 38.3098Z" fill="white"/>
<path d="M103.02 32.6843H103.702V40H103.02V32.6843Z" fill="white"/>
<path d="M110.992 33.0491L111.697 35.8991C111.742 36.0814 111.787 36.272 111.825 36.4874C111.877 36.7162 111.914 36.9487 111.937 37.1833C111.929 36.9694 111.944 36.7553 111.982 36.5453C112.027 36.3299 112.05 36.1145 112.095 35.8991L112.725 33.0491H113.737L112.484 38.3101H111.487L110.632 34.9463C110.585 34.7985 110.553 34.6459 110.535 34.4907C110.506 34.3321 110.489 34.1715 110.482 34.0101C110.491 34.1779 110.474 34.3463 110.429 34.5072C110.407 34.6555 110.377 34.8021 110.339 34.9463L109.469 38.3018H108.479L107.227 33.0408H108.254L108.892 35.9571C108.91 36.141 108.938 36.3235 108.974 36.5039C108.979 36.7176 108.996 36.9308 109.027 37.1419C109.079 36.7504 109.155 36.3629 109.252 35.982V35.9074L109.949 33.0408L110.992 33.0491Z" fill="white"/>
<path d="M113.715 38.3098L115.545 33.0488H116.73L118.583 38.3098H117.413L117.023 37.1831H115.163L114.825 38.3098H113.715ZM116.783 36.3048L116.243 34.6478C116.243 34.565 116.198 34.4739 116.183 34.391C116.168 34.24 116.142 34.0905 116.108 33.9436C116.098 34.0989 116.071 34.2521 116.025 34.3993C116.025 34.5319 115.98 34.623 115.965 34.6727L115.448 36.3297L116.783 36.3048Z" fill="white"/>
<path d="M122.574 38.3098H121.389L120.121 35.8243V38.3098H119.094V33.0488H120.729C121.144 33.0476 121.551 33.1801 121.899 33.43C122.155 33.6846 122.313 34.0382 122.339 34.4176C122.366 34.7969 122.259 35.173 122.042 35.4681C121.854 35.7205 121.585 35.8835 121.292 35.9237L122.574 38.3181V38.3098ZM120.121 35.2941H120.429C120.661 35.2924 120.891 35.2388 121.104 35.1367C121.167 35.081 121.218 35.0104 121.253 34.9301C121.288 34.8498 121.306 34.7619 121.307 34.6727V34.5567C121.306 34.4623 121.286 34.3693 121.249 34.2846C121.211 34.1999 121.157 34.1258 121.089 34.0679C120.879 33.9525 120.648 33.8929 120.414 33.8939H120.121V35.3272V35.2941Z" fill="white"/>
<path d="M123.166 38.3098V33.0488H124.614C124.982 33.0487 125.349 33.0904 125.709 33.1731C126.023 33.2535 126.316 33.4116 126.567 33.6355C126.818 33.8594 127.019 34.1432 127.156 34.4656C127.302 34.834 127.379 35.2315 127.382 35.6338V35.7249C127.38 36.1387 127.301 36.5477 127.149 36.9262C126.997 37.2836 126.765 37.5918 126.474 37.821C126.245 37.9908 125.991 38.1168 125.724 38.1939C125.378 38.2698 125.026 38.3086 124.674 38.3098H123.173H123.166ZM124.194 37.3571H124.771C124.849 37.3652 124.927 37.3652 125.004 37.3571C125.355 37.3593 125.692 37.208 125.942 36.9363C126.192 36.6647 126.335 36.2947 126.339 35.9072C126.346 35.8245 126.346 35.7413 126.339 35.6586C126.343 35.609 126.343 35.5591 126.339 35.5095C126.337 35.0954 126.202 34.6957 125.957 34.3827C125.668 34.1184 125.304 33.9746 124.929 33.9768H124.179V37.2908L124.194 37.3571Z" fill="white"/>
<path d="M131.754 38.3098H130.569L129.308 35.8243V38.3098H128.273V33.0488H129.916C130.331 33.05 130.737 33.1822 131.086 33.43C131.224 33.555 131.334 33.7117 131.411 33.8893C131.487 34.0668 131.528 34.2607 131.529 34.4573V34.5733C131.527 34.9012 131.421 35.2178 131.229 35.468C131.039 35.7185 130.772 35.8811 130.479 35.9237L131.754 38.3181V38.3098ZM129.308 35.2941H129.608C129.841 35.2924 130.071 35.2388 130.284 35.1367C130.349 35.0827 130.402 35.0126 130.438 34.9321C130.475 34.8515 130.494 34.7628 130.494 34.6727C130.494 34.6727 130.494 34.6313 130.494 34.6147C130.494 34.5981 130.494 34.6147 130.494 34.5567C130.494 34.4614 130.473 34.3675 130.434 34.2825C130.395 34.1976 130.339 34.124 130.269 34.0679C130.059 33.9525 129.828 33.8929 129.593 33.8939H129.308V35.3272V35.2941Z" fill="white"/>
<path d="M137.26 35.6918C137.26 36.0562 137.193 36.4167 137.065 36.7523C136.937 37.0871 136.749 37.389 136.51 37.6388C136.022 38.1589 135.373 38.455 134.695 38.4673C134.402 38.4648 134.111 38.4117 133.832 38.3099C133.561 38.1971 133.308 38.0378 133.082 37.8377C132.792 37.592 132.556 37.276 132.394 36.914C132.231 36.5521 132.146 36.1538 132.145 35.7498V35.7001C132.145 35.3378 132.212 34.9794 132.34 34.6463C132.469 34.3132 132.658 34.0122 132.895 33.7614C133.139 33.5088 133.423 33.3092 133.734 33.1732C134.041 33.0321 134.37 32.9589 134.702 32.9578H134.74C135.072 32.9589 135.401 33.0321 135.707 33.1732C136.016 33.3094 136.299 33.509 136.54 33.7614C136.777 34.0127 136.966 34.3142 137.095 34.6479C137.205 34.9594 137.261 35.2911 137.26 35.6255V35.7084V35.6918ZM134.695 37.4482H134.732C134.928 37.4467 135.121 37.4011 135.301 37.3142C135.48 37.2273 135.641 37.101 135.775 36.9429C136.044 36.6164 136.194 36.1913 136.195 35.7498V35.6421C136.195 35.1954 136.045 34.7644 135.775 34.4325C135.637 34.2754 135.473 34.1499 135.292 34.0632C135.11 33.9764 134.915 33.9302 134.717 33.9271H134.65C134.454 33.9261 134.259 33.9706 134.08 34.0577C133.9 34.1447 133.739 34.2724 133.607 34.4325C133.33 34.7805 133.178 35.2285 133.18 35.6918C133.181 36.1546 133.332 36.6016 133.607 36.9512C133.743 37.108 133.906 37.2329 134.086 37.3183C134.267 37.4037 134.461 37.4479 134.657 37.4482H134.695Z" fill="white"/>
<path d="M138.123 38.3098V33.0488H139.158C139.459 33.0503 139.76 33.0724 140.058 33.1151C140.251 33.1495 140.437 33.2136 140.613 33.3057C140.793 33.4155 140.943 33.5755 141.048 33.7696C141.146 33.9651 141.198 34.1844 141.198 34.4076V34.4987C141.198 34.7584 141.107 35.0079 140.944 35.1947C140.736 35.4035 140.473 35.534 140.193 35.5675C140.522 35.5946 140.832 35.7401 141.078 35.9817C141.274 36.2032 141.381 36.5011 141.378 36.8102C141.379 37.0552 141.319 37.2958 141.206 37.5062C141.095 37.7192 140.931 37.892 140.733 38.0033C140.536 38.1187 140.324 38.1971 140.103 38.2353C139.773 38.2848 139.439 38.3097 139.106 38.3098H138.168H138.123ZM139.158 35.1532H139.488C139.682 35.151 139.873 35.097 140.043 34.9958C140.106 34.947 140.157 34.8825 140.192 34.8075C140.227 34.7326 140.246 34.6494 140.246 34.565C140.246 34.565 140.246 34.565 140.246 34.5153C140.249 34.499 140.249 34.4819 140.246 34.4656C140.246 34.3853 140.229 34.306 140.196 34.2342C140.164 34.1623 140.116 34.0998 140.058 34.0513C139.892 33.9537 139.706 33.9026 139.518 33.9022H139.158V35.1367V35.1532ZM139.158 37.4316H139.623C139.814 37.4305 140 37.364 140.156 37.2411C140.219 37.1797 140.269 37.1045 140.304 37.0203C140.339 36.9361 140.357 36.8448 140.358 36.7522C140.358 36.7522 140.358 36.7522 140.358 36.7025C140.36 36.6127 140.343 36.5238 140.309 36.4421C140.275 36.3605 140.226 36.2881 140.163 36.2303C140.007 36.1098 139.821 36.0461 139.631 36.048H139.166V37.4648L139.158 37.4316Z" fill="white"/>
<path d="M142.15 38.3016V33.0488H144.986V33.9933H143.185V35.0787H144.986V36.0232H143.185V37.3405H144.986V38.3016H142.15Z" fill="white"/>
</svg>
