<svg width="220" height="40" viewBox="0 0 220 40" fill="none" xmlns="http://www.w3.org/2000/svg">
<path d="M75.7512 30.2673H69.1509C68.7328 30.2673 67.618 29.9874 67.6434 30.5542C67.6687 31.1209 68.4412 32.2683 68.8023 32.7721C69.743 34.0485 71.0047 34.9893 72.4281 35.476C73.8516 35.9628 75.3736 35.9738 76.8028 35.5077C77.5781 35.2382 78.3077 34.8292 78.9626 34.2973C79.6277 33.7656 80.1915 32.954 81.0339 32.7511C81.4096 32.6519 81.8039 32.6841 82.1622 32.8434C82.5205 33.0026 82.8251 33.281 83.0338 33.6399C83.2426 33.9989 83.3452 34.4206 83.3273 34.8467C83.3095 35.2729 83.1721 35.6824 82.9342 36.0185C81.9017 37.5367 80.0397 38.6562 78.4117 39.2719C76.7541 39.8787 74.9951 40.0722 73.2617 39.8386C66.9273 39.02 62.4553 32.4153 63.6399 25.6985C64.9511 18.2682 72.7106 13.9163 79.159 17.1137C80.8657 17.9675 82.3448 19.2919 83.4542 20.9595C84.5635 22.6272 85.2657 24.582 85.4933 26.6361C85.582 27.5037 85.7086 28.5182 85.2589 29.2948C85.0181 29.6446 84.6983 29.9181 84.3313 30.0876C83.9643 30.2571 83.5632 30.3167 83.1687 30.2603C80.7046 30.2603 78.247 30.2603 75.7892 30.2603L75.7512 30.2673ZM74.4843 26.1813H80.8821C81.5155 26.1813 81.5535 26.1813 81.3318 25.4817C80.8349 23.8963 79.8989 22.5239 78.6564 21.559C77.4139 20.5941 75.9279 20.0857 74.4092 20.1058C72.8904 20.1259 71.4159 20.6736 70.1947 21.6711C68.9735 22.6687 68.0676 24.0655 67.6053 25.6636C67.4786 26.0834 67.5165 26.1463 67.9282 26.1463L74.4843 26.1813Z" fill="white"/>
<path d="M108.36 10.3553C108.537 10.4043 108.683 10.4603 108.841 10.4953C112.325 11.3698 113.085 14.7562 112.046 17.4009C111.641 18.4335 110.906 19.2652 109.981 19.7377C108.841 20.3768 107.58 20.7077 106.301 20.7032C103.71 20.7032 101.12 20.7032 98.5289 20.7032C98.1679 20.7032 98.168 20.7032 98.168 20.3044C98.168 14.0029 98.168 7.70595 98.168 1.4137C98.168 1.14083 98.2312 1.04291 98.5036 1.04991C101.037 1.04991 103.571 1.04991 106.067 1.09189C107.377 1.07403 108.663 1.4802 109.766 2.2603C110.273 2.6104 110.691 3.09863 110.978 3.67815C111.265 4.25766 111.413 4.90899 111.407 5.56966C111.476 6.77565 111.12 7.96453 110.412 8.88607C109.949 9.42446 109.384 9.84466 108.759 10.1174L108.417 10.2784C108.417 10.2784 108.417 10.2784 108.366 10.3623L108.36 10.3553ZM100.759 15.022H100.714V18.0516C100.714 18.5553 100.714 18.5553 101.189 18.5623C102.703 18.5623 104.223 18.5623 105.737 18.5623C106.515 18.5924 107.289 18.4348 108.005 18.1005C108.42 17.9411 108.796 17.6764 109.102 17.3277C109.407 16.979 109.635 16.5559 109.766 16.0925C109.846 15.6316 109.878 15.1621 109.861 14.6932C109.87 14.3495 109.812 14.0077 109.692 13.6905C109.572 13.3733 109.392 13.0878 109.164 12.8531C108.752 12.4158 108.265 12.0727 107.733 11.8433C107.2 11.614 106.632 11.503 106.061 11.5167C104.401 11.4818 102.729 11.5167 101.069 11.4748C100.841 11.4748 100.752 11.5447 100.759 11.7966C100.759 12.8601 100.759 13.8956 100.759 14.9871V15.022ZM100.714 6.29733H100.759V8.3963C100.759 8.93504 100.619 9.26385 101.126 9.3758C101.695 9.43521 102.267 9.43521 102.836 9.3758C103.47 9.3758 104.16 9.3758 104.825 9.3758C106.675 9.31283 108.626 8.87904 108.797 6.57717C108.993 4.00243 106.846 3.23284 104.825 3.23984H102.798C102.222 3.16621 101.639 3.16621 101.063 3.23984C100.588 3.39376 100.714 3.6596 100.714 4.21933V6.3183V6.29733Z" fill="white"/>
<path d="M114.061 34.4372C114.061 32.7091 113.795 30.7361 114.34 29.0779C114.578 28.3748 114.942 27.7319 115.41 27.1874C115.878 26.6429 116.44 26.2079 117.064 25.9084C117.754 25.5827 118.499 25.4183 119.25 25.4255C120.001 25.4327 120.742 25.6114 121.428 25.9504C121.751 26.1162 122.057 26.3203 122.34 26.5591C122.517 26.706 122.733 27.0698 122.973 27.0349C123.214 26.9999 123.645 26.4751 123.854 26.3352C124.25 26.0653 124.676 25.8514 125.121 25.6985C126.326 25.2788 127.627 25.3584 128.783 25.9225C129.938 26.4866 130.868 27.4964 131.398 28.763C132.063 30.4702 131.86 32.4852 131.854 34.2903C131.854 35.2279 131.854 36.1654 131.854 37.089C131.854 37.9146 131.968 39.083 131.271 39.6567C131.017 39.8432 130.717 39.9379 130.412 39.9279C130.106 39.9179 129.811 39.8035 129.568 39.6007C128.934 39.055 129.067 38.0615 129.061 37.2848C129.061 35.2418 129.061 33.1919 129.061 31.1419C129.08 30.7688 129.028 30.3953 128.907 30.0461C128.787 29.6969 128.601 29.3798 128.362 29.1156C128.122 28.8513 127.835 28.6459 127.519 28.5128C127.203 28.3797 126.865 28.3219 126.527 28.3432C124.887 28.4552 124.329 30.0854 124.329 31.5896C124.329 33.6886 124.392 35.7876 124.329 37.8865C124.329 38.6352 124.24 39.5587 123.468 39.8386C123.204 39.9226 122.926 39.9353 122.657 39.8756C122.388 39.8159 122.136 39.6857 121.922 39.4958C121.479 39.027 121.561 38.2504 121.561 37.6487V34.3253C121.561 33.3248 121.561 32.3243 121.561 31.3237C121.597 30.5608 121.371 29.8109 120.927 29.2248C120.677 28.9502 120.376 28.7376 120.046 28.6011C119.715 28.4646 119.362 28.4074 119.009 28.4332C118.657 28.459 118.314 28.5672 118.002 28.7508C117.691 28.9343 117.418 29.1889 117.203 29.4977C116.721 30.2743 116.817 31.2328 116.817 32.1214C116.817 33.3108 116.817 34.5002 116.817 35.6966C116.817 37.0399 117.298 40.4683 115.062 39.8945C114.276 39.6986 114.106 38.943 114.055 38.1734C113.979 36.942 114.055 35.6826 114.055 34.4442L114.061 34.4372Z" fill="white"/>
<path d="M106.093 33.8218H101.83C101.317 33.8218 101 33.6749 101.133 34.2416C101.311 34.7624 101.583 35.2383 101.931 35.641C102.609 36.4425 103.495 36.9915 104.468 37.2121C105.44 37.4327 106.451 37.314 107.359 36.8724C108.208 36.4386 109.26 34.8993 110.229 35.473C111.572 36.2567 110.66 37.614 109.811 38.3276C109.016 38.9744 108.11 39.4372 107.149 39.6885C106.188 39.9398 105.191 39.9743 104.218 39.7899C103.276 39.6336 102.375 39.264 101.569 38.7044C100.763 38.1448 100.071 37.4072 99.5356 36.5379C99.0002 35.6687 98.6333 34.6866 98.458 33.6533C98.2826 32.62 98.3027 31.5578 98.5167 30.5334C98.7949 29.3913 99.3049 28.3341 100.008 27.4422C100.711 26.5502 101.589 25.8469 102.575 25.3857C103.561 24.9244 104.63 24.7173 105.699 24.78C106.768 24.8428 107.81 25.1737 108.747 25.7478C109.675 26.2832 110.475 27.0536 111.081 27.9961C111.688 28.9385 112.084 30.0262 112.237 31.1701C112.427 32.4715 112.421 33.6539 110.97 33.7868C109.368 33.9268 107.708 33.7868 106.099 33.7868L106.093 33.8218ZM105.313 31.1841H109.336C109.754 31.1841 109.785 31.1422 109.633 30.7434C109.529 30.452 109.406 30.1691 109.266 29.8968C108.813 29.0175 108.125 28.3148 107.296 27.8851C106.467 27.4554 105.538 27.3198 104.636 27.4969C103.827 27.6367 103.066 28.0125 102.432 28.5857C101.798 29.1589 101.315 29.9086 101.032 30.7573C100.886 31.1281 100.924 31.1841 101.298 31.1841H105.313Z" fill="white"/>
<path d="M128.694 19.0101C128.694 19.4859 128.871 20.4094 128.51 20.7103C128.149 21.0111 126.774 20.9412 126.274 20.8572C125.98 20.8385 125.693 20.753 125.43 20.6061C125.168 20.4593 124.935 20.2542 124.748 20.0036C124.387 19.4369 124.469 18.6463 124.114 18.1005C123.627 18.9928 122.957 19.7455 122.157 20.2975C121.145 20.8726 120.012 21.136 118.876 21.0601C116.602 20.9201 115.075 19.4369 114.898 16.9951C114.786 15.9432 115.006 14.8809 115.522 13.9883C116.038 13.0957 116.818 12.4276 117.729 12.0975C118.841 11.7332 119.996 11.5517 121.156 11.5587L122.879 11.5098C123.386 11.5098 124.07 11.7127 124.146 11.09C124.215 10.5596 124.178 10.019 124.039 9.50558C123.901 8.99218 123.662 8.51821 123.341 8.11643C122.954 7.79667 122.511 7.56676 122.041 7.44052C121.571 7.31428 121.082 7.29431 120.605 7.3818C119.706 7.47276 118.787 7.73163 118.343 8.64818C118.223 8.90005 118.204 9.53674 117.995 9.69766C117.786 9.85858 116.881 9.6557 116.589 9.62771C116.298 9.59973 115.639 9.69066 115.518 9.34083C115.398 8.991 115.797 8.21438 115.93 7.94152C116.362 7.09326 117.028 6.41926 117.831 6.01746C118.868 5.53273 119.982 5.28296 121.109 5.28296C122.235 5.28296 123.349 5.53273 124.386 6.01746C126.591 7.15091 126.559 9.90058 126.572 12.1605C126.572 13.7417 126.534 15.3229 126.572 16.8971C126.572 17.9886 126.794 19.234 128.061 19.1151C128.244 19.1151 128.428 19.0591 128.694 19.0171V19.0101ZM124.127 14.1125C124.127 13.9656 124.127 13.8116 124.127 13.6647C124.178 13.042 121.859 13.3989 121.441 13.4198C120.489 13.3715 119.539 13.5754 118.673 14.0145C118.363 14.2164 118.094 14.4855 117.882 14.8056C117.67 15.1257 117.518 15.4901 117.437 15.8767C117.356 16.2633 117.347 16.6641 117.41 17.0548C117.473 17.4455 117.608 17.8179 117.805 18.1495C118.603 19.4299 120.567 19.171 121.701 18.6113C122.449 18.1918 123.074 17.5465 123.504 16.7501C123.933 15.9537 124.149 15.0391 124.127 14.1125Z" fill="white"/>
<path d="M147.734 12.6502L147.93 12.4543C149.793 10.2574 151.651 8.06278 153.504 5.87052C153.574 5.77942 153.662 5.70738 153.761 5.66003C153.859 5.61268 153.967 5.59135 154.074 5.59768C154.784 5.59768 155.5 5.59768 156.215 5.59768C156.307 5.61012 156.397 5.63599 156.482 5.67464C156.452 5.7678 156.409 5.85518 156.355 5.93351C154.615 7.90654 152.871 9.87725 151.123 11.8456C150.945 12.0415 150.926 12.1535 151.085 12.3774C152.947 15.0081 154.803 17.6458 156.653 20.2905C156.692 20.3387 156.728 20.3901 156.76 20.4444C156.799 20.5113 156.818 20.5891 156.817 20.6683C156.817 20.6683 156.703 20.7382 156.64 20.7382C155.817 20.7382 154.999 20.7382 154.182 20.7032C154.059 20.6724 153.951 20.5927 153.878 20.4794C152.434 18.3804 151.002 16.3304 149.564 14.2524C149.538 14.1998 149.502 14.1546 149.457 14.1208C149.412 14.087 149.361 14.0654 149.307 14.0579C149.253 14.0504 149.198 14.0571 149.147 14.0776C149.096 14.098 149.05 14.1316 149.013 14.1755C148.633 14.4973 148.26 14.8331 147.873 15.141C147.798 15.1933 147.738 15.2673 147.699 15.355C147.66 15.4426 147.643 15.5404 147.651 15.6377C147.651 17.212 147.651 18.7862 147.651 20.3604C147.651 20.7172 147.652 20.7313 147.31 20.7313C146.721 20.7313 146.131 20.7313 145.536 20.7313C145.301 20.7313 145.213 20.6683 145.213 20.3954C145.213 13.7067 145.213 7.01563 145.213 0.322246C145.213 0.0703694 145.289 -0.00656551 145.517 0.000431052C146.112 0.000431052 146.714 0.000431052 147.316 0.000431052C147.652 0.000431052 147.651 0.000402015 147.651 0.364223V12.6013L147.734 12.6432V12.6502Z" fill="white"/>
<path d="M132.881 7.85753C133.391 6.95437 134.119 6.22717 134.984 5.75856C136.109 5.25829 137.342 5.13182 138.531 5.39472C141.192 5.95445 141.775 8.3053 141.787 10.908C141.787 13.8956 141.787 16.8901 141.787 19.8846C141.787 20.4863 141.888 20.6962 141.306 20.7172C140.983 20.7172 139.722 20.9341 139.475 20.7172C139.228 20.5003 139.355 19.7447 139.355 19.3879V17.009C139.355 15.4768 139.355 13.9516 139.355 12.4193C139.355 11.1529 139.507 9.54372 138.873 8.40328C137.739 6.36028 134.439 7.36779 133.508 9.10294C133.02 10.2339 132.802 11.4839 132.875 12.7342C132.875 14.2314 132.875 15.7287 132.875 17.2259V19.3949C132.875 19.7447 133.046 20.5493 132.704 20.7312C132.442 20.7803 132.174 20.7803 131.912 20.7312C131.576 20.7312 131.228 20.7312 130.892 20.7312C130.221 20.6823 130.43 20.0316 130.436 19.4438V9.21486C130.436 8.38927 130.436 7.56368 130.436 6.73109C130.436 6.14338 130.297 5.69558 130.911 5.61862C131.285 5.57664 132.507 5.45769 132.71 5.82851C132.83 6.0384 132.754 6.56319 132.761 6.78708C132.766 7.14557 132.793 7.50322 132.843 7.85753H132.919H132.881Z" fill="white"/>
<path d="M63.4249 21.4517C63.4249 18.0514 63.4249 14.6441 63.4249 11.2438C63.4249 9.51328 63.4249 7.78043 63.4249 6.04528V3.52653C63.3348 2.8266 63.3669 2.11407 63.5199 1.42756C63.9696 0.252141 66.326 0.385071 67.2255 0.678926C68.4924 1.09872 68.2072 2.64497 68.2072 3.79241C68.2072 7.17175 68.2072 10.5441 68.2072 13.9164C68.2072 14.5461 68.4352 15.7495 67.9981 16.2113C67.5611 16.6731 66.7315 17.0579 66.2058 17.5407C65.0557 18.6207 64.1179 19.9493 63.4503 21.4447H63.3995L63.4249 21.4517Z" fill="white"/>
<path d="M136.675 34.0874C136.675 35.6546 136.675 37.2149 136.675 38.7821C136.675 39.5727 136.351 39.9226 135.617 39.9226H134.533C134.412 39.9314 134.29 39.912 134.175 39.8657C134.061 39.8194 133.956 39.7471 133.869 39.6535C133.781 39.56 133.712 39.4472 133.666 39.3224C133.62 39.1976 133.599 39.0636 133.602 38.929C133.602 35.7059 133.602 32.4852 133.602 29.2668C133.592 29.1267 133.61 28.9859 133.655 28.8545C133.7 28.7231 133.771 28.6043 133.862 28.5066C133.954 28.4089 134.063 28.3348 134.184 28.2897C134.304 28.2445 134.432 28.2293 134.559 28.2453H135.693C135.823 28.2227 135.956 28.2337 136.082 28.2775C136.208 28.3212 136.323 28.3966 136.418 28.4975C136.513 28.5984 136.586 28.7223 136.63 28.8594C136.675 28.9965 136.69 29.1431 136.675 29.2878C136.675 30.89 136.675 32.4922 136.675 34.0874Z" fill="white"/>
<path d="M148.9 37.2011C148.944 35.8717 148.805 34.4514 149.533 33.297C149.817 32.8684 150.183 32.5136 150.604 32.2574C151.025 32.0012 151.492 31.8497 151.972 31.8137C152.495 31.7594 153.023 31.839 153.514 32.0465C154.005 32.254 154.446 32.5838 154.803 33.0101C155.627 34.0106 155.639 35.2001 155.646 36.4664C155.646 37.278 155.646 38.1036 155.646 38.9152C155.646 39.433 155.614 39.7968 155.082 39.9087C153.695 40.1886 154.132 37.9147 154.132 37.0472C154.132 35.8228 154.335 34.3325 153.137 33.6538C152.705 33.4038 152.201 33.3524 151.735 33.511C151.269 33.6696 150.878 34.0252 150.648 34.5004C150.426 35.2609 150.361 36.0665 150.458 36.8582C150.552 37.7072 150.542 38.5662 150.426 39.412C150.37 39.5448 150.285 39.6612 150.181 39.7519C150.076 39.8425 149.953 39.9049 149.823 39.9341C149.693 39.9634 149.558 39.9586 149.43 39.9201C149.301 39.8817 149.183 39.8108 149.084 39.7129C148.697 39.2581 148.906 37.9357 148.906 37.341C148.906 37.341 148.906 37.2081 148.906 37.2011H148.9Z" fill="white"/>
<path d="M91.4546 20.2485V1.10591C91.4355 1.00438 91.4355 0.899586 91.4546 0.798057C91.5139 0.700065 91.5842 0.610774 91.6637 0.532227C91.751 0.607708 91.8295 0.694633 91.8978 0.791096C91.9359 0.854065 91.8978 0.952007 91.8978 1.04296V39.5241C91.8978 39.72 91.9551 39.9928 91.6637 39.9998C91.3723 40.0068 91.4355 39.727 91.4355 39.5381C91.4355 33.1059 91.4355 26.6784 91.4355 20.2555L91.4546 20.2485Z" fill="white"/>
<path d="M145.656 36.6343C145.656 35.8437 145.656 35.0601 145.656 34.2694C145.656 33.6118 145.751 33.4369 146.391 33.4019C147.031 33.3669 147.392 33.4019 147.417 34.2415C147.442 35.0811 147.417 35.8577 147.417 36.6693C147.417 37.4809 147.417 38.2855 147.417 39.0901C147.417 39.8947 147.151 39.9157 146.454 39.9087C145.758 39.9017 145.669 39.7128 145.656 39.0201C145.643 38.3274 145.656 37.4249 145.656 36.6343Z" fill="white"/>
<path d="M140.082 37.8029C140.097 37.5041 140.189 37.2163 140.347 36.9735C140.506 36.7306 140.723 36.5429 140.975 36.4325C141.227 36.3221 141.502 36.2937 141.768 36.3506C142.034 36.4074 142.28 36.5472 142.476 36.7534C142.625 36.9353 142.732 37.1542 142.787 37.3915C142.843 37.6288 142.845 37.8774 142.795 38.116C142.744 38.3547 142.642 38.5763 142.498 38.762C142.353 38.9476 142.169 39.0918 141.963 39.1822C141.757 39.2726 141.534 39.3065 141.313 39.281C141.093 39.2556 140.881 39.1714 140.696 39.0359C140.511 38.9004 140.359 38.7175 140.252 38.5028C140.145 38.288 140.087 38.0479 140.082 37.8029Z" fill="white"/>
<path d="M135.136 27.5948C134.345 27.5948 133.635 27.5249 133.629 26.4824C133.623 25.4399 134.332 25.3839 135.092 25.3769C135.852 25.3699 136.612 25.3769 136.676 26.3775C136.739 27.378 135.966 27.5948 135.136 27.5948Z" fill="white"/>
<path d="M146.549 33.0031C146.119 33.0031 145.758 33.003 145.701 32.4643C145.631 31.8206 146.068 31.7646 146.549 31.7646C147.031 31.7646 147.354 31.7647 147.385 32.3384C147.417 32.9121 147.037 33.0031 146.549 33.0031Z" fill="white"/>
</svg>
