<svg width="220" height="40" viewBox="0 0 220 40" fill="none" xmlns="http://www.w3.org/2000/svg">
<g clip-path="url(#clip0_8105_6153)">
<path d="M66.2184 35.8092H66.1448C66.0289 35.7992 65.9125 35.7992 65.7966 35.8092C65.6817 35.8292 65.5736 35.8775 65.482 35.9497C65.3653 36.0164 65.2772 36.1237 65.2343 36.251C65.1674 36.3916 65.0937 36.5589 65.0268 36.7263H64.9531V35.6753H68.9163V36.7263H68.8427C68.8103 36.5542 68.7394 36.3917 68.6351 36.251C68.5661 36.1421 68.4853 36.041 68.3941 35.9497C68.3026 35.8775 68.1944 35.8292 68.0795 35.8092C67.9614 35.7992 67.8427 35.7992 67.7247 35.8092H67.4435V39.692H68.0393V39.759H65.964V39.692H66.5665V35.8092H66.2184Z" fill="white"/>
<path d="M72.6635 35.7422V35.7958H72.1078V37.6635H73.9288V35.7958H73.3664V35.7222H75.4351V35.7958H74.8325V39.6786H75.4351V39.7389H73.3664V39.6719L73.9288 39.6786V37.7037H72.1078V39.6786H72.6635V39.7389H70.6016V39.6719L71.1572 39.6786V35.7958H70.6016V35.7222L72.6635 35.7422Z" fill="white"/>
<path d="M80.8673 35.7422V36.733H80.7936C80.7602 36.666 80.7267 36.5656 80.6865 36.492L80.479 36.1907C80.3839 36.0821 80.2613 36.0012 80.1242 35.9564C79.9597 35.8838 79.7817 35.8473 79.602 35.8493H78.5844V37.6233H79.0129C79.1222 37.6248 79.2302 37.5996 79.3275 37.5497C79.4271 37.5085 79.5197 37.452 79.602 37.3823C79.6805 37.3055 79.74 37.2116 79.776 37.1078C79.8287 37.0001 79.8648 36.885 79.8832 36.7665H79.9501V38.5272H79.8832L79.776 38.2259C79.74 38.1221 79.6805 38.0281 79.602 37.9514C79.529 37.8909 79.4448 37.8455 79.3543 37.8175C79.241 37.7839 79.1242 37.7637 79.0062 37.7573H78.5844V39.7656H79.602C79.7814 39.7644 79.9588 39.728 80.1242 39.6585C80.273 39.5963 80.4145 39.5177 80.5459 39.4242C80.6601 39.3055 80.7674 39.1803 80.8673 39.0493C80.9431 38.8979 81.0015 38.7385 81.0413 38.574H81.115V39.8259H77.0982V39.7589H77.6606V35.8091H77.0781V35.7422H80.8673Z" fill="white"/>
<path d="M88.401 34.3164V34.4168H87.591L89.3449 38.6077L91.1324 34.4168H90.3625V34.3164H91.9759V34.4168H91.2328L88.8228 40.0001H88.5751L86.2253 34.4168H85.5625V34.3164H88.401Z" fill="white"/>
<path d="M96.7007 34.3164V34.4168H95.9308V39.6654H96.7007V39.7658H93.9023V39.6654H94.6655V34.4168H93.9023V34.3164H96.7007Z" fill="white"/>
<path d="M104.198 35.8829C104.124 35.7155 104.057 35.5415 103.984 35.3406C103.892 35.1556 103.775 34.9843 103.635 34.8318C103.5 34.6574 103.316 34.5269 103.107 34.4569C102.898 34.3582 102.668 34.31 102.437 34.3163H102.29C101.958 34.3151 101.63 34.3834 101.326 34.5171C101.093 34.6465 100.91 34.8489 100.804 35.0929C100.666 35.3714 100.581 35.6735 100.556 35.9833V37.1013C100.555 37.5495 100.588 37.9972 100.656 38.4402C100.689 38.7342 100.8 39.014 100.978 39.2503C101.112 39.4536 101.306 39.6104 101.533 39.6988C101.792 39.7865 102.063 39.8317 102.337 39.8327H102.39C102.62 39.8357 102.849 39.7901 103.06 39.6988C103.267 39.6065 103.457 39.4797 103.622 39.3239C103.781 39.1764 103.912 39.0018 104.01 38.8084C104.105 38.611 104.185 38.4075 104.251 38.1992H104.392V39.826H104.251C104.226 39.776 104.192 39.7308 104.151 39.6921C104.104 39.6655 104.051 39.6516 103.997 39.6519C103.897 39.6519 103.823 39.6921 103.716 39.6921L103.334 39.7925C103.18 39.8134 103.028 39.847 102.879 39.8929C102.79 39.8996 102.7 39.8996 102.611 39.8929C102.524 39.8996 102.437 39.8996 102.35 39.8929C101.543 39.8886 100.763 39.5994 100.148 39.0762C99.8593 38.8289 99.6208 38.529 99.4447 38.1925C99.2749 37.8442 99.1857 37.462 99.1836 37.0745C99.1872 36.6576 99.288 36.2472 99.4782 35.8762C99.6779 35.5364 99.926 35.2275 100.215 34.959C100.527 34.7214 100.869 34.5256 101.232 34.3766C101.59 34.2429 101.968 34.1749 102.35 34.1758H102.598H102.846L103.261 34.2828L103.615 34.3833C103.708 34.4012 103.804 34.4012 103.897 34.3833C103.953 34.4012 104.014 34.4012 104.071 34.3833C104.091 34.3673 104.108 34.347 104.119 34.3239C104.131 34.3007 104.137 34.2753 104.138 34.2494H104.278V35.8092L104.211 35.8896L104.198 35.8829Z" fill="white"/>
<path d="M108.645 34.4165C108.458 34.4241 108.272 34.4488 108.089 34.4902C107.924 34.5221 107.768 34.5907 107.634 34.691C107.483 34.7951 107.361 34.9356 107.279 35.0993C107.166 35.3141 107.072 35.5381 106.998 35.7688H106.891V34.3696H112.246V35.7555H112.159C112.087 35.5238 111.993 35.2997 111.878 35.086C111.801 34.9212 111.68 34.7802 111.53 34.6776C111.394 34.5745 111.236 34.5055 111.068 34.4768C110.883 34.4349 110.695 34.4103 110.506 34.4031H110.151V39.6584H110.921V39.7588H108.143V39.6584H108.912V34.4031H108.658L108.645 34.4165Z" fill="white"/>
<path d="M114.949 35.8831C115.33 35.1718 115.97 34.6346 116.737 34.3835C117.089 34.2495 117.464 34.1813 117.841 34.1827C118.232 34.1808 118.62 34.2512 118.986 34.3902C119.354 34.5208 119.697 34.7157 119.997 34.9659C120.305 35.2019 120.557 35.5039 120.733 35.8497C120.91 36.2227 121.006 36.6287 121.014 37.0413C121 37.415 120.916 37.7828 120.767 38.1258C120.595 38.4681 120.369 38.7801 120.097 39.0496C119.81 39.3254 119.464 39.5335 119.086 39.6589C118.693 39.8088 118.276 39.8903 117.855 39.8999C117.438 39.9001 117.024 39.8323 116.629 39.6991C116.252 39.5682 115.908 39.3582 115.619 39.0831C115.342 38.8328 115.115 38.5331 114.949 38.1994C114.769 37.8515 114.673 37.4664 114.668 37.0748V37.0346C114.668 36.6294 114.776 36.2317 114.983 35.8831H114.949ZM116.141 38.407C116.18 38.7083 116.288 38.9968 116.455 39.2505C116.603 39.4444 116.796 39.5986 117.018 39.6991C117.265 39.7874 117.525 39.8326 117.788 39.8329H117.962C118.255 39.8318 118.545 39.7606 118.805 39.6254C119.04 39.4964 119.225 39.2941 119.334 39.0496C119.467 38.7762 119.535 38.4764 119.535 38.1727C119.567 37.8703 119.583 37.5663 119.582 37.2622C119.582 37.1953 119.582 37.1216 119.582 37.0547C119.582 36.9877 119.582 36.9141 119.582 36.8539C119.583 36.5809 119.567 36.3081 119.535 36.0371C119.509 35.7434 119.441 35.455 119.334 35.1802C119.213 34.9438 119.031 34.7447 118.805 34.6044C118.495 34.472 118.162 34.4038 117.824 34.4038C117.487 34.4038 117.154 34.472 116.844 34.6044C116.609 34.7433 116.415 34.942 116.281 35.1802C116.146 35.4598 116.062 35.7614 116.034 36.0706C116.034 36.4388 115.967 36.8137 115.967 37.1886C115.995 37.6095 116.053 38.0279 116.141 38.4405V38.407Z" fill="white"/>
<path d="M123.391 34.417V34.3232H126.068C126.293 34.33 126.516 34.3501 126.738 34.3835C126.971 34.4151 127.197 34.4852 127.407 34.591C127.61 34.6898 127.79 34.8287 127.936 34.9994C128.076 35.1795 128.151 35.4009 128.15 35.6287V35.6756C128.151 35.8486 128.103 36.0182 128.01 36.1643C127.907 36.3033 127.774 36.4176 127.622 36.499C127.458 36.5976 127.279 36.6699 127.093 36.7132L126.504 36.8069C126.751 36.8311 126.995 36.8782 127.233 36.9475C127.431 36.9799 127.622 37.048 127.796 37.1483C127.947 37.2484 128.079 37.3756 128.184 37.5233C128.293 37.7301 128.352 37.9592 128.358 38.1927C128.341 38.4561 128.366 38.7204 128.432 38.9759C128.434 39.1256 128.457 39.2742 128.499 39.4178C128.503 39.4604 128.519 39.5012 128.543 39.5363C128.568 39.5714 128.601 39.5997 128.639 39.6186C128.719 39.6626 128.809 39.6856 128.9 39.6856C128.992 39.6856 129.081 39.6626 129.161 39.6186C129.235 39.5517 129.302 39.5183 129.376 39.4446L129.443 39.5182L129.268 39.6521C129.213 39.6891 129.154 39.7227 129.094 39.7525C129.005 39.7981 128.907 39.8211 128.807 39.8195C128.704 39.8486 128.598 39.8644 128.492 39.8664H128.412C128.164 39.8666 127.919 39.8212 127.689 39.7324C127.533 39.6543 127.402 39.5365 127.307 39.391C127.227 39.2524 127.167 39.1038 127.126 38.9491C127.116 38.8221 127.116 38.6946 127.126 38.5676V37.8981C127.114 37.7102 127.066 37.5263 126.986 37.3559C126.907 37.2011 126.786 37.0712 126.638 36.981C126.457 36.8882 126.258 36.84 126.055 36.8404H125.446V39.632H126.216V39.7324H123.411V39.6253H124.207V34.3701H123.397V34.4103L123.391 34.417ZM125.74 36.8002C125.936 36.8001 126.131 36.7684 126.316 36.7065C126.452 36.6532 126.574 36.5683 126.671 36.4588C126.737 36.3444 126.785 36.2201 126.812 36.0906C126.833 35.978 126.844 35.8638 126.845 35.7492C126.845 35.7492 126.845 35.7023 126.845 35.6823C126.848 35.6489 126.848 35.6152 126.845 35.5818C126.843 35.4185 126.819 35.2561 126.771 35.0998C126.743 34.9528 126.684 34.8136 126.597 34.6914C126.518 34.5836 126.409 34.502 126.283 34.4571C126.14 34.4089 125.991 34.384 125.841 34.3835H125.406V36.7601H125.72L125.74 36.8002Z" fill="white"/>
<path d="M134.081 34.3164V34.4168H133.271V39.6654H134.047V39.7658H131.242V39.6654H132.012V34.4168H131.242V34.3164H134.081Z" fill="white"/>
<path d="M136.778 35.8831C136.974 35.5311 137.236 35.2198 137.548 34.9659C137.857 34.726 138.197 34.53 138.559 34.3835C138.912 34.2506 139.287 34.1825 139.664 34.1826H139.704C140.093 34.1815 140.479 34.2519 140.842 34.3902C141.209 34.5234 141.551 34.718 141.853 34.9659C142.161 35.2019 142.413 35.5039 142.589 35.8497C142.769 36.2216 142.865 36.6283 142.871 37.0412C142.858 37.4146 142.777 37.7824 142.63 38.1258C142.446 38.4694 142.209 38.7814 141.927 39.0496C141.636 39.3251 141.289 39.5332 140.909 39.6588C140.515 39.8088 140.099 39.8903 139.677 39.8998C139.263 39.9001 138.851 39.8323 138.459 39.699C138.084 39.5599 137.738 39.3509 137.441 39.0831C137.167 38.8314 136.94 38.5319 136.772 38.1994C136.593 37.8421 136.501 37.4475 136.504 37.0479C136.504 36.6436 136.598 36.2449 136.778 35.8831ZM137.963 38.407C138.003 38.7083 138.111 38.9967 138.278 39.2505C138.425 39.4444 138.619 39.5986 138.84 39.699C139.095 39.7847 139.362 39.8276 139.63 39.8262H139.784C140.078 39.825 140.367 39.7539 140.628 39.6186C140.862 39.4896 141.048 39.2874 141.157 39.0429C141.297 38.7672 141.371 38.4621 141.371 38.1526V37.0345C141.371 36.8672 141.371 36.6931 141.371 36.5257C141.371 36.3584 141.371 36.1844 141.371 36.017C141.339 35.7236 141.269 35.4355 141.163 35.1601C141.043 34.9237 140.86 34.7246 140.635 34.5844C140.325 34.452 139.991 34.3837 139.654 34.3837C139.317 34.3837 138.983 34.452 138.673 34.5844C138.44 34.7153 138.255 34.9169 138.144 35.1601C138.011 35.4401 137.93 35.7416 137.903 36.0504C137.863 36.4186 137.836 36.7936 137.83 37.1685C137.823 37.5434 137.903 37.9517 137.97 38.4204L137.963 38.407Z" fill="white"/>
<path d="M147.989 34.3227V34.4164H147.199V37.8574C147.199 37.9779 147.199 38.0984 147.199 38.2189C147.199 38.3394 147.199 38.4532 147.199 38.5737C147.226 38.7843 147.285 38.9897 147.373 39.1829C147.475 39.3623 147.62 39.5139 147.794 39.6247C147.999 39.7404 148.229 39.8004 148.464 39.7988H148.544C148.802 39.7922 149.057 39.7586 149.307 39.6984C149.495 39.6458 149.674 39.5644 149.836 39.4574C149.967 39.3709 150.075 39.2537 150.151 39.1159C150.225 38.9874 150.284 38.8503 150.325 38.7076C150.365 38.5737 150.365 38.4666 150.399 38.3327V34.3896H149.649V34.2958H151.369V34.3896H150.559V38.3327C150.557 38.4714 150.535 38.609 150.492 38.7411C150.451 38.8838 150.393 39.0209 150.318 39.1494C150.218 39.2883 150.101 39.4143 149.97 39.5244C149.786 39.6492 149.583 39.742 149.368 39.7988C149.082 39.8656 148.79 39.8993 148.497 39.8992H148.397C147.978 39.9009 147.562 39.8446 147.159 39.7319C146.87 39.6495 146.608 39.4951 146.395 39.2833C146.228 39.1128 146.106 38.9035 146.041 38.6741C145.995 38.4902 145.973 38.3012 145.974 38.1117V34.3561H145.23V34.249L148.022 34.3227H147.989Z" fill="white"/>
<path d="M153.912 38.0989C153.921 38.1802 153.944 38.2594 153.979 38.3332C154.019 38.4403 154.053 38.534 154.086 38.6411C154.145 38.7732 154.216 38.8989 154.301 39.016C154.373 39.1537 154.479 39.271 154.609 39.3575C154.725 39.4639 154.856 39.554 154.997 39.6252C155.107 39.6857 155.224 39.733 155.345 39.7658C155.434 39.7761 155.524 39.7761 155.613 39.7658H155.981C156.211 39.7598 156.438 39.7121 156.65 39.6252C156.823 39.5601 156.978 39.4572 157.106 39.324C157.204 39.2103 157.287 39.0842 157.353 38.949C157.392 38.8276 157.415 38.7016 157.42 38.5742V38.534C157.417 38.3763 157.368 38.223 157.28 38.0922C157.178 37.9632 157.047 37.8599 156.898 37.7909C156.725 37.6884 156.534 37.6182 156.336 37.5834L155.707 37.416L155.077 37.2085C154.871 37.1433 154.678 37.0413 154.508 36.9072C154.337 36.7884 154.206 36.6203 154.133 36.4252C154.04 36.2312 153.991 36.0182 153.993 35.8026C153.999 35.603 154.047 35.4069 154.133 35.2269C154.226 35.023 154.369 34.8458 154.548 34.7114C154.752 34.5636 154.978 34.4484 155.218 34.37C155.46 34.2818 155.716 34.2365 155.974 34.2361H156.021C156.101 34.2294 156.182 34.2294 156.262 34.2361C156.345 34.2292 156.427 34.2292 156.51 34.2361L156.898 34.3432L157.179 34.4436C157.259 34.4614 157.341 34.4614 157.42 34.4436H157.507H157.601C157.64 34.4093 157.664 34.3613 157.668 34.3097H157.809V35.8093H157.702C157.635 35.642 157.561 35.4679 157.494 35.267C157.42 35.0956 157.326 34.9338 157.213 34.785C157.084 34.6438 156.929 34.528 156.758 34.4436C156.546 34.3557 156.318 34.3125 156.088 34.3164C155.886 34.3192 155.684 34.3394 155.486 34.3767C155.325 34.415 155.178 34.4986 155.064 34.6177C154.953 34.7036 154.858 34.8078 154.783 34.9257C154.714 35.0237 154.676 35.1405 154.676 35.2604C154.676 35.3372 154.693 35.413 154.724 35.4832C154.755 35.5535 154.8 35.6166 154.856 35.6688C154.968 35.8059 155.113 35.9119 155.278 35.9767C155.467 36.0714 155.665 36.1498 155.867 36.211L156.537 36.4118C156.784 36.4788 156.992 36.5524 157.206 36.6193C157.421 36.6879 157.622 36.792 157.802 36.9273C157.967 37.0474 158.107 37.1972 158.217 37.3691C158.333 37.5732 158.393 37.804 158.391 38.0386C158.39 38.2855 158.33 38.5287 158.217 38.7482C158.114 38.9855 157.944 39.1878 157.728 39.3307C157.507 39.5066 157.258 39.6445 156.992 39.739C156.734 39.8321 156.462 39.8796 156.189 39.8796H155.961C155.815 39.8832 155.669 39.8697 155.526 39.8395L155.03 39.7457L154.642 39.6386C154.576 39.6285 154.508 39.6285 154.441 39.6386H154.368C154.321 39.6286 154.273 39.6286 154.227 39.6386C154.187 39.6386 154.16 39.7458 154.12 39.7792H153.973V38.0788H153.879L153.912 38.0989Z" fill="white"/>
<path d="M94.6289 6.35317C94.6278 7.15787 94.522 7.95904 94.3143 8.73648C94.1068 9.58 93.9327 10.0754 93.7586 10.0754C93.7104 10.0757 93.6639 10.058 93.628 10.0258C93.5921 9.99362 93.5695 9.94926 93.5645 9.90133V9.82762C93.5645 9.76737 93.5645 9.70042 93.5645 9.66025C93.9556 8.65021 94.1576 7.57685 94.1603 6.49373C94.167 6.38002 94.167 6.26601 94.1603 6.15229C94.1551 5.42643 94.0068 4.70873 93.7239 4.04021C93.4411 3.3717 93.0292 2.76555 92.5119 2.25633C91.9946 1.7471 91.382 1.3448 90.7091 1.07251C90.0362 0.800233 89.3163 0.663288 88.5904 0.669466H88.2624C85.6436 0.727327 83.093 1.5157 80.8983 2.94564C82.9067 4.41176 83.9042 6.07869 83.9042 8.02681C83.9042 11.113 81.7352 12.9875 77.3904 13.5632C80.9653 14.7951 82.746 17.0043 82.746 20.2578C82.746 22.6411 81.6883 24.7499 79.5929 26.5508C77.5884 28.2835 75.0257 29.2344 72.3761 29.2286H72.0548C70.9713 29.2283 69.9187 28.868 69.0623 28.2043C68.6874 27.8816 68.3864 27.482 68.1796 27.0327C67.9729 26.5833 67.8652 26.0947 67.864 25.6001C67.8606 25.5511 67.8606 25.5019 67.864 25.4528C67.864 23.6855 68.7008 21.9114 70.3945 20.144C72.0883 18.3766 73.7418 17.5198 75.469 17.5198H75.6163C76.4198 17.5201 77.193 17.8264 77.7787 18.3766C78.061 18.6497 78.2863 18.9761 78.4414 19.337C78.5966 19.6979 78.6785 20.086 78.6824 20.4787V20.5926C78.6458 21.2904 78.4681 21.9736 78.1603 22.6009C77.8054 23.411 77.5243 23.826 77.3167 23.826C77.1092 23.826 77.0757 23.7524 77.0757 23.6587C77.0774 23.5718 77.1004 23.4868 77.1427 23.411C77.7964 22.596 78.1864 21.6012 78.2607 20.5591C78.264 20.5123 78.264 20.4653 78.2607 20.4185C78.2595 20.0799 78.1874 19.7453 78.0491 19.4363C77.9107 19.1273 77.7091 18.8507 77.4573 18.6243C76.8999 18.14 76.1873 17.8716 75.4489 17.8678H75.4088C73.7954 17.8678 72.2155 18.6779 70.6757 20.3449C69.1359 22.0118 68.3594 23.6921 68.3594 25.4193V25.5198C68.3622 25.937 68.451 26.3491 68.6203 26.7304C68.7897 27.1117 69.0358 27.4538 69.3435 27.7356C69.9638 28.3232 70.7853 28.6514 71.6397 28.6529H71.7602C73.9627 28.6529 75.9644 27.6286 77.7854 25.5533C79.5212 23.6956 80.496 21.2537 80.5167 18.7113C80.5167 16.4017 79.3653 14.6946 77.0891 13.6101L75.8238 13.7507C75.4757 13.7507 75.1544 13.8176 74.7728 13.8176C73.6883 13.8176 73.1259 13.6436 73.1259 13.3022C73.1259 13.0678 73.5811 12.9272 74.4648 12.9272C75.3275 12.968 76.1841 13.0936 77.0222 13.3022C78.4242 12.923 79.6664 12.1012 80.5636 10.959C81.401 9.91938 81.8591 8.62539 81.8624 7.29042C81.8624 7.23017 81.8624 7.16991 81.8624 7.10966C81.8609 6.40209 81.7139 5.70234 81.4306 5.05396C81.1473 4.40558 80.7337 3.82241 80.2155 3.3406C77.069 5.68371 74.1234 9.64023 71.3585 15.2503C69.638 18.6846 68.0983 21.2084 66.6723 22.7348C64.9851 24.457 62.9858 25.8428 60.7811 26.8185C57.7752 28.211 55.1108 28.9273 52.7476 28.9273H52.4731C50.8679 28.9207 49.298 28.4562 47.9476 27.5884C47.3806 27.2646 46.9059 26.8013 46.5684 26.2424C46.231 25.6834 46.042 25.0475 46.0195 24.395V24.4286C46.0209 23.7737 46.2586 23.1413 46.689 22.6478C46.8747 22.4065 47.1128 22.2106 47.3854 22.0749C47.6579 21.9392 47.9578 21.8673 48.2622 21.8646C49.1459 21.8646 49.6011 22.3399 49.6011 23.2905V23.3373C49.6007 23.7326 49.4688 24.1165 49.2262 24.4286C49.092 24.5856 48.9259 24.7122 48.7389 24.8C48.5518 24.8877 48.3483 24.9345 48.1417 24.9373H48.0011C47.8752 24.9391 47.7501 24.9158 47.6332 24.8689C47.5163 24.8219 47.41 24.7521 47.3203 24.6637C47.2306 24.5752 47.1593 24.4698 47.1107 24.3536C47.0621 24.2374 47.0371 24.1127 47.0371 23.9867C47.0305 23.9266 47.0305 23.866 47.0371 23.8059C47.0371 23.498 47.0371 23.3641 46.9702 23.3641C46.7225 23.3641 46.6154 23.739 46.6154 24.4487C46.6335 25.0419 46.8044 25.6205 47.1117 26.1284C47.419 26.6362 47.8522 27.0561 48.3693 27.3474C49.5937 28.107 51.0055 28.5104 52.4463 28.5122H52.7878C55.9648 28.5033 59.0192 27.285 61.3301 25.1047C62.3956 24.1901 63.3606 23.1644 64.2087 22.0452C65.0121 20.9875 66.8799 18.2763 69.8121 13.9114C71.347 11.6725 73.0549 9.5572 74.9201 7.58495C76.4343 5.88644 78.1165 4.34553 79.941 2.98577C77.6648 1.15145 74.3711 0.194177 70.0933 0.194177H69.8723C64.0434 0.189934 58.4461 2.47643 54.2873 6.56074C50.612 10.0352 48.7911 13.3289 48.7911 16.4084V16.6159C48.7913 17.275 48.9289 17.9268 49.1952 18.5297C49.4614 19.1325 49.8505 19.6733 50.3375 20.1173C51.425 21.0248 52.7974 21.5201 54.2137 21.5164H54.535C57.4137 21.5164 60.3861 20.1775 63.4723 17.4997C66.5585 14.8218 68.0983 12.1908 68.0983 9.68036C68.0983 7.67198 67.0405 6.64769 64.905 6.64769C62.7694 6.64769 60.4932 7.80589 58.0363 10.1155C55.5794 12.4252 54.361 14.5741 54.361 16.6159V16.6628C54.361 16.8993 54.4077 17.1333 54.4985 17.3516C54.5892 17.5699 54.7223 17.7681 54.8899 17.9348C55.0391 18.1023 55.2214 18.2369 55.4254 18.3303C55.6294 18.4236 55.8505 18.4736 56.0748 18.4771C56.3225 18.5105 56.4296 18.5775 56.4296 18.6511C56.4296 18.7248 56.289 18.852 56.0079 18.852C55.6642 18.8515 55.3258 18.7678 55.0215 18.6081C54.7173 18.4483 54.4562 18.2174 54.2606 17.9348C53.8335 17.3515 53.5995 16.6493 53.5911 15.9265C53.5878 15.8685 53.5878 15.8104 53.5911 15.7524C53.5911 13.6101 54.8185 11.5013 57.2731 9.42596C59.7167 7.35064 62.2405 6.35987 64.838 6.35987C67.3217 6.35987 68.5468 7.48456 68.5468 9.70716C68.5468 12.4319 66.9736 15.1566 63.8204 17.908C60.6673 20.6595 57.5811 22.0653 54.535 22.0653H54.2472C52.5779 22.0658 50.9686 21.4427 49.735 20.3181C49.1671 19.7527 48.7163 19.081 48.4085 18.3412C48.1006 17.6013 47.9417 16.8081 47.9409 16.0068C47.9409 15.893 47.9409 15.7725 47.9409 15.652C47.9409 11.7155 50.217 8.10047 54.8028 4.86699C59.172 1.70133 64.43 -0.00215593 69.8255 7.34279e-06H70.5954C74.1266 -0.00303617 77.5941 0.940101 80.6372 2.73137C82.9024 1.2474 85.5354 0.4223 88.2423 0.348139H88.5636C90.1554 0.347925 91.6892 0.945203 92.8616 2.02179C93.4203 2.56087 93.8652 3.20656 94.1699 3.92066C94.4746 4.63475 94.633 5.40271 94.6356 6.1791C94.6356 6.25943 94.6356 6.33976 94.6356 6.42009L94.6289 6.35317Z" fill="white"/>
<path d="M98.7673 21.5229C98.7673 21.7573 98.3455 22.2727 97.5087 23.0962C96.2412 24.3146 95.083 24.9238 94.0342 24.9238H93.9873C93.5938 24.9236 93.2044 24.8439 92.8425 24.6895C90.9457 27.3137 89.1605 28.6259 87.4869 28.6259C87.0669 28.6264 86.6518 28.5357 86.2704 28.36C85.8889 28.1843 85.5502 27.9278 85.2777 27.6083C84.69 26.9457 84.3661 26.0906 84.3672 25.205V25.0978C84.3672 22.9623 85.8065 20.8869 88.712 18.912C90.7204 17.4861 92.4208 16.8032 93.7262 16.8032C95.0317 16.8032 95.5806 17.4727 95.5806 18.7715C95.5806 20.3715 94.7036 22.2794 92.9831 24.5555C93.2423 24.7169 93.5414 24.8027 93.8467 24.8033H93.9672C94.7943 24.7302 95.5836 24.4237 96.2434 23.9196C97.0856 23.3708 97.8021 22.6498 98.3455 21.8041C98.5196 21.6032 98.6267 21.5028 98.6936 21.5028C98.7606 21.5028 98.7338 21.5028 98.7338 21.5698C98.7338 21.6367 98.7338 21.4761 98.7338 21.5095L98.7673 21.5229ZM95.2593 18.6978C95.2593 17.5798 94.7371 16.9974 93.6861 16.9974C92.3873 16.9974 90.7739 18.2292 88.9195 20.6392C87.0651 23.0493 86.1212 25.0978 86.1212 26.7648C86.1145 26.8248 86.1145 26.8855 86.1212 26.9455C86.122 27.1123 86.1559 27.2772 86.2207 27.4308C86.2855 27.5844 86.38 27.7237 86.4989 27.8406C86.6177 27.9576 86.7585 28.0499 86.9131 28.1123C87.0677 28.1746 87.2331 28.2059 87.3998 28.2041H87.5672C89.107 28.2041 90.8208 26.9723 92.6484 24.4886C92.2759 24.1386 92.0509 23.6598 92.0191 23.1497C92.0425 22.3684 92.3386 21.6201 92.8559 21.0342C93.0304 20.7412 93.2694 20.4917 93.5548 20.305C93.8402 20.1182 94.1644 19.999 94.5028 19.9563C94.7505 19.9563 94.8911 20.0836 94.9915 20.3581C95.1785 19.885 95.2739 19.3806 95.2727 18.8718V18.7246L95.2593 18.6978Z" fill="white"/>
<path d="M113.974 21.5562C113.974 21.8642 112.923 23.1897 110.82 25.573C109.133 27.5813 107.774 28.5387 106.804 28.5387H106.73C106.435 28.5392 106.143 28.4746 105.876 28.3497C105.609 28.2247 105.372 28.0424 105.184 27.8157C104.779 27.344 104.556 26.7434 104.554 26.122C104.554 26.122 104.554 26.055 104.554 26.0215C104.584 25.1617 104.813 24.3205 105.224 23.5646C104.246 24.9731 103.144 26.2906 101.93 27.501C101.341 28.0973 100.557 28.461 99.7208 28.5253C99.3501 28.5261 98.9843 28.4399 98.6529 28.2736C98.3216 28.1073 98.0338 27.8656 97.8128 27.5679C97.3151 26.9288 97.0442 26.1421 97.043 25.332C97.043 25.2851 97.043 25.2316 97.043 25.1847C97.043 22.5069 98.9643 20.1504 102.854 18.0751C104.574 17.1579 105.94 16.6826 106.984 16.6826C107.868 16.6826 108.323 17.091 108.323 17.9412C108.312 18.2649 108.254 18.5851 108.149 18.8918L109.227 16.8834C109.58 16.9711 109.942 17.0161 110.305 17.0173H110.352C110.856 17.0093 111.36 16.9645 111.858 16.8834L108.042 23.009C106.703 25.1512 106.034 26.5772 106.081 27.26C106.128 27.9429 106.362 28.2441 106.917 28.2441C107.473 28.2441 108.43 27.5747 109.689 26.3429C111.099 24.8754 112.387 23.2946 113.538 21.6165C113.559 21.5644 113.592 21.5184 113.636 21.4832C113.679 21.4479 113.731 21.4247 113.786 21.4157C113.86 21.4157 113.927 21.4156 113.927 21.4759L113.967 21.5562H113.974ZM108.015 18.0885C108.037 17.9525 108.027 17.8134 107.986 17.6821C107.945 17.5507 107.874 17.4307 107.778 17.3315C107.683 17.2322 107.566 17.1564 107.436 17.11C107.307 17.0636 107.168 17.048 107.031 17.0642C105.692 17.0642 103.985 18.3228 101.85 20.8466C99.7141 23.3705 98.6296 25.3722 98.6296 26.932C98.6296 27.8558 99.0513 28.2709 99.8882 28.2709C100.866 28.2709 102.582 26.6709 105.036 23.4709C107.045 20.793 108.015 19.0457 108.015 18.0416V18.0885Z" fill="white"/>
<path d="M133.522 6.96208C128.166 15.2768 124.779 20.5855 123.36 22.8884C121.96 25.2316 121.224 26.7312 121.224 27.3404C121.217 27.3848 121.217 27.4299 121.224 27.4743C121.226 27.6951 121.315 27.9061 121.471 28.0616C121.628 28.2171 121.84 28.3044 122.061 28.3044H122.114C123.406 28.3044 125.649 26.0952 128.809 21.6701C128.828 21.6179 128.86 21.5715 128.903 21.5351C128.945 21.4988 128.995 21.4738 129.05 21.4625C129.124 21.4625 129.157 21.4625 129.197 21.5629V21.6031C129.124 21.7303 129.05 21.8375 128.983 21.9379L128.039 23.163C125.361 26.8115 123.306 28.6392 122.014 28.6392H121.94C121.647 28.6403 121.358 28.5774 121.092 28.4548C120.826 28.3322 120.59 28.1529 120.4 27.9295C119.992 27.4443 119.769 26.8299 119.771 26.1956V26.0952C119.817 25.1698 120.081 24.2683 120.541 23.4643C118.017 26.9321 116.163 28.6325 114.938 28.6325H114.904C114.536 28.633 114.173 28.5472 113.844 28.3821C113.515 28.2171 113.229 27.9772 113.01 27.6818C112.508 27.0391 112.235 26.2477 112.233 25.4324C112.23 25.3901 112.23 25.3476 112.233 25.3053C112.233 23.0224 113.706 20.9135 116.645 19.0391C118.995 17.5462 120.849 16.7964 122.181 16.7964C123.058 16.7964 123.52 17.2048 123.52 18.055C123.512 18.5234 123.39 18.9829 123.165 19.3939L130.837 6.92188C131.287 7.05545 131.754 7.12313 132.223 7.12275C132.603 7.03457 132.991 6.98961 133.381 6.9888L133.522 6.96208ZM123.145 18.1889C123.145 17.4391 122.804 17.0642 122.101 17.0642C120.802 17.0642 119.088 18.3228 116.986 20.8064C114.884 23.2901 113.8 25.3387 113.8 26.8651C113.8 27.8224 114.181 28.2575 114.991 28.2575C116.143 28.2575 118.104 26.3228 120.909 22.44C122.416 20.3646 123.145 18.9387 123.145 18.1889Z" fill="white"/>
<path d="M136.526 21.5565C136.453 21.6636 136.386 21.7975 136.312 21.8979L135.368 23.123C132.69 26.7649 130.602 28.5992 129.169 28.5992H129.122C128.815 28.5995 128.511 28.5359 128.23 28.4126C127.949 28.2893 127.696 28.1089 127.489 27.8829C127.06 27.4551 126.82 26.8748 126.819 26.2695C126.816 26.2316 126.816 26.1935 126.819 26.1556C126.819 25.3389 127.308 24.1116 128.285 22.4736L131.632 16.9306C131.975 17.0117 132.325 17.0566 132.677 17.0644C133.228 17.0567 133.778 17.012 134.324 16.9306L129.423 24.723C128.855 25.4941 128.494 26.3974 128.372 27.3473C128.369 27.3762 128.369 27.4054 128.372 27.4343C128.374 27.6693 128.469 27.894 128.635 28.0596C128.802 28.2251 129.028 28.3181 129.263 28.3181H129.396C130.655 28.3181 132.931 26.1088 136.151 21.6837C136.225 21.5431 136.292 21.4761 136.366 21.4761C136.439 21.4761 136.506 21.4761 136.506 21.543L136.526 21.5565ZM136.205 12.9138C136.202 13.1684 136.145 13.4194 136.038 13.6503C135.93 13.8811 135.775 14.0865 135.582 14.2527C135.405 14.4515 135.19 14.613 134.95 14.7279C134.71 14.8429 134.449 14.9089 134.183 14.9222H134.049C133.843 14.9243 133.643 14.8514 133.487 14.7171C133.331 14.5829 133.228 14.3964 133.199 14.1924V13.9581C133.217 13.7018 133.285 13.4516 133.4 13.2218C133.515 12.992 133.674 12.7872 133.868 12.6192C134.233 12.2269 134.733 11.9877 135.268 11.9497H135.395C135.587 11.9482 135.774 12.0144 135.922 12.1369C136.07 12.2593 136.17 12.4301 136.205 12.6192V12.8669V12.9138Z" fill="white"/>
<path d="M147.252 21.5561C147.252 21.7302 146.241 22.895 144.206 25.0641C141.996 27.4139 140.102 28.572 138.562 28.572C138.078 28.5698 137.599 28.469 137.154 28.2756C136.71 28.0822 136.31 27.8005 135.978 27.4474C135.285 26.7461 134.894 25.802 134.887 24.8164C134.955 23.4728 135.471 22.1908 136.353 21.1745C137.43 19.8437 138.767 18.7458 140.283 17.9477C141.301 17.2878 142.467 16.89 143.677 16.7896C144.734 16.7896 145.263 17.3988 145.263 18.6239C145.224 19.6697 144.867 20.6787 144.239 21.516C143.57 22.4666 142.9 22.9486 142.231 22.9486H142.11C141.904 22.9511 141.704 22.8795 141.547 22.7467C141.39 22.6139 141.285 22.4289 141.253 22.2256V21.9913C141.253 21.2415 141.923 20.572 143.262 19.9829C144.286 19.5009 144.775 18.8582 144.775 17.9745C144.775 17.3653 144.427 17.0238 143.717 17.0238C142.532 17.0238 141.039 18.182 139.345 20.4649C137.652 22.7477 136.748 24.6825 136.748 26.249C136.748 27.5879 137.384 28.2173 138.642 28.2173C140.651 28.2173 143.329 26.0415 146.676 21.7235C146.843 21.4825 146.984 21.3887 147.091 21.3887C147.13 21.3936 147.166 21.4127 147.192 21.4423C147.218 21.472 147.232 21.51 147.232 21.5494L147.252 21.5561Z" fill="white"/>
<path d="M158.074 21.5565C157.966 21.7506 157.839 21.9324 157.692 22.0988L156.782 23.2234C153.802 26.805 151.245 28.5791 149.143 28.5791H149.069C148.61 28.5794 148.155 28.485 147.733 28.3019C147.312 28.1187 146.933 27.8508 146.619 27.5147C145.966 26.8503 145.601 25.9558 145.602 25.0243V24.8903C145.602 22.3799 147.389 20.164 150.997 18.2628C152.89 17.2675 154.432 16.7677 155.623 16.7632H155.67C156.134 16.762 156.585 16.9176 156.949 17.205C157.118 17.3338 157.256 17.4986 157.353 17.6873C157.45 17.876 157.504 18.084 157.511 18.2962C157.511 19.2803 156.842 20.164 155.503 20.8402C153.332 21.7944 151.049 22.4693 148.708 22.8485C147.724 24.2812 147.235 25.4795 147.235 26.4636C147.235 27.6486 147.904 28.2644 149.243 28.2644C151.526 28.2644 154.291 26.1222 157.585 21.7975C157.759 21.5564 157.9 21.4561 158 21.4561C158.1 21.4561 158.1 21.4962 158.067 21.5632L158.074 21.5565ZM156.286 17.6803C156.286 17.2385 156.038 17.0109 155.523 17.0109C154.746 17.0109 153.769 17.5263 152.504 18.5439C151.141 19.7403 149.919 21.0879 148.862 22.5606C150.721 22.127 152.496 21.392 154.117 20.3849C155.556 19.4343 156.286 18.5506 156.286 17.7071V17.6803Z" fill="white"/>
<path d="M173.211 21.5564C173.211 21.8643 172.16 23.1899 170.058 25.5732C168.377 27.5815 167.005 28.5389 166.041 28.5389H165.981C165.686 28.5402 165.395 28.4767 165.128 28.3529C164.86 28.2291 164.624 28.048 164.434 27.8225C164.013 27.321 163.776 26.69 163.765 26.0351C163.798 25.178 164.027 24.3398 164.434 23.5849C163.459 24.9932 162.359 26.3107 161.147 27.5213C160.557 28.1166 159.773 28.4801 158.938 28.5456H158.898C158.538 28.5461 158.183 28.4629 157.861 28.3026C157.54 28.1422 157.259 27.9091 157.043 27.6217C156.544 26.9835 156.273 26.1962 156.273 25.3858V25.2384C156.273 22.5606 158.235 20.2041 162.125 18.1288C163.372 17.3451 164.788 16.8679 166.255 16.7363C167.132 16.7363 167.594 17.1447 167.594 17.9882C167.59 18.317 167.531 18.6428 167.42 18.9522L168.511 16.9438C168.868 17.0298 169.235 17.0725 169.602 17.0711H169.73C170.234 17.0589 170.737 17.0164 171.236 16.9438L167.413 23.0627C166.074 25.2049 165.452 26.6377 165.405 27.3138C165.358 27.99 165.686 28.3046 166.248 28.3046C166.811 28.3046 167.755 27.6351 169.013 26.3966C170.428 24.9309 171.717 23.35 172.869 21.6702C172.889 21.618 172.921 21.5716 172.963 21.5353C173.005 21.499 173.056 21.474 173.11 21.4627C173.138 21.4626 173.166 21.4685 173.191 21.4801C173.217 21.4916 173.239 21.5086 173.258 21.5297C173.258 21.5297 173.258 21.5296 173.258 21.5765L173.211 21.5564ZM167.286 18.0886C167.307 17.9533 167.297 17.8149 167.257 17.6841C167.216 17.5534 167.145 17.4337 167.051 17.3346C166.956 17.2355 166.84 17.1596 166.711 17.1127C166.583 17.0659 166.445 17.0493 166.309 17.0644C164.97 17.0644 163.256 18.323 161.127 20.8468C158.998 23.3707 157.9 25.3723 157.9 26.9322C157.9 27.856 158.322 28.2711 159.166 28.2711C160.143 28.2711 161.859 26.6711 164.314 23.471C166.322 20.7932 167.286 19.0459 167.286 18.0417V18.0886Z" fill="white"/>
</g>
<defs>
<clipPath id="clip0_8105_6153">
<rect width="220" height="40" fill="white"/>
</clipPath>
</defs>
</svg>
