<svg width="220" height="40" viewBox="0 0 220 40" fill="none" xmlns="http://www.w3.org/2000/svg">
<g clip-path="url(#clip0_8105_6046)">
<path d="M49.0574 17.385L49.1519 17.6259C49.4129 17.5069 49.6518 17.344 49.8576 17.1442C50.2278 16.7232 50.4325 16.1823 50.4338 15.6217C50.4298 15.4188 50.404 15.2168 50.3565 15.0195C50.337 14.9903 50.3101 14.9667 50.2788 14.9507H50.2272C49.6717 15.0959 49.1681 15.3939 48.7735 15.8109L48.6445 15.9571L48.8596 16.1119C48.8596 16.0603 48.9369 16.0173 48.9713 15.9743C49.2671 15.6573 49.6323 15.413 50.0382 15.2603L50.1671 15.2087V15.355C50.2145 15.6401 50.1966 15.9322 50.1146 16.2094C50.0327 16.4865 49.889 16.7414 49.6942 16.9549C49.5081 17.1381 49.2928 17.2893 49.0574 17.4023V17.385Z" fill="white"/>
<path d="M41.1445 25.9961H52.8779V25.7466H41.1445V25.9961Z" fill="white"/>
<path d="M46.615 26.9507H46.0904V27.0797C46.013 27.9399 45.6686 29.4883 44.8858 29.9614C44.8482 29.9851 44.8174 30.0182 44.7963 30.0574C44.7752 30.0966 44.7648 30.1406 44.7657 30.1851C44.7657 30.1851 44.7657 30.1851 44.7657 30.2367C44.7657 30.4174 45.0667 31.0281 47.0279 31.0281C48.9892 31.0281 49.2558 30.4174 49.2902 30.2367C49.2902 30.2367 49.2902 30.2367 49.2902 30.1851C49.2905 30.1408 49.2785 30.0974 49.2557 30.0595C49.233 30.0216 49.2004 29.9906 49.1612 29.97C48.2322 29.3937 47.9998 27.441 47.9654 27.0797V26.9507H47.4408V27.0883C47.4924 27.6131 47.7246 29.3851 48.645 30.2023C48.216 30.3883 47.7535 30.4848 47.2858 30.4861H47.0191H46.7356C46.2726 30.4845 45.8152 30.3849 45.3936 30.1937C46.1147 29.3128 46.5364 28.2251 46.5978 27.0883V26.9507H46.615Z" fill="white"/>
<path d="M52.9426 19.9832C52.9415 19.7836 52.901 19.5863 52.8233 19.4025C52.7457 19.2186 52.6326 19.052 52.4903 18.9121C52.348 18.7722 52.1793 18.6617 51.9942 18.5872C51.8091 18.5127 51.6112 18.4755 51.4116 18.4778H47.6008C47.8498 18.3784 48.064 18.208 48.2169 17.9877C48.3699 17.7675 48.4548 17.5072 48.461 17.2391C48.4652 17.2049 48.4652 17.1702 48.461 17.1359C48.4338 16.7952 48.2794 16.4772 48.0283 16.2454C47.7773 16.0135 47.4477 15.8848 47.106 15.8848C46.7642 15.8848 46.4351 16.0135 46.184 16.2454C45.9329 16.4772 45.7786 16.7952 45.7514 17.1359C45.7472 17.1702 45.7472 17.2049 45.7514 17.2391C45.7553 17.5077 45.8393 17.7691 45.9925 17.9897C46.1457 18.2104 46.3613 18.3803 46.6116 18.4778H42.5857C42.1833 18.4755 41.7965 18.6325 41.5096 18.9146C41.2227 19.1967 41.0592 19.5808 41.0547 19.9832V22.7702C41.0587 22.7843 41.0587 22.7992 41.0547 22.8133C41.0587 22.8302 41.0587 22.8479 41.0547 22.8648V22.9423V23.0025H41.3042V25.2218H41.8288V23.3724C42.0165 23.322 42.1815 23.2095 42.2971 23.0533C42.4127 22.8971 42.4718 22.7064 42.4651 22.5122V20.7918C42.4681 20.6812 42.5148 20.576 42.5945 20.4993C42.6442 20.449 42.7066 20.4133 42.7751 20.396H42.9813H43.033C43.0993 20.4663 43.1388 20.5577 43.1447 20.6541V21.4455C43.157 21.6596 43.2435 21.8628 43.3896 22.0198C43.5357 22.1769 43.7322 22.278 43.9449 22.3057H44.031C44.2626 22.3039 44.4849 22.214 44.6526 22.0542C44.8204 21.8944 44.9209 21.6768 44.934 21.4455V21.1702C44.9476 21.0807 44.9931 20.9991 45.0617 20.9401C45.1304 20.8811 45.2177 20.8486 45.3083 20.8486C45.3988 20.8486 45.4862 20.8811 45.5548 20.9401C45.6235 20.9991 45.6689 21.0807 45.6825 21.1702V22.3573C45.6825 22.5946 45.7768 22.8221 45.9446 22.9899C46.1124 23.1577 46.3399 23.252 46.5772 23.252C46.8144 23.252 47.0419 23.1577 47.2097 22.9899C47.3775 22.8221 47.4718 22.5946 47.4718 22.3573V22.0305C47.4741 21.9316 47.5149 21.8375 47.5856 21.7684C47.6564 21.6992 47.7513 21.6605 47.8503 21.6605C47.8984 21.6605 47.9461 21.6702 47.9905 21.6889C48.0349 21.7076 48.0753 21.7349 48.109 21.7694C48.1427 21.8039 48.1691 21.8447 48.1867 21.8895C48.2043 21.9344 48.2126 21.9823 48.2115 22.0305V23.0455C48.2115 23.2851 48.3067 23.5148 48.4761 23.6842C48.6455 23.8536 48.875 23.9487 49.1145 23.9487C49.3541 23.9487 49.584 23.8536 49.7534 23.6842C49.9228 23.5148 50.018 23.2851 50.018 23.0455V20.6627C50.018 20.5646 50.057 20.4705 50.1264 20.4012C50.1957 20.3318 50.2899 20.2928 50.388 20.2928C50.4366 20.2928 50.4847 20.3024 50.5296 20.321C50.5745 20.3395 50.6149 20.3668 50.6493 20.4012C50.6836 20.4355 50.7109 20.4763 50.7295 20.5212C50.7481 20.5661 50.7577 20.6142 50.7577 20.6627V22.2627C50.7614 22.4619 50.831 22.6543 50.9555 22.8099C51.08 22.9655 51.2526 23.0755 51.4461 23.1229V25.2907H51.9791V23.1229C52.1518 23.0559 52.2998 22.9374 52.4029 22.7836C52.506 22.6297 52.5591 22.4479 52.5554 22.2627L52.9687 19.9918L52.9426 19.9832ZM46.2416 17.2391C46.2416 17.011 46.3323 16.7922 46.4936 16.6308C46.6549 16.4695 46.8736 16.3789 47.1018 16.3789C47.3299 16.3789 47.5486 16.4695 47.71 16.6308C47.8713 16.7922 47.962 17.011 47.962 17.2391C47.962 17.4673 47.8713 17.686 47.71 17.8473C47.5486 18.0086 47.3299 18.0993 47.1018 18.0993C46.8736 18.0993 46.6549 18.0086 46.4936 17.8473C46.3323 17.686 46.2416 17.4673 46.2416 17.2391ZM52.4264 22.3057C52.422 22.403 52.3802 22.495 52.3097 22.5623C52.2391 22.6296 52.1454 22.6671 52.048 22.667C51.9998 22.6681 51.9521 22.6596 51.9073 22.642C51.8624 22.6244 51.8216 22.598 51.7871 22.5643C51.7527 22.5306 51.7252 22.4904 51.7065 22.446C51.6878 22.4016 51.6783 22.3539 51.6784 22.3057V20.6971C51.6784 20.4598 51.584 20.2323 51.4163 20.0645C51.2485 19.8968 51.021 19.8025 50.7837 19.8025C50.5464 19.8025 50.3189 19.8968 50.1511 20.0645C49.9834 20.2323 49.8891 20.4598 49.8891 20.6971V23.0885C49.8868 23.1874 49.846 23.2815 49.7752 23.3506C49.7045 23.4197 49.6095 23.4585 49.5106 23.4584C49.462 23.4584 49.4139 23.4489 49.3691 23.4303C49.3242 23.4117 49.2833 23.3844 49.2489 23.3501C49.2146 23.3157 49.1873 23.2749 49.1687 23.23C49.1501 23.1852 49.1406 23.1371 49.1406 23.0885V22.0305C49.1406 21.792 49.0458 21.5634 48.8772 21.3949C48.7086 21.2263 48.4801 21.1315 48.2417 21.1315C48.0033 21.1315 47.7744 21.2263 47.6058 21.3949C47.4372 21.5634 47.3429 21.792 47.3429 22.0305V22.3401C47.3384 22.4375 47.2966 22.5294 47.2261 22.5967C47.1556 22.6641 47.0615 22.7015 46.964 22.7014C46.9158 22.7026 46.8681 22.6941 46.8233 22.6764C46.7785 22.6588 46.7376 22.6323 46.7032 22.5986C46.6687 22.565 46.6412 22.5248 46.6225 22.4804C46.6038 22.436 46.5944 22.3883 46.5944 22.3401V21.1702C46.5944 20.933 46.5001 20.7055 46.3323 20.5377C46.1645 20.3699 45.937 20.2756 45.6997 20.2756C45.4625 20.2756 45.235 20.3699 45.0672 20.5377C44.8994 20.7055 44.8051 20.933 44.8051 21.1702V21.609C44.8053 21.6594 44.7948 21.7093 44.774 21.7553C44.7532 21.8013 44.7225 21.8423 44.6845 21.8756C44.6126 21.9369 44.5212 21.9706 44.4266 21.9703C44.3339 21.9526 44.25 21.9037 44.1889 21.8317C44.1279 21.7597 44.0933 21.6689 44.091 21.5745V20.7918C44.0895 20.6774 44.065 20.5643 44.0192 20.4595C43.9734 20.3546 43.9072 20.2599 43.8243 20.181L43.7727 20.1208H43.1792C42.9694 20.1462 42.7765 20.2479 42.6369 20.4065C42.4973 20.5652 42.4208 20.7697 42.4223 20.981V22.7014C42.4189 22.7847 42.3911 22.865 42.3421 22.9323C42.2931 22.9997 42.2253 23.0511 42.1472 23.0799H41.9149V23.0111V20.31C41.916 20.179 41.9427 20.0495 41.9939 19.9289C42.045 19.8082 42.1197 19.6988 42.2131 19.6069C42.3066 19.5151 42.4171 19.4425 42.5386 19.3934C42.6601 19.3443 42.7902 19.3196 42.9213 19.3208H51.8073C51.9391 19.3185 52.07 19.3423 52.1925 19.3909C52.315 19.4395 52.4266 19.5119 52.5209 19.6039C52.6153 19.6958 52.6906 19.8056 52.7423 19.9268C52.794 20.048 52.821 20.1783 52.8221 20.31L52.4264 22.2799V22.3057Z" fill="white"/>
<path d="M68.2471 34.0734C67.7221 33.7016 67.1007 33.4896 66.4578 33.4627H66.2861C65.6035 33.5442 64.9659 33.8462 64.4707 34.3229L62.8108 34.4519L64.1611 32.4648L66.4494 31.8885C66.497 31.9764 66.5679 32.0495 66.6544 32.0996C66.7409 32.1497 66.8396 32.1749 66.9396 32.1724C67.0355 32.1711 67.1295 32.1474 67.2147 32.1035C67.3584 32.0401 67.4747 31.9271 67.5419 31.7852C67.5735 31.7181 67.5881 31.6443 67.5848 31.5702C67.5872 31.4961 67.5726 31.4226 67.5419 31.3551C67.4988 31.2617 67.4294 31.1828 67.3424 31.1279C67.2554 31.0729 67.1542 31.0443 67.0513 31.0455C66.9251 31.0437 66.8012 31.0785 66.6943 31.1456C66.5875 31.2128 66.5026 31.3095 66.4494 31.424C66.4152 31.4905 66.3974 31.5643 66.3978 31.6391L64.3418 32.1552L65.7182 30.1251H65.8988C66.0503 30.1037 66.1958 30.0524 66.3272 29.9741C66.4587 29.8958 66.5735 29.7921 66.6645 29.6692C66.7153 29.6008 66.761 29.5289 66.8018 29.4541C66.8986 29.2915 66.9576 29.1092 66.9741 28.9208V28.9122C66.9745 28.7519 66.9127 28.5978 66.8018 28.4821C66.7091 28.3937 66.586 28.3444 66.4578 28.3444C66.1559 28.3924 65.8846 28.5559 65.701 28.8003C65.6031 28.8935 65.5253 29.0056 65.472 29.1298C65.4188 29.254 65.3914 29.3877 65.3914 29.5229C65.3907 29.7091 65.4443 29.8915 65.546 30.0476L63.7138 32.7487L63.5761 30.9336C63.6903 30.8921 63.7875 30.8133 63.8516 30.71C63.9088 30.6106 63.9386 30.4978 63.9377 30.3831C63.942 30.3402 63.942 30.297 63.9377 30.2541C63.9109 30.1008 63.8281 29.9628 63.7054 29.867C63.6171 29.7901 63.5041 29.7474 63.387 29.7465H63.2753C63.1466 29.7838 63.0334 29.8618 62.9527 29.9688C62.8721 30.0759 62.8283 30.2061 62.828 30.3401C62.8286 30.4913 62.8834 30.6371 62.983 30.7509C63.0825 30.8647 63.2201 30.9388 63.3698 30.9595L63.5244 33.0326L61.9506 35.381V28.2153L62.7247 26.9509L64.7979 26.2885C64.8738 26.3818 64.9754 26.4507 65.0902 26.4864H65.2793C65.3744 26.4881 65.469 26.4674 65.5548 26.4261C65.6652 26.3871 65.7609 26.315 65.8286 26.2195C65.8964 26.124 65.9328 26.0099 65.9332 25.8928C65.9323 25.8163 65.9175 25.7406 65.89 25.6692C65.8589 25.6006 65.8129 25.5402 65.7547 25.4924C65.6965 25.4447 65.6281 25.411 65.5548 25.3939H65.3654C65.2702 25.3923 65.1761 25.4129 65.0902 25.4541C64.9448 25.5147 64.828 25.6286 64.7635 25.7724C64.7292 25.8389 64.7114 25.9126 64.7118 25.9874C64.7076 26.0188 64.7076 26.0506 64.7118 26.082L62.8881 26.667L64.0578 24.766H64.2384C64.3877 24.7453 64.5314 24.6941 64.6601 24.6156C64.7889 24.5372 64.9 24.4332 64.9869 24.3101C65.0458 24.2522 65.0951 24.1855 65.1331 24.1122C65.2249 23.9475 65.2835 23.7663 65.3053 23.5789C65.3053 23.5789 65.3053 23.5272 65.3053 23.5014C65.303 23.3375 65.2384 23.1807 65.1247 23.0627C65.0314 22.9751 64.9086 22.926 64.7807 22.9251C64.6318 22.9438 64.4882 22.9932 64.3594 23.0702C64.2306 23.1472 64.1192 23.2502 64.0322 23.3725C63.9347 23.466 63.8569 23.578 63.8037 23.7022C63.7505 23.8263 63.7231 23.96 63.7226 24.095C63.7239 24.2849 63.7806 24.4703 63.886 24.6283L61.959 27.7681V23.0284L62.9481 21.9359C63.4726 21.8768 63.9645 21.6506 64.3506 21.2907C64.6965 20.8957 64.8995 20.3957 64.9269 19.8714V19.7509H64.8063C64.283 19.814 63.7927 20.0397 63.4043 20.3961C63.0771 20.7691 62.8755 21.2356 62.828 21.7294L61.9678 22.7015V20.0349L63.0514 18.7101C63.1172 18.7177 63.1835 18.7177 63.2493 18.7101C63.5442 18.6868 63.82 18.555 64.0234 18.3402C64.0824 18.2811 64.137 18.2179 64.1868 18.1509C64.3041 18.0008 64.3813 17.8231 64.4106 17.6348C64.4188 17.5835 64.4188 17.5312 64.4106 17.4799C64.4119 17.3495 64.3694 17.2224 64.2901 17.1187C64.2439 17.063 64.1862 17.0178 64.1208 16.9866C64.0555 16.9554 63.9841 16.9388 63.9117 16.938C63.6193 16.9643 63.3455 17.0921 63.1376 17.2993C62.7419 17.695 62.6128 18.2456 62.8536 18.5295L61.9506 19.6477V16.9123H62.019C62.2659 16.8776 62.4999 16.7803 62.6986 16.6297C62.8974 16.4792 63.0545 16.2804 63.1548 16.0521C63.2761 15.8397 63.341 15.5998 63.3438 15.3553C63.3449 15.2182 63.3247 15.0818 63.2837 14.951C63.2541 14.8691 63.2072 14.7945 63.1464 14.7322C63.0855 14.6698 63.012 14.6213 62.9309 14.5897H62.7074C62.5795 14.5926 62.4535 14.6218 62.3374 14.6757C62.2773 14.5983 62.2006 14.5356 62.1127 14.4924C62.0248 14.4492 61.928 14.4266 61.83 14.4263C61.7296 14.4265 61.6305 14.449 61.5398 14.4921C61.449 14.5352 61.369 14.5979 61.3054 14.6757C61.1901 14.6198 61.0635 14.5904 60.9354 14.5897H60.7031C60.6242 14.6218 60.5535 14.6708 60.4956 14.7332C60.4377 14.7956 60.3937 14.87 60.3675 14.951C60.3238 15.0814 60.3006 15.2177 60.2986 15.3553C60.3013 15.5998 60.3667 15.8397 60.488 16.0521C60.5911 16.2801 60.7501 16.4784 60.9501 16.6288C61.15 16.7791 61.3846 16.8766 61.6322 16.9123H61.7267V21.4198L60.2213 19.1144C60.2717 19.0682 60.3076 19.0085 60.3247 18.9424C60.3558 18.8481 60.3701 18.7491 60.3675 18.6498C60.3671 18.4568 60.3168 18.2672 60.2213 18.0994C60.1815 18.0267 60.1353 17.9576 60.0836 17.8928C59.9806 17.7356 59.8383 17.6081 59.6707 17.523C59.5656 17.4551 59.4434 17.4193 59.3183 17.4198C59.2162 17.418 59.1161 17.4487 59.0327 17.5075C58.9492 17.5662 58.8865 17.65 58.8537 17.7467C58.8262 17.8447 58.8114 17.9459 58.8105 18.0477C58.8112 18.238 58.8619 18.4248 58.9571 18.5897C59.0382 18.7723 59.1642 18.9312 59.3237 19.0516C59.4832 19.172 59.6706 19.2499 59.8685 19.2779H60.0495L60.8581 20.5251L59.5678 20.2842C59.5548 20.1486 59.4953 20.0216 59.3998 19.9245C59.3042 19.8274 59.1781 19.7661 59.0427 19.7509H58.9138C58.7995 19.753 58.6875 19.7825 58.587 19.8369C58.5075 19.8818 58.441 19.9467 58.3942 20.0252C58.3475 20.1036 58.322 20.1929 58.3203 20.2842C58.3208 20.4066 58.3634 20.525 58.4408 20.6197C58.5435 20.743 58.6867 20.8254 58.8449 20.852H58.9827C59.0965 20.8526 59.2079 20.8205 59.304 20.7595C59.4001 20.6985 59.4767 20.6112 59.5245 20.5079L61.0215 20.7746L61.7267 21.8585V24.6111L60.987 23.6305C60.9449 23.1217 60.7363 22.6411 60.3935 22.2628C60.0099 21.9007 59.5166 21.6767 58.9915 21.6262H58.8709V21.7467C58.9126 22.2709 59.1205 22.7681 59.4644 23.1659C59.8385 23.5192 60.3198 23.7373 60.832 23.7853L61.2794 24.3788L60.2818 24.2155C59.7768 23.7431 59.1353 23.442 58.4492 23.3552H58.3031C57.6489 23.3794 57.018 23.6047 56.4966 24.0004L56.3936 24.0692L56.4882 24.1638C56.9984 24.6437 57.6503 24.9454 58.3463 25.024H58.4837C59.1212 24.9973 59.7371 24.785 60.2558 24.4133L61.46 24.6111L61.7267 24.9724V30.8735L60.7203 29.7982L60.6342 28.938C60.9001 28.5476 61.0412 28.0856 61.0387 27.6132V27.467C60.9507 26.9484 60.6935 26.4736 60.3074 26.1165L60.2213 26.0305L60.144 26.1337C59.8794 26.5279 59.7385 26.9922 59.7396 27.467V27.6132C59.8265 28.1017 60.0608 28.5519 60.4108 28.9036L60.4796 29.5401L58.9827 27.9401C59.0079 27.8936 59.0279 27.8446 59.0427 27.7938C59.047 27.728 59.047 27.6619 59.0427 27.596C59.0446 27.3644 58.9725 27.1383 58.8365 26.9509C58.7925 26.8793 58.7404 26.813 58.6815 26.753C58.5588 26.6061 58.4026 26.491 58.2258 26.4175C58.1342 26.3755 58.0338 26.3549 57.933 26.3574C57.8221 26.3579 57.7145 26.3954 57.6273 26.4639C57.54 26.5325 57.4785 26.6281 57.4517 26.7358C57.4471 26.8017 57.4471 26.8678 57.4517 26.9336C57.4543 27.1645 57.526 27.3893 57.6579 27.5788C57.7556 27.7417 57.8894 27.8799 58.049 27.9829C58.2086 28.0858 58.3895 28.1506 58.5782 28.1724C58.6586 28.1735 58.7381 28.1558 58.8105 28.1207L59.5417 28.8949L57.1762 28.5422C57.1599 28.4087 57.0995 28.2846 57.0044 28.1895C56.9093 28.0944 56.785 28.0338 56.6515 28.0175H56.531C56.4127 28.0185 56.2972 28.0512 56.1958 28.1121C56.1316 28.1509 56.0755 28.2022 56.0312 28.2627C55.9869 28.3232 55.9551 28.3919 55.9375 28.4648V28.5337C55.9384 28.6771 55.9913 28.8153 56.0862 28.9229C56.1811 29.0304 56.3115 29.0999 56.4537 29.1186H56.5827C56.7009 29.1176 56.8169 29.0849 56.9183 29.024C57.021 28.9631 57.0997 28.869 57.1417 28.7573L59.7656 29.153L60.8148 30.2713L60.0151 30.1508C59.518 29.6719 58.8771 29.3697 58.1913 29.2906H58.0452C57.3937 29.3141 56.7642 29.533 56.2387 29.9186L56.1353 29.996L56.2298 30.082C56.7379 30.5701 57.3957 30.8731 58.0968 30.9422H58.2258C58.8662 30.9167 59.485 30.7044 60.0063 30.3315L61.0559 30.4863L61.7095 31.1831V36.3444L61.5549 36.2841L60.428 34.1766C60.4823 34.1306 60.5235 34.0714 60.5481 34.0046C60.5903 33.889 60.611 33.7664 60.6086 33.6433C60.6096 33.4762 60.5714 33.3111 60.4969 33.1615C60.4705 33.083 60.4296 33.01 60.3763 32.9465C60.2789 32.7818 60.1432 32.6431 59.9807 32.5422C59.8706 32.4704 59.7421 32.4316 59.6106 32.4304H59.4556C59.3865 32.4498 59.3228 32.4847 59.2691 32.5324C59.2155 32.58 59.1734 32.6393 59.1461 32.7057C59.1121 32.8231 59.0946 32.9447 59.0944 33.0669C59.0934 33.3575 59.1918 33.6397 59.3733 33.8666C59.5548 34.0935 59.8087 34.2515 60.0924 34.3143H60.2385L61.2449 36.2067L60.7976 36.0433C60.3915 35.4909 59.8235 35.0789 59.1721 34.8648C58.9613 34.8104 58.7447 34.7814 58.5269 34.7787C58.0456 34.7891 57.5714 34.8974 57.1333 35.097L57.0216 35.1573L57.09 35.2519C57.4955 35.8236 58.0751 36.2491 58.742 36.4648C58.9415 36.5165 59.1467 36.5425 59.3527 36.5422C59.8184 36.5405 60.2784 36.4409 60.7031 36.2498L61.675 36.6024V39.4067H61.8989V35.7337L62.6302 34.6498L64.4535 34.5035C64.9723 34.8663 65.5846 35.0722 66.2172 35.097H66.3806C67.0723 35.0126 67.7196 34.7115 68.2299 34.2368L68.316 34.1508L68.2299 34.082L68.2471 34.0734ZM66.2428 34.9336C65.6921 34.9117 65.1575 34.7424 64.6946 34.4434C65.14 34.0357 65.7033 33.7796 66.3033 33.7121H66.4578C67.0093 33.737 67.5442 33.9094 68.0065 34.2111C67.5562 34.6098 66.9949 34.8618 66.3978 34.9336H66.2428ZM59.8 34.0734C59.6154 33.9508 59.4738 33.7733 59.3956 33.5659C59.3271 33.4391 59.2915 33.2971 59.2922 33.153C59.3353 33.3452 59.405 33.5304 59.4989 33.7035C59.5771 33.8383 59.6792 33.9578 59.8 34.0562V34.0734ZM59.6367 33.6261C59.4945 33.3609 59.4151 33.0666 59.4044 32.7659C59.5639 33.2341 59.799 33.6729 60.1008 34.0648C59.9074 33.9503 59.7476 33.7871 59.6367 33.5917V33.6261ZM60.3419 33.5659C60.2808 33.359 60.1847 33.1641 60.0579 32.9895C60.0191 32.9244 59.9698 32.8663 59.9118 32.8175C60.0226 32.8952 60.1161 32.9947 60.1869 33.11C60.2296 33.1682 60.2644 33.2318 60.2902 33.2992C60.3586 33.4384 60.394 33.5915 60.3935 33.7465C60.3925 33.6644 60.3777 33.583 60.3503 33.5057L60.3419 33.5659ZM60.1869 33.5659C60.2313 33.705 60.2546 33.85 60.2558 33.996C59.9429 33.6036 59.7041 33.1577 59.5505 32.6799C59.7003 32.7693 59.8293 32.8895 59.929 33.0326C60.0353 33.1937 60.1218 33.367 60.1869 33.5487V33.5659ZM58.243 26.9509C58.3878 27.0929 58.5068 27.2588 58.5954 27.4412C58.6549 27.5702 58.6986 27.7059 58.7248 27.8455C58.3546 27.5087 58.046 27.1099 57.8129 26.667C57.9756 26.7201 58.1231 26.8115 58.243 26.9336V26.9509ZM58.1997 26.6929C58.3192 26.7536 58.425 26.8385 58.5097 26.9423C58.5602 26.9957 58.606 27.0533 58.6471 27.1144C58.736 27.2556 58.7947 27.4137 58.8193 27.5788L58.742 27.3637C58.6395 27.1729 58.5119 26.9965 58.3631 26.839L58.1997 26.6929ZM57.7869 27.5531C57.7155 27.4298 57.6635 27.2963 57.6323 27.1573C57.7062 27.3417 57.8044 27.5154 57.9246 27.6735C58.0221 27.7968 58.1381 27.9042 58.2686 27.9918C58.0677 27.8783 57.8991 27.7154 57.7785 27.5186L57.7869 27.5531ZM57.684 26.8047C57.9094 27.2362 58.1995 27.6307 58.5442 27.9746C58.3316 27.8889 58.1446 27.7496 58.0019 27.5702C57.8362 27.3281 57.7277 27.0517 57.684 26.7616V26.8047ZM60.4969 28.8003C60.205 28.4881 60.0132 28.0957 59.9462 27.6735C59.9416 27.6249 59.9416 27.5759 59.9462 27.5272C59.9486 27.1522 60.0494 26.7844 60.2385 26.4606C60.4206 26.6299 60.5657 26.8349 60.6649 27.0628C60.764 27.2907 60.8151 27.5367 60.8148 27.7852C60.8166 28.1471 60.7088 28.5011 60.5053 28.8003H60.4969ZM59.086 17.8327C59.2758 18.3007 59.5464 18.7317 59.8857 19.1058C59.6703 19.0031 59.4909 18.8384 59.3699 18.6327C59.2123 18.3864 59.115 18.1064 59.086 17.8154V17.8327ZM59.2322 18.6929C59.3009 18.8043 59.3849 18.9056 59.4817 18.9939C59.3463 18.8909 59.2328 18.7616 59.1486 18.6138C59.0643 18.466 59.0112 18.3027 58.9915 18.1337C59.0427 18.334 59.1237 18.5255 59.2322 18.7015V18.6929ZM59.6022 17.7811C59.7129 17.8547 59.8088 17.9479 59.8857 18.0563C59.9323 18.1134 59.9703 18.1772 59.9979 18.2455C60.0809 18.3869 60.1278 18.5464 60.1352 18.7101C60.1201 18.6389 60.0974 18.5697 60.0668 18.5037C59.9947 18.3025 59.8868 18.1159 59.7484 17.9531L59.6022 17.8068V17.7811ZM59.929 18.5552C59.97 18.6929 59.9989 18.8339 60.0151 18.9767C59.6797 18.6045 59.4115 18.1766 59.2233 17.7122C59.382 17.7917 59.5205 17.9065 59.6278 18.0477C59.7496 18.2125 59.8508 18.3916 59.929 18.581V18.5552ZM60.6602 16.0262C60.55 15.8262 60.4937 15.6009 60.4969 15.3725V15.252C60.5593 15.5557 60.6724 15.8465 60.832 16.1122C60.9466 16.2942 61.0792 16.4642 61.2277 16.6197C61.3021 16.6874 61.383 16.7479 61.4688 16.8005C61.2908 16.741 61.127 16.6453 60.9879 16.5195C60.8487 16.3936 60.7373 16.2403 60.6602 16.0692V16.0262ZM60.6602 14.9424L60.7375 14.8907C60.9502 15.566 61.3051 16.1878 61.7784 16.7144C61.6267 16.6542 61.4889 16.5635 61.3739 16.4477C61.2295 16.3077 61.1053 16.1485 61.0042 15.9746C60.7899 15.6792 60.6592 15.3316 60.6258 14.9682L60.6602 14.9424ZM64.2384 23.7423C64.4031 23.5073 64.614 23.3084 64.858 23.1574C64.5011 23.5234 64.21 23.9482 63.9978 24.4133C63.9973 24.1832 64.0663 23.9584 64.1956 23.7681L64.2384 23.7423ZM64.1095 23.6563C64.0296 23.7703 63.9662 23.8947 63.9205 24.0261C63.9637 23.8332 64.052 23.6534 64.1784 23.5014C64.2662 23.3849 64.3775 23.2882 64.5051 23.2176C64.3445 23.3522 64.2001 23.5053 64.075 23.6735L64.1095 23.6563ZM64.858 23.7337C64.772 23.9129 64.6556 24.076 64.514 24.2155C64.4056 24.3245 64.2844 24.4198 64.1528 24.4993C64.3634 24.0359 64.6547 23.6136 65.013 23.252C65.0052 23.4355 64.9419 23.6124 64.8319 23.7595L64.858 23.7337ZM64.6169 24.3359C64.77 24.1833 64.9005 24.0094 65.0041 23.8197C65.0447 23.7554 65.0764 23.6859 65.0986 23.6132C65.0742 23.7475 65.0246 23.876 64.9525 23.9918C64.9203 24.0543 64.8797 24.1122 64.8319 24.1638C64.7368 24.2933 64.6133 24.3993 64.4707 24.4735L64.6169 24.3359ZM63.9633 17.8327C63.8494 17.9968 63.7132 18.1445 63.5588 18.2714C63.439 18.3655 63.3056 18.4409 63.1632 18.495C63.4265 18.0584 63.7643 17.6712 64.1611 17.351C64.1286 17.5373 64.0486 17.7121 63.9289 17.8585L63.9633 17.8327ZM63.6622 18.3918C63.8251 18.2563 63.9697 18.1001 64.0923 17.9273C64.0923 17.8585 64.1784 17.7896 64.2128 17.7208C64.1701 17.8493 64.1093 17.971 64.0322 18.0822C63.9881 18.1406 63.9392 18.1952 63.886 18.2455C63.7786 18.3642 63.6423 18.4532 63.4904 18.5037L63.6622 18.3918ZM63.3438 17.7639C63.5316 17.5424 63.767 17.3659 64.0322 17.2477C63.6328 17.572 63.2947 17.9654 63.0342 18.409C63.0696 18.1819 63.1644 17.9681 63.3093 17.7896L63.3438 17.7639ZM63.6622 17.2649C63.4938 17.3733 63.343 17.5068 63.2148 17.6607C63.1274 17.7696 63.0526 17.8878 62.9914 18.0133C63.0537 17.8248 63.1597 17.6539 63.3009 17.5144C63.3947 17.4198 63.5056 17.3439 63.6277 17.2907L63.6622 17.2649ZM62.4151 14.9079C62.2455 15.0076 62.0941 15.1357 61.9678 15.2865L62.019 15.2262L62.0707 15.166L62.1224 15.1144L62.1912 15.0628H62.3546L62.4151 14.9079ZM62.1224 14.7789C62.1143 14.7751 62.1057 14.7731 62.0967 14.7731C62.0878 14.7731 62.0788 14.7751 62.0707 14.7789H62.1224ZM62.1224 16.7316C62.1879 16.7007 62.2466 16.6568 62.2946 16.6025C62.6768 16.241 62.9711 15.7967 63.1548 15.3037V15.3553C63.1537 15.587 63.0944 15.8147 62.9826 16.0176C62.9019 16.1963 62.7834 16.3551 62.6348 16.4829C62.4862 16.6107 62.3111 16.7044 62.1224 16.7574V16.7316ZM62.2513 16.4133C62.2602 16.3304 62.2602 16.2468 62.2513 16.1639C62.2594 16.081 62.2594 15.9974 62.2513 15.9144C62.5094 15.5961 62.7676 15.2865 63.0342 14.9768C62.897 15.5246 62.6214 16.0281 62.2341 16.4391L62.2513 16.4133ZM62.1828 15.7252L62.0795 15.4757V15.424C62.2975 15.1522 62.6004 14.9614 62.9397 14.8821C62.6604 15.1515 62.3987 15.4389 62.1568 15.7423L62.1828 15.7252ZM61.9245 15.0025L61.8645 15.0542H61.8212C61.8306 14.9448 61.857 14.8374 61.8989 14.7359H61.9934C62.0478 14.8135 62.0858 14.9012 62.1051 14.9939L61.9245 15.0025ZM61.5977 14.7359C61.5977 14.7359 61.5977 14.7359 61.5977 14.7961C61.5977 14.8563 61.5977 14.7962 61.5977 14.8564V14.7359ZM61.8901 15.5961C61.9963 15.7978 62.0523 16.022 62.0535 16.2499V16.3704C62.0374 16.2371 62.003 16.1067 61.9506 15.9832C61.8661 15.7182 61.7503 15.4641 61.6061 15.2262L61.5377 15.1316C61.6104 15.203 61.6766 15.2807 61.7355 15.3639C61.7887 15.4444 61.8319 15.5311 61.8645 15.622L61.8901 15.5961ZM61.4688 15.3208C61.6071 15.5442 61.7168 15.7842 61.7956 16.0349C61.8612 16.2326 61.9018 16.4377 61.9161 16.6456C61.4445 16.1325 61.0918 15.5215 60.8837 14.8564H60.9526C61.1562 14.974 61.3251 15.1431 61.4428 15.3466L61.4688 15.3208ZM63.1892 30.5035V30.4003C63.1557 30.2647 63.1557 30.123 63.1892 29.9874C63.1777 30.0615 63.1777 30.137 63.1892 30.2111C63.1957 30.3728 63.2275 30.5325 63.2837 30.6842C63.2418 30.6413 63.2069 30.5919 63.1804 30.538L63.1892 30.5035ZM63.6622 30.5809C63.6966 30.4222 63.6966 30.258 63.6622 30.0993C63.6981 30.1546 63.7242 30.2157 63.7394 30.2799C63.7394 30.2799 63.7394 30.3316 63.7394 30.3574C63.7369 30.4356 63.7164 30.512 63.6794 30.5809H63.6622ZM63.3698 30.1766C63.3698 30.1766 63.3698 30.0992 63.3698 30.0562C63.3698 30.0132 63.3698 29.9788 63.3698 29.9358C63.4307 30.0801 63.4627 30.235 63.4643 30.3917C63.4769 30.483 63.4769 30.5757 63.4643 30.667C63.4199 30.5309 63.3966 30.3887 63.3954 30.2455V30.1766H63.3698ZM66.5612 29.1617C66.4642 29.3363 66.3456 29.4981 66.2083 29.6433C66.0997 29.7471 65.9783 29.8367 65.8471 29.91C66.0578 29.4466 66.349 29.0243 66.7073 28.6627C66.6996 28.8504 66.6463 29.0334 66.5523 29.196L66.5612 29.1617ZM66.3201 29.7552C66.4732 29.6026 66.6037 29.4288 66.7073 29.239L66.7934 29.0326C66.7643 29.1643 66.7179 29.2915 66.6557 29.411C66.6557 29.4627 66.5781 29.5229 66.5351 29.5832C66.4368 29.7108 66.3104 29.8138 66.1655 29.8842L66.3117 29.7896L66.3201 29.7552ZM65.9332 29.1617C66.0987 28.9243 66.3127 28.7249 66.5612 28.5767C66.2012 28.9434 65.9099 29.3716 65.701 29.8412C65.7175 29.6102 65.7944 29.3876 65.9244 29.196L65.9332 29.1617ZM65.7955 29.0756C65.7217 29.1887 65.6611 29.31 65.6149 29.4369C65.6564 29.246 65.7454 29.0686 65.8732 28.9208C65.9651 28.8058 66.0755 28.707 66.1999 28.6283C66.0464 28.7745 65.908 28.9359 65.7871 29.11L65.7955 29.0756ZM66.7073 31.7595C66.8435 31.6563 66.9985 31.5803 67.1635 31.5358H67.4042C67.212 31.6847 66.9764 31.7662 66.7334 31.768L66.7073 31.7595ZM67.3097 31.7595C67.266 31.8075 67.2126 31.8461 67.1534 31.8727C67.0942 31.8993 67.0301 31.9135 66.9652 31.9143H66.8451C67.0018 31.9056 67.1557 31.8707 67.3008 31.8111V31.7595H67.3097ZM67.1202 31.3637C66.9596 31.4042 66.8079 31.4742 66.6729 31.5702C66.7041 31.5122 66.7482 31.4622 66.8018 31.424L66.8968 31.3723C67.0091 31.3281 67.1284 31.3048 67.2492 31.3036H67.3097C67.2374 31.3341 67.168 31.3715 67.103 31.4154V31.3637H67.1202ZM65.6149 26.1165C65.5693 26.1644 65.5145 26.2027 65.454 26.2293C65.3934 26.2558 65.3281 26.2702 65.262 26.2714H65.1503C65.307 26.2627 65.4613 26.2278 65.6065 26.1681V26.1165H65.6149ZM65.0041 26.1165C65.141 26.0073 65.2993 25.9282 65.4687 25.8842H65.7094C65.5145 26.0342 65.2757 26.1159 65.0298 26.1165H65.0041ZM65.417 25.7294C65.2648 25.7813 65.1181 25.8475 64.9785 25.9273C65.0101 25.8742 65.0544 25.8298 65.1075 25.7982L65.1936 25.7465C65.307 25.6949 65.4302 25.6685 65.5548 25.6692H65.6149C65.543 25.6935 65.474 25.7252 65.4086 25.7638L65.417 25.7294ZM64.6774 20.009C64.6353 20.4333 64.4607 20.8336 64.1784 21.1531C63.8625 21.4511 63.4634 21.6461 63.0342 21.7122C63.0624 21.289 63.2393 20.8893 63.5336 20.5839C63.828 20.2785 64.221 20.0871 64.6429 20.0434L64.6774 20.009ZM58.7764 20.2842C58.6999 20.2653 58.6271 20.2333 58.5614 20.1896H58.6126C58.8497 20.1865 59.0817 20.2588 59.275 20.3961H59.1893C59.0461 20.3879 58.9043 20.362 58.7676 20.3187L58.7764 20.2842ZM59.0255 20.5682H58.9226C58.7853 20.5347 58.6565 20.4732 58.5442 20.3875C58.606 20.4248 58.6725 20.4538 58.742 20.4735C58.895 20.5236 59.0541 20.5526 59.2149 20.5596C59.1496 20.5725 59.0824 20.5725 59.0171 20.5596L59.0255 20.5682ZM58.8021 20.009H58.9999C59.1049 20.0259 59.1999 20.081 59.2666 20.1638C59.1195 20.0898 58.9578 20.0487 58.7932 20.0434L58.8021 20.009ZM60.2301 22.4434H60.2818C60.3757 22.4327 60.4706 22.4419 60.5607 22.4706C60.6508 22.4992 60.7338 22.5466 60.8043 22.6095C60.8748 22.6724 60.9312 22.7496 60.9698 22.8359C61.0084 22.9221 61.0286 23.0155 61.0286 23.1101C61.0286 23.2046 61.0084 23.298 60.9698 23.3842C60.9312 23.4705 60.8748 23.5477 60.8043 23.6106C60.7338 23.6736 60.6508 23.7209 60.5607 23.7495C60.4706 23.7782 60.3757 23.7874 60.2818 23.7767C60.1937 23.7779 60.1062 23.7616 60.0243 23.729C59.9425 23.6963 59.8678 23.6478 59.8047 23.5863C59.7416 23.5248 59.6912 23.4514 59.6564 23.3705C59.6216 23.2895 59.6033 23.2025 59.6022 23.1144C59.598 23.0887 59.598 23.0626 59.6022 23.037C59.463 23.0476 59.324 23.0146 59.2044 22.9425C59.0849 22.8704 58.9907 22.7628 58.9352 22.6347C58.8797 22.5066 58.8657 22.3643 58.8949 22.2278C58.924 22.0913 58.9948 21.9672 59.0978 21.873C59.2007 21.7787 59.3305 21.7189 59.4691 21.7019C59.6076 21.6849 59.7479 21.7116 59.8706 21.7782C59.9933 21.8447 60.0924 21.9478 60.1537 22.0732C60.215 22.1986 60.2358 22.3401 60.2129 22.4778L60.2301 22.4434ZM58.4236 23.6219C59.023 23.689 59.5873 23.9382 60.0407 24.3359C59.5721 24.6455 59.0277 24.8209 58.4665 24.8434H58.3463C57.7478 24.7793 57.183 24.533 56.7288 24.138C57.1923 23.8232 57.7349 23.6444 58.2947 23.6219H58.4236ZM56.4109 28.5594C56.3326 28.5339 56.2573 28.4992 56.187 28.4562H56.2471C56.4798 28.4557 56.7076 28.5245 56.901 28.6541H56.7633C56.6434 28.6709 56.5219 28.6709 56.402 28.6541V28.6025L56.4109 28.5594ZM56.557 28.8262C56.4149 28.7995 56.2816 28.7373 56.1698 28.6454C56.2297 28.6863 56.2968 28.7156 56.3676 28.7316C56.5225 28.7859 56.6852 28.8149 56.8494 28.8176H56.557V28.8262ZM56.557 28.2584H56.6427C56.7477 28.2753 56.8427 28.3305 56.9094 28.4133C56.7643 28.3362 56.6073 28.2839 56.4449 28.2584H56.557ZM58.1997 29.5659C58.2884 29.4635 58.3983 29.3813 58.5215 29.3249C58.6447 29.2685 58.7783 29.2392 58.9138 29.239C59.1556 29.239 59.3875 29.3351 59.5585 29.5061C59.7295 29.6771 59.8257 29.909 59.8257 30.1508C59.8257 30.3926 59.7295 30.6247 59.5585 30.7957C59.3875 30.9667 59.1556 31.0627 58.9138 31.0627C58.7905 31.064 58.6685 31.0403 58.5547 30.993C58.4408 30.9457 58.3375 30.8757 58.2514 30.7875H58.1225C58.0045 30.9321 57.8452 31.0375 57.6659 31.0896C57.4866 31.1417 57.2957 31.1381 57.1186 31.0792C56.9415 31.0203 56.7866 30.9089 56.6742 30.7598C56.5618 30.6108 56.4973 30.4311 56.4894 30.2446C56.4815 30.0581 56.5307 29.8736 56.6301 29.7156C56.7295 29.5576 56.8748 29.4335 57.0464 29.3599C57.2179 29.2863 57.4077 29.2665 57.5907 29.3033C57.7737 29.3401 57.941 29.4317 58.0708 29.5659H58.1997ZM58.8193 36.267C58.2441 36.0818 57.7395 35.7244 57.374 35.2433C57.7502 35.0974 58.1492 35.0187 58.5526 35.011C58.7473 35.0113 58.941 35.0374 59.1288 35.0885C59.6991 35.2696 60.2003 35.6207 60.5653 36.0949C60.1922 36.2521 59.792 36.334 59.3872 36.3358H59.2233C59.0745 36.3487 58.9253 36.3487 58.7764 36.3358L58.8193 36.267Z" fill="white"/>
<path d="M59.7761 38.9505H32.0515V15.8108C32.116 12.1122 33.544 8.56756 36.0615 5.85712C38.579 3.14668 42.0088 1.46133 45.6927 1.12439C49.3765 0.787462 53.0553 1.82271 56.0227 4.03149C58.9902 6.24026 61.0376 9.46695 61.772 13.0926C61.7977 13.2101 61.8629 13.3153 61.9568 13.3905C62.0508 13.4656 62.1675 13.5062 62.2878 13.5054H62.3739C62.5097 13.4807 62.6303 13.4034 62.7095 13.2904C62.7684 13.2077 62.7987 13.108 62.7956 13.0066C62.7998 12.9723 62.7998 12.9376 62.7956 12.9033C62.0845 9.25618 60.123 5.97154 57.2492 3.61598C54.3754 1.26041 50.7693 -0.0183919 47.0535 0.000199899H47.0019C44.8786 -0.000485336 42.7763 0.42051 40.817 1.23885C37.9224 2.4365 35.4471 4.46443 33.7035 7.06689C31.9598 9.66936 31.0262 12.7298 31.0195 15.8624V39.4838C31.0195 39.5523 31.033 39.6201 31.0594 39.6833C31.0859 39.7465 31.1248 39.8038 31.1737 39.8519C31.2225 39.8999 31.2802 39.9377 31.3438 39.9632C31.4074 39.9886 31.4756 40.0011 31.5441 39.9999H59.7504C59.8189 40.0011 59.8868 39.9886 59.9504 39.9632C60.014 39.9377 60.0721 39.8999 60.1209 39.8519C60.1697 39.8038 60.2087 39.7465 60.2351 39.6833C60.2616 39.6201 60.2751 39.5523 60.275 39.4838C60.2732 39.3519 60.2218 39.2255 60.131 39.1298C60.0401 39.0342 59.9165 38.9762 59.7849 38.9676L59.7761 38.9505Z" fill="white"/>
<path d="M44.6883 3.05427C44.7219 3.00641 44.74 2.94938 44.7399 2.89088C44.7278 2.82942 44.6946 2.77416 44.6458 2.73484C44.5971 2.69552 44.5358 2.67465 44.4732 2.67583H44.4131C41.3026 3.29911 38.505 4.98369 36.499 7.44142C34.4318 9.94409 33.3031 13.0899 33.3077 16.336V37.3509C33.3037 37.3679 33.3037 37.3855 33.3077 37.4025C33.3077 37.4755 33.3367 37.5455 33.3884 37.5972C33.44 37.6488 33.5102 37.6777 33.5832 37.6777C33.6562 37.6777 33.7261 37.6488 33.7777 37.5972C33.8293 37.5455 33.8584 37.4755 33.8584 37.4025V16.2069C33.8756 13.145 34.9434 10.1817 36.8834 7.81272C38.8234 5.44372 41.518 3.81256 44.5165 3.19193C44.5533 3.19227 44.5894 3.18392 44.6223 3.16747C44.6552 3.15102 44.6837 3.12695 44.7055 3.09732L44.6883 3.05427Z" fill="white"/>
<path d="M59.8858 13.2472C59.9023 13.3056 59.9373 13.3571 59.9853 13.3943C60.0333 13.4315 60.0918 13.4523 60.1525 13.4536H60.213C60.2501 13.4517 60.2859 13.4394 60.3163 13.4181C60.3467 13.3968 60.3703 13.3674 60.3848 13.3332C60.3948 13.2995 60.3948 13.2636 60.3848 13.23C60.3936 13.1991 60.3936 13.1663 60.3848 13.1354C59.7799 10.4697 58.4003 8.04253 56.4193 6.15908C54.4507 4.27444 51.9594 3.02729 49.2709 2.58058H49.2193C49.1564 2.58002 49.0954 2.6024 49.0479 2.64358C49.0004 2.68476 48.9697 2.74192 48.9614 2.80424V2.8558C48.9581 2.90808 48.9732 2.95987 49.0042 3.00207C49.0247 3.03246 49.0516 3.05818 49.0828 3.07747C49.1139 3.09675 49.1485 3.10915 49.1848 3.1139C51.7728 3.55012 54.1726 4.7467 56.0783 6.55127C57.9839 8.35585 59.3093 10.6868 59.8858 13.2472Z" fill="white"/>
<path d="M47.603 2.48629C47.6019 2.39592 47.5827 2.30663 47.5471 2.22357C47.5115 2.14051 47.4602 2.06532 47.3955 2.00222C47.3308 1.93911 47.2543 1.88927 47.1704 1.85573C47.0864 1.8222 46.9965 1.80556 46.9062 1.8067C46.7259 1.8067 46.5531 1.87834 46.4257 2.00579C46.2982 2.13323 46.2266 2.30606 46.2266 2.48629C46.2266 2.66653 46.2982 2.83936 46.4257 2.9668C46.5531 3.09424 46.7259 3.16579 46.9062 3.16579C46.9965 3.16692 47.0864 3.15029 47.1704 3.11675C47.2543 3.08321 47.3308 3.03348 47.3955 2.97037C47.4602 2.90727 47.5115 2.83208 47.5471 2.74902C47.5827 2.66596 47.6019 2.57667 47.603 2.48629ZM46.6394 2.48629C46.6377 2.43322 46.6519 2.38079 46.6802 2.33582C46.7084 2.29085 46.7497 2.25537 46.7982 2.23386C46.8468 2.21235 46.9005 2.20587 46.9528 2.21517C47.0051 2.22447 47.0532 2.24912 47.0914 2.28605C47.1296 2.32298 47.156 2.3704 47.167 2.42235C47.178 2.47429 47.173 2.52842 47.1531 2.57765C47.1332 2.62688 47.0993 2.66902 47.0553 2.69872C47.0113 2.72842 46.9593 2.74427 46.9062 2.74429C46.8716 2.74545 46.8372 2.73963 46.8049 2.72718C46.7726 2.71473 46.7429 2.69592 46.718 2.67184C46.6931 2.64776 46.6735 2.61898 46.66 2.5871C46.6465 2.55522 46.6394 2.52092 46.6394 2.48629Z" fill="white"/>
<path d="M78.8463 10.2711C79.3091 10.0105 79.8078 9.81933 80.3261 9.70348C80.6974 9.61066 81.0786 9.56439 81.4614 9.56582H81.8831C82.9559 9.64527 83.9803 10.0437 84.8249 10.7099C85.1721 11.0418 85.4627 11.4283 85.6851 11.854L85.728 11.94V12.0002L85.7969 12.0948C85.8651 12.1791 85.9543 12.2444 86.0552 12.2841L87.2334 12.7744L86.2098 9.66043L86.0636 9.55721C85.2345 8.91804 84.2786 8.4634 83.2595 8.22384C82.6551 8.08775 82.038 8.01567 81.4185 8.00879C80.5051 8.00794 79.5991 8.17115 78.7434 8.49056C77.4485 8.97347 76.3135 9.80753 75.466 10.8992C74.6275 11.9948 74.1292 13.3125 74.0328 14.6887C73.9365 16.065 74.2461 17.4393 74.9237 18.6411C75.6014 19.8253 76.5968 20.7965 77.7971 21.4453C78.9151 22.0385 80.1613 22.3487 81.4269 22.3485H82.0893C83.671 22.2201 85.1738 21.6039 86.3904 20.585L86.7003 20.2926L86.881 20.1292V17.7292L86.0636 18.0647C85.9405 18.1274 85.8298 18.212 85.7368 18.3142L85.6595 18.4776C85.4643 18.8458 85.2181 19.1846 84.9283 19.4841C84.7885 19.632 84.6357 19.7673 84.4721 19.8883C83.9311 20.2496 83.3315 20.5145 82.7 20.6712C82.2959 20.7598 81.8839 20.8059 81.4702 20.8087C80.8077 20.8067 80.1513 20.6813 79.5347 20.4389C78.5585 20.055 77.7091 19.4053 77.0831 18.5636C76.4322 17.6878 76.0458 16.644 75.9696 15.5556C75.8933 14.4671 76.1305 13.3796 76.6529 12.4217C77.174 11.5135 77.9321 10.7643 78.8463 10.254V10.2711Z" fill="white"/>
<path d="M99.7509 8.45605C98.9196 8.17429 98.0481 8.02904 97.1703 8.02595H97.0325C95.9423 8.02135 94.8638 8.24912 93.8685 8.6941C92.8732 9.13908 91.9841 9.79106 91.2606 10.6066C90.5403 11.4558 90.0306 12.4632 89.7733 13.5466C89.516 14.6301 89.5184 15.759 89.78 16.8414C90.0416 17.9238 90.555 18.9291 91.2786 19.7755C92.0023 20.6219 92.9159 21.2853 93.9445 21.7119C94.9372 22.1354 96.0049 22.3548 97.0842 22.3571C97.6156 22.3571 98.1456 22.3052 98.6669 22.2022C100.143 21.9283 101.504 21.2182 102.572 20.1635C103.893 18.839 104.636 17.045 104.637 15.1743C104.63 13.6815 104.154 12.2285 103.278 11.0201C102.401 9.8117 101.168 8.90882 99.7509 8.43883V8.45605ZM101.635 18.5807C100.949 19.5384 99.9983 20.2741 98.8991 20.6968C98.3707 20.8984 97.8128 21.0117 97.2476 21.0323H96.4819C96.191 20.9898 95.9035 20.9266 95.6217 20.8431C94.5076 20.4959 93.5183 19.8325 92.7743 18.9334C92.2171 18.2408 91.8244 17.4308 91.6256 16.5643C91.4268 15.6978 91.4272 14.7976 91.6268 13.9313C91.8264 13.065 92.2198 12.2553 92.7777 11.5632C93.3356 10.8711 94.0434 10.3145 94.8476 9.93559C95.3726 9.68979 95.9329 9.52732 96.5079 9.45392H97.2736C97.5622 9.47048 97.8495 9.50495 98.1338 9.55714C99.281 9.81903 100.324 10.416 101.132 11.2722C101.939 12.1284 102.473 13.2051 102.667 14.3657C102.711 14.6676 102.734 14.9724 102.736 15.2776C102.708 16.4628 102.321 17.6118 101.626 18.5721L101.635 18.5807Z" fill="white"/>
<path d="M111.867 10.2711C112.334 10.0127 112.835 9.82164 113.356 9.70349C113.727 9.61066 114.108 9.56439 114.491 9.56582H114.904C115.98 9.64514 117.007 10.0434 117.854 10.7099C118.202 11.0418 118.492 11.4283 118.715 11.854L118.758 11.94L118.801 12.0002L118.87 12.0948C118.943 12.1774 119.034 12.2422 119.136 12.2841L120.315 12.7744L119.291 9.66043L119.145 9.55721C118.318 8.91981 117.365 8.4653 116.349 8.22385C115.742 8.08821 115.122 8.01614 114.5 8.00879C113.589 8.00785 112.686 8.17108 111.833 8.49056C110.536 8.96897 109.4 9.80387 108.556 10.8992C107.719 11.9954 107.221 13.3123 107.123 14.6878C107.025 16.0634 107.332 17.4375 108.005 18.6411C108.684 19.8276 109.682 20.7993 110.887 21.4453C112.005 22.0385 113.251 22.3487 114.517 22.3485H115.179C116.761 22.2201 118.264 21.6039 119.48 20.585L119.79 20.2926L119.971 20.1292V17.7292L119.154 18.0647C119.024 18.1169 118.911 18.2031 118.826 18.3142L118.749 18.4776C118.553 18.8473 118.304 19.1864 118.009 19.4841C117.871 19.63 117.721 19.7651 117.562 19.8883C117.021 20.2496 116.421 20.5145 115.79 20.6712C115.383 20.7598 114.968 20.8058 114.551 20.8087C113.892 20.8075 113.238 20.682 112.624 20.4389C111.646 20.0552 110.794 19.4056 110.164 18.5636C109.425 17.5692 109.03 16.3615 109.037 15.1227C109.032 14.1206 109.297 13.1355 109.804 12.2711C110.311 11.4067 111.042 10.695 111.919 10.211L111.867 10.2711Z" fill="white"/>
<path d="M133.075 8.45606C132.226 8.1713 131.337 8.02605 130.443 8.02595H130.322C129.231 8.02124 128.151 8.24894 127.154 8.69389C126.157 9.13884 125.267 9.79084 124.542 10.6066C123.821 11.4558 123.312 12.4632 123.055 13.5466C122.797 14.6301 122.799 15.759 123.061 16.8414C123.323 17.9238 123.836 18.9291 124.56 19.7755C125.283 20.6219 126.197 21.2853 127.226 21.7119C128.218 22.1363 129.286 22.3558 130.365 22.3571C130.897 22.3575 131.427 22.3056 131.948 22.2022C133.42 21.9483 134.777 21.2433 135.831 20.1846C136.885 19.1259 137.585 17.7659 137.832 16.2925C137.891 15.9285 137.92 15.5603 137.918 15.1916C137.916 13.6805 137.437 12.2085 136.55 10.9851C135.667 9.79062 134.444 8.89104 133.04 8.4045L133.075 8.45606ZM134.95 18.5807C134.265 19.5384 133.314 20.2741 132.215 20.6968C131.683 20.898 131.123 21.0113 130.555 21.0323H129.797C128.549 20.8525 127.393 20.2743 126.501 19.3838C125.608 18.4933 125.027 17.3382 124.844 16.0906C124.661 14.8431 124.887 13.5698 125.486 12.4607C126.086 11.3515 127.028 10.4658 128.172 9.93559C128.698 9.69368 129.258 9.53139 129.832 9.45393H130.58C130.869 9.47083 131.156 9.5053 131.441 9.55715C132.588 9.81903 133.631 10.416 134.438 11.2722C135.245 12.1284 135.78 13.2051 135.974 14.3657C136.018 14.6676 136.042 14.9724 136.043 15.2776C136.021 16.4612 135.64 17.6102 134.95 18.5721V18.5807Z" fill="white"/>
<path d="M154.717 8.19819L154.94 7.81104H153.289L147.439 19.14L142.854 10.0046L141.762 7.81104H139.93L140.153 8.19819C140.532 8.87711 140.752 9.63279 140.798 10.4089V20.0604C140.798 20.9206 140.541 21.2218 140.429 21.3164L140.239 21.626C140.216 21.7222 140.216 21.8224 140.239 21.9185L140.343 22.1508H142.734L142.837 21.9185C142.86 21.8224 142.86 21.7222 142.837 21.626L142.648 21.3164C142.536 21.2218 142.278 20.9206 142.278 20.0604V13.1787L147.267 22.8819L152.248 13.1787V20.0604C152.248 20.9206 151.981 21.2218 151.869 21.3164L151.689 21.626C151.666 21.7222 151.666 21.8224 151.689 21.9185L151.8 22.1508H154.553L154.657 21.9185C154.68 21.8224 154.68 21.7222 154.657 21.626L154.467 21.3164C154.355 21.2218 154.089 20.9206 154.089 20.0604V9.93573C154.161 9.32111 154.376 8.73193 154.717 8.21531V8.19819Z" fill="white"/>
<path d="M187.648 21.3163C187.537 21.2216 187.27 20.9205 187.27 20.0603V9.9356C187.298 9.33299 187.463 8.74466 187.752 8.21518L187.976 7.82812H186.315L180.474 19.1571L175.881 10.0131L174.78 7.82812H172.965L173.189 8.21518C173.568 8.89409 173.788 9.64988 173.834 10.426V20.0775C173.834 20.9377 173.575 21.2387 173.455 21.3334L173.274 21.6431C173.251 21.7393 173.251 21.8394 173.274 21.9356L173.378 22.1678H175.778L175.889 21.9356C175.912 21.8394 175.912 21.7393 175.889 21.6431L175.7 21.3334C175.589 21.2387 175.33 20.9377 175.33 20.0775V13.1958L180.311 22.8904L185.3 13.1958V20.0775C185.3 20.9377 185.033 21.2387 184.922 21.3334L184.733 21.6431V21.7119C184.72 21.786 184.72 21.8615 184.733 21.9356L184.836 22.1678H187.597L187.7 21.9356C187.734 21.8411 187.734 21.7376 187.7 21.6431L187.623 21.2818L187.648 21.3163Z" fill="white"/>
<path d="M166.855 8.45599C166.006 8.17124 165.117 8.02598 164.222 8.02589H164.093C163.002 8.02446 161.923 8.25361 160.927 8.69834C159.931 9.14308 159.04 9.79335 158.313 10.6065C157.593 11.4563 157.084 12.4643 156.827 13.5482C156.57 14.632 156.573 15.7612 156.836 16.8437C157.098 17.9262 157.613 18.9313 158.337 19.7773C159.062 20.6233 159.976 21.2862 161.005 21.7118C161.995 22.1363 163.06 22.3558 164.137 22.357H164.18C164.711 22.3575 165.241 22.3056 165.762 22.2021C167.241 21.9289 168.605 21.2188 169.676 20.1634C170.527 19.3045 171.144 18.2427 171.469 17.0785C171.794 15.9142 171.816 14.6862 171.533 13.511C171.251 12.3358 170.672 11.2523 169.854 10.3631C169.035 9.47393 168.003 8.80853 166.855 8.43016V8.45599ZM168.73 18.5807C168.045 19.5418 167.09 20.2782 165.986 20.6967C165.458 20.8983 164.9 21.0117 164.335 21.0322H163.569C163.278 20.9911 162.99 20.9279 162.709 20.843C161.427 20.4651 160.313 19.659 159.554 18.5595C158.795 17.4599 158.436 16.1333 158.537 14.8009C158.637 13.4684 159.192 12.2108 160.107 11.2377C161.023 10.2646 162.245 9.63504 163.569 9.45386H164.326C164.614 9.47128 164.901 9.50574 165.186 9.55708C166.333 9.82002 167.375 10.4173 168.182 11.2733C168.989 12.1293 169.524 13.2055 169.719 14.3656C169.762 14.6678 169.788 14.9723 169.797 15.2775C169.772 16.4619 169.388 17.6109 168.696 18.5721L168.73 18.5807Z" fill="white"/>
<path d="M76.9971 29.0323C77.3811 28.8182 77.8134 28.7057 78.253 28.7055H78.3219C78.6437 28.7062 78.962 28.7721 79.2577 28.8992C79.5534 29.0263 79.8204 29.2121 80.0423 29.4452L80.1368 29.5485L80.937 28.7742L80.8597 28.6796C80.5467 28.3044 80.1485 28.0094 79.6983 27.8194C79.2377 27.6401 78.7472 27.5497 78.253 27.5528H78.1757C77.5369 27.5526 76.9078 27.7091 76.3436 28.0086C75.8012 28.2993 75.3465 28.73 75.0272 29.256C74.7174 29.8046 74.5547 30.4238 74.5547 31.0538C74.5547 31.6838 74.7174 32.3031 75.0272 32.8516C75.3465 33.3776 75.8012 33.8084 76.3436 34.099C76.9228 34.3998 77.5659 34.5562 78.2186 34.5549C78.7244 34.5544 79.2261 34.461 79.6983 34.2796C80.148 34.0888 80.5461 33.7939 80.8597 33.4194L80.937 33.3334L80.1368 32.5506L80.0423 32.6538C79.8211 32.8885 79.5547 33.0758 79.259 33.2044C78.9632 33.3331 78.6444 33.4003 78.3219 33.4022H78.2618C77.8229 33.4046 77.3907 33.2951 77.0059 33.0839C76.6476 32.879 76.3506 32.582 76.1457 32.2237C75.9411 31.8523 75.8342 31.4348 75.8358 31.0108C75.8342 30.5867 75.9411 30.1694 76.1457 29.7979C76.3623 29.469 76.6581 29.1998 77.0059 29.0151L76.9971 29.0323Z" fill="white"/>
<path d="M84.6758 27.6904L81.5273 34.5721H82.8093L83.5317 32.8517H86.8953L87.6261 34.5721H88.9164L85.7683 27.6904H84.6758ZM83.9874 31.9055L85.2265 29.1356L86.4563 31.9055H83.9874Z" fill="white"/>
<path d="M96.2203 27.6816H94.775L91.3429 31.1741V27.6816H90.1211V34.5375H91.3429V32.7569L92.4182 31.6644L94.9211 34.5375H96.3748L93.244 30.787L96.2203 27.6816Z" fill="white"/>
<path d="M99.3615 31.587H102.716V30.529H99.3615V28.7655H103.121V27.6816H98.1484V34.5375H103.25V33.4536H99.3615V31.587Z" fill="white"/>
<path d="M110.036 31.5359C109.801 31.2737 109.506 31.0728 109.176 30.9509C108.774 30.8056 108.363 30.685 107.946 30.5896C107.638 30.5254 107.333 30.4451 107.034 30.3488C106.844 30.2793 106.669 30.1742 106.518 30.0391C106.405 29.9274 106.34 29.7761 106.337 29.6175C106.336 29.4923 106.368 29.369 106.428 29.2591C106.488 29.1493 106.576 29.0566 106.681 28.9896C106.983 28.8101 107.328 28.7151 107.679 28.7144H107.817C108.123 28.7174 108.427 28.7638 108.72 28.852C109.023 28.9364 109.313 29.0638 109.58 29.2305L109.709 29.3165L110.131 28.3187L110.036 28.2584C109.725 28.054 109.382 27.9028 109.021 27.8111C108.631 27.7079 108.229 27.6559 107.825 27.6563H107.731C107.256 27.6534 106.785 27.7439 106.346 27.9229C105.98 28.0731 105.664 28.3235 105.434 28.6455C105.238 28.9413 105.133 29.2884 105.133 29.6433V29.7466C105.134 30.1161 105.262 30.4742 105.494 30.7617C105.729 31.022 106.024 31.22 106.354 31.3379C106.755 31.4911 107.166 31.6147 107.584 31.7079C107.897 31.7698 108.204 31.8532 108.505 31.9574C108.692 32.0187 108.865 32.1183 109.012 32.2498C109.068 32.3066 109.112 32.3738 109.141 32.4476C109.171 32.5215 109.185 32.6004 109.184 32.6799V32.723C109.183 32.8467 109.152 32.9682 109.091 33.0764C109.031 33.1846 108.945 33.2761 108.84 33.3423C108.528 33.509 108.179 33.5975 107.825 33.6003H107.671C107.272 33.6004 106.877 33.5335 106.501 33.4025C106.159 33.2862 105.841 33.1084 105.563 32.8777L105.434 32.7573L104.961 33.738L105.029 33.7982C105.367 34.0831 105.76 34.2967 106.182 34.4262C106.666 34.5834 107.171 34.6646 107.679 34.6669H107.765C108.239 34.665 108.709 34.5746 109.15 34.4003C109.525 34.2588 109.849 34.0069 110.079 33.6778C110.279 33.3801 110.387 33.0299 110.389 32.6713V32.5767C110.392 32.2157 110.267 31.8653 110.036 31.5874V31.5359Z" fill="white"/>
</g>
<defs>
<clipPath id="clip0_8105_6046">
<rect width="220" height="40" fill="white"/>
</clipPath>
</defs>
</svg>
