<svg width="220" height="50" viewBox="0 0 220 50" fill="none" xmlns="http://www.w3.org/2000/svg">
<g clip-path="url(#clip0_8093_10290)">
<g clip-path="url(#clip1_8093_10290)">
<mask id="mask0_8093_10290" style="mask-type:luminance" maskUnits="userSpaceOnUse" x="66" y="0" width="86" height="50">
<path d="M151.783 0H66.1484V50H151.783V0Z" fill="white"/>
</mask>
<g mask="url(#mask0_8093_10290)">
<path fill-rule="evenodd" clip-rule="evenodd" d="M137.485 42.1689H139.594V38.0313H143.689V42.1689H145.798V32.597H143.689V36.1668H139.594V32.597H137.485V42.1689ZM132.604 38.3567H130.264L131.428 35.383L132.604 38.3567ZM126.481 42.1689H128.806L129.604 40.1405H133.321L134.145 42.1689H136.525L132.361 32.597H130.618L126.481 42.1689ZM117.208 42.1689H119.317V38.0313H123.414V42.1689H125.523V32.597H123.414V36.1668H119.317V32.597H117.208V42.1689ZM115.626 33.3547C114.804 32.6706 113.759 32.3143 112.693 32.3547C110.89 32.1504 109.265 33.4448 109.061 35.2477C109.054 35.3189 109.047 35.3926 109.044 35.4637C109.044 38.6537 113.533 37.7083 113.533 39.466C113.533 40.1429 112.764 40.466 112.073 40.466C111.353 40.4612 110.676 40.1286 110.234 39.561L108.733 41.2117C109.607 42.017 110.762 42.4492 111.952 42.4136C113.925 42.4136 115.642 41.3994 115.642 39.2641C115.642 35.9127 111.236 37.0337 111.236 35.2904C111.236 34.5731 112.061 34.3047 112.657 34.3047C113.232 34.2904 113.788 34.5209 114.184 34.9388L115.631 33.3571L115.626 33.3547ZM105.42 42.1689H107.529V32.597H105.42V42.1689ZM98.7954 34.383H100.173C100.945 34.383 101.81 34.5327 101.81 35.4922C101.81 36.5327 100.81 36.5588 100.04 36.5588H98.7954V34.383ZM96.6861 42.1689H98.7954V38.3426H99.8356L101.836 42.1689H104.363L101.931 38.1264C103.199 37.9245 104.097 36.782 103.999 35.5042C103.999 33.2738 102.351 32.597 100.389 32.597H96.6861V42.1689ZM91.8051 38.3567H89.4657L90.6295 35.383L91.8051 38.3567ZM85.6819 42.1689H88.0073L88.8053 40.1405H92.5225L93.3467 42.1689H95.7266L91.5629 32.597H89.8196L85.6819 42.1689ZM76.4092 42.1689H78.5184V38.0313H82.6156V42.1689H84.7247V32.597H82.6156V36.1668H78.5184V32.597H76.4092V42.1689ZM68.2576 34.5446H69.5022C71.286 34.5446 72.7871 35.4235 72.7871 37.3021C72.7871 39.4779 71.3145 40.2213 69.3526 40.2213H68.2576V34.5446ZM66.1484 42.1689H69.5948C72.2717 42.4492 74.6706 40.504 74.9485 37.8271C74.9627 37.6893 74.9722 37.5492 74.9746 37.4115C74.9746 33.9105 72.3928 32.5992 69.3098 32.5992H66.1484V42.1713V42.1689Z" fill="white"/>
<path fill-rule="evenodd" clip-rule="evenodd" d="M111.728 6.21111C110.158 4.01643 108.426 1.94053 106.548 0C104.655 1.95478 102.916 4.05444 101.346 6.27761L105.799 10.5316V7.4652H107.203V10.5316L111.728 6.20874V6.21111ZM105.799 12.4697L100.548 7.45333C94.0446 17.4172 93.8594 27.0106 105.799 28.6708V25.3338L98.9708 18.8114L99.9374 17.7973L105.799 23.398V18.9254L98.9541 12.3866L99.9208 11.3724L105.802 16.9897V12.4745L105.799 12.4697ZM107.203 28.6495C117.882 27.3645 119.815 18.4505 112.528 7.38206L107.203 12.4697V16.9422L113.084 11.3249L114.051 12.3391L107.205 18.878V23.3932L113.067 17.7925L114.034 18.8067L107.205 25.329V28.6447L107.203 28.6495Z" fill="white"/>
<path fill-rule="evenodd" clip-rule="evenodd" d="M129.632 46.449H129.658C129.786 46.8812 129.986 47.5819 130.166 48.1473H129.131C129.304 47.5819 129.504 46.8812 129.632 46.449ZM128.494 49.9215C128.553 49.9215 128.608 49.8835 128.622 49.8241L128.867 49.0403H130.43L130.667 49.8241C130.684 49.8835 130.741 49.9239 130.803 49.9215H131.658C131.741 49.9215 131.781 49.8693 131.748 49.7932L130.256 45.4133C130.242 45.3587 130.19 45.3207 130.135 45.323H129.157C129.1 45.323 129.052 45.3611 129.036 45.4133L127.544 49.7932C127.518 49.8693 127.551 49.9215 127.634 49.9215H128.496H128.494ZM122.105 46.2874H122.779C123.273 46.2874 123.525 46.5321 123.525 47.0666V48.1852C123.525 48.7196 123.273 48.95 122.779 48.95H122.105V46.2874ZM122.768 49.9215C123.644 50.0497 124.456 49.4416 124.584 48.5676C124.606 48.4251 124.606 48.2826 124.589 48.1401V47.1164C124.696 46.2304 124.067 45.4253 123.183 45.3184C123.045 45.3017 122.908 45.3017 122.77 45.3206H121.188C121.131 45.3137 121.079 45.3515 121.072 45.4085C121.072 45.4181 121.072 45.4276 121.072 45.437V49.8051C121.064 49.8621 121.103 49.9119 121.16 49.9215C121.169 49.9215 121.178 49.9215 121.188 49.9215H122.77H122.768ZM115.64 48.0498H117.236C117.314 48.0498 117.352 48.0118 117.352 47.9406V47.2447C117.352 47.1734 117.314 47.1353 117.236 47.1353H115.64V46.2541H117.447C117.525 46.2541 117.563 46.2162 117.563 46.1449V45.437C117.571 45.38 117.533 45.3302 117.476 45.3206C117.466 45.3206 117.457 45.3206 117.447 45.3206H114.72C114.663 45.3137 114.613 45.3515 114.604 45.4085C114.604 45.4181 114.604 45.4276 114.604 45.437V49.8051C114.597 49.8621 114.635 49.9119 114.692 49.9215C114.701 49.9215 114.711 49.9215 114.72 49.9215H117.552C117.609 49.9285 117.661 49.8858 117.668 49.8288C117.668 49.8217 117.668 49.8145 117.668 49.8051V49.0973C117.673 49.0403 117.628 48.9904 117.571 48.9881C117.563 48.9881 117.559 48.9881 117.552 48.9881H115.642V48.0498H115.64ZM109.818 49.9215C109.875 49.9239 109.927 49.8882 109.939 49.8312L111.445 45.4514C111.476 45.3754 111.438 45.323 111.355 45.323H110.485C110.424 45.3207 110.371 45.3611 110.357 45.4205L109.687 47.5106C109.559 47.9167 109.431 48.399 109.333 48.7577H109.303C109.205 48.3966 109.077 47.9097 108.949 47.5036L108.272 45.4205C108.26 45.3635 108.208 45.323 108.151 45.323H107.277C107.193 45.323 107.16 45.3754 107.186 45.4514L108.692 49.8312C108.706 49.8858 108.759 49.9239 108.813 49.9215H109.816H109.818ZM102.548 46.2756C103.023 46.2756 103.229 46.4679 103.229 46.8812C103.229 47.2945 103.023 47.4845 102.548 47.4845H101.937V46.2756H102.548ZM104.317 49.9215C104.407 49.9215 104.438 49.8645 104.395 49.786L103.367 48.2304C103.947 48.0403 104.327 47.4821 104.293 46.8741C104.329 46.0452 103.685 45.3445 102.856 45.3113C102.766 45.3065 102.673 45.3113 102.583 45.3254H101.02C100.963 45.3184 100.913 45.3563 100.904 45.4133C100.904 45.4229 100.904 45.4324 100.904 45.4418V49.8099C100.897 49.8669 100.935 49.9167 100.992 49.9263C101.001 49.9263 101.011 49.9263 101.02 49.9263H101.826C101.883 49.9333 101.932 49.8954 101.942 49.8384C101.942 49.8288 101.942 49.8193 101.942 49.8099V48.3894H102.353L103.246 49.8502C103.27 49.9 103.319 49.9309 103.374 49.9287H104.319L104.317 49.9215ZM97.3293 48.2304V45.4394C97.3293 45.3635 97.2913 45.323 97.2199 45.323H96.3959C96.3246 45.323 96.2865 45.3635 96.2865 45.4394V48.2304C96.3413 48.6104 96.0752 48.9643 95.6952 49.0166C95.6406 49.0237 95.5882 49.0259 95.5336 49.0213C95.0587 49.0213 94.795 48.7505 94.795 48.2304V45.4394C94.802 45.3824 94.7594 45.3302 94.7024 45.323C94.6952 45.323 94.688 45.323 94.6809 45.323H93.8638C93.8068 45.316 93.7546 45.3539 93.7474 45.4109C93.7474 45.4205 93.7474 45.43 93.7474 45.4394V48.2304C93.7594 49.2208 94.5717 50.0118 95.5621 49.9998C96.5336 49.9879 97.3198 49.2017 97.3317 48.2304H97.3293ZM89.0802 49.9215C89.1515 49.9215 89.1896 49.8835 89.1896 49.8051V48.2874L90.617 45.4561C90.6549 45.38 90.617 45.3206 90.5339 45.3206H89.6336C89.5744 45.316 89.522 45.3539 89.5054 45.4109L88.6764 47.2969L87.8404 45.4109C87.8215 45.3563 87.7691 45.3206 87.7121 45.3206H86.8119C86.7217 45.3206 86.6908 45.3778 86.7288 45.4561L88.1563 48.2802V49.8051C88.1563 49.8811 88.1943 49.9215 88.2655 49.9215H89.0826H89.0802ZM82.2801 46.449H82.3062C82.4345 46.8812 82.634 47.5819 82.8145 48.1473H81.7789C81.9523 47.5819 82.1519 46.8812 82.2801 46.449ZM81.1424 49.9215C81.2018 49.9215 81.2564 49.8835 81.2707 49.8241L81.5153 49.0403H83.0782L83.3157 49.8241C83.3322 49.8835 83.3894 49.9239 83.451 49.9215H84.3061C84.3892 49.9215 84.4273 49.8693 84.3964 49.7932L82.9048 45.4133C82.8905 45.3587 82.8383 45.3207 82.7836 45.323H81.8075C81.7504 45.323 81.7029 45.3611 81.6839 45.4133L80.1923 49.7932C80.1662 49.8693 80.1995 49.9215 80.2826 49.9215H81.1448H81.1424Z" fill="white"/>
<path d="M142.46 48.8215H133.924" stroke="white" stroke-width="0.056314" stroke-miterlimit="2.61"/>
<path d="M145.807 47.658H133.924" stroke="white" stroke-width="0.056314" stroke-miterlimit="2.61"/>
<path d="M142.46 46.4966H133.924" stroke="white" stroke-width="0.056314" stroke-miterlimit="2.61"/>
<path d="M69.5 48.8215H78.0364" stroke="white" stroke-width="0.056314" stroke-miterlimit="2.61"/>
<path d="M66.1562 47.658H78.0369" stroke="white" stroke-width="0.056314" stroke-miterlimit="2.61"/>
<path d="M69.5 46.4966H78.0364" stroke="white" stroke-width="0.056314" stroke-miterlimit="2.61"/>
<path d="M150.886 27.9463C150.228 27.2885 149.161 27.2885 148.503 27.9463C147.845 28.6043 147.845 29.6707 148.503 30.3286C149.161 30.9866 150.228 30.9866 150.886 30.3286C151.202 30.0127 151.38 29.5852 151.38 29.1362C151.38 28.6898 151.204 28.2598 150.886 27.9463ZM150.149 28.7492C150.149 28.9154 150.016 29.0484 149.85 29.0484C149.84 29.0484 149.833 29.0484 149.824 29.0484H149.339V28.4499H149.824C149.988 28.4356 150.133 28.5567 150.147 28.7229C150.147 28.7325 150.147 28.7397 150.147 28.7492H150.149ZM150.104 30.2217H150.634L150.147 29.3951C150.439 29.324 150.641 29.0531 150.622 28.7516C150.636 28.3786 150.346 28.0651 149.974 28.0509C149.947 28.0509 149.921 28.0509 149.893 28.0509H148.879V30.2194H149.339V29.4427H149.679L150.104 30.2194V30.2217ZM149.696 27.0485C150.85 27.0485 151.786 27.9844 151.783 29.1386C151.783 30.2931 150.848 31.2289 149.693 31.2265C148.539 31.2241 147.603 30.2907 147.605 29.1362C147.605 28.5828 147.826 28.0509 148.218 27.6589C148.61 27.267 149.142 27.0461 149.696 27.0461V27.0485Z" fill="white"/>
</g>
</g>
</g>
<defs>
<clipPath id="clip0_8093_10290">
<rect width="125" height="50" fill="white" transform="translate(47)"/>
</clipPath>
<clipPath id="clip1_8093_10290">
<rect width="85.6655" height="50" fill="white" transform="translate(66.1484)"/>
</clipPath>
</defs>
</svg>
