<svg width="217" height="40" viewBox="0 0 217 40" fill="none" xmlns="http://www.w3.org/2000/svg">
<g clip-path="url(#clip0_8105_7647)">
<path d="M93.8904 35.2983H88.6393L87.6041 37.7289H85.5938L90.3197 27.2267H92.2401L96.9811 37.7289H94.9406L93.8904 35.2983ZM93.2453 33.768L91.2649 29.177L89.2995 33.768H93.2453ZM106.688 37.7289L104.543 34.6532C104.453 34.6632 104.318 34.6682 104.138 34.6682H101.767V37.7289H99.8167V27.2267H104.138C105.048 27.2267 105.838 27.3768 106.508 27.6768C107.188 27.9769 107.708 28.4069 108.068 28.967C108.428 29.5272 108.609 30.1923 108.609 30.9624C108.609 31.7526 108.414 32.4328 108.024 33.0029C107.644 33.573 107.094 33.998 106.374 34.2781L108.788 37.7289H106.688ZM106.643 30.9624C106.643 30.2923 106.424 29.7772 105.984 29.4171C105.544 29.057 104.898 28.8771 104.048 28.8771H101.767V33.0629H104.048C104.898 33.0629 105.544 32.8828 105.984 32.5228C106.424 32.1527 106.643 31.6326 106.643 30.9624ZM117.152 37.8789C116.092 37.8789 115.132 37.6489 114.271 37.1888C113.422 36.7186 112.751 36.0735 112.262 35.2533C111.782 34.4331 111.541 33.508 111.541 32.4777C111.541 31.4476 111.786 30.5223 112.276 29.7022C112.766 28.882 113.436 28.2419 114.287 27.7818C115.146 27.3117 116.107 27.0767 117.167 27.0767C118.027 27.0767 118.813 27.2267 119.523 27.5267C120.233 27.8268 120.833 28.2619 121.323 28.832L120.063 30.0172C119.303 29.197 118.368 28.787 117.258 28.787C116.537 28.787 115.892 28.947 115.322 29.2671C114.751 29.5771 114.306 30.0123 113.986 30.5724C113.666 31.1325 113.506 31.7676 113.506 32.4777C113.506 33.1879 113.666 33.823 113.986 34.3832C114.306 34.9433 114.751 35.3834 115.322 35.7034C115.892 36.0134 116.537 36.1685 117.258 36.1685C118.368 36.1685 119.303 35.7534 120.063 34.9233L121.323 36.1235C120.833 36.6936 120.227 37.1287 119.507 37.4288C118.797 37.7289 118.013 37.8789 117.152 37.8789ZM134.024 27.2267V37.7289H132.073V33.2279H126.643V37.7289H124.692V27.2267H126.643V31.5626H132.073V27.2267H134.024ZM138.339 27.2267H140.289V37.7289H138.339V27.2267ZM146.76 28.8771H143.279V27.2267H152.191V28.8771H148.71V37.7289H146.76V28.8771ZM163.032 36.0935V37.7289H155.155V27.2267H162.822V28.862H157.105V31.5926H162.177V33.1979H157.105V36.0935H163.032ZM171.524 37.8789C170.464 37.8789 169.504 37.6489 168.643 37.1888C167.793 36.7186 167.123 36.0735 166.632 35.2533C166.152 34.4331 165.912 33.508 165.912 32.4777C165.912 31.4476 166.157 30.5223 166.648 29.7022C167.138 28.882 167.808 28.2419 168.658 27.7818C169.518 27.3117 170.478 27.0767 171.539 27.0767C172.399 27.0767 173.184 27.2267 173.894 27.5267C174.604 27.8268 175.204 28.2619 175.695 28.832L174.434 30.0172C173.674 29.197 172.739 28.787 171.628 28.787C170.908 28.787 170.264 28.947 169.693 29.2671C169.123 29.5771 168.678 30.0123 168.358 30.5724C168.038 31.1325 167.878 31.7676 167.878 32.4777C167.878 33.1879 168.038 33.823 168.358 34.3832C168.678 34.9433 169.123 35.3834 169.693 35.7034C170.264 36.0134 170.908 36.1685 171.628 36.1685C172.739 36.1685 173.674 35.7534 174.434 34.9233L175.695 36.1235C175.204 36.6936 174.599 37.1287 173.879 37.4288C173.169 37.7289 172.384 37.8789 171.524 37.8789ZM181.077 28.8771H177.596V27.2267H186.508V28.8771H183.027V37.7289H181.077V28.8771ZM192.625 37.8789C191.815 37.8789 191.029 37.7639 190.269 37.5338C189.519 37.3038 188.924 36.9987 188.484 36.6186L189.159 35.1033C189.589 35.4434 190.114 35.7234 190.735 35.9435C191.365 36.1535 191.995 36.2585 192.625 36.2585C193.405 36.2585 193.985 36.1335 194.365 35.8835C194.755 35.6334 194.95 35.3033 194.95 34.8932C194.95 34.5931 194.84 34.3482 194.621 34.1581C194.411 33.958 194.141 33.803 193.81 33.693C193.48 33.583 193.03 33.4579 192.46 33.3179C191.66 33.1279 191.01 32.9378 190.509 32.7478C190.02 32.5577 189.594 32.2627 189.234 31.8626C188.884 31.4526 188.709 30.9024 188.709 30.2123C188.709 29.6322 188.864 29.1071 189.175 28.637C189.495 28.1569 189.97 27.7768 190.6 27.4968C191.24 27.2167 192.02 27.0767 192.941 27.0767C193.581 27.0767 194.211 27.1567 194.83 27.3167C195.451 27.4768 195.985 27.7068 196.436 28.0068L195.821 29.5221C195.361 29.2521 194.88 29.0471 194.381 28.907C193.88 28.767 193.395 28.697 192.925 28.697C192.155 28.697 191.58 28.827 191.2 29.0871C190.829 29.3471 190.645 29.6922 190.645 30.1223C190.645 30.4223 190.749 30.6674 190.96 30.8574C191.18 31.0475 191.455 31.1975 191.784 31.3075C192.115 31.4175 192.565 31.5426 193.135 31.6826C193.915 31.8626 194.555 32.0527 195.056 32.2528C195.555 32.4427 195.981 32.7378 196.331 33.1379C196.691 33.5379 196.871 34.0781 196.871 34.7582C196.871 35.3383 196.711 35.8635 196.391 36.3335C196.081 36.8037 195.606 37.1787 194.966 37.4588C194.325 37.7388 193.545 37.8789 192.625 37.8789Z" fill="white"/>
<path d="M70.0117 20.4878V3.48435H77.7361C79.5823 3.48435 81.2097 3.84062 82.6186 4.55314C84.0274 5.24948 85.1286 6.2292 85.9221 7.49232C86.7156 8.75544 87.1123 10.2534 87.1123 11.9861C87.1123 13.7027 86.7156 15.2005 85.9221 16.4798C85.1286 17.7429 84.0274 18.7308 82.6186 19.4433C81.2097 20.1396 79.5823 20.4878 77.7361 20.4878H70.0117ZM73.9467 17.2572H77.5418C78.6753 17.2572 79.655 17.0467 80.481 16.6256C81.323 16.1884 81.9708 15.573 82.4242 14.7795C82.8939 13.9861 83.1287 13.0549 83.1287 11.9861C83.1287 10.9011 82.8939 9.96997 82.4242 9.19267C81.9708 8.39917 81.323 7.79191 80.481 7.37086C79.655 6.93363 78.6753 6.71502 77.5418 6.71502H73.9467V17.2572ZM91.2945 20.4878V3.48435H95.2296V20.4878H91.2945ZM108.689 20.7793C107.346 20.7793 106.107 20.5688 104.973 20.1477C103.856 19.7106 102.876 19.0951 102.034 18.3017C101.208 17.5082 100.561 16.577 100.09 15.5082C99.6377 14.4394 99.4104 13.2654 99.4104 11.9861C99.4104 10.7068 99.6377 9.53273 100.09 8.46394C100.561 7.39515 101.216 6.46401 102.058 5.67052C102.9 4.87702 103.888 4.26976 105.022 3.84872C106.156 3.41149 107.403 3.19287 108.763 3.19287C110.269 3.19287 111.621 3.44388 112.819 3.94588C114.034 4.44789 115.054 5.17661 115.88 6.13204L113.354 8.46394C112.738 7.8162 112.066 7.33848 111.337 7.03079C110.608 6.70692 109.815 6.54498 108.957 6.54498C108.131 6.54498 107.378 6.67453 106.698 6.93363C106.018 7.19273 105.427 7.56519 104.925 8.05101C104.439 8.53681 104.058 9.1117 103.783 9.77563C103.524 10.4396 103.395 11.1764 103.395 11.9861C103.395 12.7796 103.524 13.5083 103.783 14.1722C104.058 14.8362 104.439 15.4191 104.925 15.9212C105.427 16.4069 106.009 16.7794 106.674 17.0386C107.354 17.2977 108.098 17.4272 108.908 17.4272C109.685 17.4272 110.439 17.3058 111.167 17.0629C111.912 16.8037 112.633 16.3746 113.329 15.7754L115.564 18.6175C114.641 19.3138 113.564 19.8482 112.333 20.2206C111.119 20.5931 109.904 20.7793 108.689 20.7793ZM111.968 18.1073V11.7189H115.564V18.6175L111.968 18.1073ZM128.645 20.7793C127.3 20.7793 126.061 20.5688 124.927 20.1477C123.81 19.7106 122.831 19.0951 121.989 18.3017C121.163 17.5082 120.515 16.577 120.045 15.5082C119.592 14.4394 119.365 13.2654 119.365 11.9861C119.365 10.7068 119.592 9.53273 120.045 8.46394C120.515 7.39515 121.17 6.46401 122.012 5.67052C122.855 4.87702 123.843 4.26976 124.976 3.84872C126.11 3.41149 127.357 3.19287 128.717 3.19287C130.223 3.19287 131.575 3.44388 132.773 3.94588C133.988 4.44789 135.008 5.17661 135.834 6.13204L133.308 8.46394C132.692 7.8162 132.02 7.33848 131.291 7.03079C130.563 6.70692 129.769 6.54498 128.911 6.54498C128.085 6.54498 127.332 6.67453 126.652 6.93363C125.972 7.19273 125.381 7.56519 124.879 8.05101C124.393 8.53681 124.012 9.1117 123.737 9.77563C123.479 10.4396 123.349 11.1764 123.349 11.9861C123.349 12.7796 123.479 13.5083 123.737 14.1722C124.012 14.8362 124.393 15.4191 124.879 15.9212C125.381 16.4069 125.964 16.7794 126.628 17.0386C127.308 17.2977 128.053 17.4272 128.863 17.4272C129.64 17.4272 130.393 17.3058 131.122 17.0629C131.867 16.8037 132.587 16.3746 133.284 15.7754L135.519 18.6175C134.596 19.3138 133.519 19.8482 132.287 20.2206C131.073 20.5931 129.858 20.7793 128.645 20.7793ZM131.924 18.1073V11.7189H135.519V18.6175L131.924 18.1073ZM145.489 20.4878L138.154 3.48435H142.405L148.817 18.5446H146.315L152.825 3.48435H156.736L149.376 20.4878H145.489ZM159.37 20.4878V3.48435H163.305V20.4878H159.37ZM171.688 20.7793C170.539 20.7793 169.478 20.5688 168.506 20.1477C167.551 19.7106 166.765 19.0951 166.15 18.3017L168.336 15.6783C168.805 16.2937 169.3 16.7632 169.818 17.0871C170.336 17.3949 170.895 17.5486 171.494 17.5486C173.097 17.5486 173.899 16.6094 173.899 14.7309V6.64214H167.924V3.48435H177.809V14.5123C177.809 16.6175 177.291 18.1883 176.255 19.2247C175.219 20.2611 173.696 20.7793 171.688 20.7793ZM180.321 20.4878L187.899 3.48435H191.786L199.389 20.4878H195.259L189.041 5.47619H190.596L184.353 20.4878H180.321ZM184.11 16.8442L185.155 13.8565H193.899L194.967 16.8442H184.11ZM205.55 20.4878V13.5407L206.449 15.9212L198.967 3.48435H203.145L208.878 13.0306H206.473L212.23 3.48435H216.092L208.611 15.9212L209.485 13.5407V20.4878H205.55Z" fill="white"/>
<path fill-rule="evenodd" clip-rule="evenodd" d="M35.4134 20.5784L30.5206 28.8273L25.1853 37.8304H6.3795H0V31.4509V9.71788V3.33838H6.3795H29.034H35.4134V9.71788V20.5784ZM25.0324 25.5749L21.5502 31.4509H6.3795V9.71788H29.034V18.8287L25.0338 25.5727L25.0324 25.5749ZM41.9259 9.59332L45.634 3.33843L49.3422 9.59332L62.3004 31.4509L66.0824 37.8304H58.666H41.7891H35.4096L35.4098 31.4509L35.41 20.5844L41.9259 9.59332ZM41.7894 22.3334L45.634 15.8483L54.884 31.4509H41.7893L41.7894 22.3334Z" fill="white"/>
</g>
<defs>
<clipPath id="clip0_8105_7647">
<rect width="216.585" height="40" fill="white"/>
</clipPath>
</defs>
</svg>
