<svg width="220" height="40" viewBox="0 0 220 40" fill="none" xmlns="http://www.w3.org/2000/svg">
<g clip-path="url(#clip0_8099_10889)">
<path d="M91.0764 31.2551V28.7278L91.0157 28.7146C90.9729 28.7667 90.9254 28.8156 90.8876 28.8712C90.159 29.9517 89.1342 30.6414 87.9395 31.1071C86.3656 31.7208 84.7367 31.8218 83.1021 31.4906C80.6087 30.9857 78.6668 29.6512 77.3498 27.4457C76.6722 26.311 76.2658 25.0843 76.1248 23.7783C76.0428 23.0176 75.9525 22.2379 76.0289 21.4832C76.2883 18.9066 77.221 16.624 79.3041 14.9698C81.257 13.4191 83.51 12.8457 85.9863 13.1336C87.1238 13.266 88.195 13.5982 89.1734 14.192C89.7732 14.5563 90.3021 15.013 90.7188 15.5868C90.812 15.7152 90.9022 15.8458 91.0592 15.9671C91.0692 15.8797 91.0878 15.7919 91.0878 15.7045C91.0888 11.8501 91.0881 7.99611 91.0878 4.14173C91.0878 3.89624 91.2103 3.77337 91.4553 3.77313C92.4683 3.77313 93.481 3.77991 94.4936 3.76814C94.7513 3.76528 94.8315 3.84593 94.8308 4.10569C94.8212 8.04036 94.8191 11.975 94.8187 15.9097C94.8187 19.494 94.823 23.0779 94.824 26.6621C94.8244 28.1226 94.8194 29.5834 94.823 31.0439C94.8233 31.2066 94.793 31.2972 94.6067 31.2965C93.4863 31.2923 92.3659 31.294 91.2455 31.2919C91.2027 31.2919 91.1599 31.2741 91.076 31.2551H91.0764ZM79.7676 22.3118C79.7712 23.0094 79.8765 23.6855 80.1041 24.3453C81.3244 27.8846 85.3205 29.1795 88.4387 27.2559C90.0491 26.2625 90.848 24.7539 91.0168 22.8941C91.1563 21.3569 90.7916 19.9557 89.8118 18.7475C88.8687 17.5846 87.6352 16.9138 86.1583 16.6865C84.7538 16.4706 83.4425 16.7357 82.26 17.5182C80.5494 18.6501 79.8133 20.3068 79.7676 22.3118Z" fill="white"/>
<path d="M101.833 16.094C101.928 15.9812 101.975 15.9334 102.012 15.8788C102.745 14.8023 103.772 14.1129 104.968 13.6558C106.862 12.9325 108.793 12.8943 110.715 13.4813C113.178 14.2335 114.968 15.8014 116.031 18.1535C117.023 20.3483 117.141 22.6327 116.612 24.962C116.246 26.5727 115.485 27.9782 114.322 29.149C113.401 30.076 112.312 30.7525 111.069 31.1764C109.343 31.7648 107.594 31.8383 105.828 31.4098C104.418 31.068 103.191 30.4039 102.257 29.2635C102.132 29.1119 102.023 28.9477 101.905 28.7904C101.901 28.7854 101.888 28.7875 101.829 28.7789V39.9999H98.0904C98.0839 39.9068 98.0729 39.8201 98.0729 39.7334C98.0714 35.9343 98.0722 32.1352 98.0704 28.3361C98.0689 25.3984 98.0643 22.4604 98.0625 19.5227C98.0615 17.6058 98.0654 15.689 98.0586 13.7721C98.0579 13.5459 98.1121 13.4578 98.3576 13.4606C99.4149 13.4735 100.472 13.4717 101.53 13.4617C101.753 13.4595 101.821 13.5273 101.817 13.7511C101.803 14.414 101.811 15.077 101.812 15.7403C101.812 15.8331 101.823 15.9263 101.833 16.094H101.833ZM113.146 22.4065C113.139 22.2827 113.131 22.1485 113.124 22.014C112.976 18.905 110.451 16.2981 107.058 16.6046C105.476 16.7473 104.164 17.4288 103.151 18.6613C102.252 19.7546 101.875 21.0338 101.867 22.4261C101.861 23.5422 102.132 24.5945 102.756 25.5333C103.773 27.0616 105.218 27.9051 107.027 28.1035C108.451 28.2598 109.776 27.9358 110.93 27.0669C112.472 25.9073 113.119 24.3062 113.146 22.4065Z" fill="white"/>
<path d="M130.3 18.3946C129.789 18.3946 129.279 18.3932 128.768 18.3957C128.629 18.3964 128.527 18.3746 128.507 18.2026C128.413 17.403 127.915 16.9045 127.24 16.5513C126.18 15.9964 124.703 16.1655 123.859 16.9298C122.82 17.8715 123.034 19.4326 124.303 20.0203C124.739 20.2219 125.206 20.3678 125.671 20.4916C126.649 20.7518 127.647 20.9434 128.616 21.2299C130.109 21.6709 131.428 22.4088 132.158 23.8607C133.182 25.8975 132.903 28.4687 130.849 30.0519C129.439 31.1388 127.816 31.5798 126.065 31.6562C124.492 31.7247 123.016 31.3972 121.67 30.5775C120.149 29.6512 119.206 28.316 118.927 26.5373C118.825 25.8818 118.822 25.8821 119.482 25.8821C120.351 25.8821 121.221 25.8832 122.09 25.8807C122.239 25.8803 122.345 25.896 122.364 26.0855C122.466 27.1082 123.07 27.7594 123.962 28.1761C124.815 28.5751 125.717 28.5715 126.622 28.4295C127.248 28.3314 127.828 28.1158 128.315 27.6798C129.36 26.7446 129.135 25.1432 127.871 24.5241C127.023 24.1084 126.098 23.9667 125.193 23.7533C124.005 23.4725 122.829 23.1624 121.77 22.5241C120.398 21.697 119.61 20.5016 119.445 18.8956C119.268 17.1625 119.874 15.7488 121.167 14.6176C121.788 14.0753 122.514 13.7092 123.296 13.4523C124.704 12.9905 126.137 12.9702 127.57 13.2678C128.945 13.5532 130.157 14.1634 131.06 15.2817C131.743 16.1284 132.058 17.11 132.092 18.1919C132.098 18.3775 132.002 18.3967 131.86 18.396C131.34 18.3939 130.82 18.3953 130.3 18.3953L130.3 18.3946Z" fill="white"/>
<path d="M129.91 11.1301C129.363 11.1301 128.816 11.1198 128.269 11.1341C127.94 11.1426 127.659 11.0456 127.391 10.8607C125.009 9.21758 122.624 7.57763 120.239 5.93911C118.592 4.80763 116.942 3.68079 115.296 2.54753C115.155 2.45011 115.045 2.45654 114.908 2.55074C112.006 4.54465 109.1 6.53464 106.197 8.52713C105.059 9.30786 103.924 10.0914 102.788 10.8754C102.538 11.0481 102.272 11.1373 101.96 11.1344C100.813 11.1237 99.665 11.1341 98.5178 11.1244C98.4004 11.1234 98.2834 11.0441 98.166 11.0013C98.2331 10.8893 98.2741 10.7401 98.3715 10.6709C100.958 8.83471 103.55 7.00672 106.141 5.17765C108.491 3.51915 110.84 1.85815 113.196 0.209277C113.361 0.0943803 113.587 0.0205184 113.788 0.0155229C114.63 -0.00552957 115.473 -0.00481593 116.315 0.0155229C116.515 0.0205184 116.744 0.0868871 116.907 0.200713C120.68 2.84119 124.447 5.49201 128.214 8.14105C129.416 8.98636 130.62 9.82846 131.817 10.6813C131.912 10.7487 131.956 10.8868 132.023 10.9924C131.91 11.0381 131.798 11.1212 131.684 11.1237C131.092 11.1369 130.501 11.1298 129.909 11.1301H129.91Z" fill="white"/>
<path d="M138.309 13.6078C138.614 13.6078 138.92 13.5854 139.222 13.6125C139.922 13.6749 140.445 14.0328 140.717 14.6769C141.099 15.5804 141.086 16.4778 140.502 17.3081C140.165 17.7884 139.667 18.0053 139.097 18.031C138.542 18.056 137.986 18.0371 137.431 18.0438C137.271 18.0456 137.209 17.9846 137.21 17.8223C137.213 16.4874 137.214 15.1525 137.209 13.8177C137.208 13.6396 137.281 13.5807 137.45 13.5847C137.736 13.5918 138.023 13.5864 138.31 13.5864C138.31 13.5936 138.31 13.6007 138.31 13.6078H138.309ZM138.07 15.8077C138.07 16.2012 138.07 16.5948 138.07 16.9887C138.07 17.1354 138.098 17.267 138.28 17.2692C138.566 17.2724 138.855 17.2902 139.137 17.2563C139.443 17.2199 139.69 17.0487 139.847 16.7778C140.111 16.3222 140.172 15.8287 140.039 15.3252C139.9 14.7986 139.583 14.3218 138.808 14.3686C138.647 14.3782 138.485 14.3747 138.324 14.3693C138.142 14.3636 138.065 14.4453 138.068 14.6269C138.073 15.0205 138.069 15.4141 138.07 15.808L138.07 15.8077Z" fill="white"/>
<path d="M139.552 27.925C139.362 27.9564 139.198 27.909 139.054 27.6706C138.841 27.3202 138.216 27.3559 137.983 27.6938C137.815 27.9382 137.928 28.2401 138.264 28.3764C138.57 28.5009 138.896 28.578 139.198 28.7097C139.433 28.8117 139.673 28.9341 139.861 29.1033C140.29 29.4886 140.292 30.2904 139.897 30.7425C139.22 31.5196 137.675 31.3965 137.146 30.523C137.127 30.4924 137.108 30.4617 137.092 30.4296C136.905 30.0413 136.966 29.9461 137.39 29.9407C137.636 29.9375 137.833 29.94 137.989 30.2148C138.201 30.5869 138.898 30.5776 139.174 30.2451C139.382 29.9942 139.308 29.6635 138.986 29.5118C138.777 29.4133 138.547 29.3612 138.33 29.2781C138.098 29.1889 137.851 29.1168 137.643 28.9866C136.852 28.4945 136.821 27.5125 137.565 26.9463C138.143 26.506 139.161 26.5545 139.676 27.0694C139.815 27.2089 139.913 27.4026 139.99 27.5878C140.103 27.8583 140.049 27.9204 139.759 27.9247C139.705 27.9254 139.652 27.9247 139.552 27.9247V27.925Z" fill="white"/>
<path d="M137.21 22.3906C137.21 21.7366 137.216 21.0825 137.207 20.4288C137.204 20.2236 137.266 20.1369 137.483 20.1448C138.1 20.1676 138.719 20.1516 139.334 20.1969C139.97 20.2436 140.426 20.7781 140.476 21.4197C140.54 22.2382 140.162 22.7324 139.677 22.9133C139.456 22.9958 139.207 23.0097 138.968 23.0343C138.791 23.0525 138.61 23.0368 138.431 23.0389C138.109 23.0429 138.072 23.0771 138.07 23.3915C138.067 23.7141 138.063 24.0366 138.07 24.3588C138.074 24.5444 137.995 24.6154 137.814 24.6115C137.112 24.5961 137.219 24.7349 137.212 24.0295C137.207 23.4832 137.211 22.9365 137.211 22.3902L137.21 22.3906ZM138.068 21.5835C138.069 22.366 138.01 22.2846 138.776 22.2868C138.865 22.2868 138.956 22.2857 139.043 22.2689C139.384 22.2022 139.585 21.9603 139.596 21.612C139.609 21.1931 139.333 20.888 138.911 20.8887C137.973 20.8902 138.076 20.7735 138.068 21.5835Z" fill="white"/>
<path d="M143.665 30.675C143.355 31.1164 142.918 31.2088 142.467 31.2505C141.817 31.3105 141.194 30.9455 140.932 30.3742C140.654 29.7676 140.773 29.0258 141.221 28.5758C141.651 28.143 142.418 28.0042 142.993 28.2554C143.548 28.4977 143.917 29.11 143.89 29.7273C143.883 29.9107 143.771 29.9192 143.636 29.9189C143.071 29.9178 142.507 29.9146 141.943 29.9228C141.847 29.9242 141.752 29.9792 141.656 30.0092C141.704 30.1098 141.73 30.2304 141.802 30.3071C142.04 30.559 142.536 30.6536 142.848 30.4445C143.097 30.2778 143.249 30.3567 143.431 30.5001C143.5 30.5544 143.571 30.6054 143.665 30.675H143.665ZM142.337 29.4497V29.4511C142.507 29.4511 142.677 29.4532 142.846 29.4504C143.021 29.4475 143.078 29.3687 142.987 29.2113C142.852 28.9779 142.656 28.8456 142.377 28.8431C142.082 28.8406 141.862 28.9694 141.71 29.2152C141.628 29.348 141.66 29.4418 141.828 29.4482C141.998 29.455 142.167 29.4497 142.337 29.4497Z" fill="white"/>
<path d="M149.035 17.5843C148.809 17.7348 148.641 17.8818 148.446 17.97C147.616 18.3475 146.648 18.0274 146.271 17.2674C145.89 16.4952 146.19 15.54 146.933 15.1632C147.707 14.7704 148.668 15.0544 149.029 15.8094C149.133 16.0278 149.15 16.289 149.199 16.532C149.239 16.7286 149.157 16.8007 148.952 16.7967C148.388 16.7853 147.824 16.7893 147.26 16.7964C147.17 16.7975 147.081 16.8453 146.991 16.8713C147.032 16.9734 147.046 17.1011 147.118 17.1728C147.407 17.4626 147.808 17.509 148.112 17.327C148.521 17.0822 148.707 17.3338 149.034 17.5843H149.035ZM147.651 16.3293C147.803 16.3293 147.955 16.3343 148.107 16.3282C148.332 16.3193 148.396 16.2034 148.269 16.0185C148.115 15.7937 147.893 15.6977 147.621 15.7131C147.357 15.7277 147.164 15.8622 147.032 16.0806C146.948 16.2194 146.981 16.3254 147.168 16.3282C147.329 16.3311 147.49 16.329 147.651 16.3293Z" fill="white"/>
<path d="M164.964 23.1015C164.964 22.6897 164.969 22.278 164.961 21.8666C164.958 21.6889 165 21.5925 165.202 21.62C165.317 21.6357 165.434 21.6271 165.551 21.6254C165.688 21.6232 165.79 21.6432 165.808 21.8195C165.826 22.0061 165.916 21.9836 166.038 21.8769C166.705 21.2928 167.529 21.5176 167.764 22.3754C167.863 22.7368 167.856 23.1294 167.877 23.509C167.894 23.8123 167.874 24.1177 167.883 24.4218C167.888 24.5855 167.827 24.6565 167.664 24.6387C167.655 24.6376 167.647 24.6387 167.638 24.6387C166.895 24.6266 167.019 24.7365 167.005 24.0221C166.998 23.6378 167.016 23.2503 166.974 22.8699C166.924 22.4275 166.456 22.2195 166.088 22.4674C165.976 22.5427 165.863 22.6994 165.853 22.8268C165.814 23.3249 165.805 23.8266 165.807 24.3265C165.808 24.5449 165.748 24.6234 165.518 24.6173C164.966 24.602 164.966 24.613 164.966 24.0685C164.966 23.9072 164.966 23.7463 164.966 23.585V23.1015H164.963H164.964Z" fill="white"/>
<path d="M152.641 24.117C152.228 24.7043 151.244 24.862 150.512 24.4695C149.875 24.1277 149.598 23.2246 149.899 22.4667C150.157 21.8173 150.997 21.4183 151.712 21.6053C152.49 21.8087 152.978 22.5455 152.851 23.3726C152.556 23.3726 152.255 23.3726 151.953 23.3726C151.586 23.3726 151.219 23.3694 150.852 23.3773C150.779 23.3787 150.707 23.4247 150.634 23.4504C150.662 23.5303 150.672 23.6249 150.722 23.6877C150.967 23.996 151.427 24.1066 151.821 23.88C152.097 23.7212 152.264 23.8047 152.457 23.971C152.517 24.0224 152.58 24.0688 152.641 24.1166V24.117ZM151.334 22.8941V22.8927C151.494 22.8927 151.655 22.8981 151.815 22.8913C151.992 22.8838 152.035 22.7707 151.961 22.6347C151.826 22.3889 151.603 22.2615 151.324 22.2643C151.049 22.2672 150.821 22.3832 150.69 22.6358C150.606 22.796 150.663 22.8934 150.853 22.8941C151.013 22.8945 151.173 22.8941 151.334 22.8941H151.334Z" fill="white"/>
<path d="M162.659 21.5698C163.57 21.5695 164.201 22.1871 164.215 23.0945C164.229 23.9851 163.56 24.6581 162.66 24.6578C161.765 24.657 161.091 23.9826 161.096 23.0938C161.1 22.2085 161.755 21.5709 162.659 21.5702V21.5698ZM163.389 23.107C163.387 22.6824 163.084 22.3723 162.667 22.368C162.244 22.3638 161.924 22.6888 161.925 23.1202C161.927 23.5313 162.248 23.8578 162.653 23.8628C163.069 23.8678 163.39 23.5377 163.388 23.107H163.389Z" fill="white"/>
<path d="M145.276 21.57C146.189 21.5682 146.819 22.188 146.825 23.0933C146.832 23.9978 146.179 24.6579 145.277 24.6576C144.381 24.6572 143.703 23.9896 143.719 23.0947C143.735 22.1737 144.431 21.5208 145.275 21.57H145.276ZM146.01 23.1115C146.01 22.6886 145.706 22.3739 145.291 22.3682C144.864 22.3621 144.547 22.6801 144.546 23.1147C144.545 23.5279 144.861 23.8547 145.267 23.8626C145.683 23.8704 146.01 23.5396 146.01 23.1115Z" fill="white"/>
<path d="M158.968 32.7008C159.191 32.1513 159.376 31.6588 159.591 31.18C159.683 30.9766 159.661 30.8128 159.577 30.6208C159.231 29.8355 158.897 29.0451 158.535 28.1998C158.821 28.1998 159.065 28.1873 159.306 28.2087C159.365 28.2141 159.433 28.3233 159.464 28.3982C159.63 28.8043 159.782 29.216 159.946 29.6228C159.982 29.7106 160.051 29.7848 160.145 29.9247C160.341 29.4287 160.502 29.0052 160.676 28.587C160.845 28.1791 160.724 28.1859 161.271 28.1895C161.392 28.1902 161.512 28.2023 161.673 28.2116C161.583 28.4392 161.512 28.6287 161.434 28.8164C160.953 29.9836 160.458 31.145 159.997 32.32C159.878 32.6233 159.723 32.7496 159.408 32.7036C159.287 32.6858 159.161 32.7008 158.968 32.7008Z" fill="white"/>
<path d="M150.031 30.8442C149.771 31.0968 149.515 31.2884 149.149 31.267C148.6 31.2345 148.142 30.8406 148.113 30.2929C148.078 29.6592 148.083 29.0233 148.087 28.3885C148.088 28.3236 148.199 28.2112 148.268 28.203C148.896 28.1302 148.896 28.1355 148.897 28.7536C148.897 29.1025 148.882 29.4526 148.904 29.8001C148.938 30.335 149.374 30.6172 149.785 30.3846C150.009 30.2583 150.1 30.0485 150.103 29.8005C150.108 29.353 150.115 28.9056 150.104 28.4585C150.1 28.264 150.157 28.1919 150.36 28.1901C150.922 28.1851 150.921 28.1769 150.921 28.7279C150.921 29.4526 150.913 30.1776 150.928 30.902C150.932 31.1221 150.854 31.1949 150.651 31.1739C150.607 31.1692 150.561 31.1732 150.517 31.1739C150.282 31.1772 150.12 31.0674 150.031 30.8445V30.8442Z" fill="white"/>
<path d="M147.301 28.7349C147.207 28.8102 147.124 28.8762 147.041 28.9437C146.84 29.1074 146.672 29.2223 146.4 28.994C146.133 28.7702 145.677 28.9162 145.424 29.2259C145.204 29.4949 145.217 29.8924 145.454 30.1622C145.724 30.4694 146.167 30.584 146.438 30.3502C146.667 30.154 146.808 30.2236 146.986 30.3759C147.086 30.4619 147.196 30.5365 147.298 30.6132C147.067 31.0921 146.382 31.3269 145.687 31.1827C144.96 31.0321 144.471 30.4502 144.442 29.7008C144.417 29.0357 144.882 28.3931 145.534 28.2061C146.278 27.9927 147.13 28.286 147.301 28.7346L147.301 28.7349Z" fill="white"/>
<path d="M152.65 17.4973C152.223 18.0422 151.443 18.247 150.804 18.0061C150.081 17.7335 149.738 17.1858 149.779 16.3687C149.808 15.7803 150.266 15.2304 150.857 15.0738C151.583 14.8811 152.299 15.0859 152.629 15.6008C152.454 15.7296 152.283 15.872 152.094 15.9823C152.038 16.0144 151.912 15.9787 151.847 15.9327C151.522 15.7011 151.147 15.7121 150.838 15.979C150.565 16.2145 150.498 16.5949 150.676 16.905C150.868 17.2418 151.342 17.4759 151.633 17.2618C152.115 16.9075 152.323 17.3121 152.649 17.498L152.65 17.4973Z" fill="white"/>
<path d="M156.281 24.0507C156.031 24.5849 155.225 24.7726 154.627 24.6213C153.864 24.4282 153.427 23.858 153.426 23.1069C153.424 22.3676 153.879 21.7917 154.644 21.6086C155.229 21.4688 156.061 21.6907 156.277 22.181C156.112 22.3023 155.947 22.4411 155.764 22.546C155.705 22.5799 155.576 22.5499 155.51 22.5043C155.159 22.2638 154.728 22.2987 154.441 22.6067C154.169 22.8975 154.17 23.3246 154.442 23.629C154.716 23.9358 155.152 23.9712 155.513 23.7385C155.586 23.6914 155.729 23.6875 155.807 23.7271C155.972 23.8099 156.117 23.9348 156.281 24.0511V24.0507Z" fill="white"/>
<path d="M157.381 23.4657C157.381 23.161 157.372 22.8559 157.384 22.5515C157.392 22.3349 157.313 22.224 157.091 22.2461C156.829 22.2721 156.835 22.1066 156.834 21.9221C156.833 21.7365 156.856 21.5985 157.091 21.6234C157.314 21.647 157.395 21.5367 157.383 21.3198C157.371 21.0875 157.366 20.8523 157.389 20.6218C157.396 20.5501 157.496 20.4388 157.565 20.4299C158.192 20.3503 158.202 20.3642 158.202 21.0018C158.202 21.0646 158.202 21.1274 158.202 21.1899C158.203 21.6017 158.202 21.6149 158.614 21.6206C158.863 21.6238 158.852 21.7694 158.855 21.9399C158.859 22.1191 158.849 22.2486 158.607 22.2493C158.204 22.2507 158.203 22.2646 158.202 22.6571C158.202 23.2216 158.194 23.7865 158.206 24.351C158.211 24.5761 158.13 24.6482 157.91 24.6414C157.302 24.6232 157.387 24.7135 157.381 24.1112C157.378 23.896 157.38 23.6809 157.38 23.4661L157.381 23.4657Z" fill="white"/>
<path d="M153.705 16.8647C153.705 16.5604 153.701 16.256 153.707 15.952C153.711 15.755 153.643 15.6355 153.428 15.6608C153.181 15.6901 153.156 15.5506 153.156 15.3518C153.157 15.1573 153.172 15.01 153.424 15.0403C153.636 15.0656 153.712 14.9532 153.706 14.7531C153.7 14.5115 153.691 14.2685 153.714 14.0291C153.721 13.9602 153.831 13.8467 153.895 13.8453C154.647 13.8314 154.51 13.7747 154.523 14.4066C154.525 14.4694 154.523 14.5318 154.523 14.5946C154.525 15.026 154.525 15.0414 154.949 15.036C155.213 15.0328 155.197 15.1823 155.202 15.3639C155.208 15.562 155.183 15.6836 154.934 15.6769C154.557 15.6669 154.551 15.6876 154.55 16.074C154.55 16.6467 154.544 17.2198 154.554 17.7925C154.557 17.9784 154.495 18.0472 154.308 18.0444C153.567 18.0326 153.722 18.1136 153.706 17.4553C153.701 17.2583 153.705 17.0613 153.705 16.8647H153.705Z" fill="white"/>
<path d="M147.883 23.4471C147.883 23.1516 147.877 22.8558 147.885 22.5604C147.891 22.3499 147.812 22.2285 147.591 22.2475C147.365 22.2667 147.299 22.1675 147.303 21.9499C147.307 21.7408 147.331 21.5973 147.591 21.6212C147.81 21.6416 147.894 21.521 147.885 21.3087C147.875 21.0853 147.891 20.8601 147.877 20.6371C147.865 20.4673 147.932 20.417 148.092 20.4187C148.822 20.4273 148.665 20.3538 148.682 20.9925C148.684 21.046 148.682 21.0999 148.682 21.1538C148.682 21.5909 148.682 21.6023 149.108 21.6209C149.346 21.6312 149.324 21.7822 149.324 21.9349C149.324 22.0862 149.354 22.2385 149.111 22.2478C148.682 22.2642 148.682 22.2764 148.682 22.7088C148.682 23.264 148.677 23.8196 148.686 24.3748C148.689 24.5693 148.628 24.646 148.424 24.641C147.809 24.6257 147.89 24.701 147.883 24.1186C147.881 23.8949 147.883 23.6708 147.883 23.4467V23.4471Z" fill="white"/>
<path d="M156.76 30.0157C156.76 29.711 156.755 29.4063 156.762 29.1019C156.766 28.9078 156.688 28.8118 156.491 28.8357C156.16 28.876 156.238 28.6391 156.214 28.4525C156.183 28.2155 156.305 28.1742 156.495 28.1938C156.698 28.2145 156.765 28.1099 156.761 27.9219C156.755 27.6892 156.763 27.4559 156.76 27.2232C156.757 27.0762 156.821 27.0134 156.968 27.0127C157.712 27.0095 157.561 26.9742 157.574 27.5508C157.576 27.6136 157.574 27.6764 157.574 27.7388C157.574 28.167 157.574 28.1795 158.008 28.1899C158.248 28.1956 158.232 28.3411 158.226 28.496C158.22 28.6466 158.282 28.8271 158.015 28.8386C157.573 28.8571 157.574 28.8682 157.574 29.3142C157.574 29.8519 157.568 30.3893 157.577 30.9267C157.58 31.1219 157.514 31.2 157.314 31.1968C156.661 31.1861 156.77 31.2485 156.76 30.6608C156.757 30.446 156.76 30.2309 156.759 30.0157H156.76Z" fill="white"/>
<path d="M142.051 22.2647C142.102 22.1851 142.156 22.1069 142.204 22.0252C142.412 21.6663 142.728 21.5057 143.125 21.5942C143.203 21.6113 143.293 21.7319 143.31 21.8183C143.331 21.925 143.308 22.0598 143.255 22.1558C143.212 22.2357 143.091 22.336 143.016 22.3267C142.345 22.2461 142.064 22.6222 142.005 23.1649C141.962 23.5549 141.96 23.9506 141.96 24.3435C141.96 24.554 141.892 24.6222 141.679 24.6168C141.138 24.6033 141.137 24.6129 141.137 24.0798C141.137 23.3637 141.145 22.6475 141.133 21.9314C141.129 21.7005 141.197 21.592 141.437 21.6242C141.499 21.6324 141.563 21.632 141.625 21.6242C141.874 21.5931 141.968 21.7016 141.941 21.9471C141.93 22.0466 141.956 22.1501 141.965 22.2514L142.051 22.2643L142.051 22.2647Z" fill="white"/>
<path d="M152.745 28.8674C153.008 28.5705 153.138 28.1958 153.538 28.1669C153.711 28.1544 153.888 28.1801 154.111 28.1912C154.07 28.4228 154.048 28.6158 153.995 28.7996C153.98 28.8517 153.864 28.9195 153.809 28.9088C153.179 28.7846 152.81 29.1853 152.767 29.6674C152.732 30.0591 152.704 30.4527 152.702 30.8456C152.7 31.0804 152.642 31.186 152.385 31.1778C151.841 31.1596 151.892 31.2827 151.891 30.6779C151.889 29.9525 151.896 29.2267 151.883 28.5013C151.879 28.2743 151.932 28.1823 152.179 28.1883C152.663 28.2005 152.663 28.1869 152.694 28.669C152.697 28.7107 152.714 28.751 152.745 28.867V28.8674Z" fill="white"/>
<path d="M143.532 15.0795C143.644 15.0727 143.723 15.062 143.802 15.0645C143.962 15.0691 144.158 15.0288 144.27 15.1066C144.353 15.1641 144.325 15.3789 144.354 15.5223C144.363 15.5683 144.395 15.6097 144.443 15.7046C144.509 15.5922 144.549 15.5191 144.592 15.4481C144.819 15.0799 145.194 14.9171 145.546 15.022C145.691 15.0652 145.761 15.133 145.717 15.2918C145.673 15.4538 145.638 15.6187 145.6 15.7757C145.567 15.7821 145.549 15.791 145.533 15.7874C144.875 15.6465 144.46 15.923 144.386 16.5928C144.344 16.9735 144.349 17.361 144.354 17.7453C144.357 17.9569 144.303 18.0525 144.071 18.0468C143.438 18.0315 143.537 18.0889 143.533 17.5219C143.527 16.7184 143.531 15.9152 143.531 15.0802L143.532 15.0795Z" fill="white"/>
<path d="M155.517 29.6909C155.517 30.1113 155.51 30.5316 155.52 30.9519C155.525 31.1278 155.466 31.1914 155.289 31.1814C154.61 31.1435 154.693 31.287 154.69 30.5773C154.686 29.8708 154.695 29.1643 154.686 28.4577C154.683 28.2629 154.74 28.1866 154.944 28.1908C155.656 28.2062 155.501 28.127 155.516 28.7518C155.523 29.0647 155.517 29.3776 155.517 29.6909Z" fill="white"/>
<path d="M160.351 23.1383C160.351 23.5583 160.347 23.9779 160.352 24.3979C160.355 24.5552 160.305 24.6237 160.136 24.617C159.425 24.5881 159.526 24.7115 159.521 24.005C159.516 23.3081 159.526 22.6113 159.516 21.9148C159.512 21.6928 159.587 21.6168 159.809 21.6218C160.42 21.635 160.347 21.5793 160.35 22.1467C160.352 22.4771 160.351 22.8079 160.35 23.1383H160.351Z" fill="white"/>
<path d="M141.769 16.5383C141.769 16.1269 141.774 15.7155 141.766 15.3041C141.763 15.1338 141.822 15.0614 141.997 15.0618C142.706 15.0639 142.558 15.0272 142.565 15.6049C142.573 16.3292 142.561 17.0539 142.57 17.7782C142.573 17.9731 142.514 18.0487 142.313 18.0455C141.653 18.0355 141.779 18.0819 141.769 17.5313C141.763 17.2006 141.768 16.8694 141.769 16.5387V16.5383Z" fill="white"/>
<path d="M155.11 26.5209C155.385 26.5241 155.602 26.7239 155.605 26.978C155.609 27.2388 155.347 27.4943 155.086 27.4843C154.82 27.4743 154.596 27.2449 154.596 26.9816C154.596 26.715 154.816 26.5173 155.11 26.5205V26.5209Z" fill="white"/>
<path d="M142.157 13.3794C142.444 13.3776 142.664 13.5846 142.663 13.8554C142.662 14.1077 142.442 14.3161 142.172 14.3218C141.883 14.3278 141.667 14.1309 141.662 13.8558C141.658 13.5753 141.86 13.3812 142.157 13.3794Z" fill="white"/>
<path d="M159.901 20.8887C159.621 20.8862 159.408 20.6874 159.406 20.4273C159.405 20.1772 159.659 19.9388 159.921 19.9442C160.203 19.9499 160.405 20.1472 160.404 20.4145C160.402 20.6999 160.199 20.8912 159.901 20.8887Z" fill="white"/>
</g>
<defs>
<clipPath id="clip0_8099_10889">
<rect width="91.8847" height="40" fill="white" transform="translate(76)"/>
</clipPath>
</defs>
</svg>
