<svg width="220" height="40" viewBox="0 0 220 40" fill="none" xmlns="http://www.w3.org/2000/svg">
<path d="M24.9492 27.1358C24.9492 20.4399 30.0074 15.4399 37.2686 15.4399C44.5298 15.4399 49.3833 20.4399 49.3833 27.1358V29.0852H32.2097C32.4462 30.1981 33.0611 31.1948 33.9496 31.9056C34.8381 32.6164 35.9452 32.9974 37.083 32.9838H37.2876C39.2369 32.9838 40.8164 32.5452 41.6935 31.2391H48.7503C47.9514 33.5292 46.4557 35.5121 44.4738 36.9103C42.4919 38.3084 40.1223 39.0518 37.6969 39.0364H37.2876C30.0264 38.8122 24.9683 33.8123 24.9683 27.0677L24.9492 27.1358ZM42.337 24.748C42.0247 23.7323 41.3929 22.8442 40.5361 22.2157C39.6794 21.5871 38.6433 21.2515 37.5808 21.2586H37.2686C34.8514 21.2586 33.097 22.3406 32.3953 24.5141H42.3265V24.7382L42.337 24.748Z" fill="white"/>
<path d="M52.0547 26.8922C52.0547 19.0949 57.9999 15.362 63.0681 15.362H63.3708C64.5527 15.3586 65.7181 15.6329 66.7745 16.1628C67.8309 16.6927 68.748 17.4634 69.452 18.4127V5.98584H76.2746V26.8629C76.2746 34.514 71.2162 39.0462 64.1694 39.0462C57.1129 38.8512 52.0842 34.0657 52.0842 26.8922H52.0547ZM69.6766 27.1066C69.6766 26.9897 69.6766 26.8727 69.6766 26.746C69.6637 25.3906 69.1137 24.0957 68.147 23.1455C67.1804 22.1953 65.876 21.6674 64.5206 21.6778H64.3845C63.3013 21.6409 62.2316 21.9285 61.313 22.5036C60.3944 23.0788 59.6684 23.9152 59.2285 24.9058C58.7886 25.8963 58.6547 26.9958 58.844 28.0629C59.0332 29.1301 59.5371 30.1163 60.2907 30.8952C61.0444 31.674 62.0135 32.21 63.0738 32.4342C64.1342 32.6584 65.237 32.5606 66.2415 32.1535C67.2459 31.7464 68.1064 31.0484 68.7114 30.1492C69.3165 29.25 69.6389 28.1904 69.6376 27.1066H69.6766Z" fill="white"/>
<path d="M142.105 26.8927C142.105 20.148 147.155 15.1968 154.435 15.1968C161.716 15.1968 166.54 20.1968 166.54 26.8927V28.842H149.367C149.605 29.9541 150.221 30.9497 151.109 31.6602C151.997 32.3707 153.103 32.7524 154.24 32.7406H154.454C156.404 32.7406 157.983 32.302 158.851 30.996H165.907C165.099 33.2804 163.602 35.2576 161.622 36.6544C159.643 38.0511 157.277 38.7985 154.854 38.7932H154.454C147.174 38.7932 142.125 33.8322 142.125 26.8732L142.105 26.8927ZM159.493 24.4951C158.616 22.1071 156.852 21.2396 154.435 21.2396C152.018 21.2396 150.254 22.3313 149.562 24.4951H159.493Z" fill="white"/>
<path d="M170.062 26.678V5.80078H176.885V18.2277C177.591 17.2775 178.51 16.5058 179.567 15.9744C180.625 15.4429 181.793 15.1665 182.977 15.1672H183.278C188.337 15.1672 194.282 18.8613 194.282 26.6975C194.282 33.871 189.224 38.871 181.943 38.871C175.413 38.871 170.092 34.2706 170.092 26.6682L170.062 26.678ZM187.675 26.8924C187.646 25.8543 187.311 24.8477 186.714 23.9984C186.116 23.1491 185.281 22.4949 184.314 22.1174C183.347 21.7399 182.29 21.6558 181.275 21.8759C180.26 22.0959 179.332 22.6102 178.608 23.3545C177.884 24.0988 177.394 25.0401 177.202 26.0606C177.01 27.0812 177.123 28.1357 177.527 29.0925C177.93 30.0493 178.608 30.8658 179.473 31.4401C180.338 32.0143 181.353 32.3208 182.391 32.3212C185.471 32.5454 187.675 30.1283 187.675 26.8924Z" fill="white"/>
<path d="M140.341 32.3218C140.116 32.5459 139.892 32.7702 139.892 32.9846C139.239 33.6376 138.801 34.505 138.138 35.1581C137.412 35.7867 136.593 36.2996 135.711 36.6786H138.801C138.821 36.5126 138.896 36.3581 139.015 36.2399C139.239 36.0255 139.239 35.8014 139.463 35.8014C139.668 35.5967 139.892 35.5966 140.116 35.3725C140.34 35.1483 140.779 34.934 141.003 34.7293C140.653 33.9682 140.429 33.155 140.341 32.3218Z" fill="white"/>
<path d="M140.784 35.8008C140.56 36.025 140.56 36.2394 140.336 36.678H141.008C140.968 36.3779 140.893 36.0835 140.784 35.8008Z" fill="white"/>
<path d="M138.352 31.6779C138.8 31.2393 139.463 30.8006 139.892 30.3718C139.669 29.3967 139.376 28.4391 139.014 27.5063L138.8 27.7305C138.285 28.341 137.975 29.0978 137.913 29.8942C137.74 30.8344 137.364 31.7257 136.812 32.5063C136.513 32.9951 136.142 33.4354 135.711 33.8124C134.855 34.8141 134.117 35.9094 133.508 37.0774C133.508 37.1052 133.502 37.1326 133.491 37.1581C133.48 37.1836 133.464 37.2067 133.444 37.2258C133.424 37.2449 133.401 37.2598 133.375 37.2695C133.349 37.2792 133.321 37.2835 133.293 37.2822L133.508 37.0677C134.171 36.6291 134.609 35.9761 135.272 35.5473C135.654 35.1759 136.104 34.8814 136.598 34.6798C137.251 33.403 137.514 32.3114 138.352 31.6682V31.6779Z" fill="white"/>
<path d="M131.751 36.678C131.986 36.274 132.282 35.909 132.629 35.5962C131.912 35.8204 131.249 36.1885 130.68 36.678H131.751Z" fill="white"/>
<path d="M133.52 30.8006C134.181 29.1632 135.07 27.6275 136.161 26.2391C136.667 25.5707 137.339 25.0465 138.111 24.7187L137.526 23.4321L134.884 26.0443C134.188 26.5872 133.591 27.2468 133.12 27.9936C132.337 29.4567 131.684 30.9864 131.171 32.5647C130.309 34.0497 129.191 35.3697 127.867 36.4633H129.621C130.09 35.9739 130.609 35.536 131.171 35.1573C132.409 34.0852 132.848 32.7889 133.52 30.8201V30.8006Z" fill="white"/>
<path d="M129.744 29.9334C129.968 29.5045 130.631 28.8418 130.846 28.413C130.846 28.1985 131.733 26.6781 131.733 26.4636C131.947 25.372 132.61 25.372 133.273 24.5143C133.487 24.3097 133.487 23.8613 133.711 23.6469C133.936 23.4324 134.15 23.4324 134.364 23.218C134.643 22.9214 134.802 22.5329 134.813 22.1263C135.15 21.5264 135.517 20.9441 135.914 20.3817C135.69 20.1672 135.69 19.7385 135.475 19.5143C134.626 20.2092 133.741 20.8598 132.824 21.4636C132.161 22.4476 131.713 23.5601 131.508 24.7287C130.182 28.2083 127.542 30.8106 125.563 34.0757C125.124 34.9431 124.462 35.8106 124.013 36.6878L123.351 29.0366C123.799 27.5162 124.014 25.138 125.3 23.1887C125.953 22.0971 127.503 21.6683 128.224 20.5767C129.101 19.4851 129.101 18.4031 129.988 17.0971C130.202 16.6682 130.865 16.2297 131.303 15.5767C131.518 15.1381 131.743 14.485 131.967 14.0561C131.686 13.9701 131.425 13.8294 131.2 13.642C130.974 13.4546 130.787 13.2244 130.65 12.9645C130.426 13.6176 129.988 14.0562 129.763 14.7092L129.101 16.0055C128.877 16.2296 128.877 16.4441 128.673 16.6683C127.786 17.3213 126.46 18.1887 125.144 19.2803C123.195 21.2296 123.195 22.3116 122.503 23.6176C122.503 23.6176 123.165 22.3115 123.818 21.2296C124.494 20.0979 125.486 19.1897 126.674 18.6176C127.141 18.4492 127.589 18.2302 128.009 17.9645C127.843 18.6659 127.542 19.3281 127.122 19.9139C126.565 20.3223 125.975 20.6841 125.358 20.9957C124.033 21.8729 123.819 23.6078 122.503 24.8943L124.032 23.5883L123.165 28.5981V28.3739C122.639 28.9705 121.968 29.4204 121.216 29.68C121.3 28.4421 121.447 27.2092 121.655 25.986C121.879 23.8125 120.114 21.2102 119.89 20.5474C119.666 19.8846 118.789 21.6391 117.697 21.2005C116.81 20.5474 116.586 20.9763 116.148 20.9763C115.709 20.9763 107.376 25.986 107.376 25.986C106.723 26.2004 107.162 26.6391 107.6 26.2005C108.263 25.986 113.546 22.7209 115.524 22.7209H116.031C117.071 22.7211 118.072 22.3236 118.828 21.6098C119.929 20.7423 119.715 21.8243 120.377 23.7833C120.702 25.8728 120.702 27.9999 120.377 30.0893C119.685 30.2367 118.981 30.3118 118.273 30.3135H117.941C118.175 29.4461 118.175 28.3641 118.4 27.7111C118.604 26.8437 116.625 24.4363 116.187 24.2316C115.962 24.0075 112.658 24.875 112.658 24.875C111.567 25.0991 112.659 25.528 113.77 25.0991C113.996 25.0412 114.229 25.0117 114.462 25.0113C115.181 25.0102 115.875 25.274 116.411 25.752C117.074 25.9665 117.288 27.2726 117.288 28.14V30.5279H116.625V30.3914C116.625 30.1308 116.703 29.876 116.849 29.6604C117.073 27.0484 114.432 26.6196 112.444 26.181H112.142C110.748 26.1847 109.362 26.4117 108.039 26.8534C107.815 27.0581 108.273 27.4968 109.14 27.0582C110.823 26.8376 112.526 26.8376 114.208 27.0582C115.962 27.2823 115.963 28.1498 115.963 30.1089V30.5377C115.963 29.8846 115.524 29.4558 115.095 29.6702C114.208 30.1088 114.432 29.0172 114.432 28.5883V28.793C114.208 29.6702 111.342 29.4558 110.465 29.0172C109.588 28.7931 110.465 29.2413 110.465 29.8846C110.465 30.5279 109.589 30.5376 109.589 29.6702C109.589 28.8027 108.701 30.3233 107.814 31.2005C106.928 32.0777 106.275 31.8437 105.173 31.8437C104.072 31.8437 104.52 30.9762 103.633 30.9762C102.746 30.9762 102.542 30.1088 102.971 29.4558C103.633 28.793 102.97 28.5883 102.756 27.7209C102.541 26.8534 106.723 24.6702 106.723 24.446L108.925 21.834L115.524 14.446C114.871 15.9665 115.095 16.3954 113.984 17.37C113.984 18.2375 111.782 21.2686 110.69 22.5844C110.242 23.2374 113.107 20.1867 113.545 19.5337C113.77 19.1049 114.647 18.4519 114.871 18.0133C115.255 17.5904 115.698 17.2259 116.187 16.9315C117.736 15.6254 118.136 13.0328 119.715 11.9315C120.602 11.2784 121.664 11.2785 122.356 10.6255C123.019 10.1869 123.243 9.31938 123.896 8.89053C124.23 8.6184 124.601 8.39519 124.998 8.22771C124.374 7.84664 123.784 7.413 123.234 6.93146L128.74 0.839844H91.7031L89.0618 8.01331C90.0289 7.49348 91.0713 7.12844 92.1514 6.93146C93.0088 6.76388 93.8801 6.67901 94.7537 6.67804C95.0558 6.67804 95.3681 6.67804 95.6703 6.67804H105.134L77.8438 36.6878H124.53C124.969 36.4734 125.193 36.0348 125.632 35.8106C126.285 35.3817 125.407 35.6059 125.855 35.1673C126.947 34.2998 127.805 32.5552 128.712 31.2686C129.121 30.869 129.559 30.6546 129.763 30.0015L129.744 29.9334ZM119.17 11.2394C118.92 11.7052 118.536 12.0856 118.067 12.3311L119.17 11.2394Z" fill="white"/>
<path d="M136.816 22.5459C136.592 22.1073 136.592 21.6783 136.377 21.2397C136.244 21.3426 136.136 21.4739 136.06 21.6239C135.984 21.774 135.942 21.9391 135.938 22.1072C135.5 23.1988 134.837 24.0565 134.398 25.1579C135.264 24.3444 136.072 23.4716 136.816 22.5459Z" fill="white"/>
<path d="M128.005 24.9343C127.781 25.3632 127.557 26.026 127.343 26.4549C127.128 26.8837 126.67 27.1079 126.67 27.7706C126.528 28.0481 126.455 28.3555 126.456 28.6672V28.8427C126.461 28.9109 126.461 28.9792 126.456 29.0474C126.454 29.5546 126.307 30.0508 126.032 30.4774C125.758 30.9039 125.367 31.243 124.906 31.4549C125.867 31.1176 126.657 30.418 127.109 29.5056C127.547 28.6381 127.333 27.7608 127.996 27.1078C128.21 26.679 128.658 26.026 128.863 25.5874C129.436 24.9048 129.955 24.1781 130.413 23.4139C131.066 22.1079 131.953 21.4645 132.363 20.1487L133.025 18.1994C133.249 17.7511 133.678 17.5465 133.902 17.3223C133.463 16.679 133.249 16.2404 132.801 15.5874L132.138 16.8837C131.475 18.1994 131.261 19.7492 130.608 20.7823C129.984 22.2345 128.658 23.3359 128.005 24.8369V24.9343Z" fill="white"/>
<path d="M119.195 16.0156L118.98 16.6784C119.126 16.5263 119.206 16.3235 119.204 16.1131C119.204 16.1131 119.204 16.0546 119.204 16.0156H119.195Z" fill="white"/>
<path d="M124.256 11.6679C124.695 11.2391 125.143 10.586 125.582 10.1474C125.81 9.73617 126.106 9.36697 126.458 9.05579C126.234 8.85111 125.806 8.62702 125.582 8.4126C124.032 9.71864 123.632 11.6679 121.615 12.5354C120.962 12.7596 121.615 12.5353 120.962 12.9739C120.728 13.1981 120.522 13.627 120.298 13.8511C119.411 14.4944 119.636 15.3618 119.188 16.0149L120.075 14.2801C121.176 12.974 122.999 12.7595 124.256 11.6679Z" fill="white"/>
<path d="M126.234 9.92295C125.908 10.1355 125.638 10.4238 125.448 10.7633C125.258 11.1028 125.154 11.4833 125.143 11.8723C125.143 12.5155 124.694 12.9541 123.817 12.9541C122.501 12.9541 125.143 13.3831 125.581 12.0868C125.806 11.2193 125.806 11.4337 126.234 10.9951C126.273 10.9433 126.322 10.9014 126.38 10.8726C126.438 10.8438 126.501 10.8291 126.566 10.8294C126.63 10.8283 126.694 10.8427 126.751 10.8716C126.809 10.9004 126.859 10.9427 126.897 10.9951L127.345 11.4337C127.784 11.6481 127.559 12.3109 127.121 12.5156C126.458 12.7398 126.019 14.4649 125.171 15.1277C124.323 15.7905 124.724 16.8626 123.846 17.3109C122.969 17.7593 122.969 19.0457 122.969 19.0457C123.193 18.3927 124.509 17.7397 124.918 16.6579C125.327 15.576 126.458 15.5663 126.867 14.2603C127.277 12.9542 129.957 12.7397 129.957 12.7397C128.905 11.4604 127.722 10.2943 126.429 9.26025V9.31867C126.431 9.52845 126.367 9.73352 126.244 9.90344L126.234 9.92295Z" fill="white"/>
<path d="M114.789 28.8419C114.789 28.6372 111.699 27.3214 110.169 27.7698C108.619 27.9745 110.374 27.7697 111.7 27.9744C112.801 28.2181 114.789 28.8419 114.789 28.8419Z" fill="white"/>
<path d="M120.034 17.5454C119.105 18.3278 117.944 18.7832 116.73 18.8417C118.972 20.791 120.034 17.5454 120.034 17.5454Z" fill="white"/>
<path d="M105.533 27.9744C105.533 27.9744 106.196 27.9745 106.196 28.4131C106.196 28.8517 106.645 28.6372 106.421 27.9744C106.196 27.3117 105.319 27.7697 105.533 27.9744Z" fill="white"/>
</svg>
