<svg width="220" height="40" viewBox="0 0 220 40" fill="none" xmlns="http://www.w3.org/2000/svg">
<g clip-path="url(#clip0_8105_5854)">
<path d="M74.5798 15.4159C74.0693 18.1506 73.5862 20.8853 73.1031 23.5379C72.1916 28.6425 71.28 33.7442 70.3685 38.8428C70.2864 39.2803 70.1406 39.4443 69.6757 39.4352H61.1436C60.5693 39.4352 60.5328 39.2347 60.624 38.7515C61.8394 32.237 63.0061 25.7134 64.1243 19.1806C65.2273 13.0915 66.3303 7.01147 67.3968 0.94968C67.5153 0.275134 67.7431 0.038132 68.445 0.038132H76.5852C76.8442 0.0375335 77.097 0.118163 77.3079 0.268578C77.5188 0.418994 77.6773 0.631678 77.7611 0.876796C81.4073 8.33326 85.0535 15.7837 88.6997 23.228C88.8546 23.5379 89.0278 23.8569 89.3012 24.3674C89.6567 22.4531 89.9758 20.7212 90.2766 19.0075C91.3432 13.0186 92.437 7.02968 93.4671 1.04081C93.6038 0.265997 93.8499 -0.0256006 94.6976 0.00174579C97.3502 0.0655541 99.9937 0.00174579 102.646 0.00174579C103.257 0.00174579 103.394 0.120207 103.275 0.75829C101.714 9.39976 100.164 18.0412 98.6264 26.6827C97.9428 30.5567 97.2227 34.4126 96.5755 38.314C96.4296 39.2256 96.1287 39.4353 95.2354 39.4079C92.6831 39.335 90.1307 39.3532 87.5875 39.4079H87.4235C87.1462 39.4101 86.8756 39.3224 86.6521 39.1581C86.4287 38.9938 86.2644 38.7617 86.1838 38.4964C82.5923 31.1068 78.9856 23.7232 75.3637 16.3457C75.2088 15.9885 74.9676 15.6752 74.6618 15.4342L74.5798 15.4159Z" fill="white"/>
<path d="M134.388 29.0155C133.341 31.4014 131.791 33.5328 129.843 35.2635C127.895 36.9942 125.596 38.2833 123.103 39.0425C121.289 39.6741 119.382 39.9975 117.461 39.9996C115.02 39.9988 112.608 39.4735 110.387 38.4591C108.487 37.6253 106.866 36.2625 105.718 34.5331C104.571 32.8037 103.945 30.7809 103.915 28.7056C103.915 28.1587 103.852 27.6117 103.852 27.0648C103.858 22.1346 105.701 17.3835 109.02 13.738C110.749 11.8292 112.859 10.3049 115.215 9.26379C117.57 8.22268 120.118 7.68799 122.693 7.69439H123.605C127.187 7.7582 130.45 8.66974 133.067 11.2221C136.093 14.1573 136.713 17.8582 136.339 21.8234C136.205 22.9768 135.989 24.1192 135.692 25.2417C135.537 25.8798 135.245 26.0256 134.625 26.0165H114.644C113.386 26.0165 113.405 26.0165 113.432 27.2198C113.432 29.1614 114.116 30.793 116.048 31.586C117.071 32.0353 118.195 32.2029 119.304 32.0715C120.413 31.9401 121.467 31.5144 122.356 30.8386C122.638 30.6744 122.881 30.4504 123.067 30.1823C123.669 29.0702 124.644 28.9882 125.802 29.0064C128.591 29.0611 131.399 29.0064 134.388 29.0064V29.0155ZM120.478 21.076H125.947C126.321 21.076 126.604 21.0759 126.677 20.5746C126.723 20.3189 126.748 20.0597 126.75 19.7998C126.743 18.8181 126.404 17.8676 125.788 17.103C125.173 16.3383 124.316 15.8045 123.359 15.5884C121.579 15.1388 119.695 15.3771 118.082 16.2557C116.47 17.1344 115.249 18.5887 114.663 20.3284C114.444 20.9301 114.489 21.1032 115.182 21.085C117.005 21.085 118.737 21.085 120.506 21.085L120.478 21.076Z" fill="white"/>
<path d="M46.7072 25.9984H36.4796C35.7321 25.9984 35.5681 26.2263 35.5681 26.91C35.5681 29.4167 36.4797 30.9937 38.4577 31.6956C39.1716 31.9648 39.928 32.1038 40.691 32.1059C41.6008 32.1068 42.5 31.9099 43.3264 31.529C44.1527 31.1481 44.8863 30.5923 45.4766 29.8999C45.6728 29.6177 45.9345 29.3874 46.2394 29.2286C46.5442 29.0698 46.8831 28.9873 47.2268 28.9883H47.4456C50.1802 29.0339 52.9149 28.9883 55.6495 28.9883C56.3058 28.9883 56.4607 29.116 56.1417 29.7267C52.8419 35.8797 47.7098 39.3162 40.6453 39.8267C37.9638 40.1028 35.2565 39.6788 32.7878 38.5961C30.796 37.7625 29.0935 36.3612 27.8925 34.5669C26.6914 32.7726 26.0448 30.6644 26.0333 28.5052C25.7872 21.5136 28.0934 15.4609 33.9637 11.1858C37.1154 8.81128 40.9563 7.53099 44.9023 7.53959C46.9119 7.54176 48.9075 7.87442 50.8091 8.52414C55.5218 10.0373 58.1015 13.5467 58.4844 18.3597C58.5391 18.9066 58.5573 19.4536 58.5573 20.0005C58.5552 21.7452 58.3129 23.4813 57.8372 25.1599C57.8083 25.3806 57.6996 25.583 57.5317 25.729C57.3638 25.8751 57.1482 25.9548 56.9257 25.9529H56.7433C53.3706 26.0076 49.9979 26.0167 46.6251 26.0167L46.7072 25.9984ZM36.6801 21.0762H48.3297C48.8676 21.0762 48.8584 20.7479 48.9131 20.4015C48.9468 20.1967 48.962 19.9893 48.9587 19.7817C48.9554 18.8263 48.6364 17.8988 48.0511 17.1437C47.4658 16.3885 46.6471 15.8482 45.7227 15.6069C41.6663 14.5677 37.9381 16.7737 36.671 21.0762H36.6801Z" fill="white"/>
<path d="M143.184 29.1798H147.213C147.505 29.1798 147.806 29.0705 147.915 29.581C148.462 32.0877 149.839 33.0995 152.473 32.9993C153.29 32.9786 154.096 32.8087 154.852 32.4979C155.287 32.3551 155.67 32.0867 155.952 31.7265C156.234 31.3663 156.403 30.9305 156.438 30.4743V30.4196C156.438 29.9874 156.304 29.5659 156.054 29.2132C155.804 28.8605 155.451 28.5941 155.044 28.4506C153.358 27.6739 151.626 27.004 149.857 26.4452C147.633 25.798 145.535 24.7811 143.649 23.4371C139.274 19.9186 140.003 13.2916 144.697 10.1923C148.216 7.84052 152.136 7.45769 156.229 7.81319C159.114 8.00471 161.854 9.15302 164.013 11.0765C164.904 11.8688 165.618 12.8401 166.108 13.9271C166.598 15.014 166.853 16.1921 166.857 17.3844V17.5212C166.857 18.0864 166.784 18.4327 166.073 18.3597H158.717C158.207 18.3597 158.006 18.2869 157.97 17.7035C157.948 17.0889 157.736 16.4962 157.364 16.0067C156.992 15.5171 156.478 15.1546 155.891 14.9688C155.217 14.6926 154.496 14.5502 153.767 14.5495C152.931 14.5495 152.105 14.7396 151.352 15.1056C150.98 15.2404 150.655 15.478 150.413 15.7905C150.172 16.103 150.023 16.4776 149.986 16.8709C149.949 17.2642 150.024 17.66 150.203 18.0124C150.382 18.3647 150.657 18.659 150.996 18.8611C152.472 19.8196 154.086 20.5452 155.782 21.0124C157.453 21.5576 159.09 22.1998 160.686 22.9357C162.938 24.0661 164.806 25.6704 165.463 28.1316C165.644 28.8064 165.736 29.502 165.736 30.2007C165.739 31.697 165.334 33.1657 164.567 34.4501C163.8 35.7345 162.698 36.7863 161.379 37.4931C159.247 38.7714 156.847 39.5361 154.369 39.7265C150.203 40.0911 146.165 39.854 142.519 37.5023C139.784 35.6792 138.235 33.3182 138.426 29.982C138.426 29.3895 138.608 29.0705 139.274 29.1617C140.559 29.2164 141.872 29.1617 143.175 29.1617L143.184 29.1798Z" fill="white"/>
<path d="M184.068 39.4346H183.211C181.574 39.4355 179.944 39.2241 178.362 38.8057C176.988 38.4471 175.762 37.6634 174.86 36.5666C173.958 35.4697 173.426 34.1159 173.339 32.6984C173.111 30.0184 173.777 27.4478 174.251 24.8499C174.725 22.252 175.162 19.5995 175.7 16.9742C175.837 16.2997 175.764 15.9442 174.934 16.0627C174.105 16.1812 173.357 16.0627 172.583 16.0627C172.2 16.0627 171.972 16.0626 172.063 15.5339C172.501 13.3036 172.908 11.0551 173.284 8.78841C173.376 8.27794 173.558 8.07741 174.105 8.11387C174.88 8.11387 175.673 8.11387 176.457 8.11387C177.241 8.11387 177.368 7.88607 177.45 7.28444C177.76 5.3155 178.143 3.3647 178.462 1.38665C178.562 0.748562 178.745 0.475098 179.492 0.475098C182.136 0.529791 184.788 0.529791 187.432 0.475098C188.343 0.475098 188.343 0.76678 188.206 1.4869C187.815 3.40115 187.505 5.34283 187.14 7.2662C187.031 7.84959 187.14 8.17768 187.815 8.11387C189.455 8.05918 191.087 8.11387 192.719 8.11387C193.111 8.11387 193.411 8.11386 193.293 8.6699C192.846 10.9123 192.445 13.1456 192.081 15.4245C191.989 15.9805 191.734 16.0626 191.242 16.0535H186.238C185.773 16.0535 185.563 16.1629 185.481 16.6733C184.77 20.7571 183.995 24.8773 183.284 28.9337C183.029 30.4195 183.804 31.2672 185.353 31.3037H188.708C189.218 31.3037 189.3 31.4495 189.209 31.9235C188.763 34.1932 188.298 36.4812 187.951 38.7601C187.851 39.3708 187.605 39.4711 187.04 39.4529C186.128 39.4529 185.271 39.4529 184.077 39.4529L184.068 39.4346Z" fill="white"/>
</g>
<defs>
<clipPath id="clip0_8105_5854">
<rect width="220" height="40" fill="white"/>
</clipPath>
</defs>
</svg>
