<svg width="220" height="40" viewBox="0 0 220 40" fill="none" xmlns="http://www.w3.org/2000/svg">
<g clip-path="url(#clip0_8099_11205)">
<path d="M132.723 39.4414C132.661 39.3436 132.587 39.2535 132.535 39.1505C132.031 38.1183 131.243 37.3203 130.36 36.6252C129.472 35.9251 128.486 35.3665 127.472 34.8619C126.144 34.2004 124.779 33.6186 123.381 33.1218C122.599 32.8438 121.801 32.6044 121.016 32.3289C120.673 32.2105 120.346 32.0458 120.048 31.8373C119.533 31.4795 119.494 30.9157 119.95 30.4936C120.269 30.195 120.604 29.9118 120.915 29.6055C121.358 29.1679 121.922 29.0314 122.498 28.9079C122.645 28.877 122.882 28.895 122.892 28.7071C122.9 28.5449 122.674 28.5012 122.532 28.4394C122.174 28.2849 121.803 28.375 121.474 28.5037C120.897 28.7277 120.303 28.913 119.718 29.0726C119.129 29.2348 118.524 29.3764 117.934 29.5514C117.355 29.7239 116.794 29.9633 116.207 30.1074C115.674 30.2362 115.165 30.4858 114.601 30.473C114.539 30.473 114.472 30.4833 114.413 30.5013C113.342 30.854 112.238 30.9827 111.116 30.9801C109.962 30.9801 108.812 30.9749 107.658 30.9801C107.419 30.9801 107.19 30.9595 106.981 30.8308C106.945 30.8076 106.904 30.7819 106.866 30.7793C106.315 30.751 105.79 30.5708 105.252 30.491C104.768 30.4163 104.286 30.3417 103.813 30.2259C103.686 30.195 103.568 30.1435 103.47 30.0585C103.308 29.917 103.112 29.9478 102.927 29.9092C102.466 29.8114 101.939 29.9015 101.55 29.5283C101.498 29.4793 101.424 29.4356 101.354 29.4253C100.945 29.3661 100.556 29.2219 100.155 29.1293C100.039 29.1035 99.9282 29.0855 99.8226 29.0237C99.6836 28.9413 99.5318 28.877 99.3696 28.877C98.8239 28.877 98.2987 28.7354 97.7633 28.6582C97.7427 28.6556 97.7196 28.6453 97.7015 28.6505C97.5059 28.6891 97.2202 28.6865 97.1893 28.8873C97.1558 29.1061 97.4441 29.0881 97.6063 29.1293C98.031 29.2322 98.4583 29.3326 98.8882 29.4021C99.1791 29.4485 99.4082 29.5823 99.6244 29.7599C100.026 30.0946 100.428 30.4292 100.827 30.7664C101.254 31.1294 101.254 31.6957 100.821 32.0587C100.507 32.3238 100.15 32.5169 99.7634 32.6481C98.17 33.1964 96.5972 33.8091 95.0476 34.4655C93.9999 34.9108 93.0294 35.5183 92.0487 36.1027C90.9521 36.7565 90.0279 37.5931 89.1759 38.525C88.8309 38.9034 88.5298 39.3204 88.3547 39.8121C88.3264 39.8944 88.3007 40.0283 88.1797 39.9948C88.087 39.9691 88.1231 39.8481 88.1205 39.7657C88.105 38.3448 88.4525 37.0036 89.0008 35.7011C89.32 34.9443 89.8323 34.3162 90.2596 33.6315C90.3085 33.5517 90.4115 33.4822 90.3652 33.3792C90.3111 33.2582 90.1824 33.2865 90.0794 33.2917C89.2454 33.3174 88.4268 33.477 87.6159 33.6521C86.7845 33.8297 85.9479 34.0202 85.2117 34.4887C85.1602 34.5221 85.0907 34.5608 85.0366 34.499C84.9645 34.4192 85.0212 34.3368 85.0598 34.2647C85.3584 33.719 85.7394 33.2351 86.1281 32.7511C86.9158 31.7704 87.9763 31.1191 88.9597 30.3752C89.6598 29.8449 90.4527 29.469 91.1889 28.998C91.3639 28.8847 91.3639 28.8075 91.2738 28.6196C91.0499 28.1511 90.6741 27.9683 90.1927 27.9812C89.8683 27.9889 89.5903 27.8628 89.302 27.7624C89.1373 27.7032 89.0446 27.5822 89.0292 27.402C89.006 27.1163 88.9803 26.828 88.9622 26.5422C88.9339 26.0711 88.728 25.8523 88.2595 25.8626C87.8528 25.8704 87.4872 25.7365 87.114 25.6078C86.9209 25.5409 86.8488 25.4122 86.8488 25.2217C86.8488 24.8484 86.8488 24.4752 86.8488 24.1019C86.8463 20.9537 86.8823 17.8055 86.8205 14.6573C86.7922 13.2389 86.8926 11.8205 86.8257 10.4048C86.7587 9.01728 86.8051 7.62981 86.7742 6.2449C86.7665 5.92571 86.8488 5.78155 87.1964 5.78413C87.6546 5.7867 88.1102 5.71462 88.5684 5.71462C88.8026 5.71462 88.8773 5.6271 88.8773 5.41859C88.8773 4.93722 88.8927 4.45843 88.8773 3.97706C88.867 3.68103 88.9519 3.55747 89.2711 3.56519C91.1837 3.61153 93.086 3.4751 94.9832 3.24342C96 3.11986 96.9988 2.88561 97.9924 2.64621C100.502 2.03871 102.948 1.19953 105.447 0.555991C106.189 0.365502 106.948 0.231645 107.715 0.180162C107.79 0.175014 107.869 0.180162 107.936 0.15442C108.492 -0.0412164 109.074 -2.96864e-05 109.641 0.0154153C110.657 0.0463053 111.682 -0.0643839 112.691 0.182736C113.63 0.414411 114.598 0.494211 115.523 0.813407C116.194 1.04766 116.9 1.18666 117.595 1.34883C118.323 1.51616 119.01 1.82248 119.734 1.99238C120.522 2.18029 121.309 2.39395 122.11 2.49949C123.67 2.70285 125.217 3.01175 126.805 3.0169C127.837 3.0169 128.87 3.08382 129.904 3.0066C130.496 2.96284 130.831 3.30263 130.826 3.96676C130.823 4.27824 130.952 4.54595 131.009 4.83683C131.045 5.02475 131.197 5.10969 131.392 5.10969C131.681 5.10969 131.969 5.10969 132.257 5.11484C132.571 5.12257 132.726 5.27444 132.844 5.58592C133.091 6.23203 132.996 6.87557 132.97 7.52941C132.955 7.92069 133.024 8.31453 133.019 8.70838C132.986 10.9222 133.117 13.136 133.096 15.3523C133.091 15.8182 133.078 16.2764 133.035 16.7398C132.986 17.2701 133.099 17.8003 133.145 18.3306C133.264 19.6846 133.204 21.0386 133.189 22.3927C133.181 23.0619 133.127 23.7312 133.186 24.4031C133.23 24.8999 132.878 25.2474 132.376 25.2809C132.1 25.2989 131.822 25.3221 131.547 25.3504C131.297 25.3761 131.06 25.7056 131.034 26.0711C131.022 26.2307 131.009 26.3955 131.034 26.5499C131.127 27.1188 130.744 27.3145 130.278 27.4766C129.956 27.5899 129.606 27.5822 129.266 27.4947C129.073 27.4458 128.936 27.5101 128.823 27.6646C128.633 27.9297 128.651 28.0301 128.952 28.1742C130.136 28.7431 131.297 29.3584 132.342 30.1589C133.138 30.7664 133.972 31.3327 134.654 32.0767C135.125 32.5889 135.526 33.1527 135.864 33.7628C135.902 33.8323 135.995 33.9172 135.907 33.9893C135.82 34.0588 135.761 33.9481 135.696 33.8992C135.215 33.5388 134.661 33.3406 134.087 33.2196C133.014 32.9931 131.946 32.7228 130.834 32.7794C130.749 32.7846 130.661 32.7769 130.579 32.7949C130.44 32.8232 130.399 32.8953 130.504 33.0163C130.916 33.495 131.23 34.0356 131.521 34.5916C132.098 35.6857 132.504 36.8363 132.674 38.0642C132.736 38.5147 132.787 38.9677 132.718 39.4439L132.723 39.4414ZM95.2406 19.3294C96.6693 19.3757 97.7865 18.5185 98.2189 17.3782C98.4764 16.6986 98.1881 15.8157 97.6114 15.5299C96.8932 15.1747 95.7658 15.3781 95.202 15.9598C95.0347 16.1323 94.924 16.3331 95.0192 16.5647C95.1145 16.7938 95.3513 16.7527 95.5521 16.7655C95.7915 16.7784 95.9871 16.7089 96.0283 16.4463C96.103 15.9856 96.7465 15.7281 97.179 15.8054C97.6964 15.898 97.9873 16.2481 98.0027 16.7887C98.013 17.113 97.8869 17.3936 97.735 17.6639C97.3257 18.3976 96.3398 18.9175 95.6216 18.7863C94.7901 18.6344 94.1749 17.9934 94.0333 17.113C93.8557 16.0036 94.664 14.786 95.4466 14.2737C95.5804 14.1862 95.704 14.2222 95.8404 14.2712C96.3681 14.4513 96.901 14.5003 97.4364 14.302C97.6861 14.212 97.9306 14.0832 97.9512 13.7924C97.9718 13.5272 97.7453 13.3805 97.5445 13.2621C97.2511 13.0896 96.919 13.0639 96.5843 13.0664C96.417 13.0664 96.3038 13.0278 96.2651 12.8348C96.0772 11.9055 96.7491 10.6647 97.6372 10.3147C98.1443 10.1165 98.5948 10.3301 98.7878 10.8424C98.986 11.3649 98.847 11.8308 98.551 12.2607C98.3966 12.4847 98.4532 12.6031 98.6823 12.6983C99.2769 12.948 99.6811 12.6958 99.7094 12.0522C99.7171 11.8592 99.6965 11.6687 99.6347 11.4859C99.3207 10.5489 98.6952 9.93111 97.717 9.76122C96.7594 9.59389 95.9357 9.92339 95.323 10.6699C94.7284 11.3958 94.5559 12.2453 94.7593 13.1668C94.7979 13.3367 94.8519 13.4938 94.6228 13.5916C94.0102 13.8541 93.5237 14.2866 93.135 14.8169C92.6073 15.5376 92.2906 16.3356 92.4708 17.2418C92.7282 18.5366 93.8145 19.3371 95.2381 19.3191L95.2406 19.3294ZM107.591 13.2518C107.555 13.6199 107.71 14.0421 108.034 14.3973C108.232 14.6109 108.613 14.6238 108.889 14.4436C109.169 14.2583 108.925 14.0832 108.866 13.9211C108.732 13.5658 108.649 13.2029 108.704 12.8245C108.876 11.6095 109.507 10.6699 110.523 10.0161C111.893 9.13312 113.546 9.61449 114.153 11.038C114.856 12.6855 113.723 14.9585 111.965 15.427C111.738 15.4887 111.509 15.5376 111.283 15.5969C111.19 15.6226 111.087 15.6561 111.092 15.7796C111.098 15.88 111.18 15.9263 111.26 15.9521C111.556 16.0473 111.854 16.1117 112.171 16.0859C113.489 15.9753 114.48 15.3085 115.219 14.2506C115.888 13.2904 116.071 12.2273 115.548 11.1616C114.82 9.67627 113.309 9.06104 111.823 9.19232C110.65 9.29786 109.679 9.87963 108.832 10.6622C108.114 11.3237 107.61 12.114 107.591 13.2544V13.2518ZM103.321 16.4772C103.321 16.6162 103.334 16.7552 103.321 16.8917C103.267 17.3833 103.069 17.7952 102.631 18.0578C102.345 18.2302 102.042 18.0989 101.962 17.7746C101.849 17.3164 101.936 17.1877 102.412 17.1336C102.562 17.1156 102.657 17.0641 102.659 16.902C102.662 16.7243 102.562 16.6574 102.397 16.6523C102.255 16.6471 102.121 16.6574 101.998 16.7398C101.702 16.938 101.571 17.4194 101.689 17.875C101.789 18.2637 102.036 18.4671 102.443 18.4928C102.832 18.516 103.172 18.3692 103.501 18.1839C104.17 17.8081 104.636 17.2263 105.082 16.6214C105.239 16.4077 105.383 16.1812 105.524 15.9547C105.594 15.844 105.653 15.6972 105.506 15.6174C105.383 15.5531 105.334 15.7024 105.275 15.7822C105.071 16.0679 104.876 16.3614 104.667 16.6445C104.618 16.714 104.595 16.8531 104.466 16.8041C104.379 16.7681 104.394 16.6548 104.397 16.5725C104.425 15.8311 104.137 15.1927 103.73 14.6084C103.532 14.3252 103.445 14.1064 103.663 13.7846C103.797 13.589 103.823 13.3084 103.581 13.1179C103.383 12.9635 103.022 13.0124 102.819 13.226C102.585 13.4757 102.492 13.7666 102.598 14.109C102.652 14.2789 102.744 14.4642 102.654 14.6367C102.314 15.3008 102.011 15.9856 101.504 16.5467C101.447 16.6085 101.39 16.6935 101.292 16.6651C101.182 16.6342 101.213 16.5261 101.213 16.4463C101.218 15.7719 101.012 15.1592 100.626 14.6187C100.374 14.266 100.289 13.9468 100.528 13.5375C100.706 13.2338 100.484 12.948 100.124 12.9352C99.7763 12.9223 99.452 13.2157 99.4108 13.5839C99.3928 13.7538 99.3979 13.9288 99.4597 14.0884C99.5678 14.3664 99.4983 14.6032 99.3387 14.84C99.2306 14.9971 99.1456 15.1721 99.0581 15.342C99.0221 15.4089 99.0118 15.4939 99.0916 15.5428C99.1714 15.5917 99.2357 15.5428 99.2821 15.4784C99.3747 15.3497 99.4623 15.2159 99.5524 15.082C99.609 14.9971 99.627 14.8606 99.7634 14.8761C99.9153 14.8941 99.9102 15.0383 99.9411 15.1489C100.052 15.5402 100.119 15.9392 100.157 16.3434C100.224 17.0487 99.9102 17.7411 99.4262 17.9728C99.2486 18.0578 99.0761 18.0835 98.9243 17.9316C98.7055 17.7154 98.7183 17.4528 98.7981 17.1851C98.8651 16.9637 99.0298 17.0281 99.192 17.0461C99.3644 17.0641 99.5421 17.0024 99.5369 16.8067C99.5318 16.6085 99.367 16.521 99.1688 16.5441C99.0864 16.5544 99.0066 16.5931 98.932 16.6342C98.4867 16.8736 98.4635 17.2855 98.5098 17.718C98.5536 18.1401 98.9423 18.4542 99.3619 18.4027C99.712 18.3589 100.062 18.2817 100.358 18.0784C101.205 17.4914 101.851 16.7243 102.356 15.8311C102.492 15.5891 102.618 15.3446 102.749 15.1C102.786 15.0357 102.816 14.9559 102.904 14.9533C103.002 14.9533 103.007 15.0486 103.038 15.1103C103.251 15.5402 103.336 15.9959 103.316 16.4746L103.321 16.4772ZM121.422 14.9147C121.428 14.3484 121.263 14.1785 120.815 14.1502C120.439 14.127 120.097 14.2222 119.778 14.4153C119.119 14.8117 118.743 15.4347 118.382 16.0859C117.942 16.8788 117.469 17.6536 116.611 18.0886C116.357 18.2174 116.086 18.3589 115.829 18.1736C115.564 17.9857 115.618 17.6613 115.618 17.3756C115.618 17.3138 115.646 17.252 115.654 17.1877C115.685 16.9277 115.811 16.7835 116.079 16.7012C116.532 16.5622 116.923 16.2919 117.26 15.9572C117.564 15.6535 117.829 15.3163 117.934 14.8864C118.066 14.3587 117.803 14.024 117.26 14.024C116.709 14.024 116.256 14.2531 115.855 14.6238C115.108 15.3163 114.735 16.1992 114.555 17.1722C114.38 18.1092 115.116 18.8171 116.045 18.6369C116.781 18.4954 117.278 17.9934 117.765 17.4811C117.829 17.4142 117.875 17.2958 117.986 17.3318C118.122 17.3756 118.074 17.5017 118.068 17.6073C118.048 18.1453 118.31 18.5185 118.812 18.709C119.433 18.9433 119.966 18.7167 120.419 18.3512C121.147 17.7643 121.703 17.0178 122.151 16.1966C122.195 16.1168 122.28 16.0036 122.177 15.9392C122.04 15.8568 121.997 16.0087 121.958 16.0962C121.698 16.6677 121.283 17.1336 120.869 17.5893C120.545 17.9445 120.169 18.2482 119.669 18.3435C119.394 18.395 119.155 18.2766 119.124 18.0397C119.088 17.754 119.093 17.4631 119.137 17.1774C119.16 17.0152 119.26 16.9097 119.42 16.8659C119.816 16.7527 120.161 16.5313 120.486 16.2919C120.987 15.9186 121.332 15.4321 121.42 14.9147H121.422ZM108.559 17.7411C108.559 17.8801 108.559 18.0191 108.624 18.1479C108.752 18.4156 108.976 18.5031 109.254 18.4825C109.463 18.4671 109.584 18.3486 109.615 18.1427C109.692 17.6099 109.913 17.1233 110.119 16.6317C110.727 15.1876 111.401 13.7743 111.893 12.2839C111.993 11.9801 112.071 11.6687 112.109 11.3521C112.148 11.02 111.934 10.7651 111.584 10.7059C111.136 10.6313 110.982 10.7343 110.881 11.1255C110.799 11.4447 110.709 11.7639 110.588 12.0702C109.949 13.674 109.27 15.2622 108.74 16.9045C108.652 17.1774 108.567 17.4528 108.557 17.7437L108.559 17.7411ZM124.898 16.9946C124.898 17.1002 124.905 17.2083 124.898 17.3138C124.854 17.7669 124.697 18.1633 124.329 18.4542C124.149 18.5958 123.945 18.6447 123.734 18.5314C123.575 18.4465 123.441 17.9651 123.5 17.736C123.572 17.4631 123.791 17.597 123.953 17.579C124.056 17.5687 124.177 17.6021 124.226 17.4683C124.257 17.3859 124.246 17.2984 124.187 17.2263C124.097 17.1156 123.976 17.0873 123.842 17.1208C123.448 17.216 123.191 17.6897 123.24 18.2277C123.278 18.6498 123.567 18.9175 124.002 18.9356C124.483 18.9561 124.905 18.7837 125.284 18.5108C126.064 17.9445 126.607 17.1645 127.137 16.3768C127.202 16.2816 127.307 16.1323 127.147 16.0422C126.998 15.9598 126.923 16.1168 126.854 16.2172C126.633 16.5441 126.419 16.8736 126.198 17.2006C126.159 17.2572 126.118 17.3499 126.028 17.3061C125.963 17.2752 125.979 17.1928 125.984 17.1336C126.02 16.3846 125.757 15.7256 125.348 15.1258C125.124 14.7989 124.993 14.5234 125.261 14.1605C125.374 14.0086 125.356 13.8104 125.227 13.6508C125.096 13.4886 124.916 13.4783 124.73 13.5092C124.506 13.5478 124.342 13.6765 124.239 13.8799C124.138 14.0781 124.097 14.2892 124.177 14.5003C124.316 14.8735 124.267 15.2056 124.017 15.5145C123.937 15.6123 123.881 15.7307 123.822 15.844C123.783 15.9186 123.726 16.0061 123.822 16.0731C123.901 16.1297 123.986 16.0808 124.056 16.0267C124.203 15.9083 124.27 15.7359 124.36 15.5814C124.396 15.5196 124.409 15.4244 124.501 15.4295C124.591 15.4347 124.609 15.5274 124.635 15.5917C124.815 16.0422 124.918 16.5081 124.905 16.9946H124.898ZM123.536 13.5761C123.531 13.4629 123.536 13.3856 123.523 13.3136C123.464 13.0201 123.227 13.0047 123.003 13.0072C122.74 13.0124 122.771 13.2209 122.802 13.3856C122.882 13.8181 122.71 14.1759 122.496 14.5286C122.434 14.6341 122.272 14.75 122.416 14.8915C122.54 15.0099 122.681 14.925 122.797 14.8503C123.273 14.544 123.479 14.0832 123.536 13.5761Z" fill="white"/>
<path d="M121.113 14.8141C121.082 15.0381 120.954 15.2492 120.827 15.4577C120.567 15.8901 120.192 16.1939 119.736 16.405C119.679 16.4307 119.62 16.4848 119.561 16.4436C119.481 16.3895 119.515 16.3046 119.548 16.2402C119.834 15.6559 120.127 15.0767 120.642 14.6494C120.74 14.567 120.856 14.4975 120.992 14.5516C121.098 14.5928 121.118 14.6854 121.116 14.8141H121.113Z" fill="white"/>
<path d="M117.609 14.7293C117.522 15.1747 117.249 15.5582 116.896 15.8929C116.703 16.0782 116.451 16.1812 116.222 16.315C116.168 16.3459 116.103 16.3794 116.044 16.3305C115.985 16.279 116.005 16.2069 116.034 16.1528C116.361 15.5453 116.662 14.9172 117.241 14.4951C117.323 14.4333 117.421 14.3535 117.532 14.4179C117.63 14.4745 117.594 14.5878 117.606 14.7293H117.609Z" fill="white"/>
</g>
<defs>
<clipPath id="clip0_8099_11205">
<rect width="50.9479" height="40" fill="white" transform="translate(85)"/>
</clipPath>
</defs>
</svg>
