<svg width="220" height="40" viewBox="0 0 220 40" fill="none" xmlns="http://www.w3.org/2000/svg">
<g clip-path="url(#clip0_8105_5925)">
<path fill-rule="evenodd" clip-rule="evenodd" d="M115.291 15.7778C115.012 15.7458 114.668 15.6782 114.404 15.6234C114.134 15.567 114.091 15.6571 113.956 15.5717C113.848 15.5031 113.678 15.4973 113.536 15.4712C113.24 15.4172 112.951 15.3648 112.65 15.3149C112.449 15.2817 112.366 15.2552 112.336 15.0365C112.313 14.8553 112.274 14.6752 112.235 14.4907C112.127 13.9881 112.082 13.419 112.066 12.9195L112.085 11.4837C112.103 11.1577 112.144 10.8959 112.169 10.573C112.237 9.70529 112.333 9.53919 112.457 8.8071L112.863 7.13414C112.99 6.7411 113.053 6.28133 113.219 5.89129C113.279 5.75038 113.297 5.63443 113.339 5.48362C113.436 5.14238 113.48 5.00276 113.62 4.69663C113.765 4.3808 113.777 4.28786 113.966 3.94816C114.055 3.78745 114.067 3.67988 114.126 3.54692C114.175 3.43892 114.315 3.23196 114.321 3.18764C114.333 3.08114 114.244 2.78984 114.549 2.89117C114.701 2.94195 114.707 3.14977 114.609 3.2496C114.556 3.30295 114.57 3.27154 114.527 3.3335C114.382 3.5381 114.33 3.74915 114.229 3.97763C114.173 4.10521 114.092 4.21213 114.032 4.33627L113.7 5.11143C113.619 5.36376 113.568 5.68733 113.477 5.93629C113.421 6.08857 113.375 6.16905 113.335 6.32933C113.262 6.62514 113.22 6.8861 113.123 7.16043C113.026 7.43624 112.996 7.72624 112.916 7.99581C112.749 8.56033 112.664 9.12809 112.534 9.70252C112.444 10.1003 112.362 11.049 112.328 11.4979C112.281 12.1323 112.329 12.8362 112.42 13.498C112.45 13.7116 112.537 14.9095 112.633 15.0345C112.694 15.1141 112.946 15.1382 113.059 15.135C112.666 14.393 112.677 12.6142 112.699 11.7513C112.707 11.4677 112.765 11.2459 112.776 10.9682C112.786 10.7367 112.796 10.4355 112.83 10.1934C112.849 10.0603 112.858 9.95486 112.878 9.81781C112.897 9.67905 112.932 9.58114 112.951 9.46091C112.973 9.32643 112.978 9.2109 112.993 9.08309C113.009 8.95681 113.037 8.84605 113.052 8.71481C113.084 8.43686 113.184 8.27462 113.223 7.99214C113.314 7.34695 113.339 7.41729 113.487 6.94357C113.589 6.61652 113.649 6.22543 113.788 5.91776C113.891 5.688 113.923 5.46081 114.015 5.23062C114.145 4.90357 114.282 4.59573 114.396 4.2543C114.458 4.06971 114.667 3.76443 114.617 3.59533C114.575 3.45312 114.668 3.37115 114.824 3.34964C114.94 3.40127 115.039 3.54369 114.917 3.67493C114.806 3.79605 114.779 3.8081 114.725 3.95848L114.382 4.9589C114.341 5.07657 114.287 5.17748 114.251 5.282C114.17 5.5131 114.143 5.74219 114.05 5.96529C113.959 6.18624 113.902 6.42033 113.833 6.6589C113.698 7.12471 113.574 7.59024 113.505 8.07348C113.467 8.334 113.337 8.53948 113.352 8.79743C113.438 8.70105 113.448 8.54224 113.475 8.41919C113.553 8.05171 113.735 7.72643 113.812 7.35833C113.872 7.07629 113.971 6.91452 114.058 6.64429C114.137 6.39967 114.192 6.18195 114.27 5.92829C114.314 5.78633 114.375 5.71186 114.421 5.5789C114.46 5.46319 114.462 5.33667 114.502 5.20586L114.751 4.51311C114.802 4.42469 114.818 4.44943 114.836 4.358C114.848 4.30034 114.853 4.22246 114.879 4.16953C115.009 3.91072 115.586 4.17707 115.365 4.43243C115.281 4.52882 115.052 4.52473 114.921 4.58024L114.734 5.15876C114.661 5.35171 114.669 5.53824 114.583 5.73876C114.393 6.18538 114.375 6.41648 114.22 6.86052C114.143 7.08338 114.076 7.16814 114.021 7.42976C113.937 7.8269 113.745 8.15714 113.668 8.55862C113.625 8.78086 113.483 9.02867 113.481 9.12186L113.89 8.44609C114.015 8.20405 114.16 8.01819 114.301 7.77852C114.341 7.71138 114.38 7.62167 114.419 7.54338C114.468 7.4459 114.494 7.42462 114.555 7.33895C114.657 7.19676 114.737 7.02338 114.815 6.88462C114.892 6.74843 115.015 6.59695 115.079 6.45195L115.635 5.57871C115.59 5.39409 115.566 5.30162 115.647 5.15038C115.773 5.09486 115.942 5.10367 116.023 5.16329C116.204 5.29771 116.302 5.62948 115.883 5.70329C115.688 5.73748 115.719 5.76243 115.653 5.90419C115.601 6.01543 115.537 6.07329 115.471 6.17571C115.336 6.3831 115.282 6.54638 115.153 6.748C115.088 6.8491 115.041 6.89533 114.984 7.00895C114.921 7.13371 114.906 7.1789 114.825 7.29552L114.649 7.57133C114.54 7.72795 114.486 7.91619 114.326 8.121C114.175 8.31462 114.123 8.51129 114.005 8.69176C113.926 8.8131 113.708 9.09452 113.697 9.25976C113.877 9.14786 114.144 8.78495 114.34 8.60957C114.407 8.55 114.454 8.52162 114.524 8.45619C114.753 8.243 114.834 8.09281 115.163 7.83252C115.322 7.70643 115.486 7.49452 115.626 7.35167L116.264 6.72648C116.245 6.56833 116.228 6.46743 116.392 6.41495C116.701 6.31619 116.891 6.6531 116.714 6.85295C116.601 6.9799 116.524 6.89019 116.403 6.86781C116.324 6.93 116.262 6.99 116.21 7.05995C116.159 7.12943 116.105 7.17395 116.036 7.24129C115.788 7.48633 115.579 7.75743 115.304 7.97857C115.022 8.20405 114.852 8.48052 114.569 8.71414C114.274 8.95705 114.111 9.20014 113.828 9.44843C113.756 9.51233 113.688 9.55557 113.613 9.62248C113.489 9.73243 113.457 9.72552 113.46 9.81286C113.537 9.82276 113.528 9.7931 113.587 9.74448L114.009 9.46605C114.276 9.3101 115.026 8.88671 115.211 8.749C115.871 8.25805 115.786 8.38433 116.38 8.03129C116.63 7.88286 116.695 7.89338 116.734 7.71333C116.744 7.66533 116.761 7.60767 116.797 7.57776C117.119 7.31381 117.564 8.05709 117.03 8.14081C116.858 8.16748 116.856 8.10486 116.763 8.01019C116.664 8.06205 116.517 8.18362 116.415 8.24624C116.293 8.32043 116.141 8.38586 116.016 8.46095C115.753 8.61862 115.551 8.77029 115.334 8.94133C114.91 9.27652 114.265 9.51105 113.874 9.85333C114.079 9.85029 114.307 9.79867 114.529 9.77328C115.121 9.70595 115.761 9.63086 116.348 9.6511C116.522 9.65709 116.785 9.62333 116.972 9.61686C117.351 9.60376 117.289 9.46286 117.542 9.43638C117.791 9.41033 117.907 9.63624 117.748 9.78919C117.588 9.94367 117.405 9.97833 117.275 9.809C116.725 9.92819 116.188 9.88814 115.641 9.92067C115.094 9.95314 114.524 10.0192 113.973 10.1199C114.02 10.2352 114.03 10.3008 114.146 10.312C114.228 10.32 114.348 10.3118 114.438 10.3109C114.982 10.3062 115.435 10.5013 116.026 10.5429C116.311 10.5629 116.795 10.6581 117.066 10.727C117.243 10.7724 117.427 10.7664 117.606 10.7883C117.775 10.8092 117.913 10.5917 118.115 10.7713C118.188 10.9387 118.131 11.1248 117.999 11.1827C117.702 11.3124 117.681 11.0837 117.611 11.0306C117.499 10.995 117.324 10.9996 117.195 10.9873C116.783 10.949 116.435 10.8042 116.013 10.7801C115.385 10.7446 114.808 10.5063 114.41 10.528C114.562 10.6812 115.128 10.8217 115.319 10.9355C115.5 11.0435 115.524 11.1063 115.728 11.1764C115.983 11.2642 115.937 11.2545 116.146 11.4015C116.297 11.508 116.405 11.508 116.59 11.5863C116.886 11.7121 117.149 11.8937 117.454 11.991C117.651 12.0538 117.744 12.1179 117.901 12.1846C118.035 12.1058 118.116 12.0647 118.241 12.1805C118.456 12.3803 118.151 12.7319 117.92 12.6357C117.855 12.6084 117.852 12.5598 117.821 12.48C117.75 12.2932 117.291 12.2 117.096 12.1026C116.91 12.0097 116.719 11.8946 116.524 11.8143C116.415 11.7691 116.304 11.7431 116.21 11.7011C116.104 11.6538 116.033 11.5886 115.941 11.5149C115.764 11.373 115.531 11.3541 115.357 11.2134C115.153 11.0478 115.05 11.0561 114.755 10.9432C114.587 10.8791 114.359 10.687 114.171 10.7022C114.185 10.8735 114.277 10.895 114.387 10.9467C114.596 11.0445 114.74 11.1712 114.925 11.3219C115.03 11.4081 115.099 11.427 115.2 11.4968C115.414 11.6446 116.165 12.31 116.445 12.5604L116.706 12.7618C116.872 12.8857 117.037 13.0565 117.216 13.179C117.296 13.2336 117.419 13.29 117.495 13.3496C118.139 13.8506 117.764 13.5632 118.083 13.6445C118.205 13.6757 118.245 13.8013 118.21 13.9487C118.187 14.0472 118.131 14.165 117.967 14.1694C117.809 14.1735 117.798 14.0724 117.743 13.9203C117.704 13.8138 117.594 13.766 117.497 13.6875C117.28 13.5102 117.02 13.3519 116.966 13.3033C116.737 13.0985 116.374 12.836 116.222 12.6721L115.236 11.8104C115.137 11.7362 115.076 11.691 114.969 11.6209C114.788 11.5021 114.638 11.3343 114.452 11.2143C114.399 11.1799 114.229 11.0822 114.174 11.0656L114.09 11.281C114.248 11.4783 114.611 11.7586 114.813 11.9643C114.898 12.051 114.976 12.1009 115.05 12.1736C115.203 12.3249 115.329 12.5344 115.471 12.7016C115.635 12.8941 115.768 12.9825 115.916 13.1949C116.094 13.4498 116.199 13.4619 116.379 13.6873C116.651 14.0275 116.989 14.3551 117.295 14.6307C117.321 14.654 117.392 14.7277 117.416 14.7439C117.492 14.7968 117.831 14.8007 117.646 15.0806C117.588 15.169 117.438 15.229 117.334 15.1559C117.244 15.0924 117.342 14.9726 116.894 14.6242C116.731 14.4971 116.6 14.2852 116.447 14.1355C116.356 14.0464 116.314 13.9948 116.231 13.8947C116.139 13.7837 116.103 13.7388 115.998 13.6505C115.904 13.5716 115.866 13.5451 115.78 13.4134L114.925 12.3743L114.454 11.9223C114.306 11.7857 114.063 11.4976 113.961 11.5C113.9 11.6399 114.068 11.7089 114.248 11.9746C114.367 12.1493 114.497 12.2638 114.605 12.4494C114.887 12.9369 115.185 13.1531 115.318 13.3801C115.518 13.7222 115.751 14.0655 115.982 14.3882C116.095 14.546 116.204 14.7396 116.315 14.9061C116.422 15.0666 116.57 15.195 116.67 15.3583C117.317 15.2357 116.874 16.189 116.556 15.6337C116.477 15.4962 116.424 15.4392 116.335 15.3377C116.174 15.1541 116.054 14.9388 115.909 14.7228C115.766 14.509 115.614 14.3461 115.487 14.1346C115.349 13.904 115.237 13.6862 115.098 13.4556C115.024 13.3328 114.862 13.2314 114.635 12.8973C114.509 12.7114 114.371 12.457 114.203 12.2941C114.031 12.1263 113.952 11.863 113.775 11.701L113.581 11.8268C113.649 11.9357 113.692 12.0348 113.759 12.1388C113.822 12.2364 113.895 12.288 113.959 12.3793L114.682 13.4797C114.894 13.8627 115.796 15.261 115.883 15.4743C115.967 15.6832 115.902 15.6431 116.068 15.7365C116.37 15.9063 116.222 16.0476 116.044 16.2167C116.212 16.5424 116.089 16.6046 115.78 16.7143C115.87 17.2077 115.496 17.1883 115.235 17.2582C115.163 17.5635 114.983 17.5983 114.664 17.5564C114.469 17.5306 114.394 17.8232 113.998 17.5555C113.651 17.6833 113.556 17.6085 113.353 17.3357C113.11 17.3869 112.925 17.3286 112.845 17.077C112.588 17.1263 112.538 17.056 112.444 16.8256C112.264 16.84 112.219 16.7838 112.097 16.716C112.031 16.8073 111.981 16.8755 111.897 16.9727C111.691 17.2083 111.583 17.4781 111.315 17.7049C111.537 18.1732 111.655 18.1175 112.004 19.0508C112.213 19.6106 112.371 20.0748 112.443 20.6858C112.222 20.8209 111.934 21.126 111.993 21.413C112.18 21.348 112.156 21.1755 112.671 21.0414C113.196 20.9048 113.399 21.0771 113.459 20.9674C113.536 20.8235 113.012 20.663 112.911 20.6245C112.859 20.371 112.846 19.8569 112.842 19.5854C112.838 19.2896 112.903 18.9716 112.957 18.6738C112.987 18.5082 113.015 18.3763 113.106 18.2653C113.226 18.1188 113.451 18.1769 113.558 18.2511C113.678 18.3341 113.747 18.4703 113.843 18.5947C113.99 18.7844 114.008 18.8625 114.09 18.9729L114.134 18.8657C114.153 18.8096 114.141 18.8281 114.177 18.7778C114.401 18.4667 114.669 18.7007 114.779 18.7715L114.89 18.6246C115.07 18.4628 115.255 18.4897 115.409 18.6192C115.556 18.525 115.788 18.1512 116.037 18.6005C116.329 18.4748 116.459 18.4453 116.542 18.7883C116.628 18.7528 116.655 18.6618 116.707 18.5805C116.768 18.4854 116.798 18.446 116.855 18.3645L117.553 16.9493C117.627 16.7791 117.702 16.6569 117.779 16.4738C118.017 15.9073 118.122 15.5309 118.265 14.9474C118.454 14.177 118.528 13.4558 118.525 12.646C118.516 10.7653 118.211 9.28062 117.509 7.53886L116.861 5.98186C116.612 5.55438 116.4 5.0361 116.075 4.67597C115.752 4.31755 115.53 3.872 115.225 3.47248C114.818 2.93786 114.943 3.16182 114.594 2.78511C114.477 2.65904 114.42 2.52995 114.265 2.48349C114.144 2.54931 113.46 3.71731 113.321 3.97225C113.039 4.48558 112.794 5.03395 112.535 5.54386C112.349 5.90895 112.169 6.37857 112.003 6.77338C111.834 7.17548 111.447 8.49967 111.355 8.93271C111.063 10.3208 111.062 10.3658 110.96 11.785C110.856 13.242 110.969 13.5124 111.137 14.9794C111.17 15.263 111.505 15.4898 111.736 15.6404C111.864 15.7243 111.939 15.8398 112.071 15.9372C112.503 16.255 112.327 15.9947 112.533 16.2118C112.718 16.4065 112.943 16.46 113.165 16.5926C113.331 16.6911 113.692 16.863 113.974 16.8699C114.313 16.878 114.77 16.7806 114.965 16.5521C115.082 16.4153 115.287 15.9742 115.29 15.7785L115.291 15.7778ZM112.792 15.9857C112.712 15.834 112.82 15.7109 112.937 15.7854C113.069 15.8695 112.945 15.9882 112.792 15.9857ZM113.591 15.8609C113.555 15.7135 113.637 15.6716 113.777 15.6763C113.914 15.9117 113.728 15.9682 113.591 15.8609ZM113.458 16.442C113.294 16.5448 113.228 16.4641 113.281 16.3135C113.39 16.2722 113.344 16.2903 113.453 16.3017L113.458 16.442ZM114.296 16.2869C114.027 16.4136 114.035 16.1491 114.101 16.0904C114.227 15.9794 114.363 16.1057 114.296 16.2869ZM114.874 16.0816C114.783 15.865 114.918 15.8168 115.113 15.8391C115.229 16.0689 115.046 16.1474 114.874 16.0816ZM110.609 16.7623C110.678 16.6093 110.644 16.554 110.939 16.5106C110.891 16.2632 110.987 16.1318 111.253 16.0883C111.189 15.7464 111.267 15.7327 111.6 15.6735C111.492 15.5201 111.223 15.3568 111.107 15.2275L110.638 14.7424C110.558 14.6574 110.504 14.5675 110.433 14.4844C110.36 14.3986 110.277 14.3321 110.202 14.2383C110.043 14.0408 109.907 13.8984 109.797 13.6503C109.671 13.7368 109.675 13.8351 109.485 13.8678C109.313 13.8975 109.202 13.8605 109.136 13.7493C109.09 13.7725 108.832 14.0201 108.663 13.6133L108.399 13.6753C108.427 14.1669 108.743 14.7772 109.023 15.11C109.312 15.4532 109.602 15.8503 109.953 16.1227L110.456 16.5835C110.505 16.6343 110.553 16.7098 110.609 16.7623ZM109.034 14.418C108.828 14.533 108.721 14.2136 109.008 14.2368C109.04 14.3035 109.053 14.3536 109.034 14.418ZM109.749 14.1587C109.884 14.4696 109.374 14.3917 109.619 14.1191L109.749 14.1587ZM109.578 14.7998C109.661 14.7583 109.667 14.7648 109.742 14.7856C109.802 14.9463 109.712 15.0186 109.582 14.9588C109.551 14.8719 109.561 14.863 109.578 14.7998ZM110.431 15.079C110.685 15.0173 110.689 15.277 110.581 15.329C110.5 15.3678 110.42 15.3383 110.389 15.2688C110.352 15.184 110.398 15.1305 110.431 15.079ZM109.727 15.413C109.829 15.3663 109.863 15.379 109.931 15.411C110.03 15.6879 109.634 15.7247 109.727 15.413ZM110.283 15.8701C110.532 15.7772 110.524 16.0085 110.438 16.0672C110.28 16.1743 110.21 16.001 110.283 15.8701ZM108.405 12.827C108.735 12.8877 109.276 13.0733 109.518 13.0669C109.464 12.8351 109.404 12.6177 109.415 12.3831C109.461 11.4262 109.438 12.0923 109.061 11.3326C108.948 11.1046 108.875 10.9613 108.859 10.6866C108.995 10.6719 109.128 10.8088 109.223 10.8903C109.3 10.9563 109.337 10.9617 109.406 10.9985C109.49 11.0439 109.505 11.0753 109.583 11.127L109.664 10.9602C109.789 10.6876 109.703 10.6506 109.502 10.472C109.395 10.3776 109.313 10.3387 109.208 10.2634C109.039 10.1425 109.013 10.0609 108.633 9.79457C108.538 9.72833 108.079 9.31419 107.903 9.20381C107.752 9.10957 107.835 9.11519 107.733 9.09557C107.7 9.17862 107.755 9.22038 107.818 9.31224C108.245 9.9301 108.491 10.1104 108.595 10.8733C108.644 11.2296 108.595 12.0209 108.481 12.3405C108.415 12.5249 108.378 12.5759 108.405 12.8263L108.405 12.827ZM113.684 12.3573C113.578 12.213 113.515 12.0322 113.441 11.8776L112.994 11.9699C113.123 12.2889 113.162 12.2807 113.311 12.4914C113.422 12.6469 113.508 12.8022 113.605 12.977C113.782 13.2928 113.979 13.697 114.178 13.975C114.358 14.2273 114.574 14.7475 114.711 15.0666C114.756 15.1716 114.786 15.286 114.829 15.3818C114.879 15.4932 114.934 15.4698 115.048 15.4874C115.212 15.513 115.455 15.5743 115.604 15.5659C115.561 15.4536 115.419 15.1746 115.353 15.0595C115.166 14.731 114.67 13.9784 114.527 13.7002L113.684 12.3573ZM115.421 16.2961C115.227 16.8871 114.763 17.0551 114.131 17.0841C113.766 17.1005 113.425 16.9632 113.175 16.8262C113.033 16.7481 112.882 16.7025 112.738 16.632C112.504 16.517 112.516 16.4254 112.362 16.3589L112.236 16.533C112.29 16.578 112.3 16.6541 112.414 16.6014C112.532 16.5468 112.4 16.5332 112.615 16.559L112.686 16.871C112.866 16.878 112.748 16.7696 112.957 16.7795C113.089 16.9002 113.015 17.0745 113.139 17.1319C113.326 17.2182 113.314 16.9869 113.506 17.0448C113.565 17.1358 113.546 17.201 113.635 17.2649C113.688 17.3036 113.838 17.3819 113.909 17.2832C113.957 17.218 113.944 17.2098 114.027 17.1649C114.254 17.2855 114.062 17.4305 114.396 17.4226C114.458 17.3006 114.377 17.2855 114.564 17.2268C114.663 17.3653 114.834 17.4316 115.024 17.301C115.045 17.104 114.897 17.1592 114.96 16.9904C115.111 16.8423 115.259 17.1416 115.495 16.9788C115.546 16.9437 115.597 16.8191 115.552 16.7516C115.492 16.6597 115.428 16.7242 115.446 16.5422C115.535 16.4736 115.712 16.5048 115.896 16.4336C115.884 16.2047 115.665 16.2914 115.711 16.1326C115.754 16.0177 115.803 16.0988 115.955 16.0625C116.004 16.0509 116.055 16.0278 116.069 15.9822C116.127 15.7935 115.838 15.8708 115.793 15.8665C115.722 15.86 115.67 15.8445 115.595 15.8377L115.564 15.9026C115.561 15.9104 115.55 15.9523 115.545 15.9687L115.422 16.2963L115.421 16.2961ZM113.017 12.4165C112.99 12.4896 112.995 12.764 113.024 12.8584C113.084 13.0578 113.808 14.4214 113.972 14.837C114.136 15.2516 114.093 15.331 114.299 15.3639C114.371 15.3753 114.423 15.3873 114.484 15.3843C114.397 14.8517 113.993 14.2585 113.781 13.8429C113.638 13.5634 113.176 12.5802 113.017 12.4165ZM113.042 13.3526C112.993 13.4879 113.071 14.0479 113.087 14.2424C113.125 14.7271 113.253 14.8962 113.328 15.1944L113.834 15.2692C113.714 14.8054 113.268 13.8773 113.042 13.3526ZM113.149 10.1829C113.459 10.1978 113.702 10.4516 113.64 10.8529C113.573 11.289 113.509 11.3535 113.03 11.4787L113.002 11.7082C113.762 11.5917 113.615 11.4645 113.861 11.1838C114.066 10.9488 113.946 10.4118 113.752 10.2033C113.68 10.1265 113.294 9.97467 113.18 9.9529C113.148 10.0162 113.146 10.0962 113.149 10.1829ZM110.719 10.38C110.558 10.2791 110.331 10.6016 109.889 10.0981C109.669 9.84795 109.77 9.45424 109.838 9.17948C109.711 9.2509 109.578 9.52071 109.511 9.65152C109.307 10.0512 109.51 10.55 110.01 10.5902C110.188 10.6044 110.647 10.5288 110.719 10.38ZM114.559 20.0148C114.644 20.1837 114.825 20.8071 115.207 20.4769C115.37 20.3362 115.74 19.9578 115.824 19.808C115.658 19.7953 114.748 19.9464 114.559 20.0148ZM115.323 19.5744C115.539 19.5404 115.934 19.5361 116.115 19.4787C116.133 19.4382 116.228 19.2741 116.237 19.2345C115.834 19.182 114.792 19.3694 114.382 19.5262L114.475 19.7515C114.625 19.7506 115.113 19.6078 115.323 19.5744ZM111.149 17.4903C111.336 17.3912 111.571 16.9788 111.73 16.8116C111.853 16.6831 111.907 16.6057 112.016 16.4689C112.117 16.3428 112.23 16.2666 112.212 16.1849C112.212 16.1823 112.21 16.1756 112.209 16.173C112.208 16.17 112.207 16.1634 112.205 16.1601C112.204 16.1569 112.202 16.1498 112.201 16.1464C112.134 15.9796 111.998 16.1322 111.857 16.2733L111.279 16.9153C111.186 17.0237 111.109 17.1844 111.021 17.2537C111.062 17.3451 111.11 17.3946 111.149 17.4903ZM113.064 11.2582C113.29 11.1868 113.394 11.0632 113.416 10.8673C113.441 10.6498 113.28 10.4454 113.121 10.4172L113.064 11.2582ZM108.38 13.1462C108.493 13.1635 108.528 13.2149 108.645 13.2433C108.736 13.2654 108.854 13.2816 108.953 13.3037C109.131 13.3442 109.414 13.3687 109.615 13.3584C109.553 13.2037 109.604 13.2695 109.317 13.2177C108.973 13.1557 108.67 13.0253 108.38 12.9707C108.374 13.0647 108.368 13.0559 108.38 13.1462ZM109.443 11.6506C109.483 11.574 109.499 11.4793 109.516 11.3864C109.559 11.1446 109.359 11.1668 109.081 10.9021L108.956 10.8096C109.002 11.0506 109.252 11.5357 109.443 11.6506ZM109.152 11.2438C109.117 11.1123 109.316 11.0555 109.338 11.1977C109.359 11.3354 109.181 11.3546 109.152 11.2438ZM114.224 19.1986C114.337 19.2027 114.609 19.1002 114.746 19.0699C114.68 18.893 114.572 18.721 114.388 18.795C114.22 18.863 114.265 19.031 114.251 19.1136C114.24 19.1786 114.235 19.1233 114.224 19.1986ZM115.8 18.5607C115.579 18.596 115.526 18.7616 115.542 18.961L115.971 18.9126C115.88 18.802 115.933 18.6846 115.8 18.5607ZM115.365 18.9763C115.319 18.8012 115.288 18.6304 115.077 18.7134C114.947 18.7642 114.93 18.8896 114.941 19.0301L115.365 18.9763ZM111.586 16.1677C111.675 16.1072 111.842 15.9629 111.864 15.8835C111.769 15.8654 111.398 15.7755 111.46 15.9949L111.558 16.1431C111.561 16.1461 111.571 16.1597 111.572 16.1559C111.572 16.1518 111.581 16.1638 111.586 16.1677ZM111.164 16.624C111.259 16.5648 111.362 16.4157 111.422 16.3191C111.356 16.2574 111.252 16.2552 111.148 16.2989C111.083 16.4396 111.117 16.4456 111.164 16.624ZM116.323 18.6732C116.158 18.6999 116.099 18.7825 116.087 18.9092L116.429 18.8705C116.4 18.7887 116.369 18.7231 116.323 18.6732ZM109.599 13.5615L109.225 13.5264C109.25 13.668 109.26 13.7181 109.391 13.7149C109.53 13.7112 109.57 13.6346 109.599 13.5615ZM108.397 13.5449C108.534 13.5193 108.599 13.5053 108.653 13.4255L108.381 13.3143C108.365 13.3859 108.367 13.4702 108.397 13.5449ZM110.933 16.9308C111.001 16.8277 111.04 16.8107 111.056 16.7367C110.858 16.6279 110.721 16.7154 110.892 16.9009C110.918 16.9301 110.913 16.919 110.933 16.9308ZM108.92 13.6899C108.968 13.6488 108.995 13.598 109.002 13.5105C108.947 13.4789 108.893 13.4666 108.832 13.4657C108.845 13.5656 108.848 13.6372 108.92 13.6899ZM114.724 16.5179C114.589 16.6713 114.415 16.5797 114.475 16.4222C114.521 16.3 114.708 16.2421 114.724 16.5179ZM111.148 0.356827C110.693 0.356827 109.69 0.548733 109.342 0.497314C108.994 0.446325 108.579 0.10081 108.405 0.267329C108.231 0.433416 106.786 1.71242 106.532 2.0575C106.278 2.40302 106.211 3.43892 106.198 3.784C106.184 4.12952 106.666 4.58992 106.492 4.78162C106.318 4.97352 106.054 5.2261 106.021 5.34743C105.987 5.46876 105.924 6.48271 106.004 6.59762C106.084 6.71248 106.358 6.91086 106.338 7.03219C106.318 7.15376 106.298 7.4031 106.385 7.51195C106.472 7.62057 106.613 7.66533 106.572 7.84433C106.532 8.02357 106.74 8.04248 106.586 8.18962C106.432 8.33681 106.171 8.61176 106.144 8.75224C106.117 8.89295 106.338 9.14248 106.372 9.37895C106.405 9.61557 106.646 10.3832 106.492 10.5684C106.338 10.7539 106.104 11.2461 106.204 11.3677C106.288 11.4686 106.501 11.711 106.647 11.9148C106.509 12.071 106.388 12.481 106.343 12.7349C106.296 12.997 106.293 13.7805 106.236 14.231C106.179 14.6819 106.333 15.4235 106.339 15.6281C106.346 15.8327 106.132 15.9351 106.042 16.079C105.951 16.223 105.962 17.9843 105.995 18.1188C106.029 18.2532 106.283 18.4832 106.34 18.7102C106.397 18.9374 106.219 19.6245 106.199 19.7715C106.179 19.9186 105.978 20.149 105.965 20.3536C105.952 20.5582 106.46 20.9419 106.648 21.1335C106.835 21.3254 106.547 21.9969 106.547 22.1503C106.547 22.3039 106.708 22.4063 106.848 22.4764C106.989 22.5466 107.269 22.6617 107.47 22.777C107.671 22.8921 108.186 22.9495 108.343 22.9912C108.501 23.0328 108.611 23.1447 108.781 23.2821C108.952 23.4198 109.293 23.6625 109.447 23.6307C109.601 23.5986 110.002 23.1253 110.236 23.1061C110.471 23.087 110.625 23.3234 110.758 23.4385C110.892 23.5536 111.086 23.5857 111.213 23.5792C111.34 23.5728 111.608 23.1765 111.829 23.1442C112.049 23.1124 112.805 23.2466 113.126 23.3361C113.447 23.4256 114.451 23.3873 114.611 23.3746C114.772 23.362 114.906 23.2593 115.093 23.1318C115.28 23.004 115.588 23.0422 115.936 23.0805C116.283 23.1189 116.712 23.2595 116.932 23.3043C117.153 23.3488 117.702 23.1827 117.702 23.1827L118.003 23.0612C118.304 22.9396 118.752 22.8822 118.98 22.6137C119.207 22.3452 119.387 22.0317 119.521 21.8144C119.655 21.597 119.943 21.271 120.043 21.1497C120.143 21.0281 119.909 20.5359 119.755 20.3504C119.602 20.165 119.842 19.3976 119.876 19.1609C119.909 18.9242 120.13 18.6749 120.103 18.5342C120.077 18.3937 119.816 18.1188 119.662 17.9716C119.508 17.8245 119.715 17.8053 119.675 17.6261C119.635 17.4471 119.776 17.4023 119.862 17.2937C119.949 17.185 119.929 16.9353 119.909 16.814C119.889 16.6924 120.163 16.4942 120.243 16.3794C120.324 16.2643 120.26 15.2508 120.227 15.1292C120.194 15.0076 119.929 14.755 119.755 14.5631C119.581 14.3712 120.063 13.911 120.05 13.5656C120.036 13.2205 119.969 12.1846 119.715 11.839C119.679 11.7898 119.618 11.7214 119.54 11.6394C119.529 11.5172 119.542 11.4111 119.6 11.3515C119.787 11.1599 120.296 10.7763 120.282 10.5717C120.269 10.3669 120.068 10.1367 120.048 9.98948C120.028 9.84257 119.851 9.15538 119.908 8.92819C119.965 8.70105 120.219 8.47081 120.252 8.33681C120.286 8.20233 120.296 6.441 120.206 6.29705C120.115 6.15314 119.901 6.05095 119.908 5.84614C119.915 5.64152 120.069 4.89995 120.012 4.449C119.955 3.99828 119.952 3.21496 119.905 2.95292C119.858 2.69066 119.731 2.26232 119.587 2.11839C119.443 1.97468 119.219 1.7348 119.189 1.61001C119.159 1.48523 119.166 0.833148 118.955 0.765809C118.744 0.6989 118.012 0.836371 117.931 0.759786C117.851 0.682981 117.396 0.0500371 117.242 0.00528815C117.088 -0.0396761 116.593 0.21634 116.386 0.235488C116.179 0.254635 115.911 0.305623 115.751 0.395121C115.59 0.484619 115.389 0.523129 115.195 0.465472C115.001 0.40803 114.74 0.094571 114.506 0.190523C114.272 0.286476 114.092 0.471927 114.005 0.555186C113.658 0.885857 111.748 0.356396 111.147 0.356396L111.148 0.356827Z" fill="white"/>
<path d="M94.8712 24.9643C94.84 25.0109 94.6997 25.089 94.4349 25.2136C94.3101 25.3072 94.1856 25.4005 94.0765 25.5253C93.9517 25.6344 93.8426 25.7592 93.7336 25.8994C93.6245 26.0397 93.5154 26.1488 93.4373 26.2579C93.3594 26.367 93.2815 26.4448 93.2346 26.5072C93.2034 26.5539 93.1723 26.6008 93.1723 26.6475C93.1723 26.6942 93.2034 26.7411 93.2813 26.7566L93.3749 26.8033H93.936L96.5857 26.7097C96.9286 26.7097 97.1001 26.5539 97.1001 26.2576C97.1001 25.9459 97.0377 25.6654 96.9131 25.4315C96.7883 25.1977 96.4611 25.0107 95.9312 24.8704C95.8688 24.8704 95.7909 24.8704 95.6819 24.8549C95.5728 24.8394 95.4792 24.8394 95.4323 24.8394C95.3854 24.8394 95.1984 24.8862 94.8712 24.9643ZM102.706 24.7928C102.721 24.824 102.752 24.8552 102.799 24.8706C102.862 24.8862 102.893 24.9018 102.893 24.9018H102.986C103.142 24.9018 103.298 24.9331 103.407 25.0109C103.532 25.0888 103.594 25.1824 103.594 25.276C103.594 25.3695 103.532 25.4629 103.376 25.5565L103.298 25.4629C103.22 25.5877 103.096 25.6656 102.924 25.6968L102.877 25.6032L102.784 25.6344C102.566 25.5253 102.332 25.4786 102.098 25.4786L101.381 25.5098C101.287 25.5098 101.132 25.4944 100.929 25.4786C100.789 26.4605 100.726 27.2398 100.726 27.8011C100.726 28.0192 100.742 28.2531 100.757 28.5336C100.789 28.8142 100.835 29.048 100.898 29.2195C100.96 29.391 101.022 29.5467 101.1 29.7027C101.163 29.843 101.272 29.9987 101.428 30.1392C101.583 30.2797 101.724 30.3888 101.864 30.4512C102.004 30.5135 102.113 30.5914 102.222 30.7005C102.316 30.8096 102.565 30.872 102.986 30.872H103.142C103.235 30.9499 103.282 31.0123 103.282 31.0589C103.282 31.1213 103.251 31.1992 103.173 31.324C103.095 31.4331 103.048 31.5421 103.002 31.62C102.955 31.6979 102.892 31.7915 102.783 31.8851H102.752C102.737 31.8851 102.706 31.8696 102.69 31.8384C102.518 31.8384 102.363 31.8229 102.222 31.776C102.222 31.7863 102.217 31.7915 102.207 31.7915C102.207 31.7915 102.175 31.776 102.144 31.7603C102.098 31.7291 102.066 31.6979 102.035 31.6824C101.988 31.62 101.926 31.5576 101.817 31.4954C101.583 31.4176 101.365 31.2928 101.178 31.137C100.991 30.9813 100.788 30.7474 100.57 30.4669C100.368 30.1708 100.243 29.9056 100.181 29.6719C100.134 29.4226 100.087 29.1263 100.056 28.7836C100.025 28.4407 100.009 28.0665 100.009 27.6769C100.009 27.0223 100.056 26.2897 100.149 25.4948L99.9937 25.4481L99.947 25.5417H99.8379L99.8067 25.4481C98.6377 25.4014 98.0454 25.2923 98.0454 25.1052C98.0454 25.0428 98.0766 24.9804 98.1544 24.9337C98.2323 24.887 98.4505 24.8558 98.7934 24.8558H99.0897L99.4169 24.7777C99.526 24.7465 99.6352 24.6998 99.7598 24.6374C99.8689 24.5751 99.9625 24.4972 100.04 24.4036C100.134 24.2945 100.212 23.9673 100.274 23.3905C100.321 23.0321 100.337 22.6579 100.337 22.2526V21.9407C100.337 21.8471 100.368 21.7068 100.446 21.5353C100.508 21.3484 100.601 21.2081 100.711 21.1145C100.804 21.0054 100.882 20.9588 100.929 20.9588C101.038 20.9588 101.132 20.9743 101.256 21.0212C101.365 21.0523 101.428 21.0835 101.443 21.099C101.459 21.1145 101.474 21.1457 101.49 21.2081C101.521 21.2705 101.536 21.3329 101.568 21.3639V21.3951C101.568 21.4105 101.552 21.4263 101.505 21.4417C101.474 21.4417 101.443 21.4573 101.443 21.473C101.427 21.473 101.427 21.4884 101.412 21.5042C101.412 21.5042 101.365 21.6444 101.303 21.9094C101.24 22.1745 101.178 22.4396 101.131 22.7044C101.084 22.9694 101.053 23.2188 101.038 23.4836C101.006 23.733 100.991 23.9823 100.991 24.2317C100.991 24.5901 101.006 24.793 101.038 24.8397C101.069 24.8709 101.115 24.9021 101.162 24.9021C101.194 24.9021 101.256 24.8866 101.365 24.8554C101.459 24.8242 101.568 24.8087 101.646 24.8087C101.692 24.8087 101.723 24.8087 101.755 24.8242L101.848 25.0112C101.879 25.0112 101.926 25.0266 101.973 25.0266C102.035 25.0266 102.144 24.9954 102.3 24.9175C102.456 24.8552 102.596 24.8085 102.706 24.7928ZM104.382 18.6202C104.428 18.589 104.506 18.5735 104.6 18.5578C104.693 18.5423 104.771 18.5266 104.865 18.5111L105.13 18.4487C105.333 18.4487 105.442 18.6045 105.442 18.9319C105.442 18.9786 105.426 19.1189 105.41 19.3215C105.348 19.6023 105.317 19.9295 105.317 20.3349L105.348 21.4727L105.317 23.1717C105.317 24.216 105.348 24.824 105.41 25.0266C105.473 25.2293 105.582 25.3226 105.738 25.3226C105.8 25.3226 105.94 25.2603 106.159 25.1512C106.377 25.0264 106.564 24.9331 106.704 24.8552C106.844 24.7928 107 24.7304 107.172 24.668C107.343 24.6056 107.515 24.5589 107.671 24.5432L108.107 24.4965C108.247 24.481 108.356 24.481 108.45 24.481H108.59C108.995 24.5746 109.307 24.7304 109.525 24.9799C109.744 25.2138 109.884 25.5098 109.946 25.8683C110.009 26.2267 110.04 26.8502 110.04 27.7075C110.04 28.3464 109.962 29.0166 109.791 29.7182C109.635 30.4197 109.541 30.7937 109.541 30.8406V30.9184C109.541 30.9808 109.557 31.0742 109.604 31.1835C109.635 31.3083 109.666 31.3862 109.666 31.4328C109.525 31.6822 109.354 31.807 109.152 31.807H109.011C108.965 31.807 108.918 31.8224 108.871 31.8382C108.809 31.8536 108.762 31.8536 108.746 31.8536C108.715 31.8536 108.637 31.8224 108.512 31.7446C108.372 31.6667 108.31 31.5888 108.31 31.5107C108.31 31.4795 108.341 31.4172 108.388 31.3081C108.606 30.8718 108.808 30.2638 108.98 29.5C109.151 28.7363 109.245 28.0194 109.245 27.3333V26.8034C109.245 26.2891 109.105 25.8683 108.84 25.5565C108.575 25.2293 108.216 25.0733 107.78 25.0733C107.577 25.0733 107.265 25.1357 106.86 25.2603C106.47 25.3851 106.252 25.5096 106.237 25.6187C106.159 25.6187 106.065 25.6499 105.972 25.6966C105.878 25.759 105.8 25.7902 105.769 25.8056C105.738 25.8056 105.722 25.8523 105.707 25.9147C105.691 25.9771 105.676 26.0238 105.66 26.055C105.598 26.0395 105.551 26.0238 105.535 26.0238C105.504 26.0238 105.457 26.055 105.41 26.1017C105.41 26.1484 105.395 26.2264 105.379 26.2886C105.348 26.3665 105.333 26.7094 105.301 27.3017C105.27 27.9097 105.255 28.3617 105.255 28.6578C105.255 28.9695 105.27 29.2967 105.301 29.6242L105.348 29.9983V30.0138C105.348 30.0762 105.379 30.1698 105.426 30.3257C105.473 30.4815 105.488 30.5751 105.488 30.6218C105.488 30.653 105.473 30.6842 105.457 30.7465C105.426 30.8089 105.41 30.8713 105.41 30.918V30.9335H105.426C105.504 30.9335 105.551 30.9959 105.551 31.1362C105.551 31.1516 105.535 31.1673 105.488 31.2141C105.379 31.2295 105.27 31.2764 105.161 31.3388C105.052 31.4167 104.99 31.4479 104.974 31.4636C104.865 31.4481 104.787 31.4012 104.725 31.3078C104.491 31.2923 104.319 31.2612 104.226 31.2143C104.117 31.1676 104.07 31.0895 104.07 30.9804C104.07 30.9025 104.086 30.8713 104.101 30.8401C104.101 30.8246 104.117 30.8089 104.117 30.7934C104.117 30.778 104.101 30.7623 104.101 30.7311C104.086 30.6844 104.07 30.6532 104.07 30.622C104.07 30.6065 104.086 30.5596 104.133 30.4817C104.398 29.9361 104.538 29.3126 104.538 28.5801L104.491 27.0838C104.491 26.8499 104.491 26.6784 104.507 26.5694C104.304 26.4915 104.211 26.3513 104.211 26.1486C104.211 25.9304 104.335 25.6654 104.569 25.3694C104.585 24.8237 104.585 24.06 104.585 23.0624C104.585 20.5218 104.46 19.2592 104.195 19.2746C104.164 19.1968 104.148 19.1189 104.148 19.0408C104.148 18.7603 104.226 18.6202 104.382 18.6202ZM115.082 24.8862C115.409 24.8394 115.69 24.8083 115.908 24.8083C117.295 24.8083 117.981 25.6656 117.981 27.3955C117.981 28.3464 117.826 29.4529 117.514 30.7156C117.374 31.2612 117.296 31.6196 117.296 31.8065C117.296 31.8532 117.311 31.8844 117.327 31.9313C117.264 32.2431 117.077 32.3988 116.766 32.3988C116.594 32.3988 116.423 32.3522 116.267 32.2431C116.127 32.1495 116.049 32.0404 116.049 31.9313C116.049 31.7599 116.158 31.5572 116.376 31.3078C116.579 31.0585 116.781 30.5753 116.953 29.8425C117.124 29.1257 117.218 28.4086 117.218 27.6761C117.218 26.1798 116.61 25.4315 115.378 25.4315C114.895 25.4315 114.443 25.5251 114.022 25.7275C113.601 25.9302 113.352 26.1484 113.29 26.3822C113.243 26.4289 113.181 26.4758 113.087 26.538C113.009 26.5692 112.962 26.6159 112.947 26.6471C112.931 26.6783 112.916 27.0679 112.869 27.8006C112.822 28.5332 112.807 29.0943 112.807 29.4684V29.8268C112.807 30.0138 112.838 30.1854 112.9 30.3412C112.963 30.497 112.994 30.5906 112.994 30.6218L112.978 30.8868C112.978 31.0583 112.947 31.1829 112.885 31.2922C112.838 31.3857 112.76 31.4324 112.666 31.4324H112.635L112.589 31.5415C112.526 31.526 112.495 31.5103 112.464 31.5103C112.386 31.5103 112.292 31.557 112.183 31.6351H112.152C112.09 31.6351 112.012 31.5727 111.887 31.4324C111.715 31.4324 111.637 31.37 111.637 31.2454C111.637 31.1364 111.669 31.0428 111.747 30.9649C111.809 30.9649 111.887 30.6377 111.981 29.9673C112.059 29.2972 112.105 28.4555 112.105 27.4267C112.105 26.1019 111.996 25.3382 111.794 25.1512L111.778 25.0109C111.778 24.824 111.887 24.6835 112.105 24.6211C112.199 24.6056 112.277 24.5275 112.355 24.4184C112.433 24.3093 112.511 24.247 112.589 24.247H112.604C112.698 24.2315 112.791 24.2158 112.853 24.1691C112.931 24.1379 112.978 24.1224 112.978 24.1224C113.056 24.1224 113.087 24.216 113.087 24.4184C113.087 24.5742 113.056 24.7456 112.994 24.9328C112.931 25.1355 112.9 25.2601 112.9 25.307C112.9 25.3848 112.931 25.4472 112.994 25.5096C113.04 25.5563 113.103 25.5875 113.196 25.5875H113.228C113.383 25.4472 113.446 25.3848 113.461 25.3848H113.493C113.976 25.3848 114.334 25.2913 114.584 25.0886C114.631 25.0886 114.693 25.0731 114.755 25.0574C114.818 25.0419 114.864 25.0419 114.88 25.0419C115.005 24.964 115.067 24.9171 115.083 24.8862H115.082ZM121.12 31.4481C121.12 31.4793 121.011 31.5417 120.793 31.6351C120.574 31.713 120.434 31.7599 120.372 31.7599H120.325C120.278 31.7599 120.216 31.7754 120.138 31.7911C120.06 31.8065 119.998 31.8223 119.967 31.8223C119.873 31.8223 119.78 31.7911 119.702 31.7132C119.639 31.6508 119.592 31.6041 119.592 31.5574C119.592 31.4484 119.608 31.2769 119.655 31.0587C119.702 30.8249 119.764 30.6691 119.857 30.56C119.904 30.2328 119.92 29.6403 119.92 28.7675L119.857 26.0085L119.873 25.5253C119.873 25.4786 119.826 25.3851 119.733 25.2448C119.639 25.1045 119.592 24.9487 119.592 24.7459C119.592 24.6211 119.623 24.5432 119.686 24.4965C119.764 24.4498 119.904 24.3717 120.138 24.2784L120.59 24.0914C120.605 24.0759 120.636 24.0759 120.683 24.0759C120.808 24.0759 120.87 24.2786 120.87 24.6682C120.87 24.8866 120.839 25.4788 120.761 26.4141C120.683 27.3493 120.636 28.0975 120.636 28.6898C120.636 29.017 120.652 29.3288 120.668 29.625C120.683 29.9056 120.699 30.1394 120.714 30.2797C120.745 30.4354 120.792 30.5757 120.854 30.7005C120.995 30.9655 121.073 31.1992 121.073 31.4176C121.088 31.4331 121.104 31.4331 121.119 31.4488L121.12 31.4481ZM120.777 21.7531C120.855 21.8154 120.995 21.8934 121.182 21.9712C121.354 22.0648 121.447 22.1584 121.447 22.2832C121.447 22.3923 121.385 22.517 121.245 22.6416C121.12 22.7663 120.979 22.8285 120.855 22.8285C120.715 22.8285 120.559 22.7507 120.387 22.5792C120.216 22.4077 120.138 22.3142 120.138 22.2832C120.138 22.1896 120.216 22.0805 120.356 21.9557C120.481 21.8154 120.621 21.7531 120.762 21.7531H120.777ZM127.375 30.3414C127.609 30.4817 127.734 30.6844 127.734 30.9337C127.734 31.261 127.656 31.4169 127.469 31.4169H127.406C127.36 31.4169 127.204 31.4481 126.923 31.5105C126.627 31.5572 126.331 31.5884 125.988 31.5884H125.801L125.255 31.6196C125.068 31.6196 124.881 31.6041 124.71 31.5572C124.632 31.526 124.429 31.4481 124.133 31.3545C123.821 31.261 123.619 31.1831 123.494 31.1052C123.385 31.0428 123.245 30.9337 123.073 30.778C122.902 30.6222 122.762 30.4507 122.637 30.2793C122.512 30.1078 122.403 29.9052 122.31 29.7025C122.216 29.4998 122.154 29.2972 122.107 29.0635C122.06 28.8453 122.045 28.6115 122.045 28.3776C122.045 27.6606 122.169 27.0526 122.419 26.5539C122.684 26.0552 123.089 25.6187 123.666 25.2136C123.759 25.1669 123.868 25.0888 124.024 24.9797C124.196 24.8706 124.32 24.8083 124.398 24.7613C124.492 24.7302 124.772 24.6678 125.209 24.5899C125.661 24.4963 126.113 24.4651 126.565 24.4651H126.845C126.939 24.4496 127.048 24.4339 127.157 24.4339C127.391 24.4339 127.515 24.543 127.515 24.7456C127.515 24.7768 127.515 24.8393 127.5 24.9016C127.484 24.9795 127.469 25.0419 127.469 25.0731L127.484 25.6497C127.406 25.6652 127.344 25.6809 127.313 25.6809C127.188 25.6809 127.032 25.6342 126.861 25.5561C126.658 25.3691 126.502 25.2755 126.378 25.2755H126.268C126.206 25.2755 126.066 25.2601 125.848 25.2132C125.63 25.1664 125.427 25.1508 125.255 25.1508C125.13 25.1508 124.959 25.2132 124.756 25.3377C124.694 25.3065 124.647 25.291 124.601 25.291H124.57C124.554 25.291 124.523 25.3065 124.476 25.3534C124.304 25.5092 124.071 25.634 123.775 25.7431C123.556 25.8209 123.369 26.0081 123.214 26.3041C123.058 26.6002 122.902 26.834 122.761 26.9743C122.715 27.3015 122.699 27.5978 122.699 27.8628C122.699 28.4863 122.761 28.9383 122.902 29.2032C123.042 29.4837 123.229 29.733 123.478 29.9512C123.727 30.1695 123.899 30.341 123.993 30.4501H124.211C124.273 30.5904 124.382 30.6683 124.569 30.6683C124.678 30.6683 124.834 30.6837 125.037 30.7306C125.255 30.7773 125.411 30.8085 125.504 30.8085L125.738 30.793H125.91C126.175 30.793 126.377 30.7618 126.502 30.7306C126.642 30.6839 126.798 30.6371 127.001 30.6058C127.188 30.5746 127.312 30.4811 127.375 30.3408L127.375 30.3414ZM97.9886 26.6318C98.0353 26.6785 98.051 26.7254 98.051 26.8033C98.051 26.959 98.0043 27.0683 97.9262 27.1305C97.9417 27.146 97.9417 27.1617 97.9417 27.1772C97.9417 27.2551 97.8326 27.302 97.6144 27.302H97.5054C97.4742 27.302 97.443 27.3174 97.4275 27.3486C97.3963 27.3953 97.3651 27.411 97.3496 27.411C97.3496 27.411 97.3184 27.3955 97.2872 27.3644C97.2405 27.3332 97.1782 27.3176 97.0846 27.302L96.991 27.2084C96.8819 27.2395 96.7728 27.2551 96.6638 27.2551C96.5859 27.2551 96.4768 27.2395 96.3208 27.2238C96.1806 27.2083 96.0715 27.1926 96.0091 27.1926C95.9624 27.1926 95.8376 27.2082 95.6507 27.2393C95.479 27.2705 95.3232 27.286 95.1829 27.286L94.4349 27.2548C94.0296 27.2548 93.6712 27.286 93.3439 27.3639C93.2972 27.3794 93.2349 27.4106 93.1413 27.4106C93.0634 27.4261 93.001 27.473 93.001 27.5353C92.9855 27.6133 92.9386 27.6602 92.8452 27.7068C92.7983 27.9095 92.7671 28.0964 92.7671 28.2679C92.7671 28.3927 92.8138 28.6421 92.8764 29.016C92.9543 29.3901 93.0634 29.6549 93.1882 29.8109C93.2194 29.8421 93.4375 30.0136 93.8428 30.2941C94.0922 30.4968 94.3727 30.6371 94.669 30.7306C94.9807 30.8397 95.3237 30.8864 95.7135 30.8864C95.8692 30.8864 96.0719 30.8709 96.3058 30.8397L96.6175 30.8085H97.1162C97.1629 30.8085 97.2565 30.7618 97.3967 30.6683C97.537 30.5746 97.6773 30.528 97.8175 30.5125C97.88 30.6527 97.9112 30.7775 97.9112 30.8866C97.9112 31.1204 97.8332 31.3229 97.693 31.5101C97.5527 31.6815 97.3812 31.7751 97.1943 31.7751L97.0385 31.7439L96.5553 31.7594H96.15C95.963 31.7594 95.4796 31.6815 94.7316 31.5101C93.9835 31.3543 93.4225 31.136 93.0638 30.8711C92.7052 30.6061 92.4403 30.2634 92.2689 29.8578C92.0974 29.437 92.0195 29.0317 92.0195 28.6421C92.0195 28.1122 92.1286 27.5666 92.3313 27.021C92.5339 26.4754 92.7521 26.0545 93.0171 25.7585C93.2822 25.4625 93.6718 25.1351 94.2017 24.8233C94.2484 24.7921 94.3265 24.7452 94.4356 24.6674C94.5291 24.5894 94.6382 24.5425 94.7316 24.5425L94.9809 24.5581C95.09 24.4802 95.277 24.4333 95.5577 24.3866C95.8383 24.3242 96.0564 24.3087 96.2279 24.3087C96.5396 24.3087 96.8825 24.4178 97.241 24.6516C97.6151 24.8855 97.8332 25.3532 97.9112 26.0858C97.9266 26.2105 97.9578 26.3196 97.9735 26.3975C98.0047 26.4754 98.0202 26.5223 98.0202 26.5223C98.0202 26.5535 98.0047 26.5847 97.989 26.6314L97.9886 26.6318Z" fill="white"/>
<path d="M110.899 34.7258C110.728 34.5732 110.53 34.4715 110.308 34.4143C110.092 34.3633 109.755 34.3379 109.31 34.3379L109.284 34.4016H109.259C109.227 34.4016 109.202 34.3951 109.176 34.3824C109.043 34.516 108.973 35.1074 108.973 36.1567L108.998 37.6958L108.992 37.7212C108.992 37.7528 109.011 37.7722 109.043 37.7847C109.036 37.8356 109.03 37.8675 109.03 37.8928C109.03 38.0454 109.068 38.1217 109.151 38.1217C109.284 38.1217 109.437 38.0901 109.602 38.0327C109.774 37.9755 109.946 37.8928 110.117 37.7782C110.206 37.7209 110.282 37.6767 110.353 37.6448C110.422 37.6194 110.543 37.5112 110.728 37.3333C110.849 37.2186 110.95 37.0979 111.039 36.9707C111.122 36.8372 111.198 36.7037 111.249 36.5575C111.338 36.3413 111.376 36.1885 111.376 36.0997C111.376 35.7879 111.338 35.5147 111.268 35.292C111.198 35.0758 111.078 34.8848 110.899 34.7258Z" fill="white"/>
<path d="M117.365 34.6616C117.314 34.6616 117.212 34.8079 117.06 35.094C116.913 35.3802 116.742 35.6792 116.557 35.978C116.373 36.2833 116.277 36.4677 116.277 36.5376C116.277 36.5821 116.309 36.6138 116.373 36.6329C116.43 36.6521 116.468 36.6583 116.481 36.6583L116.538 36.6519C116.576 36.6519 116.621 36.6583 116.678 36.6646C116.742 36.6772 116.78 36.6837 116.805 36.6837C116.856 36.6837 116.932 36.6772 117.047 36.6583C117.162 36.6392 117.231 36.6329 117.263 36.6329C117.289 36.6329 117.327 36.6391 117.365 36.6456C117.409 36.6521 117.435 36.6583 117.448 36.6583C117.473 36.6583 117.499 36.6456 117.511 36.6138C117.562 36.6329 117.606 36.6392 117.651 36.6392L117.747 36.6329C117.766 36.6329 117.785 36.6329 117.798 36.6392C117.861 36.62 117.918 36.6138 117.982 36.6138C118.122 36.5884 118.192 36.5439 118.192 36.4929C118.192 36.4866 118.077 36.1813 117.836 35.5772C117.594 34.9667 117.441 34.6616 117.365 34.6616Z" fill="white"/>
<path d="M121.322 37.7939C121.315 37.6971 121.296 37.5721 121.262 37.497C121.228 37.4223 121.213 37.3283 121.235 37.238C121.257 37.1472 121.376 37.0254 121.339 36.9163C121.303 36.807 121.233 36.7227 121.201 36.682C121.076 36.5202 121.276 35.6285 121.276 35.348C121.276 35.1358 121.203 34.6672 121.223 34.5046C121.242 34.3424 121.373 34.1488 121.31 34.0674C121.247 33.9861 120.762 33.3117 120.631 33.1929C120.501 33.0741 120.108 33.043 119.977 33.0369C119.846 33.0307 119.672 33.2555 119.599 33.1742C119.526 33.0931 119.43 32.9698 119.384 32.9543C119.338 32.9384 118.954 32.9089 118.91 32.9463C118.867 32.984 118.791 33.112 118.745 33.1025C118.699 33.0931 118.605 33.0838 118.563 33.1243C118.522 33.165 118.505 33.2306 118.437 33.2119C118.37 33.1931 118.362 33.29 118.306 33.2181C118.251 33.1462 118.146 33.0244 118.093 33.012C118.04 32.9995 117.945 33.1025 117.856 33.118C117.766 33.134 117.475 33.2462 117.405 33.1742C117.334 33.1025 117.148 32.993 117.102 33.0401C117.063 33.0791 116.971 33.1783 116.894 33.2467C116.835 33.1821 116.679 33.1258 116.583 33.1047C116.484 33.0828 116.187 33.0815 116.016 33.0548C115.845 33.0281 115.564 33.1002 115.486 33.103C115.408 33.1062 115.37 33.0061 115.315 32.964C115.261 32.9218 114.593 32.9268 114.542 32.942C114.491 32.9578 114.404 33.0765 114.318 33.1032C114.232 33.1297 113.971 33.0468 113.915 33.0374C113.86 33.0281 113.772 32.9345 113.695 32.928C113.617 32.9218 113.472 33.1593 113.399 33.2467C113.361 33.2925 113.273 33.2772 113.189 33.2527C113.135 33.1854 112.973 33.1264 112.873 33.1045C112.774 33.0825 112.477 33.0812 112.306 33.0546C112.135 33.0281 111.854 33.1 111.776 33.103C111.699 33.106 111.66 33.0061 111.605 32.964C111.551 32.9218 110.883 32.9266 110.832 32.942C110.781 32.9578 110.694 33.0765 110.608 33.103C110.521 33.1297 110.261 33.0468 110.205 33.0374C110.149 33.0281 110.062 32.9345 109.985 32.9283C109.907 32.9218 109.762 33.1593 109.689 33.2467C109.666 33.274 109.626 33.2796 109.58 33.2749C109.549 33.2385 109.523 33.2099 109.504 33.1929C109.373 33.0741 108.98 33.043 108.849 33.0369C108.718 33.0307 108.544 33.2555 108.471 33.1742C108.398 33.0929 108.303 32.9696 108.256 32.9541C108.21 32.9382 107.826 32.9087 107.783 32.9461C107.739 32.9838 107.664 33.1118 107.618 33.1023C107.571 33.0929 107.477 33.0836 107.436 33.124C107.394 33.1647 107.377 33.2303 107.31 33.2116C107.242 33.1929 107.235 33.2897 107.179 33.2179C107.123 33.146 107.019 33.0242 106.966 33.0118C106.912 32.9993 106.818 33.1023 106.728 33.1178C106.684 33.1256 106.59 33.157 106.498 33.178C106.413 33.1163 106.255 33.0806 106.112 33.0604C106.053 33.0316 105.996 33.0169 105.974 33.04L105.97 33.0442C105.926 33.0404 105.888 33.038 105.861 33.0367C105.731 33.0305 105.556 33.2553 105.483 33.174C105.411 33.0929 105.315 32.9696 105.269 32.9541C105.223 32.9382 104.838 32.9087 104.795 32.9461C104.751 32.9838 104.676 33.1118 104.63 33.1023C104.584 33.0929 104.489 33.0836 104.448 33.124C104.407 33.1647 104.39 33.2303 104.322 33.2116C104.254 33.1929 104.247 33.2897 104.191 33.2179C104.135 33.146 104.031 33.0242 103.978 33.0118C103.924 32.9993 103.83 33.1023 103.74 33.1178C103.65 33.1338 103.359 33.246 103.289 33.174C103.219 33.1023 103.032 32.9928 102.986 33.04C102.948 33.0789 102.856 33.178 102.779 33.2465C102.719 33.182 102.564 33.1256 102.468 33.1045C102.369 33.0825 102.071 33.0812 101.9 33.0546C101.73 33.0279 101.448 33.1 101.371 33.1028C101.293 33.106 101.254 33.006 101.2 32.9638C101.145 32.9216 100.477 32.9266 100.426 32.9419C100.375 32.9575 100.288 33.0763 100.202 33.103C100.116 33.1294 99.8559 33.0466 99.8 33.0371C99.7442 33.0279 99.6569 32.9343 99.5795 32.9279C99.502 32.9216 99.3566 33.1591 99.2837 33.2465C99.2107 33.334 98.9562 33.1998 98.8979 33.1998C98.8396 33.1998 98.8011 33.2747 98.7746 33.3403C98.748 33.4059 98.7043 33.5371 98.6604 33.6307C98.617 33.7243 98.595 33.965 98.5791 34.0384C98.5636 34.1118 98.521 34.1632 98.4691 34.2428C98.4169 34.3224 98.3248 34.4816 98.3371 34.5537C98.3491 34.6255 98.5285 34.8127 98.5356 34.9222C98.5429 35.0315 98.4532 35.1033 98.4098 35.1657C98.3661 35.2283 98.3541 35.3187 98.3564 35.3781C98.3588 35.4375 98.5089 35.5625 98.521 35.6655C98.5331 35.7686 98.4822 36.1214 98.4482 36.2713C98.4145 36.4213 98.4289 36.8894 98.4336 36.9645C98.4384 37.0396 98.4773 37.1022 98.5259 37.1893C98.5743 37.2769 98.5597 37.4206 98.5453 37.583C98.5309 37.7455 98.4775 37.9453 98.4605 38.0484C98.4435 38.1512 98.5066 38.4075 98.5066 38.4075L98.5528 38.5481C98.5989 38.6887 98.6206 38.8978 98.7223 39.004C98.8243 39.1101 98.9429 39.1944 99.0255 39.257C99.1079 39.3192 99.2314 39.4537 99.2776 39.5004C99.3237 39.5473 99.5104 39.438 99.5808 39.3661C99.6511 39.2943 99.942 39.4068 100.032 39.4223C100.121 39.438 100.216 39.541 100.269 39.5286C100.323 39.5159 100.427 39.3941 100.483 39.3222C100.539 39.2504 100.546 39.3472 100.613 39.3287C100.681 39.31 100.698 39.3754 100.739 39.416C100.781 39.4567 100.875 39.4472 100.922 39.438C100.968 39.4287 101.043 39.5568 101.086 39.594C101.13 39.6316 101.514 39.6019 101.56 39.5864C101.606 39.5707 101.702 39.4472 101.775 39.3661C101.847 39.285 102.022 39.5099 102.153 39.5036C102.284 39.4971 102.676 39.4664 102.807 39.3474C102.826 39.3304 102.852 39.3022 102.883 39.2659C102.929 39.2607 102.97 39.2667 102.992 39.2936C103.065 39.3812 103.21 39.6185 103.288 39.6125C103.365 39.606 103.453 39.5126 103.509 39.503C103.564 39.4937 103.825 39.4111 103.911 39.4376C103.997 39.464 104.084 39.5828 104.135 39.5983C104.186 39.614 104.854 39.6187 104.908 39.5765C104.963 39.5344 105.002 39.4345 105.079 39.4376C105.157 39.4408 105.438 39.5126 105.609 39.486C105.745 39.4649 105.962 39.4595 106.094 39.4472C106.159 39.5333 106.229 39.6161 106.275 39.6125C106.353 39.606 106.44 39.5126 106.496 39.503C106.552 39.4937 106.812 39.4111 106.899 39.4376C106.985 39.464 107.072 39.5828 107.123 39.5983C107.174 39.6142 107.842 39.6187 107.896 39.5765C107.951 39.5344 107.989 39.4345 108.067 39.4376C108.145 39.4408 108.426 39.5126 108.597 39.486C108.767 39.4595 109.064 39.4578 109.164 39.436C109.26 39.415 109.415 39.3586 109.475 39.2943C109.552 39.3622 109.644 39.4619 109.682 39.5008C109.728 39.5475 109.915 39.4384 109.985 39.3663C110.056 39.2945 110.347 39.407 110.436 39.4225C110.526 39.4382 110.62 39.5412 110.674 39.5288C110.727 39.5163 110.831 39.3943 110.887 39.3225C110.943 39.2506 110.95 39.3474 111.018 39.3289C111.086 39.3102 111.103 39.3756 111.144 39.4162C111.185 39.4569 111.28 39.4474 111.326 39.4382C111.372 39.4289 111.447 39.557 111.49 39.5944C111.534 39.632 111.919 39.6021 111.965 39.5867C112.011 39.571 112.106 39.4474 112.179 39.3663C112.252 39.2854 112.426 39.5103 112.557 39.5038C112.688 39.4974 113.081 39.4666 113.212 39.3476L113.227 39.3332C113.293 39.396 113.36 39.4688 113.392 39.5008C113.438 39.5477 113.625 39.4384 113.695 39.3666C113.765 39.2947 114.056 39.4072 114.146 39.4227C114.235 39.4384 114.33 39.5415 114.383 39.529C114.437 39.5163 114.541 39.3945 114.597 39.3227C114.652 39.2508 114.66 39.3476 114.727 39.3291C114.795 39.3104 114.812 39.3758 114.854 39.4165C114.895 39.4571 114.989 39.4477 115.036 39.4384C115.082 39.4291 115.157 39.5572 115.2 39.5944C115.244 39.632 115.628 39.6023 115.674 39.5869C115.72 39.5711 115.816 39.4477 115.889 39.3666C115.961 39.2854 116.136 39.5103 116.267 39.504C116.398 39.4976 116.791 39.4668 116.922 39.3479C116.94 39.3309 116.966 39.3027 116.997 39.2663C117.043 39.2611 117.084 39.2671 117.106 39.294C117.179 39.3816 117.324 39.6189 117.402 39.6129C117.479 39.6064 117.567 39.513 117.622 39.5034C117.678 39.4941 117.939 39.4115 118.025 39.438C118.111 39.4644 118.198 39.5832 118.249 39.5987C118.3 39.6144 118.968 39.6191 119.022 39.577C119.077 39.5348 119.116 39.435 119.193 39.438C119.271 39.4412 119.552 39.513 119.723 39.4864C119.894 39.4599 120.191 39.4582 120.29 39.4365C120.39 39.4145 120.552 39.3551 120.606 39.2882C120.661 39.2211 120.752 39.1166 120.799 39.1024C120.846 39.0884 121.093 39.0914 121.119 38.9931C121.144 38.8945 121.092 38.5529 121.122 38.5152C121.151 38.478 121.391 38.2652 121.408 38.1936C121.425 38.1218 121.327 37.8907 121.32 37.7939H121.322ZM101.056 38.4075C100.999 38.4329 100.948 38.4458 100.909 38.4458H100.89C100.846 38.4458 100.82 38.433 100.801 38.4012C100.604 38.3821 100.502 38.3375 100.502 38.2741C100.502 38.255 100.509 38.2295 100.528 38.2041C100.54 38.1788 100.553 38.1532 100.559 38.1151C100.572 38.0832 100.585 37.9688 100.604 37.7717C100.617 37.5747 100.636 37.2756 100.648 36.875C100.661 36.4742 100.668 36.042 100.668 35.5904L100.623 34.573V34.5666C100.623 34.5474 100.617 34.522 100.598 34.4967C100.579 34.4648 100.572 34.4394 100.572 34.4267C100.572 34.4203 100.591 34.3758 100.623 34.3058C100.661 34.2294 100.725 34.1787 100.814 34.1531C100.903 34.1277 100.948 34.1148 100.96 34.1148C100.98 34.1148 100.999 34.1275 101.005 34.1531C101.011 34.1722 101.018 34.1911 101.03 34.1976C101.075 34.2294 101.094 34.2929 101.094 34.3758C101.094 34.382 101.094 34.4074 101.088 34.4457C101.03 34.7953 101.005 35.1769 101.005 35.5967L101.011 35.832L100.986 37.1166C100.986 37.498 101.011 37.778 101.062 37.9561C101.119 38.1278 101.145 38.255 101.145 38.325C101.145 38.3569 101.113 38.3821 101.056 38.4075ZM106.788 34.3693C106.743 34.5345 106.705 34.7127 106.686 34.9162C106.667 35.1197 106.654 35.355 106.647 35.6285C106.647 35.8955 106.635 36.1309 106.622 36.3217C106.603 36.5188 106.597 36.678 106.597 36.8051L106.603 37.1422L106.597 37.3776C106.597 37.492 106.616 37.6319 106.648 37.7846C106.68 37.9436 106.692 38.0454 106.692 38.0961C106.692 38.217 106.673 38.3124 106.635 38.395C106.597 38.4714 106.552 38.5094 106.501 38.5094C106.419 38.5094 106.285 38.395 106.107 38.1661V38.1026C105.649 37.6319 105.268 37.2059 104.962 36.8245C104.657 36.4428 104.333 36.0422 103.977 35.6225C103.621 35.203 103.436 34.993 103.43 34.993C103.411 34.993 103.392 35.0057 103.366 35.044C103.347 35.0823 103.322 35.2221 103.296 35.4764C103.265 35.7245 103.252 36.0297 103.252 36.3796C103.252 36.7674 103.271 37.2063 103.309 37.696L103.353 37.785V37.855C103.353 37.9249 103.347 37.9632 103.328 37.9821V37.9886C103.328 38.0013 103.341 38.0396 103.36 38.103C103.379 38.1603 103.392 38.2175 103.392 38.2747V38.3128C103.341 38.3892 103.252 38.4275 103.131 38.4275C103.106 38.4275 103.086 38.4083 103.08 38.3765C103.042 38.383 102.978 38.4019 102.896 38.4337C102.87 38.3956 102.858 38.3321 102.858 38.2429C102.858 38.1603 102.87 38.0267 102.902 37.8296C102.921 37.8296 102.94 37.8234 102.947 37.8042C102.953 37.785 102.953 37.7343 102.959 37.6452C102.966 37.5624 102.972 37.4862 102.978 37.4226C102.947 37.3845 102.934 37.3591 102.934 37.3335L102.94 37.3143C102.979 37.289 102.998 37.2442 102.998 37.1807L103.01 36.8118L103.004 36.3159C103.004 36.0997 103.01 35.9469 103.023 35.858C103.042 35.769 103.048 35.7118 103.048 35.6799C103.048 35.6481 103.048 35.5971 103.042 35.521C103.035 35.451 103.029 35.413 103.029 35.4065C103.029 35.2602 103.036 35.1395 103.048 35.0504C103.061 34.9613 103.068 34.8533 103.068 34.7324L103.042 34.6242C103.049 34.5989 103.055 34.5543 103.055 34.478C103.055 34.3826 103.055 34.3062 103.049 34.249C103.061 34.2299 103.08 34.2045 103.106 34.1856C103.131 34.1602 103.144 34.1473 103.157 34.1346C103.163 34.1281 103.176 34.1219 103.182 34.1219C103.182 34.1154 103.214 34.1092 103.265 34.0965C103.303 34.103 103.373 34.1793 103.481 34.3316C103.659 34.6051 103.844 34.8342 104.035 35.0186C104.035 35.0186 104.028 35.025 104.028 35.0313C104.028 35.0567 104.143 35.1902 104.365 35.4383C104.588 35.6799 104.848 35.9917 105.147 36.3604L105.427 36.71C105.523 36.8309 105.624 36.9454 105.72 37.0598C105.815 37.168 105.93 37.295 106.063 37.435C106.197 37.5749 106.273 37.6512 106.292 37.6575C106.318 37.664 106.337 37.6702 106.343 37.6702C106.362 37.6702 106.369 37.6575 106.369 37.6319L106.362 37.4157L106.375 37.0151L106.368 36.4744C106.368 36.2647 106.375 35.9848 106.381 35.635L106.394 35.1771C106.394 35.0562 106.381 34.9863 106.356 34.9545C106.349 34.9418 106.349 34.9291 106.349 34.9099C106.349 34.8908 106.349 34.8654 106.356 34.8336C106.362 34.7953 106.368 34.7763 106.368 34.7636C106.368 34.7445 106.362 34.7318 106.362 34.7253C106.362 34.6937 106.368 34.6554 106.368 34.6044C106.368 34.5534 106.362 34.5154 106.349 34.4835C106.336 34.4519 106.33 34.4071 106.33 34.3564C106.33 34.2929 106.355 34.2355 106.406 34.1974C106.457 34.1593 106.521 34.1401 106.603 34.1401L106.667 34.1466H106.762C106.788 34.1466 106.82 34.1531 106.845 34.172L106.788 34.3693ZM111.699 36.2453C111.661 36.3851 111.604 36.5188 111.533 36.6586C111.464 36.792 111.381 36.9256 111.273 37.0592C111.171 37.1863 111.057 37.3137 110.923 37.4281C110.79 37.549 110.643 37.657 110.484 37.7588C110.325 37.867 110.147 37.9623 109.969 38.045L109.747 38.185L109.473 38.2741C109.333 38.3186 109.263 38.344 109.257 38.344C109.244 38.344 109.225 38.3375 109.2 38.3313C109.187 38.3504 109.168 38.3694 109.136 38.3885C109.111 38.4139 109.091 38.4204 109.085 38.4204H108.996C108.977 38.4584 108.945 38.4903 108.894 38.5157C108.843 38.5348 108.805 38.5475 108.78 38.5475C108.761 38.5475 108.729 38.5475 108.691 38.541C108.646 38.5346 108.614 38.5284 108.589 38.5284H108.57C108.525 38.5284 108.5 38.4839 108.5 38.3823C108.5 38.3696 108.506 38.3313 108.519 38.2741C108.589 37.9051 108.627 37.511 108.627 37.0975L108.614 36.15L108.621 35.215C108.621 34.9734 108.614 34.8017 108.602 34.7C108.589 34.5982 108.582 34.4584 108.582 34.2804C108.582 34.2103 108.589 34.1722 108.595 34.1595C108.627 34.1469 108.64 34.1277 108.64 34.0959H108.748L108.767 34.0449C108.881 34.1085 109.002 34.1401 109.136 34.1401C109.174 34.1401 109.212 34.1339 109.244 34.1275L109.326 34.1148C109.339 34.1148 109.371 34.1212 109.415 34.1275C109.466 34.1339 109.492 34.1401 109.511 34.1401L109.587 34.1275C109.657 34.121 109.721 34.1148 109.791 34.1148C110.007 34.1148 110.191 34.1275 110.338 34.1466C110.484 34.1658 110.56 34.1849 110.56 34.2039C110.586 34.2101 110.605 34.2165 110.611 34.2165C110.624 34.2165 110.656 34.2101 110.7 34.2039C111.031 34.3437 111.292 34.5599 111.476 34.8525C111.66 35.1451 111.749 35.4695 111.749 35.8318C111.749 35.9652 111.731 36.1054 111.699 36.2453ZM113.668 38.4075C113.611 38.4329 113.56 38.4458 113.522 38.4458H113.502C113.458 38.4458 113.433 38.433 113.413 38.4012C113.216 38.3821 113.115 38.3375 113.115 38.2741C113.115 38.255 113.121 38.2295 113.14 38.2041C113.153 38.1788 113.165 38.1532 113.172 38.1151C113.184 38.0832 113.197 37.9688 113.216 37.7717C113.229 37.5747 113.248 37.2756 113.261 36.875C113.273 36.4742 113.28 36.042 113.28 35.5904L113.235 34.573V34.5666C113.235 34.5474 113.229 34.522 113.21 34.4967C113.191 34.4648 113.184 34.4394 113.184 34.4267C113.184 34.4203 113.204 34.3758 113.235 34.3058C113.274 34.2294 113.337 34.1787 113.426 34.1531C113.515 34.1277 113.56 34.1148 113.573 34.1148C113.592 34.1148 113.611 34.1275 113.617 34.1531C113.624 34.1722 113.63 34.1911 113.643 34.1976C113.687 34.2294 113.706 34.2929 113.706 34.3758C113.706 34.382 113.706 34.4074 113.7 34.4457C113.643 34.7953 113.617 35.1769 113.617 35.5967L113.624 35.832L113.598 37.1166C113.598 37.498 113.624 37.778 113.675 37.9561C113.732 38.1278 113.757 38.255 113.757 38.325C113.757 38.3569 113.725 38.3821 113.668 38.4075ZM119.361 38.2995C119.342 38.3249 119.272 38.3504 119.145 38.3885C119.024 38.4268 118.942 38.4522 118.897 38.4714C118.872 38.433 118.853 38.4014 118.853 38.3631C118.853 38.3315 118.859 38.2997 118.865 38.2551L118.884 38.2106C118.884 38.1405 118.846 38.0006 118.776 37.7909C118.706 37.5747 118.592 37.3077 118.427 36.9768C118.414 36.9705 118.395 36.9451 118.376 36.9069C118.363 36.8688 118.318 36.8496 118.248 36.8496C118.204 36.8496 118.166 36.8688 118.134 36.9069C118.128 36.8942 118.083 36.8752 118 36.8623L117.905 36.837H117.816C117.606 36.837 117.46 36.8496 117.377 36.8688C117.294 36.8942 117.25 36.9069 117.25 36.9069C117.218 36.9069 117.193 36.8877 117.18 36.8623C117.053 36.8942 116.957 36.9069 116.894 36.9006C116.837 36.8942 116.773 36.888 116.716 36.888C116.576 36.888 116.449 36.9006 116.334 36.9325C116.22 36.9708 116.144 36.9835 116.105 36.9835C116.074 36.9835 116.042 37.0153 116.01 37.0663L115.966 37.0344C115.756 37.4733 115.597 37.8167 115.495 38.0648C115.482 38.2173 115.45 38.3509 115.4 38.4589C115.342 38.5736 115.298 38.6243 115.253 38.6243H115.247C115.177 38.599 115.031 38.5607 114.815 38.5226C114.783 38.5161 114.764 38.4972 114.764 38.4653C114.764 38.3954 114.802 38.332 114.872 38.2745C114.948 38.2173 114.986 38.1728 114.999 38.1409C115.062 38.0138 115.126 37.9247 115.183 37.8739C115.259 37.7849 115.355 37.6388 115.463 37.4352C115.577 37.2317 115.673 37.0919 115.743 37.022C115.743 36.9329 115.844 36.7356 116.042 36.4368C116.233 36.1315 116.404 35.8516 116.544 35.591C116.69 35.3303 116.767 35.184 116.786 35.1649C117.072 34.7516 117.218 34.4717 117.218 34.3254V34.3127C117.269 34.3127 117.288 34.3 117.288 34.2811V34.2492C117.288 34.1729 117.339 34.0902 117.441 34.0012L117.485 34.0203C117.543 33.9504 117.581 33.9188 117.612 33.9188C117.651 33.9188 117.67 33.9442 117.67 34.0014C117.67 34.0332 117.663 34.0649 117.651 34.0905C117.816 34.663 118.337 35.8901 119.215 37.7788C119.336 37.9505 119.393 38.1032 119.393 38.224C119.393 38.2493 119.387 38.275 119.361 38.3003L119.361 38.2995Z" fill="white"/>
</g>
<defs>
<clipPath id="clip0_8105_5925">
<rect width="35.7143" height="40" fill="white" transform="translate(92.0195)"/>
</clipPath>
</defs>
</svg>
