<svg width="220" height="40" viewBox="0 0 220 40" fill="none" xmlns="http://www.w3.org/2000/svg">
<g clip-path="url(#clip0_8099_11247)">
<g clip-path="url(#clip1_8099_11247)">
<g clip-path="url(#clip2_8099_11247)">
<path d="M22.0816 8.52236H18.2539V6.69863H22.0816V5.63836C22.0816 3.36931 22.8662 0.53833 27.4785 0.53833C29.8853 0.53833 30.8078 0.771595 31.4228 0.909434V2.80736C30.3837 2.5741 29.3658 2.36204 28.1783 2.36204C24.9338 2.36204 24.4354 3.76163 24.4354 5.79738V6.69863H30.67V8.52236H24.4354V20.228H22.0816V8.52236Z" fill="white"/>
<path d="M36.6599 1.01562V3.47552H33.9668V1.01562H36.6599ZM34.1682 6.40194H36.5115V20.2282H34.1682V6.40194Z" fill="white"/>
<path d="M40.6044 6.40191H42.8628V8.33164C44.6017 6.98506 46.4043 5.97778 48.8959 5.97778C52.204 5.97778 53.0947 7.43038 53.7095 8.43766C56.0846 6.61396 57.6538 5.97778 59.8804 5.97778C61.2696 5.97778 65.4472 6.24286 65.4472 10.2296V20.2175H63.0931V11.0142C63.0931 10.1659 63.0931 7.7909 59.7639 7.7909C57.1238 7.7909 55.1835 9.38133 54.1974 10.219V20.2069H51.8436V11.0036C51.8436 10.1553 51.8436 7.78029 48.5671 7.78029C45.874 7.78029 43.9231 9.37072 42.937 10.2084V20.1963H40.5938V6.40191H40.6044Z" fill="white"/>
<path d="M84.5657 18.0865C84.5657 18.9029 84.6825 19.4861 84.831 20.2283H82.4769C82.3604 19.8041 82.1906 19.115 82.1906 18.5636C79.9853 19.8572 77.5255 20.6524 74.6201 20.6524C72.1285 20.6524 68.4492 20.0162 68.4492 16.4536C68.4492 11.6717 76.3061 11.4808 82.2226 10.8553V10.3251C82.2226 8.4484 79.7521 7.73801 77.3559 7.73801C73.3266 7.73801 71.9059 9.27544 71.153 10.0601L69.3823 8.94675C70.2519 7.97128 71.9059 5.98853 77.1861 5.98853C80.6321 5.98853 84.5764 6.91097 84.5764 10.4523V18.0865H84.5657ZM82.2226 12.5942C75.3199 13.1985 70.6865 13.7817 70.6865 16.4536C70.6865 18.6166 73.3586 18.9135 74.5143 18.9135C77.7905 18.9135 80.7169 17.4821 82.2226 16.7505V12.6048V12.5942Z" fill="white"/>
<path d="M88.9004 1.01562H91.2331V39.4196H88.9004V1.01562Z" fill="white"/>
<path d="M95.9531 20.2174V17.5455H96.5999V18.0014H96.6106C96.7801 17.6833 97.0134 17.503 97.4375 17.4924V18.171C97.4375 18.171 97.3634 18.171 97.3104 18.171C96.9606 18.171 96.6529 18.5315 96.6529 18.6057V20.228H95.9531V20.2174Z" fill="white"/>
<path d="M106.828 17.5457V20.2176H106.181V19.9313C105.926 20.0904 105.619 20.2706 105.28 20.2706C104.696 20.2706 104.41 19.9207 104.41 19.38V17.5457H105.11V19.2846C105.11 19.645 105.237 19.7617 105.47 19.7617C105.778 19.7617 106 19.6026 106.128 19.4754V17.5457H106.828Z" fill="white"/>
<path d="M114.084 16.5066H114.784V17.7896H114.794C114.932 17.6199 115.271 17.4927 115.505 17.4927C116.258 17.4927 116.682 18.15 116.682 18.8074C116.682 19.6451 116.29 20.2707 115.505 20.2707C115.187 20.2707 114.953 20.154 114.71 19.9314L114.635 20.2176H114.095V16.5066H114.084ZM114.784 19.5178C114.932 19.6239 115.028 19.7511 115.324 19.7511C115.738 19.7511 115.982 19.4436 115.982 18.8817C115.982 18.3197 115.749 18.0122 115.324 18.0122C115.102 18.0122 114.922 18.1182 114.784 18.2349V19.5178Z" fill="white"/>
<path d="M123.828 17.0471V16.4534H124.528V17.0471H123.828ZM124.528 20.2174H123.828V17.5455H124.528V20.2174Z" fill="white"/>
<path d="M131.865 20.2174V17.5455H132.512V17.8317C132.767 17.6727 133.074 17.4924 133.413 17.4924C133.996 17.4924 134.283 17.8423 134.283 18.3831V20.2174H133.583V18.4785C133.583 18.118 133.456 18.0014 133.222 18.0014C132.915 18.0014 132.692 18.1604 132.565 18.2877V20.2174H131.865Z" fill="white"/>
<path d="M142.01 18.9874C142.021 19.5388 142.297 19.7615 142.615 19.7615C142.933 19.7615 143.092 19.6236 143.272 19.4434L143.781 19.7296C143.516 20.1114 143.113 20.2704 142.551 20.2704C141.788 20.2704 141.311 19.7296 141.311 18.8814C141.311 18.0332 141.788 17.4924 142.583 17.4924C143.346 17.4924 143.781 18.0756 143.781 18.7224V18.9874H142.01ZM143.134 18.5527C143.124 18.1816 142.911 17.9696 142.572 17.9696C142.233 17.9696 142.021 18.1816 142.01 18.5527H143.134Z" fill="white"/>
<path d="M151.004 17.5456V16.6655H151.704V17.5456H152.277V18.0545H151.704V19.5601C151.704 19.7086 151.789 19.751 151.959 19.751C152.065 19.751 152.181 19.7192 152.277 19.6979V20.2175C152.086 20.2387 151.916 20.2599 151.725 20.2599C151.206 20.2599 151.004 20.0267 151.004 19.6449V18.0545H150.602V17.5456H151.004Z" fill="white"/>
<path d="M159.42 17.5456V16.6655H160.12V17.5456H160.693V18.0545H160.12V19.5601C160.12 19.7086 160.194 19.751 160.375 19.751C160.481 19.751 160.597 19.7192 160.693 19.6979V20.2175C160.502 20.2387 160.332 20.2599 160.142 20.2599C159.622 20.2599 159.42 20.0267 159.42 19.6449V18.0545H159.018V17.5456H159.42Z" fill="white"/>
<path d="M168.2 18.9874C168.21 19.5388 168.486 19.7615 168.804 19.7615C169.122 19.7615 169.281 19.6236 169.462 19.4434L169.971 19.7296C169.706 20.1114 169.302 20.2704 168.74 20.2704C167.977 20.2704 167.5 19.7296 167.5 18.8814C167.5 18.0332 167.977 17.4924 168.772 17.4924C169.536 17.4924 169.971 18.0756 169.971 18.7224V18.9874H168.2ZM169.324 18.5527C169.313 18.1816 169.101 17.9696 168.762 17.9696C168.422 17.9696 168.21 18.1816 168.2 18.5527H169.324Z" fill="white"/>
<path d="M177.043 20.2174V17.5455H177.69V18.0014H177.7C177.87 17.6833 178.103 17.503 178.527 17.4924V18.171C178.527 18.171 178.453 18.171 178.4 18.171C178.05 18.171 177.743 18.5315 177.743 18.6057V20.228H177.043V20.2174Z" fill="white"/>
<path d="M185.58 17.0471V16.4534H186.28V17.0471H185.58ZM186.28 20.2174H185.58V17.5455H186.28V20.2174Z" fill="white"/>
<path d="M194.081 18.9874C194.081 19.5388 194.367 19.7615 194.685 19.7615C195.003 19.7615 195.162 19.6236 195.342 19.4434L195.851 19.7296C195.586 20.1114 195.183 20.2704 194.622 20.2704C193.858 20.2704 193.381 19.7296 193.381 18.8814C193.381 18.0332 193.858 17.4924 194.653 17.4924C195.417 17.4924 195.851 18.0756 195.851 18.7224V18.9874H194.081ZM195.205 18.5527C195.194 18.1816 194.982 17.9696 194.643 17.9696C194.303 17.9696 194.091 18.1816 194.081 18.5527H195.205Z" fill="white"/>
<path d="M104.742 12.8274C103.724 14.5344 101.879 15.2661 100.342 15.2661C97.6697 15.2661 95.3477 13.3469 95.3477 10.7704C95.3477 8.19389 97.606 6.26416 100.331 6.26416C102.78 6.26416 104.339 7.8334 104.71 8.63921H103.639C102.589 7.21841 100.904 7.04878 100.32 7.04878C98.0832 7.04878 96.3018 8.84067 96.3018 10.781C96.3018 12.8168 98.2634 14.4814 100.331 14.4814C100.808 14.4814 102.377 14.4178 103.681 12.838H104.752L104.742 12.8274Z" fill="white"/>
<path d="M109.726 6.40186H110.797L114.9 15.1175H113.85L112.472 12.1804H108.029L106.629 15.1175H105.633L109.715 6.40186H109.726ZM108.389 11.3958H112.101L110.266 7.38791L108.389 11.3958Z" fill="white"/>
<path d="M116.141 6.40186H118.569C119.852 6.40186 120.477 6.53969 120.923 6.73054C121.993 7.18647 122.63 8.14072 122.63 9.21161C122.63 10.4734 121.633 11.7563 119.788 11.8623L122.492 15.1069H121.294L118.049 11.1626C119.268 11.1626 119.682 11.1519 120.106 11.0353C121.156 10.7597 121.686 9.96443 121.686 9.19042C121.686 8.51183 121.262 7.80143 120.636 7.51516C120.064 7.23947 119.576 7.18647 118.77 7.18647H117.105V15.1069H116.151V6.40186H116.141Z" fill="white"/>
<path d="M124.336 6.40186H125.29V14.3222H129.235V15.1069H124.336V6.40186Z" fill="white"/>
<path d="M134.906 6.24279C137.599 6.24279 139.975 8.18312 139.975 10.7491C139.975 13.315 137.589 15.2553 134.906 15.2553C132.224 15.2553 129.859 13.2407 129.859 10.7915C129.859 8.04529 132.362 6.23218 134.906 6.23218V6.24279ZM134.906 14.4707C137.112 14.4707 139.01 12.8378 139.01 10.7596C139.01 8.68147 137.165 7.02741 134.906 7.02741C132.648 7.02741 130.814 8.62845 130.814 10.7915C130.814 12.7848 132.69 14.4707 134.906 14.4707Z" fill="white"/>
<path d="M145.594 6.40186H150.429V7.18647H146.548V10.3461H150.28V11.1308H146.548V15.1069H145.594V6.40186Z" fill="white"/>
<path d="M152.242 6.40186H154.67C155.953 6.40186 156.579 6.53969 157.024 6.73054C158.095 7.18647 158.731 8.14072 158.731 9.21161C158.731 10.4734 157.734 11.7563 155.889 11.8623L158.593 15.1069H157.395L154.151 11.1626C155.37 11.1626 155.773 11.1519 156.208 11.0353C157.257 10.7597 157.787 9.96443 157.787 9.19042C157.787 8.51183 157.363 7.80143 156.738 7.51516C156.165 7.23947 155.678 7.18647 154.882 7.18647H153.218V15.1069H152.263V6.40186H152.242Z" fill="white"/>
<path d="M163.682 6.40186H164.753L168.856 15.1175H167.806L166.428 12.1804H161.985L160.596 15.1175H159.6L163.682 6.40186ZM162.346 11.3958H166.057L164.223 7.38791L162.346 11.3958Z" fill="white"/>
<path d="M170.619 7.18647H168.424V6.40186H173.757V7.18647H171.573V15.1069H170.619V7.18647Z" fill="white"/>
<path d="M176.638 7.18647H174.443V6.40186H179.777V7.18647H177.592V15.1069H176.638V7.18647Z" fill="white"/>
<path d="M181.24 6.40186H182.195V15.1069H181.24V6.40186Z" fill="white"/>
<path d="M184.539 6.40186H185.833L191.166 13.633H191.187V6.40186H192.142V15.1069H191.187L185.515 7.44094H185.493V15.1069H184.539V6.40186Z" fill="white"/>
<path d="M194.496 6.40186H195.45V15.1069H194.496V6.40186Z" fill="white"/>
<path d="M198.458 6.3064C199.296 6.3064 199.996 6.91077 199.996 7.69539C199.996 8.48 199.296 9.09499 198.458 9.09499C197.621 9.09499 196.91 8.49061 196.91 7.69539C196.91 6.90016 197.621 6.3064 198.458 6.3064ZM198.458 8.89352C199.169 8.89352 199.72 8.37398 199.72 7.69539C199.72 7.01679 199.169 6.50786 198.458 6.50786C197.748 6.50786 197.186 7.0274 197.186 7.69539C197.186 8.36337 197.737 8.89352 198.458 8.89352ZM197.854 6.88957H198.543C198.967 6.88957 199.169 7.03801 199.169 7.35609C199.169 7.65297 198.967 7.78022 198.692 7.80141L199.211 8.52242H198.914L198.427 7.82263H198.13V8.52242H197.854V6.88957ZM198.13 7.61056H198.427C198.67 7.61056 198.893 7.59997 198.893 7.34548C198.893 7.13343 198.692 7.10162 198.501 7.10162H198.13V7.62117V7.61056Z" fill="white"/>
</g>
</g>
</g>
<defs>
<clipPath id="clip0_8099_11247">
<rect width="181.818" height="40" fill="white" transform="translate(19)"/>
</clipPath>
<clipPath id="clip1_8099_11247">
<rect width="181.818" height="72.7273" fill="white" transform="translate(18.2539 -16.3635)"/>
</clipPath>
<clipPath id="clip2_8099_11247">
<rect width="181.818" height="38.923" fill="white" transform="translate(18.2539 0.53833)"/>
</clipPath>
</defs>
</svg>
