<svg width="220" height="40" viewBox="0 0 220 40" fill="none" xmlns="http://www.w3.org/2000/svg">
<g clip-path="url(#clip0_8105_6039)">
<path d="M111.42 11.9502L111.336 10.3734L111.669 10.8714L93.2721 3.90041L95.5198 2.48963L95.7695 37.3444L93.1889 35.6846L110.837 31.0373L110.504 31.4523L110.337 27.8008H112.086L112.419 32.6141V32.9461L112.086 33.112L94.6873 39.0871L92.0234 40V37.3444L92.3564 2.48963V0L94.5208 1.07884L112.169 9.79253L112.502 10.0415V10.3734L112.335 11.9502H111.42Z" fill="white"/>
<path d="M107.815 18.7634C107.631 18.8549 107.539 18.9465 107.356 18.9465C107.172 18.9465 107.08 19.0381 106.896 19.0381C106.712 19.0381 106.529 19.1297 106.345 19.1297C106.161 19.1297 105.977 19.1297 105.794 19.1297C105.242 19.1297 104.783 19.0381 104.416 18.9465C104.048 18.8549 103.68 18.6718 103.497 18.397C103.221 18.1222 103.037 17.939 102.945 17.5727C102.854 17.2979 102.762 16.9315 102.762 16.5651C102.762 16.1072 102.854 15.7408 103.037 15.3744C103.221 15.0081 103.405 14.7333 103.68 14.5501C103.956 14.3669 104.324 14.1837 104.691 14.0006C105.059 13.909 105.518 13.8174 105.977 13.8174C106.345 13.8174 106.712 13.8174 106.988 13.909C107.264 14.0006 107.447 14.0006 107.631 14.0922C107.631 14.0922 107.723 14.1838 107.631 14.1838L107.356 15.2829C107.356 15.2829 107.356 15.2829 107.264 15.3744H107.172C106.988 15.2829 106.804 15.2829 106.621 15.1913C106.437 15.1913 106.161 15.0997 105.794 15.0997C105.61 15.0997 105.426 15.0997 105.242 15.1913C105.059 15.2829 104.875 15.2829 104.783 15.466C104.599 15.5576 104.507 15.7408 104.416 15.8324C104.324 16.0156 104.324 16.1988 104.324 16.382C104.324 16.5651 104.324 16.7483 104.416 16.9315C104.507 17.1147 104.599 17.2063 104.691 17.3895C104.783 17.4811 104.967 17.5727 105.151 17.6642C105.334 17.7558 105.518 17.7558 105.794 17.7558C105.886 17.7558 105.977 17.7558 106.069 17.7558C106.161 17.7558 106.161 17.7558 106.253 17.7558V17.1147H105.61C105.518 17.1147 105.518 17.1147 105.518 17.0231V15.924C105.518 15.8324 105.518 15.8324 105.61 15.8324H107.723C107.815 15.8324 107.815 15.8324 107.815 15.924V18.7634Z" fill="white"/>
<path d="M108.457 14.0921C108.457 14.0005 108.549 14.0005 108.457 14.0921L109.927 14.0005C110.019 14.0005 110.019 14.0005 110.019 14.0921V17.7558H112.04C112.132 17.7558 112.132 17.7558 112.132 17.8474V19.0381C112.132 19.1296 112.132 19.1296 112.04 19.1296H108.549C108.457 19.1296 108.457 19.1296 108.457 19.0381V14.0921Z" fill="white"/>
<path d="M114.431 17.8471C114.431 18.0303 114.34 18.2135 114.248 18.3967C114.156 18.5799 114.156 18.7631 114.064 18.9463C114.064 18.9463 114.064 19.0378 113.972 19.0378H112.502H112.41V18.9463L113.972 14.0003C113.972 14.0003 113.972 13.9087 114.064 13.9087H115.993C115.993 13.9087 116.085 13.9087 116.085 14.0003L117.739 18.9463V19.0378C117.739 19.0378 117.739 19.0378 117.647 19.0378H116.085C116.085 19.0378 116.085 19.0378 115.993 19.0378C115.993 19.0378 115.993 19.0378 115.993 18.9463L115.718 17.8471H114.431ZM115.442 16.748C115.442 16.6565 115.35 16.4733 115.35 16.3817C115.35 16.2901 115.258 16.1069 115.258 16.0153C115.258 15.9237 115.166 15.8321 115.166 15.7405C115.166 15.6489 115.075 15.5573 115.075 15.4658V15.3742C115.075 15.3742 115.075 15.3742 115.075 15.2826V15.3742V15.4658C115.075 15.5573 115.075 15.6489 114.983 15.7405C114.983 15.8321 114.983 15.9237 114.891 15.9237C114.891 16.1069 114.799 16.1985 114.799 16.2901C114.799 16.3817 114.707 16.5649 114.707 16.6565H115.442V16.748Z" fill="white"/>
<path d="M118.656 17.5725C118.748 17.4809 118.748 17.4809 118.748 17.4809C118.932 17.5725 119.116 17.664 119.391 17.664C119.667 17.7556 119.851 17.7556 120.218 17.7556C120.586 17.7556 120.861 17.664 120.861 17.4809C120.861 17.2977 120.586 17.2061 120.126 17.0229C119.943 16.9313 119.667 16.9313 119.483 16.7481C119.3 16.6565 119.116 16.5649 118.932 16.3818C118.748 16.2902 118.656 16.107 118.565 15.9238C118.473 15.7406 118.473 15.5574 118.473 15.3742C118.473 15.0995 118.565 14.9163 118.656 14.7331C118.748 14.5499 118.932 14.3667 119.116 14.1835C119.3 14.0004 119.575 13.9088 119.759 13.8172C120.035 13.7256 120.31 13.7256 120.678 13.7256C121.045 13.7256 121.321 13.7256 121.596 13.8172C121.872 13.9088 122.056 13.9088 122.24 14.0004C122.331 14.0004 122.331 14.092 122.331 14.092L122.056 15.1911C122.056 15.2827 121.964 15.2826 121.964 15.2826C121.872 15.1911 121.688 15.1911 121.505 15.0995C121.321 15.0079 121.045 15.0079 120.77 15.0079C120.586 15.0079 120.494 15.0079 120.402 15.0995C120.31 15.0995 120.218 15.1911 120.218 15.2826C120.218 15.3742 120.31 15.4658 120.402 15.5574C120.586 15.649 120.77 15.649 121.045 15.8322C121.505 16.0154 121.872 16.1986 122.148 16.4733C122.423 16.7481 122.515 17.0229 122.515 17.4809C122.515 17.664 122.515 17.9388 122.423 18.122C122.331 18.3052 122.24 18.4884 122.056 18.6716C121.872 18.8547 121.596 18.9463 121.321 19.0379C121.045 19.1295 120.678 19.2211 120.31 19.2211C120.126 19.2211 119.943 19.2211 119.851 19.2211C119.667 19.2211 119.575 19.1295 119.391 19.1295C119.208 19.1295 119.116 19.0379 119.024 19.0379C118.932 19.0379 118.84 18.9463 118.748 18.9463C118.748 18.9463 118.748 18.9463 118.748 18.8547L118.656 17.5725Z" fill="white"/>
<path d="M123.067 17.5725C123.158 17.4809 123.158 17.4809 123.158 17.4809C123.342 17.5725 123.526 17.664 123.802 17.664C124.077 17.7556 124.261 17.7556 124.628 17.7556C124.996 17.7556 125.272 17.664 125.272 17.4809C125.272 17.2977 124.996 17.2061 124.537 17.0229C124.353 16.9313 124.077 16.9313 123.893 16.7481C123.71 16.6565 123.526 16.5649 123.342 16.3818C123.158 16.2902 123.067 16.107 122.975 15.9238C122.883 15.7406 122.883 15.5574 122.883 15.3742C122.883 15.0995 122.975 14.9163 123.067 14.7331C123.158 14.5499 123.342 14.3667 123.526 14.1835C123.71 14.0004 123.985 13.9088 124.169 13.8172C124.445 13.7256 124.72 13.7256 125.088 13.7256C125.455 13.7256 125.731 13.7256 126.007 13.8172C126.282 13.9088 126.466 13.9088 126.65 14.0004C126.742 14.0004 126.742 14.092 126.742 14.092L126.466 15.1911C126.466 15.2827 126.374 15.2826 126.374 15.2826C126.282 15.1911 126.099 15.1911 125.915 15.0995C125.731 15.0079 125.455 15.0079 125.18 15.0079C124.996 15.0079 124.904 15.0079 124.812 15.0995C124.72 15.0995 124.628 15.1911 124.628 15.2826C124.628 15.3742 124.72 15.4658 124.812 15.5574C124.996 15.649 125.18 15.649 125.455 15.8322C125.915 16.0154 126.282 16.1986 126.558 16.4733C126.834 16.7481 126.925 17.0229 126.925 17.4809C126.925 17.664 126.925 17.9388 126.834 18.122C126.742 18.3052 126.65 18.4884 126.466 18.6716C126.282 18.8547 126.007 18.9463 125.731 19.0379C125.455 19.1295 125.088 19.2211 124.72 19.2211C124.537 19.2211 124.353 19.2211 124.261 19.2211C124.077 19.2211 123.985 19.1295 123.802 19.1295C123.618 19.1295 123.526 19.0379 123.434 19.0379C123.342 19.0379 123.25 18.9463 123.158 18.9463C123.158 18.9463 123.158 18.9463 123.158 18.8547L123.067 17.5725Z" fill="white"/>
<path d="M107.815 25.5407C107.631 25.6323 107.539 25.7239 107.356 25.7239C107.172 25.7239 107.08 25.8155 106.896 25.8155C106.712 25.8155 106.529 25.9071 106.345 25.9071C106.161 25.9071 105.977 25.9071 105.794 25.9071C105.242 25.9071 104.783 25.8155 104.416 25.7239C104.048 25.6323 103.68 25.4491 103.497 25.1743C103.221 24.8996 103.037 24.7164 102.945 24.35C102.854 24.0752 102.762 23.7089 102.762 23.3425C102.762 22.8845 102.854 22.5182 103.037 22.1518C103.221 21.7854 103.405 21.5106 103.68 21.3275C103.956 21.1443 104.324 20.9611 104.691 20.7779C105.059 20.6863 105.518 20.5947 105.977 20.5947C106.345 20.5947 106.712 20.5947 106.988 20.6863C107.264 20.7779 107.447 20.7779 107.631 20.8695C107.631 20.8695 107.723 20.9611 107.631 20.9611L107.356 22.0602C107.356 22.0602 107.356 22.0602 107.264 22.1518H107.172C106.988 22.0602 106.804 22.0602 106.621 21.9686C106.437 21.9686 106.161 21.877 105.794 21.877C105.61 21.877 105.426 21.877 105.242 21.9686C105.059 22.0602 104.875 22.0602 104.783 22.2434C104.599 22.335 104.507 22.5182 104.416 22.6098C104.324 22.7929 104.324 22.9761 104.324 23.1593C104.324 23.3425 104.324 23.5257 104.416 23.7089C104.507 23.892 104.599 23.9836 104.691 24.1668C104.783 24.35 104.967 24.35 105.151 24.4416C105.334 24.5332 105.518 24.5332 105.794 24.5332C105.886 24.5332 105.977 24.5332 106.069 24.5332C106.161 24.5332 106.161 24.5332 106.253 24.5332V23.892H105.61C105.518 23.892 105.518 23.892 105.518 23.8004V22.7013C105.518 22.6098 105.518 22.6098 105.61 22.6098H107.723C107.815 22.6098 107.815 22.6098 107.815 22.7013V25.5407Z" fill="white"/>
<path d="M109.929 20.7781C110.021 20.7781 110.021 20.7781 109.929 20.7781L110.021 23.5259C110.021 23.8922 110.113 24.167 110.205 24.3502C110.297 24.5334 110.572 24.625 110.848 24.625C111.123 24.625 111.307 24.5334 111.491 24.3502C111.583 24.167 111.675 23.8922 111.675 23.4343V20.7781C111.675 20.6865 111.675 20.6865 111.767 20.6865H113.145C113.237 20.6865 113.237 20.6865 113.237 20.7781V23.4343C113.237 24.2586 113.053 24.8998 112.594 25.2661C112.134 25.6325 111.583 25.9073 110.756 25.9073C110.388 25.9073 110.021 25.8157 109.745 25.7241C109.47 25.6325 109.194 25.4493 109.01 25.2661C108.827 25.0829 108.643 24.8082 108.551 24.4418C108.459 24.167 108.367 23.7091 108.367 23.3427V20.7781C108.367 20.6865 108.367 20.6865 108.459 20.6865H109.929V20.7781Z" fill="white"/>
<path d="M113.973 20.961C113.973 20.8694 113.973 20.8694 113.973 20.961C114.248 20.8694 114.524 20.7778 114.8 20.7778C115.075 20.7778 115.443 20.7778 115.81 20.7778C116.27 20.7778 116.637 20.7778 116.913 20.8694C117.188 20.961 117.464 21.0526 117.648 21.1442C117.831 21.2358 117.923 21.419 118.015 21.6022C118.107 21.7853 118.199 22.0601 118.199 22.2433C118.199 22.4265 118.199 22.5181 118.107 22.7013C118.015 22.7929 118.015 22.976 117.923 23.0676C117.831 23.1592 117.74 23.2508 117.648 23.3424C117.556 23.434 117.464 23.434 117.372 23.5256C117.464 23.6172 117.648 23.7088 117.74 23.892C117.831 24.0751 117.923 24.1667 118.015 24.3499C118.015 24.4415 118.107 24.6247 118.107 24.7163C118.107 24.8079 118.199 24.9911 118.199 25.0827C118.199 25.2658 118.291 25.3574 118.291 25.449C118.291 25.5406 118.383 25.6322 118.383 25.7238V25.8154C118.383 25.8154 118.383 25.8154 118.291 25.8154H116.913H116.821C116.821 25.7238 116.729 25.6322 116.637 25.449C116.545 25.2658 116.453 24.9911 116.453 24.7163C116.453 24.6247 116.361 24.4415 116.361 24.3499C116.361 24.2583 116.27 24.1667 116.178 24.1667C116.086 24.1667 116.086 24.0751 115.994 24.0751C115.902 24.0751 115.81 24.0751 115.718 24.0751H115.535V25.8154C115.535 25.907 115.535 25.907 115.443 25.907H114.065C113.973 25.907 113.973 25.907 113.973 25.8154V20.961ZM115.443 22.8844H115.718C115.994 22.8844 116.178 22.8844 116.27 22.7929C116.453 22.7013 116.453 22.6097 116.453 22.4265C116.453 22.2433 116.361 22.1517 116.27 22.0601C116.178 21.9685 115.994 21.9685 115.81 21.9685C115.718 21.9685 115.626 21.9685 115.535 21.9685C115.443 21.9685 115.443 21.9685 115.351 21.9685V22.8844H115.443Z" fill="white"/>
<path d="M120.402 20.7781C120.494 20.7781 120.494 20.7781 120.402 20.7781L120.494 23.5259C120.494 23.8922 120.586 24.167 120.677 24.3502C120.769 24.5334 121.045 24.625 121.321 24.625C121.596 24.625 121.78 24.5334 121.964 24.3502C122.056 24.167 122.147 23.8922 122.147 23.4343V20.7781C122.147 20.6865 122.147 20.6865 122.239 20.6865H123.617C123.709 20.6865 123.709 20.6865 123.709 20.7781V23.4343C123.709 24.2586 123.526 24.8998 123.066 25.2661C122.607 25.6325 122.056 25.9073 121.229 25.9073C120.861 25.9073 120.494 25.8157 120.218 25.7241C119.942 25.6325 119.667 25.4493 119.483 25.2661C119.299 25.0829 119.115 24.8082 119.024 24.4418C118.932 24.167 118.84 23.7091 118.84 23.3427V20.7781C118.84 20.6865 118.84 20.6865 118.932 20.6865H120.402V20.7781Z" fill="white"/>
<path d="M111.668 27.8008H103.094V28.2987L111.668 29.6265V27.8008Z" fill="white"/>
</g>
<defs>
<clipPath id="clip0_8105_6039">
<rect width="34.902" height="40" fill="white" transform="translate(92.0234)"/>
</clipPath>
</defs>
</svg>
