<svg width="220" height="40" viewBox="0 0 220 40" fill="none" xmlns="http://www.w3.org/2000/svg">
<mask id="mask0_8099_10312" style="mask-type:luminance" maskUnits="userSpaceOnUse" x="17" y="5" width="187" height="30">
<path d="M203.214 5H17V35H203.214V5Z" fill="white"/>
</mask>
<g mask="url(#mask0_8099_10312)">
<path d="M165.291 5.7601V17.0716H180.399C180.399 17.0716 180.308 5.7601 180.399 5.7601H187.815V34.039H180.399V21.5963H165.291V34.0388H157.874V5.76038L165.291 5.7601ZM94.5264 5.7601V10.5674H83.0767V34.0388H75.5684V10.5674H64.2122V5.7601H94.5264ZM123.527 34.039H115.174L112.734 27.9118H98.7495L96.3097 34.0388H88.0508L101.19 5.7601H110.294L123.527 34.039ZM105.789 10.5674L100.533 23.3871H110.952L105.789 10.5674ZM193.734 34.039V5.75983H201.242V34.039H193.734ZM25.6391 5.7601V17.0716H40.6556V5.7601H48.1636V34.039H40.6556V21.5963H25.6391V34.0388H18.1309C18.1309 34.0388 18.2249 5.7601 18.1309 5.7601H25.6391ZM54.0764 34.039V5.75983H61.4909V34.039H54.0764ZM123.245 26.2154C122.589 24.2356 122.213 22.2564 122.213 20.1824C122.213 17.166 122.776 14.3383 124.184 11.8873C125.592 9.43686 127.846 7.55152 130.567 6.5144C133.1 5.572 135.91 5.00635 138.83 5.00635C142.206 5.00635 145.4 5.76038 148.215 6.98587C150.927 8.21136 152.999 10.6621 153.56 13.5843C153.651 14.1497 153.742 14.715 153.846 15.3751H146.052C145.96 14.6211 145.869 13.8668 145.582 13.2073C145.022 11.6048 143.705 10.3793 142.115 9.90779C141.072 9.62497 139.951 9.43657 138.83 9.43657C137.514 9.43657 136.288 9.62497 135.167 10.0964C133.194 10.756 131.692 12.2643 131.035 14.2438C130.378 16.035 130.003 18.1084 130.003 20.1824C130.003 21.8791 130.284 23.5758 130.754 25.0841C131.317 27.1578 132.818 28.8545 134.789 29.6088C136.106 30.08 137.423 30.3628 138.83 30.3628C140.042 30.3628 141.176 30.1744 142.297 29.7972C143.705 29.326 144.931 28.2889 145.582 26.875C145.96 25.9326 146.143 24.8955 146.143 23.8586H154.029C153.938 24.7071 153.846 25.6497 153.651 26.498C152.999 29.3263 151.031 31.6822 148.398 32.7193C145.491 34.039 142.206 34.6989 138.831 34.6989C136.197 34.6989 133.663 34.3219 131.223 33.5681C127.656 32.4363 124.465 29.7972 123.245 26.2154Z" fill="white"/>
</g>
</svg>
