<svg width="220" height="40" viewBox="0 0 220 40" fill="none" xmlns="http://www.w3.org/2000/svg">
<g clip-path="url(#clip0_8099_10483)">
<path d="M131.59 0.000244141C131.975 0.0787636 132.363 0.134163 132.734 0.277243C134.193 0.83953 135.205 2.2049 135.201 3.82327C135.185 10.0185 135.186 16.2136 135.199 22.4088C135.203 24.2209 133.876 25.7019 132.185 26.0748C131.817 26.156 131.447 26.1904 131.07 26.19C118.377 26.1882 105.684 26.1891 92.9913 26.1878C92.0552 26.1878 91.2023 25.9182 90.4607 25.3407C89.6493 24.709 89.152 23.8907 89.0355 22.8568C89.0329 22.8324 89.0133 22.8097 89.002 22.7862C89.002 16.3244 89.002 9.86273 89.002 3.40101C89.0382 3.23045 89.0665 3.05814 89.1114 2.8902C89.4722 1.54533 90.3504 0.686417 91.6399 0.216609C91.9535 0.102319 92.2851 0.0713479 92.6083 0.000244141H131.59ZM112.078 24.6288C118.398 24.6288 124.717 24.6288 131.036 24.6288C131.254 24.6288 131.472 24.6274 131.688 24.5864C132.781 24.3797 133.53 23.4654 133.529 22.5092C133.526 16.2389 133.527 9.96829 133.528 3.69808C133.528 3.38487 133.468 3.08606 133.321 2.81081C132.853 1.94055 132.099 1.56016 131.135 1.56016C118.448 1.55886 105.762 1.55929 93.076 1.55886C92.9185 1.55886 92.7636 1.57194 92.607 1.59201C91.5417 1.72942 90.6588 2.65464 90.6688 3.77311C90.6902 6.10906 90.6745 8.44501 90.6745 10.781C90.6745 14.6607 90.6754 18.5404 90.6736 22.4202C90.6736 22.6967 90.7076 22.9641 90.8119 23.2206C91.1522 24.0608 92.0054 24.6279 92.9359 24.6279C99.3168 24.6283 105.697 24.6279 112.078 24.6279L112.078 24.6288Z" fill="white"/>
<path d="M140.609 40.0005C140.605 39.9931 140.6 39.9861 140.598 39.9782C140.597 39.9747 140.601 39.9699 140.603 39.9656C141.496 39.966 142.388 39.9669 143.28 39.9673C143.281 39.9791 143.279 39.99 143.273 40.0005H140.608H140.609Z" fill="white"/>
<path d="M150.37 39.9663C150.371 39.978 150.369 39.9894 150.363 39.9999H147.699C147.695 39.9929 147.69 39.9863 147.688 39.9789C147.687 39.9759 147.691 39.9706 147.693 39.9667C147.781 39.9645 147.87 39.9597 147.958 39.9597C148.762 39.9615 149.566 39.9641 150.37 39.9663H150.37Z" fill="white"/>
<path d="M143.28 39.9672C142.388 39.9667 141.495 39.9659 140.603 39.9654C140.702 39.7595 140.878 39.6147 141.024 39.4481C142.123 38.1878 143.227 36.9319 144.335 35.6796C144.433 35.5688 144.409 35.5116 144.324 35.4143C143.115 34.0237 141.909 32.63 140.703 31.2362C140.664 31.1913 140.629 31.1438 140.568 31.0674C140.666 31.0674 140.73 31.0674 140.795 31.0674C141.581 31.0674 142.367 31.0687 143.152 31.0657C143.259 31.0657 143.339 31.0862 143.42 31.1721C144.742 32.5898 146.036 34.0346 147.388 35.4239C147.474 35.5112 147.478 35.5613 147.39 35.653C146.018 37.089 144.649 38.5285 143.28 39.9676L143.28 39.9672Z" fill="white"/>
<path d="M150.371 39.9662C149.567 39.964 148.763 39.9614 147.959 39.9596C147.87 39.9596 147.782 39.964 147.693 39.9666C147.792 39.7524 147.977 39.6063 148.126 39.4344C149.22 38.179 150.318 36.9262 151.424 35.6812C151.541 35.5495 151.479 35.4927 151.401 35.4016C150.194 34.0092 148.988 32.6154 147.782 31.2222C147.748 31.182 147.715 31.1402 147.678 31.0935C147.735 31.0494 147.791 31.0682 147.841 31.0682C148.64 31.0669 149.439 31.0695 150.238 31.0651C150.357 31.0643 150.439 31.0957 150.522 31.1846C151.833 32.5936 153.119 34.0266 154.462 35.4068C154.557 35.5045 154.569 35.5599 154.466 35.6664C153.098 37.0967 151.735 38.5319 150.371 39.9662Z" fill="white"/>
<path d="M129.712 38.4465C129.722 38.3174 129.725 38.187 129.744 38.0592C129.785 37.7865 129.919 37.7154 130.153 37.8541C130.453 38.0312 130.756 38.1992 131.088 38.3065C131.569 38.4622 132.06 38.5189 132.558 38.402C132.957 38.3087 133.251 38.0862 133.353 37.6696C133.462 37.2225 133.289 36.8866 132.926 36.6292C132.555 36.3671 132.131 36.214 131.724 36.0246C131.196 35.7786 130.686 35.5103 130.313 35.0405C129.519 34.0411 129.64 31.9612 131.5 31.4007C132.425 31.122 133.339 31.183 134.233 31.5669C134.53 31.6947 134.658 31.9063 134.659 32.216C134.66 32.4276 134.667 32.6378 134.628 32.8485C134.577 33.1264 134.496 33.1722 134.24 33.0348C133.91 32.8564 133.575 32.6919 133.206 32.6082C132.849 32.5275 132.49 32.5043 132.139 32.6335C131.535 32.8555 131.376 33.5678 131.825 34.032C132.043 34.2566 132.317 34.394 132.597 34.5201C133.043 34.7216 133.497 34.9079 133.921 35.157C134.484 35.4876 134.924 35.9322 135.061 36.5843C135.363 38.0155 134.7 39.2042 133.307 39.6348C132.329 39.9371 131.354 39.8808 130.405 39.4991C129.808 39.2588 129.712 39.0978 129.711 38.4461L129.712 38.4465Z" fill="white"/>
<path d="M117.748 35.6129C117.748 34.4251 117.748 33.2368 117.748 32.049C117.748 32.001 117.747 31.9534 117.75 31.9055C117.771 31.5133 117.933 31.3571 118.33 31.3567C119.368 31.3549 120.406 31.3558 121.444 31.3558C121.649 31.3558 121.854 31.3637 122.059 31.3532C122.236 31.344 122.332 31.4308 122.365 31.5879C122.429 31.8915 122.428 32.199 122.367 32.5031C122.333 32.671 122.23 32.7491 122.046 32.7478C121.24 32.7412 120.435 32.7482 119.629 32.7417C119.491 32.7404 119.443 32.7674 119.446 32.917C119.455 33.5382 119.456 34.1598 119.445 34.781C119.442 34.9433 119.497 34.9673 119.641 34.966C120.385 34.959 121.13 34.9673 121.874 34.9594C122.077 34.9572 122.173 35.041 122.208 35.2338C122.258 35.506 122.258 35.7743 122.208 36.0465C122.173 36.2358 122.086 36.3265 121.878 36.3239C121.134 36.3152 120.39 36.3261 119.645 36.3165C119.478 36.3143 119.445 36.368 119.446 36.5228C119.453 37.4446 119.45 38.3663 119.45 39.288C119.45 39.5393 119.405 39.603 119.157 39.6479C118.792 39.7147 118.423 39.7138 118.057 39.6505C117.799 39.606 117.749 39.5319 117.749 39.2584C117.749 38.0431 117.749 36.8278 117.749 35.6124L117.748 35.6129Z" fill="white"/>
<path d="M126.968 36.1472C126.968 37.199 126.962 38.2507 126.973 39.3024C126.975 39.5205 126.887 39.6169 126.691 39.6488C126.317 39.7098 125.943 39.709 125.569 39.6505C125.364 39.6182 125.273 39.5166 125.274 39.2915C125.281 37.1811 125.275 35.0711 125.283 32.9607C125.284 32.7748 125.233 32.7377 125.058 32.7412C124.478 32.7526 123.897 32.7399 123.317 32.7486C123.121 32.7517 123.023 32.664 122.99 32.4869C122.933 32.1885 122.932 31.8893 122.994 31.5918C123.028 31.4304 123.121 31.3541 123.297 31.3545C125.182 31.3584 127.067 31.358 128.953 31.3545C129.126 31.3545 129.226 31.4217 129.258 31.5879C129.317 31.8924 129.315 32.1977 129.26 32.5022C129.228 32.6771 129.123 32.75 128.942 32.7482C128.355 32.7421 127.767 32.7526 127.18 32.7417C127.013 32.7386 126.962 32.7761 126.964 32.9515C126.973 34.0167 126.968 35.0824 126.968 36.1477V36.1472Z" fill="white"/>
<path d="M93.1688 35.5221C93.1688 34.3133 93.1679 33.1041 93.1688 31.8954C93.1688 31.4836 93.2962 31.3566 93.7032 31.3566C94.9329 31.3562 96.1623 31.3566 97.392 31.3566C97.6559 31.3566 97.7166 31.4129 97.7392 31.6738C97.744 31.7283 97.7467 31.7828 97.7467 31.8374C97.7445 32.2269 97.6882 32.2827 97.3004 32.2827C96.3647 32.2827 95.4285 32.2862 94.4928 32.2788C94.3314 32.2775 94.272 32.3045 94.2747 32.4851C94.2864 33.2293 94.2834 33.974 94.2764 34.7186C94.2751 34.8634 94.3165 34.8992 94.4587 34.8979C95.2784 34.8909 96.0981 34.8944 96.9178 34.8953C97.1961 34.8953 97.2651 34.9607 97.2816 35.2394C97.2847 35.287 97.2847 35.335 97.2843 35.3829C97.2812 35.7354 97.2319 35.7856 96.8864 35.7856C96.0802 35.7856 95.2741 35.7899 94.4683 35.7816C94.3139 35.7799 94.2742 35.8205 94.276 35.9745C94.2838 36.8486 94.2834 37.7228 94.276 38.597C94.2747 38.7427 94.3152 38.7767 94.4574 38.7759C95.4547 38.7698 96.4519 38.7728 97.4496 38.7728C97.7009 38.7728 97.758 38.8204 97.7955 39.0707C97.8064 39.1445 97.8095 39.2208 97.806 39.2954C97.789 39.6317 97.7201 39.6954 97.3828 39.6954C96.167 39.6954 94.9508 39.6954 93.735 39.6954C93.2792 39.6954 93.1684 39.585 93.1684 39.1283C93.1675 37.9261 93.1684 36.7243 93.1684 35.5221H93.1688Z" fill="white"/>
<path d="M99.6135 35.5108C99.6135 34.309 99.613 33.1068 99.6135 31.905C99.6135 31.4745 99.7308 31.3571 100.157 31.3567C101.38 31.3558 102.603 31.3558 103.825 31.3562C104.093 31.3562 104.137 31.3946 104.18 31.6664C104.189 31.72 104.197 31.7746 104.198 31.8291C104.199 32.2095 104.126 32.2832 103.75 32.2832C102.801 32.2832 101.851 32.2876 100.902 32.2793C100.745 32.278 100.712 32.3233 100.714 32.473C100.722 33.2172 100.722 33.9618 100.714 34.706C100.712 34.856 100.746 34.901 100.903 34.8992C101.729 34.8905 102.556 34.8949 103.383 34.8953C103.641 34.8953 103.705 34.9594 103.717 35.2216C103.742 35.7621 103.719 35.7856 103.183 35.7856C102.418 35.7856 101.653 35.7882 100.888 35.783C100.759 35.7821 100.713 35.8114 100.714 35.9505C100.721 36.8382 100.721 37.7264 100.714 38.6141C100.712 38.7615 100.77 38.7759 100.892 38.7755C101.896 38.7715 102.9 38.7785 103.904 38.7689C104.112 38.7672 104.209 38.8479 104.231 39.042C104.239 39.1096 104.248 39.1777 104.247 39.2457C104.245 39.6261 104.173 39.6959 103.793 39.6959C102.591 39.6959 101.389 39.6968 100.187 39.6946C100.079 39.6946 99.9651 39.6915 99.8634 39.6597C99.6632 39.5973 99.6126 39.4355 99.6135 39.24C99.6161 38.1813 99.6143 37.1231 99.6139 36.0644C99.6139 35.8798 99.6139 35.6958 99.6139 35.5112L99.6135 35.5108Z" fill="white"/>
<path d="M108.706 35.4562C108.706 34.2274 108.706 32.9985 108.706 31.7697C108.706 31.5045 108.757 31.4382 109.006 31.3985C109.365 31.3413 109.726 31.3391 110.085 31.398C110.339 31.4395 110.399 31.5171 110.399 31.7845C110.399 33.8871 110.401 35.9897 110.395 38.0927C110.394 38.2598 110.429 38.3099 110.604 38.3073C111.362 38.2964 112.12 38.3021 112.878 38.303C113.135 38.303 113.195 38.3627 113.233 38.6196C113.272 38.8788 113.267 39.1366 113.229 39.3948C113.195 39.6304 113.119 39.6975 112.878 39.698C111.69 39.6989 110.501 39.7002 109.314 39.698C108.849 39.6971 108.708 39.554 108.706 39.082C108.704 37.8737 108.705 36.6654 108.705 35.4571L108.706 35.4562Z" fill="white"/>
<path d="M115.94 35.5534C115.94 36.8102 115.935 38.0665 115.944 39.3232C115.946 39.5391 115.862 39.6342 115.663 39.6691C115.282 39.7359 114.904 39.7363 114.524 39.6656C114.339 39.6312 114.246 39.5418 114.246 39.3332C114.252 36.7927 114.251 34.2522 114.246 31.7116C114.246 31.5101 114.34 31.4263 114.514 31.3941C114.886 31.3256 115.259 31.3147 115.632 31.3879C115.916 31.4438 115.94 31.4721 115.94 31.7635C115.94 33.0268 115.94 34.2906 115.94 35.5538L115.94 35.5534Z" fill="white"/>
<path d="M89.8422 35.5333C89.8422 34.2569 89.8422 32.981 89.8422 31.7046C89.8422 31.4054 89.8715 31.3731 90.1725 31.3356C90.357 31.3124 90.5398 31.322 90.7234 31.3486C90.8861 31.3722 90.959 31.4551 90.9559 31.6226C90.9498 31.9432 90.9542 32.2643 90.9542 32.5849C90.9542 34.8371 90.9542 37.0893 90.9542 39.3415C90.9542 39.6621 90.9145 39.7053 90.5895 39.7175C90.4464 39.7228 90.3029 39.7232 90.1598 39.7153C89.8867 39.7009 89.8431 39.6525 89.8427 39.3825C89.8427 38.0996 89.8427 36.8162 89.8427 35.5333H89.8418H89.8422Z" fill="white"/>
<path d="M135.438 1.75235C135.436 0.848935 136.179 0.123502 137.103 0.125247C137.973 0.126992 138.713 0.874672 138.711 1.74929C138.71 2.66055 137.973 3.39995 137.064 3.40344C136.176 3.40693 135.44 2.65925 135.438 1.75235H135.438ZM138.438 1.77023C138.438 0.986781 137.836 0.383053 137.057 0.38567C136.32 0.388288 135.691 1.02342 135.692 1.76151C135.694 2.51049 136.339 3.16308 137.078 3.13952C137.98 3.11073 138.479 2.36916 138.438 1.77023H138.438Z" fill="white"/>
<path d="M114.928 4.99585C115.133 4.99542 115.168 5.05512 115.166 5.24488C115.156 6.20791 115.156 7.17095 115.166 8.13355C115.168 8.3088 115.117 8.34249 114.951 8.34253C112.383 8.33686 109.815 8.33995 107.246 8.33472C107.068 8.33428 107 8.36654 107.004 8.56519C107.017 9.36391 107.015 10.1635 107.006 10.9626C107.004 11.1304 107.045 11.1794 107.219 11.1794C109.555 11.1733 111.892 11.1782 114.228 11.1716C114.412 11.1708 114.464 11.2146 114.462 11.4031C114.451 12.3456 114.452 13.2877 114.461 14.2302C114.463 14.3951 114.415 14.4294 114.258 14.4294C111.915 14.4242 109.572 14.4286 107.229 14.4216C107.048 14.4212 107.003 14.4657 107.005 14.6453C107.014 15.6494 107.014 16.6542 107.005 17.658C107.004 17.8295 107.05 17.8709 107.219 17.8709C109.876 17.8656 112.533 17.8695 115.19 17.8621C115.391 17.8616 115.437 17.9129 115.435 18.1091C115.423 19.0721 115.425 20.0348 115.433 20.9978C115.434 21.1534 115.39 21.1892 115.238 21.1892C111.174 21.1848 107.109 21.1846 103.045 21.1912C102.857 21.1916 102.858 21.1081 102.858 20.9724C102.861 18.3429 102.86 15.7133 102.86 13.0837L102.859 13.0828C102.859 10.4668 102.861 7.85105 102.856 5.23511C102.856 5.06127 102.884 4.99585 103.083 4.99585C107.031 5.00283 110.979 5.00283 114.928 4.99585ZM129.961 4.99585C130.156 4.99586 130.192 5.05627 130.19 5.23511C130.182 6.19117 130.179 7.14722 130.192 8.10327C130.195 8.31353 130.124 8.34253 129.938 8.34253C127.383 8.33686 124.828 8.34213 122.273 8.33472C122.075 8.33428 122.025 8.38179 122.028 8.57984C122.041 9.37837 122.038 10.1773 122.029 10.9763C122.028 11.1377 122.071 11.1794 122.232 11.1794C124.568 11.1742 126.904 11.1783 129.24 11.1726C129.417 11.1726 129.483 11.2046 129.48 11.4011C129.469 12.3438 129.472 13.2866 129.479 14.2292C129.481 14.3908 129.436 14.4304 129.276 14.4304C126.94 14.4256 124.604 14.4299 122.268 14.4216C122.064 14.4213 122.026 14.4777 122.028 14.6687C122.038 15.6658 122.038 16.6628 122.029 17.6599C122.028 17.8318 122.072 17.8718 122.242 17.8718C124.899 17.8657 127.557 17.8691 130.214 17.863C130.395 17.8627 130.45 17.9026 130.448 18.0935C130.438 19.0565 130.441 20.0191 130.446 20.9822C130.447 21.1305 130.426 21.1912 130.252 21.1912C126.201 21.1851 122.15 21.1851 118.1 21.1912C117.913 21.1916 117.879 21.1371 117.879 20.9626L117.883 13.0945C117.882 10.472 117.885 7.84884 117.878 5.22632C117.877 5.03089 117.937 4.99781 118.116 4.99781C122.064 5.0026 126.013 5.0024 129.961 4.99585ZM95.4414 13.072C95.441 10.4573 95.4433 7.84206 95.4385 5.2273C95.438 5.05857 95.4633 4.99515 95.6563 4.99683C96.8991 5.0073 98.1429 5.00532 99.3857 4.99878C99.542 4.99795 99.5888 5.03344 99.5889 5.19702C99.5845 10.4618 99.5841 15.7272 99.5889 20.9919C99.5888 21.1583 99.539 21.1911 99.3838 21.1902C98.1477 21.1836 96.9119 21.1823 95.6758 21.1902C95.4944 21.1911 95.4371 21.1531 95.4375 20.9597C95.4445 18.3306 95.4414 15.7011 95.4414 13.072Z" fill="#F6F6F6"/>
<path d="M136.562 1.76518C136.562 1.5811 136.566 1.39701 136.561 1.21293C136.556 1.06243 136.623 1.00311 136.77 1.00921C136.926 1.01576 137.083 1.00965 137.24 1.01401C137.457 1.02012 137.6 1.1427 137.671 1.3342C137.741 1.52483 137.721 1.72418 137.555 1.85722C137.442 1.94752 137.459 2.00641 137.532 2.09758C137.583 2.16083 137.627 2.23063 137.67 2.29999C137.709 2.36324 137.72 2.43434 137.653 2.4832C137.58 2.53685 137.506 2.51112 137.456 2.44481C137.377 2.34186 137.3 2.23717 137.237 2.12463C137.148 1.96453 137.004 2.0195 136.875 2.01863C136.821 2.01863 136.829 2.07577 136.828 2.11459C136.826 2.19617 136.829 2.27818 136.826 2.36019C136.824 2.44525 136.789 2.50981 136.695 2.5085C136.603 2.50675 136.564 2.44394 136.563 2.35844C136.561 2.16083 136.563 1.96279 136.563 1.76518C136.563 1.76518 136.563 1.76518 136.562 1.76518ZM136.832 1.52788C136.802 1.67925 136.817 1.7835 137.035 1.76562C137.31 1.74293 137.442 1.67925 137.442 1.50781C137.442 1.33769 137.322 1.28883 137.029 1.26353C136.795 1.24346 136.818 1.37346 136.832 1.52788Z" fill="white"/>
</g>
<defs>
<clipPath id="clip0_8099_10483">
<rect width="65.5367" height="40" fill="white" transform="translate(89)"/>
</clipPath>
</defs>
</svg>
