<svg width="220" height="40" viewBox="0 0 220 40" fill="none" xmlns="http://www.w3.org/2000/svg">
<g clip-path="url(#clip0_8099_10993)">
<g clip-path="url(#clip1_8099_10993)">
<g clip-path="url(#clip2_8099_10993)">
<mask id="mask0_8099_10993" style="mask-type:luminance" maskUnits="userSpaceOnUse" x="59" y="0" width="100" height="40">
<path d="M158.001 0H59.791V39.9968H158.001V0Z" fill="white"/>
</mask>
<g mask="url(#mask0_8099_10993)">
<path d="M75.1073 0H86.1706C86.1706 0.207578 86.1706 0.392155 86.1706 0.577292C86.1706 8.64702 86.1964 16.7167 86.1566 24.7865C86.1431 27.5456 85.6057 30.2302 84.5021 32.7793C83.1074 36.0014 80.7915 38.2035 77.3917 39.2268C74.2152 40.1827 71.0326 40.3353 67.8847 39.1945C63.7449 37.695 61.3202 34.6374 60.2604 30.4455C59.0626 25.7071 60.1723 21.5337 63.4167 17.8955C65.0409 16.0744 66.8305 14.4418 68.8036 13.009C70.4205 11.8353 70.8715 11.8415 72.2741 13.2255C74.5934 15.5145 76.7062 17.9813 78.1104 20.9497C79.081 23.0024 79.559 25.1747 79.09 27.4676C78.461 30.5416 75.9606 32.6504 72.9271 32.661C69.8639 32.6717 67.2524 30.5364 66.6067 27.4929C66.0002 24.6367 67.0515 21.9466 69.3798 20.3976C70.1063 19.914 70.9327 20.2501 71.041 21.1292C71.0718 21.3811 70.8631 21.7076 70.6814 21.9326C69.4112 23.5006 69.0275 25.2336 69.726 27.1417C70.3734 28.9105 72.0559 29.8745 73.6974 29.4783C74.7005 29.236 75.3025 28.547 75.6593 27.6309C76.2304 26.1621 76.0896 24.6922 75.5168 23.2673C74.489 20.7084 72.9254 18.4924 71.046 16.4896C70.7941 16.2208 70.5288 16.1137 70.1719 16.3218C67.561 17.8461 65.3113 19.7424 63.989 22.5312C61.9132 26.9066 63.2215 32.7833 67.9245 35.3747C69.988 36.5119 72.2197 36.6645 74.5002 36.2909C80.0589 35.3793 82.4701 31.2247 82.6182 26.6569C82.6917 24.3786 82.4544 22.1216 81.7133 19.9398C81.1371 18.2433 80.1985 16.7437 79.1584 15.312C76.7696 12.0238 75.6397 8.31321 75.3569 4.30751C75.2571 2.89376 75.1931 1.47717 75.1095 0.000561022L75.1073 0Z" fill="white"/>
<path d="M133.406 8.23798C133.406 7.67976 133.4 7.23487 133.407 6.78998C133.42 5.9692 133.735 5.64267 134.54 5.63593C135.651 5.62696 136.762 5.62641 137.874 5.63593C138.602 5.64267 138.843 5.87999 138.845 6.61326C138.859 13.9363 138.871 21.2593 138.878 28.5817C138.88 30.1087 138.858 31.6353 138.848 33.1625C138.842 34.0785 138.579 34.3525 137.677 34.3579C136.688 34.3643 135.697 34.3637 134.708 34.3579C133.904 34.3536 133.43 33.8794 133.408 33.0638C133.4 32.7545 133.407 32.4454 133.407 32.0647C132.799 32.3876 132.271 32.7142 131.707 32.9617C127.577 34.7761 123.406 35.0676 119.41 32.7473C115.31 30.3657 112.906 26.7186 112.383 21.9645C111.939 17.9206 112.751 14.1405 115.259 10.8647C117.528 7.90359 120.482 6.01352 124.272 5.66175C127.369 5.3745 130.227 6.10888 132.825 7.82955C132.982 7.93389 133.135 8.04667 133.406 8.2374L133.406 8.23798ZM133.614 21.3277C133.614 19.9751 133.626 18.6219 133.61 17.2699C133.594 15.7282 133.043 14.3924 131.966 13.2894C129.118 10.3738 123.95 10.2997 120.793 13.1194C117.67 15.9094 116.808 20.6898 118.869 24.3836C120.362 27.0603 122.594 28.7753 125.779 28.8365C128.627 28.8914 131.101 27.7284 133.412 26.1789C133.54 26.0925 133.603 25.8282 133.605 25.6459C133.62 24.2069 133.613 22.7673 133.613 21.3277H133.614Z" fill="white"/>
<path d="M141.708 19.8606C141.708 15.644 141.708 11.4274 141.708 7.21072C141.708 7.01996 141.708 6.82865 141.722 6.63846C141.768 5.94954 142.034 5.65613 142.728 5.64154C143.891 5.6174 145.054 5.61964 146.217 5.64154C146.786 5.65219 147.095 5.99386 147.136 6.56834C147.15 6.75852 147.144 6.94983 147.144 7.14059C147.144 13.8386 147.144 20.5367 147.144 27.2341C147.144 27.3727 147.141 27.5118 147.145 27.6504C147.175 28.6266 147.463 28.9211 148.442 28.9234C151.202 28.93 153.961 28.9251 156.722 28.9262C157.661 28.9262 157.944 29.1674 157.975 30.1061C158.008 31.1095 158.009 32.1167 157.973 33.1205C157.945 33.911 157.582 34.2166 156.771 34.22C154.671 34.229 152.57 34.2344 150.469 34.2344C148.022 34.2344 145.573 34.2255 143.125 34.2218C141.97 34.22 141.71 33.9743 141.709 32.8215C141.706 28.5009 141.708 24.1799 141.708 19.8595L141.708 19.8606Z" fill="white"/>
<path d="M105.468 15.5022C105.468 12.8154 105.463 10.1282 105.471 7.44144C105.474 6.44 105.783 6.13594 106.781 6.12414C107.753 6.11292 108.725 6.11292 109.696 6.12414C110.623 6.13536 110.904 6.40578 110.947 7.33315C110.972 7.86949 110.955 8.40805 110.955 8.9461C110.955 13.0741 110.968 17.2021 110.951 21.3301C110.94 23.8597 110.658 26.3462 109.537 28.6649C108.573 30.6587 107.256 32.3439 105.305 33.4671C104.358 34.0121 103.34 34.3344 102.238 34.3402C100.279 34.3502 98.3189 34.3597 96.3601 34.356C95.5802 34.3543 95.2743 34.0648 95.2596 33.2984C95.2389 32.2233 95.2352 31.1479 95.2565 30.0737C95.272 29.2826 95.6245 28.9399 96.4234 28.933C98.0009 28.92 99.5802 28.8961 101.156 28.9511C102.456 28.9966 103.396 28.4859 104.047 27.3863C104.849 26.0309 105.296 24.5705 105.302 22.9918C105.312 20.4953 105.468 18.5314 105.468 16.0349C105.523 16.0349 105.414 15.5022 105.468 15.5022Z" fill="white"/>
</g>
</g>
</g>
</g>
<defs>
<clipPath id="clip0_8099_10993">
<rect width="100" height="40" fill="white" transform="translate(59)"/>
</clipPath>
<clipPath id="clip1_8099_10993">
<rect width="100" height="40" fill="white" transform="translate(59)"/>
</clipPath>
<clipPath id="clip2_8099_10993">
<rect width="98.4173" height="40" fill="white" transform="translate(59.791)"/>
</clipPath>
</defs>
</svg>
