<svg width="220" height="40" viewBox="0 0 220 40" fill="none" xmlns="http://www.w3.org/2000/svg">
<g clip-path="url(#clip0_8099_11030)">
<path d="M110.244 0.659965C112.178 0.656465 114.113 0.653789 116.048 0.652189C116.277 0.651999 116.507 0.651801 116.736 0.6516C116.805 0.65154 116.805 0.65154 116.875 0.651479C117.61 0.65082 118.345 0.649621 119.081 0.648216C119.838 0.646782 120.595 0.645944 121.352 0.645637C121.776 0.645449 122.2 0.644999 122.624 0.643864C130.215 0.62417 130.215 0.62417 132.512 2.85222C133.658 4.00783 133.968 5.59284 133.965 7.16639C133.954 8.85636 133.287 10.2594 132.122 11.4721C131.823 11.7638 131.513 12.0146 131.157 12.2336C131.192 12.2472 131.228 12.2608 131.264 12.2748C131.916 12.536 132.503 12.8369 133.036 13.2996C133.065 13.3221 133.095 13.3446 133.126 13.3678C134.15 14.1584 134.645 15.5654 134.827 16.799C135.068 18.6931 134.721 20.7477 133.543 22.2843C133.398 22.4615 133.246 22.6277 133.086 22.7919C133.053 22.8286 133.02 22.8652 132.987 22.903C132.423 23.5086 131.7 23.9248 130.954 24.264C130.899 24.2904 130.844 24.3168 130.787 24.3439C129.583 24.8938 128.266 25.1404 126.96 25.2919C126.924 25.2962 126.888 25.3004 126.851 25.3047C125.747 25.4325 124.641 25.439 123.531 25.4374C123.334 25.4372 123.138 25.4373 122.941 25.4373C122.601 25.4374 122.262 25.4372 121.922 25.4369C121.432 25.4365 120.941 25.4364 120.45 25.4363C119.653 25.4362 118.856 25.4359 118.06 25.4354C117.287 25.4349 116.513 25.4345 115.74 25.4343C115.692 25.4343 115.645 25.4343 115.595 25.4343C115.356 25.4342 115.116 25.4342 114.876 25.4341C112.892 25.4336 110.908 25.4327 108.924 25.4315C108.924 25.398 108.924 25.3645 108.924 25.33C109.003 25.2605 109.085 25.1945 109.168 25.1301C109.673 24.7253 110.097 24.2637 110.497 23.7564C110.541 23.7033 110.585 23.6502 110.628 23.5972C113.576 19.9916 114.311 14.8536 113.898 10.3554C113.662 8.03331 113.103 5.70623 112.071 3.60413C112.037 3.53399 112.037 3.53399 112.002 3.46243C111.564 2.57831 111.06 1.76574 110.445 0.99507C110.361 0.884185 110.303 0.784164 110.244 0.659965ZM120.802 6.44677C120.855 6.74096 120.908 7.03465 120.971 7.32676C121.145 8.14861 121.277 8.96891 121.383 9.80215C121.388 9.84128 121.393 9.88042 121.398 9.92074C121.407 9.99428 121.416 10.0679 121.425 10.1414C121.444 10.2878 121.466 10.418 121.513 10.5584C121.814 10.561 122.115 10.5628 122.417 10.564C122.519 10.5645 122.621 10.5652 122.723 10.5661C123.235 10.5704 123.743 10.5698 124.252 10.5142C124.306 10.5084 124.306 10.5084 124.361 10.5025C125.014 10.4217 125.57 10.1697 125.996 9.6606C126.354 9.13684 126.404 8.53465 126.335 7.91885C126.251 7.52898 126.097 7.21168 125.765 6.9754C124.7 6.29913 123.33 6.43939 122.122 6.44359C121.993 6.44385 121.865 6.44408 121.737 6.44429C121.425 6.44484 121.114 6.44569 120.802 6.44677ZM121.462 15.127C121.45 15.2036 121.442 15.2806 121.434 15.3578C121.3 16.6562 121.017 17.9013 120.637 19.1477C120.597 19.2957 120.572 19.4427 120.548 19.594C121.048 19.5975 121.547 19.6002 122.047 19.6019C122.279 19.6027 122.511 19.6037 122.743 19.6055C122.968 19.6071 123.193 19.608 123.418 19.6084C123.503 19.6087 123.587 19.6092 123.672 19.6101C124.692 19.6197 125.76 19.5401 126.589 18.8833C126.621 18.8579 126.653 18.8325 126.687 18.8064C127.063 18.4734 127.215 17.9881 127.259 17.4985C127.271 16.9232 127.163 16.342 126.792 15.8884C125.991 15.0778 124.696 15.0784 123.633 15.0702C123.402 15.0692 123.172 15.0692 122.941 15.0696C122.761 15.0699 122.58 15.0696 122.4 15.0693C122.286 15.0693 122.172 15.0694 122.057 15.0695C122.003 15.0694 121.949 15.0693 121.894 15.0692C121.82 15.0694 121.82 15.0694 121.744 15.0696C121.7 15.0697 121.657 15.0697 121.612 15.0698C121.512 15.0653 121.512 15.0653 121.462 15.127Z" fill="white"/>
<path d="M98.0735 -0.0094976C98.1106 -0.00946693 98.1476 -0.00943626 98.1858 -0.00940466C99.8774 -0.00564985 101.55 0.181094 103.188 0.609157C103.233 0.620788 103.278 0.632419 103.324 0.644403C105.972 1.34531 108.343 2.94227 109.739 5.32362C110.561 6.77142 111.056 8.48426 111.056 10.1523C108.61 10.1523 106.164 10.1523 103.645 10.1523C103.544 9.78378 103.444 9.41525 103.34 9.03555C102.787 7.78492 101.932 6.88421 100.661 6.37078C100.127 6.1707 99.5436 6.06241 98.9746 6.04063C98.9399 6.0386 98.9053 6.03657 98.8697 6.03448C97.3398 5.98513 95.9029 6.62162 94.7838 7.6297C93.5848 8.77071 92.9238 10.5026 92.8742 12.1432C92.8729 12.2167 92.8718 12.2903 92.8711 12.3638C92.8706 12.4038 92.8701 12.4438 92.8696 12.4851C92.8608 13.383 92.8735 14.2489 93.0862 15.1269C93.0955 15.1662 93.1047 15.2054 93.1142 15.2459C93.3832 16.3534 93.9036 17.4137 94.7106 18.2234C94.7543 18.2674 94.798 18.3114 94.843 18.3568C95.8822 19.3875 97.2428 19.7594 98.6701 19.7588C99.8701 19.7457 101.053 19.3707 101.969 18.5787C102.007 18.5487 102.044 18.5186 102.083 18.4877C102.959 17.7575 103.46 16.666 103.711 15.5743C103.719 15.5394 103.727 15.5045 103.736 15.4685C103.807 15.1312 103.821 14.8194 103.848 14.467C106.277 14.467 108.706 14.467 111.208 14.467C111.208 16.2978 110.905 18.094 110.091 19.7462C110.072 19.7854 110.053 19.8247 110.034 19.8651C108.934 22.1129 107.065 23.8209 104.812 24.8731C104.78 24.8883 104.748 24.9034 104.715 24.919C102.808 25.8155 100.696 26.1535 98.6034 26.1548C98.5553 26.1549 98.5072 26.1549 98.4576 26.1549C96.2497 26.1525 94.0516 25.8197 92.0202 24.9239C91.9833 24.9079 91.9464 24.892 91.9084 24.8756C91.0889 24.5192 90.334 24.0583 89.6345 23.5026C89.5706 23.4542 89.5706 23.4542 89.5054 23.4048C88.4721 22.5998 87.647 21.5868 86.9949 20.4569C86.9741 20.4212 86.9534 20.3855 86.9321 20.3488C84.9355 16.8651 84.8042 12.2104 85.8369 8.39786C86.6194 5.64469 88.3257 3.14395 90.8527 1.72591C90.9097 1.69383 90.9097 1.69383 90.9679 1.66109C93.1446 0.44904 95.6002 -0.0133523 98.0735 -0.0094976Z" fill="white"/>
<path d="M75.5239 0.659912C78.2209 0.659912 80.9178 0.659912 83.6965 0.659912C83.7006 4.54951 83.7006 4.54951 83.7015 6.1817C83.7017 6.55521 83.7019 6.92871 83.7021 7.30221C83.7021 7.34901 83.7021 7.39582 83.7022 7.44404C83.7026 8.19658 83.7034 8.94911 83.7044 9.70165C83.7053 10.4757 83.7059 11.2498 83.7061 12.0239C83.7062 12.5004 83.7066 12.9769 83.7075 13.4533C83.708 13.7814 83.7082 14.1095 83.708 14.4376C83.708 14.6261 83.7081 14.8145 83.7086 15.0029C83.7176 18.216 83.3167 21.3501 81.0125 23.7659C80.5585 24.2051 80.0314 24.5626 79.4833 24.8731C79.4541 24.8897 79.425 24.9063 79.3949 24.9234C76.6953 26.4339 72.9484 26.4204 70.0426 25.6085C68.6657 25.2032 67.4702 24.5481 66.4376 23.5533C66.4018 23.5207 66.366 23.4881 66.3292 23.4546C65.1528 22.3522 64.5201 20.6828 64.2168 19.1371C64.2017 19.0604 64.2017 19.0604 64.1863 18.9822C64.0315 18.1471 63.9853 17.3211 63.9906 16.473C63.9916 16.3186 63.9917 16.1641 63.9917 16.0097C63.9919 15.9095 63.9922 15.8093 63.9926 15.7091C63.9926 15.6639 63.9927 15.6188 63.9927 15.5722C63.9951 15.2496 64.0224 14.9433 64.0518 14.6193C66.464 14.6193 68.8762 14.6193 71.3615 14.6193C71.3782 15.2726 71.395 15.9259 71.4123 16.599C71.4486 17.1091 71.4486 17.1091 71.5138 17.6142C71.5197 17.6525 71.5256 17.6908 71.5317 17.7302C71.6493 18.4449 71.8716 19.2127 72.4675 19.6744C72.9176 19.9623 73.4487 20.0021 73.9656 19.8908C74.4823 19.7285 74.8415 19.3767 75.102 18.9118C75.2089 18.6828 75.2742 18.4491 75.3336 18.2043C75.3419 18.1703 75.3502 18.1362 75.3587 18.1011C75.4792 17.5614 75.4808 17.0083 75.4812 16.4578C75.4814 16.3892 75.4817 16.3207 75.482 16.2521C75.4826 16.0654 75.483 15.8787 75.4833 15.6919C75.4838 15.4899 75.4845 15.2879 75.4851 15.0859C75.4862 14.7365 75.4871 14.3871 75.4879 14.0377C75.4891 13.5325 75.4905 13.0274 75.492 12.5222C75.4944 11.7024 75.4966 10.8827 75.4987 10.0629C75.5007 9.26694 75.5028 8.47093 75.505 7.67493C75.5052 7.62531 75.5053 7.57569 75.5055 7.52457C75.5065 7.13649 75.5076 6.74841 75.5087 6.36033C75.5141 4.46019 75.519 2.56005 75.5239 0.659912Z" fill="white"/>
<path d="M136.336 0.659912C139.033 0.659912 141.73 0.659912 144.509 0.659912C144.509 6.90814 144.509 13.1564 144.509 19.5939C148.194 19.5939 151.879 19.5939 155.676 19.5939C155.676 21.5203 155.676 23.4467 155.676 25.4315C149.294 25.4315 142.912 25.4315 136.336 25.4315C136.336 17.2569 136.336 9.08225 136.336 0.659912Z" fill="white"/>
<path d="M123.535 31.688C123.661 31.7985 123.784 31.9071 123.898 32.0304C123.898 32.0639 123.898 32.0974 123.898 32.132C123.943 32.0946 123.988 32.0572 124.034 32.0187C124.834 31.3636 125.652 31.0834 126.69 31.1675C127.316 31.2493 127.915 31.509 128.314 32.0114C128.853 32.764 128.896 33.5502 128.888 34.4428C128.887 34.5362 128.887 34.6297 128.887 34.7231C128.886 34.9666 128.885 35.2101 128.883 35.4536C128.881 35.7471 128.881 36.0406 128.88 36.334C128.878 36.7777 128.875 37.2213 128.873 37.6649C128.253 37.6649 127.633 37.6649 126.995 37.6649C126.992 37.4107 126.99 37.1564 126.987 36.8944C126.985 36.7325 126.983 36.5705 126.981 36.4086C126.978 36.1521 126.975 35.8955 126.973 35.639C126.971 35.432 126.969 35.225 126.966 35.0179C126.965 34.9393 126.965 34.8607 126.964 34.782C126.966 33.9475 126.966 33.9475 126.639 33.1979C126.362 32.9415 126.101 32.8393 125.726 32.8426C125.339 32.8939 125.012 32.9885 124.761 33.2995C124.424 33.8035 124.44 34.3904 124.435 34.9732C124.435 35.0511 124.434 35.129 124.432 35.2068C124.43 35.4104 124.428 35.6139 124.426 35.8174C124.424 36.0624 124.42 36.3074 124.417 36.5523C124.413 36.9232 124.409 37.2941 124.406 37.6649C123.786 37.6649 123.166 37.6649 122.528 37.6649C122.526 37.4082 122.524 37.1514 122.522 36.8869C122.52 36.7231 122.519 36.5593 122.517 36.3955C122.514 36.1362 122.512 35.8769 122.51 35.6176C122.509 35.4082 122.507 35.1989 122.504 34.9896C122.503 34.9102 122.503 34.8308 122.502 34.7514C122.508 33.9269 122.508 33.9269 122.172 33.1979C122.172 33.1644 122.172 33.1309 122.172 33.0964C121.763 32.884 121.373 32.7793 120.917 32.9015C120.581 33.0261 120.356 33.1895 120.193 33.512C119.952 34.0553 119.981 34.636 119.973 35.2211C119.972 35.292 119.971 35.3629 119.97 35.4338C119.967 35.6184 119.965 35.8031 119.962 35.9878C119.96 36.177 119.957 36.3662 119.954 36.5554C119.949 36.9253 119.944 37.2951 119.939 37.6649C119.319 37.6649 118.699 37.6649 118.061 37.6649C118.061 35.5543 118.061 33.4436 118.061 31.269C118.664 31.269 119.267 31.269 119.888 31.269C119.913 31.5705 119.913 31.5705 119.939 31.8781C119.993 31.8248 120.048 31.7714 120.104 31.7163C120.359 31.4929 120.635 31.3781 120.954 31.269C120.99 31.2564 121.027 31.2439 121.064 31.2309C121.878 31.0039 122.873 31.1635 123.535 31.688Z" fill="white"/>
<path d="M111.157 28.8325C111.794 28.8325 112.43 28.8325 113.086 28.8325C113.086 31.7472 113.086 34.662 113.086 37.665C112.483 37.665 111.88 37.665 111.259 37.665C111.234 37.3635 111.234 37.3635 111.208 37.0559C111.125 37.136 111.125 37.136 111.04 37.2177C110.543 37.6516 109.936 37.7868 109.292 37.7824C109.248 37.7821 109.203 37.7818 109.157 37.7815C108.221 37.7641 107.463 37.3937 106.811 36.7259C106.156 35.9344 106.015 34.9547 106.081 33.9594C106.169 33.1175 106.574 32.3885 107.198 31.8274C107.922 31.243 108.833 31.1115 109.736 31.1675C110.262 31.2422 110.695 31.4471 111.107 31.7767C111.123 30.8051 111.14 29.8335 111.157 28.8325ZM108.366 33.2995C108.003 33.7679 107.954 34.297 108.01 34.8731C108.115 35.3886 108.408 35.7401 108.829 36.0402C109.213 36.2469 109.665 36.2557 110.084 36.1598C110.599 35.974 110.868 35.6569 111.1 35.171C111.274 34.7292 111.262 34.2219 111.108 33.7756C110.911 33.3215 110.61 33.0037 110.158 32.7983C109.487 32.5781 108.83 32.7908 108.366 33.2995Z" fill="white"/>
<path d="M146.894 28.8325C147.531 28.8325 148.167 28.8325 148.823 28.8325C148.823 31.7472 148.823 34.662 148.823 37.665C148.22 37.665 147.617 37.665 146.996 37.665C146.979 37.4807 146.962 37.2965 146.945 37.1066C146.857 37.1757 146.857 37.1757 146.767 37.2462C146.071 37.7635 145.246 37.8667 144.399 37.7517C143.592 37.6056 142.867 37.1762 142.394 36.5044C141.832 35.6594 141.683 34.6255 141.878 33.6358C142.074 32.8508 142.466 32.1045 143.176 31.6717C144.021 31.1893 144.922 31.0218 145.876 31.2469C146.225 31.3515 146.581 31.5144 146.843 31.7767C146.86 30.8051 146.877 29.8335 146.894 28.8325ZM143.985 33.4423C143.703 33.9751 143.657 34.5582 143.82 35.1396C143.971 35.539 144.247 35.8725 144.629 36.0692C145.043 36.2333 145.554 36.2872 145.977 36.1136C146.401 35.8873 146.72 35.5563 146.881 35.1016C147.015 34.6152 147.007 34.0657 146.792 33.6041C146.531 33.1671 146.172 32.8688 145.676 32.7411C144.955 32.6536 144.439 32.8893 143.985 33.4423Z" fill="white"/>
<path d="M88.224 31.8623C88.8908 32.4179 89.2295 33.2152 89.3312 34.0609C89.3875 35.0736 89.1906 36.0153 88.5191 36.802C87.9553 37.3892 87.2281 37.7499 86.4087 37.7768C85.6012 37.7891 84.9495 37.68 84.3059 37.1573C84.3053 37.1922 84.3048 37.2271 84.3043 37.263C84.2988 37.6245 84.293 37.9859 84.287 38.3474C84.2848 38.4824 84.2826 38.6175 84.2806 38.7526C84.2777 38.9462 84.2745 39.1399 84.2712 39.3335C84.2699 39.4248 84.2699 39.4248 84.2686 39.5178C84.2676 39.5737 84.2666 39.6296 84.2655 39.6872C84.2647 39.7367 84.264 39.7861 84.2631 39.8371C84.2551 39.9492 84.2551 39.9492 84.2043 40C83.5845 40 82.9648 40 82.3262 40C82.3262 37.1188 82.3262 34.2375 82.3262 31.269C82.9292 31.269 83.5323 31.269 84.1536 31.269C84.1787 31.5705 84.1787 31.5705 84.2043 31.8782C84.2598 31.8248 84.3153 31.7714 84.3725 31.7164C85.4562 30.7722 87.1582 31.0714 88.224 31.8623ZM84.4423 33.4391C84.1662 33.9707 84.1299 34.5317 84.2773 35.1079C84.4202 35.5285 84.6885 35.8636 85.0863 36.0691C85.5002 36.2333 86.0111 36.2872 86.4347 36.1136C86.9032 35.8612 87.2138 35.4949 87.3674 34.9841C87.4698 34.4882 87.4399 33.9323 87.1828 33.4878C86.913 33.1097 86.5855 32.8574 86.1333 32.7411C85.4103 32.6533 84.903 32.8912 84.4423 33.4391Z" fill="white"/>
<path d="M104.224 31.8673C104.945 32.4821 105.282 33.2623 105.359 34.1974C105.378 34.4899 105.354 34.7247 105.32 35.0254C103.746 35.0422 102.171 35.0589 100.549 35.0762C100.818 35.6151 101.001 35.9167 101.57 36.1168C102.172 36.2737 102.772 36.2444 103.341 35.9899C103.52 35.8823 103.686 35.7652 103.848 35.6346C104.054 35.7146 104.181 35.8608 104.324 36.0216C104.349 36.0487 104.373 36.0758 104.399 36.1038C104.584 36.3107 104.753 36.5249 104.914 36.7513C104.385 37.356 103.624 37.6798 102.833 37.7666C101.639 37.8269 100.53 37.6849 99.5902 36.8796C98.9438 36.2667 98.6175 35.5279 98.5607 34.638C98.5533 33.6972 98.8164 32.816 99.4702 32.1193C100.737 30.9256 102.843 30.8003 104.224 31.8673ZM100.787 33.136C100.603 33.3772 100.498 33.6046 100.498 33.9087C101.503 33.9087 102.508 33.9087 103.544 33.9087C103.423 33.3669 103.274 33.1276 102.84 32.8034C102.179 32.422 101.291 32.5901 100.787 33.136Z" fill="white"/>
<path d="M73.5459 31.6922C74.0295 32.0658 74.3105 32.7079 74.4056 33.2995C74.4101 33.4432 74.4121 33.5855 74.4114 33.7291C74.4114 33.7717 74.4114 33.8143 74.4114 33.8582C74.4114 33.9986 74.411 34.1389 74.4106 34.2793C74.4105 34.3768 74.4104 34.4743 74.4104 34.5718C74.4102 34.8281 74.4097 35.0844 74.4091 35.3406C74.4086 35.6023 74.4084 35.864 74.4081 36.1256C74.4076 36.6388 74.4067 37.1519 74.4056 37.665C73.7858 37.665 73.1661 37.665 72.5275 37.665C72.5262 37.3967 72.5249 37.1283 72.5235 36.8519C72.5222 36.6809 72.5209 36.5099 72.5193 36.339C72.5169 36.0682 72.5147 35.7974 72.5137 35.5266C72.5129 35.3081 72.5112 35.0895 72.5088 34.871C72.508 34.788 72.5076 34.705 72.5076 34.622C72.5169 33.861 72.5169 33.861 72.1854 33.1988C71.901 32.9347 71.5902 32.8482 71.2077 32.8427C70.8426 32.8783 70.4721 32.9691 70.2065 33.2347C69.8109 33.7236 69.8135 34.2568 69.8111 34.8543C69.8103 34.9356 69.8094 35.0169 69.8084 35.0982C69.806 35.3107 69.8045 35.5233 69.8031 35.7358C69.8013 35.9916 69.7985 36.2474 69.7957 36.5031C69.7918 36.8904 69.7892 37.2777 69.7864 37.665C69.1498 37.665 68.5133 37.665 67.8574 37.665C67.8574 35.5544 67.8574 33.4437 67.8574 31.2691C68.4605 31.2691 69.0635 31.2691 69.6848 31.2691C69.71 31.5706 69.71 31.5706 69.7356 31.8782C69.7921 31.8332 69.8487 31.7882 69.9069 31.7418C70.99 30.9376 72.4316 30.9705 73.5459 31.6922Z" fill="white"/>
<path d="M139.685 31.6752C140.242 32.1499 140.513 32.727 140.599 33.4518C140.603 33.5947 140.605 33.7361 140.605 33.8789C140.605 33.9201 140.605 33.9612 140.605 34.0036C140.605 34.1385 140.604 34.2733 140.604 34.4082C140.604 34.5021 140.604 34.5961 140.604 34.69C140.604 34.9364 140.603 35.1829 140.602 35.4293C140.602 35.7254 140.602 36.0216 140.601 36.3177C140.601 36.7668 140.6 37.2159 140.599 37.665C139.979 37.665 139.359 37.665 138.721 37.665C138.718 37.4065 138.716 37.148 138.713 36.8816C138.711 36.7171 138.71 36.5526 138.708 36.3882C138.705 36.1275 138.702 35.8668 138.699 35.6062C138.698 35.3959 138.695 35.1855 138.693 34.9752C138.692 34.8953 138.691 34.8153 138.69 34.7354C138.69 33.8882 138.69 33.8882 138.315 33.1473C138.056 32.9074 137.743 32.8634 137.401 32.8427C136.983 32.8643 136.635 32.9838 136.348 33.2942C136.03 33.6945 135.976 34.1144 135.969 34.6165C135.969 34.6498 135.968 34.683 135.968 34.7172C135.966 34.8257 135.965 34.9342 135.964 35.0427C135.963 35.1184 135.962 35.1942 135.96 35.2699C135.958 35.4683 135.955 35.6666 135.953 35.865C135.95 36.1035 135.946 36.3421 135.943 36.5806C135.938 36.9421 135.934 37.3035 135.929 37.665C135.309 37.665 134.689 37.665 134.051 37.665C134.051 35.5544 134.051 33.4437 134.051 31.2691C134.654 31.2691 135.257 31.2691 135.878 31.2691C135.903 31.5706 135.903 31.5706 135.929 31.8782C135.992 31.8248 136.055 31.7714 136.119 31.7164C137.081 30.9705 138.709 30.9142 139.685 31.6752Z" fill="white"/>
<path d="M81.0564 31.726C80.8533 32.1829 80.6503 32.6397 80.4473 33.0966C80.2188 33.0244 80 32.9371 79.78 32.8428C79.3845 32.7042 79.0087 32.6732 78.5913 32.6746C78.516 32.6734 78.516 32.6734 78.4391 32.6721C78.0919 32.6719 77.7757 32.6976 77.4999 32.9316C77.4241 33.1135 77.4401 33.2155 77.5031 33.4011C77.9008 33.6819 78.4199 33.7233 78.8909 33.8021C79.7259 33.9432 80.5336 34.0906 81.0564 34.8224C81.2795 35.2767 81.3322 35.7541 81.2055 36.2469C81.0096 36.8183 80.6287 37.1624 80.103 37.4333C78.7925 38.0269 77.1958 37.8558 75.8787 37.3605C75.72 37.2847 75.5692 37.2029 75.4219 37.1067C75.5098 36.8218 75.6258 36.5514 75.7455 36.2787C75.7651 36.232 75.7847 36.1854 75.805 36.1374C75.8245 36.0931 75.844 36.0489 75.8641 36.0032C75.8815 35.9629 75.8989 35.9226 75.9169 35.881C75.9803 35.7869 75.9803 35.7869 76.0804 35.7446C76.2388 35.7316 76.3387 35.8001 76.4783 35.8726C76.9741 36.1123 77.5082 36.2701 78.0615 36.2945C78.0976 36.2966 78.1337 36.2986 78.1709 36.3007C78.5391 36.3117 78.9574 36.2832 79.2797 36.0915C79.3829 35.9418 79.4127 35.814 79.3813 35.6346C79.2137 35.4769 79.0786 35.4021 78.8546 35.3554C78.7972 35.3433 78.7397 35.3312 78.6805 35.3188C78.4668 35.278 78.2521 35.2426 78.0375 35.2067C76.3325 34.9206 76.3325 34.9206 75.828 34.2641C75.5527 33.7847 75.4997 33.2407 75.6346 32.7067C75.8285 32.1503 76.2231 31.7772 76.7353 31.5071C77.9651 30.9313 79.8923 30.9747 81.0564 31.726Z" fill="white"/>
<path d="M155.472 31.7258C155.269 32.1826 155.066 32.6395 154.863 33.0963C154.635 33.0242 154.416 32.9369 154.196 32.8425C153.8 32.704 153.425 32.673 153.007 32.6744C152.932 32.6732 152.932 32.6732 152.855 32.6719C152.508 32.6717 152.192 32.6974 151.916 32.9314C151.84 33.1133 151.856 33.2153 151.919 33.4009C152.317 33.6817 152.836 33.7231 153.307 33.8019C154.142 33.943 154.95 34.0904 155.472 34.8222C155.738 35.3624 155.736 35.8697 155.546 36.4373C155.265 37.0534 154.689 37.3738 154.087 37.6101C153.612 37.7484 153.141 37.7848 152.649 37.7823C152.563 37.7819 152.563 37.7819 152.475 37.7815C151.556 37.7688 150.625 37.608 149.838 37.1065C149.926 36.8216 150.042 36.5511 150.161 36.2785C150.181 36.2318 150.201 36.1852 150.221 36.1372C150.24 36.0929 150.26 36.0486 150.28 36.003C150.298 35.9627 150.315 35.9224 150.333 35.8808C150.396 35.7867 150.396 35.7867 150.496 35.7444C150.655 35.7314 150.755 35.7998 150.894 35.8724C151.39 36.1121 151.924 36.2698 152.477 36.2943C152.514 36.2963 152.55 36.2984 152.587 36.3005C152.987 36.3124 153.378 36.2489 153.747 36.0913C153.762 36.0197 153.775 35.9477 153.788 35.8755C153.799 35.8155 153.799 35.8155 153.811 35.7542C153.808 35.6229 153.808 35.6229 153.688 35.5226C153.542 35.4306 153.438 35.3901 153.271 35.3552C153.213 35.3431 153.156 35.331 153.097 35.3185C152.883 35.2778 152.668 35.2424 152.453 35.2065C150.747 34.9202 150.747 34.9202 150.244 34.2639C149.976 33.7898 149.907 33.2634 150.047 32.7347C150.24 32.1677 150.626 31.7851 151.148 31.5101C152.376 30.9292 154.308 30.9744 155.472 31.7258Z" fill="white"/>
<path d="M98.0609 31.1675C98.0609 31.7538 98.0609 32.3401 98.0609 32.9441C97.8264 32.9441 97.5919 32.9441 97.3503 32.9441C96.9274 33.0118 96.5551 33.1609 96.2843 33.5025C96.0947 33.8307 96.0249 34.13 96.0201 34.507C96.0196 34.5412 96.019 34.5754 96.0185 34.6106C96.0169 34.7232 96.0157 34.8358 96.0144 34.9484C96.0134 35.0267 96.0123 35.1049 96.0112 35.1831C96.0084 35.3887 96.0059 35.5944 96.0035 35.8C96.0005 36.0469 95.9971 36.2937 95.9938 36.5406C95.9888 36.9154 95.9843 37.2902 95.9797 37.6649C95.3432 37.6649 94.7066 37.6649 94.0508 37.6649C94.0508 35.5543 94.0508 33.4436 94.0508 31.269C94.6538 31.269 95.2569 31.269 95.8782 31.269C95.9033 31.5957 95.9033 31.5957 95.929 31.9289C95.9844 31.8755 96.0399 31.8221 96.0971 31.7671C96.6551 31.2825 97.3428 31.1675 98.0609 31.1675Z" fill="white"/>
<path d="M130.498 31.269C131.118 31.269 131.738 31.269 132.376 31.269C132.376 33.3797 132.376 35.4904 132.376 37.665C131.756 37.665 131.137 37.665 130.498 37.665C130.498 35.5543 130.498 33.4437 130.498 31.269Z" fill="white"/>
<path d="M90.498 31.269C91.1178 31.269 91.7376 31.269 92.3762 31.269C92.3762 33.3797 92.3762 35.4904 92.3762 37.665C91.7564 37.665 91.1366 37.665 90.498 37.665C90.498 35.5543 90.498 33.4437 90.498 31.269Z" fill="white"/>
<path d="M64.3047 31.269C64.9245 31.269 65.5443 31.269 66.1829 31.269C66.1829 33.3797 66.1829 35.4904 66.1829 37.665C65.5631 37.665 64.9433 37.665 64.3047 37.665C64.3047 35.5543 64.3047 33.4437 64.3047 31.269Z" fill="white"/>
<path d="M65.9067 28.4296C66.1547 28.5732 66.3306 28.7536 66.4165 29.0346C66.4811 29.365 66.4419 29.6538 66.2843 29.9493C66.1064 30.173 65.8994 30.328 65.6244 30.4062C65.255 30.4462 64.8677 30.4714 64.5405 30.2713C64.3423 30.1098 64.1829 29.9397 64.1015 29.6955C64.0663 29.327 64.0548 29.0145 64.2832 28.7098C64.6895 28.2577 65.3599 28.1804 65.9067 28.4296Z" fill="white"/>
<path d="M132.083 28.4182C132.354 28.5946 132.531 28.8189 132.608 29.1338C132.649 29.4406 132.626 29.6981 132.455 29.9611C132.28 30.1771 132.099 30.3563 131.818 30.406C131.405 30.4425 130.988 30.4763 130.65 30.203C130.389 29.96 130.262 29.7318 130.229 29.3718C130.263 28.9752 130.388 28.7588 130.69 28.4997C131.075 28.2502 131.665 28.2279 132.083 28.4182Z" fill="white"/>
<path d="M92.1006 28.4295C92.3486 28.573 92.5244 28.7534 92.6104 29.0344C92.6749 29.3649 92.6357 29.6536 92.4781 29.9491C92.3002 30.1728 92.0932 30.3278 91.8182 30.406C91.4453 30.4464 91.0605 30.4697 90.7308 30.2676C90.4964 30.0785 90.3147 29.8489 90.2765 29.5454C90.269 29.1697 90.2931 28.9142 90.5492 28.6293C90.9492 28.2396 91.6041 28.2032 92.1006 28.4295Z" fill="white"/>
<path d="M148.924 0.91363C149.217 1.15552 149.407 1.43184 149.445 1.81028C149.459 2.19297 149.408 2.47953 149.178 2.7918C148.891 3.07518 148.599 3.1991 148.197 3.21693C147.806 3.20738 147.526 3.09167 147.255 2.80767C147.011 2.50346 146.902 2.16656 146.944 1.77657C147.015 1.44627 147.143 1.18676 147.401 0.964391C147.908 0.643356 148.395 0.633221 148.924 0.91363ZM147.416 1.30941C147.251 1.54729 147.175 1.79205 147.198 2.08114C147.274 2.4311 147.415 2.63955 147.711 2.83959C147.939 2.96692 148.161 2.97343 148.416 2.94409C148.753 2.83894 148.955 2.64251 149.133 2.3405C149.23 2.11091 149.215 1.8472 149.143 1.6114C149.007 1.31366 148.822 1.13394 148.521 0.99929C148.101 0.905037 147.72 0.990606 147.416 1.30941Z" fill="white"/>
<path d="M147.654 1.31991C147.784 1.31677 147.914 1.31363 148.048 1.31039C148.109 1.30831 148.109 1.30831 148.171 1.30619C148.332 1.3043 148.448 1.30985 148.591 1.38733C148.706 1.51133 148.714 1.6108 148.72 1.77676C148.663 1.94735 148.622 1.97796 148.466 2.08133C148.488 2.11313 148.51 2.14493 148.533 2.1777C148.561 2.21919 148.59 2.26067 148.619 2.30341C148.647 2.34464 148.675 2.38586 148.704 2.42833C148.771 2.53819 148.771 2.53819 148.771 2.63971C148.638 2.66826 148.638 2.66826 148.466 2.63971C148.378 2.52965 148.31 2.41662 148.243 2.29271C148.156 2.15458 148.156 2.15458 147.908 2.08133C147.908 2.2656 147.908 2.44986 147.908 2.63971C147.824 2.63971 147.741 2.63971 147.654 2.63971C147.654 2.20417 147.654 1.76864 147.654 1.31991ZM147.908 1.52296C147.908 1.64022 147.908 1.75747 147.908 1.87829C148.178 1.89329 148.178 1.89329 148.416 1.77676C148.39 1.63684 148.39 1.63684 148.314 1.52296C148.179 1.51579 148.044 1.5208 147.908 1.52296Z" fill="white"/>
</g>
<defs>
<clipPath id="clip0_8099_11030">
<rect width="91.6751" height="40" fill="white" transform="translate(64)"/>
</clipPath>
</defs>
</svg>
