<svg width="220" height="40" viewBox="0 0 220 40" fill="none" xmlns="http://www.w3.org/2000/svg">
<g clip-path="url(#clip0_8105_6267)">
<path fill-rule="evenodd" clip-rule="evenodd" d="M184.255 20.6679V20.4136H179.894V20.6679H180.033C180.166 20.664 180.3 20.6869 180.425 20.735C180.55 20.7831 180.664 20.8556 180.761 20.9482C180.857 21.0409 180.935 21.1518 180.988 21.2746C181.042 21.3974 181.07 21.5296 181.072 21.6635V37.4407C181.071 37.5763 181.043 37.7102 180.991 37.8351C180.938 37.9599 180.861 38.0731 180.765 38.1683C180.668 38.2634 180.554 38.3386 180.428 38.3896C180.303 38.4406 180.168 38.4663 180.033 38.4654H179.894V38.727H184.255V38.4654H184.095C183.826 38.4615 183.569 38.3519 183.38 38.1602C183.191 37.9684 183.085 37.71 183.085 37.4407V21.6635C183.086 21.5318 183.113 21.4016 183.164 21.2803C183.215 21.159 183.29 21.0489 183.384 20.9565C183.477 20.864 183.588 20.791 183.711 20.7415C183.833 20.6919 183.963 20.667 184.095 20.6679H184.255ZM171.486 32.7606C171.486 31.656 170.556 30.7476 169.248 30.4351C170.556 30.0936 171.486 29.1706 171.486 28.0733V22.8699C171.486 21.5109 169.997 20.4136 168.187 20.4136H163.18V20.6679H163.318C163.452 20.664 163.585 20.6869 163.71 20.735C163.835 20.7831 163.949 20.8556 164.046 20.9482C164.143 21.0409 164.22 21.1518 164.273 21.2746C164.327 21.3974 164.355 21.5296 164.357 21.6635V37.4407C164.356 37.5763 164.329 37.7102 164.276 37.8351C164.223 37.9599 164.146 38.0731 164.05 38.1683C163.953 38.2634 163.839 38.3386 163.714 38.3896C163.588 38.4406 163.453 38.4663 163.318 38.4654H163.18V38.727H167.497V38.4654H167.337C167.068 38.4615 166.811 38.3519 166.622 38.1602C166.432 37.9684 166.327 37.71 166.327 37.4407V30.7476C166.325 30.7228 166.328 30.6979 166.336 30.6745C166.344 30.6512 166.357 30.6299 166.375 30.612C166.392 30.5941 166.413 30.58 166.436 30.5708C166.459 30.5616 166.484 30.5575 166.508 30.5586H168.158C168.885 30.5586 169.488 31.0019 169.488 31.5542V37.6006C169.489 37.7501 169.519 37.8979 169.578 38.0355C169.636 38.1732 169.721 38.298 169.828 38.4027C169.934 38.5074 170.061 38.59 170.199 38.6456C170.338 38.7013 170.486 38.7289 170.636 38.727H172.598V38.4654C172.299 38.4635 172.012 38.3447 171.799 38.1343C171.586 37.9238 171.463 37.6385 171.457 37.339V32.7606H171.486ZM166.537 30.297C166.487 30.2933 166.439 30.2699 166.405 30.232C166.372 30.194 166.354 30.1443 166.356 30.0935V20.8569C166.354 20.8321 166.357 20.8072 166.365 20.7839C166.373 20.7605 166.386 20.7392 166.404 20.7213C166.421 20.7034 166.442 20.6894 166.465 20.6802C166.488 20.671 166.513 20.6668 166.537 20.6679H168.187C168.914 20.6679 169.517 21.1185 169.517 21.6635V29.3087C169.517 29.8537 168.936 30.297 168.187 30.297H166.537ZM144.227 20.4136V24.258H144.576C144.576 24.258 144.227 20.6752 147.657 20.6752H148.384C148.487 20.6788 148.584 20.7213 148.657 20.7941C148.73 20.867 148.773 20.9647 148.776 21.0676V37.4479C148.777 37.583 148.751 37.717 148.699 37.8419C148.648 37.9667 148.572 38.08 148.475 38.1748C148.379 38.2697 148.265 38.3443 148.139 38.3942C148.014 38.4441 147.879 38.4683 147.744 38.4654H147.614V38.727H151.916V38.4654H151.792C151.656 38.4703 151.52 38.4476 151.393 38.3986C151.265 38.3495 151.149 38.2752 151.052 38.1801C150.954 38.0851 150.876 37.9712 150.824 37.8453C150.771 37.7195 150.745 37.5843 150.746 37.4479V21.0676C150.749 20.9635 150.793 20.8647 150.867 20.7917C150.941 20.7186 151.041 20.677 151.145 20.6752H151.872C155.295 20.6752 154.953 24.258 154.953 24.258H155.295V20.4136H144.227ZM132.374 20.4136L128.283 37.3898C128.214 37.6979 128.042 37.9731 127.794 38.169C127.547 38.3649 127.239 38.4695 126.924 38.4654H126.684V38.727H129.823V38.4654H129.533C129.398 38.4651 129.264 38.4347 129.142 38.3763C129.02 38.3179 128.913 38.233 128.828 38.1279C128.743 38.0228 128.682 37.9 128.651 37.7685C128.619 37.6371 128.618 37.5002 128.646 37.368L129.722 32.8914H133.835L134.896 37.368C134.928 37.4994 134.93 37.6365 134.901 37.7686C134.872 37.9008 134.813 38.0246 134.729 38.1305C134.645 38.2364 134.537 38.3216 134.415 38.3797C134.293 38.4377 134.159 38.467 134.024 38.4654H133.973V38.727H138.253V38.4654C137.941 38.4614 137.638 38.3536 137.393 38.1589C137.149 37.9641 136.976 37.6936 136.901 37.3898L132.883 20.4136H132.374ZM133.784 32.6297H129.751L131.771 24.2507L133.74 32.6297H133.784ZM119.01 34.5629C119.01 34.5629 119.373 38.4654 115.943 38.4654H114.272C114.217 38.4644 114.164 38.4527 114.114 38.4309C114.065 38.4091 114.02 38.3777 113.983 38.3385C113.946 38.2992 113.917 38.253 113.898 38.2024C113.879 38.1518 113.87 38.0979 113.872 38.0439V21.6635C113.873 21.5318 113.899 21.4016 113.951 21.2803C114.002 21.159 114.077 21.0489 114.17 20.9565C114.264 20.864 114.376 20.791 114.498 20.7415C114.62 20.6919 114.75 20.667 114.882 20.6679H115.042V20.4136H110.725V20.6679H110.863C110.997 20.664 111.13 20.6869 111.255 20.735C111.38 20.7831 111.494 20.8556 111.591 20.9482C111.688 21.0409 111.765 21.1518 111.818 21.2746C111.872 21.3974 111.9 21.5296 111.902 21.6635V37.4407C111.901 37.5763 111.874 37.7102 111.821 37.8351C111.768 37.9599 111.691 38.0731 111.595 38.1683C111.498 38.2634 111.384 38.3386 111.259 38.3896C111.133 38.4406 110.998 38.4663 110.863 38.4654H110.725V38.727H119.373V34.5629H119.01ZM97.7748 20.4136L93.6834 37.3898C93.6162 37.6986 93.444 37.9745 93.1962 38.1707C92.9484 38.3668 92.6403 38.4709 92.3244 38.4654H92.0845V38.727H95.2242V38.4654H94.9332C94.7978 38.4667 94.6638 38.4373 94.5414 38.3793C94.419 38.3213 94.3114 38.2362 94.2267 38.1305C94.142 38.0248 94.0824 37.9012 94.0525 37.7691C94.0225 37.6371 94.023 37.4999 94.0539 37.368L95.1223 32.8914H99.2282L100.289 37.368C100.321 37.4994 100.323 37.6365 100.294 37.7686C100.265 37.9008 100.206 38.0246 100.122 38.1305C100.038 38.2364 99.9306 38.3216 99.8084 38.3797C99.6862 38.4377 99.5523 38.467 99.417 38.4654H99.3663V38.727H103.647V38.4654C103.334 38.4614 103.032 38.3536 102.787 38.1589C102.542 37.9641 102.369 37.6936 102.295 37.3898L98.2762 20.4136H97.7748ZM99.1846 32.6297H95.1951L97.2152 24.2507L99.1846 32.6297ZM83.3422 37.3099L79.5631 27.3174L81.9831 21.9251C82.1583 21.5503 82.4363 21.233 82.7851 21.0104C83.1338 20.7878 83.5388 20.669 83.9525 20.6679V20.4136H80.7841V20.6679H80.8714C81.0087 20.6676 81.1439 20.7015 81.2649 20.7664C81.3859 20.8313 81.4887 20.9253 81.5644 21.0399C81.6401 21.1545 81.686 21.2861 81.6982 21.4228C81.7104 21.5596 81.6885 21.6972 81.6343 21.8234L78.2842 28.9961V21.6853C78.2832 21.5515 78.3086 21.4187 78.3594 21.2948C78.4102 21.171 78.4851 21.0584 78.5798 20.9638C78.6745 20.8691 78.787 20.7942 78.9109 20.7434C79.0347 20.6926 79.1677 20.6669 79.3015 20.6679H79.4541V20.4136H75.1445V20.6679H75.2826C75.418 20.665 75.553 20.6892 75.6789 20.7391C75.8049 20.7889 75.9196 20.8633 76.0164 20.9581C76.1132 21.0529 76.1899 21.166 76.2424 21.2909C76.2949 21.4158 76.3219 21.5499 76.3219 21.6853V37.4407C76.3239 37.5771 76.2984 37.7124 76.2467 37.8386C76.195 37.9648 76.1181 38.0792 76.021 38.1749C75.9239 38.2707 75.8087 38.3458 75.6818 38.3957C75.5549 38.4456 75.4189 38.4693 75.2826 38.4654H75.1445V38.727H79.4541V38.4654H79.3015C79.1677 38.4654 79.0351 38.4388 78.9116 38.3871C78.7881 38.3354 78.6759 38.2597 78.5819 38.1644C78.4879 38.069 78.4139 37.9559 78.364 37.8317C78.3141 37.7074 78.2894 37.5746 78.2913 37.4407V29.563L81.4235 37.5569C81.4557 37.6628 81.4634 37.7747 81.4459 37.8839C81.4283 37.9932 81.3858 38.097 81.322 38.1874C81.2582 38.2778 81.1746 38.3525 81.0775 38.4057C80.9805 38.4589 80.8726 38.4893 80.7621 38.4944V38.7561H85.0717V38.4944C84.7045 38.4971 84.345 38.388 84.0412 38.1817C83.7375 37.9753 83.504 37.6814 83.3713 37.339L83.3422 37.3099Z" fill="white"/>
<path fill-rule="evenodd" clip-rule="evenodd" d="M37.3015 19.1636C37.3015 19.1636 36.4729 19.8903 37.563 20.7696C37.6516 20.6471 37.7152 20.5083 37.75 20.3612C37.7848 20.214 37.7903 20.0614 37.766 19.9122C37.7417 19.763 37.6881 19.62 37.6084 19.4915C37.5287 19.3631 37.4244 19.2516 37.3015 19.1636Z" fill="white"/>
<path fill-rule="evenodd" clip-rule="evenodd" d="M35.9381 20.2318C36.0814 20.1841 36.2137 20.1087 36.3278 20.0099C36.4418 19.9111 36.5353 19.7907 36.6028 19.6557C36.6703 19.5207 36.7103 19.3738 36.7209 19.2232C36.7316 19.0727 36.7127 18.9215 36.6649 18.7783C36.6649 18.7783 35.5602 18.8801 35.9381 20.2318Z" fill="white"/>
<path fill-rule="evenodd" clip-rule="evenodd" d="M37.1527 16.0167C37.1527 16.0167 37.0655 14.9266 35.6992 15.29C35.8017 15.5747 36.0098 15.809 36.2805 15.9443C36.5511 16.0796 36.8634 16.1055 37.1527 16.0167Z" fill="white"/>
<path fill-rule="evenodd" clip-rule="evenodd" d="M35.2771 16.0098C35.2771 16.0098 35.7276 15.007 34.3687 14.6509C34.3108 14.9514 34.3736 15.2626 34.5436 15.517C34.7137 15.7714 34.9773 15.9484 35.2771 16.0098Z" fill="white"/>
<path fill-rule="evenodd" clip-rule="evenodd" d="M38.7226 13.6769C38.7226 13.6769 39.1075 12.6449 37.7195 12.3833C37.6824 12.6876 37.7669 12.9942 37.9547 13.2364C38.1426 13.4787 38.4187 13.637 38.7226 13.6769Z" fill="white"/>
<path fill-rule="evenodd" clip-rule="evenodd" d="M38.366 12.0633C38.366 12.0633 38.9401 11.1258 37.6393 10.6099C37.5904 10.753 37.5705 10.9043 37.5807 11.0552C37.5909 11.2061 37.6309 11.3534 37.6985 11.4886C37.7661 11.6239 37.86 11.7443 37.9746 11.843C38.0892 11.9416 38.2222 12.0165 38.366 12.0633Z" fill="white"/>
<path fill-rule="evenodd" clip-rule="evenodd" d="M39.3333 11.4019C39.2164 11.4984 39.1201 11.6175 39.0501 11.7519C38.9801 11.8863 38.9377 12.0335 38.9256 12.1846C38.9134 12.3356 38.9316 12.4876 38.9791 12.6316C39.0267 12.7755 39.1025 12.9084 39.2023 13.0224C39.2023 13.0224 40.1835 12.5065 39.3333 11.4019Z" fill="white"/>
<path fill-rule="evenodd" clip-rule="evenodd" d="M43.1259 15.4134C43.1259 15.4134 42.7846 14.3669 41.5273 14.9847C41.6851 15.2507 41.9408 15.4445 42.2395 15.5246C42.5383 15.6048 42.8562 15.5648 43.1259 15.4134Z" fill="white"/>
<path fill-rule="evenodd" clip-rule="evenodd" d="M38.9089 15.2535C38.9089 15.2535 39.1052 14.1707 37.6953 14.1416C37.7122 14.4488 37.8485 14.7371 38.0754 14.9449C38.3022 15.1527 38.6014 15.2635 38.9089 15.2535Z" fill="white"/>
<path fill-rule="evenodd" clip-rule="evenodd" d="M39.4477 14.389C39.4477 14.389 40.545 14.1929 40.0726 12.8848C39.9325 12.9421 39.8049 13.0266 39.6975 13.1333C39.5902 13.2401 39.5051 13.3671 39.447 13.5069C39.3889 13.6467 39.3593 13.7967 39.3594 13.9481C39.3595 14.0995 39.3895 14.2493 39.4477 14.389Z" fill="white"/>
<path fill-rule="evenodd" clip-rule="evenodd" d="M40.7934 15.9732C40.7934 15.9732 41.5204 15.1374 40.314 14.418C40.243 14.5515 40.1991 14.6978 40.1848 14.8483C40.1705 14.9989 40.186 15.1507 40.2306 15.2952C40.2752 15.4397 40.348 15.574 40.4446 15.6904C40.5412 15.8067 40.6595 15.9028 40.7934 15.9732Z" fill="white"/>
<path fill-rule="evenodd" clip-rule="evenodd" d="M39.137 15.8569C39.137 15.8569 38.1778 15.3046 37.6836 16.5836C37.9728 16.6725 38.2852 16.6465 38.5558 16.5112C38.8264 16.3759 39.0346 16.1416 39.137 15.8569Z" fill="white"/>
<path fill-rule="evenodd" clip-rule="evenodd" d="M34.0195 16.8235C34.206 17.0697 34.4812 17.2335 34.7867 17.2796C35.0922 17.3258 35.4037 17.2508 35.6547 17.0706C35.6547 17.0706 35.1968 16.0677 34.0195 16.8235Z" fill="white"/>
<path fill-rule="evenodd" clip-rule="evenodd" d="M44.1199 9.36698C44.1199 9.36698 44.3669 8.29863 42.957 8.21143C42.9608 8.51796 43.0849 8.81077 43.3023 9.02686C43.5197 9.24295 43.8133 9.3651 44.1199 9.36698Z" fill="white"/>
<path fill-rule="evenodd" clip-rule="evenodd" d="M44.1217 10.2611C44.1217 10.2611 43.7511 9.22915 42.5156 9.89773C42.6827 10.1562 42.9443 10.3389 43.2445 10.4068C43.5447 10.4748 43.8596 10.4225 44.1217 10.2611Z" fill="white"/>
<path fill-rule="evenodd" clip-rule="evenodd" d="M46.5125 8.99658C46.2064 9.02073 45.9224 9.16493 45.7223 9.39773C45.5221 9.63054 45.4224 9.93304 45.4444 10.2393C45.4444 10.2393 46.5561 10.3846 46.5125 8.99658Z" fill="white"/>
<path fill-rule="evenodd" clip-rule="evenodd" d="M49.6012 11.5983C49.6012 11.5983 49.9792 10.5663 48.5984 10.3047C48.5613 10.609 48.6458 10.9156 48.8337 11.1578C49.0215 11.4001 49.2973 11.5584 49.6012 11.5983Z" fill="white"/>
<path fill-rule="evenodd" clip-rule="evenodd" d="M48.2695 8.69183C48.4047 8.96754 48.6418 9.18003 48.9306 9.28442C49.2194 9.38882 49.5371 9.37697 49.8174 9.25142C49.8174 9.25142 49.5776 8.17586 48.2695 8.69183Z" fill="white"/>
<path fill-rule="evenodd" clip-rule="evenodd" d="M45.7969 12.8483C45.7969 12.8483 46.4509 13.7349 47.4466 12.7465C47.2125 12.5452 46.9091 12.4432 46.601 12.4622C46.2928 12.4812 46.0044 12.6197 45.7969 12.8483Z" fill="white"/>
<path fill-rule="evenodd" clip-rule="evenodd" d="M44.2798 5.58822C44.2798 5.58822 44.636 4.55628 43.2479 4.32373C43.2175 4.62818 43.3089 4.93227 43.5024 5.16933C43.6958 5.40638 43.9754 5.55703 44.2798 5.58822Z" fill="white"/>
<path fill-rule="evenodd" clip-rule="evenodd" d="M48.2191 2.12158C48.0675 2.1308 47.9193 2.17003 47.783 2.23691C47.6467 2.30379 47.525 2.39698 47.425 2.5112C47.3249 2.62542 47.2487 2.7584 47.2003 2.90233C47.152 3.04626 47.1327 3.19835 47.1436 3.34979C47.1436 3.34979 48.2409 3.50962 48.2191 2.12158Z" fill="white"/>
<path fill-rule="evenodd" clip-rule="evenodd" d="M44.8851 6.8457C44.8109 6.9776 44.7634 7.12297 44.746 7.27329C44.7285 7.42361 44.7409 7.57588 44.7829 7.72128C44.8248 7.86669 44.8952 8.0023 44.9901 8.12022C45.0849 8.23814 45.2023 8.33604 45.3354 8.40818C45.3354 8.40818 46.0623 7.59423 44.8851 6.8457Z" fill="white"/>
<path fill-rule="evenodd" clip-rule="evenodd" d="M47.5078 4.32367C47.5078 4.32367 48.3506 5.05038 49.0918 3.85856C48.8192 3.71467 48.5013 3.68282 48.2054 3.76967C47.9096 3.85651 47.6594 4.05522 47.5078 4.32367Z" fill="white"/>
<path fill-rule="evenodd" clip-rule="evenodd" d="M54.2956 2.57959C54.0076 2.6774 53.7699 2.8849 53.6339 3.15701C53.4978 3.42912 53.4743 3.74389 53.5689 4.03304C53.5689 4.03304 54.6808 3.88769 54.2956 2.57959Z" fill="white"/>
<path fill-rule="evenodd" clip-rule="evenodd" d="M52.5734 3.72775C52.5734 3.72775 52.2902 2.6667 51.0039 3.23354C51.1492 3.50462 51.3947 3.70814 51.688 3.80049C51.9814 3.89285 52.299 3.86673 52.5734 3.72775Z" fill="white"/>
<path fill-rule="evenodd" clip-rule="evenodd" d="M45.3075 3.93164C45.176 4.00633 45.0607 4.10631 44.9679 4.22572C44.8752 4.34512 44.8069 4.48164 44.7671 4.62749C44.7272 4.77334 44.7167 4.9256 44.7358 5.07557C44.755 5.22554 44.8036 5.37024 44.8788 5.50139C44.8788 5.50139 45.947 5.16707 45.3075 3.93164Z" fill="white"/>
<path fill-rule="evenodd" clip-rule="evenodd" d="M43.4302 7.45614C43.4302 7.45614 44.5419 7.45614 44.3311 6.09717C44.1824 6.12664 44.0412 6.18522 43.9152 6.26962C43.7893 6.35402 43.6811 6.46255 43.5973 6.58889C43.5135 6.71524 43.4557 6.8569 43.427 7.00575C43.3982 7.15459 43.3995 7.30769 43.4302 7.45614Z" fill="white"/>
<path fill-rule="evenodd" clip-rule="evenodd" d="M46.4625 1.11914C46.3543 1.22534 46.2684 1.35207 46.2098 1.49182C46.1512 1.63156 46.1211 1.78152 46.1211 1.93307C46.1211 2.08461 46.1512 2.23466 46.2098 2.37441C46.2684 2.51415 46.3543 2.6408 46.4625 2.74699C46.4625 2.74699 47.4072 2.16562 46.4625 1.11914Z" fill="white"/>
<path fill-rule="evenodd" clip-rule="evenodd" d="M53.163 1.40234C53.0459 1.49846 52.9492 1.61691 52.8784 1.7508C52.8076 1.88469 52.7642 2.03136 52.7507 2.1822C52.7371 2.33305 52.7538 2.48505 52.7996 2.6294C52.8455 2.77375 52.9198 2.90751 53.0179 3.02292C53.0179 3.02292 54.006 2.51423 53.163 1.40234Z" fill="white"/>
<path fill-rule="evenodd" clip-rule="evenodd" d="M51.3719 5.96614C51.3719 5.96614 51.9315 5.0214 50.6452 4.5127C50.5974 4.65584 50.5781 4.80703 50.5888 4.95758C50.5994 5.10813 50.6398 5.25506 50.7073 5.39005C50.7748 5.52504 50.8683 5.64543 50.9823 5.74427C51.0964 5.84312 51.2287 5.91852 51.3719 5.96614Z" fill="white"/>
<path fill-rule="evenodd" clip-rule="evenodd" d="M55.2983 32.6586C55.1384 32.5569 54.9786 32.4406 54.826 32.3316L54.3175 31.9828C54.0465 31.758 53.703 31.6391 53.3509 31.6485C53.2858 31.6686 53.2252 31.7014 53.1728 31.7451C53.1204 31.7887 53.0773 31.8423 53.0458 31.9028C52.8859 32.1935 53.0458 32.7604 53.4382 33.4944C54.017 34.4152 54.919 35.0865 55.9672 35.3766C55.8562 35.0861 55.7685 34.7872 55.7053 34.4827C55.1167 34.2065 54.201 33.6542 54.2519 33.2109C54.2519 33.1092 54.332 32.9348 54.6518 32.9348C54.969 32.9636 55.2787 33.0471 55.5673 33.1818C55.5673 33.0583 55.5673 32.942 55.5673 32.8185C55.4707 32.7735 55.3784 32.72 55.2912 32.6586H55.2983Z" fill="white"/>
<path fill-rule="evenodd" clip-rule="evenodd" d="M54.5556 33.1313C54.4684 33.1313 54.4466 33.1967 54.4466 33.233C54.4103 33.5165 55.1226 33.9598 55.6531 34.2505C55.6168 33.9671 55.5949 33.6836 55.5804 33.3929C55.2889 33.2483 54.974 33.1573 54.6503 33.124L54.5556 33.1313Z" fill="white"/>
<path fill-rule="evenodd" clip-rule="evenodd" d="M50.6633 29.3813C50.7051 29.5293 50.7611 29.6729 50.8304 29.8101C50.9597 29.3989 50.987 28.9625 50.9102 28.5384C50.8389 28.103 50.6727 27.6887 50.4234 27.3247C50.403 27.6877 50.3618 28.0492 50.2999 28.4075C50.2959 28.4413 50.2959 28.4755 50.2999 28.5093C50.3871 28.6764 50.4671 28.8435 50.5543 29.0179C50.6042 29.1359 50.6454 29.2574 50.6778 29.3813H50.6633Z" fill="white"/>
<path fill-rule="evenodd" clip-rule="evenodd" d="M49.8469 25.4206C49.9984 25.561 50.1349 25.7169 50.2539 25.8857V25.9438C50.8116 26.3346 51.2354 26.8879 51.4675 27.5281C51.6657 28.3476 51.6856 29.2001 51.5257 30.028C51.5257 30.1225 51.5257 30.2242 51.5257 30.326C51.3077 32.3899 52.9793 34.4755 54.7598 35.631C55.239 35.926 55.748 36.1696 56.2785 36.3577L56.4602 36.4159C56.3148 36.1325 56.184 35.8563 56.0677 35.5656C54.9104 35.2891 53.9082 34.5687 53.2772 33.5599C52.9647 33.0003 52.6451 32.2373 52.8922 31.7794C52.9351 31.6951 52.9953 31.621 53.0693 31.5621C53.1432 31.5032 53.2291 31.4608 53.3209 31.4379C53.7261 31.4057 54.1279 31.5336 54.44 31.794C54.6144 31.903 54.7888 32.0265 54.956 32.1428L55.4212 32.4698L55.5809 32.5643C55.5756 32.2599 55.549 31.9564 55.501 31.6558C55.0092 31.2754 54.5862 30.8132 54.2509 30.2896C53.8241 29.6346 53.5599 28.8872 53.4805 28.1094C53.4444 27.564 53.4836 27.0163 53.5969 26.4816C53.7931 25.268 53.9166 24.0907 52.95 23.4802C52.4142 23.1931 51.8389 22.9874 51.2425 22.8698L50.9445 22.7971C50.4782 22.673 50.0358 22.4715 49.6361 22.2012L49.6727 22.2738C49.6364 24.0107 49.4254 24.643 49.8615 25.4206H49.8469Z" fill="white"/>
<path fill-rule="evenodd" clip-rule="evenodd" d="M50.2233 34.4686C50.1585 35.0777 49.9679 35.6666 49.6637 36.1982C49.7146 36.2346 49.751 36.2782 49.7946 36.3145C49.848 36.3835 49.9164 36.4395 49.9944 36.4785C50.0724 36.5175 50.1581 36.5384 50.2453 36.5398C50.4217 36.5162 50.5898 36.4505 50.7353 36.348C50.8808 36.2455 50.9994 36.1094 51.081 35.9512C51.3307 35.3018 51.4215 34.6022 51.3457 33.9106C51.2698 33.2191 51.0294 32.5558 50.6448 31.976C50.1848 31.4994 49.9049 30.8777 49.8528 30.2173C49.8528 30.072 49.8528 29.9267 49.8528 29.7886C49.7554 30.024 49.6778 30.2671 49.6204 30.5153C49.3661 31.867 50.3468 33.0879 50.2378 34.4323L50.2233 34.4686Z" fill="white"/>
<path fill-rule="evenodd" clip-rule="evenodd" d="M53.0144 38.4726C52.5802 38.1633 52.0574 38.0027 51.5244 38.0148C50.8376 38.0496 50.1802 38.3044 49.6494 38.7415C49.2137 39.071 48.721 39.3173 48.196 39.4682C47.8187 39.5317 47.4326 39.5144 47.0626 39.4174C46.7886 39.3537 46.5079 39.322 46.2266 39.3229C46.5536 39.4034 46.8707 39.5204 47.1715 39.6717C47.9779 39.997 48.8611 40.0828 49.715 39.9188C50.6525 39.7517 51.4154 39.3011 52.4037 39.4901C52.975 39.6528 53.5693 39.7215 54.1627 39.6936C54.3327 39.6687 54.5004 39.6298 54.6641 39.5773C54.4461 39.4319 54.2352 39.272 54.0172 39.1194C53.7992 38.9668 53.3487 38.6398 53.0144 38.3927V38.4726Z" fill="white"/>
<path fill-rule="evenodd" clip-rule="evenodd" d="M62.3981 38.7415C62.1907 38.5175 61.9445 38.3328 61.6714 38.1965C61.2988 38.0543 60.8975 38.0045 60.5014 38.0512C60.1473 38.118 59.8047 38.2354 59.4841 38.4L59.0842 38.5817L58.9462 38.6325C58.7885 38.7089 58.6229 38.7674 58.4522 38.8069H58.2414H58.1758C58.4082 38.909 58.6523 38.9823 58.9025 39.025C59.1496 39.025 59.4039 39.0831 59.6292 39.1122H59.6803C59.9223 39.1281 60.1651 39.1281 60.407 39.1122C60.6178 39.1122 60.8286 39.1122 61.0248 39.1122C61.2401 39.1313 61.4537 39.1653 61.6643 39.2139C61.8241 39.2502 61.9767 39.2866 62.1366 39.3084C62.3252 39.3231 62.5149 39.3231 62.7036 39.3084C62.8635 39.3084 63.0087 39.3083 63.1614 39.2647C63.0305 39.1848 62.9068 39.1049 62.776 39.0104C62.6382 38.8996 62.5072 38.7807 62.3835 38.6543L62.3981 38.7415Z" fill="white"/>
<path fill-rule="evenodd" clip-rule="evenodd" d="M50.6022 11.3439C50.7979 11.0334 50.8967 10.6715 50.8858 10.3046C50.7965 9.83219 50.5382 9.40847 50.159 9.11279L50.1008 9.05469C50.2491 9.39022 50.3495 9.74491 50.3989 10.1084C50.4781 10.7238 50.3718 11.3488 50.0938 11.9035C50.2933 11.7508 50.4609 11.5607 50.5877 11.3439H50.6022Z" fill="white"/>
<path fill-rule="evenodd" clip-rule="evenodd" d="M61.9614 37.6586C61.0457 36.8665 60.2899 37.6586 59.2216 37.6586C58.1534 37.6586 57.3828 38.3199 56.7796 37.1063L56.5617 36.6848C56.4236 36.6412 56.3001 36.6048 56.1984 36.5612C55.6462 36.368 55.1191 36.1095 54.6285 35.791C52.8117 34.6064 51.0821 32.4553 51.3146 30.3042C51.3146 30.2024 51.3146 30.1079 51.3146 30.0062C51.469 29.2077 51.4541 28.3858 51.271 27.5935C51.082 27.069 50.753 26.6065 50.3193 26.2563C50.3615 26.4965 50.3855 26.7394 50.3917 26.9831C50.7423 27.4273 50.9774 27.9517 51.0751 28.5092C51.0751 28.7127 51.2057 29.7373 50.8569 30.028L50.7841 30.0861L50.7188 30.028C50.5851 29.8524 50.4931 29.6486 50.4499 29.4321C50.4178 29.3152 50.3766 29.2009 50.3264 29.0905C50.2828 28.9888 50.2318 28.8871 50.1809 28.7853C50.1373 28.9161 50.0937 29.0469 50.0429 29.1777C50.0138 29.5138 50.0138 29.8518 50.0429 30.1879C50.0803 30.809 50.338 31.3965 50.7696 31.8448C51.1904 32.3822 51.4432 33.032 51.4963 33.7125C51.6849 34.4982 51.5871 35.3254 51.2202 36.0453C51.1197 36.2309 50.9763 36.3898 50.8019 36.5086C50.6274 36.6275 50.427 36.7028 50.2174 36.7284C50.106 36.7251 49.9966 36.6982 49.8963 36.6493C49.7961 36.6005 49.7071 36.5308 49.6359 36.4449L49.5489 36.365C48.6789 36.282 47.8289 36.0536 47.0345 35.6892C45.7046 35.195 44.7307 36.3577 44.0403 37.3679C43.7128 37.8627 43.3107 38.304 42.8484 38.676C43.1542 38.6544 43.4542 38.5807 43.7351 38.458C43.9997 38.3228 44.2443 38.1517 44.4619 37.9493C44.7014 37.5952 44.979 37.2687 45.2901 36.9755C45.9805 36.3869 46.9036 36.8083 47.5213 37.5423C47.3559 37.4589 47.1832 37.3908 47.0054 37.3389C46.7012 37.2776 46.3858 37.3054 46.097 37.4188C45.47 37.6131 44.8784 37.9075 44.3455 38.2908C43.8463 38.6862 43.2233 38.8922 42.5869 38.8723H42.3832C41.6565 38.9159 40.6246 39.003 40.5156 39.7297C41.3514 39.2792 42.1436 39.5772 42.9939 39.4899C43.8441 39.4027 44.4473 38.9303 45.2975 38.9085C44.9818 39.0276 44.7224 39.2611 44.5708 39.5626C44.8654 39.4466 45.1726 39.3661 45.4863 39.3228C45.7203 39.2386 45.9649 39.1872 46.213 39.1701C46.5139 39.1604 46.8147 39.1922 47.1069 39.2646C47.4485 39.3532 47.805 39.3705 48.1537 39.3155C48.6578 39.1623 49.1284 38.9158 49.5415 38.5888C50.1036 38.1189 50.8016 37.8413 51.5329 37.7967C52.1051 37.7851 52.6656 37.9584 53.1314 38.2908C53.473 38.5089 53.8147 38.7559 54.1417 39.0176L54.9121 39.5626C55.0982 39.504 55.2873 39.4555 55.4787 39.4173C55.7619 39.3693 56.0493 39.3498 56.3364 39.3591C57.0631 39.3591 57.0631 39.3592 57.9133 38.7124C58.0218 38.6675 58.1377 38.6428 58.255 38.6396H58.4438C58.5996 38.6038 58.7509 38.5502 58.8945 38.4798L59.0325 38.4217C59.1706 38.3708 59.3016 38.3054 59.4324 38.2473C59.7684 38.0735 60.1283 37.951 60.5005 37.8839C60.9311 37.8271 61.3691 37.8822 61.7723 38.0438C62.0627 38.1884 62.3239 38.3855 62.5426 38.6251C62.6735 38.7486 62.797 38.8723 62.9206 38.9667C63.0992 39.1048 63.2916 39.2241 63.4947 39.3228C64.0725 39.1627 64.6826 39.1627 65.2604 39.3228C64.759 38.8504 64.2287 38.9304 63.5383 38.8359C62.848 38.7414 62.5281 38.1746 61.9685 37.6804L61.9614 37.6586Z" fill="white"/>
<path fill-rule="evenodd" clip-rule="evenodd" d="M71.4889 13.0883C68.582 14.0621 68.4802 12.2816 67.8552 12.9066C67.3214 13.451 66.8881 14.0858 66.576 14.7815C66.3653 15.2176 66.1694 15.9516 65.7915 16.1551C65.9223 15.61 66.3944 14.4763 65.8929 14.0694C65.5659 15.7045 62.7025 17.6521 61.9904 19.1201C61.0383 21.0967 59.5706 21.1403 58.0008 22.0269C57.1288 22.4993 56.0243 23.1897 55.4357 22.1941C55.3018 21.5673 55.0968 20.9577 54.825 20.3773C52.6957 15.9588 53.6623 15.4647 53.9748 14.7016C54.1791 14.3706 54.2974 13.9938 54.319 13.6054C54.3405 13.217 54.2647 12.8294 54.0982 12.4778C54.9921 11.9691 55.6099 12.3106 56.5328 12.4778C56.2916 12.2418 56.0145 12.0456 55.7117 11.8965C56.0124 11.5658 56.3543 11.2751 56.7291 11.0316C56.5038 11.097 56.2711 11.1479 56.0676 11.1915H55.9296L55.1301 11.3514C54.6941 11.4314 54.258 11.5186 53.8293 11.6276C53.8257 11.5622 53.8257 11.4967 53.8293 11.4314C54.2508 11.3223 54.6868 11.2424 55.1156 11.1552L55.908 11.0026H56.046C56.4347 10.9316 56.8147 10.8195 57.1797 10.6683C57.2898 10.5663 57.3873 10.4517 57.4703 10.3267C57.6843 9.93718 57.9863 9.60295 58.3521 9.35063C58.718 9.09831 59.1376 8.93486 59.5778 8.87328C59.9994 8.83413 60.4131 8.73373 60.8059 8.57529C61.2463 8.24875 61.6317 7.85374 61.9471 7.40528C62.6458 6.82386 63.3734 6.27812 64.1272 5.77015C63.7003 5.83611 63.2874 5.97374 62.9062 6.17716C62.4787 6.45706 62.0817 6.78098 61.7217 7.14367C61.298 7.38394 60.8206 7.5139 60.3336 7.52158C59.9495 7.59897 59.5708 7.70095 59.1999 7.82684C59.0981 7.37627 59.5777 7.14369 59.8538 6.88934C60.144 6.64545 60.3523 6.3181 60.45 5.95183C60.5308 5.50228 60.5866 5.0486 60.6171 4.59287C60.6825 4.25131 60.7407 3.86611 60.8133 3.56089C60.886 3.25566 61.2055 2.83424 61.2636 2.45634C61.3872 1.72962 60.8132 2.72523 60.7115 2.91418C60.4114 3.36971 60.1995 3.87747 60.0866 4.41119C60.0835 4.96805 60.0101 5.52232 59.8684 6.06086C59.6722 6.49689 59.229 6.5187 58.8656 6.78758C58.633 6.95473 58.2188 7.5143 57.9863 7.23815C57.7537 6.96199 57.9427 6.35877 57.9863 6.10442C58.0307 5.73608 58.1286 5.37622 58.2769 5.03616C58.335 4.91988 58.7929 4.16414 58.3496 4.44756C58.1389 4.57837 57.9716 5.17425 57.8408 5.41407C57.6153 5.75941 57.4644 6.14806 57.3976 6.55507C57.378 6.79692 57.378 7.03995 57.3976 7.2818C57.6016 7.65366 57.6627 8.08729 57.569 8.50095C57.4753 8.91462 57.2335 9.27971 56.8891 9.52734C56.5113 9.7383 56.0746 9.81993 55.6461 9.75986C55.5406 9.74504 55.4364 9.72322 55.3338 9.69448C55.1645 9.65396 54.9918 9.62964 54.8179 9.62182C54.4226 9.87909 53.9882 10.0705 53.5316 10.1887L53.3133 10.2468C52.95 10.3413 52.7248 10.3776 52.7175 9.97064C52.7328 9.65629 52.7817 9.34444 52.863 9.04041C53.0011 8.47356 53.1825 7.9213 53.3424 7.36172C53.0009 7.36172 52.6158 7.99397 52.5213 8.26285C52.4291 8.67135 52.3731 9.08717 52.3542 9.50552C52.3108 9.87403 52.1321 10.2133 51.8528 10.4576C51.6833 9.9548 51.6069 9.42529 51.6275 8.8951C51.6438 8.3194 51.8338 7.76204 52.1725 7.29625C52.5086 6.90007 52.7762 6.45064 52.9645 5.96638C53.2069 5.13633 53.2666 4.26357 53.1391 3.4083C52.7903 3.73533 52.8701 4.50565 52.8265 4.94895C52.7826 5.44913 52.5548 5.91528 52.187 6.25709C51.86 6.54051 51.5186 6.75126 51.2134 7.07102C50.9735 7.37467 50.8025 7.7267 50.712 8.10291C50.5012 8.10291 50.1013 7.45613 49.905 7.29625C49.1783 6.73668 48.161 6.48233 47.6159 5.75561C47.3693 5.3873 47.16 4.99537 46.991 4.58559C46.8312 4.23676 46.802 3.48828 46.4822 3.26299C46.4079 3.81108 46.4755 4.36904 46.6784 4.88357C46.9909 5.49402 47.6813 5.81373 47.892 6.46778C47.8993 6.48849 47.9 6.51105 47.8934 6.53201C47.8869 6.55296 47.8736 6.57121 47.8558 6.58408C47.1291 6.48234 46.4822 6.76578 45.7846 6.42422C45.4503 6.25708 45.1304 5.82827 44.7307 5.84281C45.2176 7.15091 47.1725 6.83842 48.2408 7.20905C48.9039 7.43209 49.474 7.86931 49.8614 8.45181L49.9632 8.55356L50.2393 8.84418L50.3702 8.9823C50.7769 9.31378 51.0505 9.78076 51.1406 10.2976C51.1513 10.7004 51.0424 11.0975 50.828 11.4386C50.6775 11.6918 50.4772 11.9118 50.2393 12.0854C50.1654 12.1467 50.095 12.2122 50.0285 12.2816L49.8905 12.4124C49.578 12.9575 49.2004 13.4807 48.8951 13.9822C48.7789 14.1784 48.6625 14.3818 48.568 14.5853C48.5912 14.8298 48.6302 15.0725 48.6844 15.312C48.7737 15.7286 48.9575 16.119 49.222 16.453C49.5995 16.837 49.8528 17.3257 49.9487 17.8556C50.0343 18.6086 50.3969 19.3028 50.966 19.8032L50.8354 20.7843C50.4416 20.6259 50.0904 20.3769 49.8106 20.0576C49.5036 19.6524 49.3083 19.1738 49.244 18.6695C49.1907 18.3404 49.0927 18.0202 48.953 17.7175C48.6985 17.193 48.3761 16.7043 47.9938 16.2641C47.494 16.0213 46.9553 15.8688 46.4024 15.8135C46.279 15.8052 46.1549 15.8052 46.0315 15.8135C46.0245 15.5519 46.064 15.291 46.1479 15.0431C45.8537 15.2806 45.6071 15.5716 45.4212 15.9007H45.3705C45.1307 15.9007 44.6074 16.1405 44.4039 15.9007C44.2004 15.6609 44.4038 15.2321 44.4837 14.9996C44.5637 14.767 44.8689 14.5926 45.0724 14.3673C45.2579 14.1783 45.3822 13.9376 45.4287 13.6769C45.4578 13.4623 45.4578 13.2447 45.4287 13.0301C45.4287 12.9211 45.4287 12.8048 45.4287 12.6886C45.5425 12.3682 45.686 12.0592 45.8573 11.7656C46.0981 11.3663 46.226 10.9093 46.2278 10.443C46.1303 10.8001 45.9456 11.1272 45.6902 11.395C45.5676 11.5584 45.4763 11.7433 45.4212 11.94C45.4114 11.641 45.3499 11.346 45.2395 11.068C44.9416 10.3413 45.0869 9.61455 44.8762 8.88782C44.1494 9.75263 44.8763 10.9807 44.9635 11.9182C45.0384 12.4371 44.9834 12.9665 44.8034 13.4589C44.6314 13.3035 44.4734 13.1332 44.3311 12.9502C44.2338 12.7481 44.1514 12.5392 44.0842 12.3252C44.0333 12.1799 43.9895 11.8674 43.8805 11.7802C43.6043 12.0055 43.9533 12.7031 44.0842 12.9429C44.2881 13.2578 44.424 13.6118 44.4837 13.9822C44.2424 14.2367 44.0144 14.5035 43.8006 14.7815C43.5754 15.1086 43.4883 15.7481 43.2194 15.9952C42.4171 16.1959 41.5879 16.2694 40.7628 16.2132C40.4011 16.1472 40.0673 15.9753 39.8037 15.719C39.4548 15.3775 39.4912 14.9923 39.3023 14.6071C39.1852 15.0798 39.2521 15.5793 39.4896 16.0043C39.7271 16.4294 40.1172 16.7483 40.5811 16.8963C40.3268 17.3542 39.4693 17.3832 39.0187 17.5721C38.3647 17.841 37.8559 18.2989 37.1001 18.0591C36.6132 17.8919 36.417 17.4631 36.2062 17.0271C36.0682 16.7437 35.9811 16.2205 35.625 16.1551C35.8581 16.6813 36.0476 17.2257 36.1917 17.7829C36.555 18.9021 38.0376 19.1055 39.0986 18.9456C39.4165 18.8773 39.7198 18.7517 39.9928 18.575C40.4559 18.3163 40.9426 18.1021 41.4462 17.9355C41.3142 18.3614 41.0953 18.7556 40.804 19.0932C40.5126 19.4308 40.155 19.7047 39.7529 19.8977C40.0945 20.2102 40.9009 19.3599 41.1553 19.171C41.1553 20.3701 39.3459 20.9878 39.4985 22.1796C39.5754 21.8056 39.7597 21.462 40.029 21.1912C40.3415 20.9368 40.6976 20.7479 40.9956 20.4645C41.7223 19.7378 41.7224 18.3934 42.7035 17.8774C43.779 17.1507 45.0798 16.344 46.4315 16.9981C47.1947 17.2859 47.8272 17.841 48.2117 18.5605C48.6696 19.6942 48.3937 19.8032 49.2003 21.1258C50.2904 22.9063 51.6492 22.2595 53.1753 23.2115C54.2581 23.8801 54.04 25.2536 53.8438 26.4672C53.7384 26.9834 53.6995 27.5109 53.7278 28.037C53.7983 28.7942 54.0474 29.5239 54.4545 30.1663C54.7484 30.6065 55.0975 31.0069 55.4935 31.358L55.4066 30.9802C55.4066 30.8712 55.4717 30.7622 55.508 30.6604C55.806 29.8828 55.7842 30.2462 56.2348 29.207C56.2348 29.0834 56.3003 28.9236 56.3366 28.771C56.3703 28.6399 56.392 28.5061 56.4019 28.3712C56.4676 28.1168 56.6096 27.8886 56.8089 27.7172C58.7638 25.9513 58.691 24.8104 59.6431 23.8075C60.5224 22.9281 62.2229 22.87 62.9279 21.7872C63.7781 20.4936 67.8406 19.6942 68.2984 18.1535C68.7563 16.6129 67.8914 15.1522 69.105 14.2365C69.7227 13.7641 71.4088 13.9386 71.5832 13.0011L71.4889 13.0883Z" fill="white"/>
<path fill-rule="evenodd" clip-rule="evenodd" d="M61.0616 10.7479C61.6429 9.46885 60.5602 9.17822 60.5602 9.17822C60.4897 9.31415 60.4468 9.46265 60.4338 9.61521C60.4209 9.76778 60.4383 9.92135 60.4849 10.0672C60.5315 10.213 60.6063 10.3483 60.7053 10.4651C60.8043 10.5819 60.9253 10.678 61.0616 10.7479Z" fill="white"/>
<path fill-rule="evenodd" clip-rule="evenodd" d="M61.8671 10.3263C63.0517 9.54875 62.2961 8.73486 62.2961 8.73486C62.1632 8.81095 62.0466 8.91246 61.953 9.03373C61.8595 9.155 61.7906 9.29356 61.7507 9.44145C61.7109 9.58933 61.701 9.74371 61.7209 9.89556C61.7409 10.0474 61.7904 10.1938 61.8671 10.3263Z" fill="white"/>
<path fill-rule="evenodd" clip-rule="evenodd" d="M63.7567 10.7117C64.1128 9.36004 63.03 9.2583 63.03 9.2583C62.9354 9.54745 62.9585 9.86221 63.0946 10.1343C63.2306 10.4064 63.4686 10.6139 63.7567 10.7117Z" fill="white"/>
<path fill-rule="evenodd" clip-rule="evenodd" d="M64.4701 7.00537C64.387 7.1339 64.3304 7.27762 64.3034 7.42826C64.2763 7.57889 64.2795 7.73339 64.3126 7.88281C64.3457 8.03223 64.4082 8.17362 64.4964 8.29869C64.5846 8.42377 64.6968 8.53004 64.8264 8.6114C65.5531 7.39051 64.4701 7.00537 64.4701 7.00537Z" fill="white"/>
<path fill-rule="evenodd" clip-rule="evenodd" d="M64.6094 6.09719C64.6336 6.40768 64.7793 6.69611 65.0146 6.90012C65.2499 7.10414 65.5558 7.20733 65.8666 7.18728C65.6994 5.79924 64.6094 6.09719 64.6094 6.09719Z" fill="white"/>
<path fill-rule="evenodd" clip-rule="evenodd" d="M66.5244 5.84267C65.9939 4.54183 65.0273 5.11594 65.0273 5.11594C65.1328 5.4084 65.3484 5.64809 65.6281 5.78385C65.9078 5.91962 66.2294 5.94072 66.5244 5.84267Z" fill="white"/>
<path fill-rule="evenodd" clip-rule="evenodd" d="M62.5571 7.41979C62.5367 7.57254 62.5468 7.72786 62.5866 7.87674C62.6264 8.02563 62.695 8.16516 62.7889 8.28739C62.8827 8.40961 62.9998 8.51207 63.1334 8.58892C63.267 8.66576 63.4146 8.7155 63.5674 8.7352C63.6837 7.33989 62.5571 7.41979 62.5571 7.41979Z" fill="white"/>
<path fill-rule="evenodd" clip-rule="evenodd" d="M61.5612 2.48509C61.8699 2.52469 62.1821 2.44193 62.4306 2.25453C62.6791 2.06712 62.8443 1.78993 62.8912 1.48221C61.4377 1.38046 61.5612 2.48509 61.5612 2.48509Z" fill="white"/>
<path fill-rule="evenodd" clip-rule="evenodd" d="M60.109 1.91824C58.6919 1.8165 58.7865 2.92112 58.7865 2.92112C59.0944 2.9606 59.4053 2.87758 59.6526 2.69003C59.9 2.50248 60.0639 2.22537 60.109 1.91824Z" fill="white"/>
<path fill-rule="evenodd" clip-rule="evenodd" d="M61.7608 0.0649414C60.5544 0.791665 61.2956 1.64196 61.2956 1.64196C61.4304 1.56966 61.5497 1.47126 61.6462 1.35259C61.7426 1.23391 61.8144 1.09733 61.8577 0.950635C61.9009 0.803943 61.9148 0.650062 61.8981 0.49803C61.8815 0.345998 61.8348 0.198808 61.7608 0.0649414Z" fill="white"/>
<path fill-rule="evenodd" clip-rule="evenodd" d="M60.6274 1.51883C60.6867 1.37771 60.7173 1.2262 60.7176 1.07314C60.7178 0.920077 60.6877 0.768499 60.6288 0.627189C60.57 0.485879 60.4839 0.357662 60.3751 0.249989C60.2663 0.142315 60.137 0.0573631 59.9951 0C59.5155 1.32264 60.6274 1.51883 60.6274 1.51883Z" fill="white"/>
<path fill-rule="evenodd" clip-rule="evenodd" d="M60.0589 3.46629C58.6709 3.13927 58.6055 4.24385 58.6055 4.24385C58.9013 4.32835 59.2181 4.29441 59.4894 4.14928C59.7607 4.00416 59.9651 3.75927 60.0589 3.46629Z" fill="white"/>
<path fill-rule="evenodd" clip-rule="evenodd" d="M58.3922 5.71209C58.6997 5.75658 59.0126 5.67987 59.2647 5.4982C59.5169 5.31654 59.6886 5.04415 59.7438 4.7383C58.2903 4.60749 58.3922 5.71209 58.3922 5.71209Z" fill="white"/>
<path fill-rule="evenodd" clip-rule="evenodd" d="M57.3713 4.62894C57.3822 4.47521 57.3628 4.32086 57.3138 4.17474C57.2649 4.02861 57.1873 3.89354 57.086 3.7774C56.9847 3.66125 56.8615 3.56625 56.7234 3.49787C56.5853 3.42949 56.435 3.38905 56.2812 3.37891C56.2812 4.78148 57.3713 4.62894 57.3713 4.62894Z" fill="white"/>
<path fill-rule="evenodd" clip-rule="evenodd" d="M62.8067 3.36463C61.4478 2.92859 61.2734 4.02588 61.2734 4.02588C61.5648 4.1366 61.8878 4.12946 62.174 4.00601C62.4603 3.88256 62.6872 3.65256 62.8067 3.36463Z" fill="white"/>
<path fill-rule="evenodd" clip-rule="evenodd" d="M58.0738 3.78616C58.1624 3.66208 58.2253 3.52155 58.259 3.37285C58.2928 3.22415 58.2968 3.07025 58.2704 2.92007C58.244 2.76988 58.1878 2.62645 58.1054 2.49816C58.023 2.36986 57.9159 2.25929 57.7903 2.17285C57.0636 3.35741 58.0738 3.78616 58.0738 3.78616Z" fill="white"/>
<path fill-rule="evenodd" clip-rule="evenodd" d="M61.1719 4.86154C61.3486 5.11787 61.6189 5.29484 61.9245 5.3546C62.2301 5.41435 62.5467 5.3522 62.807 5.18134C61.9495 4.06219 61.1719 4.86154 61.1719 4.86154Z" fill="white"/>
<path fill-rule="evenodd" clip-rule="evenodd" d="M65.2464 4.20032C63.8584 3.91689 63.793 5.02152 63.793 5.02152C64.0945 5.10225 64.4154 5.06152 64.6872 4.90797C64.959 4.75441 65.16 4.50027 65.2464 4.20032Z" fill="white"/>
<path fill-rule="evenodd" clip-rule="evenodd" d="M55.6221 9.53444C56.0041 9.58827 56.3933 9.51956 56.7338 9.33821C56.967 9.18352 57.1483 8.96197 57.2533 8.7026C57.3584 8.44322 57.3823 8.15813 57.3225 7.88477C57.2806 8.2287 57.1123 8.54471 56.8502 8.77135C56.3197 9.22918 55.6584 9.14925 55.0625 9.41814L55.324 9.46897L55.6221 9.52717V9.53444Z" fill="white"/>
<path fill-rule="evenodd" clip-rule="evenodd" d="M71.2809 15.2612C72.4073 14.5345 71.6879 13.7568 71.6879 13.7568C71.562 13.8284 71.4512 13.9243 71.3625 14.0388C71.2738 14.1534 71.2087 14.2844 71.1709 14.4242C71.1331 14.5641 71.1233 14.71 71.1422 14.8537C71.161 14.9973 71.2082 15.1359 71.2809 15.2612Z" fill="white"/>
<path fill-rule="evenodd" clip-rule="evenodd" d="M71.9981 13.0883C71.9787 13.2325 71.9881 13.379 72.0255 13.5196C72.0628 13.6601 72.1276 13.7919 72.216 13.9074C72.3045 14.0229 72.4151 14.1197 72.541 14.1924C72.667 14.2651 72.8059 14.3122 72.9502 14.331C73.0592 13.0084 71.9981 13.0883 71.9981 13.0883Z" fill="white"/>
<path fill-rule="evenodd" clip-rule="evenodd" d="M73.5085 10.5371C72.2004 10.2246 72.1133 11.2638 72.1133 11.2638C72.3947 11.3487 72.6982 11.3201 72.9589 11.1843C73.2196 11.0486 73.4168 10.8163 73.5085 10.5371Z" fill="white"/>
<path fill-rule="evenodd" clip-rule="evenodd" d="M71.7157 11.3076C70.473 11.8163 70.989 12.7102 70.989 12.7102C71.1298 12.6673 71.2606 12.5966 71.3737 12.5025C71.4867 12.4083 71.5795 12.2925 71.6472 12.1618C71.7149 12.0312 71.7562 11.8883 71.7679 11.7416C71.7796 11.5949 71.7618 11.4474 71.7157 11.3076Z" fill="white"/>
<path fill-rule="evenodd" clip-rule="evenodd" d="M70.4484 12.5651C69.5327 11.5913 68.8789 12.4125 68.8789 12.4125C69.0696 12.6367 69.3397 12.778 69.6326 12.8065C69.9255 12.835 70.2181 12.7484 70.4484 12.5651Z" fill="white"/>
<path fill-rule="evenodd" clip-rule="evenodd" d="M72.0781 12.5067C72.3614 12.583 72.6632 12.545 72.9188 12.4009C73.1743 12.2568 73.3629 12.0182 73.4443 11.7363C72.1289 11.4602 72.0781 12.5067 72.0781 12.5067Z" fill="white"/>
</g>
<defs>
<clipPath id="clip0_8105_6267">
<rect width="220" height="40" fill="white"/>
</clipPath>
</defs>
</svg>
