<svg width="220" height="40" viewBox="0 0 220 40" fill="none" xmlns="http://www.w3.org/2000/svg">
<g clip-path="url(#clip0_8105_5932)">
<path d="M196.95 2.54787e-06C197.45 -0.000653029 197.941 0.125214 198.379 0.365996C198.837 0.599638 199.216 0.963015 199.468 1.41068C199.723 1.83747 199.858 2.3245 199.861 2.82136C199.856 3.31671 199.724 3.80254 199.477 4.23215C199.224 4.67632 198.849 5.03873 198.397 5.27672C197.953 5.52297 197.453 5.6522 196.946 5.6522C196.438 5.6522 195.939 5.52297 195.495 5.27672C195.048 5.03462 194.677 4.67299 194.424 4.23215C194.167 3.80637 194.031 3.31854 194.031 2.82136C194.031 2.32418 194.167 1.83646 194.424 1.41068C194.679 0.965256 195.057 0.602605 195.513 0.365996C195.954 0.126275 196.448 0.000528466 196.95 2.54787e-06ZM196.95 0.464198C196.533 0.464176 196.121 0.568603 195.754 0.767848C195.379 0.977255 195.07 1.28631 194.861 1.66071C194.65 2.01795 194.536 2.42426 194.53 2.83923C194.538 3.2572 194.655 3.66589 194.87 4.02463C195.084 4.38336 195.389 4.67965 195.754 4.88392C196.125 5.09028 196.544 5.19786 196.968 5.19639C197.39 5.19875 197.806 5.09107 198.173 4.88392C198.55 4.67802 198.86 4.3681 199.066 3.99106C199.28 3.63658 199.392 3.23062 199.392 2.81689C199.392 2.40316 199.28 1.99731 199.066 1.64283C198.862 1.26455 198.552 0.954209 198.173 0.749974C197.809 0.551813 197.401 0.447518 196.986 0.446432L196.95 0.464198ZM195.674 4.38386V1.34823H196.745C197.015 1.33695 197.286 1.36398 197.549 1.42856C197.71 1.47794 197.849 1.58213 197.941 1.72316C198.038 1.85237 198.091 2.00854 198.093 2.16959C198.093 2.2782 198.071 2.3857 198.028 2.48545C197.985 2.5852 197.922 2.67515 197.843 2.74997C197.668 2.91935 197.436 3.01796 197.192 3.02681C197.289 3.06561 197.379 3.11982 197.459 3.18746C197.634 3.37089 197.789 3.57133 197.924 3.78572L198.308 4.38386H197.691L197.415 3.90179C197.278 3.63765 197.097 3.399 196.879 3.1964C196.761 3.11619 196.618 3.08131 196.477 3.0982H196.174V4.38386H195.674ZM196.174 2.66964H196.79C196.997 2.69329 197.207 2.64945 197.388 2.54463C197.439 2.50631 197.48 2.45636 197.508 2.39891C197.536 2.34145 197.55 2.27815 197.549 2.21428C197.548 2.12873 197.524 2.04504 197.477 1.97319C197.422 1.90079 197.348 1.8451 197.263 1.81242C197.097 1.76852 196.925 1.75051 196.754 1.75891H196.174V2.65177V2.66964Z" fill="white"/>
<path d="M33.314 39.7051H19.0195V5.45508H22.2784V36.723H34.1088V39.7051H33.314Z" fill="white"/>
<path d="M61.7077 39.6518H59.3683L52.2255 13.0625L45.0381 39.6518H41.7344C44.8237 28.241 47.9073 16.8273 50.9847 5.41064H53.4667L62.7166 39.6518H61.7077Z" fill="white"/>
<path d="M88.5843 5.42871H91.3252L82.084 39.6698H79.5663C76.4949 28.2591 73.4117 16.8454 70.3164 5.42871H73.6289L80.7718 32.0181L87.9146 5.42871H88.5843Z" fill="white"/>
<path d="M101.377 39.7051H98.957V5.45508H102.163V39.7051H101.377Z" fill="white"/>
<path d="M118.116 39.652C116.898 39.6712 115.686 39.4623 114.545 39.036C113.508 38.6424 112.587 37.9945 111.866 37.152C111.129 36.3074 110.595 35.3058 110.304 34.2234C109.945 32.9363 109.773 31.6041 109.794 30.268V28.8038H113.009V30.268C112.958 31.4803 113.134 32.6915 113.527 33.8395C113.784 34.5476 114.206 35.1843 114.759 35.6967C114.988 35.89 115.24 36.0548 115.509 36.1877C115.763 36.3171 116.033 36.4131 116.312 36.4735C116.622 36.5398 116.935 36.5876 117.25 36.6163C117.546 36.6521 117.844 36.67 118.143 36.6699C118.891 36.6855 119.634 36.552 120.33 36.2771C120.94 36.0263 121.479 35.6309 121.902 35.1252C122.891 33.7944 123.376 32.1551 123.268 30.5002C123.303 29.5976 123.109 28.7008 122.705 27.8931C122.514 27.5463 122.296 27.2149 122.053 26.902C121.826 26.6217 121.576 26.3618 121.303 26.1252C121.034 25.8992 120.751 25.6903 120.455 25.5002C120.17 25.3217 119.872 25.1664 119.562 25.0359L118.669 24.6609L117.964 24.3662L117.071 24.0269C116.526 23.8305 115.857 23.5359 115.062 23.1341C114.63 22.9228 114.215 22.678 113.821 22.402C113.408 22.1093 113.014 21.7901 112.643 21.4466C112.241 21.0746 111.877 20.665 111.553 20.2234C111.217 19.7635 110.918 19.2767 110.661 18.768C110.36 18.2059 110.137 17.605 110 16.9823C109.853 16.2866 109.781 15.5772 109.786 14.8662C109.775 13.6582 109.94 12.4551 110.277 11.2948C110.591 10.2332 111.096 9.23793 111.768 8.35733C112.501 7.41824 113.447 6.66561 114.527 6.16082C115.65 5.6597 116.869 5.40988 118.098 5.42873C119.318 5.41156 120.53 5.62666 121.67 6.06262C122.722 6.47748 123.659 7.13891 124.402 7.99123C125.126 8.85691 125.655 9.86768 125.955 10.9555C126.312 12.2278 126.483 13.5449 126.464 14.8662V16.3841H123.196V14.8662C123.215 13.8433 123.098 12.8226 122.848 11.8306C122.667 11.0999 122.329 10.4174 121.857 9.83057C121.453 9.37155 120.941 9.0215 120.366 8.8127C119.629 8.55514 118.851 8.43409 118.071 8.45553C117.365 8.41582 116.66 8.54772 116.016 8.84005C115.373 9.13239 114.81 9.57646 114.375 10.1341C113.9 10.748 113.543 11.4441 113.321 12.1876C113.071 13.058 112.951 13.9606 112.964 14.8662C112.96 15.3635 113.005 15.8599 113.098 16.3484C113.185 16.7541 113.323 17.1473 113.509 17.5181C113.69 17.8726 113.902 18.2103 114.143 18.527C114.367 18.8234 114.618 19.0983 114.893 19.3484C115.17 19.5993 115.469 19.8263 115.785 20.027C116.071 20.2188 116.37 20.3919 116.678 20.5449L117.571 20.9645C117.848 21.0895 118.116 21.1966 118.366 21.2859L119.187 21.6252C119.428 21.7056 119.705 21.8127 120.026 21.9466L121.08 22.402C121.514 22.5952 121.932 22.8221 122.33 23.0806C122.748 23.3516 123.148 23.6499 123.527 23.9734C123.938 24.3306 124.314 24.7251 124.652 25.152C125.007 25.6026 125.326 26.0802 125.607 26.5805C125.916 27.1409 126.145 27.742 126.286 28.3662C126.436 29.0614 126.511 29.771 126.509 30.4824C126.522 31.6713 126.35 32.855 126 33.9913C125.677 35.0383 125.152 36.0119 124.455 36.8573C123.721 37.7605 122.781 38.474 121.714 38.9378C120.583 39.4095 119.368 39.6436 118.143 39.6253L118.116 39.652Z" fill="white"/>
<path d="M154.258 6.14274V8.43745H145.767V39.6518H142.561V8.43745H134.133V5.41064H154.258V6.14274Z" fill="white"/>
<path d="M165.088 8.43731V21.0622H176.133V24.0445H165.088V36.723H176.133V39.7051H161.883V5.45508H176.133V8.43731H165.088Z" fill="white"/>
<path d="M197.509 23.7055C198.37 24.4663 199.042 25.4169 199.473 26.4823C199.921 27.6187 200.143 28.8321 200.124 30.0537V39.9823H196.83V30.0716C196.883 29.3179 196.776 28.5616 196.516 27.8522C196.256 27.1428 195.848 26.4964 195.321 25.9555C194.809 25.4767 194.2 25.1143 193.535 24.8931C192.709 24.6357 191.847 24.5121 190.982 24.527H187.026V40.0002H183.785V5.4287H190.982C192.335 5.40485 193.682 5.60087 194.972 6.00908C196.066 6.35754 197.057 6.97097 197.857 7.7948C198.636 8.65745 199.202 9.69119 199.508 10.8127C199.879 12.1557 200.056 13.5446 200.035 14.9377C200.035 18.0627 199.318 20.4139 197.883 21.9913C197.531 22.3855 197.132 22.7362 196.696 23.0359C196.99 23.2339 197.267 23.4548 197.526 23.6966L197.509 23.7055ZM190.964 21.4734C193.083 21.4734 194.553 21.0091 195.374 20.0805C195.869 19.4993 196.224 18.8119 196.41 18.0716C196.676 17.0518 196.799 16.0002 196.776 14.9466C196.776 12.5657 196.33 10.8751 195.437 9.87512C194.971 9.38858 194.386 9.03163 193.74 8.83937C192.839 8.57601 191.903 8.45263 190.964 8.47338H187.008V21.5002L190.964 21.4734Z" fill="white"/>
</g>
<defs>
<clipPath id="clip0_8105_5932">
<rect width="220" height="40" fill="white"/>
</clipPath>
</defs>
</svg>
