<svg width="220" height="40" viewBox="0 0 220 40" fill="none" xmlns="http://www.w3.org/2000/svg">
<g clip-path="url(#clip0_8105_6274)">
<path fill-rule="evenodd" clip-rule="evenodd" d="M47.2405 39.9997H45.5193L42.4812 37.5557C42.3768 37.4703 42.251 37.4155 42.1173 37.3973C41.9837 37.3791 41.8475 37.3982 41.724 37.4524C41.4228 37.6504 41.7241 37.8483 41.9736 38.0634L44.3486 39.9997H41.7324L40.7861 39.0703L39.8734 39.9997H38.0581C38.9133 39.4037 39.636 38.6373 40.181 37.7488C40.726 36.8602 41.0812 35.8687 41.2248 34.8362L40.9231 34.733C40.6232 35.8316 40.1089 36.8599 39.4087 37.758C38.7085 38.6562 37.8369 39.4065 36.8446 39.9654H34.125C37.946 38.0119 40.6136 35.3956 39.6927 30.7398L40.9063 28.752C41.4131 29.3073 41.8363 29.9334 42.1627 30.6107C42.7078 31.5805 42.9249 32.7004 42.7821 33.8036C42.7821 34.5953 42.6963 35.3871 42.6619 36.1788C44.0197 37.6317 45.5586 38.9043 47.2405 39.9654V39.9997Z" fill="white"/>
<path fill-rule="evenodd" clip-rule="evenodd" d="M37.2745 37.1684C38.2642 34.4489 38.6855 31.8327 36.9299 29.6124C35.2088 27.2458 32.7304 26.7123 29.9335 27.2716C29.9335 26.9963 29.9337 26.7209 29.8906 26.4111C31.3004 26.0637 32.7763 26.0889 34.1734 26.4842C35.5705 26.8795 36.8406 27.6313 37.8594 28.6658C38.2617 28.3272 38.5999 27.9191 38.8578 27.4609C39.3085 26.6773 39.5294 25.7825 39.4949 24.8792C39.6187 24.0845 39.4599 23.2715 39.0469 22.5814C38.5966 21.5785 38.0848 20.6042 37.5149 19.664C36.8326 18.6497 36.4954 17.4428 36.5517 16.2217L37.2913 16.282C37.2357 16.8326 37.3283 17.3881 37.5586 17.8913C38.2931 19.4066 39.1719 20.8476 40.1832 22.1942C40.7039 23.3649 40.9449 24.6405 40.8883 25.9205C42.0989 25.4605 43.2362 24.8256 44.2625 24.0358C45.5104 23.0548 45.6736 21.8757 45.708 20.3095L46.4737 20.3784C46.576 21.8995 46.1736 23.412 45.329 24.6813L48.3848 24.8103C49.6584 24.8619 49.6749 25.6709 49.1327 25.6709H48.6167C47.4288 25.6333 46.2399 25.6967 45.0626 25.8603C43.7828 26.1099 42.5821 26.6652 41.5631 27.4788C40.5442 28.2925 39.7374 29.3403 39.2108 30.5332C39.6153 34.1562 38.6256 35.6967 37.309 37.1167L37.2745 37.1684Z" fill="white"/>
<path fill-rule="evenodd" clip-rule="evenodd" d="M38.4014 15.146H37.7047C37.5544 16.2564 37.8244 17.3829 38.4619 18.3044C38.8438 19.0749 39.2899 19.8118 39.7956 20.5074C39.9677 20.714 40.1397 20.912 40.3032 21.1271C41.072 22.303 41.4511 23.6909 41.3874 25.0944C41.8435 24.8792 42.2486 24.5866 42.7219 24.38C42.2744 23.0375 41.6628 21.4455 42.0328 20.0255C42.1501 19.4574 42.3983 18.9242 42.7564 18.4678C42.9452 18.2061 43.1964 17.9961 43.4876 17.8569C43.3413 17.6847 43.1691 17.5642 43.0228 17.3921C42.8325 17.5292 42.6515 17.6787 42.4807 17.8396C41.9793 18.2708 41.6093 18.8345 41.4134 19.4661C41.3274 19.776 41.2583 20.0943 41.1722 20.4128V20.4558C40.1316 19.5732 39.3129 18.4591 38.7804 17.2028C38.6753 16.9241 38.597 16.6359 38.5476 16.3422C38.4688 15.9574 38.4376 15.5644 38.4535 15.1718L38.4014 15.146Z" fill="white"/>
<path fill-rule="evenodd" clip-rule="evenodd" d="M40.7851 19.1994C41.4918 18.0536 42.4663 17.0966 43.6249 16.4111L43.1341 15.7656C43.0394 15.7656 42.6441 16.041 42.5752 16.0927C42.2224 16.3594 41.8778 16.6606 41.5508 16.9532C41.2237 17.2458 40.8538 17.6159 40.5439 17.9688C40.4482 18.0781 40.3587 18.1931 40.2767 18.313C40.2767 18.313 40.2082 18.4334 40.2254 18.4593L40.7759 19.1822L40.7851 19.1994Z" fill="white"/>
<path fill-rule="evenodd" clip-rule="evenodd" d="M31.3228 20.0166C31.5466 20.0166 31.8132 20.0166 32.0456 20.0166C31.7726 21.4676 31.943 22.9672 32.5355 24.3195L31.7531 24.3626C30.9958 23.7258 31.2023 20.1543 31.3228 20.0597V20.0166Z" fill="white"/>
<path fill-rule="evenodd" clip-rule="evenodd" d="M32.6207 19.4058H33.4124C33.4124 20.3696 33.1886 21.9273 33.5586 22.7534C34.0161 23.5944 34.6985 24.2916 35.5294 24.7672C36.6184 25.2052 37.6453 25.7839 38.5843 26.4883L37.8103 27.9513C37.1218 27.2419 36.292 26.6848 35.3747 26.3162C34.0634 25.923 32.6985 25.7373 31.3298 25.7655C30.4597 25.8296 29.6071 26.042 28.8086 26.3937C28.8086 26.0753 28.8086 25.7654 28.8086 25.447C29.7949 25.0893 30.8316 24.8918 31.8803 24.8618C32.4913 24.8618 33.1459 24.7844 33.7569 24.7844C33.4812 24.4647 33.2416 24.1154 33.0426 23.743C32.658 23.0867 32.5143 22.3166 32.6375 21.5658C32.6375 20.5848 32.6375 19.4143 32.6375 19.4229L32.6207 19.4058Z" fill="white"/>
<path fill-rule="evenodd" clip-rule="evenodd" d="M41.4492 28.416L42.5334 30.2662C43.5488 27.4435 46.1742 26.5743 49.8231 27.1853C49.8231 27.125 49.8229 27.0562 49.866 26.9874C49.909 26.9185 49.9257 26.6518 49.9601 26.4796C49.6094 26.3828 49.2536 26.3081 48.8936 26.2559C45.7697 25.8858 43.3253 26.5399 41.4492 28.416Z" fill="white"/>
<path fill-rule="evenodd" clip-rule="evenodd" d="M47.4551 19.6895H47.7905C47.9265 21.273 47.6721 22.8656 47.0501 24.3281H46.25C46.009 24.3281 46.1639 24.3281 46.25 24.2162C46.8108 22.8506 47.103 21.3896 47.1106 19.9133C47.1106 19.526 46.8264 19.5862 47.403 19.6637L47.4551 19.6895Z" fill="white"/>
<path fill-rule="evenodd" clip-rule="evenodd" d="M48.7449 24.1395C49.7885 24.3049 50.8564 24.0804 51.7452 23.5091C52.634 22.9378 53.281 22.0593 53.5639 21.0413C53.078 20.7726 52.5361 20.6207 51.9814 20.5974C51.4266 20.5741 50.8745 20.6802 50.3678 20.9073C49.8611 21.1343 49.4136 21.4762 49.0618 21.9057C48.7099 22.3352 48.4627 22.8407 48.3398 23.3822C50.061 22.1171 50.9218 21.2135 52.2041 21.2307C50.4829 22.1774 49.476 22.9519 48.7617 24.1395H48.7449Z" fill="white"/>
<path fill-rule="evenodd" clip-rule="evenodd" d="M50.9409 27.2546C51.8349 27.5036 52.7892 27.4116 53.6193 26.9966C54.4494 26.5815 55.0957 25.8731 55.4329 25.0084C55.0342 24.7268 54.5759 24.5418 54.0933 24.4684C53.6107 24.3949 53.1172 24.435 52.6528 24.5853C52.1884 24.7357 51.7654 24.9922 51.4174 25.3345C51.0694 25.6769 50.8064 26.0955 50.6484 26.5574C52.2491 25.6108 53.1092 24.9051 54.2194 25.0428C52.9384 25.4533 51.8013 26.2206 50.9409 27.2546Z" fill="white"/>
<path fill-rule="evenodd" clip-rule="evenodd" d="M53.6621 23.3473C54.3062 23.7824 55.0898 23.9609 55.8589 23.8479C56.628 23.7348 57.3271 23.3384 57.8188 22.7363C57.5735 22.4086 57.2553 22.1425 56.8893 21.9593C56.5233 21.776 56.1195 21.6807 55.7102 21.6807C55.3009 21.6807 54.8971 21.776 54.5311 21.9593C54.1651 22.1425 53.8468 22.4086 53.6016 22.7363C55.1248 22.4007 55.9852 22.065 56.8372 22.4695C55.718 22.4458 54.6161 22.7445 53.6621 23.3301V23.3473Z" fill="white"/>
<path fill-rule="evenodd" clip-rule="evenodd" d="M52.4195 19.9739C53.3491 20.2145 54.3354 20.1013 55.1861 19.656C56.0369 19.2107 56.6912 18.4653 57.0233 17.5643C56.6042 17.281 56.1248 17.0996 55.6231 17.0347C55.1215 16.9697 54.6114 17.023 54.1339 17.1902C53.6565 17.3575 53.2248 17.634 52.8733 17.9978C52.5218 18.3616 52.2601 18.8026 52.1094 19.2855C53.7445 18.2786 54.6137 17.5643 55.7669 17.6504C54.4496 18.098 53.2883 18.9132 52.4195 19.9997V19.9739Z" fill="white"/>
<path fill-rule="evenodd" clip-rule="evenodd" d="M49.2344 20.5501C50.0307 20.2889 50.7041 19.7461 51.1287 19.0236C51.5533 18.3012 51.7005 17.4486 51.5414 16.6258C51.1019 16.619 50.6667 16.7128 50.269 16.8999C49.8713 17.087 49.5211 17.3626 49.2462 17.7056C48.9713 18.0485 48.7792 18.4498 48.6831 18.8787C48.5871 19.3076 48.59 19.7526 48.6924 20.1801C49.4411 18.6654 49.7513 17.7103 50.6463 17.2628C49.8796 18.2095 49.3905 19.3505 49.2344 20.5588V20.5501Z" fill="white"/>
<path fill-rule="evenodd" clip-rule="evenodd" d="M44.7879 19.6899C45.5459 19.4913 46.2058 19.0238 46.6444 18.3746C47.083 17.7254 47.2709 16.9388 47.1722 16.1615C46.7629 16.1276 46.351 16.1881 45.9687 16.3383C45.5865 16.4885 45.2437 16.7243 44.9669 17.0277C44.6901 17.3311 44.4865 17.694 44.3719 18.0883C44.2574 18.4827 44.2352 18.8982 44.3064 19.3026C45.0895 17.9429 45.4332 17.0651 46.3024 16.7209C45.5275 17.558 45.0029 18.5955 44.7879 19.7157V19.6899Z" fill="white"/>
<path fill-rule="evenodd" clip-rule="evenodd" d="M46.7383 28.6662C47.0645 29.3698 47.6402 29.9268 48.3544 30.229C49.0686 30.5312 49.8695 30.5569 50.6017 30.3013C50.5604 29.894 50.4261 29.5017 50.2083 29.155C49.9906 28.8084 49.6959 28.5167 49.3469 28.3027C48.998 28.0886 48.6041 27.958 48.1964 27.921C47.7887 27.8841 47.378 27.9418 46.9963 28.0896C48.4679 28.5888 49.3714 28.7522 49.905 29.5439C48.956 28.9541 47.8553 28.6549 46.7383 28.6834V28.6662Z" fill="white"/>
<path fill-rule="evenodd" clip-rule="evenodd" d="M52.7541 16.1788C53.5 16.3713 54.2914 16.2797 54.9736 15.9219C55.6558 15.5641 56.1802 14.9656 56.446 14.2425C56.1123 14.0088 55.7284 13.8573 55.3249 13.8006C54.9214 13.7438 54.5101 13.7833 54.1248 13.9159C53.7395 14.0485 53.391 14.2705 53.1079 14.5636C52.8249 14.8566 52.6152 15.2126 52.4961 15.6022C53.8128 14.7933 54.5184 14.1908 55.4392 14.2941C54.3815 14.6509 53.4491 15.3053 52.7541 16.1788Z" fill="white"/>
<path fill-rule="evenodd" clip-rule="evenodd" d="M48.6157 16.4717C49.6512 16.3274 50.5989 15.8112 51.2815 15.0193C51.9641 14.2275 52.3345 13.2142 52.3245 12.1688C51.7873 12.0554 51.2317 12.0674 50.7 12.2038C50.1682 12.3403 49.6749 12.5974 49.2587 12.9554C48.8424 13.3133 48.5142 13.7624 48.2997 14.2678C48.0852 14.7731 47.9899 15.3212 48.0216 15.8693C49.278 14.1481 49.8725 13.081 51.0773 12.7368C49.9224 13.7241 49.0668 15.0148 48.6073 16.4631L48.6157 16.4717Z" fill="white"/>
<path fill-rule="evenodd" clip-rule="evenodd" d="M44.2454 15.1377C45.0924 15.1436 45.9122 14.837 46.5473 14.2765C47.1824 13.716 47.5882 12.9411 47.6877 12.0999C47.267 11.9442 46.816 11.888 46.37 11.9361C45.9239 11.9842 45.4948 12.1352 45.1169 12.377C44.7391 12.6189 44.4229 12.9452 44.1925 13.3302C43.9621 13.7151 43.8237 14.1482 43.7891 14.5955C44.9939 13.3735 45.5963 12.5474 46.6204 12.4097C45.5733 13.0729 44.7354 14.0186 44.2025 15.1377H44.2454Z" fill="white"/>
<path fill-rule="evenodd" clip-rule="evenodd" d="M49.778 11.2991C51.5594 11.1872 53.0139 10.6966 53.2893 8.7775C52.9 8.59113 52.4717 8.50173 52.0404 8.51676C51.6091 8.53179 51.1879 8.65084 50.8126 8.86385C50.4373 9.07687 50.1188 9.3775 49.8848 9.74009C49.6507 10.1027 49.5083 10.5164 49.4688 10.9462C50.5187 9.72416 50.9834 9.22501 52.0505 9.00126C50.9403 10.1889 50.3294 10.2577 49.7873 11.2991H49.778Z" fill="white"/>
<path fill-rule="evenodd" clip-rule="evenodd" d="M44.6895 11.0152C46.9787 11.1701 48.9918 10.1545 49.6286 7.71907C49.1196 7.44943 48.5548 7.30176 47.9789 7.28773C47.4031 7.27369 46.8323 7.39367 46.3107 7.63818C45.7891 7.88269 45.3312 8.24505 44.9736 8.69668C44.616 9.14831 44.3683 9.67688 44.25 10.2406C45.9712 8.89811 46.832 8.08916 48.1831 8.08916C46.462 9.09605 45.421 9.7329 44.6895 11.0152Z" fill="white"/>
<path fill-rule="evenodd" clip-rule="evenodd" d="M40.5616 16.3508C42.4291 15.2493 43.5482 13.3733 42.8425 11.1357C42.2953 11.199 41.7693 11.3838 41.3028 11.6768C40.8364 11.9697 40.441 12.3633 40.1464 12.8286C39.8519 13.294 39.6653 13.8194 39.6002 14.3663C39.535 14.9132 39.593 15.4678 39.7699 15.9893C40.4412 14.0014 40.7256 12.8913 41.7583 12.177C40.8978 13.8982 40.4841 14.9567 40.5616 16.3508Z" fill="white"/>
<path fill-rule="evenodd" clip-rule="evenodd" d="M40.9405 10.895C42.808 9.79341 44.1759 8.76065 43.4702 6.53174C41.0606 6.82434 39.5718 8.39068 40.2775 10.5938C40.9487 8.61443 41.3021 8.14969 42.3348 7.44401C41.4742 9.16517 41.0868 9.44056 40.9405 10.8863V10.895Z" fill="white"/>
<path fill-rule="evenodd" clip-rule="evenodd" d="M45.4937 6.54048C47.2149 6.54048 48.6262 5.9639 48.6864 4.18249C47.0685 3.95013 45.2438 4.13084 45.1836 5.99831C45.4417 5.58716 45.7926 5.24225 46.2081 4.99118C46.6235 4.7401 47.0922 4.5899 47.5763 4.55258C46.4575 5.6111 45.9928 5.49057 45.4937 6.54048Z" fill="white"/>
<path fill-rule="evenodd" clip-rule="evenodd" d="M43.7369 5.32689C45.1224 4.11347 46.1034 3.03769 45.174 1.29932C43.2205 1.93615 42.2225 3.468 43.152 5.18917C43.4015 3.468 43.5134 3.14098 44.2622 2.39227C43.8147 3.96714 43.6422 4.11347 43.7369 5.32689Z" fill="white"/>
<path fill-rule="evenodd" clip-rule="evenodd" d="M39.8994 7.31464C41.5001 6.18728 42.3778 4.41446 41.6205 2.46094C41.1328 2.55575 40.6725 2.75848 40.2734 3.05427C39.8742 3.35006 39.5463 3.73147 39.3136 4.17044C39.0809 4.60942 38.9494 5.09486 38.9287 5.59127C38.908 6.08767 38.9981 6.58245 39.1934 7.0393C39.6581 5.20626 39.8393 4.18215 40.7171 3.47647C40.0992 4.65657 39.8249 5.98636 39.9254 7.31464H39.8994Z" fill="white"/>
<path fill-rule="evenodd" clip-rule="evenodd" d="M36.817 7.78817C34.7172 7.22018 33.1594 5.69691 33.2713 3.33891C33.8149 3.25336 34.3707 3.29154 34.8975 3.45069C35.4243 3.60984 35.9083 3.88588 36.3136 4.25812C36.7189 4.63035 37.0356 5.0892 37.2389 5.60057C37.4422 6.11194 37.5275 6.66262 37.4885 7.21154C36.3267 5.49037 35.7674 4.46625 34.5798 4.06177C35.8621 5.50755 36.533 6.41123 36.817 7.78817Z" fill="white"/>
<path fill-rule="evenodd" clip-rule="evenodd" d="M37.6781 4.30292C37.1627 3.70464 36.8789 2.94117 36.8789 2.15146C36.8789 1.36174 37.1627 0.598274 37.6781 0C38.043 0.20656 38.3558 0.493426 38.5933 0.838943C38.8309 1.18446 38.9867 1.57954 39.0489 1.9942C39.1111 2.40885 39.0779 2.83223 38.9522 3.23223C38.8265 3.63223 38.6118 3.99839 38.3236 4.30292C38.4268 2.71084 38.5475 1.85884 38.0311 1.0585C38.2333 2.16258 38.1229 3.30124 37.7126 4.34599L37.6781 4.30292Z" fill="white"/>
<path fill-rule="evenodd" clip-rule="evenodd" d="M38.074 13.8383C36.5594 12.5044 35.8624 10.5853 36.8865 8.6748C37.3758 8.82804 37.8243 9.08871 38.2001 9.43769C38.5758 9.78667 38.8692 10.2152 39.0581 10.6919C39.247 11.1686 39.3265 11.6816 39.2917 12.1932C39.257 12.7048 39.1089 13.2022 38.8573 13.649C38.5819 11.7213 38.5125 10.6542 37.695 9.81945C38.1855 11.5406 38.3838 12.5819 38.074 13.8383Z" fill="white"/>
<path fill-rule="evenodd" clip-rule="evenodd" d="M34.7721 11.9879C33.9502 11.6355 33.2826 10.9985 32.8921 10.194C32.5017 9.38946 32.415 8.47113 32.6467 7.60742C33.1414 7.63086 33.6235 7.76936 34.0553 8.01187C34.487 8.25438 34.8561 8.59429 35.1335 9.0045C35.4109 9.41472 35.5886 9.8839 35.6529 10.3749C35.7171 10.8659 35.6658 11.3651 35.5033 11.8329C34.8407 10.0085 34.6428 9.19098 33.6704 8.55415C34.5309 10.1462 34.8152 10.6884 34.7721 11.9965V11.9879Z" fill="white"/>
<path fill-rule="evenodd" clip-rule="evenodd" d="M31.1763 7.64189C30.4788 7.44389 29.8824 6.98733 29.5098 6.3653C29.1372 5.74328 29.0165 5.0026 29.1711 4.29421C29.5518 4.27842 29.9311 4.3471 30.2821 4.49528C30.6331 4.64346 30.9465 4.86752 31.2007 5.15133C31.4549 5.43513 31.6433 5.77167 31.752 6.13682C31.8608 6.50196 31.8877 6.88665 31.8302 7.26329C31.1933 5.97241 30.7453 5.30968 29.988 4.92242C30.6322 5.69984 31.047 6.64171 31.1847 7.64189H31.1763Z" fill="white"/>
<path fill-rule="evenodd" clip-rule="evenodd" d="M31.4814 12.0997C30.5594 11.9401 29.7267 11.4521 29.1366 10.726C28.5466 9.99988 28.2394 9.08462 28.2719 8.14951C28.7814 8.04942 29.3066 8.07056 29.8065 8.21107C30.3063 8.35159 30.7667 8.60761 31.1494 8.95852C31.5322 9.30942 31.8267 9.74539 32.01 10.2312C32.1933 10.717 32.2597 11.2391 32.2042 11.7554C31.094 10.0342 30.6983 9.26834 29.5451 8.86387C30.7757 10.2838 31.2663 10.7658 31.4814 12.0997Z" fill="white"/>
<path fill-rule="evenodd" clip-rule="evenodd" d="M28.5673 13.5023C27.8754 13.3819 27.2507 13.0146 26.8091 12.4686C26.3676 11.9226 26.1392 11.2349 26.1662 10.5332C26.5484 10.4595 26.9424 10.4767 27.3167 10.5831C27.6911 10.6895 28.0356 10.8823 28.3219 11.146C28.6082 11.4097 28.828 11.7369 28.9648 12.1013C29.1016 12.4657 29.1514 12.8571 29.1093 13.2441C28.2488 11.9618 27.9729 11.3766 27.1209 11.0668C28.0418 12.1339 28.378 12.4954 28.5673 13.5023Z" fill="white"/>
<path fill-rule="evenodd" clip-rule="evenodd" d="M27.6028 16.6524C25.3395 16.7126 23.8761 15.8693 23.1016 13.606C23.5905 13.3321 24.1382 13.1795 24.6983 13.1611C25.2585 13.1426 25.8145 13.2588 26.3203 13.5C26.8262 13.7411 27.267 14.1001 27.6053 14.5468C27.9437 14.9935 28.1699 15.515 28.2651 16.0672C26.6041 14.6645 25.9594 13.9932 24.6513 13.933C26.3725 15.0001 26.9576 15.3529 27.6289 16.6524H27.6028Z" fill="white"/>
<path fill-rule="evenodd" clip-rule="evenodd" d="M25.7375 20.1721C25.1025 20.4953 24.3701 20.5704 23.6827 20.3826C22.9953 20.1949 22.4021 19.7577 22.0195 19.1566C22.2838 18.8601 22.6156 18.6318 22.9868 18.4908C23.3581 18.3499 23.7581 18.3006 24.1525 18.347C24.5469 18.3935 24.9242 18.5344 25.2526 18.7577C25.581 18.981 25.8503 19.2802 26.0384 19.6299C24.6012 19.0619 24.0163 18.7693 23.1213 19.0188C24.5069 19.3459 24.9888 19.4492 25.7031 20.1721H25.7375Z" fill="white"/>
<path fill-rule="evenodd" clip-rule="evenodd" d="M29.9234 20.5507C29.1407 20.5842 28.3688 20.3563 27.7299 19.9029C27.0911 19.4495 26.6212 18.7963 26.3945 18.0464C28.021 17.1858 30.3791 18.1755 30.3016 19.8708C29.2345 18.8037 28.4257 18.2358 27.4963 18.2358C28.475 18.8073 29.3064 19.6001 29.9234 20.5507Z" fill="white"/>
<path fill-rule="evenodd" clip-rule="evenodd" d="M31.7069 18.3129C30.9192 17.9768 30.282 17.3644 29.9143 16.5909C29.5466 15.8175 29.4743 14.9364 29.7109 14.1133C30.1871 14.1316 30.6524 14.2617 31.069 14.4931C31.4856 14.7246 31.8414 15.0508 32.1086 15.4453C32.3759 15.8399 32.5467 16.2918 32.607 16.7646C32.6673 17.2373 32.6154 17.7176 32.4557 18.1666C31.7156 16.4454 31.8017 15.8603 30.9497 15.2062C31.4425 16.168 31.7018 17.2323 31.7069 18.3129Z" fill="white"/>
<path fill-rule="evenodd" clip-rule="evenodd" d="M36.1921 15.387C35.3625 15.5342 34.5083 15.3789 33.7835 14.9494C33.0587 14.5198 32.5115 13.8446 32.2422 13.0462C32.6471 12.8845 33.0804 12.8063 33.5163 12.8163C33.9521 12.8262 34.3815 12.9242 34.7786 13.1042C35.1756 13.2843 35.5327 13.5427 35.8274 13.864C36.1221 14.1852 36.3487 14.5628 36.4938 14.9739C35.0395 14.0101 34.7727 13.4937 33.7659 13.4679C34.6803 13.9616 35.501 14.611 36.1921 15.387Z" fill="white"/>
<path fill-rule="evenodd" clip-rule="evenodd" d="M29.9595 23.8978C29.0086 24.4167 27.8986 24.565 26.8449 24.3139C25.7912 24.0627 24.8685 23.4301 24.2539 22.5381C24.6405 22.1167 25.119 21.7901 25.6524 21.5838C26.1857 21.3775 26.7595 21.2971 27.329 21.3487C27.8985 21.4003 28.4483 21.5826 28.9358 21.8814C29.4234 22.1802 29.8357 22.5876 30.1402 23.0716C28.092 22.4262 26.9986 21.798 25.7851 22.211C27.309 22.3377 28.7618 22.9126 29.9595 23.8633V23.8978Z" fill="white"/>
<path fill-rule="evenodd" clip-rule="evenodd" d="M28.3576 28.2958C27.4768 28.5064 26.5489 28.3827 25.754 27.9487C24.9591 27.5147 24.3538 26.8013 24.0547 25.9464C24.4578 25.6981 24.9121 25.5452 25.3834 25.4994C25.8546 25.4536 26.33 25.5162 26.7734 25.6822C27.2168 25.8483 27.6164 26.1135 27.9416 26.4576C28.2668 26.8017 28.5093 27.2155 28.6501 27.6676C27.144 26.6951 26.4043 25.9464 25.3372 26.0411C26.5298 26.4835 27.5673 27.264 28.3231 28.2872L28.3576 28.2958Z" fill="white"/>
<path fill-rule="evenodd" clip-rule="evenodd" d="M35.5185 20.5507C34.1071 19.7675 33.6934 18.3476 34.0032 16.6694C34.4037 16.7149 34.7891 16.8509 35.1294 17.0671C35.4696 17.2832 35.7559 17.5738 35.9673 17.917C36.1786 18.2602 36.3097 18.647 36.3496 19.0481C36.3896 19.4492 36.3379 19.8541 36.1984 20.2323C35.596 18.8037 35.6384 18.2873 34.9327 17.7452C35.3306 18.6263 35.5309 19.584 35.5185 20.5507Z" fill="white"/>
<path fill-rule="evenodd" clip-rule="evenodd" d="M33.4539 28.8123C32.6794 30.5335 31.0534 30.8433 29.2031 30.5852C29.2892 28.494 31.2163 27.5731 33.0665 28.0034C31.5175 28.7866 30.993 28.623 30.3217 29.4491C31.2862 28.9468 32.3683 28.7149 33.4539 28.778V28.8123Z" fill="white"/>
<path fill-rule="evenodd" clip-rule="evenodd" d="M80.7773 16.0238L81.1303 16.1099V15.9463L80.7773 16.0238Z" fill="white"/>
<path fill-rule="evenodd" clip-rule="evenodd" d="M191.396 6.85012V4.56104H190.828V4.01025H192.696V4.56104H192.102V6.85012H191.396ZM193.022 6.85012V4.01025H194.055L194.322 5.21509C194.322 5.21509 194.322 5.29245 194.322 5.43875C194.322 5.58505 194.365 5.73135 194.391 5.87765C194.391 5.76578 194.391 5.63671 194.451 5.4732C194.511 5.30969 194.451 5.22369 194.451 5.20648L194.718 4.01025H195.776V6.85012H195.114L195.174 4.65569L194.692 6.85012H194.15L193.676 4.65569L193.737 6.85012H193.065H193.022Z" fill="white"/>
<path fill-rule="evenodd" clip-rule="evenodd" d="M193.384 0.912109C193.952 0.914999 194.513 1.0314 195.035 1.25458C195.556 1.47776 196.028 1.80311 196.422 2.21149C197.228 3.04849 197.678 4.16516 197.678 5.32691C197.678 6.48865 197.228 7.60521 196.422 8.44221C196.026 8.84674 195.553 9.169 195.032 9.39052C194.511 9.61203 193.951 9.72846 193.384 9.73309C192.816 9.73344 192.254 9.61923 191.73 9.39745C191.207 9.17567 190.733 8.85087 190.338 8.44221C189.532 7.60521 189.082 6.48865 189.082 5.32691C189.082 4.16516 189.532 3.04849 190.338 2.21149C190.732 1.80128 191.205 1.4748 191.728 1.25153C192.252 1.02826 192.815 0.912872 193.384 0.912109ZM196.043 2.63328C195.699 2.27431 195.286 1.98871 194.828 1.7936C194.37 1.59849 193.877 1.49788 193.38 1.49788C192.882 1.49788 192.39 1.59849 191.933 1.7936C191.475 1.98871 191.061 2.27431 190.717 2.63328C190.011 3.36612 189.617 4.34386 189.617 5.36126C189.617 6.37866 190.011 7.35651 190.717 8.08935C191.062 8.44615 191.476 8.72983 191.934 8.92356C192.391 9.11729 192.883 9.21708 193.38 9.21708C193.877 9.21708 194.369 9.11729 194.826 8.92356C195.284 8.72983 195.697 8.44615 196.043 8.08935C196.749 7.35651 197.143 6.37866 197.143 5.36126C197.143 4.34386 196.749 3.36612 196.043 2.63328Z" fill="white"/>
<path fill-rule="evenodd" clip-rule="evenodd" d="M71.9693 21.1874C71.9535 21.3994 71.9535 21.6122 71.9693 21.8242C71.971 21.953 72.0169 22.0775 72.0987 22.1771C72.1443 22.225 72.1986 22.2633 72.2592 22.2899C72.3198 22.3165 72.3855 22.3308 72.4517 22.3319C72.6808 22.3486 72.9108 22.3486 73.14 22.3319H74.7662C75.6267 22.3319 76.3584 22.332 76.9092 22.2631C77.4079 22.2508 77.8946 22.1065 78.3194 21.845C78.7442 21.5835 79.0923 21.214 79.3279 20.7743C79.7118 20.125 80.0422 19.4458 80.3171 18.7433L81.1264 18.9327C81.1264 19.0101 81.1259 19.2166 81.0398 19.5609C80.9538 19.9051 80.9198 20.2837 80.8423 20.714C80.7649 21.1443 80.6614 21.5747 80.5667 22.0652C80.472 22.5557 80.3689 22.9258 80.2742 23.2614C80.2227 23.4338 80.1148 23.584 79.9683 23.6884C79.8218 23.7929 79.6447 23.8455 79.4649 23.8379H76.4016C75.1882 23.8379 73.7165 23.8379 71.9953 23.8379H69.2673C69.2059 23.8452 69.1437 23.8355 69.0875 23.8097C69.0313 23.7839 68.9833 23.7431 68.9488 23.6917C68.9006 23.6077 68.8741 23.513 68.8715 23.4163V6.95329C68.8775 6.6919 68.8453 6.43111 68.7765 6.17885C68.73 6.00506 68.6415 5.8454 68.5185 5.7141C68.403 5.60257 68.2612 5.52255 68.1059 5.48173C67.9318 5.43552 67.7523 5.41241 67.5722 5.41292C67.3303 5.41298 67.0889 5.43018 66.8495 5.4645L66.7461 4.53511C67.3485 4.41463 67.9079 4.31999 68.4673 4.24254C69.0266 4.16509 69.4652 4.09616 69.8783 4.05313C70.2914 4.0101 70.6274 3.96708 70.9028 3.94987H71.4272C71.4993 3.9395 71.5733 3.94622 71.6423 3.96951C71.7114 3.9928 71.7736 4.03209 71.8247 4.08402C71.8758 4.13595 71.9143 4.19909 71.9365 4.26849C71.9587 4.33788 71.964 4.41149 71.9525 4.48342V21.2218L71.9693 21.1874ZM81.9265 12.1254C82.5289 11.9533 83.071 11.8156 83.5787 11.6951L84.9125 11.4112C85.2997 11.3337 85.6185 11.2734 85.868 11.2476L86.3496 11.196C86.7024 11.196 86.8748 11.3939 86.8748 11.7984V23.3561C86.8807 23.4128 86.8749 23.4702 86.858 23.5247C86.8411 23.5792 86.8135 23.6298 86.7765 23.6732C86.7395 23.7167 86.694 23.7522 86.6429 23.7775C86.5918 23.8029 86.536 23.8176 86.479 23.8208L85.8848 23.9155L85.2654 23.9843H84.7234H84.3444C84.0776 23.9843 83.9485 23.8466 83.9485 23.5626V14.3544C83.9921 13.9295 83.8929 13.5023 83.6653 13.1409C83.5565 13.0236 83.4219 12.9325 83.2728 12.8743C83.1238 12.8162 82.9642 12.7926 82.8047 12.8053H82.4517C82.3129 12.8163 82.1745 12.8364 82.0383 12.8655L81.9349 12.0738L81.9265 12.1254ZM86.9782 5.95509C87.0016 6.19591 86.971 6.43892 86.8891 6.66661C86.8073 6.8943 86.6765 7.10093 86.5051 7.27171C86.1148 7.56489 85.6323 7.70848 85.1453 7.67626C84.934 7.68916 84.7223 7.65492 84.5259 7.57604C84.3294 7.49716 84.1527 7.37557 84.009 7.22012C83.7296 6.85956 83.5892 6.41061 83.6132 5.95509C83.5902 5.7154 83.6223 5.47358 83.7073 5.24831C83.7924 5.02303 83.9283 4.82029 84.104 4.6556C84.4991 4.36624 84.9836 4.22594 85.4722 4.25966C85.6817 4.24452 85.8922 4.27693 86.0874 4.35442C86.2826 4.43191 86.4571 4.55249 86.5992 4.70718C86.8705 5.06447 87.0053 5.50725 86.9782 5.95509ZM89.3532 11.9189L90.2911 11.8587L91.3072 11.7898V9.36297C91.3032 8.62319 91.352 7.88412 91.4534 7.15132C91.5451 6.56751 91.6828 5.99196 91.866 5.43015C92.0311 4.94633 92.254 4.48397 92.5291 4.05313C92.7774 3.65471 93.0658 3.28279 93.3897 2.94305C94.0912 2.23416 94.9572 1.71046 95.911 1.41907C96.8647 1.12767 97.8762 1.07765 98.8541 1.27346C99.2378 1.34409 99.6075 1.47793 99.9475 1.6694C100.283 1.84176 100.577 2.08554 100.808 2.38365C101.03 2.6946 101.144 3.06904 101.135 3.45077C101.147 3.72322 101.093 3.99463 100.979 4.24254C100.883 4.44898 100.739 4.62908 100.558 4.76748C100.376 4.90663 100.169 5.00891 99.9475 5.06867C99.6938 5.12887 99.4333 5.15775 99.1726 5.1547C98.9393 5.154 98.7067 5.1368 98.4759 5.10312V4.75026C98.4798 4.46277 98.4648 4.17533 98.4322 3.88967C98.4061 3.64988 98.33 3.41822 98.2086 3.20978C98.0855 3.01844 97.913 2.86383 97.7094 2.76226C97.4372 2.64901 97.1435 2.59622 96.8489 2.60741C96.3668 2.5841 95.8915 2.72349 95.4983 3.00325C95.147 3.2814 94.8734 3.64618 94.7058 4.06175C94.5102 4.54918 94.3859 5.06217 94.336 5.585C94.2763 6.17977 94.2479 6.77721 94.2503 7.37497V11.6779L96.2723 11.6005H97.7094C97.7982 11.6034 97.8836 11.6369 97.9506 11.6951C97.9907 11.7315 98.0209 11.7774 98.0389 11.8284C98.0569 11.8795 98.0624 11.9343 98.054 11.9878L97.9851 13.0377H94.2242V23.3647C94.2338 23.4798 94.1975 23.5941 94.1234 23.6827C94.0493 23.7713 93.9434 23.827 93.8284 23.8379L93.2258 23.9241C93.0107 23.9241 92.8128 23.9757 92.6149 23.9929C92.4169 24.0101 92.2363 23.9929 92.0728 23.9929H91.6854C91.4272 23.9929 91.2979 23.8552 91.2979 23.5712V12.9688L89.3961 13.0204L89.3448 11.8845L89.3532 11.9189ZM110.137 22.3836L109.775 21.437C109.254 21.6459 108.715 21.8099 108.166 21.9275C107.601 22.0555 107.024 22.1218 106.445 22.1254C105.729 22.1368 105.017 22.0173 104.345 21.7726C103.768 21.5537 103.244 21.2149 102.808 20.7788C102.372 20.3427 102.034 19.819 101.815 19.2424C101.578 18.6191 101.439 17.9632 101.401 17.2975L109.147 16.8758C109.316 16.2759 109.412 15.6574 109.431 15.0342C109.434 14.4977 109.344 13.9648 109.164 13.4594C109.005 12.9961 108.747 12.5731 108.407 12.2201C108.064 11.8679 107.651 11.5922 107.194 11.4112C106.663 11.2098 106.099 11.1106 105.532 11.1186C104.605 11.117 103.687 11.2861 102.822 11.6177C101.991 11.9386 101.228 12.4146 100.575 13.0204C99.9274 13.6322 99.4121 14.3703 99.0608 15.1891C98.6732 16.079 98.4794 17.0413 98.4927 18.0119C98.4931 18.7954 98.6177 19.5739 98.8625 20.3182C99.0857 21.0343 99.4456 21.7005 99.9214 22.2803C100.416 22.8827 101.041 23.3652 101.749 23.6916C102.457 24.018 103.23 24.1798 104.009 24.165C104.408 24.1564 104.805 24.1133 105.197 24.036C105.679 23.9499 106.195 23.8294 106.746 23.6745C107.296 23.5196 107.87 23.3302 108.467 23.1065C109.043 22.8827 109.594 22.6504 110.119 22.3836H110.137ZM106.488 15.8948L101.427 16.2649C101.435 15.8079 101.501 15.3537 101.625 14.9137C101.733 14.5053 101.92 14.1223 102.176 13.7864C102.427 13.4588 102.747 13.1912 103.114 13.0032C103.54 12.7961 104.009 12.6957 104.482 12.7107C104.778 12.7104 105.07 12.7689 105.343 12.8827C105.597 12.9958 105.824 13.1633 106.006 13.3733C106.186 13.5895 106.323 13.8376 106.41 14.1048C106.503 14.3822 106.55 14.6729 106.548 14.9654C106.548 15.1289 106.548 15.2838 106.548 15.4215C106.537 15.5751 106.514 15.7276 106.479 15.8775L106.488 15.8948ZM123.441 16.7554L120.937 23.7089C120.916 23.7713 120.877 23.826 120.825 23.8659C120.773 23.9058 120.71 23.9291 120.644 23.9327H119.973C119.715 23.9327 119.439 23.9327 119.112 23.9327C118.932 23.9327 118.846 23.881 118.846 23.7691C118.837 23.7412 118.837 23.711 118.846 23.6831L126.35 5.215L126.005 4.24254C126.001 4.17952 126.001 4.11616 126.005 4.05313C126.005 3.88102 126.109 3.78637 126.315 3.75195C126.522 3.71753 126.694 3.68311 126.926 3.6573L127.606 3.57987L128.217 3.52819H128.631C128.741 3.53111 128.848 3.5708 128.933 3.64091C129.019 3.71101 129.079 3.80761 129.104 3.91551L136.444 23.227C136.47 23.2873 136.488 23.351 136.496 23.4163C136.496 23.6056 136.384 23.7175 136.169 23.7519L135.506 23.8465L134.783 23.9155H134.13H133.708C133.626 23.9218 133.544 23.9007 133.476 23.8555C133.407 23.8103 133.356 23.7436 133.33 23.6659L130.653 16.5574L123.441 16.6779V16.7554ZM123.975 15.3096H130.154L127.021 6.95329L123.975 15.3096ZM146.694 11.9964L143.613 20.1891H143.544L140.369 11.807C140.306 11.6506 140.228 11.5007 140.136 11.3595C140.093 11.3037 140.037 11.2602 139.972 11.233C139.907 11.2058 139.836 11.196 139.766 11.2046C139.59 11.2143 139.414 11.2373 139.241 11.2734C138.966 11.2734 138.639 11.3853 138.243 11.4627L136.961 11.7554C136.496 11.8759 136.04 11.9963 135.593 12.134L135.696 12.9258L136.074 12.8741H136.419C136.726 12.8726 137.027 12.9658 137.279 13.1409C137.592 13.4354 137.828 13.8017 137.968 14.2081L142.064 23.8122C142.099 23.9018 142.159 23.9795 142.236 24.036C142.289 24.072 142.353 24.09 142.417 24.0875H142.864L143.346 24.0273C143.458 24.0273 143.553 23.9068 143.63 23.7261L149.224 11.7382C149.27 11.647 149.296 11.5474 149.302 11.4456C149.302 11.3165 149.198 11.2476 149.009 11.2476C148.903 11.237 148.796 11.237 148.691 11.2476C148.553 11.2476 148.398 11.2477 148.234 11.3079L147.727 11.3853L147.219 11.5058C147.09 11.541 146.97 11.6025 146.866 11.6865C146.78 11.7801 146.715 11.8918 146.677 12.0135L146.694 11.9964ZM161.445 22.3234C160.911 22.5816 160.36 22.8225 159.783 23.0463C159.207 23.27 158.63 23.4508 158.062 23.6143C157.494 23.7778 156.995 23.8896 156.522 23.9757C156.127 24.0528 155.727 24.096 155.326 24.1048C154.547 24.1227 153.775 23.9623 153.067 23.6356C152.36 23.3089 151.737 22.8246 151.246 22.22C150.773 21.6373 150.411 20.9722 150.179 20.258C149.938 19.5131 149.816 18.7346 149.818 17.9516C149.806 16.982 149.997 16.0206 150.377 15.1288C150.726 14.3066 151.245 13.5676 151.9 12.9603C152.548 12.348 153.312 11.8711 154.147 11.5575C155.012 11.2252 155.931 11.0559 156.858 11.0583C157.425 11.0469 157.989 11.1463 158.518 11.351C158.975 11.5285 159.387 11.8026 159.727 12.1547C160.067 12.5068 160.327 12.9285 160.489 13.3905C160.668 13.8962 160.758 14.429 160.756 14.9654C160.732 15.591 160.638 16.2118 160.472 16.8156L152.727 17.2373C152.764 17.903 152.903 18.5589 153.14 19.1823C153.359 19.7517 153.693 20.2701 154.121 20.7055C154.56 21.1472 155.088 21.4904 155.67 21.7123C156.343 21.957 157.054 22.0766 157.77 22.0652C158.349 22.0624 158.927 21.9932 159.491 21.8587C160.037 21.7451 160.573 21.5837 161.092 21.3767L161.462 22.3234H161.445ZM157.787 15.8346C157.822 15.6846 157.845 15.532 157.856 15.3784C157.865 15.2265 157.865 15.0742 157.856 14.9223C157.855 14.6294 157.804 14.3387 157.709 14.0617C157.622 13.7946 157.485 13.5464 157.305 13.3302C157.124 13.1183 156.898 12.9506 156.643 12.8398C156.371 12.7229 156.078 12.6642 155.782 12.6676C155.312 12.6537 154.845 12.7542 154.422 12.9603C154.051 13.1425 153.73 13.411 153.484 13.7433C153.225 14.0786 153.035 14.4618 152.925 14.8707C152.801 15.3108 152.735 15.7648 152.727 16.2218L157.787 15.8518V15.8346ZM170.765 2.06524C171.978 1.72961 172.968 1.48858 173.751 1.35089C174.214 1.25103 174.682 1.17918 175.154 1.13574C175.506 1.13574 175.679 1.33374 175.679 1.73821V21.4111C175.676 21.7626 175.702 22.1137 175.756 22.461C175.799 22.788 175.859 23.0893 175.919 23.3819V23.4852C175.919 23.6573 175.808 23.7606 175.584 23.8208L175.102 23.9155L174.543 23.9843H173.974H173.467C173.416 23.9879 173.366 23.9806 173.318 23.9627C173.271 23.9449 173.227 23.917 173.191 23.881C173.12 23.7941 173.073 23.6904 173.053 23.5798L172.804 22.6418C172.296 22.8484 171.78 23.0462 171.281 23.2183C170.782 23.3905 170.3 23.5626 169.852 23.6917C169.405 23.8208 168.992 23.924 168.613 24.0015C168.301 24.0778 167.98 24.1182 167.658 24.122C166.974 24.1312 166.303 23.9364 165.73 23.5626C165.147 23.1955 164.644 22.7157 164.25 22.1512C163.84 21.5712 163.526 20.929 163.321 20.2494C163.117 19.5884 163.009 18.9014 163.002 18.2098C162.978 17.1644 163.187 16.1268 163.613 15.1719C163.997 14.314 164.564 13.5504 165.274 12.9344C165.999 12.3184 166.838 11.8506 167.744 11.5575C168.72 11.2342 169.744 11.0742 170.773 11.0841C171.428 11.0841 172.08 11.1359 172.726 11.2391V4.35442C172.771 3.92408 172.671 3.49119 172.442 3.12374C172.322 3.0061 172.177 2.91598 172.018 2.85954C171.859 2.80309 171.69 2.78166 171.522 2.79671C171.295 2.79774 171.067 2.81504 170.842 2.8484L170.739 2.05663L170.765 2.06524ZM172.752 14.5179C172.76 14.1869 172.664 13.8619 172.477 13.5885C172.295 13.3371 172.06 13.1285 171.789 12.9774C171.519 12.8296 171.229 12.7223 170.928 12.659C170.614 12.5915 170.294 12.5569 169.972 12.5557C169.343 12.5418 168.717 12.653 168.131 12.8827C167.65 13.0812 167.225 13.3944 166.892 13.795C166.558 14.206 166.317 14.6846 166.186 15.1977C166.034 15.7792 165.959 16.3781 165.963 16.9791C165.967 17.5578 166.03 18.1345 166.152 18.7003C166.277 19.3003 166.485 19.8797 166.771 20.4214C167.046 20.9379 167.431 21.3875 167.899 21.7382C168.398 22.0991 169.005 22.281 169.62 22.2545C169.769 22.2636 169.918 22.2636 170.067 22.2545C170.308 22.2291 170.546 22.1888 170.782 22.134C171.48 21.9721 172.163 21.7475 172.821 21.4628V14.5782L172.752 14.5179ZM179.473 12.4955C180.05 12.2631 180.609 12.0566 181.194 11.8759C181.78 11.6952 182.262 11.5489 182.753 11.437C183.243 11.3251 183.682 11.2304 184.086 11.1616C184.414 11.1083 184.745 11.0796 185.076 11.0755C185.747 11.0547 186.416 11.1478 187.055 11.351C187.564 11.5087 188.017 11.8071 188.363 12.2116C188.714 12.6635 188.956 13.1908 189.069 13.7519C189.219 14.488 189.286 15.2385 189.267 15.9894L189.181 21.4799C189.168 21.8056 189.191 22.1318 189.25 22.4524C189.301 22.7536 189.362 23.0548 189.43 23.313C189.438 23.3557 189.438 23.3994 189.43 23.4421C189.43 23.6142 189.327 23.7089 189.112 23.7433C188.897 23.7777 188.811 23.8121 188.63 23.8379C188.45 23.8638 188.26 23.8896 188.079 23.9068C187.898 23.9241 187.71 23.9068 187.52 23.9068H187.029C186.98 23.9104 186.931 23.9028 186.885 23.885C186.839 23.8671 186.797 23.8394 186.763 23.8036C186.692 23.7167 186.644 23.613 186.625 23.5024L186.41 22.702C185.997 22.8913 185.549 23.0721 185.128 23.2356C184.706 23.3991 184.267 23.5454 183.871 23.6659C183.475 23.7863 183.096 23.8724 182.769 23.9412C182.507 24.0021 182.239 24.0368 181.969 24.0446C181.446 24.0571 180.927 23.9451 180.455 23.7175C180.048 23.5042 179.688 23.2116 179.396 22.857C178.881 22.2208 178.596 21.4292 178.587 20.6107C178.574 20.0492 178.691 19.4923 178.931 18.9843C179.144 18.5481 179.457 18.1678 179.844 17.8742C180.207 17.6034 180.607 17.386 181.031 17.2287C181.525 17.0571 182.031 16.9248 182.546 16.8329C183.088 16.7468 183.682 16.6693 184.327 16.6262C184.973 16.5832 185.627 16.5488 186.333 16.523V15.9551C186.343 15.4942 186.311 15.0333 186.238 14.5782C186.185 14.21 186.052 13.8577 185.85 13.5454C185.664 13.2667 185.401 13.0484 185.093 12.9172C184.712 12.7574 184.302 12.6811 183.889 12.6934C183.27 12.6981 182.652 12.7644 182.047 12.8913C181.305 13.0505 180.573 13.2487 179.852 13.4852L179.483 12.3664L179.473 12.4955ZM186.29 17.7967L184.835 17.8914C184.388 17.8914 183.974 17.9602 183.595 18.0119C183.259 18.0617 182.93 18.1512 182.615 18.2786C182.346 18.387 182.107 18.5581 181.918 18.7777C181.777 18.9561 181.666 19.1568 181.59 19.3716C181.502 19.6202 181.459 19.8824 181.462 20.1461C181.463 20.3935 181.498 20.6396 181.565 20.8776C181.641 21.1313 181.77 21.366 181.943 21.5661C182.148 21.7878 182.398 21.9637 182.675 22.0824C183.049 22.2245 183.446 22.2917 183.845 22.2803C183.951 22.2892 184.058 22.2892 184.164 22.2803C184.349 22.2572 184.534 22.2227 184.715 22.1771C184.921 22.1254 185.162 22.0566 185.429 21.9619C185.706 21.867 185.975 21.7549 186.238 21.6263L186.29 17.8311V17.7967Z" fill="white"/>
<path d="M193.809 26.8848H62.4062V28.0551H193.809V26.8848Z" fill="white"/>
<path fill-rule="evenodd" clip-rule="evenodd" d="M70.3056 37.4353H71.1662L68.5845 31.6952H67.7928L65.2539 37.4353H66.1145L66.7339 35.9981H69.7115L70.3224 37.4353H70.3056ZM66.9919 35.344L68.197 32.53L69.4106 35.344H66.9919ZM76.0541 37.4353H76.8541V32.4095H78.7392V31.7382H74.1009V32.4525H76.0196V37.4784L76.0541 37.4353ZM80.968 33.8209V33.0893H80.2368V37.3922H81.0024V35.2323C80.9741 35.0443 80.9878 34.8523 81.0428 34.6703C81.0977 34.4884 81.1924 34.3209 81.3201 34.1801C81.4478 34.0392 81.6058 33.9285 81.7815 33.856C81.9572 33.7834 82.1463 33.7508 82.3361 33.7606H82.5168V32.9947C82.2118 32.9637 81.9045 33.0202 81.6302 33.1573C81.3559 33.2944 81.1262 33.5066 80.968 33.7692V33.8209ZM87.5089 33.0893V35.3355C87.5357 35.5198 87.5211 35.7077 87.4669 35.8859C87.4126 36.0641 87.3195 36.2281 87.1946 36.3662C87.0696 36.5043 86.916 36.6132 86.7441 36.6849C86.5722 36.7567 86.3864 36.7895 86.2004 36.7812C85.4689 36.7812 85.0557 36.3596 85.0557 35.499V33.0893H84.2901V35.5936C84.2763 35.9789 84.3848 36.3586 84.6002 36.6783C84.8156 36.998 85.1271 37.2413 85.4894 37.3732C85.8516 37.5051 86.2458 37.5188 86.6164 37.4125C86.9869 37.3062 87.3146 37.0852 87.5518 36.7812V37.4353H88.2829V33.1324H87.5089V33.0893ZM94.3936 35.2925C94.4176 35.0045 94.3805 34.7148 94.286 34.4417C94.1915 34.1687 94.0408 33.9184 93.8439 33.7069C93.647 33.4954 93.4086 33.3275 93.143 33.2137C92.8774 33.0999 92.5907 33.043 92.3018 33.0463C92.0131 33.0424 91.7269 33.0978 91.4605 33.2091C91.1941 33.3204 90.953 33.4853 90.7529 33.6935C90.5528 33.9016 90.3981 34.1486 90.2974 34.4193C90.1967 34.6899 90.1526 34.9783 90.168 35.2666C90.1578 35.5661 90.2099 35.8644 90.3218 36.1424C90.4336 36.4204 90.6021 36.6719 90.8168 36.8809C91.0315 37.09 91.288 37.2518 91.5689 37.3562C91.8498 37.4605 92.1489 37.5051 92.448 37.487C92.7698 37.5095 93.0925 37.4575 93.3909 37.3351C93.6894 37.2127 93.9558 37.0232 94.1692 36.7812L93.7481 36.2735C93.5937 36.4455 93.4035 36.5816 93.1909 36.6723C92.9783 36.763 92.7479 36.8061 92.5169 36.7985C92.147 36.8231 91.7817 36.7046 91.4967 36.4676C91.2116 36.2305 91.029 35.8931 90.9857 35.5248H94.428C94.4323 35.4446 94.4323 35.3641 94.428 35.2838L94.3936 35.2925ZM92.3018 33.709C92.6456 33.7016 92.9788 33.8273 93.2321 34.0598C93.4855 34.2923 93.6395 34.6137 93.6616 34.9568H90.942C90.9641 34.6137 91.1181 34.2923 91.3714 34.0598C91.6248 33.8273 91.958 33.7016 92.3018 33.709ZM98.5326 37.4353H100.899C101.289 37.4567 101.68 37.3983 102.046 37.2638C102.413 37.1292 102.748 36.9212 103.032 36.6526C103.316 36.384 103.542 36.0603 103.697 35.7014C103.851 35.3425 103.931 34.956 103.931 34.5653C103.931 34.1746 103.851 33.7879 103.697 33.429C103.542 33.0702 103.316 32.7465 103.032 32.4779C102.748 32.2093 102.413 32.0014 102.046 31.8668C101.68 31.7322 101.289 31.6738 100.899 31.6952H98.5326V37.4353ZM99.3327 36.7297V32.4268H100.848C101.147 32.4 101.447 32.4357 101.731 32.5317C102.015 32.6277 102.276 32.7818 102.498 32.9842C102.719 33.1865 102.896 33.4328 103.017 33.7072C103.138 33.9817 103.2 34.2783 103.2 34.5782C103.2 34.8781 103.138 35.1746 103.017 35.4491C102.896 35.7235 102.719 35.9699 102.498 36.1723C102.276 36.3747 102.015 36.5286 101.731 36.6246C101.447 36.7206 101.147 36.7564 100.848 36.7297H99.3327ZM109.66 35.2925C109.682 35.0041 109.645 34.7142 109.55 34.4411C109.454 34.1681 109.303 33.9179 109.105 33.7066C108.907 33.4953 108.668 33.3274 108.402 33.2137C108.136 33.1 107.85 33.0431 107.56 33.0463C107.272 33.0424 106.985 33.0978 106.718 33.2091C106.452 33.3204 106.212 33.4853 106.011 33.6935C105.811 33.9016 105.656 34.1486 105.555 34.4193C105.454 34.6899 105.41 34.9783 105.426 35.2666C105.416 35.5661 105.468 35.8644 105.58 36.1424C105.692 36.4204 105.861 36.6719 106.075 36.8809C106.29 37.09 106.546 37.2518 106.827 37.3562C107.108 37.4605 107.407 37.5051 107.707 37.487C108.021 37.5028 108.335 37.4476 108.626 37.3254C108.916 37.2033 109.176 37.0173 109.385 36.7812L108.963 36.2735C108.809 36.4455 108.618 36.5816 108.406 36.6723C108.193 36.763 107.964 36.8061 107.733 36.7985C107.363 36.8231 106.997 36.7046 106.712 36.4676C106.427 36.2305 106.244 35.8931 106.201 35.5248H109.643C109.647 35.4446 109.647 35.3641 109.643 35.2838L109.66 35.2925ZM107.552 33.709C107.897 33.7015 108.231 33.8269 108.486 34.0593C108.74 34.2916 108.896 34.6129 108.92 34.9568H106.192C106.218 34.6152 106.373 34.2963 106.626 34.0646C106.878 33.8329 107.209 33.7058 107.552 33.709ZM114.437 33.0893L112.956 36.5316L111.493 33.0893H110.693L112.552 37.3922H113.335L115.194 33.0893H114.437ZM118.421 37.487C118.86 37.4887 119.29 37.3599 119.656 37.117C120.023 36.8741 120.309 36.5278 120.478 36.1223C120.648 35.7167 120.692 35.27 120.608 34.8387C120.523 34.4075 120.313 34.011 120.003 33.6997C119.692 33.3883 119.296 33.176 118.866 33.0896C118.435 33.0033 117.988 33.0467 117.581 33.2145C117.175 33.3823 116.828 33.6669 116.584 34.0323C116.339 34.3976 116.209 34.8271 116.209 35.2666C116.197 35.5607 116.246 35.8541 116.353 36.1284C116.459 36.4026 116.622 36.6518 116.829 36.8604C117.037 37.0689 117.286 37.2322 117.56 37.34C117.833 37.4478 118.127 37.4979 118.421 37.487ZM118.421 36.7985C118.015 36.7985 117.625 36.6371 117.338 36.3498C117.05 36.0625 116.889 35.6729 116.889 35.2666C116.889 34.8603 117.05 34.4707 117.338 34.1834C117.625 33.8962 118.015 33.7347 118.421 33.7347C118.799 33.7749 119.149 33.9537 119.403 34.2365C119.658 34.5193 119.798 34.8862 119.798 35.2666C119.798 35.647 119.658 36.0139 119.403 36.2967C119.149 36.5796 118.799 36.7583 118.421 36.7985ZM124.643 36.6178C124.47 36.7517 124.258 36.8244 124.04 36.8243C123.618 36.8243 123.378 36.5576 123.378 36.0928V33.7347H124.591V33.0893H123.378V32.1341H122.603V33.0893H121.889V33.7347H122.603V36.1272C122.583 36.3099 122.604 36.4949 122.664 36.6685C122.725 36.8421 122.824 37 122.953 37.1304C123.083 37.2609 123.24 37.3606 123.413 37.4223C123.586 37.484 123.771 37.5061 123.954 37.487C124.29 37.4997 124.619 37.3929 124.884 37.1857L124.643 36.6178ZM127.001 32.246C127.074 32.2554 127.147 32.2493 127.218 32.2279C127.288 32.2065 127.353 32.1704 127.408 32.1219C127.464 32.0734 127.508 32.0138 127.538 31.9469C127.568 31.88 127.583 31.8074 127.583 31.7339C127.583 31.6605 127.568 31.5879 127.538 31.521C127.508 31.4541 127.464 31.3944 127.408 31.346C127.353 31.2975 127.288 31.2614 127.218 31.24C127.147 31.2186 127.074 31.2125 127.001 31.2219C126.932 31.2208 126.864 31.2332 126.801 31.2587C126.737 31.2841 126.679 31.322 126.63 31.37C126.581 31.4181 126.542 31.4754 126.516 31.5386C126.489 31.6019 126.475 31.6697 126.476 31.7382C126.475 31.8064 126.489 31.8738 126.516 31.9366C126.542 31.9993 126.581 32.0561 126.63 32.1035C126.679 32.1509 126.737 32.1879 126.801 32.2123C126.864 32.2368 126.933 32.2483 127.001 32.246ZM126.613 37.4095H127.388V33.1065H126.613V37.4095ZM131.476 37.4611C131.915 37.4628 132.345 37.3341 132.711 37.0912C133.078 36.8482 133.364 36.5021 133.533 36.0965C133.703 35.691 133.747 35.2443 133.663 34.813C133.578 34.3817 133.368 33.9853 133.058 33.6739C132.747 33.3625 132.351 33.1502 131.921 33.0638C131.49 32.9774 131.043 33.0209 130.636 33.1887C130.23 33.3565 129.883 33.6411 129.639 34.0064C129.394 34.3717 129.264 34.8013 129.264 35.2408C129.252 35.5348 129.301 35.8282 129.408 36.1025C129.514 36.3768 129.677 36.626 129.884 36.8345C130.092 37.043 130.341 37.2063 130.615 37.3142C130.888 37.422 131.182 37.4721 131.476 37.4611ZM131.476 36.7726C131.169 36.7933 130.864 36.7214 130.599 36.5662C130.333 36.411 130.121 36.1796 129.989 35.9022C129.857 35.6247 129.812 35.314 129.859 35.0104C129.906 34.7068 130.043 34.4242 130.252 34.1995C130.462 33.9748 130.734 33.8184 131.034 33.7504C131.334 33.6824 131.646 33.7062 131.932 33.8185C132.218 33.9308 132.464 34.1263 132.637 34.38C132.811 34.6336 132.904 34.9335 132.905 35.2408C132.919 35.4369 132.892 35.6339 132.827 35.8193C132.761 36.0047 132.658 36.1746 132.524 36.3184C132.39 36.4622 132.228 36.5768 132.047 36.655C131.867 36.7331 131.673 36.7731 131.476 36.7726ZM137.819 33.0205C137.526 33.0045 137.233 33.0594 136.966 33.1808C136.7 33.3022 136.467 33.4864 136.286 33.7176V33.0636H135.538V37.3665H136.313V35.1806C136.287 34.9935 136.302 34.8031 136.359 34.623C136.416 34.4429 136.512 34.2776 136.64 34.1392C136.769 34.0008 136.926 33.8927 137.102 33.8228C137.277 33.7528 137.466 33.7228 137.655 33.7347C138.386 33.7347 138.799 34.1565 138.799 35.0085V37.4181H139.565V34.9137C139.598 34.6725 139.578 34.4269 139.505 34.1944C139.433 33.9618 139.311 33.7481 139.146 33.5682C138.982 33.3884 138.78 33.2469 138.555 33.1537C138.33 33.0605 138.087 33.018 137.844 33.0291L137.819 33.0205ZM146.106 36.5919C145.938 36.727 145.728 36.8 145.512 36.7985C145.417 36.8047 145.321 36.7895 145.233 36.754C145.144 36.7186 145.065 36.6638 145.001 36.5936C144.936 36.5234 144.889 36.4397 144.861 36.3485C144.833 36.2574 144.826 36.1612 144.84 36.067V33.709H146.063V33.0636H144.84V32.1083H144.144V33.0636H143.421V33.709H144.144V36.1014C144.122 36.2836 144.141 36.4685 144.201 36.6422C144.26 36.8158 144.358 36.9739 144.487 37.1045C144.616 37.2351 144.773 37.335 144.946 37.3967C145.119 37.4585 145.303 37.4805 145.486 37.4611C145.822 37.4769 146.152 37.3699 146.415 37.16L146.175 36.5919H146.106ZM149.763 37.4525C150.203 37.4542 150.633 37.3255 150.999 37.0825C151.365 36.8396 151.651 36.4935 151.821 36.0879C151.99 35.6824 152.035 35.2356 151.95 34.8044C151.865 34.3731 151.655 33.9767 151.345 33.6653C151.035 33.3539 150.639 33.1415 150.208 33.0552C149.777 32.9688 149.33 33.0123 148.924 33.1801C148.518 33.3479 148.171 33.6325 147.926 33.9978C147.682 34.3631 147.551 34.7928 147.551 35.2323C147.539 35.5263 147.588 35.8196 147.695 36.0939C147.802 36.3682 147.964 36.6175 148.172 36.826C148.379 37.0345 148.628 37.1977 148.902 37.3056C149.176 37.4134 149.469 37.4635 149.763 37.4525ZM149.763 36.764C149.454 36.7883 149.145 36.7188 148.876 36.5645C148.607 36.4103 148.392 36.1785 148.256 35.8994C148.121 35.6204 148.074 35.3072 148.12 35.0006C148.165 34.6941 148.302 34.4084 148.513 34.1811C148.724 33.9538 148.998 33.7953 149.3 33.7265C149.603 33.6576 149.919 33.6814 150.207 33.7949C150.496 33.9085 150.743 34.1064 150.917 34.3629C151.091 34.6193 151.184 34.9223 151.183 35.2323C151.197 35.4276 151.171 35.6238 151.106 35.8087C151.041 35.9935 150.939 36.163 150.806 36.3066C150.673 36.4503 150.512 36.565 150.332 36.6437C150.153 36.7224 149.959 36.7634 149.763 36.764ZM160.09 31.6608V34.1307H156.872V31.7382H156.071V37.4784H156.872V34.8966H160.09V37.4784H160.89V31.7382L160.09 31.6608ZM167.104 35.258C167.128 34.9701 167.091 34.6803 166.997 34.4073C166.902 34.1343 166.752 33.8839 166.555 33.6725C166.358 33.461 166.12 33.293 165.854 33.1792C165.588 33.0655 165.302 33.0085 165.013 33.0119C164.724 33.0079 164.438 33.0634 164.171 33.1747C163.905 33.286 163.664 33.4508 163.464 33.659C163.264 33.8672 163.108 34.1142 163.007 34.3848C162.907 34.6554 162.863 34.9439 162.878 35.2323C162.868 35.5317 162.921 35.83 163.033 36.108C163.144 36.386 163.313 36.6376 163.528 36.8466C163.742 37.0556 163.998 37.2174 164.279 37.3217C164.56 37.4261 164.86 37.4707 165.159 37.4525C165.481 37.475 165.803 37.423 166.102 37.3006C166.4 37.1782 166.667 36.9887 166.88 36.7468L166.45 36.2391C166.298 36.4118 166.109 36.5486 165.898 36.6394C165.686 36.7302 165.458 36.7728 165.228 36.764C164.858 36.7886 164.493 36.6701 164.208 36.4331C163.922 36.1961 163.739 35.8586 163.696 35.4904H167.138C167.142 35.4101 167.142 35.3296 167.138 35.2494L167.104 35.258ZM165.013 33.6746C165.356 33.6693 165.688 33.7957 165.941 34.0277C166.194 34.2598 166.348 34.58 166.372 34.9224H163.644C163.671 34.5792 163.827 34.2591 164.081 34.0272C164.336 33.7953 164.669 33.6692 165.013 33.6746ZM170.4 33.0119C169.78 33.0005 169.173 33.1975 168.679 33.5713L168.997 34.165C169.375 33.8551 169.851 33.6877 170.34 33.6918C171.106 33.6918 171.475 34.079 171.475 34.7417V34.8966H170.262C168.997 34.8966 168.541 35.4732 168.541 36.1703C168.541 36.8673 169.143 37.4525 170.107 37.4525C170.373 37.475 170.64 37.43 170.884 37.3216C171.128 37.2133 171.34 37.0453 171.501 36.8329V37.4095H172.233V34.7761C172.253 34.5358 172.219 34.294 172.133 34.0686C172.048 33.8433 171.912 33.6403 171.737 33.4747C171.561 33.3092 171.351 33.1855 171.121 33.1128C170.891 33.0402 170.647 33.0204 170.408 33.055L170.4 33.0119ZM170.227 36.8501C169.642 36.8501 169.29 36.5747 169.29 36.1444C169.29 35.7141 169.505 35.4645 170.271 35.4645H171.45V36.0756C171.354 36.3164 171.183 36.5203 170.964 36.658C170.744 36.7957 170.486 36.86 170.227 36.8415V36.8501ZM174.453 37.4008H175.228V31.308H174.453V37.4008ZM177.895 32.2373C177.968 32.2468 178.043 32.2407 178.113 32.2193C178.183 32.1979 178.248 32.1617 178.303 32.1133C178.358 32.0648 178.402 32.0052 178.432 31.9383C178.463 31.8714 178.479 31.7987 178.479 31.7253C178.479 31.6519 178.463 31.5793 178.432 31.5124C178.402 31.4455 178.358 31.3858 178.303 31.3374C178.248 31.2889 178.183 31.2528 178.113 31.2314C178.043 31.21 177.968 31.2038 177.895 31.2133C177.758 31.2133 177.627 31.2677 177.531 31.3646C177.434 31.4614 177.379 31.5927 177.379 31.7296C177.378 31.7974 177.391 31.8646 177.416 31.9273C177.442 31.9901 177.48 32.047 177.528 32.0945C177.576 32.142 177.634 32.1792 177.697 32.2037C177.76 32.2283 177.828 32.2397 177.895 32.2373ZM177.517 37.4008H178.283V33.0979H177.517V37.4008ZM182.827 33.0119C182.534 32.9951 182.242 33.0498 181.975 33.1713C181.708 33.2927 181.474 33.4773 181.295 33.709V33.055H180.554V37.3579H181.321V35.1806C181.296 34.993 181.313 34.8024 181.371 34.6223C181.429 34.4423 181.526 34.2773 181.655 34.1391C181.784 34.0009 181.943 33.893 182.118 33.8231C182.294 33.7532 182.483 33.723 182.671 33.7347C183.394 33.7347 183.816 34.1565 183.816 35.0085V37.4181H184.583V34.9137C184.614 34.6727 184.592 34.4278 184.519 34.1959C184.446 33.9641 184.324 33.751 184.16 33.5715C183.996 33.392 183.795 33.2505 183.571 33.1569C183.346 33.0632 183.104 33.0195 182.861 33.0291L182.827 33.0119ZM190.168 33.0119V33.6832C189.981 33.4493 189.742 33.2628 189.47 33.1387C189.197 33.0146 188.9 32.9564 188.601 32.9689C188.314 32.9505 188.026 32.9913 187.754 33.0887C187.483 33.1861 187.234 33.3381 187.024 33.5353C186.814 33.7324 186.646 33.9706 186.531 34.2351C186.417 34.4996 186.358 34.7848 186.358 35.073C186.358 35.3612 186.417 35.6464 186.531 35.9109C186.646 36.1754 186.814 36.4136 187.024 36.6107C187.234 36.8079 187.483 36.9599 187.754 37.0573C188.026 37.1547 188.314 37.1955 188.601 37.1771C188.891 37.1887 189.179 37.1343 189.444 37.018C189.71 36.9017 189.946 36.7266 190.133 36.5059V36.8501C190.166 37.0496 190.151 37.2541 190.089 37.4465C190.027 37.639 189.92 37.8139 189.777 37.9569C189.634 38.0998 189.459 38.2066 189.266 38.2686C189.074 38.3305 188.87 38.3458 188.67 38.3131C188.076 38.3176 187.498 38.1169 187.035 37.7451L186.673 38.3561C187.251 38.8014 187.967 39.0298 188.696 39.0015C188.997 39.0439 189.305 39.0152 189.593 38.9178C189.881 38.8203 190.143 38.6569 190.357 38.4403C190.571 38.2238 190.732 37.9603 190.826 37.6707C190.92 37.3812 190.945 37.0736 190.899 36.7726V33.0119H190.168ZM188.687 36.4542C188.408 36.4458 188.138 36.3554 187.911 36.1943C187.683 36.0332 187.507 35.8086 187.406 35.5485C187.305 35.2884 187.284 35.0043 187.343 34.7318C187.403 34.4592 187.541 34.2103 187.742 34.016C187.942 33.8217 188.194 33.6906 188.469 33.6393C188.743 33.5879 189.026 33.6184 189.283 33.727C189.54 33.8356 189.759 34.0175 189.913 34.25C190.067 34.4825 190.15 34.7553 190.15 35.0342C190.157 35.2261 190.123 35.4173 190.051 35.5953C189.979 35.7734 189.871 35.9344 189.733 36.0682C189.596 36.2019 189.431 36.3053 189.251 36.3718C189.071 36.4383 188.879 36.4663 188.687 36.4542Z" fill="white"/>
</g>
<defs>
<clipPath id="clip0_8105_6274">
<rect width="220" height="40" fill="white"/>
</clipPath>
</defs>
</svg>
