<svg width="220" height="40" viewBox="0 0 220 40" fill="none" xmlns="http://www.w3.org/2000/svg">
<g clip-path="url(#clip0_8099_11309)">
<path d="M111.804 12.5486C111.552 12.7282 111.245 12.7346 110.96 12.8097C109.832 13.1095 108.716 13.4555 107.593 13.7762C106.124 14.195 104.705 14.7473 103.277 15.2793C102.542 15.5532 101.844 15.9102 101.123 16.2129C99.9998 16.6837 98.8982 17.1967 97.8231 17.7651C95.6591 18.9095 93.5609 20.1654 91.5343 21.5398C91.3524 21.6634 91.3922 21.7628 91.4719 21.9147C92.9583 24.7489 94.443 27.5842 95.9248 30.4206C96.5256 31.5703 97.1183 32.7245 97.7145 33.8764C98.0056 34.4396 98.3032 34.9994 98.5856 35.5667C98.6775 35.7516 98.7636 35.7747 98.9363 35.6615C100.17 34.851 101.421 34.0659 102.717 33.364C103.712 32.8256 104.726 32.3172 105.728 31.7909C106.973 31.1364 108.274 30.6223 109.57 30.0942C110.124 29.8684 110.714 29.7263 111.29 29.5535C112.557 29.1728 113.836 28.8407 115.12 28.5241C116.625 28.1532 118.15 27.8996 119.682 27.6795C120.686 27.5351 121.69 27.4288 122.707 27.3814C123.86 27.3283 125.006 27.1596 126.158 27.0556C126.776 26.9995 127.399 26.9782 128.019 26.9337C128.485 26.9002 128.951 26.8534 129.418 26.8147C129.549 26.8037 129.572 26.7234 129.565 26.6154C129.54 26.2041 129.523 25.7922 129.489 25.3814C129.444 24.8384 129.384 24.2959 129.334 23.7529C129.258 22.9239 129.163 22.0961 129.117 21.2654C129.078 20.5669 128.975 19.876 128.925 19.1787C128.871 18.4266 128.778 17.6767 128.708 16.9252C128.661 16.4208 128.628 15.9148 128.583 15.4099C128.512 14.5913 128.432 13.7733 128.364 12.9547C128.314 12.3539 128.277 11.7525 128.239 11.1506C128.231 11.0183 128.239 10.8964 128.053 10.8975C127.072 10.9016 126.088 10.8519 125.111 10.9172C123.963 10.9934 122.817 11.0633 121.666 11.0645C121.889 10.3932 122.034 9.70748 121.997 8.99692C121.986 8.77913 122.079 8.74793 122.262 8.74216C123.482 8.70287 124.701 8.62315 125.92 8.56596C127.678 8.48393 129.432 8.49548 131.188 8.53072C131.226 8.5313 131.265 8.53881 131.303 8.53708C131.767 8.51859 132.014 8.67341 131.957 9.20547C131.923 9.5284 132.014 9.86346 132.042 10.1939C132.048 10.273 132.062 10.3499 131.927 10.3764C131.519 10.4562 131.117 10.5677 130.71 10.6543C130.594 10.6792 130.552 10.7288 130.54 10.8421C130.5 11.2222 130.62 11.3626 131.005 11.3504C131.351 11.3395 131.687 11.44 132.035 11.4157C132.255 11.4001 132.145 11.6017 132.175 11.6953C132.287 12.0454 132.239 12.0934 131.907 12.165C131.539 12.2447 131.177 12.3527 130.812 12.4492C130.786 12.4561 130.746 12.4625 130.739 12.4798C130.659 12.6739 130.797 12.8472 130.8 13.0373C130.802 13.1702 130.937 13.1494 131.028 13.1413C131.413 13.1072 131.79 13.2147 132.172 13.1973C132.419 13.1863 132.318 13.377 132.347 13.4769C132.462 13.8877 132.389 13.9807 131.977 13.9974C131.633 14.0119 131.319 14.1638 130.988 14.2354C130.951 14.2435 130.907 14.2406 130.897 14.2857C130.85 14.4821 130.937 14.6629 130.98 14.8449C131.017 14.9968 131.176 14.9287 131.281 14.9292C131.634 14.9298 131.987 14.9402 132.338 14.9841C132.455 14.9986 132.49 15.0355 132.523 15.1413C132.663 15.5797 132.621 15.6496 132.185 15.738C131.895 15.7969 131.613 15.9044 131.322 15.9512C131.126 15.9824 131.101 16.0638 131.112 16.236C131.139 16.6554 131.044 16.6565 131.565 16.6681C131.898 16.6756 132.23 16.7444 132.566 16.7166C132.697 16.7056 132.732 16.7732 132.733 16.8876C132.735 17.0407 132.749 17.1932 132.749 17.3463C132.75 17.5144 132.579 17.5023 132.501 17.5144C132.132 17.5705 131.782 17.6958 131.417 17.7617C131.26 17.79 131.184 17.8454 131.27 18.0101C131.288 18.043 131.302 18.0863 131.295 18.1204C131.218 18.5098 131.511 18.4896 131.739 18.5046C132.027 18.5231 132.317 18.5161 132.604 18.5017C132.817 18.4913 132.939 18.5473 132.906 18.7848C132.904 18.8038 132.904 18.8235 132.908 18.8425C132.964 19.1169 132.858 19.259 132.577 19.3105C132.239 19.3723 131.908 19.4803 131.57 19.5415C131.404 19.5716 131.396 19.6565 131.412 19.7813C131.414 19.7905 131.418 19.7992 131.421 19.8084C131.487 20.1111 131.767 20.2742 132.26 20.2977C132.395 20.3041 132.53 20.2908 132.664 20.3006C132.782 20.3093 132.955 20.2325 133.006 20.3544C133.079 20.534 133.166 20.772 133.062 20.9344C132.946 21.114 132.68 21.1042 132.475 21.1608C132.257 21.2215 132.029 21.2475 131.81 21.3087C131.469 21.404 131.691 21.6738 131.662 21.8616C131.632 22.0516 131.791 22.032 131.917 22.0308C132.308 22.0256 132.695 22.1296 133.088 22.0892C133.199 22.0776 133.244 22.1348 133.25 22.2399C133.257 22.3826 133.272 22.5247 133.277 22.6674C133.28 22.7795 133.193 22.8026 133.106 22.824C132.73 22.9176 132.356 23.021 131.977 23.1024C131.829 23.1342 131.791 23.1966 131.813 23.3352C131.827 23.419 131.819 23.508 131.812 23.5935C131.8 23.75 131.86 23.8286 132.025 23.8205C132.418 23.8003 132.808 23.8505 133.199 23.8713C133.364 23.8806 133.433 23.9072 133.433 24.0932C133.435 24.56 133.445 24.5594 132.99 24.6691C132.758 24.7246 132.529 24.798 132.295 24.8355C132.061 24.8725 131.952 24.9447 131.981 25.2203C132.021 25.6062 131.993 25.6079 132.381 25.6096C132.715 25.6108 133.047 25.6079 133.381 25.6587C133.531 25.6818 133.575 25.7535 133.597 25.8684C133.672 26.2543 133.567 26.4213 133.17 26.4646C132.883 26.4958 132.618 26.6044 132.337 26.6472C132.2 26.668 132.146 26.7217 132.15 26.8736C132.163 27.3976 132.156 27.397 132.68 27.3982C132.979 27.3987 133.277 27.4016 133.575 27.4034C133.676 27.4034 133.774 27.4091 133.77 27.5495C133.758 27.9903 133.876 28.4184 133.894 28.8568C133.901 29.048 133.847 29.1237 133.638 29.1324C132.54 29.1786 131.44 29.2162 130.345 29.3086C129.302 29.3964 128.256 29.4409 127.214 29.5362C126.005 29.6465 124.796 29.7511 123.59 29.8817C122.76 29.9712 121.936 30.1145 121.108 30.2121C119.884 30.3571 118.673 30.5697 117.464 30.7996C112.881 31.6713 108.513 33.1699 104.35 35.2756C102.059 36.4338 99.8548 37.7394 97.6954 39.123C97.276 39.3916 96.8583 39.6631 96.4476 39.9439C96.3199 40.0311 96.2645 40.0225 96.1969 39.8792C95.9548 39.3668 95.7047 38.8584 95.4482 38.3535C95.391 38.2414 95.4089 38.1871 95.5077 38.1207C95.8098 37.9179 96.1016 37.7001 96.4066 37.5026C96.5343 37.42 96.5735 37.3599 96.4973 37.2074C96.2882 36.7897 96.2974 36.7857 95.8584 36.933C95.6134 37.0156 95.3679 37.097 95.1224 37.1796C94.7527 37.3039 94.7763 36.9491 94.6435 36.7862C94.4962 36.6054 94.6516 36.5419 94.7717 36.4604C95.0646 36.2617 95.3517 36.0537 95.6469 35.8596C95.7607 35.7851 95.7648 35.7296 95.6983 35.6101C95.4644 35.1901 95.3621 35.1693 94.9271 35.3894C94.688 35.5101 94.4188 35.5771 94.1559 35.6418C94.0352 35.6719 94.0271 35.5194 93.9809 35.4454C93.7249 35.0364 93.7278 35.0347 94.1143 34.7678C94.3517 34.6037 94.5851 34.4339 94.8266 34.2773C94.9421 34.2022 94.9785 34.1468 94.9034 34.0058C94.6903 33.602 94.6995 33.5974 94.272 33.7389C94.0074 33.8267 93.7377 33.9012 93.4794 34.0046C93.305 34.0745 93.2114 34.0341 93.1542 33.8643C93.1363 33.8105 93.1166 33.7528 93.0814 33.7106C92.8983 33.4911 93.0023 33.3663 93.2056 33.2404C93.4829 33.0682 93.7417 32.8666 94.0161 32.6892C94.1432 32.6072 94.1963 32.5333 94.0935 32.3952C94.0427 32.327 94.0057 32.2456 93.9762 32.1647C93.9219 32.0157 93.8434 31.9873 93.6914 32.0468C93.3604 32.1763 93.0178 32.2756 92.6868 32.4044C92.5332 32.4639 92.4586 32.4524 92.3795 32.2901C92.1455 31.8088 92.1369 31.8129 92.5828 31.5125C92.7983 31.3675 93.0086 31.2144 93.2304 31.0804C93.3587 31.003 93.3639 30.9359 93.2986 30.8071C93.0854 30.3866 93.0918 30.3831 92.6568 30.5275C92.4199 30.6061 92.1762 30.6702 91.9474 30.7684C91.7377 30.8585 91.6337 30.8169 91.5378 30.6032C91.3518 30.1878 91.3402 30.1971 91.7377 29.9365C91.9711 29.784 92.1929 29.6142 92.428 29.4651C92.5505 29.3877 92.5857 29.3173 92.4939 29.1936C92.443 29.1249 92.402 29.0452 92.3731 28.9649C92.3177 28.8106 92.2281 28.8002 92.0855 28.8522C91.7515 28.9735 91.4084 29.0706 91.0762 29.1959C90.9162 29.256 90.8469 29.2271 90.7712 29.07C90.5505 28.6119 90.5419 28.6159 90.952 28.3317C91.1733 28.1786 91.3888 28.0157 91.6181 27.8759C91.7602 27.7893 91.7562 27.7136 91.6834 27.579C91.4777 27.1994 91.4847 27.196 91.0687 27.3335C90.8041 27.4213 90.5355 27.4981 90.2761 27.5992C90.1161 27.6616 90.0427 27.6258 89.9647 27.4727C89.7377 27.0238 89.7296 27.0273 90.1496 26.7315C90.3067 26.6206 90.4644 26.5102 90.621 26.3993C90.9578 26.1607 90.9728 26.0186 90.7233 25.6732C90.647 25.5674 90.5788 25.6137 90.5003 25.6408C90.1739 25.7535 89.848 25.8684 89.5211 25.9793C89.413 26.0157 89.2808 26.0689 89.2085 25.9476C89.108 25.7783 88.9746 25.6177 88.9532 25.4126C88.9486 25.3676 89.0254 25.3358 89.0745 25.3034C89.3715 25.1082 89.6563 24.8927 89.9584 24.7067C90.1294 24.6015 90.1334 24.5103 90.0456 24.3422C89.8631 23.9898 89.874 23.984 89.4881 24.1146C89.197 24.2128 88.8989 24.2948 88.617 24.4144C88.4668 24.4785 88.4183 24.4311 88.3507 24.3139C88.0757 23.8373 88.0722 23.839 88.5176 23.5299C88.7308 23.382 88.9388 23.2255 89.1583 23.088C89.3021 22.9979 89.3686 22.9176 89.2559 22.7518C89.1502 22.5952 89.1306 22.3457 88.8359 22.4508C88.4824 22.5773 88.1242 22.69 87.7718 22.8182C87.6372 22.8673 87.5662 22.8396 87.502 22.7079C87.3588 22.415 87.2068 22.1261 87.0439 21.8436C86.9602 21.6986 86.9885 21.6108 87.1127 21.5109C87.7221 21.0216 88.3871 20.6126 89.0393 20.1857C89.8301 19.6681 90.6337 19.1695 91.4361 18.6698C92.6175 17.9338 93.8151 17.2261 95.0531 16.5942C96.4233 15.8946 97.804 15.2146 99.2078 14.582C101.958 13.3417 104.789 12.3204 107.669 11.4313C108.555 11.1581 109.46 10.9437 110.356 10.7028C110.781 10.5885 110.772 10.5925 110.934 10.9975C111.155 11.5509 111.432 12.0754 111.801 12.548L111.804 12.5486ZM120.254 28.8447C120.467 29.1318 120.663 29.3548 120.809 29.6061C120.919 29.7962 121.024 29.6338 121.122 29.6338C121.231 29.6338 121.174 29.5374 121.16 29.4611C121.106 29.1549 121.069 28.8464 121.03 28.5379C121.021 28.4623 121.041 28.3745 120.924 28.3756C120.808 28.3762 120.781 28.4444 120.795 28.5478C120.825 28.7679 120.851 28.9885 120.884 29.2526C120.704 29.0093 120.547 28.8054 120.4 28.5946C120.31 28.4663 120.192 28.4704 120.068 28.5056C119.934 28.5431 119.974 28.6552 119.985 28.7459C120.02 29.0642 120.059 29.3825 120.101 29.7003C120.11 29.7707 120.154 29.8366 120.234 29.8083C120.292 29.7875 120.363 29.7713 120.341 29.6529C120.294 29.4097 120.285 29.1595 120.253 28.8447H120.254ZM119.169 28.6639C118.767 28.665 118.443 28.9273 118.491 29.2751C118.544 29.6731 118.685 30.0139 119.103 30.0041C119.515 29.9949 119.766 29.7632 119.763 29.3739C119.76 28.9059 119.556 28.6627 119.169 28.6633V28.6639ZM108.048 31.6228C107.841 31.6731 107.645 31.702 107.471 31.8025C107.409 31.8377 107.391 31.8741 107.421 31.9382C107.565 32.2502 107.713 32.5604 107.848 32.877C107.897 32.9931 107.974 33.0278 108.07 32.9781C108.203 32.9093 108.346 32.8643 108.476 32.7776C108.677 32.6436 108.695 32.4559 108.604 32.297C108.499 32.1139 108.277 32.011 108.295 31.7395C108.301 31.643 108.114 31.6765 108.048 31.6228ZM113.76 30.5963C114.011 30.4917 114.101 30.6875 114.214 30.8343C114.3 30.9458 114.438 30.9625 114.518 30.8984C114.63 30.8089 114.478 30.7407 114.432 30.6748C114.315 30.5061 114.093 30.3819 114.271 30.1185C114.314 30.0555 114.258 29.9516 114.203 29.8799C114.083 29.7222 113.398 29.7453 113.303 29.9152C113.285 29.9475 113.303 30.0053 113.316 30.0486C113.403 30.3565 113.514 30.6592 113.574 30.9723C113.61 31.1572 113.725 31.0931 113.806 31.0861C113.937 31.0752 113.866 30.9879 113.844 30.9192C113.811 30.8141 113.788 30.7054 113.76 30.5963ZM115.775 30.3074C115.773 30.3554 115.765 30.4039 115.769 30.4513C115.773 30.5183 115.718 30.6217 115.845 30.6275C115.947 30.6321 116.013 30.5697 116.001 30.4651C115.97 30.1792 116.221 30.2641 116.351 30.1971C116.517 30.1116 116.582 30.2525 116.619 30.3635C116.681 30.55 116.773 30.401 116.84 30.3889C116.974 30.364 116.904 30.2826 116.864 30.2202C116.684 29.9365 116.495 29.6581 116.323 29.3687C116.242 29.2323 116.131 29.226 116.004 29.2439C115.871 29.2624 115.832 29.3889 115.835 29.479C115.844 29.7586 115.789 30.0307 115.774 30.3068L115.775 30.3074ZM109.219 31.1508C108.745 31.1711 108.564 31.446 108.748 31.8712C108.781 31.9486 108.834 32.0185 108.863 32.0977C109.054 32.628 109.054 32.6315 109.563 32.4091C109.632 32.379 109.791 32.3952 109.738 32.2531C109.695 32.1375 109.575 32.1901 109.483 32.2063C109.446 32.2126 109.409 32.2259 109.376 32.245C109.258 32.3143 109.215 32.2773 109.165 32.1503C109.104 31.9954 109.155 31.9296 109.29 31.9053C109.392 31.8868 109.505 31.8672 109.478 31.747C109.44 31.5824 109.312 31.6858 109.218 31.6979C109.2 31.7002 109.184 31.7181 109.166 31.7205C109.057 31.7343 108.995 31.695 108.95 31.5847C108.886 31.4264 109.037 31.4813 109.082 31.4397C109.134 31.3917 109.217 31.3785 109.286 31.3478C109.343 31.3224 109.381 31.2831 109.36 31.2132C109.337 31.1376 109.276 31.1491 109.219 31.1503V31.1508ZM115.012 30.7985C115.102 30.836 115.182 30.7569 115.277 30.7482C115.388 30.7384 115.55 30.7303 115.529 30.5922C115.505 30.4305 115.34 30.5021 115.251 30.5396C115.021 30.6373 115.006 30.4669 114.988 30.334C114.963 30.1468 115.149 30.2248 115.232 30.1722C115.279 30.1434 115.351 30.1462 115.355 30.0735C115.36 29.9885 115.284 30.0099 115.236 29.9885C115.114 29.9348 114.904 30.126 114.863 29.8828C114.818 29.6153 115.079 29.7176 115.199 29.6471C115.258 29.6125 115.323 29.583 115.287 29.4963C115.253 29.4155 115.193 29.4172 115.12 29.4397C115.011 29.4726 114.901 29.516 114.789 29.5241C114.542 29.542 114.518 29.6916 114.566 29.8793C114.631 30.1341 114.734 30.3808 114.774 30.6384C114.8 30.8071 114.875 30.8158 115.011 30.799L115.012 30.7985ZM121.731 29.6021C122.041 29.6073 122.262 29.4634 122.292 29.252C122.332 28.9747 122.165 28.8563 121.927 28.7979C121.873 28.7846 121.814 28.7736 121.77 28.7424C121.719 28.7061 121.655 28.6627 121.669 28.5824C121.685 28.4946 121.757 28.4958 121.826 28.4952C121.883 28.4946 121.941 28.4964 121.998 28.4935C122.042 28.4912 122.101 28.5096 122.117 28.4484C122.132 28.3906 122.125 28.3213 122.067 28.2965C121.855 28.2035 121.66 28.237 121.483 28.3912C121.317 28.5356 121.345 28.6858 121.458 28.8435C121.558 28.9833 121.707 29.0394 121.865 29.0723C121.951 29.0902 122.013 29.1301 122.013 29.219C122.013 29.3063 121.951 29.3375 121.869 29.3687C121.783 29.401 121.719 29.427 121.629 29.3796C121.568 29.3473 121.466 29.3161 121.437 29.4079C121.412 29.4894 121.506 29.5379 121.573 29.5685C121.632 29.5957 121.702 29.5974 121.729 29.6032L121.731 29.6021ZM109.886 32.0474C109.936 32.2184 110.067 32.2947 110.209 32.2363C110.39 32.1618 110.609 32.0815 110.644 31.847C110.689 31.5483 110.59 31.442 110.227 31.3796C110.106 31.3588 109.949 31.3969 109.951 31.219C109.952 31.0411 110.112 31.1023 110.216 31.0925C110.284 31.0861 110.358 31.0965 110.346 30.992C110.337 30.9163 110.293 30.8764 110.219 30.8585C110.031 30.8123 109.751 30.9573 109.674 31.152C109.585 31.379 109.724 31.5004 109.892 31.6136C109.988 31.6789 110.089 31.669 110.192 31.6685C110.294 31.6685 110.4 31.6777 110.398 31.806C110.397 31.9215 110.314 31.9908 110.198 32.0105C110.098 32.0272 109.99 31.9816 109.886 32.048L109.886 32.0474ZM112.253 30.628C112.219 30.8285 112.323 31.0047 112.438 31.1659C112.626 31.4293 113.071 31.4426 113.292 31.208C113.351 31.1451 113.386 31.0746 113.329 31.0053C113.268 30.9319 113.213 31.0064 113.157 31.0359C113.042 31.0954 112.912 31.2155 112.793 31.1208C112.613 30.9758 112.501 30.7765 112.544 30.5223C112.584 30.293 112.741 30.2681 112.929 30.2826C113.002 30.2884 113.061 30.2739 113.061 30.178C113.061 30.096 113.026 30.0648 112.945 30.048C112.58 29.9741 112.256 30.2346 112.254 30.628H112.253ZM111.327 31.8354C111.398 31.7875 111.551 31.8025 111.473 31.6159C111.381 31.3958 111.324 31.1612 111.241 30.9365C111.192 30.806 111.194 30.7182 111.352 30.6812C111.432 30.6621 111.541 30.6413 111.483 30.5154C111.433 30.4056 111.347 30.4484 111.263 30.479C111.068 30.5495 110.873 30.6153 110.676 30.6771C110.588 30.7043 110.5 30.7257 110.547 30.8452C110.585 30.9406 110.667 30.9383 110.737 30.8926C110.897 30.7863 110.936 30.9169 110.973 31.0162C111.057 31.2439 111.131 31.4761 111.204 31.7077C111.224 31.769 111.209 31.8504 111.327 31.8366V31.8354ZM117.457 28.9325C117.218 28.9897 116.978 29.044 116.741 29.107C116.695 29.1191 116.624 29.1335 116.64 29.2173C116.651 29.271 116.686 29.3173 116.734 29.3045C117.023 29.226 117.048 29.4276 117.086 29.6229C117.117 29.7823 117.159 29.9394 117.189 30.0989C117.209 30.2075 117.221 30.3143 117.374 30.2826C117.554 30.2456 117.45 30.1116 117.442 30.0324C117.422 29.8378 117.396 29.6367 117.327 29.4565C117.253 29.2664 117.261 29.1769 117.485 29.1636C117.551 29.1595 117.645 29.1335 117.617 29.0203C117.595 28.9296 117.528 28.9366 117.456 28.9331L117.457 28.9325ZM118.33 29.9654C118.264 29.65 118.196 29.3092 118.115 28.9718C118.105 28.9314 118.09 28.8193 117.989 28.8557C117.924 28.8794 117.83 28.8921 117.853 29.0024C117.922 29.3415 117.989 29.6812 118.061 30.0203C118.087 30.1428 118.188 30.1104 118.269 30.1075C118.348 30.1052 118.361 30.0555 118.33 29.9654Z" fill="white"/>
<path d="M117.528 3.13956C117.423 2.2632 117.634 1.53647 118.172 0.925268C118.409 0.657218 118.731 0.483911 119.083 0.379926C119.159 0.357396 119.204 0.355663 119.245 0.434229C119.605 1.12284 119.842 2.50006 119.142 3.22333C119.096 3.27185 119.053 3.32442 119.002 3.36833C118.931 3.42956 118.858 3.53182 118.761 3.49311C118.67 3.45672 118.722 3.34233 118.72 3.26146C118.715 3.03269 118.594 2.87729 118.395 2.7941C118.169 2.69936 117.943 2.71669 117.752 2.88884C117.683 2.95066 117.627 3.02691 117.528 3.13956H117.528Z" fill="white"/>
<path d="M116.862 3.08485C116.749 2.67295 116.598 2.53373 116.297 2.52622C115.928 2.5164 115.786 2.6354 115.644 3.07329C115.057 2.32172 115.029 1.22526 115.617 0.437861C115.64 0.407243 115.666 0.378936 115.69 0.349474C116.069 -0.110947 116.076 -0.117302 116.489 0.335609C116.953 0.844556 117.265 1.42629 117.209 2.14032C117.184 2.46325 117.139 2.79485 116.862 3.08485H116.862Z" fill="white"/>
<path d="M121.984 7.84325C122.365 7.741 122.568 7.54574 122.536 7.14193C122.504 6.73293 122.199 6.69191 121.871 6.63414C122.819 5.97673 124.196 6.04836 124.986 6.84558C125.118 6.97845 125.124 7.05412 124.992 7.18642C124.416 7.76584 123.789 8.23377 122.916 8.19102C122.585 8.17485 122.278 8.08242 121.984 7.84325Z" fill="white"/>
<path d="M114.984 3.27261C114.687 2.94044 114.337 2.83299 114.08 2.97221C113.854 3.09468 113.73 3.3922 113.79 3.66718C112.835 2.89134 112.63 1.66258 113.203 0.61985C113.258 0.520487 113.297 0.514132 113.396 0.563814C114.196 0.964732 114.872 1.46848 115.054 2.42456C115.107 2.70474 115.059 2.96586 114.984 3.27319V3.27261Z" fill="white"/>
<path d="M113.071 3.97054C112.784 3.7204 112.532 3.66783 112.294 3.82843C112.067 3.98094 111.878 4.17562 111.997 4.49162C112.016 4.54245 112.021 4.58174 111.981 4.61929C111.916 4.68052 111.878 4.60947 111.836 4.5852C111.054 4.13634 110.609 3.4639 110.531 2.56617C110.513 2.36629 110.57 2.15774 110.63 1.95844C110.661 1.85734 110.703 1.80939 110.811 1.82903C111.245 1.90644 111.67 2.00465 112.056 2.23226C112.701 2.61412 113.094 3.14559 113.072 3.97112L113.071 3.97054Z" fill="white"/>
<path d="M110.48 10.1172C109.943 10.5395 109.356 10.7804 108.715 10.7654C108.242 10.7544 107.793 10.5511 107.403 10.2559C107.323 10.1952 107.286 10.149 107.354 10.0491C107.749 9.47252 108.196 8.95607 108.893 8.73943C109.342 8.60021 109.789 8.58346 110.248 8.82955C109.977 9.02019 109.695 9.21025 109.781 9.55918C109.859 9.87691 110.147 10.019 110.48 10.1172Z" fill="white"/>
<path d="M111.549 5.32083C111.203 5.26018 110.84 5.23245 110.668 5.6143C110.538 5.90488 110.683 6.16484 110.926 6.37339C110.294 6.48488 109.14 5.88466 108.799 5.09553C108.713 4.89623 108.623 4.69635 108.57 4.48722C108.54 4.36764 108.488 4.18625 108.719 4.16025C109.266 4.09786 109.81 3.99676 110.356 4.19491C110.867 4.38035 111.257 4.69577 111.526 5.16544C111.54 5.1897 111.549 5.21858 111.555 5.24631C111.559 5.26422 111.553 5.28386 111.549 5.32083H111.549Z" fill="white"/>
<path d="M119.232 3.72501C119.548 2.82092 120.039 2.12134 121.006 1.86773C121.245 1.80476 121.482 1.8556 121.719 1.83596C121.807 1.82902 121.824 1.88275 121.838 1.959C122.009 2.88505 121.478 4.03754 120.68 4.45579C120.598 4.49854 120.522 4.55227 120.417 4.54938C120.304 4.54591 120.264 4.51067 120.275 4.39744C120.342 3.69093 119.978 3.43559 119.329 3.72848C119.314 3.73541 119.293 3.7279 119.233 3.72443L119.232 3.72501Z" fill="white"/>
<path d="M121.381 5.96219C121.641 5.75826 121.812 5.51101 121.654 5.17248C121.502 4.84551 121.221 4.76868 120.871 4.85244C121.601 3.90676 122.735 3.59596 123.76 4.03327C123.95 4.11415 123.998 4.21814 123.91 4.40762C123.519 5.25914 122.958 5.91424 121.981 6.08755C121.776 6.12394 121.56 6.15109 121.381 5.96219Z" fill="white"/>
<path d="M110.594 6.94247C109.839 7.41445 109.813 7.58833 110.409 8.2469C109.985 8.43696 109.544 8.46527 109.109 8.39999C108.445 8.29947 107.908 7.9673 107.533 7.39307C107.464 7.28678 107.479 7.23247 107.573 7.16142C108.311 6.60337 109.092 6.25502 110.045 6.56177C110.278 6.63687 110.421 6.79574 110.594 6.94305V6.94247Z" fill="white"/>
<path d="M129.566 26.616C129.541 26.2046 129.524 25.7927 129.49 25.382C129.445 24.839 129.386 24.2965 129.336 23.7535C129.26 22.9245 129.165 22.0967 129.119 21.2659C129.079 20.5675 128.976 19.8766 128.926 19.1793C128.873 18.4272 128.78 17.6773 128.71 16.9257C128.663 16.4208 128.629 15.9154 128.585 15.4105C128.513 14.5919 128.433 13.7739 128.365 12.9553C128.316 12.3545 128.278 11.7531 128.241 11.1511C128.233 11.0188 128.241 10.8969 128.054 10.8981C127.073 10.9021 126.089 10.8525 125.112 10.9177C123.965 10.994 122.818 11.0639 121.668 11.0651C121.451 11.6364 121.134 12.154 120.763 12.6306C120.203 13.3492 119.478 13.8443 118.642 14.2198C117.977 14.5185 117.304 14.6987 116.586 14.7398C115.615 14.7952 114.698 14.574 113.816 14.1794C113.291 13.9443 112.856 13.5873 112.449 13.1898C112.233 12.9778 112.02 12.7612 111.805 12.5468C111.553 12.7265 111.246 12.7329 110.962 12.808C109.833 13.1078 108.717 13.4538 107.594 13.7744C106.125 14.1933 104.706 14.7455 103.278 15.2776C102.544 15.5514 101.845 15.9084 101.124 16.2111C100.001 16.682 98.8996 17.1949 97.8245 17.7634C95.6605 18.9078 93.5623 20.1631 91.5358 21.538C91.3538 21.6617 91.3937 21.761 91.4734 21.913C92.9598 24.7471 94.4444 27.5824 95.9262 30.4189C96.527 31.5685 97.1197 32.7227 97.7159 33.8747C98.0071 34.4379 98.3046 34.9977 98.5871 35.565C98.6789 35.7499 98.765 35.773 98.9377 35.6597C100.171 34.8492 101.422 34.0641 102.719 33.3622C103.714 32.8238 104.727 32.3155 105.729 31.7892C106.975 31.1347 108.275 30.6205 109.571 30.0925C110.126 29.8666 110.715 29.7245 111.291 29.5518C112.558 29.1711 113.837 28.8389 115.121 28.5223C116.626 28.1515 118.151 27.8979 119.684 27.6778C120.688 27.5333 121.692 27.427 122.708 27.3797C123.861 27.3265 125.008 27.1578 126.159 27.0538C126.778 26.9978 127.4 26.9764 128.02 26.932C128.487 26.8984 128.953 26.8517 129.42 26.8129C129.551 26.802 129.573 26.7217 129.566 26.6136V26.616ZM102.815 23.9984C102.721 24.3306 102.151 24.6327 101.83 24.5056C101.706 24.4565 101.573 24.4109 101.47 24.33C100.482 23.553 99.4438 22.8477 98.3728 22.1816C98.3231 22.2526 98.3982 22.3121 98.4219 22.3699C98.7327 23.1336 99.0475 23.8962 99.367 24.6558C99.527 25.0371 99.7124 25.4068 99.977 25.7275C100.075 25.8453 100.052 25.9141 99.9464 26.0076C99.538 26.3751 99.2046 26.3248 98.9724 25.8286C98.7373 25.3254 98.6373 24.7748 98.4611 24.2503C98.1723 23.3907 97.7708 22.5767 97.4606 21.7264C97.3959 21.5479 97.2139 21.5311 97.0637 21.4878C96.9245 21.4468 96.8702 21.3965 96.9615 21.259C97.2907 20.7651 97.7315 20.4058 98.4444 20.8165C99.2647 21.2891 99.9857 21.9083 100.788 22.4075C101.063 22.5785 101.325 22.7697 101.593 22.9517L101.655 22.9193C101.094 21.7171 100.763 20.4058 99.9215 19.3214C100.045 19.1966 100.161 19.0314 100.387 19.021C100.766 19.0037 100.998 19.1574 101.105 19.5502C101.508 21.0424 102.125 22.4502 102.777 23.8453C102.798 23.891 102.834 23.9268 102.813 23.9979L102.815 23.9984ZM103.558 22.6796C102.874 21.7518 102.722 20.4618 103.61 19.5167C104.164 18.9274 104.875 18.6877 105.684 18.7362C105.804 18.7432 105.782 18.8142 105.794 18.8905C105.908 19.6265 106.064 20.3515 106.347 21.0458C106.458 21.3174 106.619 21.5531 106.813 21.7656C106.909 21.8702 106.902 21.9262 106.798 22.0169C106.31 22.4398 106.009 22.4496 105.522 22.021C105.498 22.5686 105.223 22.9251 104.725 23.0811C104.244 23.2313 103.876 23.1105 103.559 22.6807L103.558 22.6796ZM107.338 26.7344C107.233 26.7754 107.131 26.7598 107.026 26.7604C106.895 26.761 106.886 26.6454 106.852 26.5651C106.809 26.4663 106.89 26.4421 106.964 26.4086C107.588 26.1301 107.533 25.434 107.259 24.9909C107.135 24.7916 106.929 24.6928 106.694 24.7696C106.462 24.8453 106.368 25.0169 106.363 25.2746C106.355 25.6449 106.499 25.9741 106.584 26.319C106.799 27.1936 107.03 28.0642 107.38 28.8967C107.439 29.0388 107.392 29.1104 107.274 29.1694C107.232 29.1902 107.19 29.2115 107.149 29.2341C106.666 29.4963 106.316 29.3577 106.2 28.8216C106.06 28.1786 105.925 27.5333 105.731 26.906C105.549 26.315 105.433 25.6957 105.098 25.1579C105.078 25.1249 105.021 25.0862 105.085 25.0134C105.236 24.8424 105.728 24.6489 105.898 24.7662C106.092 24.9008 106.123 24.7818 106.202 24.6593C106.496 24.2029 107.003 24.0042 107.481 24.1486C108.038 24.3167 108.276 24.6836 108.276 25.3728C108.276 26.0342 107.96 26.4894 107.339 26.7338L107.338 26.7344ZM108.63 21.46C107.796 21.7102 107.502 21.1625 107.405 20.4728C107.321 19.8743 107.248 19.2741 107.176 18.6744C107.16 18.5433 107.116 18.5184 106.99 18.5606C106.816 18.6178 106.67 18.5756 106.588 18.3879C106.518 18.2267 106.462 18.1146 106.732 18.0973C107.034 18.0777 107.074 17.987 106.99 17.6866C106.95 17.5421 106.92 17.3873 106.846 17.2614C106.728 17.0627 106.833 17.0003 106.988 16.9269C107.224 16.816 107.474 16.8038 107.715 16.8443C108.024 16.8963 107.973 17.1996 108.042 17.4127C108.065 17.4815 108.02 17.5641 108.076 17.634C108.203 17.6351 108.292 17.5254 108.425 17.5219C108.718 17.5138 108.827 17.6045 108.837 17.8905C108.839 17.9373 108.831 17.9615 108.795 17.9771C108.769 17.9881 108.738 17.9864 108.711 17.9927C108.078 18.1383 108.075 18.1389 108.162 18.7599C108.228 19.2348 108.366 19.6952 108.402 20.1787C108.433 20.5877 108.728 20.7264 109.102 20.5612C109.237 20.5017 109.31 20.4913 109.317 20.679C109.329 21.0042 109.025 21.3416 108.631 21.4595L108.63 21.46ZM111.152 25.0625C111.113 25.092 111.044 25.0943 110.99 25.0903C110.652 25.0654 110.507 25.2676 110.409 25.5507C110.177 26.2231 110.374 26.8655 110.568 27.4969C110.607 27.6229 110.607 27.639 110.518 27.6939C110.022 28.0001 109.677 27.925 109.593 27.3069C109.532 26.8603 109.52 26.4086 109.432 25.9637C109.372 25.661 109.321 25.3629 109.133 25.1128C109.068 25.025 109.083 24.9944 109.16 24.936C109.568 24.6281 110.014 24.7668 110.184 25.2561C110.284 24.9586 110.357 24.6553 110.597 24.4357C110.751 24.2954 110.996 24.3006 111.13 24.4496C111.24 24.5715 111.261 24.9817 111.152 25.0625ZM111.837 22.4947C112.093 22.4046 112.386 22.5363 112.436 22.7662C112.46 22.8754 112.462 22.9921 112.5 23.0955C112.624 23.4323 112.601 23.4722 112.248 23.4733C111.973 23.4739 111.66 23.2752 111.569 23.0418C111.505 22.8777 111.663 22.5565 111.838 22.4947H111.837ZM113.035 26.9759C112.799 27.1012 112.529 27.2052 112.294 27.0874C112.097 26.9886 112.001 26.7396 112.023 26.4958C112.048 26.226 111.924 25.9707 111.968 25.6847C111.938 25.2457 111.911 24.7887 111.706 24.3682C111.634 24.2191 111.664 24.1544 111.824 24.0978C112.029 24.025 112.241 24.0238 112.44 24.0498C112.706 24.0839 112.694 24.3526 112.724 24.5432C112.842 25.3092 112.788 26.1018 113.088 26.8389C113.118 26.9123 113.089 26.9475 113.035 26.9764L113.035 26.9759ZM113.271 20.1175C113.086 20.1862 112.899 20.2527 112.706 20.2983C112.511 20.3445 112.345 20.2735 112.248 20.0915C112.137 19.8806 112.051 19.9453 111.942 20.0961C111.682 20.4554 111.356 20.7079 110.894 20.768C110.276 20.8483 109.927 20.3145 109.874 19.7778C109.804 19.0661 109.877 18.333 109.598 17.6473C109.581 17.604 109.578 17.5491 109.549 17.5173C109.342 17.2908 109.515 17.2094 109.696 17.1637C109.902 17.1118 110.114 17.0263 110.328 17.0783C110.645 17.1545 110.799 17.4052 110.813 17.8108C110.817 17.9327 110.791 18.0609 110.886 18.1643C110.934 18.2348 110.936 18.3087 110.902 18.3856C110.911 18.7403 110.912 19.0956 110.931 19.4503C110.949 19.7819 111.168 19.9991 111.442 19.9448C111.678 19.898 111.792 19.7154 111.851 19.4878C112.025 18.8211 111.966 18.1585 111.858 17.4901C111.827 17.2932 111.805 17.099 111.739 16.9084C111.689 16.7675 111.723 16.649 111.897 16.6063C112.015 16.5768 112.126 16.5069 112.245 16.4919C112.768 16.4249 112.883 16.5739 112.96 17.1152C113.05 17.7518 112.932 18.3942 113.065 19.0245C113.129 19.3278 113.194 19.6369 113.352 19.902C113.443 20.0539 113.367 20.0828 113.271 20.1186V20.1175ZM116.523 26.1983C116.155 26.4785 115.731 26.4057 115.474 25.9689C115.24 26.4987 114.794 26.6229 114.332 26.6292C114.069 26.6327 113.839 26.4294 113.716 26.1752C113.452 25.6293 113.478 25.0591 113.654 24.5028C113.818 23.9863 114.093 23.5403 114.671 23.3878C114.857 23.3387 115.04 23.3272 115.227 23.3976C115.331 23.4369 115.427 23.4369 115.426 23.2653C115.423 22.7217 115.356 22.1914 115.114 21.6992C115.058 21.5843 115.107 21.5669 115.182 21.5386C115.844 21.2908 116.331 21.4629 116.349 22.3254C116.366 23.1371 116.264 23.9482 116.29 24.7616C116.305 25.2104 116.253 25.6743 116.558 26.0648C116.605 26.1249 116.58 26.1544 116.523 26.1983H116.523ZM116.58 16.8957C116.538 16.9465 116.512 16.9315 116.463 16.9194C116.012 16.809 115.765 16.9003 115.548 17.2672C115.322 17.6479 115.198 18.0655 115.204 18.5063C115.209 18.9147 115.136 19.3301 115.273 19.731C115.307 19.8321 115.264 19.8691 115.176 19.8881C115.074 19.9095 114.974 19.9378 114.872 19.9552C114.351 20.0435 113.991 19.6501 114.098 19.1296C114.26 18.3382 114.335 17.5404 114.213 16.7339C114.204 16.6785 114.183 16.6236 114.161 16.571C114.04 16.2903 114.07 16.2227 114.375 16.2036C114.658 16.1863 114.954 16.1551 115.17 16.4226C115.294 16.5762 115.236 16.7646 115.285 17.0159C115.446 16.6929 115.581 16.4497 115.75 16.2262C115.937 15.9789 116.343 15.8663 116.544 16.0234C116.738 16.1747 116.754 16.6843 116.58 16.8957ZM119.275 24.0493C118.965 24.4317 118.522 24.5403 118.072 24.6194C117.93 24.6443 117.899 24.6922 117.909 24.8176C117.929 25.0874 117.966 25.3653 118.232 25.4947C118.495 25.6229 118.745 25.5357 118.965 25.3393C119.028 25.2832 119.095 25.1983 119.2 25.1977C119.289 25.6304 119.117 25.9083 118.707 26.0071C118.561 26.0423 118.421 26.1134 118.275 26.1255C117.69 26.1734 117.334 25.9227 117.105 25.3745C116.736 24.4924 117.389 23.0279 118.391 22.8523C118.746 22.7899 119.176 22.9274 119.335 23.1885C119.471 23.4109 119.439 23.8482 119.276 24.0487L119.275 24.0493ZM119.969 17.2065C119.603 17.5791 119.137 17.716 118.655 17.8327C118.56 17.842 118.46 17.7998 118.371 17.8656L118.361 17.8824C118.298 18.0574 118.312 18.2331 118.357 18.4087C118.445 18.9159 118.82 19.1117 119.278 18.887C119.432 18.8119 119.597 18.7524 119.719 18.6276C119.84 18.5034 119.892 18.5958 119.907 18.6946C119.94 18.9003 119.883 19.0869 119.734 19.2406C119.413 19.5704 118.449 19.8275 117.957 19.5508C117.505 19.296 117.266 18.8905 117.221 18.4052C117.125 17.3694 117.473 16.4971 118.361 15.913C118.827 15.6069 119.36 15.6635 119.853 15.8703C120.269 16.0453 120.372 16.7946 119.969 17.2071V17.2065ZM118.565 17.8685C118.526 17.8755 118.485 17.8737 118.444 17.8708C118.485 17.8743 118.526 17.8755 118.565 17.8685ZM122.356 14.7611C122.33 15.3186 122.036 15.7085 121.582 15.8397C121.252 15.935 121.06 15.8339 120.918 15.4902C121.567 15.3007 121.744 14.9188 121.415 14.3799C121.289 14.1725 121.236 13.9974 121.458 13.8339C121.62 13.7149 121.984 13.7554 122.117 13.905C122.336 14.1505 122.371 14.4567 122.356 14.7611ZM125.288 16.7623C125.202 16.861 125.177 16.7911 125.129 16.7311C124.958 16.5173 124.747 16.4052 124.458 16.4307C124.144 16.4578 123.99 16.7143 124.168 16.98C124.311 17.1938 124.472 17.3966 124.643 17.5889C124.856 17.8281 125.015 18.0782 124.943 18.4081C125.034 18.9506 124.703 19.2452 124.299 19.4537C123.767 19.7281 123.216 19.7853 122.677 19.4335C122.357 19.225 122.276 18.9662 122.465 18.6715C122.564 18.5179 122.671 18.4584 122.81 18.6438C122.968 18.8541 123.148 19.0077 123.454 18.9771C123.825 18.9396 124.011 18.6987 123.882 18.348C123.825 18.1938 123.727 18.0626 123.61 17.9477C123.465 17.8044 123.365 17.6288 123.242 17.4693C122.787 16.8743 123.197 16.1193 123.736 15.9142C124.247 15.7195 124.758 15.7218 125.228 16.0349C125.47 16.1961 125.482 16.5398 125.288 16.7611V16.7623Z" fill="white"/>
<path d="M110.903 18.3851C110.898 18.3111 110.892 18.2378 110.887 18.1638C110.935 18.2343 110.936 18.3082 110.903 18.3851Z" fill="white"/>
<path d="M105.262 21.5033C105.262 21.5703 105.27 21.639 105.26 21.7043C105.221 21.9608 105.142 22.2086 104.846 22.2508C104.55 22.293 104.423 22.0573 104.329 21.8349C104.111 21.3201 103.893 20.7985 104.068 20.2202C104.156 19.9279 104.328 19.7078 104.624 19.583C104.752 19.5293 104.79 19.5686 104.838 19.6668C104.975 19.951 105.267 21.1913 105.262 21.5033H105.262Z" fill="white"/>
<path d="M115.442 24.6016C115.448 24.9176 115.439 25.1851 115.366 25.445C115.311 25.6415 115.239 25.8263 115.028 25.9141C114.807 26.0066 114.617 25.9395 114.545 25.7137C114.358 25.1302 114.432 24.5704 114.743 24.047C114.847 23.8731 115.014 23.7709 115.229 23.8269C115.446 23.8835 115.443 24.0799 115.458 24.2469C115.471 24.3792 115.447 24.5144 115.442 24.601V24.6016Z" fill="white"/>
<path d="M118.379 17.3601C118.49 17.077 118.554 16.8049 118.709 16.5732C118.821 16.404 118.959 16.2584 119.185 16.2694C119.286 16.274 119.381 16.3341 119.393 16.4358C119.42 16.6524 119.446 16.8742 119.236 17.036C118.991 17.2255 118.72 17.3387 118.379 17.3601H118.379Z" fill="white"/>
<path d="M118.77 23.6418C118.768 23.911 118.347 24.2593 118.075 24.2252C117.984 24.2137 117.948 24.1611 117.976 24.0929C118.066 23.8763 118.134 23.6452 118.295 23.4656C118.383 23.3674 118.474 23.2969 118.635 23.3437C118.821 23.398 118.759 23.528 118.77 23.6412V23.6418Z" fill="white"/>
<path d="M119.464 29.4171C119.493 29.632 119.391 29.7557 119.165 29.7684C118.952 29.7805 118.78 29.5506 118.775 29.2565C118.772 29.0249 118.882 28.9001 119.121 28.8989C119.37 28.8972 119.461 29.0295 119.464 29.4177V29.4171Z" fill="white"/>
<path d="M108.158 32.3603C108.26 32.3644 108.39 32.332 108.392 32.492C108.394 32.6347 108.28 32.6908 108.162 32.6994C107.99 32.7121 107.974 32.5342 107.957 32.4412C107.938 32.339 108.079 32.3684 108.158 32.3609L108.158 32.3603Z" fill="white"/>
<path d="M107.925 32.1969C107.803 32.1917 107.799 32.0692 107.776 31.9918C107.739 31.8653 107.87 31.8699 107.941 31.8532C108.045 31.8284 108.095 31.889 108.102 31.997C108.11 32.1212 108.034 32.164 107.925 32.1969Z" fill="white"/>
<path d="M113.817 29.9951C113.942 29.9823 113.985 30.0436 113.982 30.1614C113.979 30.3012 113.889 30.3365 113.777 30.3342C113.647 30.3313 113.65 30.2319 113.639 30.1337C113.621 29.9766 113.728 30.0008 113.817 29.9945V29.9951Z" fill="white"/>
<path d="M116.072 29.5491C116.247 29.6808 116.292 29.8269 116.378 29.9592C116.269 29.9956 116.184 30.0615 116.072 30.0303V29.5491Z" fill="white"/>
<path d="M116.298 13.8887C119.055 13.8887 121.29 11.6538 121.29 8.89687C121.29 6.13995 119.055 3.90503 116.298 3.90503C113.542 3.90503 111.307 6.13995 111.307 8.89687C111.307 11.6538 113.542 13.8887 116.298 13.8887Z" fill="white"/>
</g>
<defs>
<clipPath id="clip0_8099_11309">
<rect width="46.8953" height="40" fill="white" transform="translate(87)"/>
</clipPath>
</defs>
</svg>
