<svg width="220" height="40" viewBox="0 0 220 40" fill="none" xmlns="http://www.w3.org/2000/svg">
<g clip-path="url(#clip0_8105_6242)">
<path d="M61.0195 38.8739C62.486 32.9335 63.735 26.9433 64.7478 20.7978L63.3497 21.3695L63.2004 21.2203C63.4995 20.8571 63.8515 20.5408 64.2445 20.282C64.4607 20.2004 64.6471 20.0551 64.7791 19.8655C64.9111 19.6758 64.9825 19.4506 64.9839 19.2195C64.987 19.1989 64.987 19.1779 64.9839 19.1573C64.9859 18.766 65.1054 18.3844 65.327 18.062C65.5487 17.7395 65.8621 17.4912 66.2267 17.3491L65.9408 19.5364C66.5622 19.4121 67.1091 19.2692 67.6745 19.2071C68.5693 19.1138 69.5387 18.9523 70.1601 19.8284C70.7815 20.7046 70.3774 21.5123 70.0357 22.2642C69.3273 23.9109 67.9975 25.0419 66.5559 26.0485C66.2963 26.264 66.0077 26.4418 65.6984 26.5767C64.698 26.906 64.4556 27.6579 64.2879 28.5775C63.6582 31.6306 62.9684 34.6795 62.2186 37.7243C62.1005 38.2089 61.5972 38.6066 61.2617 39.0416L61.0505 38.9049L61.0195 38.8739ZM64.6981 26.3779C66.1397 25.6508 67.5751 24.9673 68.4886 23.6562C68.8771 23.0734 69.1297 22.4109 69.228 21.7175C69.2372 21.6411 69.2372 21.5638 69.228 21.4875C69.2272 21.3365 69.1967 21.1872 69.1382 21.0481C69.0797 20.9089 68.9943 20.7826 68.887 20.6765C68.7796 20.5703 68.6523 20.4863 68.5126 20.4293C68.3728 20.3723 68.223 20.3433 68.072 20.3442H67.575C67.0696 20.3441 66.5648 20.3815 66.0649 20.456C65.9711 20.4891 65.8867 20.5441 65.8186 20.6165C65.7505 20.689 65.7007 20.7767 65.6735 20.8723C65.3256 22.6992 65.0086 24.5261 64.6793 26.3902L64.6981 26.3779Z" fill="white"/>
<path d="M71.8001 24.7065C71.9577 25.0013 72.183 25.2547 72.4573 25.4458C72.7316 25.637 73.0472 25.7605 73.3784 25.8064C74.0384 25.9282 74.7083 25.9886 75.3794 25.9866C76.7842 25.9868 78.1762 25.7189 79.4806 25.1974C80.9929 24.5862 82.4664 23.8827 83.8925 23.0909C84.1374 22.9029 84.3035 22.6304 84.3585 22.3266C84.8867 20.537 85.8558 19.1078 87.6827 18.4181C87.981 18.3062 88.5839 18.3435 88.6958 18.53C88.775 18.6858 88.8155 18.8584 88.8138 19.0332C88.8145 19.2335 88.7629 19.4305 88.6645 19.6049C88.1176 20.2451 87.5212 20.8414 86.8811 21.3883C86.5714 21.6338 86.2456 21.858 85.9056 22.0594V22.2706C86.092 22.2706 86.2848 22.2706 86.4712 22.2706C86.6576 22.2706 86.8502 22.2706 87.0304 22.2706C87.5026 22.2209 87.9625 22.0842 88.4285 22.0469C89.112 21.991 89.3418 22.2893 89.1057 22.9356C88.9372 23.3202 88.7487 23.6956 88.5404 24.0602C88.236 24.6816 87.838 25.3465 88.4221 25.9679C89.0062 26.5893 89.7086 26.3842 90.3797 26.1667C91.7406 25.7131 92.7285 24.7375 93.7725 23.8241C95.2079 22.5813 95.5806 20.7794 96.3014 19.2135C96.4304 18.9064 96.6297 18.6339 96.8833 18.418C97.137 18.2021 97.4379 18.0489 97.7617 17.9707L95.6864 23.035C97.1218 22.4136 98.408 22.8175 99.7129 23.0909C100.739 23.2735 101.778 23.3691 102.82 23.3767C103.201 23.3551 103.578 23.2798 103.938 23.153C104.192 23.109 104.427 22.9931 104.617 22.819C104.806 22.645 104.942 22.4201 105.007 22.1713C105.194 21.5126 105.716 21.2143 106.418 20.9285C106.045 21.9849 105.684 22.9045 105.411 23.849C105.231 24.3687 105.139 24.9146 105.138 25.4646V25.5267C105.118 25.711 105.154 25.8969 105.241 26.0605C105.329 26.224 105.463 26.3575 105.627 26.4439C105.791 26.5302 105.977 26.5654 106.161 26.5448C106.345 26.5242 106.519 26.4487 106.66 26.3283C107.426 25.834 108.144 25.2681 108.804 24.6381C109.369 24.057 109.904 23.4472 110.407 22.8112C110.801 22.4346 111.216 22.0799 111.65 21.7487C111.737 22.6062 111.768 23.2835 111.886 23.9484C111.896 24.3413 112.059 24.7145 112.342 24.9877C112.624 25.2608 113.003 25.412 113.396 25.4087H113.638C115.059 25.3332 116.432 24.8642 117.603 24.054C118.327 23.6143 119.025 23.1308 119.69 22.6062C119.982 22.3487 120.221 22.0362 120.392 21.6866C120.532 21.432 120.723 21.2091 120.953 21.0316C121.183 20.8541 121.447 20.7259 121.728 20.6551C121.474 22.1837 120.535 23.5383 121.045 25.3279C121.772 24.7065 122.344 24.2032 122.94 23.7185C124.04 22.8424 125.121 21.9475 126.265 21.1397C126.818 20.7421 127.507 20.3631 128.21 20.7856C128.912 21.2081 128.651 21.9289 128.613 22.5627C128.576 23.1966 128.464 23.6999 128.458 24.2778C128.452 24.8557 128.787 25.1228 129.34 24.7127C129.763 24.402 130.111 23.9795 130.515 23.6253C131.325 22.8036 132.204 22.0531 133.143 21.3821C134.641 20.45 135.691 21.0528 135.896 22.7927C135.921 23.1478 135.971 23.5008 136.045 23.849C136.118 24.2825 136.343 24.6762 136.678 24.9604C137.013 25.2447 137.439 25.4013 137.878 25.4024C138.059 25.4025 138.239 25.3774 138.413 25.3279C140.138 24.8177 141.752 23.9894 143.173 22.8858C143.353 22.7677 143.427 22.4819 143.539 22.2644C143.835 21.6363 144.268 21.0823 144.805 20.6426C145.343 20.2029 145.972 19.8887 146.646 19.723C146.785 19.6806 146.929 19.6597 147.075 19.6609C147.361 19.6597 147.642 19.7417 147.883 19.897C147.966 20.0892 148 20.2993 147.98 20.5079C147.961 20.7165 147.888 20.9167 147.771 21.0901C147 22.0843 146.112 22.9915 145.254 23.9235C145.038 24.1287 144.808 24.3177 144.564 24.489C144.692 24.8369 144.916 25.1415 145.21 25.3679C145.503 25.5944 145.854 25.7334 146.223 25.769C146.866 25.8755 147.517 25.9295 148.168 25.9306C149.498 25.9295 150.817 25.7026 152.071 25.2595C154.006 24.6768 155.83 23.7713 157.464 22.5813C157.682 22.426 157.93 22.2955 158.16 22.1526L158.284 22.308C158.139 22.4791 157.979 22.6372 157.806 22.7802C154.699 24.9986 151.406 26.6576 147.516 26.8689C147.255 26.8689 146.994 26.8689 146.733 26.8689C146.23 26.8689 145.726 26.8689 145.229 26.7881C144.619 26.7565 144.044 26.4933 143.622 26.0522C143.199 25.6111 142.96 25.0253 142.955 24.4145C142.956 24.2537 142.972 24.0934 143.005 23.936C143.005 23.8055 143.042 23.675 143.061 23.4513C142.209 23.967 141.432 24.4704 140.618 24.8992C139.756 25.3752 138.861 25.7904 137.941 26.1419C136.126 26.7633 134.976 26.0487 134.666 24.1783C134.592 23.6741 134.467 23.1786 134.293 22.6994C134.247 22.467 134.121 22.2579 133.937 22.1082C133.753 21.9585 133.523 21.8775 133.286 21.8792C133.146 21.8791 133.007 21.9072 132.878 21.9616C132.749 22.016 132.632 22.0958 132.534 22.1961C131.869 22.7553 131.335 23.4389 130.67 24.023C129.955 24.6618 129.189 25.2397 128.377 25.7504C127.57 26.2476 127.072 25.9058 127.135 24.9675C127.168 24.4375 127.237 23.9102 127.34 23.3892C127.377 23.1694 127.395 22.9471 127.395 22.7243C127.346 21.7363 126.818 21.3696 125.917 21.8046C125.355 22.1253 124.832 22.509 124.357 22.948C123.319 23.8242 122.319 24.7748 121.25 25.6199C120.852 25.9492 120.367 26.3718 119.802 26.0363C119.237 25.7007 119.479 25.1228 119.572 24.6381C119.666 24.1535 119.846 23.5321 120.001 22.9107C118.839 23.6439 117.808 24.402 116.683 24.9737C115.605 25.5172 114.475 25.9482 113.309 26.26C111.445 26.7508 110.55 26.0301 110.419 24.1224V23.7993C109.282 24.7376 108.189 25.7131 107.014 26.5769C106.447 26.9517 105.815 27.2173 105.15 27.3598C105.006 27.4233 104.848 27.4501 104.691 27.438C104.534 27.4259 104.382 27.3752 104.249 27.2903C104.116 27.2055 104.007 27.0892 103.93 26.9517C103.853 26.8143 103.811 26.6599 103.808 26.5023C103.805 26.4423 103.805 26.3821 103.808 26.3221C103.92 25.3838 104.081 24.4579 104.28 23.5134C104.166 23.5385 104.056 23.576 103.951 23.6253C103.064 24.0675 102.098 24.3298 101.11 24.397C100.121 24.4642 99.1289 24.3349 98.1904 24.0168C97.4657 23.82 96.7257 23.6849 95.9783 23.6128C96.584 24.5456 96.953 25.6121 97.0532 26.7198C97.1526 27.4759 97.2025 28.2377 97.2025 29.0003C97.2022 31.4814 96.6547 33.9318 95.5993 36.1772C95.1139 37.1651 94.5244 38.0984 93.8407 38.9611C93.3436 39.5825 92.598 40.2038 91.7156 39.9366C90.8333 39.6694 90.6344 38.8119 90.4729 38.0104C90.3785 37.3809 90.3307 36.7453 90.33 36.1089C90.3321 34.5256 90.6334 32.9571 91.2183 31.4858C92.0945 29.1183 93.0825 26.8068 94.0519 24.4641C94.1203 24.3026 94.1763 24.1473 94.2136 24.0479C93.0951 24.837 91.9953 25.7007 90.796 26.4153C90.0596 26.8412 89.2572 27.1416 88.4221 27.3039C87.1234 27.5649 86.4275 26.639 86.9309 25.4398C87.1732 24.8184 87.4714 24.2777 87.6951 23.675C87.9188 23.0722 87.6952 22.9542 87.1111 23.0101C86.2784 23.0971 85.4333 23.0909 84.6255 23.1592C84.4119 23.2061 84.212 23.3018 84.0415 23.4388C81.0701 25.6752 77.4517 26.8836 73.7328 26.8813C73.36 26.8813 72.9809 26.8814 72.6081 26.8441C70.7439 26.7571 69.8179 25.533 70.1659 23.7372C70.3008 22.8479 70.6811 22.0138 71.264 21.3288C71.8469 20.6439 72.6093 20.135 73.4655 19.8597C73.6831 19.7736 73.9151 19.7294 74.1491 19.7292C74.4564 19.7295 74.7591 19.8041 75.0314 19.9467C75.5099 20.3692 75.0811 21.0092 74.7332 21.4193C73.8321 22.5378 72.8193 23.5693 71.7816 24.694L71.8001 24.7065ZM94.8972 25.0545C94.3442 26.3346 93.8222 27.4965 93.3437 28.6834C92.3247 31.2062 91.4796 33.7663 91.7903 36.5377C91.9021 37.5443 92.1258 38.495 93.033 39.1226C95.6801 36.0654 96.9788 28.6088 94.8972 25.0545ZM71.5953 24.1348C72.5059 23.5225 73.2404 22.6828 73.7264 21.699C73.8383 21.4567 73.9005 21.0217 73.7638 20.8787C73.5844 20.7453 73.3658 20.6754 73.1424 20.6799C73.0639 20.6708 72.9848 20.6708 72.9063 20.6799C72.6119 20.77 72.3545 20.9531 72.173 21.2019C71.8808 21.6204 71.6777 22.0944 71.5762 22.5947C71.4746 23.0949 71.4769 23.6107 71.5828 24.11L71.5953 24.1348ZM144.241 23.936L144.515 24.0354C145.418 23.4362 146.147 22.6088 146.627 21.6369C146.951 21.0155 146.565 20.5245 145.882 20.7172C145.445 20.8477 145.076 21.1415 144.85 21.5374C144.584 22.3205 144.376 23.1222 144.229 23.936H144.241ZM85.6198 21.3945L85.8871 21.6307C86.4418 21.2061 86.9746 20.754 87.484 20.276C87.536 20.2264 87.5772 20.1666 87.605 20.1003C87.6328 20.034 87.6464 19.9626 87.6454 19.8908C87.6441 19.7801 87.6099 19.6725 87.5468 19.5817C87.4836 19.4908 87.3945 19.421 87.2913 19.3813H87.1423C87.0374 19.3804 86.9331 19.4014 86.8368 19.4432C86.7405 19.4849 86.654 19.5463 86.5828 19.6235C86.2224 20.1828 85.9614 20.8042 85.6259 21.407L85.6198 21.3945Z" fill="white"/>
<path d="M64.0748 0.552734C65.5164 1.94464 66.7591 3.53536 68.1013 5.03911C69.4435 6.54286 70.7669 8.08388 72.1837 9.68706V0.73296H72.8363V11.0976L72.6561 11.2157C69.9344 8.25171 67.3495 5.17585 64.5781 2.11864V10.9982H63.8945V0.633517L64.0435 0.552734H64.0748Z" fill="white"/>
<path d="M128.867 6.30727C128.883 5.36306 129.178 4.44458 129.714 3.66729C130.25 2.89001 131.004 2.2886 131.881 1.93854C132.758 1.58847 133.719 1.50537 134.644 1.69975C135.568 1.89413 136.414 2.3573 137.075 3.03104C137.737 3.70478 138.185 4.55907 138.363 5.48654C138.54 6.41401 138.44 7.37332 138.074 8.24393C137.708 9.11454 137.093 9.8576 136.307 10.3798C135.52 10.902 134.596 11.18 133.652 11.1789C133.031 11.1838 132.415 11.0663 131.839 10.8332C131.264 10.6001 130.74 10.2559 130.297 9.8203C129.855 9.38466 129.502 8.86608 129.26 8.29422C129.018 7.72237 128.891 7.10848 128.886 6.48749C128.882 6.42747 128.882 6.36729 128.886 6.30727H128.867ZM133.677 2.08182C132.822 2.00416 131.964 2.18662 131.215 2.6052C130.466 3.02379 129.861 3.65898 129.479 4.42749C129.097 5.19599 128.957 6.06189 129.076 6.91166C129.195 7.76143 129.568 8.55541 130.147 9.18936C130.725 9.82332 131.481 10.2677 132.317 10.4642C133.152 10.6607 134.027 10.6002 134.827 10.2906C135.628 9.98098 136.316 9.43675 136.801 8.72924C137.287 8.02173 137.547 7.184 137.548 6.32593C137.541 5.26529 137.141 4.24483 136.426 3.4612C135.712 2.67757 134.732 2.18618 133.677 2.08182Z" fill="white"/>
<path d="M142.078 7.25173V10.98L141.457 11.0422V1.57227H141.985C142.9 1.57334 143.814 1.63976 144.719 1.77108C146.583 2.1874 147.205 4.0702 146.235 5.65473C145.88 6.14534 145.499 6.61624 145.092 7.06528C145.637 7.83853 146.226 8.57929 146.857 9.28367C147.569 9.93991 148.323 10.5501 149.113 11.1105C148.984 11.12 148.856 11.12 148.727 11.1105C148.352 11.1102 147.982 11.0304 147.64 10.8761C147.298 10.7219 146.993 10.4968 146.745 10.2157C146.068 9.42037 145.428 8.58769 144.806 7.77989C144.719 7.62298 144.591 7.49238 144.436 7.40169C144.28 7.31099 144.104 7.26354 143.924 7.26417H143.812C143.278 7.26417 142.75 7.22685 142.11 7.22685L142.078 7.25173ZM142.078 6.5868C143.414 6.74215 144.701 6.96585 145.515 5.57395C145.981 4.75993 146.043 3.58558 145.515 2.99526C144.57 1.92648 143.327 2.11282 142.078 2.22467V6.57436V6.5868Z" fill="white"/>
<path d="M97.8563 5.64856V1.71522C98.3099 1.54745 98.5087 1.62825 98.4776 2.12536V10.4954C98.4776 10.9552 98.3285 11.1168 97.8563 10.949V6.3197H91.2073V10.5327C91.2073 10.9615 91.052 11.0981 90.5859 10.9614V1.709C91.0333 1.51016 91.2073 1.66549 91.2073 2.1626V5.64234L97.8563 5.64856Z" fill="white"/>
<path d="M119.483 1.01914L119.284 1.41061C118.402 1.27418 117.511 1.19945 116.618 1.18693C115.089 1.25528 114.449 2.54155 115.375 3.75947C115.912 4.34515 116.507 4.87399 117.152 5.33773C117.908 5.88452 118.603 6.50935 119.228 7.20188C119.555 7.61583 119.732 8.12837 119.731 8.65598C119.726 9.19571 119.54 9.71807 119.202 10.1387C118.863 10.5593 118.393 10.8535 117.867 10.9737C117.17 11.2048 116.43 11.2761 115.702 11.1826C114.974 11.089 114.276 10.8329 113.66 10.4331C113.778 10.0354 113.927 9.81173 114.369 10.1038C114.959 10.4195 115.619 10.5839 116.289 10.5823C116.588 10.584 116.886 10.5506 117.177 10.4828C117.539 10.456 117.886 10.3242 118.174 10.1034C118.462 9.88263 118.679 9.58259 118.799 9.24004C118.927 8.89317 118.946 8.51539 118.852 8.15763C118.759 7.79987 118.558 7.47935 118.277 7.2392C117.612 6.61782 116.817 6.13936 116.133 5.53662C115.504 5.04722 114.953 4.46469 114.499 3.80915C114.286 3.47723 114.172 3.09137 114.17 2.69685C114.175 2.19226 114.359 1.70605 114.691 1.32558C115.022 0.945122 115.479 0.69541 115.978 0.621445C116.354 0.544676 116.737 0.505167 117.121 0.503418C117.927 0.504021 118.723 0.682217 119.452 1.02536L119.483 1.01914Z" fill="white"/>
<path d="M102.73 5.62981H105.501C105.723 5.6709 105.934 5.75531 106.122 5.87831C105.917 5.97773 105.725 6.15799 105.501 6.17041C104.606 6.17041 103.712 6.17041 102.767 6.17041V10.3896H106.122C106.495 10.3896 106.744 10.4455 106.607 10.955H102.059V1.63428H106.228C106.346 1.63428 106.464 1.90149 106.707 2.19354H102.779V5.63603L102.73 5.62981Z" fill="white"/>
<path d="M88.0416 2.23719C87.8478 2.3353 87.6367 2.39443 87.4202 2.4112C86.6 2.3242 85.7797 2.16264 84.9347 2.09428C82.648 1.90166 80.9454 3.76584 80.8149 5.93447C80.8088 6.05453 80.8088 6.17479 80.8149 6.29485C80.8198 6.86088 80.9362 7.42039 81.1575 7.94138C81.3788 8.46238 81.7007 8.93466 82.1047 9.33115C82.5087 9.72764 82.9869 10.0406 83.512 10.2521C84.037 10.4636 84.5986 10.5695 85.1646 10.5638C85.3138 10.5638 85.4629 10.5638 85.6058 10.5638C86.2272 10.514 86.8795 10.3463 87.5258 10.2655C87.7331 10.2668 87.9343 10.3367 88.0977 10.4643C84.91 12.0799 81.1195 10.8869 80.2806 7.55006C79.4418 4.21322 81.7035 1.25539 85.1895 1.5288C86.1216 1.59716 87.0537 1.78357 87.9733 1.91406L88.0604 2.26207L88.0416 2.23719Z" fill="white"/>
<path d="M148.172 1.69041C148.274 1.64579 148.384 1.62254 148.495 1.62207C148.665 1.62227 148.831 1.67494 148.97 1.77279C149.109 1.87064 149.214 2.00893 149.272 2.16889C150.16 3.72857 151.136 5.2758 152.074 6.89762C152.404 6.35701 152.696 5.87236 153.012 5.36904C153.634 4.28161 154.299 3.18175 154.926 2.09433C155.138 1.73393 155.386 1.47297 155.914 1.72773L153.553 5.72941C153.271 6.15417 153.016 6.59622 152.789 7.05296C152.585 7.48215 152.453 7.94189 152.397 8.41384C152.342 9.24649 152.397 10.0978 152.397 10.8994C151.863 11.1417 151.695 10.9553 151.72 10.4768C151.745 9.99833 151.676 9.669 151.72 9.23403C151.826 8.05984 151.487 6.88869 150.769 5.9531C149.875 4.56741 149.054 3.12585 148.172 1.65317V1.69041Z" fill="white"/>
<path d="M123.913 2.2122H120.707V1.59082H127.405C127.555 1.59082 127.704 1.83936 127.859 1.96364L127.741 2.15001H124.584V10.8991C123.926 11.0234 123.913 11.0234 123.913 10.4641V2.19976V2.2122Z" fill="white"/>
<path d="M77.1697 10.9676H76.5547V1.67797L77.1697 1.62207V10.9676Z" fill="white"/>
<path d="M76.3719 0.764291H75.5703V0H76.3719V0.764291Z" fill="white"/>
<path d="M77.3984 0.733191V0H78.2434L78.2744 0.714531L77.3984 0.733191Z" fill="white"/>
</g>
<defs>
<clipPath id="clip0_8105_6242">
<rect width="220" height="40" fill="white"/>
</clipPath>
</defs>
</svg>
