<svg width="220" height="40" viewBox="0 0 220 40" fill="none" xmlns="http://www.w3.org/2000/svg">
<path fill-rule="evenodd" clip-rule="evenodd" d="M156.926 15.6948L153.234 16.0022V14.5915C153.234 14.4197 153.152 14.2388 153.586 14.3112C153.783 14.2972 153.981 14.328 154.167 14.4016C154.524 14.4553 154.875 14.5493 155.215 14.682C155.648 14.8434 156.065 15.0524 156.459 15.3059L156.755 15.5139C156.795 15.5238 156.833 15.5459 156.863 15.5778C156.894 15.6097 156.915 15.6502 156.926 15.6948ZM150.663 14.8628C150.958 14.689 151.276 14.5669 151.605 14.5011C152.021 14.3748 152.451 14.3109 152.882 14.3112H153.029V16.1198L150.721 16.3187V15.107C150.721 15.0346 150.663 14.9532 150.663 14.899V14.8628ZM150.45 14.9623V16.1921C150.368 16.1921 149.255 15.7129 149.222 15.7038C149.305 15.6183 149.396 15.5426 149.493 15.4778C149.787 15.2502 150.11 15.0705 150.45 14.9442V14.9623ZM153.234 17.1597V16.2554L156.362 15.9841H156.271C155.862 16.156 155.453 16.3278 155.019 16.4815L154.053 16.8522C153.782 16.9607 153.512 17.0602 153.234 17.1416V17.1597ZM156.509 18.5252H156.386L155.084 18.0188C154.577 17.8289 154.085 17.6209 153.586 17.44H153.488C153.771 17.2846 154.067 17.1604 154.372 17.0693C154.593 16.9879 154.822 16.8794 155.052 16.807L155.723 16.5358C156.075 16.4092 156.542 16.2192 156.877 16.1107L157.115 16.0384C157.105 16.0937 157.091 16.1482 157.074 16.2012C156.902 16.8794 156.722 17.5757 156.558 18.2629C156.558 18.3534 156.484 18.4348 156.451 18.5252H156.509ZM148.559 16.4453C148.559 16.373 148.968 15.8485 149.247 15.9299C149.528 16.0292 149.802 16.1531 150.065 16.3006L148.919 16.4001H148.559V16.4453ZM151.22 16.4453L153.07 16.2825V17.1868H152.964L151.916 16.7799C151.834 16.7076 151.228 16.4996 151.196 16.4724L151.22 16.4453ZM150.786 16.5448C151.314 16.7064 151.833 16.8996 152.342 17.1236C152.513 17.1793 152.679 17.2582 152.833 17.3586C152.666 17.4066 152.501 17.4671 152.342 17.5395L150.86 18.1002L150.786 16.5448ZM157.753 18.9864C157.753 18.9864 156.983 18.697 156.852 18.6608L156.722 18.6066V18.4438C156.926 17.6299 157.114 16.8161 157.311 15.9932C157.519 16.1611 157.711 16.352 157.884 16.5629C158.173 16.8817 158.424 17.2404 158.629 17.63C158.629 17.7113 158.629 17.7023 158.555 17.8379C158.305 18.2428 158.032 18.6294 157.737 18.9954L157.753 18.9864ZM150.565 16.4815L150.655 18.1816H150.508L149.599 18.5343C149.345 18.6337 149.304 18.5342 148.944 18.3895C148.584 18.2448 148.33 18.1183 148.027 17.9645C147.879 17.8927 147.737 17.808 147.601 17.7113L147.79 17.3677C147.912 17.1597 148.019 17.0512 148.125 16.8794C148.232 16.7076 148.346 16.6443 148.764 16.5991L150.082 16.4724C150.213 16.4724 150.385 16.4724 150.54 16.4724L150.565 16.4815ZM150.876 18.3534L152.784 17.6209C152.876 17.5753 152.972 17.539 153.07 17.5124V18.0821C153.07 18.1997 153.07 18.3262 153.07 18.4438C153.07 18.5613 153.07 18.697 153.07 18.8146C153.07 18.9321 153.07 18.905 153.013 18.9411C152.955 18.9773 152.767 18.9411 152.784 19.2305H153.209C153.208 19.2764 153.194 19.3208 153.168 19.3571C153.098 19.3482 153.026 19.3482 152.956 19.3571C152.888 19.3482 152.819 19.3482 152.751 19.3571C152.719 19.4209 152.691 19.4874 152.669 19.556C152.627 19.7208 152.605 19.8912 152.603 20.0625C152.603 20.2434 152.071 19.8273 152.006 19.7912L151.048 19.33C150.901 19.2667 150.95 19.33 150.925 19.0135V18.905L150.876 18.3443V18.3534ZM153.267 18.5071V17.4943L156.059 18.5704C156.19 18.6268 156.323 18.675 156.459 18.7151C156.463 18.742 156.463 18.7695 156.459 18.7965C156.463 18.8204 156.463 18.8449 156.459 18.8688C156.378 19.2215 156.288 19.5832 156.214 19.9359C155.87 19.9359 155.395 20.0082 154.994 20.0353H153.856C153.66 20.0353 153.856 19.8997 153.742 19.6104C153.742 19.5018 153.602 19.339 153.602 19.2938V19.0768C153.602 18.9412 153.43 18.9773 153.357 18.8598C153.299 18.7542 153.261 18.6376 153.242 18.5161L153.267 18.5071ZM146.947 19.5832C147.021 19.0847 147.173 18.6043 147.397 18.1635C147.397 18.1635 147.478 18.0007 147.487 17.9735L147.683 18.064L148.674 18.5432L149.075 18.7332L146.947 19.5832ZM150.671 18.4167C150.664 18.7188 150.678 19.0212 150.712 19.321L149.714 18.8236C150.008 18.6608 150.323 18.5451 150.647 18.48L150.671 18.4167ZM158.858 17.9283C159.144 18.4412 159.356 18.9993 159.489 19.5832H159.407L158.072 19.0678C158.154 18.9067 158.25 18.7552 158.359 18.6156C158.474 18.4709 158.596 18.2539 158.719 18.1183C158.75 18.0547 158.785 17.9941 158.826 17.9374L158.858 17.9283ZM157.221 19.8816C156.975 19.8816 156.713 19.8816 156.476 19.8816L156.738 18.7603L157.205 18.9411L157.442 19.0316C157.529 19.0424 157.612 19.0732 157.688 19.122L157.221 19.8364V19.8816ZM157.516 19.8816C157.638 19.6827 157.811 19.4656 157.917 19.2848L159.014 19.7369H158.842L158.154 19.7912H158.064C157.842 19.8289 157.618 19.8531 157.393 19.8635H157.466L157.516 19.8816ZM151.032 19.6827C151.106 19.7064 151.178 19.7398 151.245 19.7821C151.539 19.9178 151.834 20.0806 152.129 20.2253H151.024C151 20.0393 151 19.8506 151.024 19.6646H151.072L151.032 19.6827ZM156.157 21.3466V21.2471C156.157 21.0663 156.353 20.3428 156.37 20.2976C156.386 20.2524 156.525 20.1891 156.755 20.171H156.984C156.949 20.2188 156.919 20.2703 156.894 20.3247C156.812 20.4604 156.762 20.5056 156.681 20.6232L156.304 21.1476C156.24 21.2206 156.165 21.2817 156.083 21.3285H156.157V21.3466ZM155.837 21.7354L155.698 21.6812L154.716 21.22L154.446 21.0843C154.216 20.9667 154.069 20.9668 153.979 20.7136C153.938 20.5978 153.913 20.4758 153.905 20.3518H154.331C154.571 20.3247 154.812 20.3247 155.052 20.3518C155.42 20.3518 155.87 20.2705 156.198 20.2705L156.017 21.03L155.837 21.7354ZM146.832 20.6232C146.827 20.566 146.827 20.5085 146.832 20.4513C146.833 20.272 146.872 20.0953 146.947 19.9359L149.403 18.9411C149.503 18.9475 149.601 18.9784 149.689 19.0316C150 19.1853 150.417 19.3571 150.712 19.538H150.794V20.2976C149.378 20.4242 148.043 20.5056 146.701 20.6051H146.807L146.832 20.6232ZM152.21 21.862C152.213 22.0052 152.241 22.1464 152.292 22.278C152.38 22.4505 152.506 22.5963 152.657 22.702C152.809 22.8078 152.982 22.8703 153.16 22.8839H153.259C153.452 22.886 153.641 22.8296 153.807 22.7211C153.914 22.6638 154.009 22.5829 154.087 22.4833C154.164 22.3838 154.222 22.2677 154.257 22.1424C154.327 21.8458 154.327 21.5346 154.257 21.2381H154.347L155.166 21.636L155.731 21.8982C155.735 21.9221 155.735 21.9466 155.731 21.9705L155.15 22.7844C154.97 23.0557 154.748 23.327 154.568 23.5983L154.2 24.1137L154.102 24.2584C153.209 23.8333 152.317 23.3541 151.433 22.9471L151.245 22.8567L151.146 21.0481V20.4513L152.685 20.3609L152.571 20.6955C152.365 21.0189 152.22 21.3849 152.145 21.7716H152.252L152.21 21.862ZM147.184 20.8221H147.634L149.271 20.7045H149.73L150.884 20.6141L150.958 21.9796C150.947 22.2521 150.963 22.525 151.007 22.7934C151.056 22.8386 149.705 22.1514 149.575 22.0791L149.222 21.8982L148.625 21.5998L147.912 21.2471C147.724 21.1476 147.52 21.0301 147.323 20.9487L147.184 20.8221ZM147.044 21.0481C147.699 21.3918 148.379 21.7083 149.042 22.0519C149.705 22.3955 150.311 22.703 150.958 23.0104L151.024 24.819H150.827L149.632 25.0089H149.427L149.353 24.8823L147.02 21.0481H147.044ZM146.783 21.1115C146.995 21.2833 148.682 24.1589 149.239 25.0722C149.165 25.0722 148.281 25.1988 148.175 25.2169L147.814 25.2712L147.593 24.8462C147.198 24.0823 146.942 23.2406 146.84 22.3684C146.756 21.9581 146.704 21.5406 146.684 21.1205L146.783 21.1115ZM159.415 23.4626L158.597 23.0647C158.212 22.8658 157.778 22.6759 157.344 22.4679L156.304 21.9705L156.091 21.8801C156.108 21.8434 156.131 21.8098 156.157 21.7806L157.139 20.3699L157.213 20.2614C157.385 20.0263 157.827 20.0986 158.031 20.0715C158.157 20.0575 158.283 20.0575 158.408 20.0715H158.482H159.169H159.48C159.554 20.0715 159.636 20.0715 159.653 20.1439C159.792 21.1114 159.521 23.3993 159.309 23.4897H159.415V23.4626ZM154.347 24.3669C154.747 23.7354 155.182 23.1314 155.649 22.5583C155.64 22.6675 155.615 22.7744 155.575 22.8748L155.273 24.177C155.273 24.2674 155.273 24.2493 155.174 24.2674C154.851 24.2689 154.528 24.2961 154.208 24.3488L154.347 24.4031V24.3669ZM151.196 23.2185C151.252 23.2281 151.307 23.2464 151.359 23.2727C151.408 23.2727 153.586 24.3488 153.668 24.4664C153.553 24.4664 151.842 24.7286 151.588 24.7648H151.285C151.176 24.2389 151.11 23.7032 151.089 23.1642L151.196 23.2185ZM155.477 24.2041L155.6 23.6977C155.715 23.1913 155.862 22.6307 155.969 22.1333L157.336 22.7934C157.925 23.0828 158.523 23.345 159.112 23.6977L155.477 24.2222V24.2041ZM156.189 25.4339C156.075 25.4339 156.132 25.4339 156.017 25.3797C155.834 25.296 155.657 25.1994 155.485 25.0903C155.418 25.0412 155.347 24.9988 155.273 24.9637C155.314 24.7919 155.371 24.611 155.412 24.4302H155.51L158.785 23.9509L157.09 24.9547C156.759 25.1322 156.414 25.2745 156.059 25.3797L156.157 25.4339H156.189ZM156.443 25.5786C156.443 25.5786 157.041 25.226 157.147 25.1808L158.727 24.2765C158.785 24.2765 159.227 23.9871 159.259 23.978C159.1 24.5246 158.86 25.038 158.547 25.4972C158.433 25.651 158.023 26.275 157.876 26.3202C157.728 26.3654 157.057 25.9223 157.057 25.9132C156.808 25.7952 156.565 25.6624 156.329 25.5153L156.443 25.5696V25.5786ZM155.092 24.8914L154.65 24.6834L154.495 24.6201C154.66 24.5628 154.83 24.5234 155.002 24.5025H155.174C155.068 24.5025 155.027 24.7557 155.027 24.8371L155.092 24.8914ZM151.474 27.9479V25.0541L153.815 24.6925H153.979L151.932 27.559C151.708 27.5879 151.503 27.7109 151.359 27.9027H151.474V27.9479ZM149.672 25.2893C149.836 25.2893 150.197 25.2079 150.385 25.1898L151.097 25.0813V25.1627C151.086 25.3071 151.086 25.4523 151.097 25.5967V26.3654C151.118 26.5667 151.118 26.7699 151.097 26.9712L151.138 27.6676C151.098 27.6224 151.065 27.5705 151.04 27.5138L150.442 26.5643C150.328 26.284 149.623 25.1537 149.566 25.0361L149.672 25.1265V25.2893ZM147.961 25.5515C148.125 25.5515 149.247 25.3435 149.394 25.3435L150.778 27.5681C150.835 27.6766 151.081 28.0383 151.089 28.0925L150.966 28.0383C150.416 27.8158 149.895 27.5116 149.419 27.134L149.14 26.8989L148.87 26.6276C148.805 26.5733 148.534 26.284 148.477 26.2207C148.305 26.0127 148.142 25.8047 147.978 25.5877C147.814 25.3707 147.863 25.4611 147.855 25.443L147.961 25.5334V25.5515ZM155.035 26.1212C155.092 25.8228 155.166 25.5244 155.248 25.2169C155.303 25.2477 155.355 25.284 155.403 25.3254C155.479 25.3953 155.565 25.4505 155.657 25.4882C155.74 25.5425 155.828 25.5879 155.919 25.6238C156.001 25.6238 155.436 25.9223 155.371 25.9584L155.092 26.1121C155.079 26.1257 155.062 26.1349 155.044 26.1384C155.026 26.142 155.007 26.1399 154.99 26.1323C154.973 26.1248 154.958 26.1122 154.947 26.0958C154.936 26.0795 154.93 26.0601 154.929 26.0398L155.035 26.1302V26.1212ZM154.503 28.3639C154.518 28.2077 154.545 28.0534 154.585 27.9027L154.798 26.9984C154.839 26.8537 154.872 26.7 154.912 26.5553C154.932 26.4916 154.964 26.4335 155.007 26.385C155.049 26.3366 155.101 26.299 155.158 26.275L155.674 26.0036C155.835 25.8786 156.015 25.7867 156.206 25.7324C156.344 25.7698 156.477 25.8308 156.599 25.9132L156.984 26.0941C157.243 26.2096 157.495 26.3456 157.737 26.501C157.695 26.5654 157.648 26.6258 157.598 26.6819C157.491 26.7723 157.401 26.8718 157.262 26.9803L156.812 27.333C156.146 27.8041 155.408 28.138 154.634 28.3186H154.577C154.517 28.3311 154.456 28.3311 154.396 28.3186L154.503 28.4V28.3639ZM153.439 28.5176C153.132 28.516 152.825 28.4918 152.522 28.4452C152.244 28.4264 151.97 28.3749 151.703 28.2915L152.603 27.758C152.792 27.6314 153.168 27.4324 153.349 27.3239L153.701 27.0978L154.29 26.7994L154.675 26.5914L154.266 28.4C154.118 28.4 153.447 28.4633 153.332 28.4633L153.439 28.5537V28.5176ZM159.841 22.6397C159.726 23.466 159.47 24.2607 159.087 24.9818C158.87 25.409 158.613 25.8092 158.318 26.1755C157.946 26.6744 157.507 27.1075 157.016 27.4596C156.064 28.1751 154.96 28.6054 153.812 28.7084C152.664 28.8115 151.511 28.5837 150.467 28.0473C149.823 27.7137 149.228 27.2781 148.698 26.7542L148.551 26.5824C148.246 26.2555 147.971 25.895 147.732 25.5063C147.297 24.8108 146.976 24.0365 146.783 23.2185C146.652 22.648 146.586 22.0617 146.586 21.4732C146.585 20.3455 146.823 19.2333 147.281 18.2253C147.739 17.2173 148.404 16.3414 149.222 15.6676C149.569 15.382 149.936 15.1279 150.319 14.908C150.728 14.662 151.171 14.491 151.629 14.4016C151.625 14.3445 151.625 14.287 151.629 14.2298C151.626 14.1726 151.626 14.1152 151.629 14.058C151.801 13.0904 152.718 13.425 153.078 13.0543C153.127 13 153.128 13.0542 153.128 12.9095V9.36475H153.291V12.9819C153.313 13.0231 153.338 13.0624 153.365 13.0995C153.774 13.4883 154.396 13.208 154.699 13.8048C154.765 13.9492 154.806 14.1054 154.822 14.266V14.4378C155.009 14.4739 155.192 14.5284 155.371 14.6006C156.211 14.9246 156.987 15.4251 157.655 16.0746L157.737 16.174H157.786L158.236 16.7076C158.449 16.9789 158.638 17.2863 158.834 17.6119C159.14 18.1835 159.39 18.7898 159.579 19.4204C159.733 20.0453 159.81 20.69 159.808 21.3375C159.808 21.7649 159.775 22.1914 159.71 22.6126L159.816 22.703L159.841 22.6397ZM151.793 27.9569L152.612 26.8356L153.046 26.2297C153.193 26.0308 153.389 25.7414 153.561 25.5244C153.768 25.2616 153.954 24.9803 154.118 24.6834L155.068 25.1446C155.053 25.3616 155.008 25.5748 154.937 25.7776C154.88 25.9946 154.888 25.9946 154.863 26.0941C154.806 26.3473 154.691 26.3654 154.478 26.4829C153.66 26.926 152.841 27.3872 152.022 27.8303L151.785 27.9569H151.793Z" fill="white"/>
<path d="M118.175 21.2378H121.712L119.944 16.3637L118.175 21.2378ZM121.876 21.6267H118.044L116.055 27.0524C115.965 27.2846 115.899 27.5273 115.858 27.7758C115.858 27.9838 115.997 28.0923 116.292 28.0923V28.228H114.335V28.0923C114.555 28.0905 114.771 28.0217 114.957 27.8934C115.229 27.5844 115.431 27.2097 115.547 26.7992L120.304 13.7141H120.516L125.2 26.3742C125.296 26.6878 125.419 26.9906 125.568 27.2785C125.652 27.5214 125.802 27.7301 125.996 27.8771C126.191 28.024 126.421 28.1022 126.657 28.1014V28.237H123.636V28.1014C123.914 28.1014 124.053 27.9839 124.053 27.7487C124.026 27.4783 123.957 27.2151 123.848 26.971C123.818 26.936 123.799 26.892 123.791 26.8444V26.7449L121.867 21.6809L121.876 21.6267ZM112.518 14.0939L113.14 15.9025H113.033C113.033 15.9025 112.87 15.7036 112.534 15.3328C112.222 14.9473 111.84 14.6391 111.412 14.4285C110.972 14.2208 110.499 14.1132 110.021 14.112H109.824C109.088 14.1084 108.378 14.412 107.835 14.9621C107.579 15.2149 107.374 15.5242 107.233 15.8699C107.092 16.2157 107.018 16.5903 107.016 16.9696V17.0238C107.018 17.4946 107.146 17.9542 107.384 18.3441C107.795 18.8644 108.332 19.2441 108.932 19.4383C110.275 19.9357 111.2 20.3426 111.691 20.5506C112.254 20.8469 112.747 21.2833 113.132 21.8256C113.575 22.4327 113.818 23.1887 113.819 23.9688C113.819 23.9688 113.819 24.0683 113.819 24.1135V24.1768C113.82 24.5279 113.779 24.8775 113.697 25.2167C113.615 25.5781 113.483 25.923 113.304 26.2385C113.118 26.5697 112.895 26.8736 112.64 27.1428C112.395 27.3893 112.119 27.5963 111.822 27.7577C111.418 27.931 110.993 28.0377 110.561 28.0743C109.988 28.1376 109.603 28.1737 109.423 28.1737H105.919V24.023H106.058C106.05 24.1464 106.05 24.2704 106.058 24.3938C106.059 25.3276 106.381 26.2263 106.959 26.9077C107.664 27.4459 108.5 27.736 109.358 27.7397H109.677H109.906C110.747 27.7387 111.561 27.4195 112.215 26.8354C112.488 26.5886 112.708 26.2782 112.859 25.9264C113.011 25.5746 113.09 25.1903 113.091 24.8007V24.6832C113.091 24.2622 112.986 23.8494 112.788 23.4895C112.574 23.129 112.296 22.8212 111.969 22.5852C111.322 22.1756 110.632 21.8537 109.915 21.6267C109.181 21.3731 108.473 21.0368 107.802 20.6229C107.366 20.2945 107.016 19.8455 106.787 19.3208C106.518 18.7643 106.377 18.1431 106.378 17.5122C106.389 16.4923 106.762 15.518 107.417 14.7993C108.115 14.0737 109.038 13.6695 109.996 13.6689H110.168C110.644 13.6759 111.118 13.7335 111.584 13.8408C111.874 13.8909 112.162 13.9603 112.444 14.0487L112.543 14.1301L112.518 14.0939ZM91.0433 13.9131H94.793V14.0578H94.5963C94.3596 14.0584 94.1276 14.1303 93.9251 14.2658C93.7614 14.4195 93.6877 14.8174 93.6877 15.4504V20.9485L101.465 14.5551C101.621 14.4466 101.703 14.3381 101.703 14.2387C101.703 14.1392 101.531 14.0668 101.179 14.0668V13.9221H103.987V14.0668C103.224 14.1159 102.496 14.4327 101.907 14.9711L95.1288 20.4873L101.891 26.0939C102.548 26.6569 103.24 27.1676 103.963 27.6221C104.377 27.895 104.847 28.0474 105.33 28.0652V28.2009H100.868V28.0652C101.269 28.0652 101.474 28.0652 101.474 27.9296C101.474 27.7939 101.31 27.6583 100.974 27.3961L93.6057 21.2378V26.5641C93.6057 26.6455 93.6057 26.7269 93.6057 26.8082C93.6067 27.1161 93.6541 27.4216 93.7452 27.7125C93.8131 27.8501 93.9234 27.9561 94.0563 28.011C94.2074 28.0621 94.3647 28.0865 94.5228 28.0833H94.7111V28.2189H90.9777V28.0833C91.4772 28.0833 91.7966 28.029 91.9112 27.8391C92.04 27.53 92.1072 27.1938 92.1079 26.8534C92.1119 26.7782 92.1119 26.7027 92.1079 26.6274V15.5318C92.1121 15.4535 92.1121 15.375 92.1079 15.2967C92.1081 14.9533 92.0409 14.6139 91.9112 14.3019C91.7884 14.112 91.4772 14.0397 90.9777 14.0758L91.0681 13.9402L91.0433 13.9131ZM89.8972 13.9131V14.0578H89.7661C89.613 14.0575 89.461 14.085 89.316 14.1391C89.2347 14.161 89.1588 14.2034 89.0949 14.263C89.031 14.3227 88.9805 14.3979 88.9474 14.4828C88.9036 14.7818 88.8816 15.0842 88.8818 15.3871C88.8818 15.4504 88.8818 15.5137 88.8818 15.577V26.5551C88.8779 26.6334 88.8779 26.7118 88.8818 26.7901C88.8789 27.0935 88.9038 27.3965 88.9558 27.6944C89.0052 27.8312 89.0945 27.9458 89.2096 28.02C89.3921 28.1127 89.5901 28.162 89.7909 28.1647H89.8972V28.3003H86.4014V28.1647C86.838 28.1647 87.1109 28.0743 87.22 27.8934C87.3337 27.5705 87.392 27.2271 87.3919 26.8806C87.396 26.7963 87.396 26.7117 87.3919 26.6274V15.7759C87.3963 15.6886 87.3963 15.601 87.3919 15.5137C87.3924 15.147 87.3258 14.784 87.1957 14.4466C87.0892 14.2296 86.8109 14.1482 86.377 14.1663V14.0216L89.8972 13.9131ZM82.6273 13.9131H85.1569V14.0578H85.0506C84.7959 14.0557 84.5477 14.148 84.3462 14.32C84.182 14.5863 84.0964 14.9021 84.1008 15.2243C84.0971 15.2845 84.0971 15.3449 84.1008 15.4052V28.4179L73.6951 16.2461V26.9258C73.699 27.1421 73.7236 27.3573 73.7687 27.5679C73.8009 27.7017 73.873 27.8195 73.9734 27.9025C74.1887 27.9943 74.415 28.0521 74.645 28.0743V28.2099H72.0577V28.0743C72.508 28.0743 72.7946 27.9838 72.8764 27.821C72.9898 27.5043 73.0481 27.1669 73.0483 26.8263C73.0483 26.7359 73.0483 26.6455 73.0483 26.5551V16.6983C73.0486 16.0519 72.9402 15.4111 72.7289 14.8083C72.5079 14.2657 72.0086 14.0216 71.2227 14.0578V13.9131H73.6788L83.5031 25.3252V15.2333C83.5031 14.6908 83.413 14.3291 83.2329 14.2387C83.0431 14.1199 82.8289 14.0576 82.6109 14.0578H82.5453L82.6109 13.9131H82.6273Z" fill="white"/>
<path d="M142.361 21.1202H135.156V26.6273C135.156 26.6906 135.156 26.7539 135.156 26.8172C135.156 27.0846 135.181 27.3513 135.23 27.613C135.28 27.7587 135.369 27.8846 135.484 27.9748C135.647 28.0751 135.83 28.128 136.016 28.1285H136.114V28.2641H132.725V28.1285C133.347 28.1285 133.65 27.8481 133.65 27.1518V15.6221C133.65 15.5407 133.65 15.4593 133.65 15.378C133.65 15.0397 133.6 14.7037 133.502 14.3833C133.404 14.2114 133.142 14.1029 132.684 14.0939V13.9492H136.073V14.0939H136.008C135.762 14.0923 135.522 14.1744 135.32 14.329C135.188 14.5147 135.116 14.7439 135.115 14.9801C135.111 15.0252 135.111 15.0706 135.115 15.1157V20.7133H142.32V15.3961C142.319 15.0616 142.272 14.7293 142.181 14.4104C142.091 14.1934 141.829 14.0939 141.411 14.0939V13.9492H144.768V14.0939H144.669C144.499 14.0954 144.33 14.1291 144.17 14.1933C144.046 14.2552 143.949 14.3691 143.9 14.5099C143.844 14.7889 143.816 15.0741 143.818 15.3599C143.818 15.4413 143.818 15.5227 143.818 15.595V26.5731C143.818 26.6544 143.818 26.7268 143.818 26.8082C143.821 27.0848 143.848 27.3604 143.9 27.6311C143.946 27.7749 144.035 27.8965 144.154 27.9748C144.313 28.068 144.49 28.1176 144.669 28.1194H144.768V28.2551H141.411V28.1194H141.534C141.753 28.1188 141.965 28.0322 142.131 27.8752C142.262 27.5477 142.329 27.1934 142.328 26.8353C142.328 26.7449 142.328 26.6545 142.328 26.555V21.1293L142.361 21.1202Z" fill="white"/>
<path d="M173.134 13.9134H175.213V14.0581H175.14C175.013 14.0569 174.887 14.0834 174.77 14.136C174.653 14.1887 174.547 14.2664 174.457 14.3647C174.367 14.4631 174.296 14.5801 174.247 14.7091C174.198 14.838 174.173 14.9764 174.173 15.1161C174.169 15.1612 174.169 15.2066 174.173 15.2518C174.17 15.4757 174.184 15.6995 174.214 15.9209L175.59 26.7724C175.616 27.1407 175.714 27.4985 175.876 27.8213C176.042 27.9953 176.262 28.0924 176.49 28.0926V28.2283H173.576V28.0926C173.653 28.1063 173.732 28.0997 173.807 28.0733C173.881 28.0469 173.949 28.0015 174.005 27.9408C174.061 27.88 174.103 27.8057 174.128 27.7236C174.153 27.6416 174.16 27.5543 174.149 27.4687C174.145 27.2807 174.128 27.0933 174.1 26.908L172.757 16.3731L168.074 28.2192H167.984L163.252 16.4002L161.934 26.9713C161.934 27.0617 161.934 27.1522 161.934 27.2426C161.934 27.333 161.934 27.4325 161.934 27.523C161.934 27.9028 162.13 28.0836 162.531 28.0836V28.2192H160.477V28.0836H160.591C160.757 28.0839 160.921 28.0372 161.066 27.948C161.164 27.8383 161.232 27.7004 161.262 27.5501C161.314 27.3582 161.35 27.1614 161.369 26.9623L162.859 15.4326C162.745 14.965 162.491 14.5538 162.138 14.2661C161.918 14.1492 161.678 14.0845 161.434 14.0761V13.9315H163.89L168.5 25.6239L173.109 13.8682L173.134 13.9134Z" fill="white"/>
<path d="M177.178 14.0759V13.9131H185.423V15.8844H185.292C185.217 15.4242 185.062 14.9847 184.833 14.5913C184.622 14.4545 184.382 14.3826 184.137 14.3833H183.949H179.618V20.7948H183.793C183.998 20.7942 184.201 20.7512 184.391 20.6682C184.443 20.6289 184.486 20.5764 184.516 20.515C184.546 20.4537 184.562 20.3852 184.563 20.3155H184.694V21.6629H184.563C184.556 21.5858 184.533 21.5115 184.496 21.4456C184.459 21.3798 184.409 21.3242 184.35 21.2831C184.188 21.2144 184.016 21.1807 183.842 21.1836H179.618V25.6146C179.618 25.6869 179.618 25.7593 179.618 25.8316C179.62 26.2493 179.681 26.6642 179.798 27.0615C179.843 27.1936 179.915 27.3123 180.009 27.4081C180.103 27.5039 180.215 27.5741 180.338 27.6131C180.649 27.6931 180.968 27.7326 181.288 27.7307H184.055C184.433 27.7306 184.811 27.7034 185.185 27.6492C185.382 27.594 185.561 27.478 185.701 27.3147C185.894 26.9908 186.007 26.6166 186.028 26.2295H186.151V28.1918H177.145V28.0562C177.387 28.0564 177.625 27.9945 177.841 27.8753C177.997 27.7668 178.079 27.4865 178.079 27.0343V15.3238C178.08 15.0165 178.036 14.7109 177.948 14.4195C177.874 14.1663 177.612 14.0578 177.129 14.0578L177.178 14.0759Z" fill="white"/>
<path d="M193.357 14.0943L193.979 15.9028H193.881L193.382 15.3331C193.064 14.9472 192.676 14.6391 192.244 14.4288C191.807 14.2202 191.336 14.1125 190.86 14.1124H190.664C189.929 14.1074 189.221 14.4114 188.682 14.9624C188.427 15.2152 188.221 15.5245 188.08 15.8703C187.939 16.2161 187.866 16.5906 187.864 16.9699V17.0241C187.865 17.4949 187.993 17.9545 188.232 18.3444C188.645 18.8614 189.181 19.2404 189.779 19.4386C191.13 19.936 192.047 20.3429 192.539 20.5509C193.1 20.8492 193.593 21.2852 193.979 21.8259C194.426 22.4273 194.669 23.182 194.667 23.9601V24.1409C194.669 24.5046 194.625 24.8669 194.536 25.217C194.452 25.5789 194.317 25.9238 194.135 26.2389C193.958 26.574 193.737 26.8786 193.48 27.1431C193.235 27.3896 192.959 27.5966 192.661 27.7581C192.257 27.9304 191.832 28.037 191.4 28.0746C190.819 28.1379 190.434 28.174 190.254 28.174H186.832V24.0233H186.963C186.955 24.1407 186.955 24.2586 186.963 24.376C186.962 25.3156 187.284 26.2205 187.864 26.908C188.569 27.4463 189.405 27.7363 190.262 27.74H190.582H190.803C191.648 27.7395 192.468 27.4205 193.128 26.8357C193.398 26.5829 193.615 26.2685 193.765 25.9142C193.915 25.5599 193.993 25.174 193.996 24.783V24.6835C193.995 24.2625 193.89 23.8497 193.693 23.4898C193.479 23.1294 193.2 22.8215 192.874 22.5855C192.209 22.1748 191.503 21.8501 190.77 21.6179C190.036 21.3661 189.328 21.0297 188.658 20.6142C188.222 20.2899 187.864 19.852 187.618 19.3391C187.35 18.7825 187.212 18.1609 187.217 17.5305V17.4492C187.216 16.9429 187.307 16.4416 187.486 15.9754C187.664 15.5091 187.927 15.0877 188.257 14.7363C188.957 14.0094 189.882 13.6051 190.844 13.606H191.007C191.486 13.6135 191.963 13.671 192.432 13.7778C192.708 13.8289 192.982 13.8983 193.25 13.9857L193.332 14.04L193.357 14.0943Z" fill="white"/>
<path fill-rule="evenodd" clip-rule="evenodd" d="M45.0923 1L62.1374 12.0142V35.1911H61.286V12.5568L45.0923 2.09421L28.8982 12.5568V35.1911H61.286H66.5911L66.1738 36.1407H24.4609L24.8295 35.1911H28.0387V12.0142L45.0923 1Z" fill="white"/>
<path fill-rule="evenodd" clip-rule="evenodd" d="M43.268 31.1131L34.9336 18.227H34.5078V31.7913H35.1054V19.7281L42.6868 31.5381C42.957 32.0354 43.6774 31.8546 43.268 31.1402V31.1131ZM34.6469 15.3604L45.4867 31.8366H45.9124V15.3423H47.1241V31.8185H47.7297V31.6737L47.7709 23.3452H55.9579V31.8456H56.5719V14.6641H55.9579V22.5223H47.7709V14.6912H45.3148V30.1726L35.2202 14.9715C34.9582 14.4651 34.2376 14.637 34.6469 15.3604Z" fill="white"/>
<path fill-rule="evenodd" clip-rule="evenodd" d="M27.2188 38.5189H63.4705L63.8227 37.5693H27.5298L27.2188 38.5189Z" fill="white"/>
</svg>
