<svg width="220" height="40" viewBox="0 0 220 40" fill="none" xmlns="http://www.w3.org/2000/svg">
<mask id="mask0_8099_10446" style="mask-type:luminance" maskUnits="userSpaceOnUse" x="21" y="5" width="179" height="30">
<path d="M199.147 5H21V35H199.147V5Z" fill="white"/>
</mask>
<g mask="url(#mask0_8099_10446)">
<path d="M29.6503 34.6298H21.0801V5.48563H35.9021L52.906 27.2435V5.48563H61.4763V34.6298H46.9545L29.6503 12.5006V34.6298ZM102.482 25.6183C102.482 29.6694 101.765 31.0655 100.579 32.4058C98.7602 34.4006 96.1158 35 91.0181 35H76.3854C71.2873 35 68.6396 34.4001 66.8227 32.4058C65.6381 31.0666 64.9207 29.6694 64.9207 25.6183V14.3834C64.9207 10.3329 65.6381 8.93737 66.8227 7.59591C68.6396 5.59936 71.2877 5 76.3854 5H91.0185C96.1158 5 98.7606 5.59993 100.579 7.59591C101.765 8.9368 102.482 10.3323 102.482 14.3834V25.6183ZM90.6578 27.6149C92.6154 27.6149 93.3058 27.5006 93.7741 27.0735C94.2143 26.6743 94.4081 26.1608 94.4081 24.4486V15.552C94.4081 13.8403 94.2143 13.3297 93.7741 12.9288C93.3058 12.5006 92.6154 12.3874 90.6578 12.3874H76.7441C74.7869 12.3874 74.0969 12.5006 73.6294 12.9288C73.1884 13.3297 72.9954 13.8409 72.9954 15.552V24.4486C72.9954 26.1602 73.1876 26.6743 73.6294 27.0735C74.0969 27.5006 74.7869 27.6149 76.7441 27.6149H90.6578ZM114.936 5.48563V34.6298H105.982V5.48563H114.936ZM130.065 5.48563H141.887L125.932 19.118L143.927 34.6298H131.277L114.936 19.4302L130.065 5.48563ZM145.579 5.48563H154.537V34.6298H145.579V5.48563ZM188.681 34.6298L186.031 29.5528H168.702L166.084 34.6298H156.191L172.064 5.48506H183.196L199.069 34.6298H188.681ZM171.814 23.2226H182.949L177.38 12.6712L171.814 23.2226Z" fill="white"/>
</g>
</svg>
