<svg width="220" height="40" viewBox="0 0 220 40" fill="none" xmlns="http://www.w3.org/2000/svg">
<path d="M54.133 28.2402C54.0764 28.1569 54.133 28.0389 54.133 27.9417V12.2804C54.133 12.1207 54.1894 12.0861 54.3214 12.1833C54.9059 12.6137 55.5222 13.0094 56.1381 13.3912C57.7514 14.3762 59.4326 15.2189 61.1661 15.9111C62.3037 16.3623 63.4748 16.7014 64.6664 16.9246C65.1881 17.0149 65.7225 17.0843 66.2567 17.1329C66.6275 17.1329 66.9985 17.1884 67.3756 17.1884H67.5076C68.3052 17.174 69.0977 17.0433 69.8644 16.7997C70.4906 16.6021 71.074 16.2656 71.5787 15.8109C72.0833 15.3562 72.4985 14.7927 72.7994 14.1548C73.1581 13.3821 73.39 12.5454 73.4844 11.6834C73.5546 11.0988 73.5903 10.5098 73.5912 9.92015C73.5912 9.53834 73.5916 9.14956 73.5476 8.76775C73.4761 7.42438 73.1461 6.11331 72.5797 4.92188C72.2534 4.26007 71.7982 3.68635 71.2472 3.24192C70.6648 2.76563 69.9762 2.4729 69.2549 2.39497C68.8254 2.33015 68.3895 2.33015 67.9599 2.39497C67.5673 2.47285 67.1982 2.65646 66.8852 2.92952C66.2963 3.43793 65.8905 4.16155 65.7411 4.97048C65.7094 5.20025 65.6931 5.43225 65.6914 5.66468C65.6929 5.89712 65.7091 6.12914 65.7411 6.35888C65.7498 6.42741 65.7648 6.49482 65.7853 6.56019C65.8293 6.87258 65.7856 6.94202 65.484 6.96979H65.3201C65.091 6.97141 64.8678 6.89214 64.6824 6.74353C64.497 6.59492 64.3592 6.38474 64.2896 6.14368C64.2236 5.96819 64.1793 5.78376 64.1576 5.59528C64.1325 5.37886 64.1202 5.1609 64.1202 4.94272C64.1258 3.82347 64.4749 2.73946 65.1108 1.86804C65.7467 0.996632 66.6315 0.3894 67.6205 0.145756C67.9912 0.0489624 68.3707 6.77338e-05 68.7517 5.63216e-07C69.5067 -0.000374975 70.2525 0.187054 70.933 0.548406C71.9297 1.04877 72.8169 1.78037 73.5347 2.69347C73.9273 3.14551 74.2427 3.67239 74.4652 4.24852C74.5092 4.38042 74.559 4.37348 74.6407 4.24852C74.8607 3.90142 75.0744 3.55428 75.2692 3.21412C75.7365 2.54474 76.2869 1.9512 76.9037 1.45086C77.7355 0.767057 78.7106 0.327588 79.7381 0.173551C80.0081 0.123722 80.2812 0.0981521 80.555 0.0971568C81.3052 0.0984216 82.0454 0.290844 82.7173 0.65946C83.3204 0.987248 83.8463 1.46499 84.2542 2.0552C84.662 2.6454 84.9402 3.332 85.0674 4.06107C85.166 4.51747 85.166 4.99308 85.0674 5.44948C85.0176 5.68195 84.9265 5.90114 84.7992 6.09424C84.6719 6.28733 84.511 6.45045 84.326 6.57408C84.1563 6.68516 84.0938 6.66434 84.0246 6.45608C83.9648 6.29079 83.9143 6.12151 83.8736 5.94928C83.7548 5.42718 83.6097 4.91271 83.4397 4.40817C83.2748 3.9361 83.0437 3.49567 82.7547 3.10307C82.5353 2.80225 82.2581 2.55948 81.9427 2.39251C81.6273 2.22554 81.2822 2.1386 80.9325 2.13812H80.7625C80.0413 2.13542 79.3295 2.3185 78.6836 2.67279C78.0377 3.02708 77.4757 3.54282 77.0418 4.17908C76.4106 5.09257 75.9977 6.16689 75.8413 7.30299C75.7709 7.80837 75.7352 8.31892 75.7345 8.83025C75.7333 9.2293 75.7541 9.62804 75.7971 10.0243C75.868 10.6945 75.984 11.3582 76.1432 12.0097C76.3582 12.8746 76.6862 13.7002 77.1173 14.4602C77.5092 15.1657 78.0305 15.773 78.6474 16.2428C79.2644 16.7126 79.9635 17.0347 80.6998 17.1884C81.1909 17.2912 81.6897 17.3423 82.1895 17.3412C82.4603 17.3423 82.7311 17.3261 83.0002 17.2926C84.3117 17.1305 85.5995 16.7877 86.8338 16.2721C87.4623 16.0222 88.0908 15.8 88.7193 15.5779C90.5336 14.8669 92.2619 13.9134 93.8664 12.7386C94.1429 12.5373 94.4069 12.3082 94.6771 12.1C94.6887 12.0899 94.7025 12.0834 94.717 12.0813C94.7316 12.0792 94.7465 12.0814 94.76 12.0878C94.7735 12.0942 94.7857 12.1045 94.7944 12.1177C94.803 12.1308 94.8077 12.1462 94.8091 12.1624V27.2266C94.8091 27.4002 94.8659 27.5807 94.7465 27.7334C94.5831 27.7334 94.4887 27.5945 94.3568 27.5112C92.8624 26.4096 91.3069 25.4126 89.6995 24.5262C88.954 24.1156 88.1809 23.7698 87.3868 23.4918C86.7983 23.3183 86.2001 23.1884 85.5959 23.1031C85.0723 23.034 84.5451 22.9992 84.0179 22.9989H83.7981C83.3065 23.002 82.8155 23.0368 82.3276 23.1031C81.7224 23.1927 81.1254 23.339 80.5427 23.5404C79.5873 23.8612 78.7154 24.431 78.0011 25.2018C77.2869 25.9726 76.751 26.9219 76.4385 27.9694C76.201 28.7546 76.0467 29.5677 75.9794 30.3922C75.9393 30.7445 75.9185 31.0992 75.9168 31.4543C75.9168 31.5515 75.9168 31.6557 75.9168 31.7528C75.9443 32.9616 76.1724 34.1545 76.5895 35.2725C76.8032 35.8228 77.1078 36.3242 77.488 36.7511C78.0459 37.3503 78.7744 37.7182 79.5496 37.7924C79.7333 37.8145 79.9179 37.8261 80.1027 37.8271C80.4023 37.8261 80.701 37.7935 80.9951 37.7299C81.4777 37.6271 81.9287 37.3911 82.3067 37.044C82.6847 36.6969 82.9777 36.2499 83.1574 35.7445C83.382 35.1578 83.5157 34.5336 83.5532 33.8979C83.5532 33.7382 83.5532 33.5716 83.5532 33.412C83.5532 33.2523 83.5532 33.0926 83.5532 32.933C83.5532 32.7733 83.5972 32.5928 83.792 32.5442C83.9151 32.4964 84.0445 32.4729 84.175 32.4748H84.2321C84.7851 32.5581 85.0549 32.8011 85.0926 33.4467C85.0926 33.5508 85.0926 33.6549 85.0926 33.7591C85.0906 34.1426 85.0634 34.5254 85.0109 34.9045C84.9336 35.6455 84.7604 36.3702 84.496 37.0565C84.1822 37.8675 83.6788 38.5719 83.0377 39.0975C82.541 39.4873 81.9719 39.7505 81.3719 39.8681C80.4615 40.0634 79.5225 40.0158 78.6321 39.7292C77.5559 39.3878 76.6083 38.672 75.9297 37.6883C75.5774 37.1835 75.2896 36.6275 75.0747 36.0361C75.0497 35.9589 75.0179 35.8845 74.9802 35.8139C74.9639 35.8076 74.9461 35.8076 74.9298 35.8139C74.9156 35.8081 74.9004 35.8081 74.8863 35.8139C74.8423 35.8833 74.8104 35.9597 74.7727 36.0291C74.3421 36.8258 73.8133 37.5524 73.2015 38.1881C72.4882 38.9258 71.6266 39.4659 70.6875 39.7639C70.1824 39.9218 69.6601 40.0012 69.1353 40C68.8768 39.999 68.6189 39.9805 68.3625 39.9444C67.8688 39.8807 67.3849 39.7453 66.9232 39.5418C66.381 39.2937 65.891 38.9236 65.4852 38.4551C65.0794 37.9866 64.7668 37.4299 64.5664 36.8205C64.314 36.0696 64.184 35.2751 64.1828 34.4741C64.1818 34.1512 64.2026 33.8286 64.2454 33.5092C64.2392 33.3576 64.2522 33.2058 64.2834 33.058C64.2963 32.8679 64.3723 32.6898 64.497 32.5581C64.5216 32.5283 64.5518 32.5049 64.5854 32.4893C64.6191 32.4737 64.6551 32.4664 64.6916 32.4679C64.7266 32.4575 64.7634 32.4575 64.7984 32.4679C64.9112 32.5282 65.0086 32.6189 65.0813 32.7317C65.2393 32.9931 65.3444 33.2891 65.3894 33.5994C65.446 33.9951 65.5212 34.3978 65.6092 34.7865C65.7514 35.3768 65.9765 35.9389 66.2757 36.4526C66.5047 36.8612 66.8118 37.2097 67.1755 37.4735C67.5392 37.7373 67.9504 37.9101 68.3809 37.9798C68.5504 37.9936 68.7209 37.9936 68.8904 37.9798C69.278 37.9808 69.6632 37.9177 70.0338 37.7924C71.0547 37.4668 71.9315 36.7379 72.4975 35.7445C73.0502 34.7956 73.409 33.7246 73.5476 32.6067C73.6052 32.1606 73.6344 31.7106 73.6354 31.2599C73.6354 30.9406 73.6352 30.6213 73.5912 30.3019C73.5029 29.4218 73.2908 28.5622 72.9627 27.7542C72.5311 26.5955 71.8895 25.5466 71.0772 24.672C70.1421 23.6761 68.9768 22.9843 67.7089 22.6727C67.1402 22.5257 66.5578 22.4512 65.9738 22.4505H65.8295C65.3445 22.4644 64.8613 22.5201 64.3841 22.6171C63.1733 22.8597 61.9974 23.2824 60.8893 23.8736C58.9375 24.8675 57.0479 26.0039 55.2328 27.2752C54.8531 27.5338 54.4919 27.8239 54.152 28.143C53.8126 28.4554 54.1521 28.2332 54.1207 28.2054L54.133 28.2402ZM76.0487 21.0482C76.1039 20.8551 76.1314 20.6537 76.1304 20.4512C76.1304 20.3748 76.1304 20.2915 76.1304 20.2082C76.1304 20.1249 76.1305 20.0486 76.2813 20.0416H78.6321C78.6549 20.04 78.676 20.0292 78.6922 20.0113C78.7084 19.9935 78.7184 19.9697 78.7198 19.9444C78.6636 19.4028 78.505 18.8801 78.2546 18.4102C77.9279 17.7565 77.4484 17.2119 76.8656 16.8333C76.2829 16.4547 75.6188 16.2561 74.9427 16.2582H74.8108C74.2881 16.2606 73.7716 16.3855 73.296 16.6249C72.8203 16.8643 72.3959 17.2125 72.0513 17.6466C71.4392 18.3484 71.0728 19.2672 71.0165 20.2396C70.9601 21.212 71.2178 22.175 71.7438 22.9573C72.0809 23.5069 72.5349 23.9566 73.0664 24.2665C73.598 24.5764 74.1907 24.7371 74.7917 24.7344C75.0643 24.7337 75.3361 24.7012 75.6025 24.6373C76.3235 24.5111 76.9945 24.1516 77.5304 23.6041C78.0662 23.0567 78.443 22.346 78.613 21.5619C78.7073 21.201 78.613 21.2079 78.3804 21.2079H76.382C76.2609 21.2055 76.1431 21.1645 76.0426 21.0899L76.0487 21.0482Z" fill="white"/>
<path d="M107.114 14.1407V20.9786C107.114 21.0758 107.114 21.1869 107.114 21.2841C107.115 21.7924 107.145 22.3001 107.203 22.8044C107.239 23.114 107.318 23.4158 107.435 23.6999C107.531 23.9447 107.677 24.161 107.863 24.3311C108.049 24.5013 108.268 24.6204 108.503 24.6787C108.899 24.7999 109.306 24.8766 109.717 24.9078H109.861C109.917 24.9145 109.969 24.9412 110.01 24.9838C110.051 25.0265 110.078 25.0826 110.087 25.1438C110.087 25.1438 110.087 25.1438 110.087 25.1855C110.087 25.247 110.07 25.3071 110.039 25.3578C110.007 25.4086 109.963 25.4477 109.911 25.4701C109.83 25.5174 109.739 25.5413 109.647 25.5395H109.251C108.623 25.4701 108.051 25.4701 107.46 25.4632C106.499 25.4632 105.575 25.4076 104.582 25.4632C104.183 25.4691 103.784 25.4992 103.387 25.5534H102.652C102.605 25.5391 102.562 25.5097 102.53 25.469C102.498 25.4283 102.477 25.378 102.47 25.3243V25.2896C102.47 25.2475 102.479 25.206 102.496 25.1685C102.514 25.1311 102.539 25.0988 102.57 25.0744C102.647 25.0069 102.738 24.9616 102.834 24.9425C102.934 24.9312 103.033 24.9102 103.13 24.88C103.415 24.8152 103.683 24.6745 103.908 24.4701C104.134 24.2657 104.311 24.0038 104.425 23.7068C104.557 23.3406 104.649 22.9585 104.701 22.5683C104.821 21.6766 104.882 20.7764 104.883 19.8748V9.04526C104.882 8.29863 104.846 7.55256 104.776 6.80995C104.739 6.51838 104.689 6.22681 104.638 5.93525C104.59 5.70108 104.492 5.48301 104.352 5.29939C104.212 5.11577 104.034 4.97196 103.834 4.88004C103.5 4.7266 103.149 4.62384 102.79 4.57459C102.718 4.58071 102.645 4.56886 102.577 4.53989C102.519 4.53006 102.467 4.49818 102.429 4.4499C102.391 4.40161 102.37 4.34003 102.369 4.27609C102.37 4.21404 102.388 4.15363 102.419 4.10199C102.45 4.05034 102.494 4.00961 102.545 3.98454C102.665 3.92901 102.793 3.90067 102.922 3.90124H103.017C103.228 3.89124 103.44 3.9146 103.645 3.97064C104.236 4.07355 104.832 4.1246 105.43 4.12334C105.788 4.12334 106.153 4.12337 106.511 4.06784C107.259 4.00536 108.001 3.94288 108.749 3.89429C108.956 3.89429 109.17 3.89429 109.377 3.89429C110.363 3.89671 111.343 4.05808 112.287 4.37329C113.094 4.67051 113.84 5.14251 114.481 5.7617C114.989 6.21684 115.398 6.79135 115.68 7.44343C115.961 8.09552 116.108 8.80875 116.108 9.53121V9.66311C116.106 10.3103 116.017 10.9536 115.844 11.5722C115.54 12.6022 114.962 13.507 114.185 14.1685C113.384 14.9077 112.432 15.4204 111.412 15.6623C110.391 15.9042 109.333 15.868 108.328 15.5569C108.157 15.5125 107.995 15.4349 107.849 15.3278C107.821 15.3074 107.798 15.2797 107.781 15.247C107.765 15.2144 107.756 15.1778 107.756 15.1404C107.766 15.1024 107.785 15.0681 107.812 15.0412C107.839 15.0144 107.871 14.9959 107.907 14.9876C107.969 14.9772 108.032 14.9772 108.095 14.9876C108.155 14.977 108.217 14.977 108.277 14.9876C108.65 15.0654 109.029 15.1049 109.408 15.1056C109.902 15.1046 110.394 15.037 110.873 14.9043C111.601 14.7171 112.267 14.3082 112.796 13.7242C113.371 13.1013 113.745 12.2864 113.858 11.4056C113.901 11.1211 113.922 10.8331 113.921 10.5447C113.919 10.0593 113.86 9.57632 113.745 9.10776C113.503 8.14401 113.001 7.28445 112.306 6.6433C111.451 5.83771 110.403 5.3219 109.289 5.15774C108.937 5.10237 108.582 5.07453 108.227 5.07444H108C107.865 5.07767 107.73 5.09862 107.598 5.1369C107.495 5.16606 107.401 5.22625 107.327 5.31079C107.252 5.39532 107.201 5.50092 107.177 5.6159C107.141 5.78902 107.119 5.96577 107.114 6.1435V14.3004V14.1407Z" fill="white"/>
<path d="M148.086 22.5408C147.998 22.5825 147.979 22.6797 147.935 22.756C147.628 23.3464 147.249 23.8882 146.81 24.3666C146.304 24.9166 145.675 25.3093 144.988 25.5051C144.689 25.5937 144.38 25.6381 144.07 25.637C143.845 25.6383 143.619 25.615 143.398 25.5675C142.768 25.4457 142.204 25.0634 141.82 24.4985C141.439 23.9305 141.204 23.2586 141.141 22.5547C141.102 22.1861 141.08 21.8152 141.078 21.444C141.082 19.8667 141.455 18.3173 142.16 16.9455C142.625 15.9864 143.226 15.1147 143.938 14.3631C144.516 13.7441 145.209 13.2705 145.968 12.9747C146.371 12.813 146.796 12.7285 147.225 12.7248C147.721 12.7227 148.213 12.8313 148.67 13.0441L148.815 13.1066C149.123 13.2454 149.129 13.3357 149.186 12.8428C149.287 11.864 149.412 10.8851 149.525 9.90631C149.607 9.17045 149.695 8.42766 149.777 7.6918L150.041 5.39399C150.034 5.16153 150.048 4.92886 150.085 4.69979C150.083 4.60812 150.056 4.51927 150.006 4.44577C149.956 4.37228 149.887 4.31787 149.808 4.29023C149.678 4.23515 149.539 4.20692 149.4 4.20693H148.551C148.438 4.207 148.325 4.18586 148.218 4.14443C148.13 4.09584 148.067 4.04725 148.055 3.93618C148.054 3.88598 148.065 3.83639 148.087 3.7925C148.109 3.74861 148.142 3.71199 148.181 3.68628C148.275 3.62145 148.384 3.5855 148.495 3.58213L149.425 3.50578C149.958 3.4645 150.49 3.38799 151.015 3.27668C151.199 3.23605 151.386 3.21284 151.574 3.20728C151.775 3.20728 151.876 3.29749 151.882 3.51963C151.889 3.74178 151.882 3.79038 151.882 3.92228C151.744 5.11631 151.599 6.31731 151.467 7.50439C151.354 8.49016 151.248 9.46898 151.141 10.4478C151.034 11.4266 150.908 12.4124 150.801 13.3912C150.695 14.37 150.587 15.3489 150.474 16.3277C150.386 17.1052 150.292 17.8827 150.21 18.6672C150.097 19.646 149.99 20.6179 149.896 21.6106V22.7144C149.895 22.9528 149.937 23.1891 150.022 23.4086C150.06 23.5355 150.133 23.6461 150.231 23.7245C150.329 23.803 150.448 23.8455 150.569 23.8459H150.701C150.933 23.8187 151.152 23.7147 151.329 23.5474C151.6 23.3131 151.83 23.026 152.008 22.7005C152.115 22.513 152.209 22.3256 152.322 22.1382C152.372 22.0475 152.43 21.9636 152.498 21.8883C152.533 21.8485 152.579 21.8213 152.628 21.8101C152.677 21.799 152.728 21.8044 152.775 21.8258C152.809 21.8453 152.838 21.8752 152.858 21.912C152.878 21.9488 152.888 21.9911 152.888 22.0341C152.882 22.2939 152.826 22.5495 152.724 22.7838C152.368 23.6421 151.837 24.3978 151.172 24.9914C150.776 25.3518 150.278 25.5482 149.764 25.5467H149.576C149.345 25.5455 149.12 25.4645 148.933 25.3151C148.746 25.1657 148.606 24.9554 148.532 24.7137C148.401 24.3337 148.312 23.9373 148.268 23.5335C148.231 23.2697 148.206 22.999 148.181 22.7352C148.118 22.7352 148.111 22.6449 148.055 22.6241L148.086 22.5408ZM147.357 13.3426H147.238C146.598 13.3431 145.979 13.5884 145.484 14.0368C144.873 14.5531 144.368 15.206 144.001 15.9528C143.671 16.6167 143.399 17.3141 143.19 18.0354C142.931 18.883 142.779 19.766 142.738 20.6595C142.738 20.7567 142.738 20.8539 142.738 20.9511C142.738 21.505 142.825 22.0546 142.996 22.5755C143.109 22.9047 143.282 23.2047 143.504 23.4572C143.67 23.6529 143.871 23.8087 144.094 23.915C144.316 24.0213 144.556 24.0758 144.799 24.075H144.862C145.522 24.0832 146.164 23.8378 146.678 23.3808C147.268 22.8362 147.719 22.13 147.985 21.3329C148.2 20.7133 148.348 20.0679 148.426 19.41C148.589 18.1187 148.733 16.8345 148.878 15.5502C148.916 15.2586 148.947 14.981 148.959 14.6963C148.959 14.6547 148.959 14.6061 148.959 14.5644C148.958 14.3039 148.876 14.0517 148.726 13.8507C148.576 13.6496 148.368 13.5118 148.136 13.4606C147.918 13.4033 147.694 13.373 147.47 13.3704L147.357 13.3426Z" fill="white"/>
<path d="M135.335 22.5337L135.152 22.8669C134.844 23.4263 134.473 23.9396 134.046 24.3942C133.547 24.9351 132.926 25.3207 132.249 25.5119C131.953 25.5948 131.649 25.6368 131.344 25.6368C131.114 25.6382 130.884 25.6149 130.658 25.5674C130.03 25.4422 129.468 25.0575 129.087 24.4914C128.714 23.934 128.48 23.2781 128.409 22.5893C128.369 22.216 128.348 21.8405 128.346 21.4647C128.348 19.8532 128.734 18.2707 129.465 16.876C129.924 15.9425 130.514 15.0944 131.212 14.363C131.787 13.7388 132.48 13.2644 133.242 12.9745C133.645 12.8121 134.07 12.7276 134.499 12.7246C134.995 12.7226 135.487 12.8312 135.944 13.044L136.152 13.1342L136.353 13.2175C136.435 13.162 136.428 13.0787 136.441 13.0023L136.761 10.1006C136.906 8.89961 137.044 7.71249 137.183 6.51846C137.233 6.06029 137.289 5.60906 137.333 5.13006C137.333 5.06064 137.333 4.99123 137.333 4.92181C137.333 4.85239 137.333 4.78992 137.333 4.7205C137.333 4.62602 137.306 4.53392 137.257 4.45687C137.207 4.37982 137.138 4.32159 137.057 4.2901C136.931 4.23516 136.797 4.2069 136.661 4.2068H135.818C135.71 4.20666 135.603 4.19268 135.498 4.16515C135.397 4.11655 135.316 4.06795 135.316 3.93605C135.313 3.92463 135.313 3.91276 135.316 3.90135C135.315 3.84592 135.33 3.79153 135.358 3.74559C135.386 3.69966 135.426 3.66439 135.473 3.6445C135.572 3.588 135.682 3.55489 135.794 3.5473C136.347 3.50564 136.887 3.46397 137.434 3.39455C137.83 3.34596 138.226 3.26267 138.609 3.2002H138.886C138.953 3.2002 139.016 3.22943 139.063 3.2815C139.11 3.33358 139.137 3.40421 139.137 3.47785C139.137 3.54727 139.137 3.62363 139.137 3.69305C139.137 3.76247 139.137 3.84578 139.137 3.9152C138.992 5.21336 138.848 6.49764 138.704 7.78192C138.559 9.0662 138.421 10.2047 138.283 11.4057C138.144 12.6067 138.012 13.8215 137.874 15.0364C137.736 16.2512 137.597 17.4452 137.459 18.6601C137.352 19.5695 137.252 20.4859 137.164 21.3814C137.164 21.6868 137.126 21.9992 137.126 22.3046C137.126 22.4504 137.126 22.5962 137.126 22.742C137.132 22.9445 137.17 23.1442 137.239 23.3321C137.282 23.4771 137.366 23.6025 137.48 23.6891C137.593 23.7757 137.73 23.8185 137.868 23.8111C137.924 23.8212 137.981 23.8212 138.037 23.8111C138.233 23.7597 138.416 23.66 138.572 23.5195C138.838 23.2814 139.065 22.995 139.244 22.6726C139.357 22.4713 139.464 22.27 139.577 22.0756C139.628 21.9658 139.707 21.8743 139.803 21.8118C139.841 21.8009 139.879 21.8009 139.916 21.8118C139.97 21.8116 140.022 21.8335 140.061 21.8734C140.101 21.9132 140.125 21.9681 140.13 22.027C140.138 22.11 140.138 22.1938 140.13 22.2769C140.086 22.541 140.005 22.7962 139.891 23.0336C139.589 23.6623 139.201 24.2359 138.741 24.7343C138.564 24.9233 138.368 25.0888 138.157 25.2272C137.814 25.4583 137.42 25.5808 137.019 25.5813C136.933 25.5882 136.847 25.5882 136.761 25.5813C136.555 25.5701 136.357 25.4933 136.19 25.3603C136.022 25.2273 135.893 25.0436 135.818 24.8315C135.686 24.4696 135.592 24.0924 135.536 23.7069C135.498 23.4293 135.473 23.1377 135.441 22.8531C135.441 22.749 135.442 22.6587 135.329 22.6101L135.335 22.5337ZM134.65 13.3425H134.568C134.117 13.3401 133.671 13.4617 133.273 13.6965C132.955 13.8841 132.662 14.1176 132.4 14.3907C131.886 14.9118 131.46 15.5301 131.143 16.2165C130.5 17.5449 130.113 19.0054 130.005 20.5067C130.005 20.6525 130.005 20.7913 130.005 20.9301C130.004 21.3326 130.049 21.7336 130.137 22.1242C130.234 22.6189 130.451 23.075 130.766 23.4431C130.931 23.6526 131.133 23.8223 131.36 23.9417C131.587 24.0611 131.834 24.1277 132.085 24.1373H132.148C132.838 24.1443 133.508 23.8756 134.033 23.3807C134.578 22.8849 135 22.2448 135.259 21.5202C135.515 20.8144 135.687 20.0746 135.769 19.3196C135.919 18.07 136.066 16.8251 136.208 15.5848C136.208 15.3071 136.277 15.0433 136.29 14.7726C136.293 14.7217 136.293 14.6707 136.29 14.6198C136.288 14.3556 136.205 14.1001 136.053 13.8964C135.9 13.6927 135.689 13.5534 135.454 13.5021C135.205 13.4229 134.947 13.3785 134.687 13.3702L134.65 13.3425Z" fill="white"/>
<path d="M161.178 22.1795C161.076 22.2646 160.991 22.3707 160.926 22.4919C160.47 23.136 159.947 23.7185 159.368 24.2274C158.782 24.7609 158.11 25.1661 157.388 25.4214C156.98 25.5595 156.557 25.632 156.131 25.6366H156.049C155.744 25.6333 155.442 25.5586 155.165 25.4175C154.888 25.2763 154.641 25.0718 154.44 24.8175C154.113 24.3968 153.896 23.8856 153.812 23.3388C153.762 23.0272 153.736 22.7112 153.736 22.3947C153.736 22.1811 153.749 21.9678 153.774 21.756C153.927 20.296 154.332 18.8819 154.968 17.5908C155.377 16.7061 155.884 15.8807 156.476 15.1333C156.91 14.5914 157.4 14.1068 157.934 13.6894C158.436 13.3024 158.996 13.0158 159.587 12.8425C159.953 12.7396 160.329 12.6883 160.706 12.6897C161.086 12.6883 161.464 12.7396 161.831 12.8425C162.014 12.8911 162.195 12.9466 162.371 13.0091C162.47 13.0505 162.574 13.0717 162.68 13.0715C162.808 13.0732 162.934 13.0413 163.049 12.9786C163.164 12.9158 163.263 12.824 163.339 12.7106C163.507 12.4899 163.662 12.258 163.805 12.0164C163.893 11.8914 163.974 11.7525 164.062 11.6345C164.111 11.5644 164.179 11.5153 164.257 11.4957C164.288 11.4945 164.319 11.503 164.345 11.5202C164.372 11.5374 164.394 11.5626 164.408 11.5929C164.433 11.6539 164.446 11.7202 164.446 11.7873C164.446 11.8565 164.432 11.9249 164.408 11.9886C164.288 12.5787 164.169 13.1757 164.043 13.7727C163.71 15.4179 163.415 17.084 163.252 18.7571C163.151 19.6179 163.044 20.4787 163.007 21.3395C163.007 21.4575 163.007 21.5755 163.007 21.6866C163.008 22.099 163.043 22.5103 163.113 22.9153C163.142 23.0625 163.193 23.2033 163.264 23.3319C163.296 23.3933 163.341 23.4444 163.396 23.4798C163.452 23.5152 163.515 23.5336 163.579 23.5332C163.64 23.5346 163.701 23.5178 163.754 23.4846C163.902 23.4129 164.036 23.3117 164.15 23.1861C164.491 22.8311 164.771 22.4099 164.974 21.9435C165.037 21.8185 165.099 21.6797 165.168 21.5547C165.218 21.4745 165.291 21.4157 165.376 21.3881H165.445C165.497 21.3886 165.547 21.4089 165.588 21.4456C165.628 21.4822 165.655 21.533 165.665 21.5894C165.671 21.6818 165.671 21.7747 165.665 21.8671C165.671 21.9596 165.671 22.0523 165.665 22.1448C165.596 22.4339 165.492 22.7117 165.357 22.9709C164.916 23.7595 164.347 24.4515 163.679 25.0118C163.475 25.1937 163.243 25.3326 162.994 25.4214C162.882 25.472 162.763 25.498 162.642 25.4978C162.466 25.4973 162.293 25.439 162.146 25.3303C162 25.2216 161.886 25.0672 161.818 24.8869C161.712 24.6418 161.634 24.3829 161.586 24.1163C161.454 23.5263 161.366 22.9292 161.284 22.3183C161.24 22.3183 161.284 22.2489 161.178 22.2142V22.1795ZM155.521 21.6866C155.521 21.7283 155.521 21.7699 155.521 21.8116C155.52 22.1044 155.554 22.3962 155.622 22.6793C155.679 22.9891 155.812 23.275 156.009 23.5045C156.206 23.7341 156.457 23.8979 156.734 23.9775C156.951 24.0413 157.176 24.074 157.401 24.0747C157.511 24.0852 157.622 24.0852 157.733 24.0747C158.14 24.0122 158.531 23.8536 158.877 23.6095C159.848 22.9199 160.613 21.93 161.077 20.7633C161.187 20.4909 161.266 20.2039 161.31 19.9095C161.32 19.6939 161.349 19.48 161.397 19.2708C161.598 17.8824 161.862 16.5495 162.158 15.1888C162.213 14.9613 162.251 14.7291 162.271 14.4946V14.4461C162.271 14.3453 162.25 14.2458 162.211 14.1547C162.172 14.0636 162.115 13.983 162.045 13.9185C161.93 13.814 161.806 13.7233 161.674 13.6477C161.329 13.4575 160.948 13.3577 160.561 13.3562C160.362 13.3561 160.164 13.3841 159.971 13.4395C159.51 13.5631 159.08 13.8004 158.714 14.1337C158.107 14.6505 157.593 15.2886 157.199 16.0149C156.666 16.9761 156.244 18.0069 155.942 19.0834C155.681 19.9454 155.543 20.8471 155.533 21.756L155.521 21.6866Z" fill="white"/>
<path d="M114.971 22.3671C114.995 21.2818 115.186 20.2089 115.537 19.1946C116.006 17.7603 116.699 16.4281 117.585 15.2585C118.042 14.6481 118.576 14.1128 119.169 13.6688C119.667 13.2797 120.225 12.995 120.816 12.8288C121.166 12.7373 121.524 12.6907 121.884 12.69C122.285 12.6886 122.685 12.747 123.072 12.8635L123.575 13.0162C123.67 13.0454 123.766 13.064 123.864 13.0718H123.965C124.106 13.0727 124.242 13.0158 124.348 12.9121C124.527 12.7466 124.686 12.5551 124.819 12.3429C124.939 12.1693 125.045 11.9819 125.159 11.8014C125.221 11.6838 125.31 11.5858 125.416 11.5167C125.443 11.5104 125.471 11.5104 125.498 11.5167C125.539 11.5143 125.58 11.5284 125.612 11.5565C125.645 11.5846 125.667 11.6248 125.674 11.6695C125.677 11.718 125.677 11.7667 125.674 11.8152C125.672 11.9165 125.657 12.0169 125.63 12.1138C125.379 13.2592 125.159 14.4116 124.952 15.5848C124.788 16.5289 124.656 17.473 124.537 18.431C124.417 19.389 124.335 20.1734 124.266 21.0481C124.266 21.2495 124.266 21.4439 124.266 21.6452C124.266 22.0262 124.291 22.4067 124.342 22.7837C124.359 22.9456 124.401 23.1031 124.468 23.2488C124.484 23.3437 124.53 23.4292 124.598 23.4902C124.665 23.5512 124.751 23.5837 124.838 23.582C124.931 23.5832 125.021 23.546 125.09 23.4779C125.22 23.3945 125.339 23.2943 125.448 23.1794C125.778 22.8311 126.049 22.4195 126.246 21.9645C126.296 21.8392 126.355 21.7186 126.422 21.6035C126.463 21.537 126.519 21.4842 126.586 21.4508C126.623 21.4399 126.661 21.4399 126.699 21.4508C126.753 21.4502 126.807 21.4717 126.848 21.5113C126.89 21.5509 126.917 21.6059 126.925 21.666C126.931 21.7399 126.931 21.8142 126.925 21.8881C126.932 21.962 126.932 22.0364 126.925 22.1103C126.857 22.4547 126.736 22.7835 126.567 23.0822C126.138 23.8332 125.598 24.4995 124.97 25.0537C124.757 25.2458 124.515 25.3939 124.254 25.4911C124.137 25.5488 124.011 25.5795 123.883 25.5813C123.702 25.581 123.526 25.5197 123.377 25.4055C123.229 25.2914 123.116 25.1299 123.053 24.9427C122.921 24.6224 122.827 24.2838 122.777 23.9361C122.689 23.4501 122.62 22.9503 122.545 22.4574V22.3394C122.545 22.321 122.538 22.3033 122.526 22.2903C122.514 22.2773 122.498 22.2699 122.481 22.2699C122.474 22.2657 122.465 22.2635 122.456 22.2635C122.447 22.2635 122.439 22.2657 122.431 22.2699L122.192 22.5754C121.682 23.2946 121.085 23.9344 120.42 24.4775C119.818 24.993 119.125 25.36 118.384 25.5536C118.093 25.6425 117.793 25.6869 117.491 25.6855C117.296 25.6842 117.1 25.6656 116.907 25.6299C116.466 25.5449 116.064 25.3007 115.763 24.9357C115.311 24.3915 115.048 23.6881 115.021 22.9503C114.997 22.7639 114.983 22.5762 114.977 22.388L114.971 22.3671ZM116.813 21.5966V21.784C116.812 22.1854 116.871 22.5842 116.988 22.9641C117.06 23.1913 117.178 23.3974 117.332 23.567C117.487 23.7365 117.675 23.8651 117.881 23.943C118.139 24.0452 118.411 24.0969 118.685 24.0957C118.784 24.1028 118.883 24.1028 118.981 24.0957C119.523 24.0154 120.035 23.7756 120.464 23.4015C120.943 23.0107 121.367 22.5427 121.721 22.0131C122.226 21.3252 122.548 20.4961 122.651 19.6181C122.643 19.4678 122.66 19.3172 122.702 19.1738C122.915 17.8548 123.162 16.5451 123.443 15.2446C123.493 15.0225 123.531 14.7934 123.562 14.5504C123.565 14.5204 123.565 14.4901 123.562 14.4602C123.561 14.3536 123.538 14.2487 123.495 14.1536C123.451 14.0585 123.388 13.9757 123.311 13.9118C123.206 13.8158 123.092 13.7321 122.972 13.6619C122.627 13.4687 122.245 13.3687 121.859 13.3703C121.66 13.3709 121.462 13.3965 121.269 13.4467C120.722 13.5917 120.218 13.888 119.804 14.3075C119.284 14.7917 118.838 15.3661 118.485 16.0083C117.955 16.9441 117.532 17.9491 117.228 19.0003C116.978 19.8229 116.835 20.6809 116.806 21.548L116.813 21.5966Z" fill="white"/>
<path d="M133.996 28.4136H101.515C101.414 28.4136 101.376 28.365 101.376 28.2678C101.373 28.2449 101.375 28.2215 101.382 28.1994C101.388 28.1773 101.399 28.1572 101.414 28.1405C101.428 28.1237 101.446 28.1109 101.466 28.1029C101.486 28.0949 101.506 28.0919 101.527 28.0943H166.564C166.646 28.0943 166.684 28.1568 166.684 28.2678C166.684 28.3789 166.646 28.4067 166.552 28.4136H133.996Z" fill="white"/>
<path d="M159.167 36.1052C159.165 36.5488 159.264 36.9857 159.456 37.3756C159.601 37.6744 159.817 37.924 160.08 38.0976C160.344 38.2713 160.645 38.3624 160.952 38.3613C161.197 38.3634 161.44 38.3041 161.662 38.1878C161.881 38.0882 162.072 37.9251 162.215 37.7157C162.36 37.5095 162.467 37.2736 162.529 37.0215C162.54 36.972 162.566 36.928 162.603 36.8965C162.639 36.8651 162.684 36.848 162.73 36.848C163.252 36.848 163.265 36.7786 163.064 37.3964C163.054 37.4336 163.039 37.4687 163.02 37.5005C162.885 37.8857 162.654 38.2207 162.354 38.4665C162.053 38.7123 161.695 38.8588 161.322 38.8889C161.184 38.8889 161.046 38.8889 160.901 38.8889C160.669 38.8891 160.437 38.8611 160.21 38.8056C159.694 38.6768 159.243 38.3307 158.953 37.8407C158.77 37.5371 158.639 37.1979 158.57 36.841C158.499 36.5182 158.464 36.1873 158.463 35.8553C158.461 35.4022 158.527 34.9519 158.658 34.5224C158.73 34.276 158.833 34.0422 158.966 33.8282C159.138 33.5261 159.373 33.273 159.65 33.0897C159.927 32.9063 160.24 32.7978 160.562 32.773C160.656 32.7661 160.751 32.7661 160.845 32.773C160.937 32.7662 161.03 32.7662 161.122 32.773C161.458 32.7895 161.785 32.8993 162.072 33.0922C162.36 33.2851 162.6 33.5549 162.768 33.8768C163.071 34.4374 163.231 35.0776 163.233 35.7303C163.233 35.7928 163.233 35.8553 163.233 35.9178C163.233 35.9803 163.177 36.0496 163.089 36.0566H159.136L159.167 36.1052ZM162.592 35.411C162.594 35.1163 162.538 34.8248 162.43 34.5555C162.321 34.2863 162.163 34.0454 161.964 33.849C161.674 33.5626 161.3 33.4043 160.911 33.4043C160.523 33.4043 160.147 33.5626 159.858 33.849C159.469 34.265 159.231 34.8223 159.186 35.4179C160.319 35.4839 161.454 35.4839 162.586 35.4179L162.592 35.411Z" fill="white"/>
<path d="M121.388 34.6477C121.309 34.6806 121.227 34.6971 121.143 34.6963H121.055C120.791 34.6963 120.791 34.6963 120.722 34.4116C120.681 34.2045 120.59 34.0137 120.458 33.8595C120.326 33.7054 120.158 33.5939 119.974 33.537C119.77 33.4659 119.558 33.4308 119.345 33.4328C119.132 33.4302 118.92 33.4653 118.717 33.537C118.55 33.5939 118.399 33.6966 118.277 33.8355C118.146 33.984 118.074 34.1836 118.076 34.3908C118.077 34.5128 118.103 34.633 118.152 34.7423C118.201 34.8517 118.272 34.9475 118.359 35.0225C118.528 35.1609 118.72 35.2601 118.924 35.3141L120.181 35.6334C120.476 35.7031 120.756 35.8351 121.005 36.0222C121.187 36.1593 121.336 36.3436 121.439 36.5589C121.542 36.7743 121.595 37.0143 121.595 37.2579C121.593 37.6431 121.459 38.013 121.218 38.2922C121.007 38.5278 120.745 38.7019 120.458 38.799C120.136 38.9184 119.798 38.9794 119.459 38.9795C119.174 38.976 118.892 38.934 118.617 38.8545C118.256 38.7719 117.929 38.5607 117.687 38.2535C117.446 37.9463 117.301 37.56 117.277 37.1537C117.277 36.9663 117.278 36.9385 117.441 36.9316H117.667C117.887 36.9316 117.912 36.9316 117.95 37.1884C117.979 37.4205 118.065 37.6393 118.199 37.8206C118.333 38.0019 118.51 38.1387 118.71 38.2159C118.965 38.3326 119.239 38.3917 119.515 38.3894C119.789 38.3917 120.06 38.3326 120.313 38.2159C120.475 38.1398 120.619 38.0234 120.734 37.8757C120.866 37.7221 120.938 37.5179 120.935 37.3065C120.936 37.1717 120.908 37.0386 120.853 36.918C120.799 36.7975 120.719 36.6927 120.621 36.6123C120.482 36.4955 120.324 36.4084 120.156 36.3554C119.775 36.2316 119.39 36.1297 119 36.05C118.661 35.9666 118.334 35.8286 118.032 35.6404C117.849 35.5141 117.698 35.3379 117.595 35.1288C117.491 34.9197 117.439 34.6847 117.441 34.4464C117.439 34.2625 117.471 34.08 117.533 33.9096C117.596 33.7392 117.689 33.5842 117.806 33.4536C117.957 33.2921 118.134 33.1627 118.327 33.0718C118.925 32.795 119.591 32.7534 120.213 32.9538C120.529 33.0552 120.81 33.2614 121.016 33.5444C121.223 33.8275 121.346 34.1738 121.369 34.5366C121.372 34.5689 121.372 34.6015 121.369 34.6338L121.388 34.6477Z" fill="white"/>
<path d="M109.454 33.8285C109.535 33.8285 109.548 33.7175 109.586 33.6619C109.736 33.4439 109.924 33.2623 110.141 33.1285C110.357 32.9947 110.596 32.9117 110.843 32.8844C110.96 32.8738 111.077 32.8738 111.194 32.8844C111.406 32.8859 111.617 32.9138 111.823 32.9677C112.136 33.0351 112.421 33.2142 112.634 33.4775C112.846 33.7409 112.974 34.0739 112.998 34.4255C113.031 34.6785 113.047 34.9336 113.049 35.1891V38.5907C113.057 38.6459 113.057 38.7022 113.049 38.7573C113.047 38.7881 113.035 38.8172 113.015 38.839C112.996 38.8607 112.97 38.8737 112.942 38.8754H112.426C112.42 38.8038 112.42 38.7317 112.426 38.6601C112.42 38.5886 112.42 38.5165 112.426 38.4449V35.3488C112.425 35.1161 112.406 34.8839 112.37 34.6546C112.337 34.3417 112.201 34.0531 111.988 33.8442C111.775 33.6354 111.499 33.521 111.213 33.5231H111.056C110.727 33.5232 110.406 33.632 110.133 33.8355C109.947 33.9827 109.791 34.17 109.673 34.386C109.555 34.602 109.478 34.8422 109.447 35.092C109.425 35.2855 109.413 35.4801 109.41 35.6751V38.7851C109.41 38.8116 109.401 38.8371 109.384 38.8564C109.368 38.8757 109.346 38.8875 109.322 38.8892H109.284C108.655 38.8892 108.756 39.0073 108.756 38.3547V33.1829C108.756 33.1565 108.765 33.1309 108.781 33.1116C108.797 33.0923 108.82 33.0805 108.844 33.0788H108.919C109.491 33.0788 109.403 32.9955 109.416 33.5786V33.8632L109.454 33.8285Z" fill="white"/>
<path d="M147.358 37.9101C147.226 37.9587 147.201 38.0629 147.144 38.1323C146.969 38.3804 146.746 38.583 146.492 38.7258C146.238 38.8685 145.959 38.9479 145.674 38.9584H145.485C145.31 38.9586 145.135 38.9376 144.964 38.8959C144.647 38.8455 144.353 38.683 144.126 38.4327C143.899 38.1825 143.752 37.8578 143.707 37.5075C143.656 37.2804 143.631 37.0472 143.631 36.8133V33.1687C143.628 33.1411 143.628 33.1131 143.631 33.0854C143.633 33.0547 143.645 33.0256 143.664 33.0038C143.684 32.982 143.71 32.9691 143.738 32.9674H144.159C144.253 32.9674 144.285 33.0368 144.285 33.134V36.6744C144.288 36.9085 144.315 37.1415 144.367 37.3686C144.408 37.6136 144.521 37.837 144.688 38.0048C144.854 38.1727 145.066 38.2759 145.29 38.2989H145.397C145.494 38.3211 145.594 38.3327 145.693 38.3336C145.981 38.3335 146.262 38.241 146.503 38.0672C146.744 37.8934 146.934 37.6459 147.05 37.3548C147.18 37.0492 147.259 36.7198 147.283 36.3829V33.0785C147.283 33.0526 147.292 33.0278 147.306 33.0077C147.321 32.9876 147.341 32.9735 147.364 32.9674H147.44C148.005 32.9674 147.93 32.8841 147.93 33.4742V38.6668C147.929 38.6976 147.917 38.7266 147.897 38.7484C147.877 38.7702 147.851 38.7832 147.823 38.7848H147.773C147.251 38.7848 147.339 38.8542 147.327 38.3197V37.8546L147.358 37.9101Z" fill="white"/>
<path d="M152.818 35.7304V33.6964C152.816 33.673 152.807 33.651 152.792 33.6344C152.777 33.6178 152.757 33.6078 152.736 33.6062H152.108C151.938 33.6062 151.938 33.6062 151.932 33.384V33.2244C151.932 33.0231 151.932 33.0092 152.108 33.0022H152.736C152.767 33.0005 152.796 32.9861 152.819 32.9617C152.841 32.9373 152.854 32.9048 152.855 32.8703V31.4403C152.855 31.2806 152.855 31.2598 153.038 31.2528C153.547 31.2528 153.478 31.1695 153.484 31.7179V32.8148C153.484 32.9606 153.522 32.9953 153.666 33.0022H154.458C154.486 33.0022 154.513 33.0147 154.533 33.0368C154.553 33.0589 154.565 33.0889 154.565 33.1202V33.3979C154.565 33.4951 154.565 33.5853 154.389 33.5923H153.616C153.484 33.5923 153.459 33.5923 153.453 33.752V37.4034C153.453 37.4034 153.453 37.4451 153.453 37.4659C153.454 37.6212 153.475 37.7754 153.515 37.9241C153.532 38.0043 153.571 38.0771 153.626 38.1328C153.681 38.1885 153.749 38.2247 153.823 38.2365H154.1H154.382C154.514 38.2365 154.54 38.2365 154.546 38.3823C154.546 38.8613 154.59 38.8196 154.157 38.8474H153.993C153.799 38.8487 153.604 38.8255 153.414 38.778C153.275 38.747 153.147 38.6701 153.047 38.5574C152.947 38.4447 152.88 38.3014 152.855 38.1462C152.816 37.9384 152.795 37.7269 152.793 37.5145V37.4659C152.793 36.9106 152.793 36.3205 152.793 35.7235L152.818 35.7304Z" fill="white"/>
<path d="M139.414 33.0439V33.5715H139.1H138.786H138.534C138.339 33.5715 138.327 33.5715 138.327 33.8075V37.702C138.365 38.0908 138.484 38.2157 138.849 38.2435H139.112C139.389 38.2435 139.389 38.2435 139.389 38.535V38.7155C139.39 38.7283 139.389 38.7411 139.385 38.7533C139.381 38.7654 139.375 38.7767 139.368 38.7864C139.36 38.796 139.351 38.804 139.341 38.8097C139.33 38.8154 139.319 38.8188 139.308 38.8197C139.172 38.8297 139.035 38.8297 138.899 38.8197C138.65 38.8194 138.402 38.7797 138.164 38.7017C138.063 38.6674 137.971 38.6054 137.897 38.5217C137.824 38.438 137.771 38.3352 137.743 38.2227C137.687 38.0392 137.659 37.8469 137.661 37.6534V33.6895C137.661 33.5854 137.604 33.5506 137.516 33.5506H136.85C136.818 33.5506 136.788 33.5367 136.765 33.512C136.743 33.4873 136.73 33.4537 136.73 33.4187V33.1827C136.73 32.9675 136.73 32.9536 136.944 32.9467H137.504C137.623 32.9467 137.655 32.905 137.661 32.7801V31.3917C137.661 31.2598 137.661 31.232 137.824 31.232C138.396 31.232 138.314 31.1349 138.321 31.7596V32.8148C138.321 32.9467 138.321 32.9745 138.478 32.9814H139.232C139.297 32.9817 139.361 33.0035 139.414 33.0439Z" fill="white"/>
<path d="M126.844 32.9745C127.221 33.03 127.561 32.9745 127.894 33.0231C127.9 33.1132 127.9 33.2037 127.894 33.2938C127.9 33.3862 127.9 33.4791 127.894 33.5715H127.579H127.265C126.794 33.5715 126.844 33.5021 126.844 34.0089V37.7437C126.876 38.07 126.989 38.1949 127.284 38.2227H127.737C127.887 38.2227 127.894 38.2227 127.9 38.3754C127.9 38.8613 127.95 38.8127 127.51 38.8405H127.372C127.195 38.8426 127.018 38.824 126.844 38.785C126.686 38.7587 126.539 38.6771 126.426 38.5522C126.313 38.4272 126.239 38.2655 126.216 38.0908C126.188 37.9352 126.173 37.7772 126.171 37.6187C126.171 37.6187 126.171 37.5562 126.171 37.5215V33.752C126.171 33.5854 126.171 33.5785 125.995 33.5715H125.367C125.337 33.5715 125.308 33.5583 125.287 33.5349C125.266 33.5115 125.254 33.4797 125.254 33.4466V33.1619C125.254 33.0647 125.254 32.9815 125.436 32.9745H126.065C126.184 32.9745 126.222 32.9329 126.222 32.801V31.7805C126.222 31.1557 126.14 31.2598 126.718 31.2529C126.863 31.2529 126.888 31.2529 126.888 31.4473V32.9814H126.831L126.844 32.9745Z" fill="white"/>
<path d="M132.821 35.911V38.6323C132.821 38.7156 132.821 38.7642 132.715 38.7711H132.3C132.205 38.7711 132.174 38.7087 132.174 38.6115V33.1134C132.175 33.0814 132.188 33.0514 132.209 33.0295C132.23 33.0075 132.258 32.9953 132.287 32.9954C132.859 32.9954 132.784 32.9051 132.79 33.4813V35.911H132.821Z" fill="white"/>
<path d="M104.229 35.9526V38.6878C104.227 38.7185 104.216 38.7476 104.196 38.7694C104.177 38.7912 104.15 38.8041 104.122 38.8058H103.707C103.613 38.8058 103.582 38.7433 103.582 38.6461V33.0925C103.582 33.0624 103.592 33.0333 103.611 33.0114C103.63 32.9895 103.655 32.9763 103.682 32.9745C104.197 32.9051 104.217 32.9259 104.217 33.5021V35.9249L104.229 35.9526Z" fill="white"/>
<path d="M132.784 31.3916V31.822C132.784 31.8459 132.775 31.8688 132.76 31.8858C132.745 31.9027 132.723 31.9122 132.702 31.9122H132.538C132.086 31.9122 132.149 31.9747 132.143 31.4887V30.8848C132.144 30.8584 132.155 30.8337 132.173 30.8156C132.19 30.7976 132.213 30.7875 132.237 30.7876H132.495C132.778 30.7876 132.778 30.7876 132.784 31.1V31.3916Z" fill="white"/>
<path d="M103.591 31.3224C103.591 30.7046 103.521 30.8156 104.093 30.8018C104.181 30.8018 104.237 30.8434 104.237 30.9406V31.8222C104.237 31.8847 104.206 31.9055 104.15 31.9194H104.112C103.484 31.9194 103.609 32.0305 103.597 31.3849L103.591 31.3224Z" fill="white"/>
<path d="M74.799 19.4446C74.9196 19.4437 75.0391 19.469 75.1507 19.5191C75.2624 19.5692 75.3638 19.6431 75.4496 19.7366C75.5354 19.8301 75.6041 19.9413 75.651 20.0639C75.6978 20.1865 75.7226 20.3181 75.7234 20.4512C75.6966 20.7067 75.5854 20.9423 75.4116 21.1134C75.2378 21.2845 75.0135 21.379 74.7806 21.379C74.5478 21.379 74.3229 21.2845 74.1491 21.1134C73.9752 20.9423 73.8646 20.7067 73.8379 20.4512C73.8387 20.3193 73.8631 20.189 73.9097 20.0676C73.9563 19.9462 74.0239 19.8362 74.1092 19.7439C74.1945 19.6516 74.2954 19.5789 74.4062 19.5299C74.5171 19.481 74.6361 19.4567 74.7555 19.4585L74.799 19.4446Z" fill="white"/>
<path d="M75.3493 17.7576V18.9794C75.3493 19.1252 75.293 19.1668 75.1548 19.1252C75.0486 19.0911 74.9388 19.0748 74.8282 19.0766C74.7157 19.0752 74.6033 19.0915 74.495 19.1252H74.4637C74.4387 19.1252 74.4144 19.1142 74.3968 19.0947C74.3791 19.0751 74.3691 19.0487 74.3691 19.021V16.626C74.3691 16.3692 74.3692 16.3414 74.6269 16.3345H75.1106C75.318 16.3345 75.3498 16.3345 75.3561 16.5913V17.7506L75.3493 17.7576Z" fill="white"/>
<path d="M75.2946 21.7633C75.3318 21.8198 75.3516 21.8879 75.3511 21.9577V24.318C75.3315 24.3511 75.3087 24.3814 75.2824 24.4083H75.2069C74.195 24.4083 74.3898 24.6165 74.3709 23.5891V21.923C74.3709 21.8119 74.4085 21.7772 74.509 21.7981C74.6137 21.8047 74.7186 21.8047 74.8233 21.7981C74.9821 21.7987 75.1404 21.7777 75.2946 21.7356V21.7633Z" fill="white"/>
<path d="M73.6156 20.0973C73.5907 20.2273 73.5783 20.36 73.5782 20.493C73.5757 20.6871 73.6053 20.88 73.666 21.0622C73.61 21.0954 73.5472 21.1121 73.4837 21.1108H71.4159C71.397 21.1128 71.378 21.1103 71.36 21.1035C71.3421 21.0966 71.3259 21.0856 71.3122 21.0711C71.2984 21.0566 71.2879 21.039 71.2809 21.0195C71.2739 21 71.2707 20.979 71.2717 20.9581V20.1875C71.2717 20.0973 71.3279 20.0487 71.4159 20.0417H73.3707C73.4557 20.0417 73.5393 20.0631 73.6156 20.1042V20.0973Z" fill="white"/>
</svg>
