<svg width="220" height="40" viewBox="0 0 220 40" fill="none" xmlns="http://www.w3.org/2000/svg">
<g clip-path="url(#clip0_8099_10349)">
<g clip-path="url(#clip1_8099_10349)">
<path d="M67.0787 38.5226C56.897 38.5187 48.0646 30.6143 47.0802 20.5446C46.2388 11.9354 52.0179 1.41937 64.5868 1.23972C74.3899 1.0997 83.1937 8.61718 84.4715 18.3702C85.4008 25.4642 82.9154 31.1523 77.162 35.3796C74.289 37.4907 70.764 38.5239 67.0787 38.5226ZM66.8745 13.1693C67.9235 13.2395 68.8541 13.4355 69.736 13.305C70.1815 13.2391 70.5365 12.5799 70.9371 12.1939C71.4003 11.7476 71.8419 11.2737 72.3438 10.8756C72.6791 10.6097 73.0836 10.3952 73.4915 10.266C74.115 10.0686 74.5268 10.465 74.3765 11.0974C74.308 11.3857 74.1747 11.7273 73.9559 11.8988C73.1357 12.5424 72.3399 13.308 71.3972 13.6811C70.4585 14.0529 69.8398 14.6035 69.3513 15.4104C69.2182 15.6302 69.0105 15.8245 68.9437 16.0606C68.8489 16.397 68.7214 16.8106 68.8334 17.1058C70.3637 21.143 71.0082 25.3513 71.312 29.6259C71.3779 30.5543 71.1913 30.6876 70.2306 30.5631C66.9486 30.1379 63.6579 30.0616 60.3604 30.3275C59.4212 30.4032 58.4858 30.5229 57.5488 30.6225C57.9977 30.8065 58.4324 30.8009 58.8671 30.8072C61.7265 30.8513 64.5902 30.816 67.4436 30.9685C69.8807 31.0989 72.318 31.3696 74.7337 31.7224C76.6469 32.0014 76.6326 32.0984 77.7334 30.4756C81.7639 24.5332 81.327 16.6137 76.6555 10.9342C71.5356 4.70916 62.6291 3.10993 55.8634 7.2002C51.438 9.87561 48.7173 15.8421 49.7004 20.8315C50.594 25.3651 52.7132 29.2317 56.1921 32.3087C56.433 32.5217 56.8784 32.6194 57.2123 32.5892C58.2351 32.4978 59.2467 32.2317 60.269 32.1891C63.4335 32.0575 66.6004 31.999 69.7666 31.911C70.0475 31.9032 70.3279 31.8864 70.6088 31.8735C70.259 31.6355 69.9122 31.5336 69.5628 31.5246C66.217 31.4371 62.8708 31.366 59.5246 31.2885C58.5729 31.2665 57.6203 31.2531 56.6699 31.2049C56.4166 31.192 56.1689 31.0667 55.8793 30.9815C56.3606 30.3523 56.7169 30.1805 57.9025 30.0068C61.0294 29.5485 64.1701 29.6196 67.3113 29.7892C68.4065 29.8482 69.4999 29.9461 70.7359 30.0365C69.8403 26.2975 69.0605 22.6806 66.8331 19.4042C66.4622 20.0573 66.1563 20.5304 65.9141 21.034C64.7108 23.5384 63.5278 26.0526 62.3267 28.558C62.2009 28.8204 62.0001 29.0465 61.8338 29.2894C61.7541 29.2558 61.674 29.222 61.5942 29.1883C61.5942 28.9724 61.5546 28.7475 61.6003 28.5421C62.4089 24.8783 62.9992 21.1568 64.4592 17.6632C64.5217 17.5142 64.5747 17.2957 64.5109 17.1708C64.1663 16.4923 62.7299 16.1092 62.0427 16.4772C61.4982 16.7688 60.9631 17.0876 60.3935 17.3212C59.5879 17.6516 58.7633 17.9446 57.9266 18.185C57.7099 18.2474 57.308 18.1285 57.1942 17.9575C57.0762 17.78 57.1624 17.4267 57.2377 17.1734C57.292 16.9903 57.4592 16.8304 57.6018 16.6857C58.7913 15.4772 60.3026 15.0645 61.9148 15.2015C63.5584 15.3415 64.3679 14.102 65.5992 13.4467C64.3946 12.4037 64.1103 11.9582 63.9944 11.0134C63.7691 9.18026 65.2442 7.7999 66.7801 8.40607C67.7951 8.80675 68.263 9.97858 67.8292 11.2181C67.6198 11.8165 67.273 12.3667 66.8745 13.1676V13.1693ZM49.4036 25.8574C49.1464 24.1846 48.7849 22.6461 48.6945 21.0922C48.4024 16.0674 49.8534 11.5502 53.1738 7.7607C56.7531 3.67605 61.5598 2.45723 66.6638 3.22798C75.8455 4.61438 81.682 10.7597 83.0636 19.2681C84.114 25.7349 82.0765 31.0838 76.4742 34.7631C73.4045 36.7795 70.0221 37.7717 66.2743 37.2778C64.7371 37.0753 63.1681 37.1121 61.459 37.0326C61.8411 37.18 62.0893 37.2982 62.349 37.373C65.0689 38.1581 67.8343 38.3255 70.6058 37.7768C78.222 36.268 83.8399 30.3562 84.1328 21.7108C84.2914 17.0265 82.7035 12.9009 79.6925 9.35906C75.6637 4.62042 70.6481 1.8726 64.2563 2.15479C60.7873 2.30773 57.5023 3.17369 54.7247 5.31533C49.6987 9.19062 47.3942 14.3394 47.9758 20.6915C48.1374 22.4583 48.6139 24.1683 49.4036 25.8567V25.8574ZM50.5018 12.1788C50.5591 12.2128 50.6164 12.2469 50.6737 12.2809C50.7172 12.2671 50.7805 12.2676 50.8008 12.2378C51.0188 11.9203 51.2273 11.5963 51.4427 11.2771C53.9014 7.62973 57.2795 5.33816 61.6365 4.68675C67.1312 3.86518 71.9788 5.40882 75.9469 9.28021C80.0124 13.2473 81.9366 18.1022 81.1435 23.8227C80.3484 29.5548 77.1287 33.4961 71.8828 35.8338C71.0586 36.2008 70.2069 36.5063 69.3681 36.8401C69.8127 36.9625 70.2241 36.9651 70.6183 36.884C79.1979 35.1208 83.8029 28.3803 82.5078 19.9208C81.2829 11.9216 76.5231 6.59444 68.6529 4.28823C62.315 2.43095 56.2076 4.40414 52.1553 9.55551C51.5198 10.3637 51.0489 11.3012 50.5018 12.1788ZM57.5544 33.2073C61.3495 37.6708 72.7634 37.286 75.5772 32.597C69.5378 32.4914 63.5799 32.441 57.5544 33.2073ZM67.5422 10.5361C67.3566 9.77827 67.251 9.14493 66.4828 8.92264C65.8185 8.73048 65.1878 9.00836 64.9181 9.57792C64.439 10.5895 64.8728 11.9996 65.8654 12.5248C66.0257 12.6096 66.4199 12.5644 66.4949 12.4464C66.8818 11.8337 67.2001 11.1776 67.5422 10.5365V10.5361ZM69.4284 14.323C68.3668 14.1335 67.4216 13.9616 66.4742 13.8009C66.3842 13.7854 66.2648 13.816 66.1877 13.8676C65.3704 14.4187 64.5588 14.9788 63.657 15.5966C64.2119 15.8986 64.6716 16.1484 65.115 16.3893C66.186 15.334 67.2621 15.1471 68.3431 15.8283C68.6913 15.3454 69.0415 14.8594 69.4284 14.3226V14.323ZM49.3157 22.3506C49.6207 27.6476 54.3434 33.403 58.7792 34.9763C54.0005 31.9868 50.731 27.8647 49.3157 22.3506ZM65.3584 17.8584C64.2335 20.2271 63.4671 22.6332 62.9363 25.1217C63.9621 23.2885 64.9228 21.4295 65.9034 19.5813C66.4204 18.6067 66.4277 18.5817 65.3584 17.858V17.8584ZM68.353 17.5137C67.4578 18.0665 67.2476 18.5486 67.7344 19.3262C68.26 20.165 68.5844 21.1309 68.9825 22.0477C69.2522 22.6694 69.4978 23.3014 69.7541 23.9292C69.842 23.9011 69.9294 23.8736 70.0169 23.8456C69.462 21.735 68.9071 19.6243 68.3522 17.5137H68.353ZM61.6636 16.0166C60.2832 15.6366 58.1084 16.581 57.8064 17.6344C58.5957 17.7468 60.422 16.9924 61.6636 16.0166ZM70.7833 12.9595C70.8544 13.0379 70.9251 13.1163 70.9962 13.1947C72.0056 12.8824 72.8862 12.3511 73.5634 11.5166C73.6866 11.365 73.6771 11.1056 73.7293 10.8962C73.4959 10.9027 73.1825 10.814 73.0417 10.9316C72.2658 11.58 71.5317 12.2788 70.7833 12.9599V12.9595ZM66.7422 18.1582C67.6719 17.1294 67.8227 16.6361 67.3639 16.2712C66.8775 15.8839 66.4376 16.0425 66.1102 16.4866C65.4157 17.428 66.625 17.5125 66.7422 18.1587V18.1582Z" fill="white"/>
<path d="M112.643 9.43906C113.384 9.43906 114.005 9.38994 114.609 9.46535C114.823 9.49206 115.108 9.79147 115.175 10.0211C115.588 11.4278 115.946 12.8503 116.326 14.2665C116.371 14.4328 116.44 14.5926 116.646 14.7714C116.824 14.1269 117.005 13.4832 117.178 12.8374C117.431 11.893 117.658 10.9414 117.943 10.0069C118.008 9.79018 118.247 9.48775 118.431 9.46964C119.086 9.40417 119.753 9.44423 120.46 9.44423V17.5218H119.043V11.6264C118.985 11.6152 118.928 11.604 118.87 11.5923C118.756 11.9805 118.63 12.3652 118.53 12.7568C118.178 14.1269 117.802 15.4922 117.504 16.8738C117.378 17.455 117.112 17.6028 116.556 17.6002C116.008 17.5976 115.724 17.455 115.597 16.8842C115.26 15.3789 114.866 13.8865 114.491 12.3898C114.43 12.1451 114.348 11.906 114.112 11.6621C114.096 11.9155 114.065 12.1688 114.064 12.4221C114.057 13.967 114.046 15.5116 114.062 17.0565C114.066 17.542 113.798 17.6144 113.422 17.5843C113.091 17.5575 112.643 17.7109 112.643 17.1211C112.643 14.6029 112.643 12.0852 112.643 9.4395L112.643 9.43906Z" fill="white"/>
<path d="M105.88 13.9373C106.71 15.0932 107.527 16.2301 108.364 17.3964C107.048 17.8414 106.593 17.7001 105.927 16.7118C105.567 16.1785 105.222 15.6356 104.848 15.1122C104.67 14.8631 104.483 14.5512 104.227 14.4435C103.818 14.2721 103.345 14.1945 102.904 14.2083C102.82 14.2109 102.706 14.8201 102.692 15.1531C102.66 15.9195 102.682 16.6881 102.682 17.4671C102.525 17.5179 102.433 17.5683 102.339 17.5743C101.521 17.6243 101.112 17.2346 101.112 16.4051C101.112 14.3207 101.125 12.236 101.102 10.1516C101.096 9.63204 101.23 9.40587 101.789 9.42827C103.152 9.48212 104.523 9.41233 105.877 9.53943C107.272 9.6704 108 10.8336 107.708 12.2088C107.557 12.9175 107.152 13.4117 106.49 13.6956C106.259 13.7943 106.023 13.8808 105.88 13.9373ZM104.074 12.8671C104.432 12.8671 104.792 12.8917 105.148 12.862C105.782 12.8085 106.141 12.4135 106.143 11.8056C106.145 11.1938 105.79 10.7966 105.145 10.7655C104.507 10.7345 103.866 10.7104 103.23 10.7488C103.043 10.7599 102.747 10.9663 102.708 11.1309C102.379 12.5599 102.659 12.902 104.074 12.8671Z" fill="white"/>
<path d="M122.008 25.9856V30.3079C121.654 30.325 121.382 30.3883 121.137 30.3321C120.98 30.2965 120.75 30.0847 120.748 29.9498C120.724 27.7768 120.731 25.6035 120.731 23.4469C121.851 23.15 122.004 23.2092 122.555 24.1093C123.205 25.1701 123.854 26.2317 124.507 27.2906C124.628 27.4883 124.769 27.6744 125.056 27.8213V23.3673H126.245V30.2448C125.203 30.5331 124.992 30.4556 124.45 29.5835C123.805 28.5453 123.164 27.5053 122.518 26.4678C122.407 26.2894 122.278 26.1215 122.157 25.9485C122.107 25.961 122.058 25.9729 122.008 25.9851V25.9856Z" fill="white"/>
<path d="M148.304 26.8854C148.278 29.1149 146.964 30.4985 144.889 30.4812C142.752 30.4634 141.435 29.063 141.455 26.8318C141.476 24.556 142.815 23.1736 144.973 23.2008C147.022 23.2265 148.33 24.6741 148.305 26.8857L148.304 26.8854ZM146.897 26.8601C146.921 25.1985 146.082 24.2522 144.683 24.3629C143.554 24.4524 142.863 25.3782 142.86 26.8079C142.857 28.3416 143.66 29.343 144.895 29.3442C146.111 29.3457 146.875 28.3978 146.897 26.8596V26.8601Z" fill="white"/>
<path d="M155.86 25.1142C154.99 25.3954 154.512 25.5155 153.973 24.8243C153.141 23.7568 151.118 24.3725 150.824 25.7787C150.672 26.509 150.726 27.3486 150.924 28.0731C151.284 29.3876 152.973 29.7945 154.302 28.7941C154.472 28.6659 154.449 28.2261 154.433 27.9351C154.429 27.8569 154.124 27.7638 153.948 27.7356C153.732 27.701 153.504 27.7122 153.283 27.73C152.878 27.7629 152.802 27.5389 152.808 27.1949C152.814 26.8728 152.838 26.6208 153.261 26.6308C153.972 26.6476 154.684 26.6457 155.394 26.632C155.75 26.6252 155.857 26.7928 155.847 27.1223C155.833 27.5684 155.791 28.0248 155.86 28.4605C155.994 29.3028 155.58 29.73 154.878 30.0377C153.862 30.4829 152.815 30.6077 151.751 30.3452C149.772 29.8574 148.76 27.6237 149.484 25.4223C150.176 23.3207 153.083 22.3917 154.83 23.7568C155.233 24.0718 155.475 24.5946 155.86 25.1142Z" fill="white"/>
<path d="M134.475 26.912C134.402 30.3338 131.524 30.9882 129.533 30.1559C128.998 29.9329 128.463 29.4634 128.169 28.9653C127.38 27.6339 127.418 26.1917 128.095 24.8241C128.709 23.5844 130.003 23.044 131.549 23.2395C132.984 23.4209 133.98 24.2862 134.3 25.6642C134.395 26.0716 134.419 26.4958 134.475 26.912H134.475ZM129.036 26.919C129.05 27.0979 129.053 27.3201 129.084 27.5387C129.253 28.7212 130.192 29.4697 131.31 29.3199C132.35 29.181 132.951 28.4034 133.054 27.0667C133.156 25.7399 132.592 24.6955 131.629 24.4327C131.523 24.4037 131.411 24.3903 131.302 24.3806C129.847 24.2543 129.005 25.1832 129.036 26.9188V26.919Z" fill="white"/>
<path d="M139.864 13.4178C139.867 11.8475 140.35 10.4818 141.817 9.74289C143.236 9.02858 144.71 9.09364 146.09 9.93375C147.146 10.5757 147.545 11.6191 147.713 12.7794C148.067 15.2346 146.802 17.294 144.737 17.6261C141.753 18.1061 139.817 16.434 139.864 13.4178ZM146.17 13.6272C146.12 13.1718 146.102 12.8896 146.056 12.6122C145.842 11.3305 145.044 10.6317 143.808 10.6338C142.587 10.636 141.706 11.3499 141.574 12.6174C141.496 13.3631 141.546 14.1576 141.724 14.8852C141.956 15.8386 142.823 16.3824 143.81 16.3987C144.697 16.4134 145.515 15.9007 145.844 15.0278C146.031 14.5328 146.09 13.99 146.171 13.6272H146.17Z" fill="white"/>
<path d="M113.539 23.3732H114.891C114.891 24.0981 114.923 24.7815 114.882 25.4604C114.849 26.0032 115.073 26.1613 115.58 26.1338C116.136 26.1033 116.695 26.1106 117.251 26.1325C117.658 26.1489 117.804 25.9898 117.792 25.5895C117.771 24.8653 117.786 24.14 117.786 23.3736H119.183C119.183 23.887 119.183 24.3678 119.183 24.849C119.182 26.3774 119.182 27.9059 119.181 29.434C119.181 30.0772 118.863 30.3791 118.228 30.3404C118.099 30.3324 117.971 30.297 117.788 30.2646C117.788 29.4537 117.767 28.6606 117.796 27.8691C117.814 27.3959 117.684 27.1745 117.163 27.2086C116.586 27.2463 116.004 27.2295 115.425 27.2117C115.017 27.1993 114.877 27.3757 114.887 27.7688C114.906 28.4768 114.876 29.1866 114.896 29.8947C114.911 30.3806 114.594 30.3687 114.275 30.3411C113.98 30.3155 113.541 30.5051 113.541 29.9437C113.538 27.7768 113.539 25.6099 113.539 23.3728V23.3732Z" fill="white"/>
<path d="M165.267 29.2384C165.471 30.2959 165.427 30.3497 164.46 30.3497C163.172 30.3497 161.884 30.3493 160.596 30.3522C160.285 30.3529 160.021 30.3398 160.023 29.9104C160.037 27.8044 160.036 25.6987 160.045 23.5931C160.045 23.5318 160.089 23.4709 160.125 23.3765C160.289 23.3617 160.461 23.3327 160.633 23.3323C162.118 23.3286 163.602 23.3301 165.068 23.3301C165.381 24.2928 165.285 24.4336 164.356 24.438C163.601 24.4417 162.844 24.4707 162.091 24.4284C161.526 24.3964 161.326 24.6063 161.388 25.1511C161.42 25.4301 161.394 25.7157 161.394 26.1015C162.404 26.1015 163.33 26.11 164.257 26.0976C164.676 26.0919 164.98 26.117 164.968 26.6838C164.958 27.2369 164.636 27.2057 164.265 27.2031C163.488 27.1972 162.71 27.2206 161.933 27.1975C161.528 27.1858 161.383 27.3341 161.388 27.7342C161.41 29.5608 161.224 29.2028 162.774 29.235C163.593 29.2523 164.413 29.2384 165.267 29.2384Z" fill="white"/>
<path d="M165.428 15.0183C165.788 14.9692 166.102 14.8598 166.389 14.9085C166.63 14.949 166.94 15.1213 167.047 15.3259C167.571 16.3254 168.748 16.7808 169.715 16.207C170.035 16.0174 170.352 15.5435 170.357 15.1945C170.362 14.9175 169.941 14.5121 169.619 14.3764C168.889 14.0683 168.09 13.9288 167.345 13.653C166.169 13.2183 165.594 12.3627 165.702 11.3244C165.806 10.3344 166.521 9.63341 167.718 9.39517C168.755 9.18923 169.783 9.21423 170.707 9.79281C171.349 10.1948 171.725 10.7863 171.696 11.6497C170.999 11.7053 170.333 12.0499 169.886 11.0943C169.569 10.4162 167.881 10.4046 167.381 10.9815C167.035 11.3808 167.179 11.9073 167.784 12.1305C168.626 12.4411 169.508 12.644 170.358 12.9357C171.065 13.1782 171.624 13.6069 171.863 14.3678C172.337 15.8765 171.543 17.2922 169.991 17.5809C169.391 17.6924 168.757 17.7118 168.149 17.6597C166.508 17.518 165.74 16.7657 165.428 15.0192V15.0183Z" fill="white"/>
<path d="M171.753 25.2472C171.146 25.288 170.568 25.5428 170.177 24.7387C169.899 24.1672 168.505 24.1612 168.045 24.6293C167.698 24.982 167.824 25.4556 168.386 25.6595C169.076 25.9107 169.801 26.065 170.498 26.2996C171.561 26.6581 172.041 27.3498 171.999 28.392C171.964 29.2538 171.546 29.891 170.745 30.1927C169.732 30.5735 168.683 30.5918 167.672 30.1629C166.806 29.7962 166.438 29.0728 166.314 28.1266C166.622 28.0901 166.892 28.0043 167.142 28.044C167.35 28.0774 167.625 28.2109 167.714 28.3808C168.171 29.248 169.157 29.6386 170.024 29.1598C170.305 29.0046 170.592 28.6049 170.604 28.3062C170.614 28.0667 170.259 27.6973 169.984 27.5837C169.226 27.2714 168.397 27.1232 167.645 26.7989C166.7 26.3913 166.34 25.45 166.666 24.5355C167.01 23.5697 168.091 23.0875 169.608 23.2229C170.819 23.3308 171.609 23.9598 171.773 24.9527C171.787 25.0346 171.762 25.1229 171.752 25.2464L171.753 25.2472Z" fill="white"/>
<path d="M128.365 16.2922V17.5145H122.314V9.49683H128.132C128.427 10.6432 128.368 10.7251 127.257 10.7247C126.382 10.7247 125.505 10.7497 124.632 10.7087C124.003 10.6794 123.753 10.8854 123.793 11.5402C123.831 12.1417 123.699 12.7306 124.653 12.669C125.702 12.6014 126.76 12.6535 127.886 12.6535V13.9313C126.851 13.9313 125.803 13.9731 124.76 13.9171C124.03 13.8779 123.762 14.0937 123.791 14.8546C123.855 16.5456 123.662 16.2672 125.249 16.2892C126.272 16.303 127.296 16.2918 128.364 16.2918L128.365 16.2922Z" fill="white"/>
<path d="M105.006 29.2359V30.3521C104.296 30.3521 103.613 30.3523 102.929 30.3521C102.018 30.3514 101.106 30.3428 100.194 30.3521C99.8698 30.3553 99.7053 30.2612 99.707 29.8996C99.717 27.7446 99.7117 25.5898 99.7117 23.3728H104.781C105.055 24.3221 104.986 24.4227 104.05 24.4249C103.25 24.4267 102.449 24.4402 101.649 24.4234C101.207 24.4141 101.024 24.5571 101.026 25.0339C101.033 26.0809 101.007 26.0824 102.066 26.0897C102.622 26.0936 103.177 26.0916 103.733 26.0928C104.369 26.0938 104.641 26.4617 104.551 27.1969C103.691 27.1969 102.812 27.1966 101.933 27.1969C101.041 27.1976 101.034 27.1981 101.038 28.0509C101.045 29.3911 100.909 29.221 102.208 29.2337C103.116 29.2427 104.024 29.2356 105.005 29.2356L105.006 29.2359Z" fill="white"/>
<path d="M163.88 9.50496C163.88 11.5329 163.957 13.5108 163.853 15.4792C163.785 16.7773 162.921 17.4972 161.635 17.645C161.303 17.6829 160.967 17.7109 160.633 17.7062C158.466 17.6734 157.534 16.7515 157.507 14.5887C157.487 12.9938 157.5 11.3989 157.501 9.80396C157.501 9.72942 157.528 9.65533 157.557 9.50927H159.035C159.035 9.81602 159.034 10.1361 159.035 10.4562C159.041 11.8969 159.009 13.3389 159.066 14.7774C159.112 15.963 159.865 16.5283 161.043 16.3745C161.888 16.2642 162.301 15.8799 162.332 15.0213C162.383 13.5823 162.382 12.1412 162.388 10.7009C162.393 9.31541 162.384 9.31541 163.881 9.50455L163.88 9.50496Z" fill="white"/>
<path d="M94.9853 14.5654V17.4963C94.7468 17.5317 94.5735 17.5571 94.4003 17.5829C93.699 17.6868 93.3974 17.4709 93.4191 16.6795C93.4758 14.5999 93.4393 12.5177 93.4444 10.4364C93.4451 10.1357 93.4724 9.83497 93.4875 9.53209C95.0087 9.53209 96.4734 9.4317 97.9169 9.56396C99.067 9.66908 99.6856 10.7418 99.6345 12.1084C99.5908 13.2721 98.7994 14.2268 97.7 14.3604C96.8396 14.465 95.9702 14.4943 94.9853 14.5654ZM94.8338 11.8258C94.8893 11.8504 94.9454 11.8745 95.0009 11.8991C95.0009 12.1821 94.9617 12.4725 95.016 12.7448C95.0465 12.899 95.2319 13.1411 95.3452 13.1403C95.9836 13.1334 96.6403 13.1441 97.2541 12.9959C97.9198 12.8352 98.1878 12.0507 97.8969 11.4286C97.6113 10.8173 96.4563 10.4498 95.3901 10.7854C95.122 10.8698 95.0151 11.4652 94.8338 11.8262V11.8258Z" fill="white"/>
<path d="M155.849 11.5285C154.824 12.0472 154.612 12.0132 153.983 11.2299C153.267 10.3355 151.556 10.4213 150.977 11.4518C150.251 12.7465 150.266 14.1509 150.915 15.4495C151.566 16.7527 153.399 16.7019 154.127 15.4352C154.253 15.2164 154.351 14.9825 154.491 14.6972C154.967 14.848 155.421 14.9919 155.869 15.1341C155.368 17.5364 152.529 18.5307 150.467 17.0827C148.206 15.4951 148.322 11.264 150.669 9.80565C152.224 8.83974 155.326 9.12193 155.849 11.5289V11.5285Z" fill="white"/>
<path d="M110.912 27.8679C111.328 28.0031 111.721 28.1303 112.159 28.2723C111.932 29.1763 111.479 29.8325 110.687 30.207C108.808 31.0945 106.614 30.0438 106.173 28.0209C105.956 27.0292 105.992 26.0245 106.39 25.0637C106.889 23.8586 108.006 23.1797 109.44 23.2009C110.718 23.22 111.643 23.8197 112.064 24.9066C112.087 24.9667 112.087 25.0357 112.097 25.0977C111.308 25.5896 111.06 25.5542 110.495 24.8734C109.778 24.0112 108.208 24.2326 107.746 25.2966C107.3 26.3238 107.333 27.3905 107.758 28.4183C108.01 29.0297 108.548 29.322 109.198 29.3406C109.859 29.3596 110.352 29.0499 110.649 28.4512C110.737 28.275 110.811 28.093 110.913 27.8679H110.912Z" fill="white"/>
<path d="M138.605 9.48828C138.883 10.6502 138.83 10.7226 137.71 10.7243C136.741 10.726 135.772 10.7243 134.768 10.7243V12.7496C135.562 12.7496 136.321 12.7496 137.081 12.7496C137.874 12.7496 138.204 13.1908 138.07 14.0731C137.227 14.0731 136.36 14.111 135.498 14.0606C134.866 14.0236 134.695 14.2717 134.721 14.8594C134.759 15.7258 134.731 16.5948 134.731 17.4827C134.513 17.5245 134.366 17.5689 134.218 17.5779C133.185 17.6391 133.16 17.6236 133.154 16.6193C133.142 14.6143 133.141 12.6087 133.144 10.6037C133.144 10.2495 133.179 9.89498 133.2 9.48872H138.605V9.48828Z" fill="white"/>
<path d="M96.5603 24.4271C96.5603 26.1299 96.5603 27.7056 96.5603 29.2814C96.5603 30.4715 96.4473 30.5551 95.1871 30.2349V24.4275C94.7324 24.4275 94.3406 24.4278 93.949 24.4275C93.007 24.4263 92.9931 24.4088 93.1427 23.3728H98.5484C98.7882 24.3764 98.7553 24.4211 97.7838 24.4267C97.4102 24.4289 97.0365 24.4267 96.5603 24.4267V24.4271Z" fill="white"/>
<path d="M135.772 23.4158H137.065C137.065 24.2943 137.065 25.129 137.065 25.964C137.065 26.8741 137.081 27.7847 137.06 28.6945C137.051 29.0983 137.198 29.2494 137.602 29.2399C138.381 29.2211 139.162 29.2352 139.942 29.236C140.156 29.236 140.37 29.236 140.568 29.236C140.682 29.9767 140.409 30.3473 139.749 30.3476C138.568 30.3476 137.386 30.3383 136.205 30.352C135.843 30.3561 135.679 30.2494 135.682 29.8627C135.696 27.7983 135.693 25.7338 135.699 23.6695C135.699 23.6071 135.734 23.5443 135.771 23.4161L135.772 23.4158Z" fill="white"/>
<path d="M157.178 23.3728H158.556V30.3521H157.178V23.3728Z" fill="white"/>
<path d="M109.441 9.47729H111.024V17.5919H109.441V9.47729Z" fill="white"/>
</g>
</g>
<defs>
<clipPath id="clip0_8099_10349">
<rect width="125" height="40" fill="white" transform="translate(47)"/>
</clipPath>
<clipPath id="clip1_8099_10349">
<rect width="125" height="37.5244" fill="white" transform="translate(47 1.23779)"/>
</clipPath>
</defs>
</svg>
