<svg width="220" height="40" viewBox="0 0 220 40" fill="none" xmlns="http://www.w3.org/2000/svg">
<g clip-path="url(#clip0_8099_10626)">
<path d="M96.7821 22.5972H96.2482L95.7671 22.0301C95.6191 22.1218 95.4596 22.1918 95.2943 22.2366C95.1172 22.2805 94.9355 22.3028 94.7544 22.3028C94.7485 22.3028 94.7419 22.3028 94.7357 22.3028C94.7305 22.3028 94.7254 22.3028 94.7202 22.3028C94.5264 22.3028 94.3338 22.2703 94.1495 22.2061C93.9648 22.1413 93.7906 22.0429 93.6359 21.9158C93.392 21.7251 93.1934 21.4731 93.0576 21.1815C92.9274 20.8966 92.8594 20.5818 92.8594 20.2636C92.8594 20.2545 92.8596 20.2452 92.8596 20.2362C92.8593 20.2338 92.8594 20.2308 92.8594 20.2284C92.8594 19.9593 92.9093 19.6929 93.0049 19.4448C93.0984 19.1932 93.2363 18.9627 93.4093 18.7677C93.5924 18.5799 93.8071 18.4301 94.0402 18.328C94.2748 18.2266 94.5251 18.1741 94.7773 18.1741C94.7781 18.1741 94.7793 18.1741 94.7802 18.1741C94.7815 18.1743 94.783 18.1743 94.7847 18.1743C95.031 18.1743 95.2761 18.2206 95.5083 18.3105C95.7351 18.4052 95.9439 18.5459 96.1229 18.724C96.3147 18.9136 96.4668 19.146 96.5681 19.4054C96.6693 19.6648 96.7218 19.9443 96.7218 20.226C96.7218 20.2336 96.7215 20.2422 96.7215 20.2496C96.7219 20.2649 96.7221 20.2811 96.7221 20.2967C96.7221 20.5835 96.6649 20.8678 96.5554 21.1289C96.4478 21.3909 96.2824 21.6207 96.0745 21.7971L96.7821 22.5974V22.5972ZM95.2535 20.8034L95.7915 21.4322C95.9462 21.2978 96.0688 21.1238 96.1477 20.9266C96.2302 20.7232 96.273 20.5033 96.273 20.2807C96.273 20.2733 96.2725 20.2653 96.2725 20.258C96.2728 20.2526 96.273 20.2467 96.273 20.2415C96.273 20.0913 96.2549 19.9415 96.2201 19.7963C96.1898 19.6557 96.139 19.5204 96.0706 19.3965C95.9415 19.1573 95.7557 18.9593 95.5328 18.8248C95.3128 18.6893 95.0632 18.6181 94.8102 18.6181C94.806 18.6181 94.8013 18.6181 94.7968 18.6181C94.4031 18.6183 94.025 18.7878 93.7452 19.0885C93.6104 19.24 93.5019 19.4177 93.4261 19.6118C93.354 19.8086 93.3166 20.0191 93.3166 20.2312C93.3166 20.2329 93.3166 20.2346 93.3166 20.2362C93.3164 20.2476 93.3164 20.2599 93.3164 20.2716C93.3164 20.5213 93.3691 20.7684 93.4703 20.9923C93.5792 21.2228 93.7392 21.4214 93.9355 21.5684C94.0574 21.6653 94.1948 21.7385 94.3398 21.7839C94.4801 21.8306 94.6261 21.8542 94.7728 21.8542C94.7765 21.8542 94.7809 21.8542 94.7849 21.8542C94.7902 21.8542 94.7956 21.8542 94.801 21.8542C94.9221 21.8542 95.0427 21.8395 95.1608 21.8103C95.273 21.7835 95.381 21.7372 95.4804 21.6741L94.7402 20.7947L95.2535 20.8036V20.8034Z" fill="white"/>
<path d="M97.4138 18.4204H97.8181V20.7816C97.8157 20.8166 97.8139 20.8519 97.8139 20.8869C97.8139 21.1532 97.8934 21.4128 98.0405 21.6257C98.2408 21.7991 98.4897 21.894 98.746 21.894C99.0026 21.894 99.2517 21.7993 99.452 21.6257C99.5987 21.4126 99.6786 21.1532 99.6786 20.8869C99.6786 20.8519 99.6771 20.8166 99.6744 20.7816V18.4204H100.079V20.7816C100.081 20.8223 100.083 20.8633 100.083 20.9042C100.083 21.2797 99.9628 21.6441 99.7431 21.9336C99.4562 22.1832 99.0995 22.3192 98.732 22.3192C98.3646 22.3192 98.008 22.1832 97.7212 21.9334C97.5012 21.6469 97.3809 21.2846 97.3809 20.9113C97.3809 20.8681 97.3822 20.8246 97.3856 20.7816L97.4138 18.4204Z" fill="white"/>
<path d="M100.936 22.2147V18.4202L101.34 18.4203V22.2149L100.936 22.2147Z" fill="white"/>
<path d="M102.189 22.2148V18.2576L104.733 21.287V18.4072H105.138V22.3644L102.594 19.3702V22.2192L102.189 22.2148Z" fill="white"/>
<path d="M106.564 22.2148V18.8513H105.582V18.4116H107.96V18.8513H106.981V22.2149L106.564 22.2148Z" fill="white"/>
<path d="M108.42 22.2147V18.4202L110.256 18.4203V18.8336H108.832V19.9196H110.256V20.3593H108.832V21.8102H110.256V22.2499L108.42 22.2147Z" fill="white"/>
<path d="M112.206 20.1085C112.411 20.2008 112.589 20.3536 112.72 20.5481C112.831 20.7237 112.89 20.9318 112.89 21.1448C112.89 21.1525 112.89 21.1605 112.89 21.1681C112.89 21.1792 112.89 21.1908 112.89 21.202C112.89 21.4881 112.79 21.7637 112.611 21.9729C112.403 22.1798 112.131 22.2948 111.849 22.2948C111.833 22.2948 111.817 22.2944 111.802 22.2939C111.79 22.2941 111.778 22.2944 111.766 22.2944C111.53 22.2944 111.301 22.2124 111.11 22.0607C110.921 21.8975 110.789 21.6673 110.738 21.41L111.11 21.2077C111.147 21.4042 111.234 21.5858 111.361 21.7308C111.475 21.8441 111.624 21.9072 111.779 21.9072C111.787 21.9072 111.794 21.9068 111.802 21.9066C111.813 21.9072 111.825 21.9076 111.836 21.9076C112.009 21.9076 112.176 21.8382 112.304 21.7131C112.428 21.5875 112.498 21.4115 112.498 21.2273C112.498 21.2192 112.498 21.2111 112.498 21.2031C112.498 21.1984 112.498 21.1932 112.498 21.1884C112.498 21.0345 112.451 20.8851 112.364 20.7634C112.256 20.6227 112.117 20.5136 111.96 20.4468L111.556 20.249C111.353 20.1659 111.174 20.024 111.038 19.8402C110.927 19.6755 110.868 19.4766 110.868 19.2726C110.868 19.2641 110.868 19.255 110.868 19.2466C110.868 19.244 110.868 19.2414 110.868 19.239C110.868 18.9859 110.968 18.7451 111.143 18.5782C111.33 18.4078 111.566 18.314 111.81 18.314C111.822 18.314 111.834 18.3142 111.846 18.3145C111.856 18.3142 111.866 18.314 111.876 18.314C112.055 18.314 112.232 18.3642 112.388 18.4595C112.547 18.562 112.673 18.7157 112.748 18.8994L112.404 19.1368C112.341 19.0093 112.253 18.8981 112.146 18.8116C112.053 18.7399 111.942 18.7016 111.828 18.7016C111.825 18.7016 111.821 18.7016 111.818 18.7016C111.812 18.7014 111.806 18.7012 111.799 18.7012C111.664 18.7012 111.533 18.7563 111.434 18.8555C111.341 18.9569 111.288 19.0946 111.288 19.238C111.288 19.2438 111.288 19.2499 111.288 19.2557C111.288 19.2594 111.288 19.2635 111.288 19.2675C111.288 19.3903 111.329 19.5094 111.402 19.6031C111.499 19.7181 111.619 19.8084 111.753 19.8666L112.206 20.1087L112.206 20.1085Z" fill="white"/>
<path d="M114.721 20.1085C114.926 20.2008 115.104 20.3536 115.235 20.548C115.347 20.725 115.408 20.9357 115.408 21.1511C115.408 21.1567 115.408 21.1625 115.408 21.1681C115.409 21.1813 115.409 21.1945 115.409 21.2075C115.409 21.5097 115.298 21.7996 115.101 22.0125C114.894 22.2194 114.622 22.3344 114.34 22.3344C114.324 22.3344 114.308 22.3339 114.292 22.3333C114.28 22.3335 114.268 22.3339 114.256 22.3339C114.022 22.3339 113.793 22.252 113.605 22.1002C113.413 21.9385 113.279 21.7079 113.229 21.4496L113.605 21.2473C113.637 21.4451 113.724 21.6279 113.855 21.7706C113.968 21.8839 114.117 21.9468 114.271 21.9468C114.278 21.9468 114.285 21.9466 114.292 21.9466C114.303 21.947 114.315 21.9474 114.327 21.9474C114.5 21.9474 114.668 21.8782 114.797 21.7529C114.919 21.6253 114.988 21.4494 114.988 21.2656C114.988 21.2581 114.987 21.2501 114.987 21.2429C114.987 21.238 114.987 21.233 114.987 21.2282C114.987 21.0743 114.94 20.9247 114.854 20.8032C114.747 20.6606 114.607 20.5512 114.449 20.4863L114.045 20.2885C113.843 20.2057 113.665 20.0642 113.532 19.8798C113.421 19.7151 113.361 19.5162 113.361 19.3123C113.361 19.3037 113.361 19.2948 113.361 19.2862C113.361 19.2784 113.361 19.2704 113.361 19.2626C113.361 19.0142 113.462 18.7782 113.637 18.6178C113.821 18.4468 114.056 18.353 114.298 18.353C114.312 18.353 114.326 18.3532 114.34 18.354C114.348 18.354 114.357 18.3538 114.365 18.3538C114.546 18.3538 114.724 18.404 114.882 18.4993C115.04 18.602 115.164 18.7555 115.238 18.9388L114.898 19.1763C114.834 19.0486 114.744 18.9375 114.635 18.851C114.543 18.7793 114.432 18.741 114.318 18.741C114.314 18.741 114.311 18.741 114.308 18.741C114.302 18.7408 114.296 18.7408 114.29 18.7408C114.156 18.7408 114.026 18.7959 113.928 18.8949C113.832 18.9945 113.778 19.1323 113.778 19.2762C113.778 19.2823 113.778 19.2888 113.778 19.295C113.778 19.2987 113.778 19.3028 113.778 19.3067C113.778 19.4295 113.818 19.5486 113.891 19.6424C113.99 19.7585 114.112 19.8487 114.247 19.9062L114.72 20.1085H114.721Z" fill="white"/>
<path d="M118.779 19.3348C118.628 19.1536 118.447 19.004 118.245 18.8951C118.053 18.8026 117.845 18.7545 117.635 18.7545C117.631 18.7545 117.626 18.7545 117.622 18.7545C117.248 18.7571 116.889 18.9238 116.628 19.2163C116.497 19.36 116.395 19.5325 116.328 19.7219C116.262 19.9193 116.227 20.1289 116.227 20.3393C116.227 20.5021 116.248 20.6642 116.288 20.8209C116.328 20.9662 116.388 21.1045 116.466 21.2299C116.599 21.4377 116.775 21.6097 116.98 21.731C117.183 21.846 117.409 21.9067 117.639 21.9069C117.641 21.907 117.644 21.9071 117.646 21.9071C117.858 21.9071 118.068 21.8542 118.258 21.753C118.459 21.649 118.636 21.499 118.779 21.3134V21.916C118.609 22.0492 118.421 22.1531 118.221 22.2234C118.024 22.2935 117.817 22.3293 117.609 22.3293C117.607 22.3293 117.605 22.3293 117.603 22.3293C117.237 22.3252 116.881 22.2024 116.58 21.9772C116.334 21.7986 116.133 21.5548 115.997 21.2695C115.865 20.9911 115.795 20.6817 115.795 20.3682C115.795 20.3624 115.795 20.3562 115.795 20.3505C115.795 20.3441 115.795 20.3371 115.795 20.3309C115.795 20.0652 115.842 19.8014 115.933 19.5548C116.119 19.0661 116.479 18.6789 116.931 18.4818C117.155 18.3923 117.392 18.3462 117.63 18.3462C117.83 18.3462 118.03 18.3786 118.221 18.4422C118.42 18.5163 118.608 18.6216 118.779 18.7546V19.3348H118.779Z" fill="white"/>
<path d="M119.484 22.2147V18.4202L121.316 18.4203V18.8336H119.888V19.9196H121.308V20.3593H119.888V21.8102H121.308V22.2499L119.484 22.2147Z" fill="white"/>
<path d="M122.021 22.2148V18.2576L124.565 21.287V18.4072H124.969V22.3644L122.426 19.3702V22.2192L122.021 22.2148Z" fill="white"/>
<path d="M126.439 22.2148V18.6973L125.412 18.6975V18.2578H127.899V18.6975H126.876V22.215L126.439 22.2148Z" fill="white"/>
<path d="M110.18 12.3044H110.398V5.87158H110.18V12.3044Z" fill="white"/>
<path d="M110.292 12.423C110.291 12.423 110.29 12.423 110.289 12.423C110.245 12.423 110.206 12.393 110.191 12.3482L108.573 8.06146C108.564 8.04322 108.559 8.02274 108.559 8.00209C108.559 7.98125 108.564 7.96058 108.573 7.94272L110.191 5.79702C110.211 5.76948 110.241 5.75366 110.273 5.75366C110.286 5.75366 110.3 5.75646 110.312 5.76186C110.354 5.77935 110.383 5.82251 110.385 5.87163V12.3C110.385 12.3571 110.348 12.4065 110.296 12.4185L110.292 12.4232L110.292 12.423ZM108.808 8.02591L110.183 11.6841L110.182 6.21013L108.808 8.02591H108.808Z" fill="white"/>
<path d="M110.292 12.4231C110.286 12.425 110.279 12.4261 110.272 12.4261C110.265 12.4261 110.258 12.4251 110.252 12.4229L106.45 10.8621C106.41 10.8459 106.382 10.807 106.378 10.761L106.151 7.96457C106.151 7.95973 106.15 7.95491 106.15 7.94989C106.15 7.90523 106.175 7.86446 106.212 7.84585C106.23 7.83208 106.252 7.82446 106.275 7.82446C106.297 7.82446 106.319 7.8319 106.337 7.84585L110.381 12.2076C110.395 12.2294 110.403 12.2556 110.403 12.2824C110.403 12.3092 110.395 12.3355 110.381 12.3572C110.364 12.3941 110.33 12.4188 110.292 12.4231ZM106.592 10.6642L109.851 12.0053L106.394 8.2679L106.592 10.6642Z" fill="white"/>
<path d="M110.293 12.4234C110.265 12.423 110.237 12.4103 110.216 12.3878L106.173 8.02605C106.151 8.00465 106.139 7.97414 106.139 7.94213C106.139 7.92557 106.142 7.90921 106.148 7.89432C106.164 7.85171 106.203 7.82397 106.246 7.82397C106.247 7.82397 106.248 7.82397 106.249 7.82397L108.676 7.89877C108.719 7.89952 108.758 7.9293 108.773 7.97358L110.39 12.2603C110.397 12.2754 110.4 12.2922 110.4 12.3089C110.4 12.372 110.353 12.4234 110.295 12.4234C110.293 12.4234 110.291 12.4234 110.289 12.4232H110.293V12.4234ZM106.532 8.07035L109.986 11.8078L108.611 8.13641L106.532 8.07053V8.07035Z" fill="white"/>
<path d="M108.074 15.1272H108.033L104.252 13.5885C104.214 13.5719 104.187 13.5327 104.184 13.4874L103.949 10.6735C103.949 10.67 103.949 10.6665 103.949 10.6633C103.949 10.6162 103.975 10.5738 104.014 10.5548C104.028 10.5479 104.043 10.5442 104.058 10.5442C104.087 10.5442 104.116 10.5576 104.136 10.5812L108.163 14.9383C108.179 14.9586 108.187 14.9845 108.187 15.0109C108.187 15.0371 108.179 15.063 108.163 15.0835C108.142 15.1114 108.11 15.1276 108.077 15.1276C108.076 15.1276 108.075 15.1276 108.075 15.1276L108.074 15.1274L108.074 15.1272ZM104.394 13.3685L107.629 14.6877L104.188 10.9592L104.394 13.3685Z" fill="white"/>
<path d="M108.074 15.1271C108.045 15.1269 108.018 15.1145 107.997 15.092L103.982 10.739C103.961 10.7161 103.949 10.685 103.949 10.653C103.949 10.6374 103.952 10.6217 103.957 10.6072C103.975 10.5644 104.014 10.5369 104.057 10.5369C104.059 10.5369 104.061 10.5369 104.062 10.537L106.489 10.6251C106.532 10.6256 106.571 10.6554 106.586 10.6999L108.171 14.9649C108.177 14.9792 108.18 14.9948 108.18 15.0108C108.18 15.0497 108.161 15.0858 108.131 15.1054C108.114 15.118 108.095 15.1256 108.074 15.1277V15.1275L108.074 15.1271ZM104.333 10.7832L107.758 14.4986L106.404 10.8448L104.333 10.7832Z" fill="white"/>
<path d="M102.593 15.6154C102.552 15.6151 102.514 15.5896 102.496 15.5496C102.483 15.5304 102.477 15.5073 102.477 15.4837C102.477 15.4601 102.483 15.437 102.496 15.4178L104.194 13.3864C104.214 13.3618 104.243 13.3477 104.273 13.3477C104.287 13.3477 104.299 13.3503 104.312 13.3557L108.093 14.8944C108.137 14.9139 108.166 14.9606 108.166 15.0125C108.166 15.0155 108.166 15.0187 108.166 15.0218C108.158 15.0782 108.116 15.1218 108.064 15.1273L102.585 15.6154H102.593ZM104.32 13.6061L102.86 15.3648L107.575 14.947L104.32 13.6063V13.6061Z" fill="white"/>
<path d="M110.289 5.99486C110.289 5.99486 110.288 5.99486 110.287 5.99486C110.24 5.99486 110.2 5.96304 110.184 5.91577L108.971 2.27508C108.963 2.2587 108.959 2.24084 108.959 2.22242C108.959 2.20399 108.963 2.18576 108.971 2.16957L110.204 0.0547658C110.224 0.0214572 110.257 0.000976562 110.294 0.000976562C110.304 0.000976562 110.315 0.00283811 110.326 0.00637366C110.373 0.0203298 110.407 0.0670435 110.407 0.120821V5.87185C110.407 5.87222 110.407 5.87261 110.407 5.87298C110.407 5.93178 110.367 5.98183 110.314 5.99039L110.289 5.99486H110.289ZM109.177 2.24884L110.176 5.20792V0.529819L109.177 2.24884Z" fill="white"/>
<path d="M105.052 8.83071C105 8.8201 104.963 8.77115 104.963 8.71402C104.963 8.71347 104.963 8.71273 104.963 8.71217V2.18721C104.963 2.13362 104.996 2.08674 105.044 2.07278C105.054 2.06924 105.065 2.06738 105.076 2.06738C105.112 2.06738 105.146 2.08784 105.165 2.12134L106.569 4.54841C106.575 4.56479 106.579 4.58301 106.579 4.60106C106.579 4.61929 106.575 4.63734 106.569 4.65372L105.161 8.76036C105.145 8.80353 105.107 8.83163 105.064 8.83163C105.06 8.83163 105.056 8.83126 105.052 8.83107V8.83089L105.052 8.83071ZM105.165 2.59603V8.05251L106.342 4.62303L105.165 2.59623V2.59603Z" fill="white"/>
<path d="M110.289 5.9946C110.281 5.99683 110.272 5.99794 110.263 5.99794C110.254 5.99794 110.245 5.99683 110.237 5.9946L107.204 4.34572C107.173 4.32841 107.151 4.29548 107.147 4.25789L106.795 1.71639C106.795 1.71267 106.795 1.70858 106.795 1.70467C106.795 1.65685 106.82 1.61348 106.86 1.5932C106.875 1.58539 106.891 1.5813 106.907 1.5813C106.937 1.5813 106.966 1.59525 106.986 1.61962L110.37 5.80982C110.386 5.83104 110.394 5.85726 110.394 5.88462C110.394 5.91179 110.386 5.93821 110.37 5.95923C110.35 5.98194 110.323 5.9946 110.294 5.9946C110.292 5.9946 110.291 5.9946 110.289 5.99441H110.289V5.9946ZM107.353 4.1481L109.836 5.49348L107.066 2.06827L107.353 4.1481Z" fill="white"/>
<path d="M110.29 5.9947C110.257 5.99321 110.226 5.97739 110.205 5.95078L106.824 1.76507C106.81 1.7446 106.803 1.71985 106.803 1.69454C106.803 1.66923 106.811 1.64448 106.824 1.6242C106.843 1.58921 106.877 1.56763 106.915 1.56763C106.924 1.56763 106.933 1.56912 106.941 1.57135L109.093 2.11657C109.127 2.12736 109.156 2.15489 109.17 2.19136L110.403 5.83206C110.407 5.8449 110.409 5.85829 110.409 5.87187C110.409 5.91486 110.388 5.95487 110.355 5.9772C110.335 5.98855 110.313 5.9947 110.291 5.9947C110.29 5.9947 110.29 5.9947 110.29 5.9947H110.29H110.29ZM107.212 1.88805L109.982 5.31327L108.972 2.3367L107.212 1.88805Z" fill="white"/>
<path d="M105.05 8.83089C105.049 8.83089 105.048 8.83089 105.047 8.83089C105.003 8.83089 104.964 8.80111 104.949 8.75608L103.546 4.62303C103.539 4.60666 103.535 4.58842 103.535 4.57037C103.535 4.55232 103.539 4.53408 103.546 4.51771L104.949 2.11705C104.968 2.08188 105.004 2.0603 105.042 2.0603C105.102 2.0603 105.151 2.11333 105.151 2.17902C105.151 2.18032 105.151 2.18163 105.151 2.18275V8.71218C105.151 8.71274 105.151 8.71347 105.151 8.71403C105.151 8.77116 105.114 8.82009 105.062 8.83069H105.05L105.05 8.83089ZM103.772 4.59232L104.941 8.04823V2.59194L103.772 4.59232Z" fill="white"/>
<path d="M105.052 8.83066C105.044 8.8327 105.036 8.83382 105.028 8.83382C105.02 8.83382 105.012 8.8327 105.004 8.83066L101.55 6.95774C101.518 6.94025 101.496 6.90788 101.49 6.86973L101.085 3.98099C101.084 3.97485 101.084 3.96853 101.084 3.96239C101.084 3.91735 101.108 3.87641 101.146 3.85799C101.161 3.85017 101.178 3.8457 101.195 3.8457C101.225 3.8457 101.255 3.85985 101.275 3.88441L105.121 8.64178C105.143 8.66355 105.155 8.69407 105.155 8.72589C105.155 8.78898 105.108 8.84014 105.05 8.84014C105.046 8.84014 105.043 8.83995 105.04 8.83976L105.052 8.83084V8.83066ZM101.696 6.7642L104.599 8.33381L101.364 4.33715L101.696 6.7642Z" fill="white"/>
<path d="M105.051 8.83093C105.021 8.83074 104.991 8.81622 104.971 8.79148L101.121 4.03411C101.108 4.01345 101.102 3.9887 101.102 3.96377C101.102 3.93864 101.108 3.91428 101.121 3.89344C101.141 3.8579 101.176 3.83667 101.214 3.83667C101.224 3.83667 101.233 3.83797 101.242 3.84058L103.668 4.4649C103.705 4.47271 103.734 4.50154 103.745 4.53969L105.144 8.67256C105.149 8.68633 105.152 8.70141 105.152 8.7163C105.152 8.75761 105.132 8.79593 105.1 8.81752C105.084 8.82533 105.068 8.8298 105.051 8.83073L105.051 8.83093ZM101.513 4.15712L104.748 8.15396L103.575 4.68036L101.513 4.15712Z" fill="white"/>
<path d="M101.442 10.2555C101.442 10.2554 101.441 10.2554 101.441 10.2554C101.417 10.2554 101.392 10.2461 101.373 10.2289L99.3835 8.44814C99.3586 8.42674 99.3438 8.39362 99.3438 8.35864C99.3438 8.34413 99.3461 8.3296 99.3511 8.31639C99.3702 8.26912 99.4128 8.23805 99.4601 8.2373L105.061 8.59346C105.111 8.59997 105.152 8.64092 105.162 8.69469C105.163 8.70009 105.164 8.70567 105.164 8.71107C105.164 8.76261 105.134 8.80857 105.09 8.82662L101.478 10.2468L101.442 10.2555H101.442ZM99.7836 8.49671L101.466 10.0006L104.523 8.78272L99.7836 8.49671Z" fill="white"/>
<path d="M105.053 8.83089L99.4561 8.47919C99.4077 8.47546 99.3673 8.43806 99.355 8.38689C99.353 8.3774 99.3516 8.36792 99.3516 8.35787C99.3516 8.3173 99.3715 8.2799 99.4037 8.25943L101.547 6.74248C101.564 6.73262 101.582 6.72778 101.601 6.72778C101.62 6.72778 101.639 6.73281 101.656 6.74248L105.11 8.6154C105.147 8.6342 105.17 8.67476 105.17 8.71924C105.17 8.73022 105.169 8.74119 105.166 8.75198C105.151 8.79962 105.109 8.83163 105.063 8.83163C105.06 8.83163 105.056 8.83144 105.053 8.83107L105.053 8.83089ZM99.7959 8.25923L104.523 8.56274L101.603 6.97992L99.7959 8.25943V8.25923Z" fill="white"/>
<path d="M96.9531 14.3927C96.9039 14.3924 96.8606 14.3563 96.8478 14.3047L95.6914 9.13836C95.6888 9.12849 95.6875 9.11827 95.6875 9.10785C95.6875 9.06542 95.709 9.02633 95.7438 9.00661C95.7622 8.99098 95.7851 8.98242 95.8083 8.98242C95.8317 8.98242 95.8549 8.99098 95.8731 9.00661L97.414 10.5851C97.4353 10.6075 97.4472 10.6382 97.4472 10.6704C97.4472 10.6758 97.4468 10.6808 97.4462 10.6862L97.0418 14.2698C97.0361 14.3265 96.9936 14.3712 96.941 14.3749L96.9529 14.3927H96.9531ZM95.9905 9.47276L96.9165 13.6014L97.224 10.7346L95.9905 9.47276Z" fill="white"/>
<path d="M96.9532 14.3928C96.953 14.3928 96.9525 14.3928 96.9522 14.3928C96.9173 14.3928 96.8846 14.3749 96.8642 14.3444L95.0203 11.4205C95.0134 11.4041 95.0098 11.3859 95.0098 11.3678C95.0098 11.3496 95.0133 11.3315 95.0206 11.3152L95.7079 9.07734C95.7203 9.02766 95.7618 8.99341 95.8089 8.99341C95.8103 8.99341 95.8114 8.99341 95.8126 8.99341C95.8622 8.99713 95.9044 9.03417 95.9179 9.08609L97.0704 14.2525C97.073 14.2623 97.0746 14.2727 97.0746 14.2832C97.0746 14.3293 97.049 14.371 97.0101 14.3889C96.9991 14.3937 96.9875 14.3961 96.9756 14.3961C96.9682 14.3961 96.9605 14.3952 96.9532 14.3931V14.3933V14.3928ZM95.2346 11.315L96.7066 13.6585L95.7805 9.52543L95.2346 11.315Z" fill="white"/>
<path d="M96.9536 14.393H96.9333L93.8682 13.751C93.8313 13.7456 93.7999 13.7185 93.7871 13.6807L92.9785 11.4823C92.9721 11.4669 92.9688 11.4505 92.9688 11.434C92.9688 11.3999 92.9827 11.3675 93.0067 11.3459C93.0265 11.3312 93.0498 11.3232 93.0735 11.3232C93.0973 11.3232 93.1206 11.3312 93.1401 11.3459L97.026 14.1731C97.0564 14.1949 97.0749 14.2323 97.0749 14.2721C97.0749 14.2879 97.0721 14.3035 97.0662 14.318C97.0516 14.3635 97.0118 14.394 96.9675 14.394C96.9626 14.394 96.9582 14.3936 96.9533 14.393H96.9536ZM93.9651 13.5136L96.4358 14.0588L93.2936 11.7769L93.9651 13.5136Z" fill="white"/>
<path d="M96.9515 14.3927C96.9417 14.3957 96.9311 14.3972 96.9209 14.3972C96.9107 14.3972 96.9004 14.3957 96.8907 14.3927L93.0046 11.5656C92.9736 11.5445 92.9551 11.5079 92.9551 11.4684C92.9551 11.4565 92.9569 11.445 92.9601 11.4336C92.9729 11.3856 93.0114 11.3508 93.0572 11.3456L95.1033 11.2444C95.1052 11.2444 95.1074 11.2444 95.1094 11.2444C95.1458 11.2444 95.18 11.2643 95.2002 11.297L97.0405 14.2252C97.0568 14.2461 97.066 14.2727 97.066 14.3C97.066 14.3276 97.0567 14.354 97.0402 14.3748C97.0232 14.3893 97.002 14.3973 96.9804 14.3973C96.9707 14.3973 96.9611 14.3957 96.9515 14.3925V14.3927ZM93.401 11.5479L96.539 13.8343L95.0546 11.4688L93.4007 11.5479H93.401Z" fill="white"/>
<path d="M94.3488 16.3981H94.3043L92.4162 15.475C92.3776 15.4539 92.3535 15.4113 92.3535 15.3648C92.3535 15.3095 92.3874 15.2612 92.4364 15.2461L96.929 14.1689C96.9368 14.1672 96.9453 14.1663 96.9532 14.1663C96.9962 14.1663 97.0357 14.1929 97.0546 14.2349C97.0601 14.2498 97.063 14.2658 97.063 14.282C97.063 14.3205 97.0462 14.3568 97.0183 14.3803L94.4141 16.3851C94.3974 16.394 94.3787 16.3987 94.3601 16.3987C94.3564 16.3987 94.3531 16.3985 94.3493 16.3981H94.3488ZM92.796 15.3782L94.3246 16.1257L96.4355 14.5032L92.796 15.3782Z" fill="white"/>
<path d="M92.4597 15.4743C92.4206 15.4728 92.3853 15.4496 92.3668 15.4126C92.3533 15.393 92.3457 15.369 92.3457 15.3445C92.3457 15.3199 92.3533 15.2959 92.3668 15.2763L93.7943 13.5529C93.8145 13.5287 93.8428 13.5149 93.8725 13.5149C93.8802 13.5149 93.8881 13.5158 93.8954 13.5175L96.9607 14.1595C97.0119 14.1681 97.0497 14.2162 97.0497 14.2724C97.0497 14.273 97.0497 14.2734 97.0497 14.2739C97.0493 14.3301 97.0148 14.3787 96.9649 14.3928L92.4721 15.4699L92.4599 15.4745L92.4597 15.4743ZM93.9275 13.7639L92.7711 15.1576L96.4105 14.2782L93.9275 13.7639Z" fill="white"/>
<path d="M102.544 14.7401C102.536 14.7422 102.528 14.7431 102.52 14.7431C102.512 14.7431 102.504 14.7422 102.496 14.7401L99.0423 12.8759C99.0101 12.8579 98.9887 12.8229 98.9855 12.7837L98.5811 9.89921C98.5803 9.89307 98.5801 9.88674 98.5801 9.8806C98.5801 9.83557 98.604 9.79462 98.6419 9.7762C98.6573 9.76838 98.6738 9.76392 98.6906 9.76392C98.7216 9.76392 98.7508 9.77806 98.7712 9.80262L102.617 14.5512C102.632 14.5734 102.641 14.6004 102.641 14.6281C102.641 14.656 102.632 14.683 102.617 14.7051C102.598 14.7263 102.572 14.7388 102.544 14.7401ZM99.1918 12.6737L102.096 14.2433L98.8602 10.2511L99.1918 12.6737Z" fill="white"/>
<path d="M102.544 14.7401C102.512 14.7383 102.483 14.7223 102.463 14.696L98.6171 9.94762C98.6043 9.92678 98.5977 9.90221 98.5977 9.87728C98.5977 9.85216 98.6043 9.82779 98.6171 9.80695C98.6367 9.77141 98.672 9.75 98.7101 9.75C98.7195 9.75 98.7291 9.7515 98.7382 9.75411L101.165 10.3695C101.2 10.379 101.229 10.4071 101.242 10.4445L102.641 14.5775C102.645 14.5902 102.647 14.6036 102.647 14.617C102.647 14.6601 102.626 14.7001 102.592 14.7223C102.577 14.7314 102.561 14.7374 102.544 14.74V14.7401ZM99.0094 10.0706L102.244 14.0628L101.068 10.5894L99.0094 10.0706Z" fill="white"/>
<path d="M98.9391 16.1691C98.9393 16.1691 98.9388 16.1691 98.9388 16.1691C98.9141 16.1691 98.8896 16.1598 98.8704 16.1427L96.8848 14.384C96.8587 14.3623 96.8438 14.3288 96.8438 14.2932C96.8438 14.2774 96.8465 14.262 96.8524 14.2475C96.8693 14.2024 96.9091 14.1729 96.9538 14.1729C96.9551 14.1729 96.9561 14.1729 96.9575 14.1729L102.554 14.5158C102.605 14.5208 102.647 14.5621 102.655 14.6168C102.656 14.6239 102.657 14.6308 102.657 14.6379C102.657 14.6872 102.629 14.7313 102.586 14.7488L98.9754 16.1777L98.9391 16.1689V16.1691ZM97.281 14.4103L98.9594 15.9096L102.008 14.7006L97.2812 14.4103H97.281Z" fill="white"/>
<path d="M102.544 14.7402L96.947 14.393C96.8997 14.3921 96.8593 14.3554 96.8499 14.305C96.8476 14.2948 96.8457 14.2844 96.8457 14.2737C96.8457 14.2347 96.8641 14.1986 96.8944 14.1773L99.0376 12.6559C99.0535 12.6457 99.0717 12.6401 99.09 12.6401C99.1087 12.6401 99.1268 12.6455 99.1427 12.6559L102.596 14.5201C102.635 14.5408 102.659 14.5838 102.659 14.6305C102.659 14.639 102.659 14.648 102.657 14.6563C102.64 14.7064 102.596 14.7399 102.547 14.7399C102.546 14.7399 102.544 14.7399 102.544 14.7399V14.7402ZM97.2866 14.1773L102.014 14.4675L99.0942 12.8934L97.2866 14.1773Z" fill="white"/>
<path d="M110.295 12.4232H110.275C110.223 12.4109 110.186 12.3616 110.186 12.3043V5.87163C110.187 5.82251 110.216 5.77933 110.258 5.76184C110.271 5.75644 110.284 5.75366 110.297 5.75366C110.329 5.75366 110.36 5.76948 110.38 5.79702L111.997 7.94272C112.007 7.96058 112.012 7.98125 112.012 8.00209C112.012 8.02274 112.007 8.04339 111.997 8.06144L110.4 12.3482C110.385 12.3932 110.345 12.4232 110.301 12.4232C110.299 12.4232 110.297 12.4232 110.295 12.423V12.4232ZM110.4 6.21031V11.6975L111.763 8.03949L110.4 6.21031Z" fill="white"/>
<path d="M110.293 12.4232C110.293 12.423 110.292 12.423 110.291 12.423C110.255 12.423 110.22 12.4033 110.2 12.3703C110.184 12.3491 110.176 12.3229 110.176 12.2955C110.176 12.2684 110.184 12.242 110.2 12.2207L114.244 7.85898C114.262 7.84558 114.283 7.83813 114.305 7.83813C114.326 7.83813 114.348 7.84558 114.365 7.85916C114.405 7.87684 114.431 7.91871 114.431 7.96505C114.431 7.96933 114.43 7.97361 114.43 7.97808L114.184 10.7877C114.178 10.832 114.152 10.8705 114.115 10.8888L110.334 12.4364C110.332 12.4366 110.331 12.4366 110.33 12.4366C110.317 12.4366 110.304 12.4319 110.293 12.4234V12.4232ZM114.179 8.25924L110.73 11.9967L113.965 10.6776L114.179 8.25944V8.25924Z" fill="white"/>
<path d="M110.293 12.4232C110.283 12.4264 110.273 12.4281 110.263 12.4281C110.253 12.4281 110.242 12.4264 110.232 12.4232C110.202 12.4013 110.184 12.3641 110.184 12.3241C110.184 12.3082 110.186 12.2926 110.192 12.2781L111.789 7.99116C111.805 7.94762 111.843 7.91839 111.886 7.91653L114.312 7.84173C114.313 7.84155 114.313 7.84155 114.313 7.84155C114.357 7.84155 114.398 7.86889 114.418 7.91188C114.424 7.92658 114.427 7.9426 114.427 7.9586C114.427 7.99079 114.415 8.02148 114.394 8.04381L110.35 12.4056C110.333 12.4169 110.313 12.4229 110.293 12.4231V12.4232ZM111.963 8.1363L110.596 11.8077L114.042 8.07025L111.963 8.13612V8.1363Z" fill="white"/>
<path d="M112.502 15.1224C112.464 15.1215 112.429 15.1001 112.409 15.0653C112.393 15.045 112.385 15.0191 112.385 14.9927C112.385 14.9663 112.393 14.9404 112.409 14.9199L116.424 10.5716C116.444 10.5481 116.472 10.5349 116.502 10.5349C116.517 10.5349 116.532 10.5386 116.546 10.5453C116.585 10.5643 116.61 10.6069 116.61 10.6538C116.61 10.6572 116.611 10.6607 116.61 10.664L116.38 13.478C116.375 13.5239 116.347 13.5628 116.307 13.5792L112.522 15.1136L112.502 15.1224ZM116.38 10.9674L112.938 14.7003L116.174 13.3812L116.38 10.9676V10.9674Z" fill="white"/>
<path d="M112.501 15.1225C112.479 15.1224 112.458 15.1147 112.44 15.1004C112.41 15.0809 112.391 15.0448 112.391 15.0059C112.391 14.99 112.394 14.9744 112.4 14.9599L114.018 10.6862C114.032 10.6419 114.071 10.6123 114.115 10.6114L116.541 10.5366C116.543 10.5364 116.544 10.5364 116.546 10.5364C116.589 10.5364 116.628 10.5639 116.646 10.6067C116.651 10.6212 116.654 10.6368 116.654 10.6525C116.654 10.6847 116.642 10.7156 116.622 10.7386L112.606 15.0872C112.584 15.111 112.554 15.1246 112.523 15.1246C112.515 15.1246 112.508 15.124 112.501 15.1225ZM114.175 10.8488L112.804 14.5068L116.241 10.7827L114.175 10.8486L114.175 10.8488Z" fill="white"/>
<path d="M117.986 15.6153L112.502 15.1229C112.448 15.1126 112.408 15.0613 112.408 15.0015C112.408 14.9535 112.434 14.91 112.474 14.8899L116.259 13.3555C116.271 13.3504 116.285 13.3477 116.298 13.3477C116.329 13.3477 116.359 13.3616 116.38 13.386L118.074 15.4175C118.094 15.4387 118.106 15.4679 118.106 15.4986C118.106 15.5162 118.102 15.5336 118.095 15.5492C118.075 15.59 118.036 15.6156 117.994 15.6156C117.991 15.6156 117.988 15.6154 117.985 15.6153V15.6151L117.986 15.6153ZM113.015 14.9381L117.731 15.378L116.271 13.6191L113.015 14.9381Z" fill="white"/>
<path d="M110.289 5.99481H110.269C110.215 5.98625 110.176 5.93601 110.176 5.87758C110.176 5.87702 110.176 5.87665 110.176 5.87609L110.176 0.120771C110.176 0.119283 110.176 0.117785 110.176 0.116483C110.176 0.0651242 110.207 0.0200939 110.253 0.00632387C110.264 0.00204399 110.275 0 110.287 0C110.323 0 110.356 0.0208491 110.374 0.054716L111.608 2.16952C111.615 2.18571 111.62 2.20394 111.62 2.22237C111.62 2.24079 111.615 2.25865 111.608 2.27503L110.395 5.91572C110.379 5.96299 110.338 5.99481 110.291 5.99481C110.291 5.99481 110.29 5.99481 110.29 5.99481H110.289H110.289ZM110.398 0.529769V5.20805L111.401 2.24899L110.398 0.529769Z" fill="white"/>
<path d="M115.522 8.83089C115.522 8.83089 115.521 8.83089 115.52 8.83089C115.476 8.83089 115.437 8.80111 115.422 8.75608L114.014 4.64945C114.008 4.63289 114.004 4.61484 114.004 4.59679C114.004 4.57874 114.008 4.5605 114.014 4.54413L115.417 2.11705C115.437 2.08188 115.473 2.0603 115.51 2.0603C115.571 2.0603 115.62 2.11333 115.62 2.17902C115.62 2.18032 115.62 2.18163 115.62 2.18275V8.71218C115.62 8.71274 115.62 8.71347 115.62 8.71403C115.62 8.77116 115.582 8.82009 115.531 8.83069H115.522V8.83089ZM114.237 4.62303L115.413 8.05251V2.59603L114.237 4.62283V4.62303Z" fill="white"/>
<path d="M110.289 5.99472C110.289 5.99472 110.288 5.99472 110.288 5.99472C110.253 5.99472 110.221 5.97685 110.2 5.94633C110.184 5.9253 110.176 5.89907 110.176 5.87172C110.176 5.84455 110.184 5.81813 110.2 5.79692L113.585 1.60672C113.606 1.58104 113.636 1.56616 113.667 1.56616C113.728 1.56616 113.777 1.61938 113.777 1.68488C113.777 1.69102 113.776 1.69735 113.775 1.70349L113.427 4.24499C113.42 4.28258 113.398 4.3146 113.366 4.33302L110.333 5.98188C110.32 5.98932 110.305 5.99398 110.289 5.99491L110.289 5.99472ZM113.524 2.0684L110.754 5.49361L113.237 4.14823L113.524 2.0684Z" fill="white"/>
<path d="M110.289 5.99457C110.279 5.9968 110.27 5.99791 110.26 5.99791C110.251 5.99791 110.241 5.9968 110.232 5.99457C110.198 5.97243 110.178 5.93241 110.178 5.88943C110.178 5.87603 110.18 5.86245 110.184 5.84979L111.397 2.20912C111.412 2.17358 111.44 2.14658 111.474 2.1343L113.625 1.58909C113.632 1.5876 113.64 1.58667 113.647 1.58667C113.708 1.58667 113.756 1.63989 113.756 1.70539C113.756 1.73367 113.747 1.76102 113.73 1.7826L110.35 5.96833C110.332 5.9834 110.311 5.99252 110.289 5.99475L110.289 5.99457ZM111.603 2.33658L110.592 5.31314L113.362 1.88793L111.603 2.33658H111.603Z" fill="white"/>
<path d="M115.521 8.83071H115.501C115.449 8.8201 115.412 8.77115 115.412 8.71402C115.412 8.71346 115.412 8.71273 115.412 8.71217V2.18721C115.412 2.13362 115.445 2.08674 115.493 2.07278C115.503 2.06924 115.514 2.06738 115.525 2.06738C115.561 2.06738 115.595 2.08784 115.615 2.12134L117.018 4.52197C117.026 4.53816 117.03 4.55621 117.03 4.57463C117.03 4.59324 117.026 4.61111 117.018 4.6273L115.618 8.76036C115.601 8.80223 115.564 8.82959 115.522 8.83071H115.522H115.521ZM115.626 2.59176V8.04822L116.795 4.59231L115.626 2.59176Z" fill="white"/>
<path d="M115.521 8.83103C115.52 8.83103 115.519 8.83103 115.517 8.83103C115.485 8.83103 115.455 8.81484 115.436 8.78711C115.419 8.76571 115.41 8.73836 115.41 8.71008C115.41 8.6818 115.42 8.65463 115.436 8.63323L119.282 3.87586C119.303 3.8513 119.332 3.83716 119.363 3.83716C119.379 3.83716 119.396 3.84144 119.411 3.84962C119.449 3.86786 119.473 3.90879 119.473 3.95382C119.473 3.96015 119.473 3.96649 119.472 3.97263L119.068 6.86135C119.064 6.89931 119.042 6.93207 119.011 6.94937L115.553 8.82227C115.543 8.82711 115.532 8.8301 115.521 8.83103ZM119.205 4.33753L115.97 8.33419L118.873 6.76458L119.205 4.33753Z" fill="white"/>
<path d="M115.523 8.83094C115.513 8.83318 115.504 8.83411 115.494 8.83411C115.485 8.83411 115.476 8.83318 115.466 8.83094C115.434 8.80936 115.414 8.77102 115.414 8.72971C115.414 8.71463 115.416 8.69974 115.422 8.68579L116.821 4.55274C116.832 4.5144 116.861 4.48574 116.898 4.47792L119.324 3.85362C119.333 3.85139 119.342 3.8501 119.351 3.8501C119.411 3.8501 119.46 3.90311 119.46 3.96862C119.46 3.99764 119.45 4.02557 119.433 4.04716L115.604 8.78255C115.585 8.81177 115.555 8.82983 115.523 8.83094H115.523ZM117.007 4.68038L115.83 8.15378L119.065 4.15713L117.007 4.68038Z" fill="white"/>
<path d="M119.133 10.2553H119.096L115.485 8.83511C115.441 8.81408 115.412 8.76664 115.412 8.71379C115.412 8.71007 115.412 8.70653 115.412 8.703C115.423 8.64773 115.466 8.60661 115.517 8.60196L121.114 8.24579C121.114 8.2456 121.115 8.24561 121.115 8.24561C121.162 8.24561 121.205 8.27687 121.223 8.32469C121.228 8.33809 121.231 8.35261 121.231 8.36694C121.231 8.40192 121.216 8.43485 121.191 8.45644L119.201 10.2372C119.184 10.2492 119.164 10.2555 119.143 10.2555C119.14 10.2555 119.136 10.2553 119.132 10.2549L119.133 10.2553ZM116.059 8.79994L119.112 10.0004L120.791 8.49645L116.059 8.79994H116.059Z" fill="white"/>
<path d="M115.522 8.83078C115.473 8.83059 115.43 8.79448 115.417 8.74275C115.415 8.73382 115.414 8.72414 115.414 8.71484C115.414 8.66944 115.437 8.62794 115.474 8.60635L118.931 6.73345C118.947 6.72377 118.966 6.71875 118.984 6.71875C119.002 6.71875 119.02 6.72377 119.037 6.73345L121.18 8.25038C121.212 8.27085 121.232 8.30825 121.232 8.34882C121.232 8.35868 121.23 8.36818 121.228 8.37786C121.216 8.42903 121.175 8.46625 121.127 8.47015L115.53 8.82184L115.522 8.8304L115.522 8.83078ZM118.971 6.97981L116.052 8.56263L120.783 8.25912L118.971 6.97963V6.97981Z" fill="white"/>
<path d="M123.621 14.393C123.567 14.3912 123.522 14.3461 123.516 14.2873L123.132 10.7038C123.131 10.6988 123.131 10.6936 123.131 10.6882C123.131 10.655 123.145 10.6238 123.168 10.6027L124.705 9.02421C124.725 9.00281 124.753 8.99072 124.781 8.99072C124.841 8.99072 124.89 9.04394 124.89 9.10944C124.89 9.1193 124.889 9.12897 124.887 9.13864L123.734 14.305C123.722 14.3569 123.678 14.393 123.629 14.393C123.626 14.393 123.624 14.3929 123.621 14.3929V14.393H123.621ZM123.35 10.7349L123.662 13.6018L124.584 9.47323L123.35 10.735V10.7349Z" fill="white"/>
<path d="M123.62 14.3927C123.613 14.3948 123.606 14.3957 123.598 14.3957C123.591 14.3957 123.583 14.3948 123.576 14.3927C123.537 14.3749 123.512 14.3332 123.512 14.287C123.512 14.2766 123.513 14.2664 123.516 14.2561L124.672 9.08977C124.686 9.03879 124.728 9.00342 124.777 9.00342C124.826 9.00342 124.869 9.03896 124.882 9.09013L125.566 11.3326C125.573 11.349 125.577 11.3672 125.577 11.3853C125.577 11.4035 125.573 11.4216 125.566 11.4379L123.73 14.3618C123.708 14.384 123.678 14.3961 123.648 14.3961C123.639 14.3961 123.63 14.395 123.621 14.3927H123.62ZM124.793 9.55627L123.871 13.6892L125.339 11.3501L124.793 9.55627Z" fill="white"/>
<path d="M123.62 14.3928C123.619 14.3928 123.618 14.3928 123.616 14.3928C123.574 14.3928 123.536 14.3649 123.519 14.3223C123.514 14.3082 123.512 14.2931 123.512 14.278C123.512 14.238 123.53 14.2004 123.56 14.1774L127.45 11.3502C127.469 11.3355 127.491 11.3271 127.515 11.3271C127.538 11.3271 127.561 11.3353 127.579 11.3502C127.604 11.3735 127.619 11.4077 127.619 11.4436C127.619 11.4583 127.616 11.4729 127.612 11.4866L126.803 13.685C126.789 13.7216 126.758 13.7481 126.722 13.7553L123.653 14.3973L123.62 14.393L123.62 14.3928ZM127.26 11.7548L124.134 14.0586L126.609 13.5441L127.26 11.7548Z" fill="white"/>
<path d="M123.622 14.3929C123.621 14.3929 123.619 14.3929 123.618 14.3929C123.59 14.3929 123.564 14.3801 123.545 14.3578C123.53 14.3364 123.521 14.3103 123.521 14.283C123.521 14.2558 123.53 14.2294 123.545 14.2082L125.39 11.2753C125.408 11.2426 125.441 11.2227 125.476 11.2227C125.478 11.2227 125.48 11.2227 125.483 11.2229L127.529 11.3284C127.589 11.3289 127.637 11.3819 127.637 11.4473C127.637 11.4886 127.618 11.5267 127.585 11.5483L123.695 14.3755C123.678 14.3877 123.658 14.3942 123.638 14.3942C123.632 14.3942 123.627 14.3939 123.622 14.3931H123.622V14.3929ZM125.523 11.4648L124.035 13.8347L127.173 11.5485L125.523 11.4649V11.4648Z" fill="white"/>
<path d="M126.225 16.3979C126.202 16.3967 126.18 16.3891 126.161 16.3761L123.56 14.3753C123.529 14.3536 123.51 14.3158 123.51 14.2752C123.51 14.2097 123.559 14.1565 123.619 14.1565C123.628 14.1565 123.637 14.1576 123.645 14.1599L128.138 15.2371C128.187 15.2518 128.221 15.3004 128.221 15.3554C128.221 15.402 128.196 15.4448 128.158 15.4654L126.27 16.3887L126.225 16.3977V16.3979ZM124.13 14.5205L126.237 16.1429L127.766 15.3954L124.13 14.5205Z" fill="white"/>
<path d="M128.114 15.4745H128.089L123.597 14.3973C123.547 14.3831 123.512 14.3346 123.512 14.2784C123.513 14.2222 123.55 14.1745 123.601 14.1639L126.666 13.5221C126.674 13.5203 126.682 13.5195 126.69 13.5195C126.721 13.5195 126.75 13.5331 126.771 13.5575L128.195 15.281C128.208 15.3007 128.215 15.3245 128.215 15.3493C128.215 15.3738 128.208 15.3977 128.195 15.4174C128.177 15.4488 128.148 15.47 128.114 15.4743V15.4745ZM124.163 14.2828L127.802 15.1623L126.65 13.7685L124.163 14.2828Z" fill="white"/>
<path d="M118.028 14.7404C118.028 14.7404 118.028 14.7404 118.027 14.7404C117.993 14.7404 117.96 14.7225 117.94 14.692C117.924 14.6699 117.916 14.6429 117.916 14.6152C117.916 14.5874 117.924 14.5603 117.939 14.5381L121.785 9.78968C121.806 9.76512 121.835 9.75098 121.866 9.75098C121.883 9.75098 121.899 9.75525 121.915 9.76344C121.952 9.78168 121.977 9.82263 121.977 9.86766C121.977 9.87399 121.976 9.88031 121.975 9.88645L121.571 12.7709C121.565 12.81 121.542 12.844 121.51 12.8632L118.057 14.7274C118.048 14.733 118.039 14.7374 118.029 14.7404L118.029 14.7406L118.028 14.7404ZM121.712 10.2512L118.477 14.2434L121.381 12.6736L121.712 10.2512Z" fill="white"/>
<path d="M118.028 14.7405C118.019 14.7427 118.01 14.7438 118 14.7438C117.99 14.7438 117.981 14.7427 117.972 14.7405C117.938 14.717 117.918 14.6766 117.918 14.6333C117.918 14.6206 117.92 14.6078 117.923 14.5953L119.323 10.4625C119.336 10.4239 119.366 10.3956 119.403 10.3876L121.85 9.77228C121.859 9.76967 121.868 9.76855 121.876 9.76855C121.914 9.76855 121.948 9.78996 121.967 9.82494C121.981 9.84523 121.988 9.86996 121.988 9.89527C121.988 9.92058 121.981 9.94533 121.967 9.96561L118.121 14.714C118.101 14.7325 118.076 14.7427 118.049 14.7427C118.042 14.7427 118.035 14.7421 118.029 14.7407L118.028 14.7405ZM119.508 10.5899L118.332 14.0633L121.567 10.0711L119.508 10.5899Z" fill="white"/>
<path d="M121.636 16.1691H121.599L117.988 14.7402C117.946 14.7225 117.918 14.6786 117.918 14.6291C117.918 14.622 117.918 14.6153 117.919 14.6082C117.928 14.5535 117.97 14.5122 118.021 14.507L123.617 14.1641C123.665 14.165 123.708 14.1963 123.727 14.2435C123.73 14.2558 123.732 14.2686 123.732 14.2817C123.732 14.3181 123.716 14.3529 123.69 14.3753L121.704 16.1341C121.686 16.1544 121.662 16.1669 121.636 16.1691ZM118.567 14.7048L121.616 15.9138L123.294 14.4145L118.567 14.7048Z" fill="white"/>
<path d="M118.027 14.7403C117.977 14.7397 117.933 14.7014 117.922 14.648C117.919 14.6372 117.918 14.6262 117.918 14.6152C117.918 14.5706 117.942 14.53 117.979 14.5116L121.433 12.6474C121.449 12.6366 121.468 12.6309 121.487 12.6309C121.506 12.6309 121.525 12.6366 121.542 12.6474L123.681 14.1688C123.711 14.1898 123.729 14.2259 123.729 14.265C123.729 14.2754 123.728 14.2861 123.726 14.2963C123.716 14.3465 123.675 14.3832 123.628 14.3843L118.032 14.7315L118.027 14.7403ZM121.473 12.8938L118.553 14.4679L123.281 14.1778L121.473 12.894V12.8938Z" fill="white"/>
<path d="M112.03 15.6193H108.596C108.558 15.6181 108.522 15.5947 108.504 15.5577C108.493 15.5398 108.488 15.5191 108.488 15.4981C108.488 15.4771 108.493 15.4566 108.504 15.4388L110.198 12.2424C110.219 12.2069 110.255 12.1853 110.293 12.1853C110.294 12.1853 110.294 12.1853 110.295 12.1853C110.333 12.1862 110.367 12.2076 110.388 12.2424L112.123 15.4388C112.133 15.4566 112.138 15.4773 112.138 15.4983C112.138 15.5193 112.133 15.5398 112.123 15.5577C112.104 15.5947 112.069 15.6181 112.03 15.6193H112.03ZM108.795 15.3818H111.844L110.303 12.5413L108.795 15.3818Z" fill="white"/>
<path d="M109.715 13.4197L110.9 13.418L110.9 13.1804L109.715 13.1823L109.715 13.4197Z" fill="white"/>
<path d="M110.18 34.1299H110.398V27.6973H110.18V34.1299Z" fill="white"/>
<path d="M110.289 34.2491C110.256 34.2485 110.225 34.2325 110.204 34.2051L108.587 32.0594C108.577 32.0416 108.572 32.0207 108.572 32.0001C108.572 31.9794 108.577 31.9586 108.587 31.9407L110.205 27.6538C110.221 27.6093 110.261 27.5801 110.306 27.5801C110.365 27.5801 110.414 27.6326 110.415 27.6979V34.1305C110.413 34.1797 110.384 34.2228 110.342 34.2403L110.289 34.2491ZM108.809 31.9627L110.18 33.7962V28.3045L108.809 31.9627Z" fill="white"/>
<path d="M106.262 32.1782C106.201 32.176 106.152 32.1215 106.152 32.055C106.152 32.0521 106.153 32.0491 106.153 32.0463L106.379 29.2499C106.383 29.2037 106.412 29.1643 106.452 29.149L110.253 27.5881C110.267 27.5824 110.28 27.5796 110.294 27.5796C110.331 27.5796 110.366 27.5989 110.387 27.6319C110.401 27.6536 110.409 27.6799 110.409 27.7067C110.409 27.7335 110.401 27.7597 110.387 27.7815L106.343 32.1432C106.321 32.1656 106.292 32.1782 106.262 32.1782H106.262ZM106.594 29.3466L106.396 31.743L109.853 28.0055L106.594 29.3466Z" fill="white"/>
<path d="M106.261 32.1781C106.217 32.1777 106.177 32.1481 106.16 32.1031C106.154 32.089 106.15 32.0728 106.15 32.0564C106.15 32.0253 106.163 31.9959 106.185 31.9757L110.228 27.6139C110.248 27.596 110.272 27.5862 110.297 27.5862C110.322 27.5862 110.347 27.596 110.366 27.6139C110.396 27.636 110.413 27.6727 110.413 27.712C110.413 27.7267 110.411 27.7408 110.406 27.7546L108.789 32.0413C108.774 32.086 108.735 32.1158 108.692 32.1163L106.265 32.1911L106.261 32.1779L106.261 32.1781ZM109.986 28.1947L106.532 31.9321L108.611 31.8662L109.986 28.1949V28.1947Z" fill="white"/>
<path d="M104.058 29.4476C104.051 29.4499 104.044 29.451 104.036 29.451C104.029 29.451 104.021 29.4499 104.014 29.4476C103.975 29.4287 103.949 29.386 103.949 29.3392C103.949 29.3358 103.949 29.3325 103.949 29.3289L104.184 26.515C104.187 26.4696 104.214 26.4303 104.253 26.4138L108.034 24.8749C108.048 24.8672 108.064 24.8635 108.08 24.8635C108.141 24.8635 108.189 24.9167 108.189 24.9822C108.189 25.0172 108.175 25.0502 108.151 25.0727L104.119 29.4476C104.109 29.4512 104.099 29.453 104.089 29.453C104.079 29.453 104.068 29.4512 104.059 29.4476H104.058ZM104.394 26.603L104.196 29.0124L107.637 25.2839L104.394 26.603Z" fill="white"/>
<path d="M104.058 29.4477C104.015 29.4471 103.976 29.4198 103.957 29.3773C103.952 29.3628 103.949 29.3472 103.949 29.3315C103.949 29.2994 103.961 29.2685 103.982 29.2454L107.997 24.8924C108.017 24.8753 108.041 24.866 108.066 24.866C108.091 24.866 108.115 24.8753 108.135 24.8924C108.165 24.9142 108.184 24.9516 108.184 24.9914C108.184 25.0072 108.181 25.0228 108.175 25.0373L106.59 29.2979C106.575 29.3425 106.536 29.3723 106.493 29.3729L104.067 29.4609L104.058 29.4475L104.058 29.4477ZM107.771 25.4906L104.334 29.2192L106.416 29.1444L107.771 25.4904V25.4906Z" fill="white"/>
<path d="M104.293 26.6559C104.293 26.6559 104.291 26.6559 104.291 26.6559C104.261 26.6559 104.232 26.6415 104.213 26.6164L102.514 24.5851C102.496 24.5634 102.486 24.5349 102.486 24.5057C102.486 24.4402 102.535 24.387 102.595 24.387C102.598 24.387 102.601 24.3871 102.603 24.3873L108.082 24.8752C108.134 24.8808 108.176 24.9246 108.184 24.9809C108.184 24.9839 108.184 24.9871 108.184 24.9902C108.184 25.0422 108.155 25.0889 108.111 25.1084L104.329 26.6471L104.293 26.6559ZM102.862 24.651L104.322 26.4097L107.557 25.0905L102.862 24.651Z" fill="white"/>
<path d="M110.287 39.9998C110.286 40 110.285 40 110.284 40C110.247 40 110.214 39.98 110.195 39.9471L108.961 37.8325C108.953 37.8159 108.949 37.7981 108.949 37.7796C108.949 37.7612 108.953 37.7432 108.961 37.7268L110.174 34.0861C110.186 34.0327 110.23 33.9951 110.281 33.9951C110.341 33.9951 110.39 34.0483 110.39 34.1138C110.39 34.1192 110.389 34.1246 110.388 34.13V39.8812C110.388 39.9348 110.355 39.9817 110.308 39.9957L110.287 40L110.287 39.9998ZM109.176 37.753L110.179 39.4721V34.794L109.176 37.753Z" fill="white"/>
<path d="M105.056 37.9381H105.028C104.981 37.9241 104.948 37.8772 104.947 37.8236V31.2899C104.948 31.2246 104.996 31.1721 105.056 31.1721C105.101 31.1721 105.141 31.2013 105.157 31.246L106.565 35.3525C106.572 35.369 106.575 35.3872 106.575 35.4053C106.575 35.4235 106.571 35.4416 106.565 35.458L105.162 37.885C105.141 37.9185 105.107 37.9388 105.07 37.9388C105.065 37.9388 105.061 37.9386 105.056 37.9379V37.9381ZM105.162 31.9496V37.4062L106.334 35.3794L105.162 31.9498V31.9496Z" fill="white"/>
<path d="M106.904 38.4348C106.897 38.4371 106.89 38.4382 106.882 38.4382C106.875 38.4382 106.867 38.4371 106.86 38.4348C106.82 38.4145 106.795 38.3708 106.795 38.3232C106.795 38.3195 106.795 38.3154 106.795 38.3116L107.147 35.7701C107.151 35.7324 107.173 35.6994 107.204 35.6821L110.237 34.0333C110.252 34.0262 110.268 34.0225 110.284 34.0225C110.319 34.0225 110.352 34.0392 110.374 34.0684C110.389 34.0906 110.398 34.1177 110.398 34.1454C110.398 34.1732 110.389 34.2003 110.374 34.2223L106.989 38.4082C106.971 38.4263 106.947 38.4363 106.922 38.4363C106.916 38.4363 106.91 38.4357 106.904 38.4346V38.4348ZM107.353 35.8539L107.066 37.9337L109.836 34.5085L107.353 35.8539Z" fill="white"/>
<path d="M106.903 38.4346C106.865 38.4337 106.83 38.4121 106.81 38.3775C106.796 38.3572 106.789 38.3325 106.789 38.3072C106.789 38.2819 106.796 38.2571 106.81 38.2368L110.191 34.0511C110.212 34.0236 110.243 34.0076 110.275 34.0076C110.335 34.0076 110.384 34.0606 110.384 34.1261C110.384 34.141 110.382 34.1557 110.377 34.1696L109.143 37.8103C109.131 37.8477 109.102 37.8758 109.066 37.8851L106.915 38.4304L106.903 38.4346ZM109.98 34.6886L107.21 38.1136L108.969 37.6739L109.98 34.6886Z" fill="white"/>
<path d="M105.056 37.9381C105.055 37.9381 105.054 37.9381 105.053 37.9381C105.017 37.9381 104.983 37.9182 104.963 37.8854L103.56 35.4891C103.553 35.4725 103.549 35.4545 103.549 35.4362C103.549 35.4182 103.553 35.3999 103.56 35.3836L104.963 31.2462C104.979 31.2016 105.02 31.1724 105.064 31.1724C105.124 31.1724 105.173 31.2248 105.173 31.2901V37.8019C105.173 37.8023 105.173 37.8026 105.173 37.8028C105.173 37.8547 105.142 37.9007 105.096 37.9161L105.056 37.9381ZM103.774 35.41L104.947 37.4106V31.9539L103.774 35.41Z" fill="white"/>
<path d="M101.206 36.166C101.198 36.1679 101.19 36.1688 101.182 36.1688C101.174 36.1688 101.166 36.1679 101.158 36.1659C101.12 36.1476 101.096 36.1067 101.096 36.0617C101.096 36.0553 101.096 36.049 101.097 36.0429L101.502 33.1584C101.506 33.1186 101.529 33.0838 101.562 33.0661L105.016 31.1975C105.031 31.1882 105.05 31.1833 105.068 31.1833C105.101 31.1833 105.132 31.1999 105.153 31.2284C105.169 31.2505 105.177 31.2775 105.177 31.3054C105.177 31.3331 105.169 31.3601 105.153 31.3823L101.287 36.1264C101.267 36.1515 101.237 36.1659 101.206 36.166ZM101.695 33.2422L101.368 35.6649L104.603 31.6683L101.696 33.2424L101.695 33.2422Z" fill="white"/>
<path d="M101.206 36.1662C101.206 36.1662 101.206 36.1662 101.205 36.1662C101.166 36.1662 101.13 36.1446 101.109 36.1091C101.097 36.088 101.09 36.0637 101.09 36.0387C101.09 36.0136 101.097 35.9892 101.109 35.9684L104.959 31.211C104.978 31.1928 105.003 31.1831 105.028 31.1831C105.053 31.1831 105.078 31.193 105.097 31.2108C105.129 31.2315 105.148 31.2691 105.148 31.3097C105.148 31.3242 105.146 31.3383 105.141 31.3519L103.742 35.485C103.731 35.5231 103.701 35.5518 103.665 35.5594L101.239 36.1837L101.206 36.1664V36.1662ZM104.745 31.8483L101.509 35.845L103.568 35.3218L104.745 31.8482V31.8483Z" fill="white"/>
<path d="M99.4562 31.765C99.41 31.7635 99.3688 31.7322 99.3511 31.6859C99.3462 31.6725 99.3438 31.658 99.3438 31.6436C99.3438 31.6087 99.3584 31.5757 99.3835 31.5541L101.373 29.7953C101.389 29.7847 101.407 29.7793 101.426 29.7793C101.444 29.7793 101.462 29.7847 101.478 29.7951L105.089 31.2153C105.133 31.2332 105.163 31.2793 105.163 31.3308C105.163 31.3362 105.163 31.3418 105.162 31.3472C105.152 31.4012 105.111 31.4419 105.061 31.4485L99.4598 31.8046L99.4559 31.7652L99.4562 31.765ZM101.478 30.0061L99.796 31.5099L104.523 31.2067L101.478 30.0063L101.478 30.0061Z" fill="white"/>
<path d="M101.599 33.2818C101.578 33.2816 101.556 33.2739 101.539 33.2596L99.3953 31.7429C99.3632 31.7224 99.3438 31.6848 99.3438 31.6442C99.3438 31.6344 99.3452 31.6249 99.3472 31.6154C99.3591 31.5642 99.3996 31.527 99.4483 31.5231L105.045 31.1712C105.049 31.171 105.052 31.1707 105.056 31.1707C105.104 31.1707 105.147 31.2073 105.158 31.2592C105.161 31.2698 105.163 31.2808 105.163 31.292C105.163 31.3365 105.139 31.377 105.102 31.3956L101.648 33.2685C101.633 33.2769 101.617 33.2816 101.6 33.2818H101.599H101.599ZM99.7957 31.7429L101.603 33.0224L104.523 31.4438L99.7957 31.7431V31.7429Z" fill="white"/>
<path d="M95.7962 31.0127C95.7878 31.0155 95.7791 31.017 95.7702 31.017C95.7612 31.017 95.7524 31.0155 95.7438 31.0127C95.709 30.9932 95.6875 30.9541 95.6875 30.9115C95.6875 30.9012 95.6885 30.8908 95.6912 30.8808L96.8478 25.7144C96.8605 25.6625 96.9036 25.6262 96.9531 25.6262C96.9558 25.6262 96.9584 25.6264 96.9608 25.6264C97.0137 25.6305 97.0559 25.675 97.0618 25.7321L97.4662 29.3157C97.4667 29.3209 97.467 29.3259 97.467 29.3313C97.467 29.3635 97.4552 29.3944 97.4338 29.4165L95.8928 30.995C95.8743 31.0099 95.8518 31.0179 95.8286 31.0179C95.8175 31.0179 95.8065 31.0161 95.7957 31.0125H95.796L95.7962 31.0127ZM96.9163 26.4005L95.9902 30.5291L97.2237 29.2671L96.9163 26.4005Z" fill="white"/>
<path d="M95.7955 31.0129C95.7489 31.0114 95.7083 30.9779 95.6945 30.9293L95.0069 28.6958C94.9995 28.6792 94.9961 28.6614 94.9961 28.6431C94.9961 28.6249 94.9995 28.6068 95.0069 28.5903L96.8511 25.6576C96.8723 25.6269 96.906 25.6089 96.9414 25.6089C96.956 25.6089 96.9705 25.6121 96.9843 25.6182C97.0234 25.6361 97.0488 25.6777 97.0488 25.7239C97.0488 25.7343 97.0475 25.7445 97.0448 25.7548L95.8924 30.9212C95.8791 30.9727 95.8371 31.0097 95.7874 31.0131H95.7953L95.7955 31.0129ZM95.2333 28.6738L95.7792 30.4634L96.7053 26.3348L95.2333 28.6737V28.6738Z" fill="white"/>
<path d="M93.0659 28.6741C93.0652 28.6741 93.0641 28.6741 93.0633 28.6741C93.0378 28.6741 93.0131 28.6648 92.9932 28.6477C92.9692 28.6259 92.9551 28.5937 92.9551 28.5597C92.9551 28.5431 92.9584 28.5266 92.9648 28.5115L93.7737 26.3131C93.7881 26.2765 93.8186 26.25 93.8548 26.2428L96.9199 25.601C96.926 25.5995 96.932 25.5991 96.9381 25.5991C96.9824 25.5991 97.0228 25.6272 97.041 25.6711C97.0465 25.6858 97.0497 25.7015 97.0497 25.7173C97.0497 25.7571 97.0315 25.7945 97.001 25.8165L93.1149 28.6436C93.1021 28.6591 93.0847 28.6699 93.0662 28.6743L93.0659 28.6741ZM93.9638 26.4758L93.3007 28.2344L96.4426 25.9525L93.9638 26.4758Z" fill="white"/>
<path d="M95.1128 28.7747L93.0667 28.6734C93.0211 28.6684 92.9824 28.6338 92.9696 28.5858C92.9662 28.5743 92.9648 28.5625 92.9648 28.5508C92.9648 28.5114 92.9835 28.4747 93.0143 28.4537L96.9004 25.6265C96.9185 25.6139 96.9393 25.6072 96.9607 25.6072C97.0209 25.6072 97.0697 25.6604 97.0697 25.7259C97.0697 25.7501 97.0628 25.7739 97.05 25.7938L95.2097 28.722C95.1915 28.7551 95.159 28.7752 95.1236 28.7752C95.1199 28.7752 95.1165 28.775 95.1131 28.7747H95.1128ZM93.4023 28.4539L95.0562 28.5329L96.5403 26.1675L93.4023 28.4539Z" fill="white"/>
<path d="M96.9535 25.8468H96.929L92.4364 24.7696C92.3876 24.7545 92.3535 24.7062 92.3535 24.6509C92.3535 24.6044 92.3776 24.5618 92.4162 24.5409L94.3046 23.6176C94.3211 23.6066 94.34 23.6008 94.3593 23.6008C94.3786 23.6008 94.3977 23.6066 94.4138 23.6174L97.018 25.6222C97.0463 25.6455 97.063 25.682 97.063 25.7205C97.063 25.7367 97.0601 25.7525 97.0546 25.7674C97.0384 25.8135 96.9984 25.8446 96.9532 25.8467L96.9535 25.8468ZM92.7963 24.6112L96.4357 25.4907L94.3251 23.8682L92.7963 24.6112Z" fill="white"/>
<path d="M93.8882 26.4886C93.8575 26.4873 93.8284 26.4732 93.8074 26.449L92.3798 24.7253C92.363 24.7039 92.3535 24.6765 92.3535 24.6481C92.3535 24.5826 92.4024 24.5295 92.4625 24.5295C92.4702 24.5295 92.4776 24.5303 92.4849 24.532L96.9775 25.6092C97.0272 25.6232 97.0625 25.6719 97.0625 25.7279C97.0625 25.7283 97.0625 25.7288 97.0625 25.7294C97.0625 25.7858 97.0249 25.8338 96.9735 25.8425L93.9082 26.4843L93.8879 26.4886H93.8882ZM92.7721 24.844L93.9284 26.2378L96.4115 25.719L92.7721 24.844Z" fill="white"/>
<path d="M98.7043 30.252C98.6967 30.254 98.6886 30.255 98.6804 30.255C98.6724 30.255 98.6641 30.254 98.6561 30.252C98.6182 30.2336 98.5938 30.1926 98.5938 30.1476C98.5938 30.1413 98.5946 30.1349 98.5956 30.1288L98.9999 27.2443C99.003 27.2049 99.0242 27.1701 99.0563 27.1521L102.51 25.2879C102.525 25.2806 102.541 25.2771 102.557 25.2771C102.592 25.2771 102.625 25.2938 102.647 25.3231C102.663 25.345 102.671 25.3722 102.671 25.3997C102.671 25.4275 102.663 25.4546 102.647 25.4768L98.8014 30.2252C98.7816 30.2442 98.7559 30.2548 98.7293 30.2548C98.7211 30.2548 98.7125 30.2539 98.7046 30.2516H98.7043V30.252ZM99.1937 27.3281L98.8662 29.7509L102.101 25.7587L99.1937 27.3283V27.3281Z" fill="white"/>
<path d="M98.7025 30.2522C98.7022 30.2522 98.7017 30.2522 98.7012 30.2522C98.6625 30.2522 98.6263 30.2306 98.6054 30.1951C98.5926 30.1745 98.5859 30.1497 98.5859 30.1248C98.5859 30.0998 98.5926 30.0753 98.6054 30.0544L102.451 25.3058C102.472 25.2785 102.503 25.2625 102.536 25.2625C102.596 25.2625 102.645 25.3155 102.645 25.3812C102.645 25.3959 102.642 25.4106 102.637 25.4245L101.238 29.5576C101.225 29.5948 101.197 29.6229 101.161 29.6322L98.7347 30.2478L98.7023 30.2522H98.7025ZM102.241 25.9389L99.0058 29.9311L101.06 29.4167L102.241 25.9389Z" fill="white"/>
<path d="M96.9538 25.8469C96.9095 25.8465 96.8692 25.8169 96.8527 25.7719C96.8466 25.7575 96.8438 25.7419 96.8438 25.7263C96.8438 25.6907 96.8589 25.6574 96.8848 25.6355L98.8704 23.8768C98.8866 23.8673 98.9047 23.8623 98.923 23.8623C98.9414 23.8623 98.9595 23.8673 98.9757 23.877L102.587 25.3059C102.629 25.3234 102.657 25.3675 102.657 25.4168C102.657 25.4237 102.657 25.4306 102.655 25.4377C102.647 25.4924 102.605 25.5337 102.555 25.5389L96.958 25.8819L96.9538 25.8467V25.8469ZM98.9757 24.088L97.2976 25.5873L102.025 25.2972L98.9757 24.088Z" fill="white"/>
<path d="M99.092 27.3679C99.0829 27.371 99.0733 27.3725 99.0639 27.3725C99.0541 27.3725 99.0447 27.371 99.0354 27.3679L96.8922 25.8511C96.862 25.828 96.8438 25.7904 96.8438 25.7502C96.8438 25.7398 96.8453 25.7292 96.8477 25.7192C96.8573 25.6687 96.8975 25.6323 96.9448 25.6312L102.541 25.2882C102.544 25.288 102.547 25.2878 102.549 25.2878C102.599 25.2878 102.642 25.3241 102.655 25.376C102.656 25.3844 102.657 25.3932 102.657 25.4019C102.657 25.4488 102.633 25.4916 102.594 25.5124L99.1405 27.3766C99.1366 27.377 99.1331 27.3774 99.1294 27.3774C99.1166 27.3774 99.1034 27.374 99.0918 27.3677L99.092 27.3679ZM97.2926 25.8247L99.1002 27.1085L102.02 25.5344L97.2926 25.8245V25.8247Z" fill="white"/>
<path d="M110.289 34.2488H110.248C110.206 34.2313 110.178 34.1882 110.176 34.1389V27.7062C110.176 27.6491 110.213 27.5998 110.264 27.5875C110.27 27.5867 110.276 27.5862 110.281 27.5862C110.327 27.5862 110.368 27.6163 110.386 27.6623L111.983 31.9491C111.993 31.9671 111.998 31.9877 111.998 32.0084C111.998 32.0292 111.993 32.0499 111.983 32.0678L110.366 34.2135C110.346 34.2354 110.318 34.2481 110.289 34.2486H110.289L110.289 34.2488ZM110.402 28.3043V33.7916L111.769 31.9624L110.402 28.3043Z" fill="white"/>
<path d="M114.315 32.1783C114.286 32.1779 114.259 32.1653 114.238 32.1427L110.194 27.781C110.179 27.76 110.17 27.7339 110.17 27.7066C110.17 27.6794 110.179 27.653 110.194 27.6318C110.215 27.5994 110.249 27.5798 110.285 27.5798C110.298 27.5798 110.311 27.5824 110.324 27.5876L114.105 29.1353C114.142 29.1537 114.169 29.192 114.173 29.2367L114.42 32.0464C114.42 32.0506 114.421 32.0549 114.421 32.0592C114.421 32.1055 114.395 32.1474 114.355 32.1651C114.343 32.1733 114.329 32.1777 114.315 32.1781L114.315 32.1783ZM110.728 28.0058L114.178 31.7432L113.967 29.3338L110.728 28.006V28.0058Z" fill="white"/>
<path d="M114.317 32.178L111.891 32.1032C111.848 32.1013 111.81 32.0721 111.794 32.0283L110.197 27.7414C110.192 27.728 110.189 27.7137 110.189 27.6993C110.189 27.6338 110.238 27.5808 110.298 27.5808C110.327 27.5808 110.354 27.5927 110.374 27.6139L114.418 31.9757C114.439 31.9971 114.451 32.0272 114.451 32.0585C114.451 32.0737 114.448 32.089 114.442 32.1032C114.422 32.1495 114.38 32.1791 114.332 32.1791C114.327 32.1791 114.322 32.1787 114.317 32.178H114.317ZM111.963 31.8657L114.042 31.9316L110.597 28.1941L111.963 31.8655V31.8657Z" fill="white"/>
<path d="M116.515 29.4476C116.514 29.4478 116.512 29.4478 116.51 29.4478C116.483 29.4478 116.458 29.4368 116.439 29.4169L112.423 25.0685C112.407 25.0471 112.398 25.0211 112.398 24.9937C112.398 24.9666 112.407 24.9401 112.423 24.9189C112.442 24.8839 112.477 24.8625 112.514 24.8625C112.527 24.8625 112.54 24.8655 112.553 24.8705L116.338 26.405C116.377 26.4212 116.405 26.4604 116.41 26.5062L116.641 29.3201C116.641 29.3235 116.641 29.327 116.641 29.3304C116.641 29.3774 116.616 29.4199 116.576 29.4388C116.564 29.4465 116.55 29.4504 116.536 29.4504C116.529 29.4504 116.522 29.4495 116.515 29.4476ZM112.936 25.2883L116.378 29.0168L116.18 26.6028L112.936 25.2881V25.2883Z" fill="white"/>
<path d="M116.517 29.4474L114.091 29.3726C114.047 29.372 114.009 29.3422 113.993 29.2978L112.376 25.0285C112.371 25.0138 112.367 24.9982 112.367 24.9823C112.367 24.9425 112.386 24.9051 112.416 24.8832C112.436 24.8661 112.46 24.8569 112.485 24.8569C112.51 24.8569 112.534 24.8662 112.554 24.8832L116.569 29.2317C116.59 29.2548 116.602 29.2857 116.602 29.318C116.602 29.3337 116.599 29.3493 116.594 29.3636C116.584 29.4049 116.555 29.4371 116.517 29.4472H116.517L116.517 29.4474ZM114.175 29.1353L116.242 29.2012L112.805 25.4814L114.176 29.1351L114.175 29.1353Z" fill="white"/>
<path d="M116.286 26.6556H116.245L112.46 25.1212C112.419 25.1037 112.391 25.0596 112.391 25.0104C112.391 25.0049 112.391 24.9995 112.392 24.9937C112.398 24.9386 112.438 24.8955 112.489 24.8882L117.972 24.3958C117.975 24.3955 117.978 24.3953 117.981 24.3953C118.023 24.3953 118.062 24.4209 118.081 24.4615C118.093 24.481 118.1 24.5041 118.1 24.5274C118.1 24.5508 118.093 24.5737 118.081 24.5932L116.383 26.6247C116.362 26.6457 116.334 26.6575 116.306 26.6575C116.299 26.6575 116.292 26.6569 116.286 26.6554V26.6556ZM112.998 25.0728L116.253 26.3919L117.713 24.6333L112.998 25.0728Z" fill="white"/>
<path d="M110.288 39.9997H110.256C110.21 39.9861 110.179 39.9409 110.179 39.8898C110.179 39.8885 110.179 39.887 110.179 39.8855L110.179 34.1298C110.178 34.1244 110.178 34.119 110.178 34.1136C110.178 34.0481 110.227 33.9949 110.287 33.9949C110.337 33.9949 110.381 34.0325 110.393 34.0859L111.606 37.7266C111.614 37.7429 111.618 37.761 111.618 37.7794C111.618 37.7978 111.614 37.8157 111.606 37.8321L110.373 39.9469C110.355 39.9793 110.323 39.9992 110.288 39.9997ZM110.397 34.7939V39.472L111.4 37.753L110.397 34.7939Z" fill="white"/>
<path d="M115.517 37.9381C115.516 37.9381 115.516 37.9381 115.515 37.9381C115.478 37.9381 115.444 37.9182 115.424 37.8854L114.021 35.4584C114.014 35.4418 114.01 35.4238 114.01 35.4055C114.01 35.3875 114.013 35.3692 114.021 35.3529L115.428 31.2462C115.445 31.2016 115.484 31.1724 115.529 31.1724C115.589 31.1724 115.637 31.2248 115.638 31.2901V37.8019C115.638 37.8023 115.638 37.8026 115.638 37.8028C115.638 37.8547 115.607 37.9007 115.561 37.9161L115.517 37.9381H115.517ZM114.235 35.3789L115.408 37.4057V31.9494L114.235 35.3789Z" fill="white"/>
<path d="M113.669 38.4347C113.638 38.4346 113.608 38.42 113.588 38.3951L110.203 34.2094C110.188 34.1872 110.18 34.1603 110.18 34.1325C110.18 34.1046 110.188 34.0776 110.203 34.0555C110.225 34.0263 110.258 34.0095 110.293 34.0095C110.309 34.0095 110.326 34.0132 110.341 34.0203L113.373 35.6692C113.404 35.6872 113.427 35.7194 113.434 35.7572L113.782 38.2985C113.782 38.3032 113.783 38.3074 113.783 38.3119C113.783 38.3785 113.734 38.4331 113.673 38.4351L113.669 38.4349V38.4347ZM110.737 34.5084L113.507 37.9336L113.22 35.8538L110.737 34.5084Z" fill="white"/>
<path d="M113.668 38.4348H113.644L111.493 37.8896C111.458 37.879 111.429 37.8513 111.416 37.815L110.203 34.1743C110.198 34.1605 110.195 34.1456 110.195 34.1309C110.195 34.0654 110.244 34.0122 110.305 34.0122C110.337 34.0122 110.368 34.028 110.389 34.0556L113.769 38.2413C113.783 38.2616 113.791 38.2863 113.791 38.3116C113.791 38.3368 113.783 38.3615 113.769 38.382C113.748 38.4151 113.713 38.435 113.676 38.435C113.674 38.435 113.671 38.4348 113.668 38.4348ZM111.602 37.6654L113.361 38.1051L110.591 34.6799L111.602 37.6654H111.602Z" fill="white"/>
<path d="M115.517 37.938H115.489C115.442 37.9241 115.409 37.8772 115.408 37.8236V31.2899C115.408 31.2893 115.408 31.2886 115.408 31.2879C115.408 31.2309 115.445 31.1818 115.497 31.1712C115.503 31.1702 115.509 31.1697 115.515 31.1697C115.562 31.1697 115.604 31.1995 115.622 31.246L117.022 35.3833C117.03 35.3995 117.034 35.4176 117.034 35.436C117.034 35.4544 117.029 35.4725 117.022 35.4886L115.619 37.885C115.598 37.9185 115.564 37.9384 115.527 37.9384C115.524 37.9384 115.521 37.9382 115.517 37.9378V37.938ZM115.631 31.9538V37.4105L116.803 35.4097L115.631 31.9538Z" fill="white"/>
<path d="M119.371 36.1659C119.339 36.1657 119.308 36.1514 119.286 36.1261L115.44 31.3687C115.423 31.3473 115.414 31.32 115.414 31.2917C115.414 31.2634 115.423 31.2362 115.44 31.2148C115.46 31.1867 115.491 31.1702 115.524 31.1702C115.541 31.1702 115.558 31.175 115.574 31.1839L119.031 33.0526C119.063 33.0704 119.085 33.1054 119.088 33.1449L119.492 36.0291C119.493 36.0355 119.493 36.0418 119.493 36.0481C119.493 36.0932 119.469 36.1341 119.431 36.1525L119.371 36.1655V36.1659ZM115.974 31.6679L119.209 35.6646L118.881 33.2418L115.974 31.6678L115.974 31.6679Z" fill="white"/>
<path d="M119.372 36.1661H119.343L116.917 35.5418C116.881 35.5338 116.851 35.5051 116.84 35.4668L115.441 31.3337C115.436 31.3205 115.434 31.3062 115.434 31.2919C115.434 31.2511 115.453 31.2137 115.485 31.1933C115.504 31.1754 115.529 31.1655 115.554 31.1655C115.579 31.1655 115.604 31.1754 115.623 31.1933L119.473 35.9506C119.486 35.9709 119.494 35.9956 119.494 36.021C119.494 36.0463 119.486 36.071 119.473 36.0913C119.455 36.1356 119.416 36.1648 119.372 36.1663V36.1661ZM117.006 35.3219L119.06 35.8451L115.825 31.8483L117.006 35.3219H117.006Z" fill="white"/>
<path d="M121.122 31.7647L115.525 31.4086C115.474 31.4037 115.431 31.3626 115.42 31.3073C115.42 31.3038 115.42 31.3002 115.42 31.2965C115.42 31.2439 115.449 31.1962 115.493 31.1752L119.104 29.755C119.12 29.7446 119.138 29.739 119.157 29.739C119.175 29.739 119.194 29.7446 119.209 29.755L121.199 31.5137C121.224 31.5354 121.239 31.5686 121.239 31.6034C121.239 31.6179 121.236 31.6324 121.231 31.6458C121.231 31.7111 121.182 31.7641 121.122 31.7641V31.7643V31.7647ZM116.059 31.2063L120.79 31.5098L119.112 30.0059L116.059 31.2063Z" fill="white"/>
<path d="M118.98 33.2817C118.972 33.2836 118.964 33.2845 118.955 33.2845C118.947 33.2845 118.939 33.2836 118.931 33.2815L115.474 31.4086C115.437 31.3872 115.414 31.3455 115.414 31.3001C115.414 31.2908 115.415 31.2813 115.417 31.2722C115.428 31.2205 115.47 31.1838 115.519 31.1838C115.523 31.1838 115.526 31.184 115.53 31.1844L121.127 31.5361C121.175 31.54 121.216 31.5772 121.228 31.6284C121.23 31.6379 121.232 31.6474 121.232 31.6572C121.232 31.6978 121.212 31.7352 121.179 31.7557L119.036 33.2726C119.023 33.2793 119.009 33.2829 118.995 33.2829C118.99 33.2829 118.985 33.2823 118.98 33.2814H118.979L118.98 33.2817ZM116.052 31.4438L118.972 33.0223L120.783 31.7428L116.052 31.4436V31.4438Z" fill="white"/>
<path d="M124.778 31.0128C124.749 31.0118 124.722 30.9992 124.701 30.9778L123.165 29.3994C123.141 29.3784 123.127 29.3471 123.127 29.3138C123.127 29.3086 123.127 29.3034 123.128 29.298L123.513 25.7144C123.526 25.661 123.571 25.624 123.622 25.624C123.673 25.624 123.717 25.661 123.731 25.7144L124.883 30.8808C124.886 30.8909 124.887 30.9011 124.887 30.9115C124.887 30.9528 124.867 30.9914 124.834 31.0128C124.825 31.0155 124.816 31.017 124.806 31.017C124.796 31.017 124.787 31.0155 124.778 31.0128H124.778ZM123.35 29.2541L124.584 30.5161L123.662 26.3875L123.35 29.2541Z" fill="white"/>
<path d="M124.777 31.0127C124.729 31.0089 124.688 30.9715 124.676 30.9204L123.527 25.754C123.525 25.7441 123.523 25.7337 123.523 25.7233C123.523 25.6771 123.549 25.6355 123.588 25.6176C123.602 25.6113 123.618 25.6079 123.633 25.6079C123.669 25.6079 123.703 25.6261 123.726 25.657L125.549 28.5679C125.556 28.5843 125.56 28.6025 125.56 28.6206C125.56 28.6386 125.556 28.6569 125.55 28.6732L124.866 30.9157C124.857 30.9646 124.822 31.0028 124.777 31.0127ZM123.871 26.3301L124.793 30.4632L125.339 28.6691L123.871 26.3301Z" fill="white"/>
<path d="M127.51 28.6739C127.501 28.6782 127.49 28.6803 127.48 28.6803C127.47 28.6803 127.459 28.678 127.45 28.6737L123.56 25.8466C123.529 25.8237 123.512 25.7861 123.512 25.7461C123.512 25.731 123.514 25.7158 123.519 25.7018C123.538 25.6577 123.578 25.6296 123.622 25.6296C123.628 25.6296 123.634 25.6302 123.641 25.6313L126.71 26.2733C126.745 26.2819 126.775 26.3079 126.791 26.3436L127.6 28.542C127.604 28.5558 127.607 28.5703 127.607 28.585C127.607 28.6209 127.592 28.655 127.567 28.6784C127.561 28.6799 127.554 28.6806 127.547 28.6806C127.534 28.6806 127.522 28.6784 127.511 28.6739V28.6741L127.51 28.6739ZM124.134 25.9566L127.272 28.2385L126.609 26.4798L124.134 25.9566Z" fill="white"/>
<path d="M125.465 28.7795C125.464 28.7793 125.464 28.7793 125.463 28.7793C125.427 28.7793 125.395 28.7594 125.376 28.7267L123.532 25.794C123.516 25.773 123.508 25.7466 123.508 25.7194C123.508 25.6921 123.517 25.6658 123.532 25.6446C123.551 25.6266 123.576 25.6167 123.601 25.6167C123.626 25.6167 123.651 25.6266 123.669 25.6446L127.56 28.4717C127.592 28.4935 127.612 28.5317 127.612 28.573C127.612 28.6383 127.563 28.6913 127.503 28.6917L125.457 28.7972L125.465 28.7797L125.465 28.7795ZM124.033 26.1677L125.522 28.5376L127.171 28.4541L124.033 26.1679V26.1677Z" fill="white"/>
<path d="M123.62 25.8469C123.578 25.8469 123.54 25.819 123.523 25.7765C123.516 25.7607 123.512 25.7431 123.512 25.725C123.512 25.6867 123.53 25.6515 123.56 25.6314L126.16 23.6264C126.176 23.6154 126.195 23.6096 126.215 23.6096C126.234 23.6096 126.253 23.6154 126.269 23.6262L128.158 24.5495C128.196 24.5704 128.22 24.6132 128.22 24.6597C128.22 24.7148 128.187 24.7633 128.138 24.7782L123.645 25.8554L123.62 25.8467V25.8469ZM126.237 23.8595L124.13 25.482L127.77 24.6026L126.237 23.8595Z" fill="white"/>
<path d="M126.69 26.4886H126.666L123.601 25.8468C123.55 25.8362 123.513 25.7885 123.512 25.7323C123.512 25.6763 123.547 25.6276 123.597 25.6136L128.089 24.5366C128.098 24.534 128.107 24.5325 128.116 24.5325C128.155 24.5325 128.19 24.5561 128.207 24.5935C128.22 24.6132 128.228 24.637 128.228 24.6616C128.228 24.6862 128.22 24.7102 128.207 24.7299L126.783 26.4534C126.759 26.4761 126.728 26.4886 126.696 26.4886C126.694 26.4886 126.692 26.4886 126.69 26.4884V26.4886ZM124.163 25.7193L126.65 26.2381L127.802 24.8443L124.163 25.7193Z" fill="white"/>
<path d="M121.874 30.2523C121.842 30.2523 121.811 30.238 121.789 30.2129L117.944 25.4643C117.928 25.4421 117.92 25.4151 117.92 25.3874C117.92 25.3595 117.928 25.3325 117.944 25.3104C117.966 25.2811 117.999 25.2644 118.034 25.2644C118.05 25.2644 118.066 25.2681 118.081 25.2752L121.534 27.1394C121.566 27.1587 121.589 27.1928 121.595 27.2317L122 30.1161C122 30.1222 122.001 30.1286 122.001 30.1347C122.001 30.1797 121.977 30.2207 121.939 30.2391C121.924 30.2486 121.907 30.2538 121.89 30.2538C121.885 30.2538 121.88 30.2532 121.874 30.2523V30.2521L121.874 30.2523ZM118.477 25.7588L121.713 29.751L121.381 27.3282L118.477 25.7586V25.7588Z" fill="white"/>
<path d="M121.874 30.2522H121.85L119.403 29.6366C119.366 29.6284 119.336 29.6003 119.323 29.5618L117.923 25.4288C117.92 25.4165 117.918 25.4036 117.918 25.3908C117.918 25.3474 117.938 25.3071 117.972 25.2836C117.988 25.2741 118.007 25.2693 118.025 25.2693C118.058 25.2693 118.088 25.284 118.109 25.31L121.955 30.0587C121.969 30.0789 121.976 30.1037 121.976 30.129C121.976 30.1543 121.969 30.1791 121.955 30.1993C121.937 30.2291 121.907 30.2485 121.874 30.2522H121.874ZM119.508 29.4169L121.566 29.9314L118.331 25.9392L119.508 29.4169Z" fill="white"/>
<path d="M123.621 25.8466L118.025 25.5035C117.974 25.4985 117.932 25.457 117.923 25.4023C117.923 25.3954 117.922 25.3885 117.922 25.3816C117.922 25.3321 117.95 25.2882 117.992 25.2705L121.604 23.8416C121.62 23.8319 121.638 23.8269 121.656 23.8269C121.674 23.8269 121.693 23.8319 121.709 23.8416L123.694 25.6004C123.721 25.6237 123.737 25.6593 123.737 25.6967C123.737 25.7102 123.735 25.7238 123.731 25.7367C123.722 25.7962 123.677 25.8414 123.622 25.8466H123.621ZM118.567 25.2969L123.294 25.587L121.616 24.0878L118.567 25.2969Z" fill="white"/>
<path d="M121.483 27.3678C121.475 27.3699 121.466 27.3708 121.459 27.3708C121.45 27.3708 121.442 27.3699 121.434 27.3678L117.981 25.5036C117.943 25.485 117.92 25.4445 117.92 25.4C117.92 25.389 117.921 25.3782 117.924 25.3674C117.934 25.3161 117.975 25.2791 118.023 25.2791C118.027 25.2791 118.03 25.2792 118.033 25.2796L123.63 25.6226C123.677 25.6235 123.717 25.6601 123.727 25.7106C123.73 25.7206 123.731 25.731 123.731 25.7416C123.731 25.7807 123.713 25.8168 123.683 25.838L121.544 27.3594C121.529 27.366 121.513 27.3693 121.498 27.3693C121.493 27.3693 121.488 27.3691 121.483 27.3684V27.3682L121.483 27.3678ZM118.555 25.5344L121.474 27.1084L123.282 25.8246L118.555 25.5344Z" fill="white"/>
<path d="M110.295 27.8165C110.294 27.8165 110.294 27.8165 110.293 27.8165C110.255 27.8165 110.218 27.7949 110.198 27.7594L108.503 24.5629C108.494 24.545 108.488 24.5245 108.488 24.5035C108.488 24.4827 108.493 24.462 108.504 24.4444C108.522 24.4073 108.558 24.3839 108.596 24.3826H112.03C112.069 24.3839 112.104 24.4071 112.123 24.4442C112.133 24.4622 112.138 24.4829 112.138 24.5037C112.138 24.5247 112.133 24.5452 112.123 24.5631L110.388 27.7596C110.368 27.7944 110.333 27.816 110.295 27.8169V27.8167L110.295 27.8165ZM108.787 24.62L110.295 27.4604L111.836 24.62H108.787Z" fill="white"/>
<path d="M109.699 26.6906H110.9V26.4531H109.699V26.6906Z" fill="white"/>
</g>
<defs>
<clipPath id="clip0_8099_10626">
<rect width="220" height="40" fill="white"/>
</clipPath>
</defs>
</svg>
