<svg width="220" height="36" viewBox="0 0 220 36" fill="none" xmlns="http://www.w3.org/2000/svg">
<g clip-path="url(#clip0_8099_11353)">
<path d="M2 18.7705C2.04157 18.8484 2.07794 18.9263 2.13509 19.0406C2.17666 18.7393 2.37929 18.7393 2.59751 18.7445C4.99275 18.7497 7.38799 18.7809 9.78323 18.7341C10.5314 18.7185 10.9419 19.0977 11.2692 19.6172C12.6825 21.856 14.0801 24.1105 15.4726 26.3649C16.7299 28.4012 18.0601 30.3907 19.2603 32.4633C19.624 33.0971 20.024 33.7048 20.4345 34.3126C20.6579 34.6399 20.7826 34.936 20.4813 35.2736H20.0189C20.0189 34.9723 19.8058 34.9671 19.5928 34.9723C18.0081 35.0191 16.4286 34.8944 14.8439 34.8788C13.997 34.8736 13.1397 34.8632 12.298 34.7749C10.9938 34.6399 9.67931 34.5516 8.36999 34.5204C7.07105 34.4892 5.77731 34.3698 4.47837 34.3282C3.93801 34.3126 3.39766 34.2918 2.8573 34.2659C2.56114 34.2503 2.29096 34.1983 2.28057 33.8035C2.28057 33.6373 2.20263 33.4763 2.0052 33.4295C2.0052 28.5414 2.0052 23.6586 2.0052 18.7705H2ZM15.0205 32.2971C15.8103 32.1932 16.6 32.0893 17.3898 31.9854C17.5249 31.9699 17.7015 32.0218 17.7639 31.8556C17.8107 31.7205 17.6756 31.627 17.6028 31.5283C16.0857 29.5544 14.5685 27.5856 13.0566 25.6117C12.1265 24.4014 11.1965 23.191 10.2716 21.9807C10.0742 21.7262 9.93391 21.5755 9.5702 21.8508C7.80884 23.2066 6.07347 24.5884 4.3225 25.9597C4.04712 26.1727 3.92243 26.4169 3.92243 26.7753C3.93801 28.4376 3.93282 30.0998 3.92762 31.7621C3.92762 32.3387 3.91723 32.3439 4.50955 32.3387C8.01148 32.3127 11.5134 32.4062 15.0153 32.3023L15.0205 32.2971Z" fill="white"/>
<path d="M2 2.27281C2.37929 1.88841 2.86769 1.91957 3.36129 1.87802C5.06549 1.74296 6.77489 1.67543 8.48429 1.6079C9.61696 1.56115 10.7444 1.50401 11.8771 1.43648C13.8047 1.3222 15.7324 1.33259 17.6548 1.14039C18.5848 1.04689 19.5305 1.06767 20.4709 1.04689C20.8554 1.0365 20.8917 1.10403 20.6839 1.43648C19.837 2.79226 18.9797 4.14804 18.1328 5.50383C16.2987 8.43876 14.475 11.3737 12.6409 14.3034C12.22 14.9735 11.7888 15.6436 11.3627 16.3085C11.2692 16.4592 11.2484 16.6358 11.1185 16.7812C10.7548 17.202 10.3392 17.415 9.74686 17.4098C7.51788 17.3786 5.28891 17.3942 3.05993 17.4098C2.70143 17.4098 2.35331 17.3059 2 17.3163L2 2.27281ZM3.93282 6.89077C3.93282 7.73229 3.94321 8.57901 3.92762 9.42053C3.92243 9.74779 4.04193 9.97115 4.30172 10.1685C4.99795 10.6932 5.67859 11.2386 6.36443 11.7789C7.51788 12.6983 8.7181 13.5606 9.85077 14.5112C10.2353 14.8333 10.334 14.8021 10.6457 14.3813C11.555 13.145 12.459 11.8983 13.3787 10.6672C14.8699 8.67771 16.2779 6.63105 17.8055 4.67269C18.0445 4.36622 18.0081 4.26232 17.6184 4.19479C16.8702 4.07013 16.1168 3.9039 15.3635 3.8987C13.6385 3.88312 11.9135 3.81559 10.1885 3.81559C8.2297 3.81559 6.2761 3.92987 4.3173 3.85195C4.02634 3.84156 3.92762 3.97662 3.93282 4.24674C3.93801 5.12982 3.93282 6.01289 3.93282 6.89077Z" fill="white"/>
<path d="M25.0421 35.2684C25.1408 35.0762 24.9901 34.9515 24.9018 34.8217C23.873 33.2269 22.8339 31.6426 21.8103 30.0479C20.4906 27.9908 19.1761 25.9234 17.8563 23.8611C16.9263 22.4015 15.9911 20.947 15.061 19.4873C14.9831 19.3678 14.9103 19.2484 14.848 19.1237C14.7857 19.0042 14.6558 18.8795 14.7597 18.7393C14.8532 18.6146 14.9935 18.7185 15.1182 18.7289C15.3987 18.7497 15.6845 18.7653 15.9651 18.7653C21.5193 18.7653 27.0736 18.7653 32.6278 18.7653C33.2046 18.7653 33.3085 18.6666 33.3293 19.3886C33.376 20.8067 33.4696 22.2197 33.5475 23.6326C33.6514 25.4818 33.6826 27.3363 33.8852 29.1752C33.9995 30.2453 33.5735 31.1491 33.3552 32.1205C33.2617 32.5309 33.1059 32.9257 33.0071 33.336C32.9292 33.6737 32.7266 33.8243 32.3992 33.8815C30.9132 34.136 29.4325 34.4009 27.9517 34.6606C27.2191 34.7905 26.4813 34.91 25.7487 35.0502C25.65 35.071 25.411 34.9931 25.5045 35.258H25.0421V35.2684ZM31.6822 22.5313C31.6822 21.669 31.6718 21.0768 31.6822 20.4899C31.6926 20.1678 31.5627 20.0743 31.251 20.0691C29.7546 20.0431 28.2894 20.1107 26.8294 20.5678C24.3354 21.347 21.8051 22.0015 19.2904 22.7079C18.9163 22.8118 18.8903 22.8898 19.0981 23.2118C19.3839 23.6482 19.6904 24.0793 19.9762 24.5208C21.8103 27.3467 23.7951 30.0738 25.5824 32.9257C26.0968 33.7464 26.0968 33.7048 26.845 33.0555C28.279 31.814 29.7338 30.5933 31.1938 29.383C31.4536 29.1648 31.5991 28.9518 31.5991 28.609C31.5835 26.4896 31.5991 24.3702 31.677 22.5261L31.6822 22.5313Z" fill="white"/>
<path d="M88.431 18.3862C88.431 16.2149 88.4414 14.0383 88.4258 11.867C88.4258 11.493 88.5089 11.3735 88.9194 11.3735C91.5484 11.3943 94.1775 11.3839 96.8065 11.3839C97.7106 11.3839 98.6146 11.4463 99.4667 11.7735C101.394 12.506 102.179 13.9812 101.768 15.9811C101.618 16.7136 101.15 17.2642 100.584 17.7317C100.262 17.9966 100.251 18.0122 100.625 18.22C102.449 19.2433 102.865 21.5393 102.049 23.1808C101.415 24.4535 100.282 25.0197 98.9524 25.295C98.3964 25.4093 97.8353 25.4664 97.2638 25.4664C94.4944 25.4664 91.7251 25.4664 88.9506 25.4664C88.4466 25.4664 88.4362 25.456 88.4362 24.9469C88.4362 22.76 88.4362 20.5731 88.4362 18.3862H88.431ZM90.795 18.4174C90.795 19.9238 90.8054 21.4354 90.7898 22.9418C90.7898 23.3003 90.8886 23.4353 91.2679 23.4353C93.341 23.4197 95.4193 23.4301 97.4924 23.4301C97.9496 23.4301 98.3912 23.3574 98.8173 23.1912C99.4148 22.9626 99.8408 22.5678 99.9967 21.9237C100.298 20.6926 99.607 19.5861 98.3497 19.3264C97.8301 19.2225 97.3053 19.1654 96.7753 19.1654C95.2426 19.1654 93.7099 19.1654 92.1771 19.181C91.8861 19.181 91.8342 19.1082 91.9537 18.8537C92.1355 18.4589 92.3226 18.0641 92.4629 17.6538C92.5772 17.3161 92.7642 17.2018 93.1175 17.207C94.5464 17.2226 95.9804 17.2174 97.4092 17.207C97.9028 17.207 98.3912 17.1239 98.8173 16.859C99.4719 16.4538 99.659 15.8357 99.5551 15.098C99.446 14.3448 99.0719 13.8098 98.3237 13.5864C97.9184 13.4669 97.4976 13.4046 97.0663 13.4046C95.1335 13.4046 93.2007 13.415 91.2679 13.4046C90.8834 13.4046 90.7898 13.5293 90.795 13.8877C90.8106 15.3941 90.8002 16.9057 90.8002 18.4122L90.795 18.4174Z" fill="white"/>
<path d="M30.3157 17.3837C27.7179 17.3265 24.7563 17.3006 21.7947 17.3421C19.6437 17.3785 17.4926 17.3941 15.3416 17.3785C15.2117 17.3785 15.0818 17.3785 14.9571 17.3577C14.7753 17.3265 14.7181 17.2175 14.8064 17.0512C14.8428 16.9837 14.874 16.911 14.9259 16.8538C15.6585 16.0383 16.1469 15.0617 16.7341 14.1527C18.4123 11.5762 20.0542 8.97887 21.7064 6.38679C22.7196 4.79725 23.7275 3.20771 24.7303 1.61298C25.1824 0.890934 25.172 0.927296 26.0137 1.09352C27.6919 1.42597 29.3805 1.71168 31.0639 2.01296C31.5212 2.09607 31.9784 2.17399 32.4356 2.24672C32.7006 2.28827 32.8825 2.40775 32.9552 2.68306C33.2617 3.77911 33.5995 4.86478 33.8852 5.96603C34.0307 6.53223 33.8333 7.10364 33.8281 7.67504C33.8229 8.35033 33.7294 9.02563 33.7086 9.70092C33.6462 11.4463 33.5215 13.1917 33.4124 14.937C33.3708 15.6227 33.3553 16.3136 33.3657 16.9993C33.3657 17.3162 33.2046 17.3733 32.9604 17.3733C32.2018 17.3733 31.438 17.3733 30.3157 17.3733V17.3837ZM29.9261 16.0798C30.4197 16.0798 30.7574 16.0643 31.0899 16.0798C31.464 16.1058 31.5939 15.9292 31.5991 15.5812C31.6043 15.1864 31.5575 14.7916 31.5368 14.3968C31.4172 12.0229 31.3133 9.65417 31.2146 7.28025C31.199 6.92183 31.0899 6.64132 30.8093 6.40756C29.3441 5.18165 27.8737 3.96092 26.4189 2.71942C26.1436 2.48567 25.9981 2.53761 25.8058 2.79734C24.8498 4.12715 23.8834 5.45696 22.9222 6.78157C21.5038 8.74512 20.0905 10.7087 18.6669 12.667C18.3292 13.1293 18.3292 13.1605 18.8643 13.3111C21.2803 13.9864 23.6912 14.6877 26.1176 15.3266C27.4165 15.6695 28.6739 16.2565 29.9157 16.0695L29.9261 16.0798Z" fill="white"/>
<path d="M149.367 18.3965C149.367 16.2096 149.372 14.0278 149.361 11.8409C149.361 11.4721 149.465 11.3734 149.845 11.3786C151.918 11.3994 153.991 11.3786 156.064 11.389C157.384 11.3942 158.693 11.5293 159.904 12.1007C162.423 13.2954 163.743 15.2901 163.873 18.0588C163.951 19.7315 163.629 21.295 162.6 22.656C161.374 24.2715 159.711 25.1754 157.69 25.3832C155.674 25.5858 153.648 25.4299 151.632 25.4715C151.04 25.4819 150.447 25.4559 149.855 25.4819C149.481 25.4974 149.367 25.3624 149.367 24.9988C149.382 22.8015 149.372 20.6042 149.372 18.4017L149.367 18.3965ZM151.731 18.4017C151.731 19.9341 151.736 21.4717 151.731 23.0041C151.731 23.3105 151.819 23.4404 152.151 23.4352C153.674 23.4248 155.196 23.4716 156.713 23.4144C158.059 23.3677 159.27 22.9261 160.252 21.934C161.057 21.1236 161.447 20.1678 161.556 19.0614C161.779 16.755 160.818 14.8278 158.615 13.8876C157.851 13.5603 157.03 13.4305 156.204 13.4201C154.864 13.3993 153.523 13.4253 152.183 13.4045C151.814 13.3993 151.725 13.5292 151.731 13.872C151.746 15.3784 151.736 16.89 151.736 18.3965L151.731 18.4017Z" fill="white"/>
<path d="M45.1309 18.376C45.1309 16.2515 45.1309 14.1321 45.1309 12.0075C45.1309 11.5919 45.3352 11.3841 45.744 11.3841C48.1912 11.3841 50.6435 11.379 53.0907 11.3841C54.0883 11.3841 55.0651 11.514 56.0004 11.888C57.4656 12.4646 58.5099 13.8983 58.5463 15.4307C58.5982 17.5085 57.5695 18.9267 55.5587 19.5396C55.434 19.576 55.3093 19.6123 55.1846 19.6383C54.9196 19.7006 54.8781 19.8149 55.0495 20.0383C56.3641 21.7421 57.6734 23.4511 58.9879 25.1601C59.0399 25.2277 59.149 25.29 59.1178 25.3783C59.0762 25.5082 58.9412 25.4614 58.8476 25.4614C58.115 25.4614 57.3772 25.4614 56.6446 25.4666C56.4004 25.4666 56.2446 25.3731 56.0991 25.1809C54.8937 23.555 53.6675 21.9395 52.4673 20.3084C52.2594 20.0279 52.036 19.924 51.6931 19.9344C50.8306 19.9552 49.9681 19.9448 49.1004 19.9396C48.6276 19.9396 48.5912 19.8825 48.7679 19.4669C48.9549 19.0305 49.1732 18.6098 49.3082 18.1527C49.3862 17.8825 49.6044 17.9085 49.8122 17.9085C51.1371 17.9085 52.4673 17.9085 53.7922 17.9085C54.0675 17.9085 54.3325 17.8774 54.5923 17.7942C55.7769 17.4202 56.2913 16.667 56.1822 15.4567C56.0887 14.4334 55.273 13.6334 54.1767 13.4931C53.7558 13.4412 53.3297 13.4152 52.9037 13.4152C51.2774 13.4204 49.6564 13.4152 48.0301 13.4152C47.4897 13.4152 47.4897 13.4152 47.4897 13.9347C47.4897 17.5813 47.4897 21.2227 47.4897 24.8692C47.4897 25.2675 47.2836 25.4666 46.8714 25.4666C46.461 25.4666 46.0453 25.4666 45.6348 25.4666C45.1464 25.4666 45.1309 25.451 45.1309 24.9731C45.1309 22.7758 45.1309 20.5733 45.1309 18.376Z" fill="white"/>
<path d="M185.867 18.3915C185.867 16.2046 185.872 14.0177 185.861 11.8308C185.861 11.4932 185.929 11.3685 186.308 11.3737C188.807 11.3945 191.307 11.3789 193.806 11.3893C194.814 11.3893 195.806 11.5243 196.757 11.9035C198.201 12.4801 199.241 13.9086 199.282 15.4203C199.339 17.5812 198.253 19.0045 196.087 19.6071C195.567 19.7525 195.562 19.7525 195.894 20.1837C197.183 21.8615 198.472 23.5394 199.76 25.212C199.807 25.2692 199.89 25.3263 199.843 25.4094C199.802 25.4873 199.708 25.4665 199.635 25.4665C198.851 25.4665 198.061 25.4665 197.277 25.4665C197.048 25.4665 196.939 25.3211 196.819 25.1653C195.598 23.529 194.372 21.9031 193.162 20.2668C192.98 20.0174 192.777 19.9343 192.481 19.9395C191.566 19.9551 190.652 19.9395 189.738 19.9499C189.41 19.9499 189.353 19.8253 189.473 19.5551C189.675 19.0876 189.909 18.6305 190.054 18.137C190.127 17.8929 190.34 17.9137 190.532 17.9137C191.857 17.9137 193.187 17.9137 194.512 17.9137C194.798 17.9137 195.079 17.8773 195.349 17.789C196.528 17.4046 197.038 16.6358 196.913 15.4358C196.809 14.4229 196.004 13.6385 194.923 13.4983C194.512 13.4463 194.102 13.4152 193.691 13.4152C192.029 13.4203 190.366 13.4255 188.704 13.41C188.335 13.41 188.22 13.5087 188.22 13.8827C188.231 17.5552 188.226 21.2226 188.226 24.8951C188.226 25.2761 188.037 25.4683 187.659 25.4717C187.223 25.4717 186.781 25.451 186.345 25.4769C185.971 25.4977 185.856 25.3575 185.861 24.9938C185.877 22.7965 185.867 20.594 185.867 18.3967V18.3915Z" fill="white"/>
<path d="M69.92 25.7002C67.187 25.7106 64.9268 25.2951 62.7654 24.3756C62.3238 24.1886 62.3134 24.1678 62.5056 23.7263C62.6719 23.3367 62.8693 22.9575 62.9888 22.5575C63.1031 22.1679 63.285 22.1627 63.6071 22.303C64.719 22.7861 65.8621 23.1861 67.0623 23.3835C68.6678 23.6484 70.2785 23.8198 71.8943 23.425C73.1361 23.1237 73.7077 22.3913 73.5726 21.2797C73.4894 20.5992 73.0166 20.2667 72.4555 20.0278C71.7125 19.7109 70.9071 19.6693 70.1174 19.5499C68.595 19.3213 67.0311 19.3057 65.5451 18.8486C64.1267 18.4123 63.0772 17.5915 62.7342 16.0747C62.3653 14.4384 63.0356 12.9268 64.4956 12.0957C65.6283 11.4463 66.8856 11.2438 68.169 11.1658C70.5227 11.0256 72.7828 11.4619 74.9806 12.2827C75.3235 12.4125 75.3859 12.558 75.23 12.8748C75.0534 13.2281 74.9027 13.5969 74.7676 13.9709C74.6533 14.2982 74.4974 14.3709 74.1597 14.2306C73.0998 13.7839 72.0086 13.4359 70.8656 13.3008C69.5199 13.1398 68.169 13.1086 66.8285 13.3527C66.3661 13.4359 65.9348 13.5969 65.5607 13.8826C64.7138 14.5319 64.7606 15.7786 65.6594 16.3656C66.3297 16.8019 67.1039 16.8851 67.8676 16.9838C69.3069 17.176 70.7617 17.2643 72.1957 17.5292C73.3855 17.7474 74.487 18.1525 75.2456 19.1707C76.3939 20.7135 76.3887 23.8873 73.6401 25.0509C72.3308 25.6067 70.9539 25.721 69.9355 25.7054L69.92 25.7002Z" fill="white"/>
<path d="M210.953 25.7002C208.236 25.7106 205.965 25.2847 203.783 24.3756C203.429 24.2302 203.372 24.0691 203.539 23.7419C203.72 23.3887 203.861 23.0198 204.011 22.651C204.219 22.1368 204.214 22.1316 204.744 22.3497C205.71 22.7445 206.687 23.1081 207.716 23.3055C209.441 23.638 211.176 23.8614 212.922 23.425C213.686 23.2328 214.367 22.9263 214.569 22.0588C214.793 21.1082 214.429 20.3966 213.514 20.033C212.751 19.7265 211.94 19.6745 211.14 19.5499C209.618 19.3213 208.054 19.3057 206.568 18.8434C205.154 18.4019 204.105 17.5707 203.772 16.0539C203.414 14.4332 204.084 12.932 205.529 12.1061C206.677 11.4515 207.945 11.2438 209.238 11.1658C211.576 11.0308 213.826 11.4619 216.008 12.2775C216.331 12.3969 216.45 12.5268 216.279 12.8593C216.097 13.2229 215.941 13.6073 215.801 13.9917C215.686 14.3034 215.53 14.3657 215.219 14.2358C214.159 13.7943 213.068 13.4411 211.925 13.3008C210.579 13.1398 209.228 13.1034 207.887 13.3476C207.441 13.4255 207.015 13.5761 206.646 13.8514C205.736 14.5215 205.788 15.8046 206.75 16.3968C207.415 16.8071 208.178 16.8851 208.932 16.9838C210.387 17.176 211.852 17.2643 213.296 17.5344C214.455 17.7525 215.53 18.1629 216.273 19.1499C217.427 20.6927 217.432 23.8925 214.652 25.0561C213.353 25.5963 211.987 25.7158 210.958 25.7002H210.953Z" fill="white"/>
<path d="M168.856 18.3758C168.856 16.2045 168.866 14.028 168.846 11.8566C168.846 11.4618 168.96 11.3735 169.35 11.3735C172.904 11.3891 176.463 11.3839 180.017 11.3839C180.624 11.3839 180.619 11.3839 180.593 11.9813C180.578 12.3397 180.583 12.6982 180.593 13.0514C180.598 13.3267 180.5 13.4254 180.204 13.4254C177.382 13.415 174.561 13.415 171.74 13.415C171.393 13.415 171.22 13.5812 171.22 13.9137C171.22 14.9006 171.231 15.8824 171.215 16.8694C171.21 17.1966 171.314 17.3109 171.657 17.3213C174.312 17.3992 176.967 17.3473 179.616 17.3577C179.944 17.3577 180.048 17.4096 179.887 17.7369C179.694 18.1265 179.513 18.5265 179.377 18.9368C179.263 19.2901 179.066 19.4095 178.697 19.4043C176.816 19.3888 174.935 19.3939 173.054 19.3939C172.592 19.3939 172.124 19.4095 171.662 19.3939C171.329 19.3784 171.205 19.4823 171.215 19.8251C171.236 20.8484 171.22 21.8718 171.22 22.8951C171.22 23.2552 171.399 23.4353 171.755 23.4353C174.707 23.4353 177.658 23.4353 180.609 23.4353C181.004 23.4353 181.199 23.6292 181.196 24.0171C181.196 24.36 181.18 24.708 181.196 25.0508C181.212 25.3677 181.087 25.4768 180.77 25.4768C179.793 25.4612 178.811 25.4768 177.834 25.4768C175.023 25.4768 172.218 25.4768 169.407 25.4768C168.872 25.4768 168.866 25.4768 168.866 24.9469C168.866 22.76 168.866 20.5731 168.866 18.3862L168.856 18.3758Z" fill="white"/>
<path d="M106.758 16.1212C106.758 14.7135 106.758 13.3058 106.758 11.9032C106.758 11.4046 106.768 11.3942 107.283 11.389C107.735 11.389 108.187 11.4098 108.633 11.3838C108.961 11.363 109.049 11.4721 109.049 11.789C109.039 14.0382 109.049 16.2927 109.039 18.5419C109.039 19.1185 109.075 19.6899 109.132 20.2613C109.247 21.3677 109.854 22.1781 110.738 22.817C112.047 23.7624 113.512 23.8144 115.024 23.5443C116.63 23.2534 118.37 21.6379 118.298 19.5445C118.209 17.0043 118.277 14.4538 118.277 11.9084C118.277 11.4046 118.292 11.3942 118.796 11.389C119.285 11.389 119.778 11.4046 120.267 11.3786C120.563 11.363 120.651 11.4565 120.646 11.7422C120.636 12.9941 120.646 14.2512 120.641 15.5031C120.641 16.9108 120.641 18.3185 120.641 19.7211C120.63 22.6041 119.087 24.6611 116.271 25.3831C114.167 25.9234 112.047 25.9078 110.031 25.0039C107.927 24.0637 106.851 22.3911 106.779 20.1107C106.737 18.7809 106.773 17.451 106.773 16.1212C106.773 16.1212 106.768 16.1212 106.763 16.1212H106.758Z" fill="white"/>
<path d="M134.212 18.3863C134.212 16.2149 134.223 14.0436 134.207 11.8671C134.207 11.4931 134.285 11.3424 134.701 11.3736C135.21 11.4152 135.729 11.3944 136.244 11.3788C136.498 11.3684 136.587 11.4515 136.581 11.7061C136.571 12.3814 136.581 13.0618 136.581 13.7371C136.581 16.7915 136.581 19.8459 136.581 22.9004C136.581 23.4302 136.581 23.4302 137.122 23.4302C139.787 23.4302 142.453 23.4302 145.118 23.4302C145.458 23.4302 145.627 23.5999 145.627 23.9393C145.627 24.3081 145.612 24.6821 145.627 25.0509C145.643 25.3678 145.513 25.4717 145.196 25.4717C143.726 25.4613 142.26 25.4717 140.79 25.4717C138.795 25.4717 136.8 25.4717 134.799 25.4717C134.411 25.4717 134.217 25.2829 134.217 24.9055C134.217 22.7341 134.217 20.5628 134.217 18.3863H134.212Z" fill="white"/>
<path d="M126.167 18.3864C126.167 16.2151 126.178 14.0386 126.162 11.8672C126.162 11.488 126.245 11.3426 126.656 11.3789C127.18 11.4205 127.71 11.3997 128.24 11.3841C128.463 11.3841 128.546 11.4621 128.536 11.675C128.526 11.8516 128.536 12.0335 128.536 12.2101C128.536 16.4436 128.536 20.672 128.536 24.9056C128.536 25.2831 128.344 25.4718 127.959 25.4718C127.549 25.4718 127.133 25.4718 126.723 25.4718C126.36 25.4718 126.178 25.2848 126.178 24.9108C126.178 22.7395 126.178 20.5629 126.178 18.3916L126.167 18.3864Z" fill="white"/>
</g>
<defs>
<clipPath id="clip0_8099_11353">
<rect width="215" height="34.2686" fill="white" transform="translate(2 1)"/>
</clipPath>
</defs>
</svg>
