<svg width="220" height="40" viewBox="0 0 220 40" fill="none" xmlns="http://www.w3.org/2000/svg">
<g clip-path="url(#clip0_8105_6082)">
<path d="M146.587 28.6611C146.515 29.121 146.476 29.5853 146.469 30.0507C146.418 31.7513 146.035 33.4255 145.34 34.9786C144.839 36.0266 144.122 36.9563 143.235 37.7064C142.348 38.4565 141.312 39.0099 140.195 39.33C138.781 39.7739 137.307 39.9999 135.824 40.0002C135.509 40.0002 135.189 40.0002 134.873 39.9706C133.115 39.8222 131.379 39.4835 129.694 38.9604C129.339 38.8569 128.994 38.7436 128.634 38.6598C128.422 38.6105 128.408 38.5317 128.472 38.3345C128.787 37.4623 129.098 36.5852 129.379 35.7031C129.453 35.4714 129.546 35.4567 129.743 35.5109L132.439 36.2205C133.419 36.4862 134.43 36.6205 135.445 36.6196H136.036C137.178 36.5687 138.3 36.2958 139.338 35.8164C140.051 35.46 140.671 34.9429 141.15 34.3058C141.629 33.6687 141.953 32.929 142.098 32.1451C142.248 31.4435 142.327 30.7287 142.334 30.0113C142.334 29.829 142.285 29.8142 142.132 29.898C141.717 30.1314 141.323 30.4001 140.954 30.7012C139.823 31.6001 138.451 32.1437 137.012 32.2633C136.599 32.3185 136.182 32.3465 135.765 32.3471C133.675 32.3468 131.641 31.6671 129.97 30.4104C128.258 29.1241 127.083 27.2491 126.673 25.1475C126.506 24.4184 126.422 23.6729 126.422 22.925C126.422 22.7081 126.422 22.4913 126.422 22.2745C126.496 20.565 127.041 18.9092 127.998 17.4906C128.954 16.072 130.285 14.9459 131.843 14.237C133.261 13.5523 134.816 13.1969 136.391 13.1973C136.711 13.1973 137.032 13.1972 137.347 13.2416C139.035 13.3271 140.679 13.8082 142.147 14.646C143.842 15.6619 145.121 17.2481 145.754 19.1206C146.14 20.233 146.365 21.3944 146.424 22.5702C146.424 22.6342 146.424 22.6934 146.424 22.7574C146.426 23.0709 146.462 23.3833 146.533 23.6888V28.6611H146.587ZM130.591 23.0235C130.579 24.1979 130.914 25.3498 131.553 26.3352C132.192 27.3206 133.107 28.0959 134.184 28.5643C135.261 29.0327 136.452 29.1734 137.609 28.9689C138.765 28.7645 139.836 28.2238 140.687 27.4145C141.538 26.6052 142.132 25.5631 142.395 24.4183C142.657 23.2735 142.576 22.0768 142.163 20.9776C141.749 19.8784 141.021 18.9253 140.069 18.2375C139.117 17.5497 137.983 17.1575 136.81 17.11H136.549C134.981 17.0982 133.473 17.7093 132.356 18.8089C131.239 19.9085 130.604 21.4067 130.591 22.9742V23.0038V23.0235Z" fill="white"/>
<path d="M118.441 0L119.865 1.69517H117.031L118.377 0H118.441Z" fill="white"/>
<path d="M99.606 23.1714C99.5567 25.2165 99.5814 27.2615 99.6356 29.3115V29.3461C99.6392 29.9236 99.8348 30.4836 100.192 30.9377C100.549 31.3918 101.046 31.7143 101.607 31.8543C101.935 31.9356 102.277 31.9498 102.611 31.8959C102.945 31.8421 103.264 31.7213 103.551 31.5409C103.837 31.3606 104.084 31.1242 104.276 30.8461C104.469 30.5681 104.604 30.2539 104.672 29.9226C104.797 29.2729 104.859 28.6129 104.859 27.9514C104.859 27.6952 104.859 27.4587 104.83 27.1827C104.795 26.6061 104.776 26.0197 104.776 25.4431C104.776 24.7237 104.805 23.9992 104.859 23.2847C105.008 20.9873 105.967 18.8173 107.566 17.1613C109.165 15.5052 111.301 14.4707 113.591 14.242C115.919 13.9698 118.268 14.5361 120.216 15.8394C122.164 17.1426 123.584 19.0974 124.221 21.353C124.426 22.1924 124.538 23.0516 124.556 23.9155C124.625 26.6948 124.64 29.484 124.605 32.2929V32.3865C124.605 33.2993 124.547 34.2111 124.433 35.1166C124.315 35.5416 124.083 35.9263 123.763 36.2293C123.442 36.5324 123.045 36.7423 122.614 36.8365C122.424 36.8813 122.229 36.9044 122.033 36.9055C121.407 36.9068 120.804 36.6697 120.346 36.2422C119.888 35.8147 119.61 35.229 119.569 34.6041C119.495 33.2203 119.495 31.8337 119.569 30.4499C119.613 28.6759 119.618 26.9018 119.569 25.1327C119.569 24.2581 119.466 23.3865 119.264 22.5356C119.077 21.8189 118.715 21.1602 118.208 20.6196C117.702 20.0791 117.069 19.6739 116.366 19.441C115.829 19.2446 115.262 19.1445 114.691 19.1452C113.572 19.1376 112.486 19.5247 111.624 20.2386C110.762 20.9524 110.18 21.9473 109.979 23.0482C109.865 23.8017 109.808 24.5627 109.807 25.3249C109.807 25.6205 109.807 25.926 109.831 26.2217C109.876 26.8131 109.901 27.4094 109.901 28.0007C109.901 28.7646 109.866 29.5333 109.792 30.2922C109.651 31.621 109.146 32.8852 108.333 33.9458C107.52 35.0065 106.431 35.8225 105.185 36.3043C104.235 36.714 103.212 36.9253 102.179 36.9252C101.949 36.9252 101.717 36.9153 101.484 36.8956C99.6139 36.7399 97.8741 35.8761 96.6197 34.4809C95.7163 33.5802 95.0859 32.4425 94.8013 31.199C94.6874 30.6504 94.6199 30.0932 94.5994 29.5333C94.5058 25.7733 94.5156 22.0133 94.5402 18.2484C94.5402 18.1991 94.5402 18.14 94.5402 18.0858C94.5418 17.3838 94.6028 16.6831 94.7226 15.9914C94.7784 15.7421 94.885 15.507 95.0359 15.301C95.1869 15.0949 95.3788 14.9223 95.5997 14.7939C96.0357 14.4566 96.571 14.2729 97.1223 14.2715C97.7491 14.2628 98.3549 14.4962 98.8139 14.9231C99.2729 15.3499 99.5496 15.9373 99.5863 16.563C99.7391 18.3962 99.6307 20.2393 99.6258 22.0823C99.6258 22.4371 99.6258 22.8067 99.6258 23.1714H99.606Z" fill="white"/>
<path d="M76.3394 30.159V39.2854C76.3394 39.522 76.2948 39.6058 76.0386 39.6008H72.4117C72.1998 39.6008 72.126 39.5615 72.121 39.3298C72.0373 35.2742 71.9879 31.2185 72.0323 27.1677C72.0323 25.6124 72.1112 24.0582 72.2688 22.5109C72.3224 21.334 72.5499 20.1716 72.944 19.0613C73.476 17.7291 74.3174 16.5426 75.3988 15.6C76.4802 14.6574 77.7706 13.9858 79.1631 13.6406C80.1351 13.358 81.1419 13.2137 82.1542 13.2119C82.3563 13.2119 82.5632 13.2119 82.7603 13.2119C84.0571 13.2391 85.3355 13.5251 86.5203 14.0532C87.705 14.5812 88.7722 15.3407 89.6594 16.2869C90.849 17.5695 91.649 19.1642 91.9658 20.8846C92.1208 21.5971 92.2 22.3239 92.2023 23.0529C92.1991 25.2352 91.4903 27.358 90.1818 29.1044C89.5029 30.0241 88.6479 30.7997 87.6666 31.3859C86.6852 31.9722 85.597 32.3575 84.4654 32.5194C83.8151 32.6385 83.1553 32.6979 82.4942 32.6968H81.8635C80.3082 32.61 78.8191 32.0378 77.6058 31.0608C77.2043 30.7217 76.774 30.4183 76.3196 30.1541L76.3394 30.159ZM81.9275 29.0354C82.386 29.0339 82.8431 28.9877 83.2926 28.8974C84.0854 28.7577 84.8361 28.4392 85.4875 27.9662C86.139 27.4932 86.6742 26.878 87.0525 26.1674C87.8197 24.6879 87.9959 22.9721 87.5453 21.3676C87.2346 20.0052 86.4374 18.8032 85.3032 17.987C84.6333 17.5737 83.8882 17.2968 83.1109 17.1722C82.3337 17.0476 81.5396 17.0777 80.774 17.2609C80.0084 17.4441 79.2865 17.7766 78.6498 18.2395C78.0131 18.7024 77.474 19.2864 77.0636 19.9582C76.5455 20.8933 76.2726 21.9445 76.2703 23.0135C76.2688 24.256 76.6376 25.4707 77.3298 26.5025C77.7795 27.2805 78.4262 27.9265 79.2047 28.3754C79.9832 28.8244 80.8662 29.0605 81.7649 29.06L81.9275 29.0354Z" fill="white"/>
<path d="M112.921 7.86021V5.14492C112.984 4.47829 113.264 3.85073 113.718 3.35849C114.172 2.86625 114.775 2.53649 115.434 2.41977C115.597 2.39441 115.762 2.38125 115.927 2.38037C116.763 2.38081 117.566 2.71207 118.159 3.30189C118.336 3.47437 118.44 3.46944 118.613 3.30189C119.019 2.88576 119.536 2.59454 120.103 2.4626C120.669 2.33067 121.262 2.3635 121.81 2.55723C122.359 2.75095 122.841 3.0975 123.199 3.55598C123.557 4.01447 123.776 4.56579 123.831 5.14492C123.871 5.57365 123.895 6.0073 123.895 6.43603C123.895 6.62329 123.895 6.82036 123.895 7.00269V10.6592C123.895 10.9056 123.816 10.9598 123.59 10.95H122.333C122.101 10.95 122.027 10.8958 122.027 10.6592V5.92351C122.027 5.85945 122.027 5.79538 122.027 5.73131C122.027 5.51922 122.004 5.30777 121.959 5.10053C121.894 4.81822 121.734 4.56662 121.506 4.38739C121.279 4.20815 120.997 4.11202 120.707 4.11495H120.544C120.243 4.14554 119.96 4.27461 119.739 4.48213C119.518 4.68966 119.372 4.96415 119.322 5.26319C119.279 5.53204 119.257 5.80398 119.258 6.0763V10.6888C119.258 10.9155 119.209 11.0042 118.967 10.9845C118.539 10.9549 118.11 11.0387 117.681 10.9845C117.484 10.9845 117.42 10.8909 117.425 10.6839C117.425 8.8852 117.504 7.08648 117.395 5.28779C117.375 4.98355 117.247 4.69655 117.034 4.4787C116.82 4.26086 116.536 4.12662 116.232 4.10021H116.055C115.754 4.09753 115.461 4.1983 115.225 4.38576C114.989 4.57323 114.824 4.836 114.759 5.13012C114.716 5.3059 114.694 5.48626 114.695 5.66725V10.674C114.695 10.9303 114.621 10.9894 114.379 10.9796H113.123C112.921 10.9796 112.866 10.9253 112.871 10.7332V7.89468H112.926L112.921 7.86021Z" fill="white"/>
<path d="M133.774 8.54031V10.6938C133.774 10.8761 133.739 10.9549 133.527 10.95H132.182C131.98 10.95 131.876 10.9008 131.911 10.6839C131.913 10.6594 131.913 10.6346 131.911 10.61C131.913 10.5871 131.913 10.5639 131.911 10.541C131.911 10.4375 131.98 10.2996 131.866 10.2453C131.753 10.1911 131.709 10.3389 131.635 10.3981C130.883 10.9706 129.936 11.2238 128.999 11.1028C128.449 11.0648 127.912 10.9171 127.42 10.6682C126.929 10.4194 126.492 10.0745 126.135 9.65396C125.578 8.96268 125.235 8.12324 125.15 7.23933C125.12 7.05023 125.105 6.85909 125.106 6.66768C125.102 5.97403 125.288 5.29259 125.643 4.69651C126.653 3.06537 128.106 2.18822 130.102 2.49375C130.968 2.58909 131.781 2.95685 132.424 3.54406C133.067 4.13127 133.507 4.90759 133.68 5.76096C133.739 6.02797 133.769 6.30056 133.769 6.57401C133.769 7.19986 133.769 7.8553 133.769 8.51564L133.774 8.54031ZM129.442 4.23819C128.957 4.24693 128.485 4.39886 128.085 4.67485C127.686 4.95085 127.377 5.33866 127.197 5.78959C127.018 6.24052 126.975 6.73449 127.075 7.20949C127.175 7.6845 127.414 8.11935 127.76 8.45952C128.106 8.79969 128.545 9.02999 129.022 9.12153C129.499 9.21306 129.992 9.16175 130.439 8.97402C130.887 8.7863 131.269 8.47052 131.538 8.06634C131.807 7.66216 131.95 7.18756 131.95 6.70214V6.65781C131.928 6.00855 131.654 5.39345 131.186 4.94339C130.717 4.49333 130.092 4.24384 129.442 4.24805V4.23819Z" fill="white"/>
<path d="M107.864 2.4198H107.977C109.142 2.41011 110.283 2.75374 111.249 3.40538C111.629 3.6567 111.624 3.66657 111.298 3.97703L110.574 4.67676C110.475 4.77039 110.416 4.7901 110.268 4.67676C109.586 4.20644 108.776 3.9539 107.947 3.95237C107.652 3.95321 107.358 3.98624 107.07 4.0509C106.956 4.0768 106.846 4.11485 106.74 4.1643C106.597 4.21782 106.474 4.31322 106.386 4.43806C106.298 4.5629 106.25 4.71134 106.247 4.86402C106.254 5.01143 106.304 5.15355 106.392 5.27211C106.48 5.39067 106.601 5.48023 106.74 5.52928C107.32 5.75705 107.932 5.89341 108.553 5.9334C109.295 5.99248 110.015 6.21277 110.663 6.57892C110.954 6.76344 111.199 7.01396 111.376 7.31023C111.553 7.6065 111.658 7.94025 111.682 8.28456C111.707 8.62888 111.65 8.97413 111.517 9.29246C111.383 9.6108 111.177 9.8933 110.914 10.1172C110.263 10.6719 109.459 11.0157 108.608 11.1028C108.348 11.1364 108.086 11.1528 107.824 11.152C106.457 11.1538 105.129 10.6995 104.05 9.86093L103.936 9.77226C103.808 9.6737 103.818 9.59482 103.936 9.4864C104.256 9.17595 104.567 8.85563 104.872 8.50082C104.986 8.37762 105.06 8.36777 105.188 8.50082C105.756 8.98609 106.446 9.305 107.184 9.42234C107.45 9.48534 107.723 9.5168 107.997 9.516C108.399 9.51581 108.799 9.44748 109.179 9.31394C109.337 9.26732 109.475 9.17119 109.574 9.03981C109.672 8.90844 109.726 8.74883 109.726 8.58462C109.727 8.47972 109.705 8.37592 109.662 8.27999C109.62 8.18407 109.558 8.09815 109.48 8.02776C109.193 7.8174 108.85 7.69578 108.495 7.6779C107.659 7.59825 106.833 7.43312 106.031 7.18511C105.655 7.07747 105.309 6.88449 105.02 6.62121C104.731 6.35794 104.507 6.03145 104.365 5.66727C104.311 5.4697 104.285 5.26582 104.286 5.06115C104.289 4.56307 104.442 4.07751 104.726 3.66844C105.01 3.25936 105.412 2.94597 105.878 2.76966C106.476 2.51453 107.12 2.38374 107.77 2.38527L107.864 2.4198Z" fill="white"/>
<path d="M140.223 4.56337V1.1779C140.223 0.926574 140.316 0.842773 140.538 0.842773H141.834C142.012 0.842773 142.046 0.926598 142.046 1.07936V2.34581C142.046 2.51829 142.095 2.5676 142.263 2.56267H143.894C144.071 2.56267 144.14 2.59715 144.131 2.79427V4.08538C144.131 4.248 144.081 4.29236 143.924 4.28251H142.278C142.086 4.28251 142.026 4.33672 142.031 4.53383V7.69258C142.029 7.73197 142.029 7.77146 142.031 7.81085C142.039 8.19779 142.198 8.56627 142.475 8.83715C142.751 9.10804 143.123 9.25976 143.51 9.25968H143.648C144.318 9.23012 144.318 9.25965 144.318 9.90028V10.7923C144.318 10.876 144.318 10.9549 144.19 10.9697C142.524 11.1372 140.814 10.4769 140.317 8.5057C140.254 8.20425 140.222 7.89707 140.223 7.58912C140.223 7.5152 140.223 7.43636 140.223 7.35752C140.223 6.40643 140.223 5.47996 140.223 4.55844V4.56337Z" fill="white"/>
<path d="M99.3578 10.2998C99.3636 10.8332 99.2107 11.3563 98.9186 11.8026C98.6266 12.249 98.2086 12.5984 97.7175 12.8066C97.2263 13.0148 96.6843 13.0723 96.1604 12.9719C95.6365 12.8714 95.1544 12.6175 94.7751 12.2424C94.3959 11.8673 94.1367 11.388 94.0304 10.8653C93.9242 10.3426 93.9759 9.80004 94.1786 9.30667C94.3814 8.81329 94.7262 8.39134 95.1693 8.09436C95.6124 7.79738 96.1337 7.63878 96.6671 7.63875H96.7016C97.0478 7.63615 97.3911 7.70181 97.7119 7.8319C98.0328 7.962 98.325 8.15402 98.5717 8.397C98.8183 8.63999 99.0145 8.92914 99.1494 9.24802C99.2843 9.5669 99.3552 9.90927 99.3578 10.2555V10.2998Z" fill="white"/>
<path d="M135.149 8.1068V5.69211C135.149 5.69211 135.149 5.64776 135.149 5.62805C135.153 4.92063 135.4 4.23618 135.849 3.68906C136.297 3.14195 136.92 2.76531 137.613 2.62203C137.977 2.55703 138.347 2.52402 138.717 2.52344H139.037C139.165 2.52344 139.185 2.57768 139.185 2.6861V4.07081C139.185 4.20386 139.14 4.2482 139.012 4.24327H138.352C138.17 4.24132 137.99 4.27528 137.822 4.34313C137.653 4.41098 137.5 4.5114 137.37 4.63867C137.241 4.76595 137.137 4.91755 137.066 5.08478C136.996 5.25202 136.958 5.43163 136.957 5.61325C136.957 5.65267 136.957 5.69702 136.957 5.73645V10.5708C136.957 10.8763 136.864 10.9403 136.583 10.9256C136.184 10.9009 135.779 10.9256 135.385 10.9256C135.208 10.9256 135.144 10.9255 135.149 10.7038V8.10187V8.1068Z" fill="white"/>
</g>
<defs>
<clipPath id="clip0_8105_6082">
<rect width="220" height="40" fill="white"/>
</clipPath>
</defs>
</svg>
