<svg width="220" height="40" viewBox="0 0 220 40" fill="none" xmlns="http://www.w3.org/2000/svg">
<path d="M47.4229 31.2816C47.422 31.2009 47.3994 31.1223 47.358 31.0558C47.3165 30.9894 47.258 30.938 47.19 30.9084L43.0522 28.312L40.3713 26.653C40.3211 26.6129 40.2604 26.5925 40.1985 26.5949C40.1392 26.5937 40.081 26.6141 40.0332 26.653L33.1616 30.983L33.0039 31.0992C33.2968 31.2983 33.5669 31.4558 33.8297 31.6466C33.9055 31.7168 34.0014 31.7553 34.1003 31.7553C34.1992 31.7553 34.2948 31.7168 34.3706 31.6466C35.1591 31.1406 35.9553 30.6512 36.7589 30.1452L39.5451 28.3866L40.2282 27.9719L40.3335 28.03L46.1086 31.6466C46.1606 31.6747 46.2046 31.7184 46.2351 31.7726C46.2657 31.8269 46.2816 31.8896 46.2813 31.9535V38.5896H47.4155V31.3812L47.4229 31.2816Z" fill="white"/>
<path d="M54.9381 16.4003C52.6501 14.9735 50.3646 13.5357 48.0816 12.0868L47.8938 11.979L40.6915 16.5247V25.3756C40.6898 25.4484 40.7084 25.52 40.7447 25.5808C40.7809 25.6416 40.8331 25.6887 40.8943 25.7157L47.7208 30.0209C47.7785 30.0638 47.8466 30.0869 47.9162 30.0872C47.9835 30.0867 48.049 30.0636 48.104 30.0209L54.7504 25.8734C54.8705 25.7904 54.9905 25.7074 55.1182 25.6328V16.7404C55.1187 16.6754 55.1018 16.6116 55.0698 16.557C55.0377 16.5025 54.9921 16.4595 54.9381 16.4335V16.4003ZM52.4897 24.2806L48.104 27.0844C48.0341 27.1401 47.9499 27.1692 47.8638 27.1674C47.7775 27.1704 47.6926 27.1412 47.6232 27.0844C46.1738 26.1554 44.7168 25.2512 43.2448 24.347C43.1711 24.3103 43.1087 24.2509 43.0648 24.1758C43.0208 24.1008 42.9974 24.0133 42.9973 23.924V18.1837C42.9938 18.1674 42.9938 18.1503 42.9973 18.134C42.9991 18.0631 43.019 17.9943 43.0549 17.9355C43.0908 17.8768 43.1413 17.8305 43.2001 17.8022L47.7061 15.0233C47.767 14.9814 47.8367 14.9584 47.9085 14.9569C47.9805 14.9571 48.0509 14.9802 48.1113 15.0233L52.6173 17.8022C52.6727 17.8269 52.7203 17.8693 52.7537 17.924C52.7872 17.9787 52.8049 18.0431 52.805 18.1091V21.0456H52.8501V23.8244C52.8442 23.9256 52.8101 24.0223 52.7522 24.1011C52.6944 24.1798 52.6159 24.2368 52.5275 24.2641L52.4897 24.2806Z" fill="white"/>
<path d="M39.8264 16.5247L32.6094 11.979V13.2067C32.6093 13.2514 32.6204 13.2953 32.6416 13.3334C32.6629 13.3715 32.6931 13.4023 32.7293 13.4223L32.9321 13.555L38.5195 17.0556C38.5835 17.0894 38.638 17.1423 38.6764 17.2082C38.7149 17.2741 38.7359 17.3505 38.7373 17.4289V24.5378C38.7359 24.6237 38.7127 24.7074 38.6702 24.7793C38.6277 24.8512 38.5677 24.9084 38.4971 24.9443L32.8796 28.4614C32.8013 28.5 32.7349 28.5628 32.6882 28.6423C32.6416 28.7218 32.6166 28.8146 32.6167 28.9093V30.0707L39.7963 25.5498V16.4833L39.8264 16.5247Z" fill="white"/>
<path d="M40.4648 15.4547L42.6052 14.1109L47.2311 11.1993C47.2925 11.1717 47.3452 11.1247 47.3826 11.0642C47.4199 11.0037 47.4406 10.9324 47.4416 10.8592V2L46.5028 2.58067C46.447 2.61031 46.3993 2.656 46.365 2.71291C46.3306 2.76983 46.3107 2.83589 46.3074 2.90419V10.179C46.3078 10.2578 46.2874 10.3351 46.2487 10.4014C46.2101 10.4677 46.1547 10.5201 46.0896 10.5523L40.6899 13.9533C40.5472 14.0446 40.397 14.1192 40.2543 14.2187L40.0214 14.0777L34.4942 10.602C34.1262 10.3615 34.1262 10.3615 33.7432 10.602L32.9922 11.0666L40.1945 15.604L40.4648 15.4547Z" fill="white"/>
<path d="M94.9818 15.2222H84.2727C83.9973 15.2216 83.7225 15.255 83.4539 15.3217C82.8065 15.4999 82.2302 15.9082 81.8136 16.4838C81.397 17.0594 81.1632 17.7703 81.1484 18.5071V27.4575C81.1484 27.5073 81.1484 27.557 81.1484 27.6068C81.1484 27.6566 81.1484 27.6981 81.1484 27.7479H85.4891V18.3578H93.6375C93.675 18.814 93.6976 19.2785 93.6976 19.7347C93.6976 20.191 93.6976 20.6472 93.6375 21.1035H87.9375V24.0316H93.7126V27.7396H98.0683V18.3826C98.0682 17.9113 97.9571 17.4482 97.7456 17.0388C97.4938 16.4907 97.1089 16.0306 96.6341 15.7098C96.1594 15.389 95.6135 15.2202 95.057 15.2222H94.9818Z" fill="white"/>
<path d="M182.082 15.2553V20.3402H173.896V15.2471H169.562V27.7644H173.918V23.3348C174.421 23.2519 181.834 23.2768 182.179 23.3348V27.7312H186.52V15.2305H182.112L182.082 15.2553Z" fill="white"/>
<path d="M112.676 15.2222H98.9023V27.7395H103.236V18.3578H111.497V27.7395H115.852V18.4407C115.852 17.9526 115.738 17.4729 115.522 17.0471C115.268 16.4951 114.88 16.0325 114.401 15.7115C113.922 15.3905 113.371 15.2238 112.811 15.2305L112.676 15.2222Z" fill="white"/>
<path d="M154.95 15.2305H154.897C154.644 15.2321 154.392 15.2655 154.146 15.33C153.498 15.4945 152.918 15.8962 152.503 16.4699C152.087 17.0436 151.859 17.7556 151.855 18.4904V24.5127C151.871 25.3812 152.195 26.2082 152.756 26.8162C153.318 27.4241 154.073 27.7646 154.859 27.7644H168.723V24.662H156.234C156.159 23.7247 156.189 18.6232 156.271 18.3411H168.753V15.2471H168.43H154.95V15.2305Z" fill="white"/>
<path d="M138.524 22.9698H144.074V20.0831H138.524V18.3411H151.021C151.021 17.8186 151.073 17.296 151.073 16.7817C151.073 16.2674 151.073 15.7365 151.021 15.2222H137.18C136.387 15.235 135.63 15.5887 135.069 16.2082C134.508 16.8277 134.187 17.6642 134.176 18.5402V24.7533C134.198 25.3558 134.389 25.9359 134.724 26.4123C135.01 26.8431 135.385 27.1932 135.817 27.4339C136.249 27.6747 136.726 27.7993 137.21 27.7976H151.081V24.6952H138.554V23.0362L138.524 22.9698Z" fill="white"/>
<path d="M133.246 15.2309H116.648V18.2835H122.874V27.6902H127.2V18.2337H133.381C133.381 17.7194 133.433 17.2051 133.433 16.6908C133.433 16.1765 133.433 15.6622 133.373 15.1479L133.246 15.2309Z" fill="white"/>
<path d="M78.564 20.3403C78.183 20.1547 77.7714 20.0587 77.355 20.0582H67.8021V18.3411H80.3814V15.2222H66.075C65.4363 15.3182 64.8424 15.6386 64.3812 16.136C63.9201 16.6334 63.616 17.2815 63.514 17.9845C63.514 18.2997 63.4766 18.6149 63.4766 18.9218C63.4766 19.2287 63.4764 19.544 63.514 19.8592C63.5343 20.5997 63.8018 21.3058 64.265 21.8417C64.5502 22.1893 64.8976 22.4677 65.2855 22.659C65.6733 22.8504 66.0932 22.9506 66.518 22.9532H76.0107V24.6123H63.4912V27.7063H77.4449C78.2221 27.6915 78.9641 27.3444 79.5145 26.738C80.0649 26.1316 80.381 25.3131 80.3964 24.4547V23.1606C80.3787 22.5431 80.198 21.9448 79.8764 21.4393C79.5549 20.9338 79.1064 20.5431 78.5864 20.3154L78.564 20.3403Z" fill="white"/>
<path d="M59.1289 27.8479H59.7974V15.2891H59.1289V27.8479Z" fill="white"/>
</svg>
