<svg width="220" height="40" viewBox="0 0 220 40" fill="none" xmlns="http://www.w3.org/2000/svg">
<g clip-path="url(#clip0_8099_10409)">
<g clip-path="url(#clip1_8099_10409)">
<mask id="mask0_8099_10409" style="mask-type:luminance" maskUnits="userSpaceOnUse" x="42" y="-1" width="136" height="41">
<path d="M177.707 -0.000244141H42V39.6807H177.707V-0.000244141Z" fill="white"/>
</mask>
<g mask="url(#mask0_8099_10409)">
<path fill-rule="evenodd" clip-rule="evenodd" d="M49.572 -0.000244141H77.1351C81.2754 -0.000244141 84.7069 3.12503 84.7069 7.00812V32.5208C84.7069 36.404 81.2754 39.5801 77.1351 39.5801H49.572C45.3771 39.5801 42 36.403 42 32.5208V7.00812C42 3.12579 45.3771 -0.000244141 49.572 -0.000244141ZM80.1859 20.3194L78.8236 17.2434H78.8243C78.2807 15.9826 78.0075 14.6719 78.0075 13.3611C78.0075 11.8485 78.2252 10.5878 78.5521 9.62969C78.9875 8.51992 79.8046 6.95654 81.1669 4.94028H78.1705C75.9918 7.10825 74.902 10.0325 74.902 13.663C74.902 15.0238 75.1751 16.2345 75.6105 17.2426L77.2443 21.0248C77.8436 22.3864 78.1705 23.6464 78.1705 24.9071C78.1705 26.2688 78.0613 27.3277 77.8436 28.0332C77.5711 28.9912 76.9721 30.1511 76.0459 31.5127H79.4774C80.6213 29.4449 81.1662 27.2769 81.1662 24.9071C81.1662 23.3946 80.84 21.8312 80.1859 20.3194ZM60.9024 3.88195H51.3695C49.1363 3.88195 47.3386 5.54625 47.3386 7.61333V16.4369C47.3386 18.504 49.1363 20.1683 51.3695 20.1683H60.9024C63.1356 20.1683 64.988 18.504 64.988 16.4369V7.61333C64.988 5.54625 63.1356 3.88195 60.9024 3.88195Z" fill="white"/>
<path fill-rule="evenodd" clip-rule="evenodd" d="M168.868 23.4961V8.52061C168.868 8.067 168.65 7.61261 168.214 7.25989C167.778 6.95723 167.233 6.75546 166.689 6.75546C165.327 6.75546 164.619 7.36077 164.619 8.51985V23.4946H168.867L168.868 23.4961ZM171.918 31.5134H168.868V26.1686H164.619V31.5134H161.569V8.52061C161.569 7.25989 162.059 6.20094 163.04 5.34376C164.021 4.48658 165.219 4.03297 166.689 4.03297C167.997 4.03297 169.195 4.48658 170.284 5.44464C171.374 6.40271 171.918 7.41084 171.918 8.52061V31.5126V31.5134ZM153.397 4.94097L146.806 28.841H152.526V31.5134H142.884L149.366 7.6134H143.81V4.94097H153.397ZM135.748 31.5134H132.697V20.1183L128.775 14.068V31.5142H125.724V3.5293L132.697 14.9752V4.94097H135.748V31.5134ZM117.663 31.5134H112.161C109.873 31.5134 108.729 30.3035 108.729 27.8328V4.94097H117.663V7.6134H111.726V23.4961H117.663V26.1686H111.726V27.8328C111.726 28.5391 112.27 28.841 113.36 28.841H117.663V31.5134ZM96.3094 15.4288C96.3094 13.7145 95.9826 12.3529 95.3832 11.2939C94.7839 10.235 93.6947 9.17602 92.0606 8.01618V22.9909C94.893 21.3775 96.3094 18.806 96.3094 15.4281M99.414 15.4281C99.414 17.7478 99.0327 19.5122 98.3796 20.823C97.3448 22.7892 95.2203 24.6552 92.0606 26.4197V31.5126H89.0098V3.57936C92.3324 4.58746 94.893 6.15087 96.6901 8.26877C98.4881 10.3359 99.414 12.7564 99.414 15.4288" fill="white"/>
<path fill-rule="evenodd" clip-rule="evenodd" d="M167.342 37.9165H168.214C168.214 38.2191 168.377 38.4709 168.596 38.6729C168.813 38.8237 169.14 38.9247 169.522 38.9247C169.903 38.9247 170.23 38.8739 170.448 38.7227C170.666 38.5719 170.775 38.3703 170.775 38.1683C170.775 37.9667 170.72 37.8155 170.612 37.7149C170.503 37.6139 170.285 37.5637 169.958 37.4627L168.977 37.2611C168.432 37.1103 167.996 36.9585 167.779 36.7565C167.561 36.5549 167.452 36.2522 167.452 35.8486C167.452 35.445 167.669 35.0922 167.996 34.8404C168.378 34.5886 168.868 34.4368 169.467 34.4368C170.066 34.4368 170.557 34.588 170.938 34.8404C171.32 35.1431 171.537 35.4959 171.537 35.9496V35.9998H170.666C170.611 35.6968 170.502 35.4952 170.284 35.3942C170.121 35.2434 169.794 35.1424 169.467 35.1424C169.085 35.1424 168.813 35.2434 168.65 35.3444C168.432 35.445 168.378 35.5962 168.378 35.8486C168.378 35.9998 168.432 36.1004 168.541 36.2014C168.65 36.3024 168.868 36.4031 169.195 36.4532L170.066 36.6549C170.666 36.7559 171.101 36.9578 171.32 37.1595C171.537 37.3611 171.646 37.664 171.646 38.0667C171.646 38.5713 171.483 38.9237 171.102 39.2267C170.666 39.5293 170.176 39.63 169.468 39.63C168.76 39.63 168.269 39.4791 167.889 39.2267C167.507 38.9237 167.344 38.4703 167.344 37.9159M159.826 36.2522C159.772 35.8995 159.663 35.647 159.391 35.445C159.173 35.2942 158.846 35.1932 158.465 35.1932C157.975 35.1932 157.593 35.3444 157.321 35.647C157.049 35.9998 156.94 36.4532 156.94 37.0585C156.94 37.6132 157.049 38.1175 157.321 38.4201C157.593 38.7227 157.92 38.9247 158.41 38.9247C158.792 38.9247 159.118 38.8237 159.391 38.6221C159.609 38.4201 159.773 38.1175 159.826 37.7647H160.698C160.643 38.3195 160.426 38.8237 159.99 39.1263C159.608 39.4791 159.063 39.6309 158.356 39.6309C157.648 39.6309 157.049 39.429 156.667 38.9755C156.232 38.5218 156.013 37.8663 156.013 37.0595C156.013 36.2522 156.231 35.5968 156.667 35.1431C157.103 34.6896 157.702 34.4368 158.465 34.4368C159.119 34.4368 159.663 34.588 160.045 34.9414C160.427 35.244 160.644 35.6978 160.699 36.2522H159.827H159.826ZM147.951 34.588H148.823V39.4791H147.951V34.588ZM147.951 32.7727H148.823V33.7306H147.951V32.7727ZM139.617 39.4791V36.504C139.617 35.9998 139.562 35.647 139.399 35.4959C139.236 35.2942 139.018 35.1932 138.637 35.1932C138.201 35.1932 137.875 35.3444 137.656 35.5968C137.384 35.7985 137.275 36.1513 137.275 36.605V39.4791H136.403V36.504C136.403 35.9998 136.294 35.647 136.185 35.4959C136.022 35.2942 135.75 35.1932 135.423 35.1932C134.987 35.1932 134.66 35.3444 134.442 35.5968C134.17 35.8486 134.06 36.1513 134.06 36.605V39.4791H133.189V34.588H134.006V35.2942C134.223 35.0424 134.441 34.8404 134.714 34.689C134.987 34.5378 135.314 34.487 135.64 34.487C135.967 34.487 136.295 34.5372 136.512 34.689C136.73 34.7896 136.948 34.9916 137.111 35.2434C137.329 34.9916 137.601 34.7896 137.874 34.689C138.146 34.5378 138.473 34.487 138.8 34.487C139.127 34.487 139.454 34.5372 139.726 34.6381C139.944 34.789 140.161 34.9408 140.271 35.1424C140.38 35.2936 140.434 35.445 140.434 35.5962C140.489 35.747 140.489 36.0496 140.489 36.4031V39.4791H139.617ZM124.746 37.0086C124.528 37.1093 124.092 37.2103 123.548 37.3113C123.33 37.3113 123.166 37.3113 123.058 37.3611C122.785 37.4113 122.513 37.4621 122.404 37.6132C122.24 37.7641 122.186 37.9159 122.186 38.1677C122.186 38.4195 122.24 38.6211 122.404 38.7221C122.567 38.8729 122.839 38.9237 123.112 38.9237C123.602 38.9237 123.984 38.8231 124.311 38.5713C124.583 38.3693 124.746 38.0667 124.746 37.7641V37.0077V37.0086ZM124.855 38.8237C124.583 39.1263 124.256 39.3283 123.984 39.429C123.657 39.5801 123.33 39.6309 123.003 39.6309C122.458 39.6309 122.023 39.53 121.696 39.2781C121.423 38.9755 121.26 38.6227 121.26 38.169C121.26 37.7155 121.423 37.4129 121.696 37.1601C122.023 36.8575 122.458 36.7067 123.058 36.6559C123.22 36.6057 123.439 36.6057 123.711 36.6057C124.148 36.5555 124.42 36.5047 124.528 36.4549C124.638 36.4047 124.692 36.3539 124.746 36.3037V35.9509C124.746 35.6991 124.691 35.4975 124.474 35.3457C124.256 35.2447 123.984 35.1949 123.602 35.1949C123.167 35.1949 122.84 35.2447 122.676 35.3965C122.458 35.5477 122.349 35.8001 122.349 36.1027H121.478V36.0526C121.478 35.5483 121.695 35.1447 122.077 34.8929C122.458 34.5903 122.948 34.4391 123.602 34.4391C124.311 34.4391 124.855 34.5903 125.182 34.8427C125.509 35.0447 125.672 35.4483 125.672 35.9519V38.4224C125.672 38.6244 125.727 38.7752 125.727 38.826C125.781 38.8762 125.891 38.927 125.999 38.927H126.108C126.163 38.927 126.218 38.8762 126.272 38.8762V39.5316C126.163 39.5316 126.055 39.5814 125.945 39.5814H125.728C125.455 39.5814 125.238 39.5316 125.074 39.4306C124.911 39.2798 124.856 39.128 124.856 38.8762V38.826L124.855 38.8237ZM112.108 39.4791V34.588H112.98V35.4959C113.144 35.1431 113.307 34.8906 113.579 34.7398C113.797 34.5886 114.069 34.4877 114.451 34.4877H114.56C114.615 34.4877 114.669 34.4877 114.669 34.5378V35.3952H114.452C114.016 35.3952 113.635 35.4959 113.362 35.7477C113.145 35.9496 112.981 36.3024 112.981 36.7559V39.4785H112.109L112.108 39.4791ZM104.046 37.9159H104.918C104.809 38.4703 104.591 38.8739 104.156 39.1765C103.774 39.5293 103.229 39.6808 102.63 39.6808C101.868 39.6808 101.323 39.429 100.887 38.9745C100.452 38.5211 100.233 37.9159 100.233 37.1093C100.233 36.2522 100.451 35.5968 100.887 35.1431C101.269 34.6896 101.868 34.4368 102.63 34.4368C103.393 34.4368 103.937 34.689 104.373 35.0922C104.81 35.546 104.973 36.1513 104.973 36.9077V37.3113H101.16C101.16 37.8155 101.322 38.2185 101.595 38.4709C101.867 38.7736 102.249 38.9247 102.684 38.9247C103.066 38.9247 103.338 38.8237 103.61 38.6729C103.828 38.4709 103.992 38.2191 104.046 37.9165M101.16 36.6057H104.046C104.046 36.1522 103.937 35.7995 103.665 35.5467C103.447 35.2949 103.12 35.1939 102.63 35.1939C102.195 35.1939 101.868 35.2949 101.596 35.5467C101.378 35.7985 101.214 36.1522 101.16 36.6057M92.608 36.2529C92.5536 35.9001 92.4451 35.6477 92.1726 35.446C91.9549 35.2949 91.628 35.1939 91.2464 35.1939C90.7566 35.1939 90.3749 35.345 90.1025 35.6477C89.8848 36.0004 89.7212 36.4539 89.7212 37.0595C89.7212 37.6139 89.8303 38.1181 90.1025 38.4211C90.3749 38.7237 90.7018 38.9254 91.192 38.9254C91.5733 38.9254 91.9005 38.8244 92.1726 38.6227C92.3903 38.4211 92.5543 38.1181 92.608 37.7657H93.4798C93.4251 38.3201 93.2074 38.8244 92.7713 39.1273C92.3897 39.4798 91.8451 39.6316 91.1372 39.6316C90.4293 39.6316 89.8303 39.43 89.4487 38.9762C89.0126 38.5227 88.7949 37.8673 88.7949 37.0601C88.7949 36.2529 89.0126 35.5975 89.4487 35.1441C89.8841 34.6903 90.4834 34.4378 91.2464 34.4378C91.9005 34.4378 92.4451 34.5886 92.8267 34.9421C93.208 35.2447 93.4257 35.6985 93.4805 36.2529H92.609H92.608Z" fill="white"/>
<path d="M175.128 5.14878C173.706 5.14878 172.549 4.03068 172.549 2.65692C172.549 1.28316 173.706 0.165039 175.128 0.165039C176.55 0.165039 177.707 1.28316 177.707 2.65692C177.707 4.03068 176.55 5.14878 175.128 5.14878ZM175.128 0.346336C173.806 0.346336 172.73 1.38329 172.73 2.65692C172.73 3.93055 173.806 4.9675 175.128 4.9675C176.45 4.9675 177.526 3.9313 177.526 2.65692C177.526 1.38253 176.45 0.346336 175.128 0.346336Z" fill="white"/>
<path d="M175.134 1.57631C175.327 1.57631 175.473 1.59604 175.573 1.63472C175.673 1.67341 175.753 1.74168 175.813 1.8403C175.873 1.93815 175.903 2.04738 175.903 2.16572C175.903 2.31895 175.853 2.44866 175.754 2.55334C175.655 2.65878 175.502 2.72478 175.295 2.7536C175.371 2.79002 175.429 2.82567 175.467 2.86132C175.551 2.93793 175.63 3.03427 175.704 3.14882L176.078 3.73746H175.721L175.435 3.28762C175.352 3.15716 175.283 3.05855 175.229 2.98952C175.174 2.92049 175.127 2.8727 175.083 2.84539C175.041 2.81808 174.998 2.79912 174.953 2.78774C174.92 2.78167 174.868 2.77788 174.794 2.77788H174.463V3.73746H174.176V1.57631H175.133M174.463 2.52983H175.077C175.207 2.52983 175.309 2.51617 175.382 2.48887C175.456 2.46232 175.511 2.41908 175.549 2.35915C175.587 2.29998 175.607 2.2355 175.607 2.16572C175.607 2.06331 175.571 1.97911 175.496 1.91312C175.422 1.84712 175.306 1.8145 175.146 1.8145H174.463V2.52983ZM175.133 1.39502H173.994V3.91877H174.643V2.95917H174.793C174.868 2.95917 174.901 2.96297 174.913 2.96524C174.936 2.97207 174.961 2.98269 174.984 2.99786C174.998 3.00696 175.031 3.03351 175.085 3.10178C175.136 3.16778 175.204 3.26563 175.28 3.38549L175.566 3.83533L175.619 3.91952H176.406L176.229 3.64113L175.855 3.05248C175.801 2.96828 175.743 2.89242 175.684 2.82567C175.762 2.78547 175.829 2.73691 175.885 2.67851C176.016 2.53893 176.082 2.36674 176.082 2.16648C176.082 2.01401 176.043 1.87291 175.966 1.74623C175.885 1.61349 175.774 1.51942 175.637 1.46632C175.514 1.41853 175.35 1.39578 175.133 1.39578M174.643 1.99732H175.145C175.293 1.99732 175.352 2.02994 175.375 2.04966C175.41 2.08076 175.425 2.11565 175.425 2.16648C175.425 2.20137 175.416 2.23171 175.397 2.26206C175.386 2.2795 175.367 2.30226 175.32 2.31971C175.283 2.33336 175.211 2.34929 175.076 2.34929H174.643V1.99656V1.99732Z" fill="white"/>
</g>
</g>
</g>
<defs>
<clipPath id="clip0_8099_10409">
<rect width="220" height="40" fill="white"/>
</clipPath>
<clipPath id="clip1_8099_10409">
<rect width="135.738" height="40" fill="white" transform="translate(42)"/>
</clipPath>
</defs>
</svg>
