<svg width="220" height="40" viewBox="0 0 220 40" fill="none" xmlns="http://www.w3.org/2000/svg">
<g clip-path="url(#clip0_8105_5818)">
<path d="M70.0357 33.2428V26.4096H67.0117V24.7217H74.6941V26.4096H71.6654V33.2428H70.0357Z" fill="white"/>
<path d="M87.5342 33.2428V29.7446H82.5896V33.2428H80.9922V24.7421H82.5896V28.2097H87.5342V24.7217H89.1408V33.2225L87.5342 33.2428Z" fill="white"/>
<path d="M95.9023 33.2429V24.7422H103.871V26.4301H97.5275V28.3067H103.691V29.6835H97.5275V31.5907H103.871V33.2634L95.9023 33.2429Z" fill="white"/>
<path d="M113.035 33.2481C111.022 33.2481 110.445 32.575 110.445 30.4842V27.501C110.445 25.4102 111.022 24.7422 113.035 24.7422H117.412C119.393 24.7422 120.002 25.4102 120.002 27.501V30.4995C120.002 32.5903 119.393 33.2634 117.412 33.2634L113.035 33.2481ZM118.377 27.501C118.377 26.6545 118.123 26.4097 117.398 26.4097H113.035C112.31 26.4097 112.057 26.6545 112.057 27.501V30.4995C112.057 31.3409 112.287 31.5755 113.035 31.5755H117.398C118.151 31.5755 118.377 31.3409 118.377 30.4995V27.501Z" fill="white"/>
<path d="M134.14 33.2428L128.29 26.9706V33.2531H126.734V24.7523H128.484L134.167 30.8869V24.7217H135.733V33.2225L134.14 33.2428Z" fill="white"/>
<path d="M68.6783 37.1899H68.7799C69.0147 37.1896 69.2444 37.2659 69.4401 37.4092C69.5165 37.4786 69.5781 37.5657 69.6204 37.6645C69.6628 37.7632 69.6847 37.8711 69.6848 37.9804V38.0263C69.6848 38.1396 69.666 38.2519 69.6294 38.3577C69.5937 38.4691 69.5315 38.5677 69.4493 38.6433C69.3523 38.7304 69.241 38.7962 69.1215 38.8371C68.9711 38.8827 68.8159 38.9067 68.6599 38.9085H68.3182V39.9793H67.9258V37.1899H68.6783ZM68.646 37.5163H68.309V38.5719H68.6229C68.7414 38.5729 68.8595 38.5557 68.9738 38.5209C69.0685 38.4927 69.1525 38.432 69.2139 38.3475C69.2687 38.2608 69.2977 38.1574 69.297 38.0517C69.2991 38.0417 69.2991 38.0312 69.297 38.0212C69.2963 37.9533 69.2818 37.8864 69.2547 37.8255C69.2275 37.7646 69.1883 37.7112 69.14 37.6693C69.0102 37.584 68.8616 37.5399 68.7106 37.5418L68.646 37.5163Z" fill="white"/>
<path d="M74.0211 39.9742H73.6471V38.6892H72.3083V39.9742H71.9297V37.1899H72.3083V38.3526H73.6471V37.1899H74.0211V39.9742Z" fill="white"/>
<path d="M78.1116 39.9796L77.8116 39.1483H76.7497L76.4542 39.9796H76.0664L77.1006 37.1851H77.4884L78.5179 39.9796H78.1116ZM77.7054 38.8067L77.4191 37.9908C77.4047 37.949 77.3924 37.9065 77.3822 37.8633L77.3268 37.695L77.2806 37.542C77.2711 37.5993 77.2572 37.6556 77.2391 37.7103C77.23 37.765 77.2145 37.8181 77.1929 37.8684C77.1929 37.9194 77.1652 37.9602 77.156 37.9908L76.8651 38.8067H77.7054Z" fill="white"/>
<path d="M81.2948 37.1899H81.3363C81.5131 37.1905 81.6889 37.2198 81.858 37.2767C81.9904 37.3262 82.1062 37.4186 82.1905 37.5418C82.2637 37.6643 82.3023 37.8081 82.3013 37.9549V38.0109C82.301 38.1286 82.274 38.2444 82.2228 38.3475C82.1758 38.4445 82.1075 38.5269 82.0242 38.5872C81.9429 38.6522 81.8524 38.7022 81.7565 38.7351L82.5182 39.9793H82.0658L81.4056 38.8371H80.9255V39.9793H80.5469V37.1899H81.2948ZM81.2671 37.5163H80.9255V38.5362H81.341C81.488 38.5364 81.6322 38.4904 81.7565 38.4036C81.8029 38.3604 81.8401 38.3065 81.8656 38.2458C81.8912 38.185 81.9043 38.1187 81.9042 38.0517C81.9071 38.0435 81.9071 38.0345 81.9042 38.0263C81.9065 38.0128 81.9065 37.999 81.9042 37.9855C81.9039 37.9204 81.8895 37.8563 81.8621 37.7987C81.8348 37.741 81.7954 37.6914 81.7472 37.654C81.6056 37.5695 81.4465 37.5273 81.2856 37.5316L81.2671 37.5163Z" fill="white"/>
<path d="M85.7614 39.9793L84.9166 37.5826V39.9793H84.5703V37.1899H85.1151L85.9184 39.4592L86.7448 37.1899H87.285V39.9742H86.9156V37.5826L86.0523 39.9742L85.7614 39.9793Z" fill="white"/>
<path d="M91.417 39.9796L91.117 39.1483H90.0551L89.7596 39.9796H89.3672L90.4014 37.1851H90.7845L91.8187 39.9796H91.417ZM91.0108 38.8067L90.7245 37.9908L90.6876 37.8633C90.6797 37.8043 90.6625 37.7474 90.6368 37.695L90.5906 37.542C90.5821 37.5995 90.5682 37.656 90.5491 37.7103C90.5491 37.7664 90.5168 37.8174 90.5029 37.8684C90.4922 37.9104 90.4783 37.9513 90.4614 37.9908L90.1751 38.8067H91.0108Z" fill="white"/>
<path d="M94.993 37.4757C94.8696 37.4754 94.7474 37.5013 94.6329 37.5521C94.5267 37.5987 94.4319 37.6721 94.3559 37.7663C94.2756 37.8667 94.2157 37.985 94.1805 38.1131C94.1384 38.2565 94.1166 38.4061 94.1158 38.5568V38.6027C94.1154 38.7915 94.1484 38.9785 94.2128 39.1534C94.2724 39.3104 94.3739 39.4438 94.5036 39.5358C94.6464 39.6176 94.8045 39.6612 94.9653 39.6633H94.993C95.1059 39.6635 95.2187 39.6533 95.33 39.6328L95.6532 39.546V39.8775C95.5479 39.9176 95.4398 39.9483 95.33 39.9693C95.2094 39.9898 95.0874 40 94.9653 39.9999H94.9007C94.6796 40 94.4621 39.9387 94.2682 39.8214C94.0836 39.7052 93.9379 39.5264 93.8527 39.3115C93.7647 39.086 93.7191 38.8431 93.7188 38.5976V38.5313C93.7177 38.345 93.7474 38.1601 93.8065 37.9856C93.8576 37.8136 93.9431 37.6565 94.0565 37.5259C94.17 37.3952 94.3086 37.2944 94.4621 37.2309C94.6293 37.1637 94.8058 37.1292 94.9838 37.1289H95.0161C95.1495 37.1288 95.2826 37.1441 95.4131 37.1748C95.5341 37.2001 95.6519 37.2411 95.764 37.2972L95.6301 37.6235C95.5332 37.5827 95.4362 37.542 95.3393 37.5114C95.2322 37.4808 95.1221 37.4653 95.0115 37.4655L94.993 37.4757Z" fill="white"/>
<path d="M99.4447 39.9742H97.9258V37.1899H99.4447V37.5265H98.2905V38.3577H99.3662V38.684H98.2905V39.6376H99.4309L99.4447 39.9742Z" fill="white"/>
<path d="M103.805 37.1899V38.9952C103.804 39.1729 103.765 39.3478 103.69 39.5051C103.607 39.6629 103.483 39.7891 103.334 39.8672C103.157 39.9545 102.965 39.9996 102.771 39.9997H102.66C102.403 40.0017 102.155 39.9022 101.958 39.7193C101.792 39.531 101.697 39.2788 101.695 39.0155V37.1899H102.074V39.041C102.074 39.2189 102.135 39.3902 102.245 39.5204C102.375 39.6379 102.538 39.7011 102.706 39.6989H102.789C102.913 39.6994 103.035 39.6679 103.145 39.6071C103.241 39.5556 103.317 39.4691 103.362 39.3623C103.408 39.2521 103.432 39.1319 103.431 39.0104V37.1899H103.805Z" fill="white"/>
<path d="M107.057 39.9742H106.673V37.5316H105.852V37.1899H107.878V37.5316H107.057V39.9742Z" fill="white"/>
<path d="M109.961 39.9742V37.1899H110.34V39.9742H109.961Z" fill="white"/>
<path d="M113.897 37.4757C113.773 37.4754 113.651 37.5013 113.537 37.5521C113.431 37.5987 113.336 37.6721 113.26 37.7663C113.179 37.8667 113.119 37.985 113.084 38.1131C113.04 38.2559 113.018 38.4059 113.02 38.5568V38.6027C113.019 38.7915 113.052 38.9785 113.117 39.1534C113.176 39.3104 113.278 39.4438 113.407 39.5358C113.55 39.617 113.708 39.6607 113.869 39.6633H113.901C114.014 39.6633 114.127 39.6531 114.238 39.6328L114.562 39.546V39.8775C114.456 39.9182 114.348 39.9489 114.238 39.9693C114.118 39.9898 113.996 40 113.874 39.9999H113.795C113.574 40 113.357 39.9387 113.163 39.8214C112.978 39.7052 112.832 39.5264 112.747 39.3115C112.659 39.086 112.614 38.8431 112.613 38.5976V38.5313C112.612 38.345 112.642 38.1601 112.701 37.9856C112.751 37.8136 112.836 37.6565 112.95 37.5267C113.063 37.3974 113.2 37.2965 113.352 37.2309C113.521 37.1641 113.699 37.1296 113.878 37.1289H113.924C114.058 37.1288 114.191 37.1441 114.322 37.1748C114.442 37.2001 114.56 37.2411 114.672 37.2972L114.539 37.6235C114.442 37.5827 114.345 37.542 114.248 37.5114C114.141 37.4808 114.03 37.4653 113.92 37.4655L113.897 37.4757Z" fill="white"/>
<path d="M118.496 39.9796L118.201 39.1483H117.153L116.862 39.9796H116.465L117.499 37.1851H117.887L118.916 39.9796H118.496ZM118.095 38.8067L117.808 37.9908L117.767 37.8633C117.757 37.8049 117.74 37.7483 117.716 37.695L117.67 37.542C117.668 37.6009 117.654 37.6585 117.628 37.7103C117.619 37.765 117.604 37.8181 117.582 37.8684L117.541 37.9908L117.25 38.8067H118.095Z" fill="white"/>
<path d="M120.941 39.9742V37.1899H121.315V39.6376H122.497V39.9742H120.941Z" fill="white"/>
<path d="M127.27 39.9742V37.1899H127.648V39.6376H128.83V39.9742H127.27Z" fill="white"/>
<path d="M131.869 39.9742H131.486V37.5316H130.664V37.1899H132.686V37.5316H131.869V39.9742Z" fill="white"/>
<path d="M136.929 38.5566V38.6178C136.929 38.8713 136.87 39.1205 136.758 39.3419C136.646 39.5555 136.474 39.7236 136.269 39.8213C136.04 39.925 135.796 39.9787 135.549 39.9793H134.75V37.1899H135.623C135.855 37.1906 136.084 37.2445 136.297 37.3481C136.488 37.4468 136.649 37.6066 136.758 37.807C136.87 38.0229 136.929 38.2671 136.929 38.5158V38.5566ZM136.527 38.5566V38.5158C136.528 38.327 136.49 38.1405 136.417 37.9702C136.344 37.8171 136.227 37.6951 136.084 37.6234C135.928 37.5501 135.76 37.512 135.59 37.5112H135.129V39.6326H135.59C135.843 39.6332 136.088 39.5357 136.283 39.3572C136.373 39.2614 136.444 39.1465 136.492 39.0194C136.541 38.8923 136.565 38.7557 136.564 38.6178V38.5617L136.527 38.5566Z" fill="white"/>
<path d="M120.91 6.97102C120.91 6.97102 121.834 5.17602 124.077 5.70126C126.321 6.2265 125.324 9.98992 124.4 11.2036C123.817 11.9657 123.186 12.6814 122.512 13.3453C121.838 14.0083 123.999 9.34738 123.597 8.00622C123.195 6.66507 122.147 6.59367 120.91 6.98633V6.97102Z" fill="white"/>
<path d="M120.26 4.93094C120.26 4.93094 117.25 3.66117 116.973 6.2007C116.696 8.74022 118.976 13.702 118.976 13.702C118.976 13.702 115.408 10.418 114.821 6.65455C114.235 2.89116 117.633 2.84525 118.976 3.3246C120.32 3.80394 120.26 4.93094 120.26 4.93094Z" fill="white"/>
<path d="M118.834 1.25451C118.836 1.00879 118.773 0.767704 118.651 0.561921C118.53 0.356139 118.355 0.194927 118.151 0.098787C117.946 0.00264719 117.72 -0.0241004 117.501 0.0219715C117.283 0.0680434 117.082 0.184881 116.923 0.357557C116.765 0.530233 116.657 0.750969 116.612 0.991752C116.568 1.23254 116.589 1.48248 116.674 1.7098C116.758 1.93712 116.902 2.13157 117.087 2.26842C117.272 2.40527 117.489 2.47837 117.712 2.47839C117.858 2.47973 118.003 2.44909 118.139 2.38825C118.275 2.32741 118.398 2.23753 118.503 2.12382C118.607 2.0101 118.69 1.87479 118.747 1.72561C118.803 1.57642 118.833 1.41633 118.834 1.25451Z" fill="white"/>
<path d="M124.319 4.35973C124.319 4.15801 124.265 3.96086 124.164 3.79314C124.062 3.62542 123.918 3.49466 123.749 3.41746C123.581 3.34027 123.395 3.32009 123.216 3.35945C123.037 3.3988 122.872 3.49594 122.743 3.63857C122.614 3.78121 122.526 3.96294 122.49 4.16078C122.455 4.35862 122.473 4.56367 122.543 4.75003C122.613 4.93639 122.731 5.09568 122.883 5.20775C123.035 5.31982 123.213 5.37962 123.396 5.37962C123.641 5.37962 123.876 5.27215 124.049 5.08089C124.222 4.88962 124.319 4.63022 124.319 4.35973Z" fill="white"/>
<path d="M118.68 14.4062C118.68 14.4062 120.73 15.7422 122.027 14.9161C122.29 14.6101 122.733 14.1308 123.033 14.4572C123.333 14.7836 125.079 20.3674 127.71 21.3108C130.342 22.2542 134.414 13.8096 134.414 13.8096C134.414 13.8096 133.892 18.807 130.72 21.3108C127.549 23.8147 125.642 22.0554 124.718 20.1941C123.795 18.3328 122.812 16.1145 122.812 16.1145C122.405 16.303 121.969 16.4001 121.528 16.4001C121.087 16.4001 120.651 16.303 120.245 16.1145C118.767 15.4363 118.689 14.4062 118.689 14.4062H118.68Z" fill="white"/>
<path d="M139.38 33.9777C139.38 33.9777 138.097 25.1047 138.18 21.6319C138.263 18.1592 138.526 17.1342 140.488 15.8797C142.45 14.6253 146.665 11.948 149.639 6.70071C152.612 1.45337 152.686 1.12705 152.741 1.6523C152.796 2.17754 151.028 8.44982 144.819 14.0286C140.46 17.9093 139.278 18.0521 139.389 21.377C139.5 24.7018 139.362 33.9573 139.362 33.9573L139.38 33.9777Z" fill="white"/>
<path d="M137.848 0.882324C137.912 0.882324 136.283 2.41217 136.204 3.30967C136.126 4.20717 135.862 6.30814 136.264 6.54781C136.666 6.78749 137.972 7.18521 137.848 8.36318C137.72 9.185 137.402 9.95631 136.924 10.6019C136.463 11.2495 137.46 8.60287 136.62 7.92974C135.779 7.25662 135.115 7.53709 135.055 5.76758C134.994 3.99807 135.055 3.46259 135.516 2.61098C135.737 2.13083 136.065 1.72048 136.469 1.41817C136.872 1.11585 137.339 0.931506 137.825 0.882324H137.848Z" fill="white"/>
</g>
<defs>
<clipPath id="clip0_8105_5818">
<rect width="220" height="40" fill="white"/>
</clipPath>
</defs>
</svg>
