<svg width="220" height="40" viewBox="0 0 220 40" fill="none" xmlns="http://www.w3.org/2000/svg">
<path fill-rule="evenodd" clip-rule="evenodd" d="M150.708 33.9079C150.02 34.9373 149.531 35.1735 148.767 35.1735C148.11 35.1735 147.346 34.836 146.826 34.3635L144.167 38.5824C145.252 39.46 146.475 40 148.278 40C151.273 40 153.244 38.4306 155.537 34.2454L166.447 13.2014H161.053L154.452 27.1576L153.626 13.2014H148.538L150.708 33.9079ZM100.676 0.510833C102.005 -0.164196 103.442 -0.14732 104.68 0.426454C105.933 1.00023 106.987 2.1309 107.568 3.68347C108.149 5.23603 108.133 6.90673 107.644 8.35804C107.155 9.80935 106.193 11.0582 104.863 11.7163C103.534 12.3913 102.097 12.3745 100.859 11.8007C99.6063 11.2269 98.5519 10.0962 97.9712 8.54367C97.3905 6.99111 97.4057 5.32041 97.8947 3.8691C98.3838 2.41779 99.3465 1.16899 100.676 0.510833ZM99.7897 10.2312L100.859 9.69122C100.523 9.18495 100.202 8.5943 99.9425 7.95302L98.6741 8.5943C98.9645 9.23558 99.3465 9.79247 99.8049 10.2312M101.471 9.38746L102.464 8.88119C102.204 8.32429 101.944 7.71676 101.685 7.05861L100.523 7.64926C100.798 8.30741 101.119 8.88119 101.471 9.38746ZM103.045 8.5943L104.175 8.02052C104.007 7.42987 103.809 6.7886 103.564 6.11357L102.281 6.77172C102.54 7.42987 102.8 8.0374 103.06 8.5943M104.756 7.73364L105.765 7.22737C105.688 6.58609 105.535 5.91106 105.322 5.23603L104.16 5.82668C104.405 6.48483 104.603 7.12611 104.771 7.73364M106.361 6.9236L107.43 6.38358C107.461 5.69168 107.369 4.9829 107.171 4.30787L105.902 4.94915C106.131 5.62417 106.284 6.28233 106.376 6.9236M107.354 7.22737L106.452 7.68301C106.468 8.12178 106.452 8.54367 106.422 8.93181C106.391 9.20182 106.345 9.43808 106.3 9.69122C106.651 9.2187 106.941 8.67868 107.14 8.1049C107.232 7.81802 107.308 7.53113 107.354 7.24424M105.841 8.02052L104.97 8.45929C105.062 8.81368 105.123 9.1512 105.184 9.45496C105.245 9.82623 105.291 10.1806 105.306 10.4675C105.566 10.0625 105.734 9.50559 105.811 8.84743C105.841 8.57742 105.856 8.29054 105.841 8.00365M104.389 8.7293L103.396 9.23557C103.534 9.50559 103.671 9.75872 103.809 9.97811C104.237 10.7038 104.557 11.1088 104.664 11.0582C104.771 11.0075 104.726 10.4506 104.573 9.58996C104.527 9.31995 104.466 9.03307 104.389 8.7293ZM102.831 9.52246L101.96 9.96123C102.143 10.1637 102.326 10.3494 102.51 10.5013C102.968 10.8894 103.427 11.1257 103.87 11.1763C103.686 10.9569 103.503 10.6869 103.304 10.3831C103.152 10.13 102.983 9.8431 102.815 9.52246M101.333 10.2819L100.431 10.7375C100.645 10.8894 100.89 11.0244 101.119 11.1425C101.608 11.3619 102.143 11.4969 102.693 11.5138C102.51 11.3957 102.311 11.2607 102.128 11.1088C101.853 10.8725 101.593 10.6025 101.333 10.2819ZM98.4449 4.37537L99.1784 4.0041C99.1784 3.76784 99.1937 3.53159 99.2242 3.3122C99.2548 3.04219 99.3006 2.78905 99.3465 2.55279C98.9797 3.02531 98.7047 3.56534 98.506 4.13911C98.4754 4.20661 98.4602 4.29099 98.4296 4.35849M99.8049 3.66659L100.554 3.29533C100.508 3.12657 100.477 2.95781 100.447 2.80593C100.386 2.41779 100.34 2.08027 100.325 1.79339C100.065 2.1984 99.8966 2.7553 99.8202 3.41346C99.8202 3.49783 99.8049 3.59909 99.8049 3.68347M101.119 3.00844L101.99 2.56967C101.929 2.46842 101.868 2.36716 101.822 2.26591C101.394 1.54025 101.073 1.13523 100.966 1.18586C100.859 1.23649 100.905 1.79339 101.058 2.65405C101.073 2.77218 101.104 2.89031 101.119 3.00844ZM102.556 2.28278L103.289 1.91152C103.289 1.91152 103.167 1.79339 103.106 1.74276C102.647 1.35462 102.189 1.11836 101.761 1.06773C101.944 1.28712 102.128 1.55713 102.326 1.86089C102.403 1.9959 102.479 2.1309 102.571 2.28278M103.946 1.59088L104.68 1.21961C104.68 1.21961 104.557 1.15211 104.496 1.13523C104.007 0.898974 103.472 0.780844 102.922 0.763968C103.106 0.882098 103.304 1.0171 103.488 1.16899C103.641 1.30399 103.793 1.439 103.946 1.60775M105.367 1.67526L104.405 2.16465C104.863 2.77218 105.276 3.49783 105.627 4.32474L106.896 3.68347C106.529 2.85656 105.994 2.18153 105.367 1.69213M103.809 2.48529L102.892 2.94094C103.228 3.59909 103.564 4.37537 103.885 5.21916L105.046 4.62851C104.695 3.78472 104.267 3.05907 103.793 2.48529M102.311 3.2447L101.272 3.76785C101.455 4.4935 101.7 5.30354 102.021 6.1642L103.304 5.50604C102.968 4.66226 102.632 3.88598 102.311 3.22782M100.707 4.03786L99.7897 4.4935C99.8202 5.28666 99.9883 6.14732 100.279 7.02486L101.44 6.43421C101.134 5.59042 100.89 4.76351 100.691 4.03786M99.1784 4.79726L98.2157 5.28666C98.0934 6.1642 98.1545 7.07548 98.4296 7.95302L99.698 7.31174C99.4076 6.45108 99.2395 5.6073 99.1784 4.79726ZM74.453 14.8046L74.5599 14.8214L74.6516 15.3446L74.7739 14.8552L75.217 14.7371L74.8044 14.5852L74.7127 14.062L74.5752 14.5514H74.4835L74.7891 13.2182H69.7921L67.5763 22.8036C69.9144 21.8586 71.9162 20.7111 73.3374 19.5635L74.3001 15.3783C75.0489 15.6483 75.5227 16.0871 75.6755 16.6609C76.2103 18.7535 72.069 22.0611 66.4149 24.0187C60.776 25.9763 55.7637 25.875 55.2441 23.7656C55.1066 23.2255 55.2747 22.618 55.6873 21.9767C54.4342 23.2087 53.8077 24.39 54.0522 25.3688C54.2203 26.0438 54.801 26.5501 55.6873 26.8538C55.6262 27.3263 55.5803 27.7651 55.5803 28.1701C55.5803 31.8828 57.6128 34.1441 60.776 34.1441C62.7473 34.1441 64.3213 32.9122 65.5744 31.6128L65.0854 33.756H70.0824L72.5275 23.0399C75.8741 21.0486 77.9066 18.8041 77.494 17.184C77.2342 16.1546 76.0575 15.5471 74.2849 15.3615L74.4071 14.8383V14.7708L74.453 14.8046ZM56.5736 18.8885L56.8028 20.0192L57.139 20.1373L58.7283 13.2182H63.7254L61.1275 24.4912V24.5756C59.0187 24.8456 57.2766 24.7275 56.2069 24.2381L57.0626 20.5254L56.757 20.6098L56.4819 21.673L56.2527 20.5423L55.3358 20.2217L56.2985 19.9685L56.5736 18.9054V18.8885ZM67.1637 9.48871L67.4082 10.7375L68.432 11.0919L67.3623 11.3788L67.0567 12.5601L66.8122 11.3113L65.7884 10.9569L66.8581 10.67L67.1637 9.48871ZM66.8886 25.6388C64.7798 26.3644 62.7626 26.8538 60.9594 27.0901C61.2039 28.2376 62.0291 28.862 63.3128 28.862C65.0396 28.862 66.2315 27.6132 66.8733 25.6556M74.5905 33.7729H79.5875L82.2465 22.2299C82.8119 19.7829 84.0956 18.1291 86.0669 18.1291C87.6103 18.1291 88.4966 19.0066 88.4966 20.6604C88.4966 21.1667 88.4049 21.9261 88.2674 22.4999L85.6696 33.7729H90.6666L93.2033 22.7361C93.4937 21.4367 93.7993 19.9685 93.7993 18.821C93.7993 15.1083 91.7669 12.847 88.6036 12.847C86.6323 12.847 85.0583 14.0789 83.8052 15.3783L84.2942 13.2351H79.2972L74.5905 33.7897V33.7729ZM95.1288 33.7729H100.126L104.863 13.2182H99.8661L95.1288 33.7729ZM116.034 34.161C118.433 34.161 120.802 32.9291 122.605 30.8196C124.515 28.592 125.768 25.4194 125.768 21.6561C125.768 16.104 122.849 12.847 118.998 12.847C117.027 12.847 115.545 13.8089 114.032 15.4458L114.552 13.2182H109.555L103.442 39.8987H108.439L110.517 30.769C111.663 32.7941 113.283 34.1441 116.034 34.1441M115.377 29.2333C113.176 29.2333 111.602 27.4782 111.602 24.8625C111.602 22.753 112.32 20.8798 113.512 19.496C114.46 18.3822 115.682 17.7409 116.935 17.7409C119.167 17.7409 120.618 19.3441 120.618 22.0274C120.618 24.2887 119.87 26.2125 118.739 27.512C117.822 28.592 116.599 29.2333 115.392 29.2333M132.492 34.1441C134.57 34.1441 136.343 33.1485 137.749 31.3934L137.229 33.7729H142.058L144.656 22.4324C144.885 21.403 145.053 20.4073 145.053 19.3273C145.053 15.3108 142.654 12.9989 137.917 12.9989C135.411 12.9989 133.18 13.5726 131.376 14.4502L132.171 19.0572C133.455 18.4497 135.166 17.9434 136.878 17.9434C139.338 17.9434 140.194 18.9391 140.194 20.3567C140.194 20.9642 140.087 21.4198 139.995 21.8924L139.934 22.1624C138.452 21.6223 136.878 21.2342 134.968 21.2342C132.538 21.2342 130.429 22.078 129.054 23.6812C127.999 24.9131 127.373 26.5501 127.373 28.6258C127.373 31.849 129.436 34.1441 132.492 34.1441ZM134.631 30.1615C133.21 30.1615 132.324 29.2502 132.324 27.9845C132.324 27.1407 132.584 26.4488 133.042 25.9088C133.669 25.1831 134.677 24.7612 135.9 24.7612C137.122 24.7612 138.33 25.0987 139.185 25.4869L139.048 26.0269C138.498 28.2545 136.679 30.1615 134.616 30.1615M69.5018 17.7578L69.6087 18.2641L70.0213 18.416L69.5782 18.5341L69.4559 19.0235L69.3489 18.5172L68.9363 18.3822L69.3795 18.2641L69.5018 17.7747V17.7578ZM56.9098 22.8374L56.9862 23.2255L57.2918 23.3268L56.9709 23.4112L56.8792 23.7656L56.8028 23.3774L56.4972 23.2762L56.8181 23.1918L56.9098 22.8374ZM69.6698 28.7439L69.8379 29.6046L70.5409 29.8408L69.8074 30.0433L69.6087 30.8534L69.4406 29.9927L68.7377 29.7564L69.4712 29.5539L69.6698 28.7439Z" fill="white"/>
</svg>
