<svg width="220" height="40" viewBox="0 0 220 40" fill="none" xmlns="http://www.w3.org/2000/svg">
<g clip-path="url(#clip0_8099_10786)">
<path fill-rule="evenodd" clip-rule="evenodd" d="M123.251 18.9357C121.514 24.9867 116.371 29.1234 110.539 29.1518C104.03 29.1518 99.6602 24.7439 97.9028 19.0416C99.7299 24.3342 104.705 28.1406 110.549 28.1406C116.393 28.1406 121.447 24.2837 123.237 18.9252L123.251 18.9355L123.251 18.9357ZM97.875 10.16C99.6046 4.42757 103.7 -0.000488281 110.54 -0.000488281C116.9 -0.000488281 121.572 4.48833 123.264 10.2813C121.498 4.8824 116.472 0.985125 110.549 0.985125C104.626 0.985125 99.6788 4.82186 97.875 10.16Z" fill="white"/>
<path fill-rule="evenodd" clip-rule="evenodd" d="M110.824 8.75496C110.907 8.6236 111.154 8.70962 111.326 8.71454C111.498 8.71946 111.507 9.09341 111.833 9.01789C112.158 8.94216 112.158 9.34649 112.623 9.33109C113.088 9.3159 112.53 9.50802 112.53 9.50802C112.439 9.45818 112.339 9.43229 112.237 9.43229C112.179 9.43229 112.121 9.44085 112.065 9.45711C111.968 9.50781 112.103 9.42673 111.94 9.2851C111.684 9.05769 111.717 9.32576 111.289 8.93639C110.992 8.66341 110.699 8.96654 110.824 8.75411L110.824 8.75475L110.824 8.75496ZM113.149 18.9255C113.386 19.0342 113.573 19.2419 113.669 19.5017C113.92 20.2145 113.548 19.6381 113.548 20.71C113.548 21.721 113.288 21.539 113.288 21.539C113.249 22.2176 113.034 22.8716 112.67 23.4244C112.56 23.52 112.495 23.6655 112.495 23.8195C112.495 23.9308 112.529 24.0388 112.591 24.1272C112.653 24.2153 112.465 24.2029 112.293 25.0471C112.237 25.3252 112.563 25.7445 112.847 25.6384C113.061 25.5627 112.331 25.4868 113.121 25.1329C113.428 24.9913 113.177 24.7337 113.177 24.7337C113.177 24.7337 113.688 24.6932 113.981 23.8593C114.488 23.9402 114.297 23.6067 115.352 23.3538C115.627 23.2881 115.687 23.2019 115.655 22.9191C115.622 22.636 115.994 22.9595 117.05 21.8222C117.872 20.9275 117.575 20.7254 118.142 20.3968C118.709 20.0682 118.798 20.4271 118.997 20.1492C119.462 19.5121 119.295 19.5476 119.486 19.1382L119.62 18.9159L113.148 18.9257L113.149 18.9255ZM107.379 9.46758C107.31 9.24337 107.274 9.00806 107.274 8.77166C107.274 8.35983 107.382 7.95592 107.583 7.60741C107.8 7.29956 108.136 7.11876 108.492 7.11876C108.65 7.11876 108.806 7.15428 108.95 7.22295C109.55 6.71742 109.69 7.25826 110.22 7.01566C110.912 6.69219 110.522 7.86498 111.196 8.16321C111.47 7.37464 110.564 6.77798 111.131 6.40402C111.54 6.13617 111.847 5.97442 112.015 5.61544C112.252 5.10969 112.345 4.73572 112.531 4.67004C112.731 4.60928 112.869 4.41033 112.869 4.18378C112.869 4.1504 112.866 4.11681 112.86 4.08408C112.93 4.10269 113.002 4.11232 113.074 4.11232C113.29 4.11232 113.498 4.02674 113.66 3.87185C113.395 3.71996 113.005 3.58367 113.107 3.28031C113.209 2.97695 114.134 3.65428 114.399 3.05804C113.86 2.80538 113.311 2.25941 112.981 2.13297C112.753 2.3959 112.614 2.28957 112.325 2.04205C111.833 1.62765 111.791 2.04204 111.484 1.73376C111.238 2.23929 111.605 2.2393 111.721 2.35547C112.037 2.72943 111.4 2.02195 111.461 2.97225C111.461 3.21486 111.14 3.26043 110.884 2.72965C110.754 2.45175 109.708 2.50737 109.55 2.22412C109.694 1.91584 110.944 0.813837 112.804 1.07655C110.056 -0.0810603 106.342 1.1878 106.295 1.62274C105.928 1.8754 106.053 2.15865 105.867 2.22433C105.551 2.33558 105.202 3.38686 105.202 3.38686C105.202 3.38686 105.398 3.52848 104.779 4.27148C104.447 4.72075 104.218 5.25217 104.115 5.81803C104.298 6.20611 104.394 6.63677 104.394 7.0732C104.394 7.1301 104.392 7.18744 104.389 7.24414C104.343 7.8254 104.32 7.39582 104.557 7.81535C104.692 8.06309 104.845 8.92741 104.933 8.58874C105.11 7.94672 104.617 7.35516 104.696 6.71314C104.696 6.79401 104.887 6.46048 104.882 6.76385C104.882 7.55242 105.812 9.06881 105.812 9.06881C105.812 9.06881 105.463 9.4479 105.812 9.4479L107.379 9.46802L107.379 9.46758Z" fill="white"/>
<path d="M87.6852 11.5957H85.5978L85.9093 11.99V14.9269C85.9093 15.5892 85.5049 15.8672 84.896 15.8672C84.2868 15.8672 83.8777 15.589 83.8777 14.9269L83.8774 11.9949L84.1892 11.6006L82.1016 11.6008L82.4133 11.9951V14.9774C82.4133 16.4433 83.1805 16.9993 84.896 16.9993C86.6115 16.9993 87.374 16.4332 87.374 14.9774V11.9947L87.6854 11.5955L87.6852 11.5957Z" fill="white"/>
<path d="M94.9287 11.5957H93.1669L93.483 11.99V14.6642L90.9586 11.5957H89.373L89.6845 11.99V16.504L89.373 16.8986H91.135L90.8237 16.504V13.7847L93.5016 16.8986H94.6173V11.99L94.9287 11.5957Z" fill="white"/>
<path d="M98.9822 16.8986L98.6707 16.504V11.99L98.9822 11.5957H96.8809L97.1924 11.99V16.504L96.8809 16.8986H98.9822Z" fill="white"/>
<path d="M105.915 11.5957H104.144L104.46 11.99L103.209 14.9119L102.005 11.99L102.321 11.5957H100.238L102.549 16.8986H103.581L105.915 11.5957Z" fill="white"/>
<path d="M111.816 16.8986V15.4628L111.443 15.7966H108.91V14.7752H110.514L110.876 15.1092V13.3851L110.514 13.719H108.91V12.6977H111.443L111.816 13.0312V11.5957H107.152L107.464 11.99V16.504L107.152 16.8986H111.816Z" fill="white"/>
<path fill-rule="evenodd" clip-rule="evenodd" d="M118.909 16.8985L117.57 14.8056C118.221 14.5882 118.671 13.9423 118.686 13.2027C118.686 12.3181 118.184 11.5952 116.771 11.5952L113.684 11.5954L113.995 11.9897V16.5038L113.684 16.8983H115.757L115.446 16.5038V14.9872L116.069 14.9874L116.999 16.504L116.687 16.8983L118.91 16.8981L118.909 16.8985ZM117.203 13.3095C117.203 13.6937 116.864 14.0022 116.385 14.0022L115.455 14.002V12.6978H116.585C116.61 12.6942 116.635 12.6923 116.659 12.6923C116.97 12.6923 117.222 12.9661 117.222 13.3039C117.222 13.3056 117.222 13.3076 117.222 13.3093L117.203 13.3095H117.203Z" fill="white"/>
<path d="M125.18 15.3563C125.18 14.5121 124.548 14.0421 123.632 13.7235C123.041 13.5263 122.2 13.3797 122.2 12.9602C122.2 12.7529 122.432 12.6063 122.832 12.6063C123.557 12.6562 124.268 12.8575 124.924 13.197V11.4229L124.533 11.8272C124.011 11.6085 123.457 11.4815 122.897 11.4539C121.214 11.4539 120.67 12.2525 120.67 12.9705C120.67 13.9815 121.279 14.3859 122.237 14.7448C122.948 15.0078 123.631 15.033 123.631 15.4677C123.631 15.9025 123.227 15.8924 123.018 15.8924C122.204 15.8573 121.412 15.5863 120.726 15.1083V17.0746L121.117 16.6147C121.746 16.8671 122.412 17.013 123.083 17.0443C124.548 17.0443 125.203 16.3517 125.203 15.3507L125.18 15.3563H125.18Z" fill="white"/>
<path fill-rule="evenodd" clip-rule="evenodd" d="M132.586 16.9032L130.15 11.6003H128.476L128.658 11.9946L126.449 16.9032H128.272L127.96 16.5087L128.202 15.9529H130.564L130.801 16.5087L130.489 16.9032H132.586ZM130.201 14.9972H128.56L129.378 13.0966L130.201 14.9972H130.201Z" fill="white"/>
<path d="M138.455 16.9032V15.4675L138.083 15.8012H135.698V11.9946L136.009 11.6003H133.936L134.247 11.9946V16.5087L133.936 16.9032H138.455Z" fill="white"/>
<path d="M137.127 12.3334C137.128 12.3364 137.128 12.34 137.128 12.3432C137.128 12.72 137.409 13.0257 137.755 13.0257C138.102 13.0257 138.383 12.72 138.383 12.3432C138.383 11.9665 138.102 11.6608 137.755 11.6608C137.752 11.6606 137.749 11.6606 137.746 11.6606C137.405 11.6606 137.128 11.9616 137.128 12.3327L137.127 12.3332V12.3334ZM137.062 12.3334C137.063 12.33 137.063 12.3263 137.063 12.3231C137.063 11.9072 137.373 11.5701 137.755 11.5701C138.138 11.5701 138.448 11.9075 138.448 12.3231C138.448 12.739 138.138 13.0762 137.755 13.0762C137.752 13.0762 137.749 13.0762 137.746 13.0762C137.369 13.0762 137.063 12.7437 137.063 12.3332L137.062 12.3334Z" fill="white"/>
<path fill-rule="evenodd" clip-rule="evenodd" d="M138.017 12.0455C137.951 11.9866 137.868 11.9543 137.782 11.9543C137.78 11.9543 137.777 11.9543 137.775 11.9543C137.58 11.9543 137.422 12.1264 137.422 12.3386C137.422 12.5506 137.58 12.7228 137.775 12.7228C137.776 12.7228 137.776 12.7228 137.777 12.7228C137.869 12.7228 137.957 12.6869 138.027 12.6216V12.5204C137.963 12.6032 137.87 12.6531 137.771 12.6569C137.609 12.6569 137.478 12.5142 137.478 12.3383C137.478 12.1625 137.609 12.0198 137.771 12.0198C137.773 12.0198 137.774 12.0198 137.776 12.0198C137.867 12.0198 137.954 12.0643 138.012 12.1411V12.045L138.017 12.0453L138.017 12.0455Z" fill="white"/>
<path d="M64.5136 36.2946L64.2998 36.5625V38.5844C64.3004 38.6013 64.3009 38.6193 64.3009 38.6364C64.3009 38.8364 64.2656 39.0356 64.198 39.2213C64.1323 39.3884 64.0261 39.5334 63.8913 39.6408C63.7324 39.7581 63.5536 39.8408 63.3657 39.8834C63.1294 39.9337 62.8875 39.9598 62.6464 39.9598C62.6274 39.9598 62.6078 39.9592 62.589 39.9592C62.5696 39.9592 62.549 39.9596 62.5292 39.9596C62.2904 39.9596 62.0514 39.9335 61.8174 39.8832C61.6278 39.8417 61.4477 39.7591 61.2875 39.6406C61.15 39.5362 61.0436 39.3901 60.9806 39.2211C60.9098 39.0296 60.8735 38.8251 60.8735 38.6189C60.8735 38.6073 60.8736 38.5951 60.874 38.584V36.5618L60.6602 36.294L62.1012 36.2942L61.8873 36.562V38.5487C61.8864 38.5635 61.8857 38.5784 61.8857 38.5932C61.8857 38.7599 61.9547 38.9179 62.0735 39.0234C62.212 39.1295 62.3773 39.1867 62.5468 39.1867C62.5611 39.1867 62.5752 39.1862 62.5892 39.1856C62.6029 39.1862 62.6166 39.1864 62.6303 39.1864C62.7998 39.1864 62.9652 39.1315 63.1055 39.0285C63.2254 38.9182 63.2946 38.756 63.2946 38.585C63.2946 38.5645 63.2937 38.5435 63.2916 38.523V36.5364L63.0778 36.2686L64.5141 36.294L64.5136 36.2946Z" fill="white"/>
<path d="M70.0273 36.2944L69.8134 36.5623V39.8832H69.0416L67.1818 37.7755V39.6156L67.3958 39.8832H66.1914L66.4055 39.6156V36.5824L66.1914 36.3146H67.3028L69.0462 38.3919V36.5824L68.8277 36.3146L70.0273 36.2944Z" fill="white"/>
<path d="M73.3469 39.8833H71.8965L72.11 39.6157V36.5825L71.8965 36.3147H73.3469L73.1285 36.5825V39.6155L73.3469 39.8833Z" fill="white"/>
<path d="M78.6705 36.2944L77.062 39.8832H76.3505L74.7559 36.2944H76.1925L75.9738 36.5623L76.8061 38.5386L77.666 36.5623L77.4524 36.2944H78.6705Z" fill="white"/>
<path d="M83.272 39.8833H80.0547L80.2687 39.6157V36.5825L80.0547 36.3147H83.272V37.2699L83.0163 37.0425H81.2496V37.7299L82.3559 37.7301L82.6073 37.5076V38.6701L82.3559 38.4478H81.2496V39.1352H83.0163L83.272 38.9078V39.8833Z" fill="white"/>
<path d="M88.6898 39.8833H87.1786L87.3924 39.6154L86.7369 38.6044H86.3091V39.6154L86.5229 39.8833H85.0957L85.3095 39.6154V36.5824L85.0957 36.3146L87.2251 36.3144C87.2665 36.3108 87.3086 36.3086 87.35 36.3086C87.6663 36.3086 87.9752 36.4147 88.2342 36.6124C88.4351 36.8152 88.5497 37.1002 88.5497 37.3986C88.5497 37.6376 88.4762 37.8699 88.341 38.0582C88.1882 38.2507 87.9928 38.3988 87.7739 38.4878L88.6897 39.8833H88.6898ZM87.5135 37.457C87.5141 37.4534 87.5141 37.4497 87.5141 37.4461C87.5141 37.3657 87.493 37.2869 87.4532 37.2191C87.4122 37.159 87.3557 37.1132 87.2906 37.0878C87.2238 37.0576 87.152 37.0422 87.0793 37.0422C87.077 37.0422 87.0744 37.0422 87.0719 37.0422L86.3094 37.0424V37.927L86.9604 37.9272C86.9683 37.9272 86.9768 37.9275 86.9843 37.9275C87.1201 37.9275 87.2522 37.8793 87.3599 37.7906C87.4604 37.7144 87.5213 37.5901 87.523 37.4568L87.5133 37.457H87.5135Z" fill="white"/>
<path d="M93.5566 38.8321C93.5568 38.8402 93.5572 38.8494 93.5572 38.858C93.5572 39.0112 93.5266 39.1628 93.4683 39.3021C93.4092 39.4442 93.3182 39.5678 93.2031 39.6611C93.0641 39.7717 92.9058 39.8528 92.7383 39.8984C92.5419 39.9525 92.3391 39.9796 92.1363 39.9796C92.1203 39.9796 92.1036 39.9794 92.0873 39.9792C91.9324 39.9771 91.7758 39.9615 91.6228 39.9337C91.4519 39.905 91.2821 39.8639 91.1157 39.8126C90.953 39.7621 90.8322 39.7217 90.753 39.6864L90.4787 39.9996V38.67C90.7337 38.8486 91.0139 38.984 91.3065 39.0692C91.5529 39.1481 91.8077 39.1928 92.0642 39.2007C92.0669 39.2007 92.0707 39.2007 92.0734 39.2007C92.1708 39.2007 92.2674 39.1802 92.3573 39.1399C92.4359 39.1068 92.488 39.0242 92.488 38.9324C92.488 38.9258 92.4878 38.919 92.4874 38.9126C92.4874 38.91 92.4874 38.9072 92.4874 38.9044C92.4874 38.8203 92.4417 38.7442 92.3712 38.7101C92.237 38.6381 92.0946 38.5835 91.9484 38.5484C91.7439 38.4928 91.6091 38.4472 91.5394 38.422C91.2425 38.3277 90.9655 38.1687 90.7253 37.9569C90.5552 37.7791 90.459 37.5329 90.459 37.2761C90.459 37.2588 90.4593 37.2413 90.4605 37.2242C90.4605 37.2212 90.4605 37.2184 90.4605 37.2154C90.4605 37.0368 90.5124 36.8626 90.6092 36.7184C90.7382 36.5425 90.911 36.4108 91.1068 36.3391C91.3648 36.2411 91.6371 36.1908 91.9104 36.1908C91.9401 36.1908 91.9703 36.1915 91.9996 36.1925C92.0435 36.1891 92.088 36.1872 92.132 36.1872C92.1759 36.1872 92.2209 36.1891 92.2645 36.1925C92.3703 36.2052 92.4768 36.2244 92.5808 36.2484C92.684 36.2704 92.7871 36.3 92.8876 36.3342C92.9688 36.3564 93.0481 36.387 93.1246 36.4251L93.399 36.1521V37.3501C93.2328 37.2684 93.0609 37.1965 92.8873 37.1377C92.7204 37.0804 92.5484 37.0338 92.376 37.0012C92.2354 36.9698 92.0922 36.9522 91.9483 36.9507C91.9357 36.9501 91.9231 36.9497 91.9103 36.9497C91.814 36.9497 91.719 36.9726 91.6319 37.0166C91.5648 37.0431 91.5187 37.111 91.5156 37.1886C91.5174 37.2582 91.5505 37.3223 91.6042 37.3604C91.671 37.4165 91.7466 37.4593 91.8274 37.4869C91.9422 37.5337 92.0612 37.575 92.1807 37.6084L92.5013 37.7044C92.7899 37.7885 93.0602 37.9387 93.2918 38.1441C93.4609 38.3022 93.5586 38.5332 93.5586 38.776C93.5586 38.7944 93.5579 38.8131 93.5568 38.831L93.5566 38.8314V38.8321Z" fill="white"/>
<path d="M99.2006 39.8835H97.7544L97.9684 39.6157L97.8055 39.2368L96.1736 39.2366L96.0061 39.6157L96.2199 39.8835L94.9648 39.8837L96.485 36.5628L96.3642 36.2949H97.5218L99.2004 39.884L99.2006 39.8835ZM97.5547 38.5894L96.9828 37.3056L96.4204 38.5894H97.5548H97.5547Z" fill="white"/>
<path d="M103.777 39.8833H100.662L100.876 39.6157V36.5825L100.662 36.3147H102.094L101.875 36.5825V39.1553L103.521 39.1555L103.777 38.9282V39.9037L103.777 39.8833Z" fill="white"/>
<path d="M112.349 39.8833H110.954L111.168 39.6157V37.892L110.238 39.8838L109.773 39.8833L108.75 37.8614V39.6157L108.964 39.8833H107.783L107.997 39.6157V36.5825L107.783 36.3147H108.987L110.099 38.5084L111.112 36.3147H112.344L112.125 36.5825V39.6155L112.349 39.8833Z" fill="white"/>
<path d="M117.896 36.2947L117.677 36.5626V38.5845C117.677 38.6014 117.678 38.6194 117.678 38.6365C117.678 38.8365 117.643 39.0357 117.575 39.2214C117.509 39.3885 117.403 39.5335 117.268 39.6409C117.11 39.7601 116.931 39.8433 116.743 39.8837C116.506 39.9338 116.264 39.9599 116.023 39.9599C116.004 39.9599 115.985 39.9592 115.966 39.9592C115.947 39.9592 115.928 39.9599 115.909 39.9599C115.67 39.9599 115.429 39.9342 115.194 39.8837C115.006 39.8433 114.826 39.7601 114.669 39.6409C114.532 39.5346 114.424 39.3893 114.357 39.2216C114.289 39.0335 114.254 38.8331 114.254 38.6311C114.254 38.6157 114.254 38.5999 114.255 38.5845V36.5626L114.041 36.2947H115.482L115.264 36.5626V38.5492C115.263 38.5622 115.263 38.5759 115.263 38.5894C115.263 38.7573 115.331 38.9167 115.45 39.0241C115.588 39.1302 115.754 39.1871 115.923 39.1871C115.938 39.1871 115.952 39.1867 115.966 39.1861C115.979 39.1867 115.993 39.1869 116.007 39.1869C116.176 39.1869 116.342 39.1319 116.482 39.029C116.602 38.9216 116.672 38.7614 116.672 38.592C116.672 38.5693 116.67 38.5464 116.668 38.5235V36.5369L116.454 36.269L117.895 36.2945L117.896 36.2947Z" fill="white"/>
<path d="M122.623 38.8369C122.623 38.8436 122.623 38.8515 122.623 38.8585C122.623 39.0126 122.595 39.1651 122.54 39.3067C122.477 39.4473 122.384 39.5703 122.27 39.6657C122.131 39.7766 121.972 39.8576 121.805 39.9032C121.609 39.9573 121.407 39.9849 121.205 39.9849C121.188 39.9849 121.17 39.9845 121.154 39.9843C120.999 39.9817 120.842 39.9663 120.689 39.9385C120.518 39.909 120.349 39.8681 120.183 39.8172C120.02 39.7665 119.899 39.7263 119.82 39.691L119.546 40.0042V38.6746C120.025 38.9886 120.572 39.1632 121.131 39.1805C121.135 39.1803 121.139 39.1803 121.144 39.1803C121.241 39.1803 121.338 39.1598 121.428 39.1197C121.507 39.0832 121.559 38.9989 121.559 38.9056C121.559 38.9011 121.559 38.8966 121.558 38.8921C121.558 38.8917 121.558 38.8911 121.558 38.8906C121.558 38.8051 121.513 38.727 121.443 38.6899C121.308 38.6189 121.165 38.5644 121.019 38.5285C120.81 38.4728 120.675 38.4273 120.61 38.4022C120.313 38.3094 120.035 38.1506 119.796 37.9371C119.624 37.7613 119.525 37.5152 119.525 37.2579C119.525 37.2401 119.526 37.2219 119.527 37.2042C119.528 37.0232 119.58 36.8465 119.676 36.6984C119.806 36.5241 119.978 36.3923 120.173 36.3191C120.431 36.2215 120.704 36.1711 120.977 36.1711C121.006 36.1711 121.037 36.1715 121.066 36.1726C121.111 36.1696 121.156 36.1676 121.201 36.1676C121.246 36.1676 121.291 36.1696 121.335 36.173C121.428 36.173 121.536 36.2034 121.652 36.2286C121.768 36.2539 121.865 36.2842 121.954 36.3146C122.037 36.3377 122.117 36.3683 122.196 36.4055L122.465 36.1326V37.3308C122.301 37.2489 122.131 37.1776 121.959 37.1186C121.792 37.0617 121.619 37.0153 121.447 36.9821C121.306 36.9502 121.163 36.9333 121.019 36.9316C121.008 36.931 120.995 36.9305 120.983 36.9305C120.885 36.9305 120.788 36.9534 120.698 36.9971C120.633 37.026 120.588 37.0923 120.582 37.1689C120.586 37.238 120.618 37.3017 120.671 37.3409C120.739 37.395 120.814 37.4378 120.894 37.4673C120.987 37.5077 121.103 37.543 121.252 37.5886L121.573 37.6847C121.861 37.7702 122.13 37.92 122.363 38.1243C122.531 38.2846 122.627 38.5156 122.627 38.7582C122.627 38.7845 122.625 38.8111 122.623 38.8367L122.623 38.8372L122.623 38.8369Z" fill="white"/>
<path d="M125.905 39.8882H124.482L124.696 39.6206V36.5874L124.482 36.3196H125.928L125.714 36.5874V39.6204L125.905 39.8882Z" fill="white"/>
<path d="M130.922 39.6305C130.843 39.6763 130.76 39.7154 130.676 39.7465C130.578 39.7818 130.471 39.8173 130.355 39.8477C130.238 39.878 130.104 39.9084 129.969 39.9285C129.84 39.9478 129.709 39.9585 129.578 39.9589C129.572 39.9591 129.566 39.9591 129.56 39.9591C129.31 39.9591 129.061 39.9232 128.821 39.853C128.594 39.7824 128.381 39.6673 128.193 39.5141C128.006 39.3597 127.856 39.1584 127.756 38.9277C127.652 38.6731 127.598 38.3976 127.598 38.1188C127.598 38.109 127.598 38.0983 127.598 38.0887C127.598 38.0857 127.598 38.0825 127.598 38.0797C127.598 37.8313 127.644 37.5846 127.733 37.3561C127.821 37.1287 127.955 36.925 128.123 36.7594C128.31 36.5851 128.527 36.451 128.76 36.3652C129.024 36.2747 129.302 36.2283 129.579 36.2283C129.593 36.2283 129.607 36.2287 129.621 36.2287C129.685 36.2251 129.749 36.2231 129.814 36.2231C129.878 36.2231 129.943 36.2251 130.006 36.2285C130.141 36.2285 130.262 36.2738 130.373 36.2991C130.485 36.3243 130.587 36.3598 130.68 36.3951L130.917 36.1626V37.3555C130.794 37.2774 130.664 37.2072 130.532 37.1486C130.4 37.093 130.262 37.0506 130.123 37.0222C129.978 36.992 129.83 36.9764 129.683 36.9764C129.675 36.9764 129.666 36.9764 129.658 36.9764C129.63 36.9738 129.601 36.9723 129.572 36.9723C129.318 36.9723 129.075 37.0855 128.9 37.2849C128.741 37.507 128.654 37.781 128.654 38.0632C128.654 38.2615 128.697 38.4577 128.779 38.6346C128.863 38.8013 128.991 38.9371 129.147 39.024C129.308 39.1136 129.487 39.1607 129.668 39.1607C129.676 39.1607 129.683 39.1605 129.691 39.1603C129.864 39.1605 130.038 39.1383 130.207 39.095C130.34 39.0619 130.469 39.0122 130.592 38.9482L130.904 38.7662V39.6053L130.922 39.6309L130.922 39.6305Z" fill="white"/>
<path d="M137.594 38.3819L137.376 38.1038H138.594V39.5447C138.504 39.6018 138.408 39.6514 138.31 39.691C138.184 39.7455 138.052 39.7917 137.92 39.8277C137.776 39.8681 137.627 39.8985 137.455 39.9237C137.314 39.9466 137.172 39.9588 137.03 39.9588C137.026 39.9588 137.022 39.9588 137.018 39.9588C137.01 39.9588 137.001 39.9588 136.993 39.9588C136.66 39.9588 136.329 39.8921 136.018 39.7618C135.406 39.5185 134.998 38.8847 134.998 38.1757C134.998 38.1466 134.999 38.1175 135 38.0886C135 38.0676 134.999 38.0465 134.999 38.0255C134.999 37.6708 135.102 37.3244 135.293 37.0369C135.486 36.7571 135.75 36.5429 136.051 36.4203C136.359 36.2934 136.686 36.2282 137.015 36.2282C137.016 36.2282 137.017 36.2282 137.018 36.2282C137.035 36.2282 137.054 36.2278 137.071 36.2278C137.255 36.2278 137.439 36.2483 137.618 36.2892C137.797 36.3322 137.975 36.3887 138.148 36.4558L138.417 36.188V37.4162C138.21 37.2947 137.991 37.1922 137.766 37.1133C137.548 37.0392 137.32 37.0016 137.091 37.0016C137.084 37.0016 137.077 37.0016 137.069 37.0016C137.06 37.0018 137.051 37.0014 137.042 37.0014C136.908 37.0014 136.775 37.029 136.651 37.0827C136.532 37.1289 136.424 37.2033 136.334 37.3003C136.25 37.4004 136.184 37.5169 136.139 37.6438C136.093 37.7809 136.069 37.9258 136.069 38.0717C136.069 38.0772 136.069 38.0832 136.069 38.0888C136.069 38.1044 136.068 38.1205 136.068 38.1361C136.068 38.4147 136.165 38.6831 136.339 38.8876C136.521 39.0795 136.765 39.1872 137.019 39.1872C137.035 39.1872 137.053 39.1865 137.069 39.1857C137.237 39.1814 137.406 39.1608 137.571 39.1253L137.594 38.3821L137.594 38.3819Z" fill="white"/>
<path d="M143.871 39.8881H142.346L142.565 39.6202L141.905 38.6092H141.477V39.6202L141.691 39.8881H140.264L140.477 39.6202V36.5873L140.264 36.3194L142.393 36.3192C142.436 36.3154 142.48 36.313 142.523 36.313C142.838 36.313 143.145 36.4195 143.402 36.6174C143.603 36.82 143.718 37.1052 143.718 37.4034C143.718 37.6424 143.644 37.8747 143.509 38.063C143.357 38.2568 143.161 38.4051 142.941 38.4926L143.871 39.8881ZM142.69 37.4618C142.691 37.455 142.691 37.4477 142.691 37.4411C142.691 37.3639 142.67 37.2881 142.63 37.2239C142.589 37.1638 142.533 37.118 142.467 37.0926C142.401 37.0624 142.329 37.047 142.256 37.047C142.254 37.047 142.251 37.047 142.249 37.047L141.477 37.0472V37.9318L142.151 37.9321C142.159 37.9321 142.167 37.9323 142.175 37.9323C142.312 37.9323 142.446 37.8842 142.556 37.7954C142.641 37.7156 142.691 37.5992 142.691 37.4764C142.691 37.4715 142.691 37.4665 142.691 37.4616L142.69 37.4618Z" fill="white"/>
<path d="M149.412 38.0887C149.413 38.1123 149.413 38.1371 149.413 38.1613C149.413 38.517 149.316 38.8653 149.133 39.1603C148.952 39.4412 148.697 39.6578 148.403 39.782C148.104 39.9125 147.784 39.9795 147.462 39.9795C147.455 39.9795 147.447 39.9795 147.441 39.9795C147.436 39.9793 147.431 39.9793 147.426 39.9793C147.102 39.9793 146.779 39.9123 146.478 39.782C145.866 39.5258 145.463 38.8863 145.463 38.1735C145.463 38.1452 145.463 38.1168 145.465 38.0887C145.465 38.075 145.465 38.0607 145.465 38.0468C145.465 37.7659 145.522 37.4878 145.632 37.2343C145.742 37.0013 145.901 36.7998 146.097 36.6479C146.287 36.4951 146.502 36.3817 146.729 36.3141C146.962 36.244 147.202 36.208 147.443 36.208C147.447 36.208 147.451 36.208 147.455 36.208C147.459 36.208 147.465 36.208 147.47 36.208C147.713 36.208 147.956 36.2442 148.189 36.3141C148.415 36.3811 148.629 36.4949 148.817 36.6479C149.007 36.7989 149.159 37.0011 149.258 37.2339C149.36 37.4795 149.413 37.7464 149.413 38.0158C149.413 38.0399 149.412 38.0644 149.411 38.0883V38.0885L149.412 38.0887ZM148.343 38.0887C148.344 38.065 148.345 38.0406 148.345 38.0167C148.345 37.7503 148.267 37.4908 148.124 37.2745C147.969 37.0858 147.747 36.9776 147.514 36.9776C147.49 36.9776 147.465 36.9788 147.441 36.9812C147.43 36.9808 147.419 36.9805 147.408 36.9805C147.24 36.9805 147.075 37.0278 146.929 37.1177C146.795 37.2067 146.692 37.3419 146.636 37.5019C146.572 37.6761 146.538 37.8624 146.538 38.0509C146.538 38.0633 146.539 38.0761 146.539 38.0885C146.539 38.0915 146.539 38.0951 146.539 38.0981C146.539 38.2481 146.556 38.3979 146.59 38.5431C146.622 38.6715 146.678 38.7919 146.753 38.897C146.828 38.9977 146.926 39.076 147.036 39.1246C147.166 39.1779 147.304 39.2055 147.443 39.2055C147.582 39.2055 147.72 39.1781 147.85 39.1246C147.959 39.076 148.056 38.9976 148.129 38.8972C148.204 38.7967 148.259 38.6792 148.287 38.5536C148.324 38.4105 148.343 38.2622 148.343 38.1133C148.343 38.1052 148.343 38.0964 148.343 38.0885L148.343 38.0887H148.343Z" fill="white"/>
<path d="M154.763 36.2993L154.549 36.5672V38.5891C154.549 38.6005 154.55 38.6133 154.55 38.6251C154.55 38.8304 154.514 39.0343 154.447 39.226C154.38 39.394 154.272 39.539 154.135 39.6457C153.977 39.7647 153.799 39.8477 153.61 39.8883C153.355 39.938 153.095 39.9639 152.836 39.9639C152.577 39.9639 152.317 39.938 152.062 39.8881C151.874 39.8456 151.695 39.7628 151.536 39.6455C151.4 39.5392 151.292 39.3939 151.225 39.2262C151.157 39.0382 151.122 38.8377 151.122 38.6358C151.122 38.6204 151.122 38.6045 151.122 38.5891V36.5672L150.908 36.2993H152.35L152.136 36.5672V38.5538C152.135 38.5686 152.134 38.5836 152.134 38.5983C152.134 38.765 152.203 38.9231 152.322 39.0285C152.458 39.1346 152.621 39.1918 152.788 39.1918C152.803 39.1918 152.819 39.1911 152.833 39.1905C152.847 39.1911 152.861 39.1914 152.874 39.1914C153.043 39.1914 153.209 39.1364 153.349 39.0335C153.472 38.9261 153.543 38.7639 153.543 38.5928C153.543 38.5712 153.542 38.5498 153.54 38.5282V36.5415L153.321 36.2737L154.763 36.2991L154.763 36.2993Z" fill="white"/>
<path d="M159.91 37.4871C159.914 37.5265 159.916 37.5667 159.916 37.6063C159.916 37.9882 159.739 38.3444 159.445 38.5536C159.11 38.7474 158.735 38.8486 158.355 38.8486C158.324 38.8486 158.291 38.8478 158.26 38.8465L157.665 38.8467V39.6201L157.879 39.8879H156.451L156.665 39.6201V36.5871L156.451 36.3193L158.311 36.319C158.321 36.3186 158.331 36.3186 158.341 36.3186C158.588 36.3186 158.834 36.3528 159.073 36.4198C159.302 36.4795 159.511 36.6055 159.678 36.7839C159.828 36.9643 159.911 37.1992 159.911 37.4424C159.911 37.457 159.911 37.4721 159.911 37.4869H159.91L159.91 37.4871ZM158.869 37.5528C158.87 37.5387 158.871 37.5241 158.871 37.51C158.871 37.3709 158.809 37.2402 158.706 37.1585C158.581 37.0841 158.441 37.0449 158.298 37.0449C158.279 37.0449 158.26 37.0456 158.241 37.0471L157.669 37.0473V38.1341H158.134C158.156 38.1351 158.178 38.136 158.2 38.136C158.365 38.136 158.528 38.0917 158.674 38.0072C158.807 37.9148 158.888 37.7541 158.888 37.5817C158.888 37.5721 158.888 37.5622 158.888 37.5528H158.869H158.869Z" fill="white"/>
</g>
<defs>
<clipPath id="clip0_8099_10786">
<rect width="220" height="40" fill="white"/>
</clipPath>
</defs>
</svg>
