<svg width="220" height="40" viewBox="0 0 220 40" fill="none" xmlns="http://www.w3.org/2000/svg">
<g clip-path="url(#clip0_8105_6128)">
<path d="M116.526 17.1736H102.407C101.994 17.1737 101.599 17.0121 101.305 16.7236C101.01 16.4351 100.84 16.0426 100.832 15.6305V1.69011C100.84 1.27798 101.01 0.88552 101.305 0.597003C101.599 0.308486 101.994 0.14689 102.407 0.146973H116.526C116.938 0.14689 117.334 0.308486 117.628 0.597003C117.923 0.88552 118.092 1.27798 118.1 1.69011V15.6305C118.092 16.0426 117.923 16.4351 117.628 16.7236C117.334 17.0121 116.938 17.1737 116.526 17.1736ZM102.407 0.309711C102.227 0.307633 102.049 0.341067 101.882 0.40806C101.716 0.475052 101.564 0.574278 101.435 0.700092C101.307 0.825907 101.205 0.97583 101.135 1.14122C101.065 1.3066 101.028 1.48418 101.026 1.66384V15.6095C101.03 15.9733 101.179 16.3207 101.438 16.5755C101.698 16.8302 102.048 16.9717 102.412 16.9689H116.531C116.711 16.9703 116.889 16.9362 117.056 16.8686C117.223 16.8011 117.374 16.7014 117.503 16.5751C117.631 16.4489 117.733 16.2987 117.803 16.133C117.873 15.9673 117.91 15.7894 117.911 15.6095V1.66384C117.91 1.48394 117.873 1.30606 117.803 1.14038C117.733 0.974706 117.631 0.824467 117.503 0.698234C117.374 0.572001 117.223 0.472296 117.056 0.404728C116.889 0.33716 116.711 0.303074 116.531 0.304458H102.407V0.309711Z" fill="white"/>
<path d="M116.524 17.2996H102.405C101.96 17.2996 101.534 17.1244 101.217 16.812C100.901 16.4996 100.72 16.0751 100.715 15.6305V1.6586C100.72 1.21406 100.902 0.789901 101.22 0.479001C101.538 0.168102 101.966 -0.00412724 102.41 7.51355e-05H116.529C116.749 -0.00200116 116.968 0.0393808 117.172 0.121937C117.376 0.204493 117.563 0.32661 117.72 0.48118C117.877 0.635749 118.001 0.819746 118.087 1.0227C118.173 1.22566 118.218 1.44353 118.219 1.66386V15.6043C118.218 15.8249 118.173 16.043 118.087 16.2462C118.001 16.4495 117.877 16.6338 117.72 16.7888C117.563 16.9438 117.377 17.0664 117.173 17.1495C116.968 17.2327 116.75 17.2747 116.529 17.2733L116.524 17.2996ZM102.405 0.225731C102.015 0.222931 101.639 0.37491 101.361 0.648403C101.082 0.921897 100.924 1.29462 100.919 1.68487V15.6253C100.921 15.819 100.96 16.0105 101.036 16.1889C101.111 16.3673 101.221 16.5291 101.359 16.6651C101.497 16.8011 101.66 16.9086 101.84 16.9814C102.019 17.0543 102.211 17.091 102.405 17.0896H116.524C116.718 17.091 116.91 17.0543 117.089 16.9814C117.269 16.9086 117.432 16.8011 117.57 16.6651C117.708 16.5291 117.817 16.3673 117.893 16.1889C117.968 16.0105 118.008 15.819 118.009 15.6253V1.68487C118.008 1.49188 117.969 1.30107 117.893 1.12329C117.818 0.945516 117.709 0.784217 117.572 0.648724C117.434 0.513231 117.271 0.406142 117.092 0.333562C116.913 0.260982 116.722 0.224348 116.529 0.225731H102.405ZM116.524 17.0949H102.405C102.211 17.0963 102.019 17.0595 101.84 16.9867C101.66 16.9138 101.497 16.8063 101.359 16.6704C101.221 16.5344 101.111 16.3725 101.036 16.1941C100.96 16.0157 100.921 15.8242 100.919 15.6305V1.6586C100.924 1.26835 101.082 0.895692 101.361 0.622199C101.639 0.348706 102.015 0.196726 102.405 0.199526H116.524C116.717 0.197449 116.908 0.23343 117.087 0.305435C117.265 0.37744 117.428 0.484049 117.566 0.619123C117.703 0.754198 117.813 0.915054 117.888 1.09254C117.963 1.27002 118.003 1.4606 118.004 1.65335V15.599C118.003 15.7927 117.963 15.9843 117.888 16.1627C117.812 16.3411 117.702 16.5029 117.564 16.6388C117.426 16.7748 117.263 16.8823 117.084 16.9552C116.904 17.028 116.712 17.0648 116.519 17.0634L116.524 17.0949ZM102.405 0.425182C102.068 0.423772 101.745 0.555404 101.505 0.791345C101.265 1.02729 101.129 1.34843 101.124 1.68487V15.6305C101.126 15.7973 101.16 15.9622 101.225 16.1158C101.29 16.2694 101.385 16.4087 101.504 16.5256C101.623 16.6426 101.763 16.735 101.918 16.7975C102.072 16.8601 102.238 16.8916 102.405 16.8902H116.524C116.691 16.8909 116.856 16.8587 117.01 16.7956C117.165 16.7324 117.305 16.6394 117.423 16.5219C117.542 16.4044 117.636 16.2648 117.701 16.111C117.765 15.9571 117.798 15.7921 117.799 15.6253V1.6586C117.798 1.4918 117.764 1.32691 117.699 1.17333C117.634 1.01975 117.539 0.880511 117.42 0.763538C117.301 0.646565 117.16 0.55418 117.006 0.491623C116.851 0.429067 116.686 0.397593 116.519 0.398977H102.405V0.425182Z" fill="white"/>
<path d="M110.432 5.28573C110.432 5.16167 110.407 5.03893 110.358 4.92457C110.31 4.81021 110.24 4.70645 110.152 4.61921C110.064 4.53197 109.959 4.46295 109.844 4.41611C109.729 4.36927 109.607 4.34551 109.482 4.34621C109.261 4.34672 109.046 4.42382 108.875 4.56443C108.704 4.70504 108.587 4.90057 108.543 5.11781C108.807 5.43039 109.016 5.78528 109.162 6.16754C109.266 6.20029 109.374 6.21795 109.482 6.22001C109.729 6.22148 109.967 6.12612 110.145 5.95444C110.322 5.78275 110.425 5.5484 110.432 5.3015V5.28573ZM108.858 5.28573C108.856 5.15866 108.892 5.03387 108.961 4.9272C109.03 4.82052 109.129 4.73682 109.246 4.68674C109.362 4.63666 109.492 4.62248 109.617 4.64599C109.742 4.6695 109.856 4.7296 109.947 4.81873C110.037 4.90785 110.1 5.02189 110.125 5.14638C110.151 5.27087 110.139 5.40018 110.091 5.5178C110.043 5.63542 109.961 5.73605 109.855 5.80688C109.75 5.87772 109.625 5.91559 109.498 5.91561C109.415 5.9163 109.332 5.9005 109.255 5.86922C109.178 5.83795 109.107 5.79175 109.047 5.73327C108.988 5.67478 108.941 5.60516 108.908 5.52837C108.876 5.45158 108.858 5.36914 108.858 5.28573Z" fill="white"/>
<path d="M109.454 7.23263C109.708 7.23263 109.959 7.18272 110.193 7.08565C110.427 6.98859 110.64 6.84631 110.819 6.66695C110.999 6.4876 111.141 6.27462 111.238 6.04028C111.335 5.80594 111.385 5.55481 111.385 5.30116C111.385 5.04752 111.335 4.79633 111.238 4.56198C111.141 4.32764 110.999 4.11473 110.819 3.93538C110.64 3.75602 110.427 3.61374 110.193 3.51668C109.959 3.41961 109.708 3.36963 109.454 3.36963C109.078 3.36872 108.71 3.47553 108.392 3.67736C108.075 3.8792 107.822 4.16766 107.664 4.50861C107.769 4.55424 107.87 4.61049 107.963 4.67654C108.092 4.39501 108.299 4.15657 108.56 3.9899C108.82 3.82323 109.123 3.73546 109.433 3.73708C109.851 3.73708 110.251 3.90296 110.546 4.19826C110.841 4.49355 111.008 4.89406 111.008 5.31167C111.008 5.72928 110.841 6.12979 110.546 6.42509C110.251 6.72038 109.851 6.88627 109.433 6.88627H109.244V7.22744L109.454 7.23263Z" fill="white"/>
<path d="M115.325 7.00163C115.319 6.26059 115.02 5.55203 114.492 5.03147C113.965 4.51092 113.252 4.22089 112.511 4.22508H112.097C111.886 3.70159 111.524 3.25312 111.056 2.93727C110.589 2.62141 110.037 2.45264 109.472 2.45264C108.908 2.45264 108.357 2.62141 107.889 2.93727C107.421 3.25312 107.059 3.70159 106.848 4.22508L107.195 4.29857C107.365 3.88613 107.644 3.52773 108.002 3.26172C108.361 2.9957 108.784 2.83211 109.228 2.78837C109.672 2.74462 110.12 2.82239 110.524 3.01338C110.927 3.20437 111.27 3.50135 111.518 3.87263C111.766 4.2439 111.907 4.67552 111.929 5.12123C111.95 5.56695 111.85 6.01001 111.638 6.40309C111.427 6.79617 111.113 7.12448 110.73 7.35287C110.346 7.58125 109.908 7.70111 109.462 7.69968H109.142C109.115 7.80967 109.078 7.91687 109.032 8.01984H109.851C110.263 7.95279 110.658 7.80282 111.011 7.57897H111.047L110.974 7.7207L110.785 8.07763L110.517 8.6025L109.467 10.5864L109.31 10.2558L109.047 9.77294L108.885 9.45803L108.58 8.88063L108.675 8.76517C108.407 8.43616 108.069 8.17116 107.686 7.98954C107.303 7.80791 106.884 7.71425 106.46 7.71544C106.086 7.69915 105.711 7.75881 105.361 7.89087C105.01 8.02292 104.69 8.22465 104.419 8.48384C104.148 8.74303 103.933 9.05435 103.785 9.39902C103.638 9.74369 103.563 10.1146 103.562 10.4894C103.563 10.8642 103.638 11.235 103.785 11.5797C103.933 11.9244 104.148 12.2357 104.419 12.4949C104.69 12.7541 105.01 12.9558 105.361 13.0878C105.711 13.2199 106.086 13.2796 106.46 13.2633C106.599 13.2641 106.738 13.2518 106.875 13.2265C106.836 13.1198 106.802 13.0112 106.775 12.9011H106.444C105.831 12.9133 105.235 12.6934 104.776 12.2854C104.318 11.8774 104.031 11.3113 103.972 10.7005C103.912 10.0896 104.086 9.47895 104.458 8.9907C104.83 8.50245 105.373 8.17263 105.977 8.06713L106.255 8.54996C105.753 8.58361 105.283 8.81329 104.948 9.18945C104.614 9.56561 104.44 10.0582 104.465 10.5612C104.489 11.0642 104.711 11.5374 105.081 11.8788C105.451 12.2202 105.941 12.4026 106.444 12.3868H106.67V12.0508H106.439C106.021 12.0508 105.62 11.8849 105.325 11.5897C105.03 11.2944 104.864 10.8938 104.864 10.4762C104.864 10.0586 105.03 9.65811 105.325 9.36282C105.62 9.06753 106.021 8.90164 106.439 8.90164L106.885 9.65742C106.748 9.58887 106.597 9.55297 106.444 9.55247C106.314 9.54279 106.184 9.55994 106.062 9.60289C105.939 9.64585 105.826 9.71372 105.731 9.80215C105.636 9.89058 105.56 9.99771 105.508 10.1169C105.456 10.236 105.429 10.3646 105.429 10.4946C105.429 10.6246 105.456 10.7532 105.508 10.8724C105.56 10.9915 105.636 11.0987 105.731 11.1871C105.826 11.2755 105.939 11.3433 106.062 11.3863C106.184 11.4292 106.314 11.4464 106.444 11.4367C106.565 11.438 106.684 11.4148 106.796 11.3685C106.929 11.0205 107.105 10.6907 107.321 10.387C106.886 10.886 106.645 11.5253 106.644 12.1873C106.65 12.9297 106.952 13.6391 107.481 14.1596C108.01 14.6802 108.725 14.9694 109.467 14.9639C109.874 14.9644 110.276 14.8775 110.647 14.7091C111.017 14.5407 111.347 14.2946 111.614 13.9875C111.801 13.768 111.952 13.52 112.06 13.2528C112.198 13.2737 112.336 13.2842 112.475 13.2842C113.216 13.2871 113.927 12.9966 114.454 12.4763C114.981 11.9561 115.281 11.2484 115.288 10.5078C114.891 10.0147 114.677 9.39864 114.685 8.76549C114.693 8.13234 114.921 7.52162 115.33 7.03835L115.325 7.00163ZM106.481 11.0641C106.355 11.062 106.231 11.0226 106.127 10.9507C106.023 10.8789 105.943 10.7779 105.896 10.6604C105.85 10.5429 105.839 10.4142 105.865 10.2906C105.891 10.1669 105.954 10.0538 106.044 9.96553C106.135 9.87724 106.249 9.81774 106.373 9.79446C106.498 9.77119 106.626 9.7852 106.742 9.83476C106.859 9.88433 106.958 9.96723 107.027 10.073C107.096 10.1787 107.132 10.3026 107.131 10.429C107.131 10.5124 107.114 10.5949 107.081 10.6717C107.049 10.7484 107.001 10.8181 106.942 10.8765C106.882 10.935 106.812 10.9812 106.735 11.0125C106.657 11.0438 106.575 11.0595 106.491 11.0588L106.481 11.0641ZM112.501 4.561C113.147 4.561 113.767 4.81758 114.223 5.2743C114.68 5.73102 114.936 6.35048 114.936 6.99638C114.936 7.64228 114.68 8.26174 114.223 8.71846C113.767 9.17519 113.147 9.43176 112.501 9.43176H112.218L112.506 8.9069C112.767 8.92054 113.028 8.88086 113.274 8.79035C113.519 8.69984 113.743 8.5604 113.933 8.38043C114.122 8.20046 114.273 7.98377 114.377 7.74357C114.48 7.50337 114.533 7.24467 114.533 6.98325C114.533 6.72182 114.48 6.46312 114.377 6.22292C114.273 5.98273 114.122 5.76609 113.933 5.58613C113.743 5.40616 113.519 5.26665 113.274 5.17614C113.028 5.08563 112.767 5.04602 112.506 5.05966H112.302C112.287 4.88286 112.259 4.70742 112.218 4.5348H112.511L112.501 4.561ZM112.501 9.80965C112.627 9.81172 112.75 9.85106 112.854 9.92267C112.958 9.99427 113.038 10.095 113.085 10.2121C113.132 10.3293 113.143 10.4577 113.117 10.5812C113.091 10.7048 113.03 10.8178 112.94 10.9063C112.85 10.9948 112.736 11.0548 112.612 11.0787C112.488 11.1026 112.36 11.0893 112.243 11.0405C112.127 10.9917 112.027 10.9097 111.957 10.8046C111.887 10.6995 111.85 10.5762 111.85 10.45C111.853 10.2792 111.923 10.1163 112.044 9.99654C112.166 9.87675 112.33 9.80963 112.501 9.80965ZM111.562 10.5812C111.603 10.8132 111.73 11.0216 111.916 11.1661C112.102 11.3107 112.335 11.3814 112.57 11.3644C112.805 11.3475 113.026 11.2442 113.189 11.0744C113.353 10.9046 113.448 10.6803 113.457 10.4447C113.457 10.3975 113.457 10.3555 113.457 10.3083C113.419 10.0772 113.297 9.86796 113.115 9.72046C113.349 9.67429 113.576 9.59471 113.787 9.48423C114.048 9.77167 114.194 10.1455 114.196 10.534C114.188 10.888 114.065 11.2297 113.845 11.5066C113.624 11.7834 113.318 11.9802 112.975 12.0667C112.631 12.1531 112.269 12.1244 111.943 11.985C111.618 11.8456 111.347 11.6032 111.173 11.2951L111.567 10.5759L111.562 10.5812ZM112.501 6.38227C112.592 6.37413 112.683 6.38497 112.77 6.41411C112.856 6.44325 112.935 6.49007 113.002 6.55154C113.07 6.61301 113.124 6.68781 113.16 6.77117C113.197 6.85454 113.216 6.94462 113.216 7.03572C113.216 7.12682 113.197 7.21697 113.16 7.30033C113.124 7.3837 113.07 7.45849 113.002 7.51996C112.935 7.58144 112.856 7.62819 112.77 7.65733C112.683 7.68647 112.592 7.69731 112.501 7.68917C112.328 7.69063 112.162 7.62451 112.037 7.50484C111.913 7.38518 111.84 7.2215 111.834 7.04885C111.837 6.87576 111.908 6.71078 112.032 6.58985C112.156 6.46893 112.323 6.40187 112.496 6.40328L112.501 6.38227ZM113.404 7.37427C113.446 7.26911 113.467 7.15684 113.467 7.0436C113.466 6.84761 113.405 6.65662 113.292 6.49618C113.18 6.33575 113.021 6.21357 112.837 6.1461C112.623 6.06916 112.389 6.06916 112.176 6.1461C112.248 5.91823 112.291 5.68176 112.302 5.4428H112.527C112.945 5.41844 113.355 5.56095 113.668 5.83901C113.98 6.11708 114.169 6.50791 114.194 6.92552C114.218 7.34313 114.075 7.75332 113.797 8.06584C113.519 8.37836 113.128 8.56763 112.711 8.59199C111.897 8.68122 113.372 7.47925 113.409 7.38478L113.404 7.37427ZM109.551 11.253L109.577 11.1953L110.669 9.09584L110.832 8.78619L111.189 8.12485L111.257 7.99364L111.598 7.34806C111.664 7.53406 111.787 7.69415 111.95 7.80469C112.114 7.92061 112.31 7.98291 112.511 7.98313C112.579 7.99089 112.648 7.99089 112.716 7.98313L112.249 8.79144L112.176 8.92266L111.903 9.39498L111.724 9.69419L110.984 10.9748L110.774 11.337L110.092 12.518C110.033 12.6038 109.954 12.6749 109.863 12.7259C109.772 12.7768 109.671 12.8062 109.567 12.8119H109.268L109.168 12.7436L109.121 12.7017C109.08 12.6619 109.047 12.6158 109.021 12.5652L106.35 8.01465H106.559C106.761 8.00627 106.955 7.93563 107.115 7.81251C107.275 7.68939 107.392 7.51979 107.452 7.32705L108.774 9.78344V9.82541L109.535 11.2268L109.551 11.253ZM108.045 11.4893L108.638 12.539C108.683 12.6559 108.753 12.7615 108.843 12.8486C109.025 13.0279 109.27 13.1279 109.525 13.1268C109.782 13.127 110.028 13.0272 110.212 12.8486C110.25 12.8109 110.285 12.7705 110.318 12.7279L110.522 12.413C110.661 12.5527 110.817 12.676 110.984 12.7804C110.841 13.1219 110.585 13.404 110.259 13.5794C109.933 13.7549 109.556 13.813 109.192 13.7441C108.829 13.6753 108.5 13.4837 108.26 13.2013C108.021 12.9188 107.885 12.5627 107.877 12.1926C107.877 11.9522 107.933 11.7152 108.04 11.4997L108.045 11.4893ZM105.856 6.99638C105.853 6.8637 105.89 6.7331 105.961 6.62131C106.033 6.50953 106.136 6.42166 106.258 6.36894C106.38 6.31622 106.515 6.30103 106.645 6.32537C106.776 6.34971 106.895 6.41244 106.99 6.50554C107.085 6.59863 107.15 6.71786 107.176 6.84793C107.202 6.97799 107.189 7.11299 107.139 7.23562C107.088 7.35825 107.002 7.46291 106.891 7.53624C106.78 7.60957 106.65 7.64822 106.517 7.64721C106.345 7.64864 106.179 7.58229 106.056 7.46249C105.932 7.34269 105.86 7.17906 105.856 7.00689V6.99638ZM104.507 8.46603C104.187 8.04513 104.014 7.53063 104.014 7.00163C104.014 6.34599 104.274 5.71721 104.738 5.2536C105.201 4.78999 105.831 4.52954 106.486 4.52954C107.142 4.52954 107.77 4.78999 108.234 5.2536C108.698 5.71721 108.958 6.34599 108.958 7.00163C108.947 7.54341 108.763 8.06744 108.433 8.49749L108.155 7.97262C108.344 7.67031 108.444 7.32122 108.444 6.96492C108.418 6.46528 108.201 5.99462 107.838 5.65013C107.475 5.30565 106.994 5.11361 106.494 5.11361C105.994 5.11361 105.512 5.30565 105.149 5.65013C104.787 5.99462 104.57 6.46528 104.544 6.96492C104.544 7.37125 104.675 7.7667 104.917 8.09333C104.771 8.19194 104.634 8.30255 104.507 8.424V8.46603ZM105.211 7.94116C105.083 7.77543 104.99 7.58589 104.936 7.38369C104.883 7.18148 104.87 6.97067 104.899 6.76348C104.928 6.5563 104.998 6.35694 105.104 6.17705C105.211 5.99715 105.352 5.84034 105.52 5.71574C105.801 5.51073 106.139 5.40036 106.486 5.40077C106.696 5.39587 106.904 5.43301 107.1 5.50995C107.295 5.58688 107.473 5.70211 107.624 5.84882C107.774 5.99552 107.893 6.17073 107.974 6.3642C108.056 6.55767 108.098 6.76546 108.098 6.97537C108.097 7.19425 108.05 7.41059 107.961 7.6105L107.405 6.56077L107.342 6.44525C107.272 6.33175 107.179 6.23386 107.07 6.15764C106.961 6.08141 106.837 6.02851 106.706 6.0022C106.575 5.97589 106.441 5.97678 106.311 6.00476C106.181 6.03275 106.057 6.08719 105.949 6.16481C105.841 6.24244 105.749 6.34156 105.681 6.45595C105.613 6.57033 105.569 6.69757 105.552 6.82973C105.535 6.96189 105.545 7.09615 105.582 7.22415C105.619 7.35215 105.682 7.47112 105.767 7.57372L105.856 7.70494C105.636 7.75774 105.423 7.83709 105.221 7.94116V7.90964L105.211 7.94116ZM109.509 14.5439C108.861 14.5481 108.238 14.2952 107.777 13.8406C107.315 13.386 107.053 12.7668 107.048 12.1191C107.056 11.5815 107.24 11.0614 107.573 10.639L107.861 11.1638C107.669 11.4685 107.567 11.8216 107.567 12.182C107.572 12.6278 107.729 13.0585 108.013 13.4028C108.296 13.7471 108.688 13.9845 109.124 14.0756C109.561 14.1668 110.015 14.1064 110.412 13.9043C110.81 13.7021 111.126 13.3705 111.309 12.9641C111.467 13.0385 111.63 13.0999 111.798 13.1478C111.6 13.5798 111.282 13.9458 110.882 14.2017C110.482 14.4577 110.016 14.5929 109.541 14.5912L109.509 14.5439ZM114.983 10.429C114.978 11.0796 114.714 11.7013 114.251 12.1579C113.788 12.6145 113.162 12.8686 112.511 12.8644C112.171 12.864 111.835 12.7933 111.524 12.6569C111.212 12.5206 110.932 12.3214 110.701 12.0718L110.974 11.5995C111.22 11.925 111.563 12.1654 111.953 12.2873C112.343 12.4091 112.761 12.4063 113.149 12.2792C113.537 12.1521 113.876 11.9071 114.118 11.5782C114.361 11.2494 114.494 10.8531 114.501 10.4447C114.501 10.0277 114.365 9.62224 114.113 9.29004C114.259 9.19022 114.397 9.07969 114.527 8.95937C114.837 9.37899 115.004 9.88656 115.004 10.408L114.983 10.429Z" fill="white"/>
<path d="M81.0968 38.1161C81.0128 37.7172 80.9129 37.6437 80.514 37.6437H80.2987V39.5332C80.2987 39.8166 80.3514 39.8586 80.6611 39.8796V39.9426H79.5642V39.8691C79.8791 39.8691 79.9209 39.8061 79.9209 39.4807V37.6332H79.6954C79.2965 37.6332 79.1702 37.7014 79.1177 38.1056H79.0234V37.481H81.1229V38.1056L81.0968 38.1161Z" fill="white"/>
<path d="M83.7865 39.9422V39.8687C84.0804 39.8687 84.1171 39.7848 84.1171 39.4751V38.7665H82.9782V39.5171C82.9782 39.7847 83.0307 39.8478 83.3036 39.8687V39.9317H82.2539V39.8687C82.5478 39.8687 82.5896 39.8005 82.5896 39.4804V37.9058C82.5896 37.6171 82.5478 37.5751 82.2539 37.5541V37.4858H83.3036V37.5541C83.0307 37.5541 82.9623 37.6171 82.9623 37.9058V38.6038H84.1012V37.9058C84.1012 37.6118 84.0541 37.5751 83.7655 37.5541V37.4858H84.8152V37.5541C84.537 37.5541 84.4846 37.6223 84.4846 37.9058V39.5223C84.4846 39.7847 84.537 39.8425 84.8152 39.8635V39.9317H83.7655L83.7865 39.9422Z" fill="white"/>
<path d="M87.9129 39.9425H85.8867V39.869C86.1754 39.869 86.2122 39.8007 86.2122 39.512V37.9374C86.2122 37.6645 86.1701 37.6068 85.8867 37.5911V37.5176H87.8811V38.0424H87.7868C87.7343 37.7013 87.6452 37.6488 87.2148 37.6488H86.6899C86.5797 37.6488 86.5536 37.6488 86.5536 37.7853V38.5935H87.1256C87.4458 38.5935 87.5086 38.5253 87.5454 38.2314H87.6346V39.1027H87.5454C87.5086 38.793 87.4458 38.7405 87.1256 38.7405H86.5536V39.6485C86.5536 39.8007 86.6583 39.8165 86.9364 39.8165H87.0728C87.5977 39.8165 87.7711 39.722 87.939 39.2916H88.0441L87.8867 39.9477L87.9129 39.9425Z" fill="white"/>
<path d="M93.0154 39.9426H91V39.8691C91.2782 39.8691 91.3255 39.7904 91.3255 39.507V37.9324C91.3255 37.6437 91.2939 37.5912 91 37.5702V37.502H92.0497V37.5702C91.7401 37.5702 91.6981 37.6384 91.6981 37.9219V39.6486C91.6981 39.7851 91.7662 39.8114 92.0338 39.8114H92.3962C92.5948 39.8069 92.7836 39.7238 92.9211 39.5804C92.9836 39.4956 93.0363 39.4041 93.0784 39.3075H93.1779L93.0051 39.9426H93.0154Z" fill="white"/>
<path d="M96.7703 37.5597C96.4502 37.5597 96.4131 37.6804 96.4131 38.032V38.9558C96.4155 39.0013 96.4155 39.0468 96.4131 39.0923C96.415 39.3158 96.3388 39.5329 96.1978 39.7063C96.0204 39.8818 95.781 39.9799 95.5315 39.9793H95.3792C95.1742 39.9777 94.9741 39.9177 94.8021 39.8061C94.7044 39.7214 94.6259 39.6166 94.5725 39.4988C94.519 39.381 94.4914 39.2531 94.492 39.1237C94.4894 39.0818 94.4894 39.0397 94.492 38.9978V37.8484C94.492 37.5964 94.4449 37.5597 94.1562 37.5334V37.4705H95.206V37.5334C94.9068 37.5334 94.8646 37.6069 94.8646 37.8851V39.0451C94.8618 39.0853 94.8618 39.1256 94.8646 39.1658C94.8652 39.3418 94.9264 39.5123 95.0379 39.6486C95.1631 39.7572 95.3236 39.8169 95.4894 39.8166H95.5525C95.651 39.8153 95.7483 39.7941 95.8385 39.7544C95.9286 39.7148 96.0098 39.6573 96.0773 39.5856C96.1766 39.4501 96.23 39.2864 96.2296 39.1185C96.2346 39.0767 96.2346 39.0344 96.2296 38.9925V38.0163C96.2296 37.6279 96.1824 37.5492 95.8779 37.5282V37.46H96.7493V37.5597H96.7703Z" fill="white"/>
<path d="M99.3072 39.9422V39.8687H99.4066C99.5221 39.8687 99.5907 39.8267 99.5907 39.7585C99.5526 39.6247 99.4882 39.4998 99.4015 39.3911L99.0448 38.8662L98.5983 39.4226C98.4566 39.5958 98.3938 39.6955 98.3938 39.7532C98.3938 39.811 98.4619 39.8582 98.6824 39.874V39.9422H97.8008V39.874C97.995 39.874 98.058 39.8109 98.3256 39.4488L98.9136 38.7245L98.504 38.1524C98.1419 37.6275 98.0634 37.5803 97.8167 37.554V37.4858H98.9499V37.554H98.8346C98.7349 37.554 98.6665 37.5541 98.6665 37.6643C98.7365 37.8568 98.8419 38.0348 98.9766 38.1892L99.1391 38.4253L99.5645 37.9005C99.6747 37.7587 99.7162 37.701 99.7162 37.6538C99.7162 37.6065 99.6641 37.5383 99.4594 37.5331V37.4648H100.346V37.5331C100.105 37.5331 100.015 37.6118 99.7793 37.9005L99.2544 38.5565L99.9787 39.6063C100.126 39.8057 100.194 39.8582 100.393 39.8845V39.9527H99.3072V39.9422Z" fill="white"/>
<path d="M104.063 37.5597C103.748 37.5597 103.711 37.6804 103.711 38.032V38.9558C103.714 38.9995 103.714 39.0433 103.711 39.087C103.71 39.3116 103.634 39.5293 103.496 39.7063C103.316 39.8811 103.075 39.979 102.824 39.9793H102.672C102.469 39.9782 102.27 39.918 102.1 39.8061C102.001 39.7206 101.922 39.615 101.868 39.4964C101.814 39.3778 101.785 39.2489 101.785 39.1185C101.783 39.0783 101.783 39.038 101.785 38.9978V37.8484C101.785 37.5964 101.743 37.5597 101.449 37.5334V37.4705H102.499V37.5334C102.2 37.5334 102.158 37.6069 102.158 37.8851V39.0451C102.155 39.0853 102.155 39.1256 102.158 39.1658C102.158 39.3418 102.219 39.5123 102.331 39.6486C102.454 39.7572 102.613 39.817 102.777 39.8166H102.835C102.933 39.815 103.03 39.7937 103.12 39.754C103.21 39.7143 103.292 39.6571 103.36 39.5856C103.459 39.4501 103.512 39.2864 103.512 39.1185C103.514 39.0765 103.514 39.0345 103.512 38.9925V38.0163C103.512 37.6279 103.465 37.5492 103.155 37.5282V37.46H104.032V37.5597H104.063Z" fill="white"/>
<path d="M106.925 39.9424L106.028 38.7981H105.829V39.5172C105.829 39.8006 105.876 39.8479 106.159 39.8636V39.9318H105.109V39.8689C105.393 39.8689 105.43 39.8059 105.43 39.4752V37.9006C105.43 37.6224 105.398 37.5804 105.109 37.5542V37.4912H106.238C106.491 37.4925 106.737 37.5693 106.946 37.7117C107.004 37.7678 107.05 37.8346 107.081 37.9085C107.113 37.9824 107.129 38.0617 107.13 38.142C107.13 38.4622 106.925 38.6669 106.443 38.7509L107.198 39.6852C107.237 39.74 107.288 39.7848 107.347 39.8158C107.407 39.8469 107.472 39.8632 107.539 39.8636V39.9318H106.909L106.925 39.9424ZM105.823 38.6722H105.928C106.121 38.6711 106.311 38.6262 106.485 38.5409C106.548 38.5003 106.599 38.4443 106.635 38.3783C106.671 38.3122 106.69 38.2382 106.689 38.1631V38.1158C106.689 37.7852 106.469 37.591 105.997 37.591C105.876 37.591 105.813 37.5909 105.813 37.7484V38.6564L105.823 38.6722Z" fill="white"/>
<path d="M110.924 37.5597C110.703 37.5597 110.614 37.6542 110.399 37.9639L109.842 38.8141V39.5227C109.842 39.8114 109.916 39.8481 110.225 39.8691V39.9321H109.076V39.8691C109.412 39.8691 109.459 39.8114 109.459 39.4807V38.8457L108.966 38.1318C108.624 37.6069 108.541 37.5544 108.352 37.5492V37.481H109.401V37.5492H109.312C109.191 37.5492 109.134 37.586 109.134 37.6489C109.14 37.7103 109.163 37.7686 109.202 37.8169L109.727 38.641L110.252 37.8169C110.283 37.7723 110.299 37.7191 110.299 37.6647C110.299 37.5807 110.247 37.5492 110.047 37.5439V37.481H110.866L110.929 37.5597H110.924Z" fill="white"/>
<path d="M117.32 37.5593C117.115 37.5961 117.078 37.6276 117.005 37.8165C116.596 38.9082 116.559 39.0184 116.239 39.9842H116.186C115.987 39.4593 115.772 38.9345 115.583 38.4411L115 39.9842H114.953C114.722 39.3176 114.428 38.6248 114.233 38.0055C114.108 37.6485 114.029 37.5593 113.84 37.5593V37.4911H114.758V37.5593C114.564 37.5593 114.523 37.5961 114.523 37.6748C114.523 37.7349 114.537 37.7942 114.564 37.848L115.089 39.2442L115.477 38.1945L115.372 37.911C115.246 37.5856 115.2 37.5593 114.984 37.5541V37.4858H116.002V37.5541C115.813 37.5541 115.714 37.6066 115.714 37.6853C115.726 37.7599 115.749 37.8324 115.782 37.9005L116.307 39.2546L116.785 37.995C116.82 37.9045 116.842 37.8088 116.848 37.7116C116.848 37.6066 116.779 37.5593 116.585 37.5541V37.4858H117.336V37.5384L117.32 37.5593Z" fill="white"/>
<path d="M120.355 39.9425H118.34V39.869C118.634 39.869 118.67 39.8007 118.67 39.512V37.9374C118.67 37.6645 118.629 37.6068 118.34 37.5911V37.5176H120.334V38.0424H120.245C120.182 37.7013 120.104 37.6488 119.668 37.6488H119.174C119.064 37.6488 119.038 37.6488 119.038 37.7853V38.5935H119.61C119.935 38.5935 119.993 38.5253 120.035 38.2314H120.125V39.1027H120.046C120.004 38.793 119.946 38.7405 119.621 38.7405H119.048V39.6485C119.048 39.8007 119.153 39.8165 119.432 39.8165H119.568C120.093 39.8165 120.271 39.722 120.434 39.2916H120.539L120.366 39.9477L120.355 39.9425Z" fill="white"/>
<path d="M122.595 37.4912H122.706C123.072 37.4908 123.427 37.6107 123.718 37.8324C123.837 37.9347 123.932 38.0612 123.997 38.2034C124.062 38.3455 124.096 38.5 124.096 38.6564V38.7876C124.096 38.9774 124.048 39.1641 123.956 39.3302C123.864 39.4964 123.732 39.6365 123.571 39.7376C123.3 39.8944 122.992 39.9759 122.679 39.9738H121.582V39.9056C121.876 39.9056 121.908 39.8374 121.908 39.5487V37.9321C121.908 37.6382 121.86 37.6015 121.582 37.5857V37.5122H122.595V37.4912ZM122.296 39.638C122.296 39.7639 122.327 39.8111 122.474 39.8111H122.579C122.834 39.8104 123.084 39.7376 123.299 39.6012C123.419 39.5094 123.517 39.3911 123.584 39.2555C123.651 39.1198 123.687 38.9706 123.687 38.8191C123.69 38.7842 123.69 38.7491 123.687 38.7142V38.646C123.688 38.4982 123.657 38.3521 123.595 38.2178C123.533 38.0836 123.443 37.9645 123.33 37.8691C123.126 37.7001 122.87 37.6074 122.606 37.6067H122.501C122.354 37.6067 122.291 37.6382 122.291 37.7642V39.6274L122.296 39.638Z" fill="white"/>
<path d="M126.246 37.4912H126.356C126.723 37.4916 127.081 37.6113 127.374 37.8324C127.492 37.9316 127.586 38.0554 127.651 38.1951C127.715 38.3348 127.748 38.4869 127.747 38.6407C127.75 38.6634 127.75 38.6863 127.747 38.7089C127.75 38.7351 127.75 38.7614 127.747 38.7876C127.746 38.9772 127.697 39.1636 127.606 39.3295C127.514 39.4955 127.382 39.6358 127.222 39.7376C126.949 39.8939 126.639 39.9754 126.325 39.9738H125.223V39.9056C125.522 39.9056 125.553 39.8374 125.553 39.5487V37.9321C125.553 37.6382 125.511 37.6015 125.223 37.5857V37.5122H126.246V37.4912ZM125.947 39.638C125.947 39.7639 125.973 39.8111 126.12 39.8111H126.22C126.476 39.8112 126.727 39.7383 126.944 39.6012C127.066 39.5104 127.166 39.3927 127.235 39.257C127.305 39.1213 127.342 38.9714 127.343 38.8191C127.346 38.7842 127.346 38.7491 127.343 38.7142V38.6512C127.342 38.5026 127.308 38.3561 127.246 38.2213C127.183 38.0865 127.093 37.9664 126.981 37.8691C126.777 37.7001 126.521 37.6074 126.256 37.6067H126.146C125.999 37.6067 125.947 37.6382 125.947 37.7589V39.6274V39.638Z" fill="white"/>
<path d="M128.887 39.9423V39.8688C129.202 39.8688 129.254 39.8111 129.254 39.5171V37.9425C129.254 37.6486 129.207 37.6172 128.887 37.6014V37.5332H130.021V37.6014C129.706 37.6014 129.653 37.6591 129.653 37.9425V39.5697C129.653 39.8531 129.716 39.9056 130.021 39.9213V39.9843H128.897L128.887 39.9423Z" fill="white"/>
<path d="M133.659 37.5593C133.518 37.5593 133.454 37.5593 133.412 37.6275C133.325 37.7551 133.286 37.9095 133.302 38.0632V39.9842H133.255L131.596 37.9267V39.3439C131.596 39.727 131.665 39.79 131.948 39.8687V39.9317H131.066V39.8687C131.376 39.832 131.434 39.7742 131.434 39.3439V37.7168C131.308 37.5593 131.25 37.5121 131.066 37.5121V37.4438H131.68L133.135 39.2337V37.974C133.137 37.9495 133.137 37.9249 133.135 37.9005C133.137 37.7977 133.111 37.696 133.061 37.6065C132.998 37.5383 132.93 37.5278 132.762 37.5121V37.4438H133.649V37.5384L133.659 37.5593Z" fill="white"/>
<path d="M137.286 38.6982C137.065 38.6982 137.018 38.7559 137.018 38.9921V39.7374C136.759 39.9073 136.456 39.9985 136.147 39.9998H136.026C135.651 40.0017 135.291 39.8588 135.019 39.6009C134.819 39.3812 134.709 39.0948 134.709 38.7979C134.706 38.7752 134.706 38.7523 134.709 38.7296C134.706 38.7 134.706 38.6701 134.709 38.6405C134.711 38.3266 134.833 38.0254 135.049 37.7982C135.266 37.571 135.561 37.4348 135.874 37.4175H136.042C136.208 37.4189 136.373 37.4473 136.53 37.5015C136.583 37.5241 136.64 37.5366 136.698 37.5383C136.736 37.5398 136.772 37.5287 136.803 37.5068C136.833 37.4849 136.855 37.4535 136.866 37.4175H136.95L136.981 38.1995H136.919C136.863 38.0379 136.771 37.8908 136.651 37.7692C136.506 37.6394 136.32 37.5666 136.126 37.5645H136.089C135.976 37.5645 135.863 37.5873 135.759 37.6315C135.654 37.6756 135.56 37.7403 135.48 37.8216C135.292 38.0489 135.188 38.3346 135.186 38.6299C135.186 38.6614 135.186 38.6929 135.186 38.7244C135.183 38.7681 135.183 38.8119 135.186 38.8556C135.189 39.1164 135.295 39.3655 135.481 39.5485C135.667 39.7314 135.918 39.8333 136.179 39.8319C136.467 39.8319 136.703 39.7269 136.703 39.6062V39.0183C136.703 38.7297 136.666 38.7034 136.367 38.6772V38.6142H137.333V38.7034L137.286 38.6982Z" fill="white"/>
<path d="M139.933 38.2259C139.906 38.1023 139.856 37.9848 139.786 37.8794C139.725 37.7962 139.646 37.727 139.555 37.6763C139.465 37.6257 139.365 37.5947 139.261 37.5856H139.235C139.147 37.5852 139.062 37.6179 138.997 37.6772C138.932 37.7365 138.891 37.818 138.883 37.9057V37.9424C138.883 38.1944 139.156 38.3414 139.555 38.5776C139.954 38.8137 140.143 39.0237 140.143 39.3019C140.139 39.4894 140.061 39.6677 139.927 39.7983C139.792 39.9289 139.611 40.0013 139.424 39.9999H139.345C139.201 40.0011 139.058 39.9725 138.925 39.9159C138.87 39.8932 138.811 39.8808 138.752 39.8792C138.694 39.8792 138.647 39.9159 138.647 39.9999H138.563L138.453 39.2126H138.537C138.71 39.6588 138.952 39.8687 139.309 39.8687H139.351C139.451 39.8694 139.549 39.8328 139.624 39.7659C139.7 39.6991 139.748 39.6068 139.76 39.5066V39.454C139.76 39.4035 139.751 39.3535 139.732 39.3066C139.713 39.2598 139.685 39.2171 139.649 39.1811C139.462 39.0072 139.25 38.8622 139.02 38.7507C138.889 38.7001 138.776 38.6127 138.694 38.4991C138.612 38.3854 138.564 38.2504 138.558 38.1104V38.0684C138.557 37.9145 138.616 37.7663 138.722 37.6541C138.827 37.5419 138.971 37.4742 139.125 37.4648H139.235C139.363 37.4648 139.489 37.4898 139.607 37.5383C139.658 37.5643 139.714 37.5803 139.77 37.5856C139.839 37.5856 139.881 37.5383 139.897 37.4648H139.975L140.054 38.2521L139.933 38.2259Z" fill="white"/>
<path d="M78.0195 35.4758H141.119V35.2554H78.0195V35.4758Z" fill="white"/>
<path d="M111.181 28.0752C111.086 26.8366 110.131 26.0965 108.703 26.128C108.269 26.1364 107.844 26.244 107.458 26.4423C107.072 26.6406 106.737 26.9244 106.478 27.2722C106.304 26.9903 106.075 26.7464 105.804 26.5552C105.533 26.364 105.227 26.2294 104.903 26.1595C104.184 26.0178 103.371 26.2697 102.468 26.8943V26.1228H101.066V33.2504H102.479V30.1642C102.395 29.4487 102.582 28.7278 103.003 28.1435C103.155 27.9522 103.348 27.7979 103.568 27.6924C103.788 27.5869 104.029 27.5329 104.274 27.5346C104.359 27.5268 104.445 27.5268 104.531 27.5346C104.776 27.6004 104.992 27.745 105.147 27.9461C105.302 28.1472 105.386 28.3936 105.386 28.6473C105.389 28.691 105.389 28.7348 105.386 28.7785C105.418 29.3034 105.418 29.865 105.418 30.3951V33.2189H106.924V29.8965C106.924 28.6473 107.349 27.9178 108.226 27.6134C108.366 27.5568 108.516 27.5283 108.667 27.5294C108.878 27.5311 109.085 27.5852 109.27 27.6869C109.417 27.7821 109.541 27.9095 109.632 28.0596C109.723 28.2096 109.779 28.3782 109.795 28.5528C109.795 28.6945 109.795 28.8415 109.795 28.9833C109.795 29.125 109.795 29.2719 109.795 29.4189V33.2504H111.123V31.4711C111.198 30.3495 111.211 29.2245 111.16 28.1015L111.181 28.0752Z" fill="white"/>
<path d="M91.9437 26.322V26.9571C90.1697 25.8076 88.6741 25.8444 87.3409 27.062C86.7193 27.6492 86.3291 28.4401 86.2415 29.2907C86.1538 30.1412 86.3744 30.995 86.8632 31.6966C87.1535 32.1444 87.5453 32.5175 88.0067 32.7856C88.4682 33.0537 88.986 33.2093 89.5188 33.2397H89.7812C90.5769 33.2248 91.3421 32.9313 91.9437 32.4104V33.2397H93.2769V26.3115H91.9596L91.9437 26.322ZM91.9437 29.7284C91.9303 30.3221 91.6855 30.8871 91.2615 31.303C90.8636 31.6863 90.3337 31.9023 89.7812 31.9065C89.2078 31.8786 88.6662 31.6338 88.2666 31.2215C87.867 30.8092 87.6395 30.2604 87.6295 29.6864C87.6386 29.1117 87.8677 28.5626 88.2702 28.1523C88.6726 27.7421 89.2176 27.5021 89.792 27.482C90.3482 27.4801 90.8825 27.6991 91.2774 28.0908C91.6961 28.5085 91.9335 29.0741 91.9386 29.6654V29.7074L91.9437 29.7284Z" fill="white"/>
<path d="M118.998 26.322V26.9571C117.234 25.8076 115.728 25.8444 114.405 27.062C113.78 27.6467 113.387 28.4371 113.297 29.2883C113.207 30.1395 113.428 30.9946 113.917 31.6966C114.209 32.1443 114.602 32.5171 115.064 32.7851C115.526 33.0532 116.044 33.2088 116.578 33.2397H116.84C117.632 33.2223 118.394 32.9291 118.993 32.4104V33.2397H120.31V26.3115H118.998V26.322ZM118.998 29.7284C118.984 30.3221 118.739 30.8871 118.315 31.303C117.919 31.686 117.391 31.902 116.84 31.9065C116.272 31.8789 115.737 31.6337 115.345 31.2219C114.952 30.81 114.733 30.263 114.733 29.6942C114.733 29.1255 114.952 28.5785 115.345 28.1666C115.737 27.7548 116.272 27.5096 116.84 27.482C117.396 27.4801 117.931 27.6991 118.326 28.0908C118.746 28.5079 118.985 29.0734 118.993 29.6654V29.7074L118.998 29.7284Z" fill="white"/>
<path d="M134.773 26.322V26.9571C132.999 25.8076 131.498 25.8444 130.17 27.062C129.813 27.3992 129.529 27.8062 129.336 28.2576C129.143 28.709 129.044 29.1953 129.047 29.6864C129.046 30.4149 129.269 31.1262 129.687 31.7228C129.979 32.1708 130.371 32.5438 130.834 32.8119C131.296 33.08 131.815 33.2355 132.348 33.266H132.605C133.398 33.2459 134.16 32.953 134.763 32.4366V33.266H136.075V26.3377H134.773V26.322ZM134.773 29.7284C134.762 30.3226 134.516 30.8884 134.091 31.303C133.693 31.6863 133.163 31.9023 132.611 31.9065C132.311 31.9211 132.011 31.8747 131.73 31.7701C131.449 31.6655 131.192 31.505 130.975 31.2981C130.758 31.0912 130.585 30.8424 130.467 30.5667C130.349 30.291 130.288 29.9942 130.288 29.6942C130.288 29.3943 130.349 29.0975 130.467 28.8218C130.585 28.5461 130.758 28.2972 130.975 28.0904C131.192 27.8835 131.449 27.723 131.73 27.6184C132.011 27.5138 132.311 27.4674 132.611 27.482C133.167 27.4801 133.701 27.6991 134.096 28.0908C134.516 28.5075 134.754 29.0737 134.757 29.6654C134.76 29.6846 134.76 29.704 134.757 29.7231L134.773 29.7284Z" fill="white"/>
<path d="M125.695 33.2552H127.013V21.1309H125.695V33.2552Z" fill="white"/>
<path d="M122.336 33.2552H123.658V21.1309H122.336V33.2552Z" fill="white"/>
<path d="M138.532 22.9995L138.627 23.1097C138.481 23.1893 138.359 23.3061 138.274 23.4481C138.188 23.5901 138.141 23.7522 138.138 23.918V23.9757C138.138 24.1284 138.169 24.2795 138.229 24.4202C138.288 24.5608 138.375 24.6881 138.485 24.7945H138.217V25.3194H141.104V24.7945H139.503C139.327 24.7964 139.154 24.7426 139.01 24.6408C138.866 24.5391 138.757 24.3945 138.7 24.2276C138.675 24.1697 138.662 24.1071 138.663 24.0439C138.665 23.9428 138.696 23.8445 138.752 23.7606C138.79 23.7031 138.84 23.6551 138.899 23.6204C138.959 23.5858 139.025 23.5655 139.094 23.5611C139.403 23.5296 139.729 23.5243 140.043 23.5191H141.093V22.9522H139.382C139.228 22.9453 139.08 22.8912 138.958 22.7973C138.836 22.7034 138.746 22.5743 138.7 22.4274C138.665 22.3554 138.647 22.2764 138.648 22.1964C138.648 22.0958 138.677 21.9975 138.731 21.913C138.774 21.8439 138.833 21.7868 138.904 21.7473C138.975 21.7077 139.055 21.6871 139.136 21.6873H141.109V21.1624H140.395C140.169 21.1624 139.939 21.1362 139.708 21.1362C139.477 21.1362 139.251 21.1362 139.025 21.1624C138.871 21.1687 138.72 21.2113 138.585 21.2871C138.45 21.3628 138.334 21.4693 138.248 21.598C138.161 21.7478 138.116 21.9182 138.117 22.0915C138.116 22.2289 138.145 22.365 138.201 22.4904C138.29 22.6681 138.403 22.8324 138.538 22.9784L138.532 22.9995Z" fill="white"/>
<path d="M139.628 25.8394C139.438 25.838 139.248 25.8742 139.071 25.946C138.894 26.0178 138.734 26.1237 138.598 26.2578C138.462 26.3918 138.353 26.5513 138.279 26.7272C138.205 26.903 138.165 27.0918 138.164 27.2828V27.3195C138.167 27.6922 138.316 28.049 138.579 28.313C138.842 28.5771 139.198 28.7273 139.571 28.7314H139.686C139.878 28.7335 140.068 28.6977 140.245 28.6263C140.423 28.5548 140.584 28.449 140.721 28.3149C140.857 28.1808 140.966 28.021 141.041 27.8448C141.116 27.6686 141.155 27.4794 141.156 27.288C141.156 26.9106 141.007 26.5485 140.741 26.2803C140.462 26.0026 140.085 25.8445 139.692 25.8394H139.628ZM139.628 28.217C139.384 28.2032 139.153 28.1043 138.973 27.9375C138.794 27.7707 138.679 27.5466 138.647 27.3038C138.648 27.0674 138.742 26.8408 138.91 26.6739C139.101 26.4837 139.359 26.3747 139.628 26.3695C139.754 26.3698 139.879 26.3949 139.995 26.4436C140.112 26.4922 140.217 26.5633 140.306 26.6529C140.462 26.8211 140.548 27.0426 140.547 27.2723C140.544 27.5173 140.446 27.7514 140.272 27.9242C140.098 28.097 139.863 28.1947 139.618 28.196L139.628 28.217Z" fill="white"/>
<path d="M140.39 29.125L140.127 29.5186L140.164 29.5711C140.689 30.1642 140.752 30.7363 140.301 31.1877C140.108 31.3708 139.853 31.474 139.587 31.4764C139.367 31.476 139.156 31.3893 138.999 31.235C138.832 31.0455 138.716 30.8159 138.663 30.5684C138.658 30.516 138.658 30.4633 138.663 30.4109C138.665 30.2506 138.705 30.093 138.777 29.9502C138.85 29.8073 138.955 29.6831 139.083 29.5869L139.146 29.5396L139.109 29.4766L138.931 29.2142L138.889 29.1355L138.81 29.1775C138.539 29.3604 138.334 29.6249 138.223 29.9325C138.113 30.2402 138.103 30.5751 138.196 30.8885C138.274 31.1947 138.447 31.4677 138.692 31.6672C138.937 31.8667 139.24 31.982 139.555 31.996H139.671C139.967 31.9985 140.258 31.909 140.501 31.7398C140.745 31.5706 140.93 31.33 141.031 31.0512C141.104 30.8657 141.141 30.668 141.141 30.4686C141.141 30.2192 141.083 29.9731 140.973 29.7493C140.863 29.5255 140.703 29.3299 140.506 29.1775L140.406 29.125H140.39Z" fill="white"/>
<path d="M140.72 32.4525C140.618 32.4525 140.52 32.4927 140.447 32.5645C140.375 32.6362 140.333 32.7336 140.332 32.8357V32.8934C140.333 32.989 140.372 33.0804 140.439 33.148C140.507 33.2156 140.598 33.2542 140.694 33.2556H140.762C140.854 33.255 140.942 33.2211 141.011 33.1603C141.079 33.0995 141.123 33.0158 141.135 32.9249C141.135 32.9249 141.135 32.9249 141.135 32.8881C141.135 32.8514 141.135 32.8882 141.135 32.8514C141.135 32.6887 141.088 32.484 140.747 32.4473L140.72 32.4525Z" fill="white"/>
<path d="M78.0312 21.1626L82.0518 33.2502H82.6238L86.6495 21.1626H84.9278L82.2404 29.277L79.7473 21.1626H78.0312Z" fill="white"/>
<path d="M96.7268 28.9568C96.7275 28.7571 96.7675 28.5596 96.8447 28.3755C96.9219 28.1914 97.0344 28.0243 97.1763 27.8839C97.3182 27.7434 97.4865 27.6324 97.6714 27.5571C97.8563 27.4818 98.0546 27.4438 98.2542 27.4452H99.0518V26.1226H97.7237C97.7237 26.1226 96.963 26.1225 96.7688 26.6894V26.1226H95.3516V33.2502H96.7688V29.0985V28.9568H96.7268Z" fill="white"/>
</g>
<defs>
<clipPath id="clip0_8105_6128">
<rect width="220" height="40" fill="white"/>
</clipPath>
</defs>
</svg>
