<svg width="220" height="40" viewBox="0 0 220 40" fill="none" xmlns="http://www.w3.org/2000/svg">
<path d="M90.2363 0.0137255H101.595C101.91 0.0137255 102.031 0.0673766 102.011 0.409549C102.011 0.999963 102.011 1.59711 102.011 2.19423C102.011 2.49615 101.91 2.55655 101.642 2.54984C100.972 2.49433 100.299 2.49433 99.6293 2.54984C99.239 2.57617 98.8621 2.70326 98.5356 2.9188C98.414 2.98992 98.3089 3.08599 98.227 3.20062C98.1451 3.31526 98.0883 3.44589 98.0604 3.584C98.0325 3.7221 98.0341 3.8645 98.0652 4.00193C98.0962 4.13936 98.1559 4.26873 98.2404 4.38146C100.797 7.73608 103.36 11.0907 105.849 14.4453C106.05 14.7256 106.274 14.9881 106.52 15.2303C106.842 15.5792 107.103 15.5792 107.385 15.2303C107.855 14.5593 108.304 13.9555 108.767 13.3114C110.74 10.5204 112.699 7.72935 114.685 4.94501C114.874 4.73653 114.996 4.4757 115.034 4.19669C115.073 3.91768 115.026 3.63359 114.9 3.38178C114.762 3.11947 114.555 2.89924 114.303 2.74452C114.05 2.5898 113.76 2.5063 113.464 2.50283C113.054 2.49566 112.643 2.51589 112.236 2.56327C111.726 2.56327 111.625 2.4894 111.639 1.98621C111.652 1.48301 111.686 1.16099 111.686 0.751727C111.686 0.590705 111.74 0.523635 111.901 0.523635C112.209 0.523635 112.571 0.523635 112.853 0.523635C116.007 0.523635 119.167 0.523606 122.32 0.57728C122.555 0.57728 122.635 0.644415 122.622 0.87253C122.622 1.46294 122.622 2.03993 122.622 2.62364C122.622 2.84504 122.555 2.95912 122.327 2.97925C122.286 2.97925 122.239 2.97925 122.192 2.97925C121.685 2.98235 121.186 3.11292 120.741 3.3591C120.297 3.60528 119.922 3.95916 119.65 4.38817C118.221 6.15942 116.966 8.0581 115.624 9.88301C112.565 14.036 109.586 18.2495 106.547 22.4361C106.452 22.5799 106.321 22.6956 106.166 22.7711C106.011 22.8467 105.839 22.8792 105.668 22.8654C103.561 22.8654 101.448 22.8654 99.3408 22.899C99.1546 22.9154 98.9672 22.8846 98.796 22.8095C98.6249 22.7345 98.4753 22.6176 98.3611 22.4696C93.5909 16.4849 88.6731 10.6277 83.8558 4.67662C83.6344 4.40154 83.3862 4.16008 83.1849 3.90513C82.6385 3.30069 81.9673 2.82205 81.2178 2.50234C80.4684 2.18263 79.6585 2.02946 78.844 2.05337C78.5622 2.05337 78.4683 1.9594 78.4817 1.68432C78.5085 1.25983 78.5085 0.834046 78.4817 0.409549C78.4817 0.100923 78.5421 -0.00641542 78.8776 0.000293838C82.684 0.000293838 86.4859 0.000293838 90.2833 0.000293838L90.2363 0.0137255Z" fill="white"/>
<path d="M120.992 22.8252C120.409 22.8252 119.838 22.8252 119.248 22.8252C119.171 22.83 119.094 22.813 119.027 22.7762C118.959 22.7394 118.903 22.6843 118.865 22.6172C117.349 20.2555 115.799 17.9207 114.169 15.6262C113.927 15.2773 113.927 15.1498 114.243 14.7137C115.169 13.4725 116.101 12.2447 117.027 11.0169C117.477 10.4198 117.933 9.84276 118.369 9.23222C118.53 9.01082 118.604 8.99069 118.772 9.23222C120.281 11.4731 121.791 13.6872 123.307 15.9415C123.367 16.0287 123.421 16.1025 123.475 16.1964C123.83 16.646 124.146 16.646 124.461 16.1964C125.682 14.0718 126.901 11.945 128.117 9.81592C128.338 9.40295 128.453 8.94211 128.453 8.47407C128.466 8.35072 128.431 8.22701 128.355 8.12927C128.278 8.03154 128.167 7.96748 128.044 7.95073C127.274 7.74717 126.488 7.61025 125.695 7.54148C124.917 7.45426 124.917 7.46768 124.91 6.70282C124.91 6.42103 124.91 6.13253 124.91 5.85745C124.91 5.58237 124.964 5.62936 125.145 5.63607C125.649 5.63607 126.145 5.63607 126.655 5.63607C126.715 5.63607 126.775 5.65144 126.828 5.68079C126.88 5.71014 126.925 5.75249 126.957 5.8038C127.332 6.29742 127.817 6.69754 128.373 6.97301C128.928 7.24847 129.54 7.39185 130.16 7.39185C130.781 7.39185 131.393 7.24847 131.948 6.97301C132.504 6.69754 132.989 6.29742 133.364 5.8038C133.399 5.753 133.446 5.7121 133.501 5.68505C133.557 5.658 133.618 5.64574 133.679 5.6495C134.048 5.6495 134.431 5.6495 134.8 5.6495C135.001 5.6495 135.048 5.7166 135.048 5.90446C135.048 6.42778 135.048 6.93764 135.048 7.45425C135.048 7.68908 134.961 7.73608 134.76 7.74279C134.089 7.74279 133.418 7.84338 132.707 7.86351C132.596 7.86375 132.488 7.89387 132.394 7.95057C132.299 8.00727 132.222 8.08842 132.17 8.18554C131.338 9.52739 130.506 10.9095 129.661 12.2648C127.608 15.5524 125.528 18.813 123.562 22.1475C123.455 22.4162 123.258 22.6394 123.005 22.7789C122.751 22.9184 122.457 22.9656 122.173 22.9124C121.776 22.8789 121.376 22.8789 120.979 22.9124L120.992 22.8252Z" fill="white"/>
<path d="M104.675 33.0837C104.407 33.9022 104.145 34.667 103.904 35.4319C103.521 36.5926 103.126 37.7466 102.75 38.9207C102.689 39.1085 102.609 39.1891 102.408 39.1756C101.594 39.1756 100.782 39.1756 99.9723 39.1756C99.8956 39.1848 99.8183 39.1662 99.7543 39.1231C99.6902 39.08 99.6438 39.0153 99.6234 38.9408C98.2189 35.4207 96.8122 31.8983 95.4032 28.3738C95.3026 28.1054 95.3362 28.0651 95.618 28.0651C96.8324 28.0651 98.0601 28.0651 99.2745 28.0651C99.5563 28.0651 99.6703 28.1389 99.7374 28.4072C100.241 30.2926 100.764 32.1779 101.281 34.0565C101.281 34.1437 101.281 34.2712 101.415 34.345C101.71 33.3923 101.992 32.4664 102.274 31.5204C102.596 30.4469 102.944 29.3734 103.24 28.3C103.293 28.0853 103.381 28.0181 103.609 28.0181C104.32 28.045 105.024 28.045 105.722 28.0181C105.767 28.0095 105.814 28.0103 105.858 28.0204C105.903 28.0304 105.945 28.0495 105.983 28.0765C106.02 28.1036 106.051 28.1379 106.074 28.1775C106.097 28.2171 106.112 28.2611 106.118 28.3067C106.695 30.2457 107.285 32.1779 107.876 34.1101C107.876 34.1906 107.916 34.2578 107.976 34.4322C108.131 33.8619 108.265 33.3721 108.406 32.8824C108.822 31.3661 109.238 29.8565 109.64 28.3402C109.687 28.1657 109.754 28.0651 109.976 28.0651C111.237 28.0651 112.512 28.0651 113.773 28.0651C114.008 28.0651 114.062 28.0651 113.961 28.3402C112.548 31.8648 111.141 35.3871 109.741 38.9072C109.717 38.9978 109.661 39.0765 109.583 39.1285C109.505 39.1804 109.411 39.202 109.318 39.1891C108.574 39.1891 107.829 39.1891 107.097 39.1891C107.036 39.2005 106.974 39.1995 106.913 39.1859C106.853 39.1723 106.796 39.1465 106.745 39.11C106.695 39.0736 106.653 39.0273 106.621 38.974C106.589 38.9207 106.569 38.8614 106.561 38.7999C105.97 36.9683 105.366 35.1568 104.769 33.3252C104.752 33.2398 104.721 33.1581 104.675 33.0837Z" fill="white"/>
<path d="M140.779 39.0883C139.598 39.0883 138.484 39.0883 137.371 39.0883C137.169 39.0883 137.102 38.9676 137.008 38.8334C136.409 37.8807 135.816 36.9257 135.23 35.9685C135.181 35.8639 135.1 35.7774 134.999 35.7208C134.898 35.6643 134.782 35.6407 134.667 35.6532C133.902 35.6532 133.895 35.6532 133.895 36.4315V38.8267C133.895 39.0212 133.848 39.1018 133.633 39.1018C132.748 39.1018 131.855 39.1018 130.95 39.1018C130.755 39.1018 130.668 39.1018 130.668 38.8468C130.668 35.3267 130.668 31.8043 130.668 28.2797C130.668 28.0986 130.708 28.0449 130.903 28.0449C132.681 28.0449 134.459 28.0449 136.237 28.0449C136.929 28.0511 137.613 28.1948 138.249 28.4676C138.84 28.6719 139.358 29.043 139.742 29.5361C140.125 30.0291 140.357 30.6229 140.41 31.2452C140.531 31.9217 140.442 32.6191 140.154 33.243C139.866 33.867 139.393 34.3875 138.799 34.734C138.688 34.813 138.569 34.8805 138.444 34.9353C138.189 35.0159 138.249 35.1231 138.35 35.2909C139.095 36.4314 139.826 37.5854 140.557 38.726C140.641 38.8265 140.715 38.9343 140.779 39.048V39.0883ZM134.922 33.3989C135.239 33.4157 135.557 33.4157 135.874 33.3989C136.057 33.3992 136.238 33.3621 136.405 33.2901C136.573 33.2181 136.725 33.1127 136.85 32.9801C136.976 32.8476 137.073 32.6909 137.136 32.5195C137.199 32.348 137.226 32.1656 137.216 31.9833C137.225 31.8015 137.197 31.6197 137.134 31.4491C137.071 31.2785 136.973 31.1225 136.848 30.9907C136.722 30.8589 136.571 30.754 136.404 30.6824C136.236 30.6108 136.056 30.5741 135.874 30.5743C135.291 30.5072 134.693 30.5743 134.096 30.5743C133.929 30.5743 133.882 30.6414 133.882 30.7957C133.882 31.6142 133.882 32.4395 133.882 33.2446C133.882 33.419 133.942 33.4794 134.116 33.466C134.398 33.466 134.66 33.466 134.922 33.466V33.3989Z" fill="white"/>
<path d="M151.29 33.56V28.3536C151.29 28.1188 151.337 28.0585 151.585 28.0585H155.61C156.715 28.0478 157.809 28.2767 158.817 28.7294C159.63 29.0857 160.326 29.661 160.83 30.391C161.333 31.1209 161.624 31.9766 161.669 32.8622C161.807 33.9494 161.637 35.0535 161.179 36.0491C160.796 36.8111 160.235 37.4698 159.544 37.9695C158.852 38.4693 158.051 38.7955 157.207 38.9207C156.571 39.0481 155.924 39.1088 155.275 39.1019C154.067 39.1019 152.853 39.1019 151.652 39.1019C151.357 39.1019 151.27 39.0482 151.27 38.7395C151.303 37.0086 151.27 35.2776 151.27 33.5533L151.29 33.56ZM154.51 33.56V36.3175C154.51 36.5054 154.55 36.5859 154.752 36.5725C155.06 36.5725 155.376 36.5725 155.678 36.5725C156.355 36.613 157.02 36.385 157.53 35.9378C158.04 35.4907 158.353 34.8605 158.401 34.1839C158.458 33.7263 158.447 33.2629 158.368 32.8086C158.292 32.2431 158.024 31.7209 157.609 31.3299C157.193 30.9389 156.656 30.7028 156.087 30.6616C155.657 30.6012 155.215 30.628 154.792 30.6012C154.55 30.6012 154.51 30.6818 154.51 30.8897C154.51 31.7754 154.51 32.6744 154.51 33.5734V33.56Z" fill="white"/>
<path d="M96.6857 39.1754H93.5257C93.3714 39.1754 93.3513 39.0881 93.2977 38.9741C93.1232 38.4642 92.9152 37.9677 92.7475 37.4578C92.6804 37.2565 92.6065 37.1693 92.365 37.1828H89.0104C88.7957 37.1828 88.7084 37.2499 88.6548 37.4377C88.487 37.9476 88.2926 38.4575 88.1114 38.9674C88.1014 39.0332 88.0667 39.0928 88.0143 39.134C87.9619 39.1751 87.8959 39.1947 87.8295 39.1888C86.8164 39.1888 85.8167 39.1888 84.7902 39.1888C84.7231 39.0748 84.7903 39.0077 84.8305 38.9339C86.2126 35.4182 87.6081 31.9092 88.9835 28.4003C89.0077 28.2929 89.0717 28.1986 89.1625 28.1364C89.2534 28.0742 89.3644 28.0486 89.4733 28.0648C90.3522 28.0648 91.2312 28.0648 92.1101 28.0648C92.192 28.0558 92.2744 28.0766 92.3422 28.1235C92.41 28.1703 92.4587 28.24 92.4792 28.3198C93.8747 31.8623 95.2902 35.3981 96.6857 38.9339C96.6857 39.001 96.7662 39.0748 96.6857 39.1754ZM90.681 31.6878C90.2851 32.7747 89.9363 33.761 89.574 34.7473C89.5203 34.8882 89.574 34.9217 89.7082 34.9217H91.6271C91.768 34.9217 91.8417 34.9217 91.7679 34.7339C91.4258 33.7476 91.0969 32.7747 90.681 31.6878Z" fill="white"/>
<path d="M79.6518 27.9643C81.1939 27.915 82.7161 28.3235 84.0263 29.1384C84.2208 29.2592 84.261 29.3397 84.1067 29.541C83.6773 30.0576 83.2748 30.601 82.8656 31.1445C82.7113 31.3525 82.6106 31.3995 82.3624 31.2452C81.5828 30.7179 80.6667 30.4288 79.7257 30.4131C79.4951 30.4107 79.2666 30.4565 79.0548 30.5474C78.9452 30.5935 78.8499 30.668 78.7786 30.7631C78.7073 30.8582 78.6625 30.9705 78.6489 31.0886C78.6352 31.2066 78.6532 31.3262 78.7009 31.4351C78.7487 31.5439 78.8243 31.6381 78.9204 31.7081C79.4425 32.0337 80.0133 32.2739 80.6112 32.4193C81.2907 32.6059 81.9528 32.8505 82.5904 33.1506C83.325 33.4597 83.9183 34.0314 84.2544 34.7541C84.5257 35.4662 84.5282 36.2527 84.2615 36.9664C83.9947 37.6802 83.4769 38.2723 82.8051 38.632C81.6537 39.2361 80.3442 39.4704 79.0548 39.3029C77.6122 39.196 76.2235 38.7099 75.0292 37.894C74.8078 37.7397 74.8145 37.6524 74.9822 37.4646C75.4451 36.9278 75.8879 36.3978 76.324 35.841C76.4582 35.68 76.5521 35.6531 76.7332 35.7872C77.6614 36.4793 78.7827 36.864 79.9403 36.8876C80.2003 36.8899 80.4583 36.8397 80.6985 36.74C80.8317 36.703 80.9502 36.6258 81.0379 36.5189C81.1255 36.4121 81.1781 36.2807 81.1882 36.1429C81.2019 36.006 81.1732 35.8683 81.106 35.7483C81.0388 35.6283 80.9363 35.5318 80.8125 35.4719C80.3219 35.2077 79.8016 35.0028 79.2626 34.8614C78.499 34.6431 77.7579 34.3534 77.0487 33.9959C76.5504 33.7882 76.1236 33.4393 75.8208 32.9923C75.5181 32.5454 75.3526 32.0197 75.3445 31.48C75.3175 30.8973 75.4578 30.319 75.7491 29.8137C76.0404 29.3084 76.4705 28.8971 76.9882 28.6285C77.8124 28.1833 78.7353 27.9525 79.672 27.9576L79.6518 27.9643Z" fill="white"/>
<path d="M63.8024 34.8749C64.2653 33.4727 64.735 32.0772 65.1979 30.6682C65.4462 29.9168 65.7079 29.1586 65.9427 28.4005C65.95 28.3577 65.9657 28.3167 65.9889 28.28C66.0121 28.2433 66.0423 28.2115 66.0779 28.1866C66.1134 28.1616 66.1537 28.144 66.1961 28.1346C66.2386 28.1253 66.2823 28.1245 66.325 28.1322H69.1632C69.3779 28.1322 69.465 28.1321 69.3644 28.4005C68.0225 31.9296 66.6807 35.4654 65.3388 39.0079C65.3316 39.0463 65.3169 39.0829 65.2954 39.1156C65.2739 39.1483 65.246 39.1764 65.2135 39.1983C65.181 39.2201 65.1446 39.2353 65.1062 39.2429C65.0678 39.2505 65.0283 39.2504 64.9899 39.2427C64.1513 39.2427 63.3059 39.2427 62.4605 39.2427C62.1989 39.2427 62.1117 39.142 62.0312 38.9341C61.0114 36.1497 59.9514 33.372 58.8913 30.5877C58.6229 29.8698 58.3546 29.1385 58.0594 28.4206C57.9789 28.2126 57.9923 28.1322 58.2472 28.1322H61.1858C61.2264 28.1265 61.2678 28.129 61.3074 28.1395C61.347 28.15 61.384 28.1682 61.4164 28.1932C61.4489 28.2182 61.4763 28.2494 61.4965 28.285C61.5168 28.3206 61.5298 28.3598 61.5347 28.4005C62.2146 30.449 62.899 32.4909 63.5878 34.526C63.628 34.6468 63.675 34.7676 63.7085 34.8884H63.8091L63.8024 34.8749Z" fill="white"/>
<path d="M125.773 27.1591C125.806 27.2866 125.826 27.4141 125.873 27.6087L124.659 26.8102C124.657 26.7879 124.657 26.7655 124.659 26.7432H126.766L125.954 26.9378C126.37 27.0787 126.732 27.1994 127.081 27.3336C127.456 27.4651 127.809 27.653 128.128 27.8905C128.478 28.1136 128.731 28.4616 128.834 28.864C128.937 29.2665 128.884 29.6931 128.685 30.0576C128.329 30.7806 127.802 31.4051 127.148 31.8758C125.77 32.9014 124.243 33.7091 122.619 34.2709C120.899 34.8984 119.14 35.4117 117.352 35.8074C117.244 35.831 117.136 35.8601 117.03 35.8946C117.603 36.8466 118.461 37.5945 119.482 38.0328C120.502 38.471 121.635 38.5773 122.72 38.3368C123.822 38.1015 124.819 37.5177 125.563 36.6719C126.307 35.8261 126.76 34.7631 126.853 33.6403C125.588 34.3342 124.216 34.8127 122.794 35.0559C124.799 34.3161 126.652 33.2155 128.262 31.8087C128.424 32.423 128.477 33.0613 128.416 33.6939C128.297 35.2281 127.662 36.6768 126.614 37.8038C125.566 38.9308 124.168 39.6696 122.646 39.9C118.956 40.5709 115.172 37.7732 114.77 34.1233C114.77 33.808 114.769 33.694 115.138 33.6739C117.889 33.5044 120.601 32.9372 123.19 31.9898C124.321 31.577 125.378 30.9809 126.316 30.2253C126.566 30.0155 126.803 29.7915 127.027 29.5544C127.145 29.4389 127.236 29.3005 127.298 29.1478C127.359 28.9952 127.388 28.8315 127.383 28.6671C127.378 28.5027 127.339 28.3411 127.268 28.1925C127.198 28.0438 127.098 27.9113 126.974 27.8033C126.65 27.5047 126.269 27.2763 125.853 27.1324H125.779C125.779 27.1659 125.779 27.186 125.779 27.2129L125.773 27.1591Z" fill="white"/>
<path d="M141.895 33.5735C141.895 31.8291 141.895 30.0914 141.895 28.3537C141.895 28.0987 141.975 28.0317 142.217 28.0451C143.082 28.0451 143.954 28.0451 144.82 28.0451C145.088 28.0451 145.135 28.1323 145.135 28.3604C145.135 30.9569 145.135 33.5466 145.135 36.1297C145.135 36.4853 145.236 36.5524 145.571 36.5389C146.96 36.5389 148.356 36.5389 149.738 36.5389C149.999 36.5389 150.066 36.5994 150.053 36.8543C150.053 37.5253 150.053 38.1961 150.053 38.8335C150.053 39.0482 149.999 39.1019 149.785 39.1019C147.249 39.1019 144.733 39.1019 142.196 39.1019C141.928 39.1019 141.915 38.9879 141.915 38.7799V33.5869L141.895 33.5735Z" fill="white"/>
<path d="M70.5352 33.6609C70.5352 31.9165 70.5352 30.1788 70.5352 28.4411C70.5352 28.1861 70.6022 28.1191 70.8572 28.1325H73.494C73.6953 28.1325 73.7623 28.1861 73.7623 28.4008C73.7623 31.912 73.7623 35.4187 73.7623 38.9209C73.7623 39.1289 73.6953 39.1893 73.494 39.1893C72.5995 39.1893 71.7204 39.1893 70.8572 39.1893C70.6089 39.1893 70.5352 39.129 70.5352 38.874C70.5352 37.1341 70.5352 35.3964 70.5352 33.6609Z" fill="white"/>
<path d="M130.972 13.4323V13.8751C131.006 15.9349 130.972 17.9946 130.972 20.0678C130.955 20.3247 130.955 20.5824 130.972 20.8394C130.969 20.9483 130.988 21.0566 131.028 21.1582C131.067 21.2598 131.126 21.3526 131.202 21.4312C131.277 21.5098 131.368 21.5726 131.468 21.6161C131.567 21.6596 131.675 21.683 131.784 21.6847C132.122 21.7265 132.463 21.7511 132.804 21.7585C133.005 21.7585 133.106 21.8054 133.099 22.0403C133.099 22.7716 133.099 22.7716 132.354 22.7716H125.826C125.645 22.7716 125.464 22.8185 125.625 22.53C127.302 19.4974 129.02 16.4917 130.811 13.4994C130.858 13.4591 130.871 13.3988 130.972 13.4256V13.4323Z" fill="white"/>
<path d="M130.406 2.10675C130.421 1.84101 130.398 1.57446 130.339 1.31503C130.305 1.2211 130.279 1.09366 130.158 1.10037C130.037 1.10707 130.03 1.2211 129.997 1.31503C129.914 1.68465 129.885 2.06426 129.909 2.44222C129.907 2.5829 129.855 2.7182 129.763 2.82477C129.671 2.93134 129.545 3.00249 129.406 3.02592C129.259 3.02592 129.312 2.93871 129.299 2.87162C129.299 2.83894 129.287 2.80746 129.264 2.78374C129.242 2.76002 129.211 2.74582 129.178 2.7441C129.078 2.7441 129.044 2.81797 129.044 2.89848C129.044 2.97899 129.078 3.2071 128.943 3.30774C128.809 3.40837 128.695 3.60288 128.682 3.24729C128.682 3.22959 128.677 3.21224 128.669 3.19652C128.661 3.18079 128.649 3.16713 128.635 3.15671C128.62 3.1463 128.604 3.13939 128.586 3.13648C128.569 3.13357 128.551 3.13479 128.534 3.14C128.514 3.14227 128.495 3.14877 128.478 3.15909C128.46 3.1694 128.446 3.18327 128.434 3.19979C128.423 3.21631 128.415 3.23506 128.411 3.25483C128.408 3.2746 128.408 3.29497 128.413 3.31445C128.438 3.41754 128.425 3.52617 128.375 3.62002C128.326 3.71388 128.244 3.78646 128.145 3.82428C128.081 3.86339 128.034 3.92539 128.014 3.99766C127.995 4.06993 128.003 4.1471 128.038 4.21347C128.112 4.36107 128.246 4.21343 128.319 4.17317C128.742 3.95198 129.179 3.75923 129.628 3.59619C129.816 3.5291 129.943 3.52912 129.956 3.79078C130.021 4.522 129.834 5.25326 129.426 5.86392C129.404 5.90853 129.372 5.94771 129.333 5.97866C129.294 6.00962 129.248 6.03161 129.2 6.04312C129.151 6.05463 129.101 6.05534 129.052 6.04525C129.003 6.03515 128.957 6.01453 128.917 5.98472C128.329 5.69801 127.856 5.22058 127.575 4.63042C127.293 4.04027 127.22 3.37222 127.367 2.73517C127.514 2.09813 127.873 1.52971 128.385 1.12272C128.896 0.715735 129.531 0.494141 130.185 0.494141C130.838 0.494141 131.473 0.715735 131.985 1.12272C132.496 1.52971 132.855 2.09813 133.002 2.73517C133.149 3.37222 133.076 4.04027 132.795 4.63042C132.513 5.22058 132.04 5.69801 131.453 5.98472C131.415 6.01307 131.371 6.03259 131.325 6.04189C131.279 6.05118 131.231 6.04995 131.186 6.03837C131.14 6.02678 131.097 6.00509 131.061 5.97489C131.025 5.9447 130.996 5.90679 130.976 5.86392C130.561 5.23077 130.366 4.47887 130.419 3.72371C130.419 3.48217 130.587 3.56264 130.695 3.59619C131.157 3.75096 131.606 3.94394 132.036 4.17317C132.117 4.17317 132.238 4.36778 132.318 4.21347C132.355 4.15593 132.369 4.08632 132.357 4.01896C132.344 3.9516 132.306 3.89156 132.251 3.85114C132.023 3.71696 131.822 3.58278 131.889 3.27416C131.889 3.21377 131.855 3.17348 131.788 3.15335C131.76 3.14733 131.731 3.14995 131.705 3.16073C131.679 3.1715 131.656 3.19 131.641 3.2138C131.594 3.27418 131.641 3.43518 131.493 3.36138C131.345 3.28758 131.285 3.26076 131.285 3.12657C131.302 3.0402 131.302 2.95128 131.285 2.8649C131.245 2.74414 131.164 2.71054 131.063 2.81789C130.963 2.92524 131.064 3.10639 130.882 2.98562C130.701 2.86486 130.433 2.88499 130.48 2.57637C130.449 2.42168 130.433 2.26444 130.433 2.10675H130.406Z" fill="white"/>
<path d="M123 27.602C122.712 27.65 122.433 27.7357 122.168 27.8569C121.906 27.9307 121.637 28.0851 121.403 27.7228C121.564 28.0985 121.302 28.0985 121.107 28.1387L119.806 28.3601C119.591 28.4071 119.544 28.3601 119.578 28.132C119.611 27.9039 119.658 27.6691 119.692 27.4611C119.692 27.3806 119.772 27.3067 119.692 27.2262C119.618 27.2732 119.618 27.3403 119.611 27.4074C119.513 27.6216 119.441 27.8469 119.397 28.0783C119.363 28.3936 119.202 28.4339 118.947 28.4272C118.692 28.4205 118.383 28.4272 118.048 28.4272C118.196 28.1789 118.33 27.9575 118.484 27.6892C118.216 27.6892 118.135 27.8905 118.055 28.0246C117.983 28.1842 117.851 28.3093 117.688 28.3732C117.525 28.4371 117.344 28.4348 117.183 28.3668C117.102 28.3668 117.008 28.3668 116.867 28.3198C117.401 27.7978 118.026 27.3793 118.712 27.0853C120.031 26.4861 121.504 26.3147 122.925 26.5951C124.346 26.8754 125.644 27.5934 126.636 28.6486C126.824 28.8431 126.844 28.964 126.636 29.1317C126.428 29.2994 126.019 29.6215 125.717 29.8831C125.536 30.0374 125.455 30.0374 125.321 29.816C124.693 28.7785 123.876 27.8682 122.912 27.1323C122.821 27.0383 122.705 26.973 122.577 26.9445C122.577 27.1457 122.745 27.186 122.825 27.3001C122.906 27.4141 123.066 27.441 123.013 27.6221L123 27.602ZM122.389 26.7767C122.389 26.7432 122.335 26.7096 122.288 26.7767C122.241 26.8438 122.288 26.8304 122.288 26.8572L122.382 26.9109C122.416 26.9109 122.469 26.9646 122.483 26.9579C122.496 26.9512 122.483 26.8639 122.483 26.8438L122.389 26.7969V26.7767ZM118.511 27.5013C118.477 27.5013 118.417 27.5751 118.511 27.6221C118.605 27.6691 118.585 27.622 118.605 27.5684C118.625 27.5147 118.639 27.508 118.645 27.4744C118.652 27.4409 118.773 27.4007 118.706 27.347C118.638 27.2933 118.625 27.3873 118.592 27.4342L118.538 27.5013H118.511ZM121.154 27.3201C121.121 27.2665 121.087 27.2463 121.02 27.3201C121.045 27.3531 121.072 27.3845 121.101 27.4141C121.101 27.4543 121.154 27.4879 121.181 27.5349C121.208 27.5818 121.181 27.5751 121.221 27.6087C121.262 27.6422 121.275 27.8233 121.423 27.8099C121.423 27.6757 121.369 27.6221 121.302 27.555L121.255 27.4812L121.154 27.3537V27.3201ZM122.201 26.6492C122.196 26.6644 122.196 26.681 122.201 26.6962C122.205 26.6809 122.205 26.6646 122.201 26.6492Z" fill="white"/>
<path d="M123.644 29.5679C123.336 29.7021 122.973 29.9838 122.752 29.9167C122.53 29.8496 122.47 29.38 122.302 29.1049C122.135 28.8298 121.853 28.5212 121.9 28.2864C121.947 28.0516 122.423 28.0314 122.685 27.857C122.799 27.7765 122.967 27.7631 122.987 27.6021C123.091 27.612 123.189 27.6543 123.268 27.7229C123.954 28.4076 124.541 29.1843 125.013 30.0308C125.114 30.2187 125.1 30.3193 124.905 30.4266C124.389 30.7264 123.856 30.9975 123.309 31.2385C123.161 31.3056 123.074 31.2921 123.06 31.1177C123.065 31.1069 123.065 31.0949 123.06 31.0841C122.98 30.809 122.765 30.487 122.859 30.2656C122.953 30.0442 123.309 29.9436 123.53 29.7758C123.584 29.7423 123.631 29.6953 123.684 29.655L123.765 29.6081C123.798 29.5746 123.872 29.5611 123.832 29.5075C123.792 29.4538 123.745 29.5075 123.711 29.5075H123.631L123.644 29.5679Z" fill="white"/>
<path d="M119.464 29.7358C119.464 29.4271 119.397 29.0648 119.545 28.8165C119.693 28.5683 120.129 28.6958 120.437 28.622C120.746 28.5482 121.075 28.4744 121.39 28.3872C121.564 28.3402 121.652 28.3402 121.739 28.5213C121.94 28.9709 122.141 29.4405 122.316 29.9168C122.383 30.0913 122.316 30.145 122.168 30.2054C121.37 30.46 120.554 30.6529 119.726 30.7824C119.558 30.7824 119.498 30.7823 119.498 30.5878C119.498 30.3127 119.498 30.0376 119.498 29.7491L119.464 29.7358Z" fill="white"/>
<path d="M117.995 30.8427H117.324C116.888 30.8427 116.888 30.8427 117.029 30.4335C117.214 29.976 117.423 29.5282 117.653 29.0916C117.677 29.012 117.729 28.9435 117.799 28.8982C117.869 28.8528 117.953 28.8334 118.035 28.8434C118.364 28.8633 118.693 28.8633 119.022 28.8434C119.183 28.8434 119.223 28.8434 119.203 29.0245C119.122 29.589 119.082 30.1585 119.082 30.7287C119.082 30.8965 118.981 30.9032 118.854 30.9032L117.995 30.8427Z" fill="white"/>
<path d="M119.572 31.3863C119.532 31.2655 119.606 31.2185 119.726 31.1984C120.615 31.0598 121.482 30.8025 122.303 30.4335C122.417 30.3933 122.477 30.4335 122.504 30.5275C122.806 31.346 122.772 31.4063 121.94 31.6881C121.269 31.9095 120.639 32.0773 119.975 32.2383C119.733 32.3054 119.666 32.2383 119.646 32.0169C119.626 31.7955 119.592 31.6009 119.559 31.346L119.572 31.3863Z" fill="white"/>
<path d="M117.767 31.4128L118.894 31.3188C119.048 31.3188 119.129 31.3188 119.109 31.5066V31.5738C119.109 31.8757 119.297 32.2447 119.109 32.4392C118.921 32.6338 118.559 32.5936 118.277 32.654L116.794 32.8754C116.613 32.8754 116.546 32.8753 116.566 32.674C116.599 32.3041 116.655 31.9367 116.734 31.5738C116.734 31.4396 116.821 31.3994 116.969 31.3994C117.237 31.3994 117.512 31.3994 117.794 31.3994L117.767 31.4128Z" fill="white"/>
<path d="M115.246 30.6212C115.513 29.9902 115.875 29.4042 116.319 28.8835C116.348 28.8494 116.384 28.8225 116.425 28.805C116.466 28.7875 116.51 28.7799 116.554 28.7828C116.836 28.7828 117.118 28.7828 117.447 28.8298C117.075 29.4118 116.758 30.0272 116.501 30.6681C116.454 30.7821 116.373 30.7822 116.286 30.7687C115.944 30.7218 115.615 30.6815 115.246 30.6212Z" fill="white"/>
<path d="M114.726 32.8286C114.76 32.3575 114.836 31.8903 114.954 31.4331C114.995 31.2788 115.055 31.2117 115.236 31.2453C115.551 31.2989 115.967 31.2453 116.149 31.3996C116.33 31.5539 116.081 31.943 116.008 32.2315C115.934 32.52 116.081 32.8286 115.8 32.9628C115.536 33.0272 115.266 33.061 114.995 33.0635C114.76 33.0635 114.673 33.0165 114.726 32.8286Z" fill="white"/>
</svg>
