<svg width="220" height="40" viewBox="0 0 220 40" fill="none" xmlns="http://www.w3.org/2000/svg">
<g clip-path="url(#clip0_8099_10840)">
<path d="M114.735 31.6726C114.808 31.0808 114.869 30.4889 114.952 29.8992C115.09 28.9188 115.208 27.9361 115.391 26.9624C115.752 25.0263 116.102 23.0857 116.552 21.1723C116.807 20.0879 117.25 19.0464 117.613 17.9892C117.65 17.8852 117.711 17.7858 117.772 17.6932C118.11 17.1691 118.291 17.1262 118.822 17.4696C119.572 17.9553 120.008 18.6579 120.137 19.5321C120.166 19.7377 120.096 19.9885 119.995 20.176C118.639 22.6972 117.781 25.4081 117.013 28.1462C116.497 29.9873 116.095 31.8624 115.662 33.7262C115.427 34.736 115.226 35.7526 115.013 36.767C114.993 36.8664 114.991 36.9703 114.979 37.0742C114.936 37.4673 114.672 37.6729 114.279 37.6119C113.834 37.5418 113.443 37.3453 113.104 37.0494C112.851 36.828 112.718 36.5478 112.734 36.2067C112.79 34.9506 112.729 33.7013 112.551 32.4543C112.431 31.6139 112.413 30.7554 112.257 29.9218C111.957 28.3156 111.627 26.7139 111.243 25.128C110.886 23.6528 110.371 22.2273 109.614 20.9012C109.56 20.8063 109.499 20.7182 109.368 20.6323C109.325 20.8334 109.284 21.0344 109.241 21.2355C108.914 22.774 108.453 24.265 107.495 25.5437C106.607 26.7297 105.416 27.3826 103.916 27.3871C103.157 27.3871 102.434 27.1951 101.766 26.8314C100.817 26.314 100.338 25.4465 100.18 24.4344C99.8319 22.2047 100.516 20.2867 102.136 18.7301C103.354 17.5599 104.843 17.0674 106.533 17.2075C106.941 17.2414 107.35 17.2843 107.786 17.325C107.834 15.0455 107.883 12.7638 107.933 10.394C107.856 10.5182 107.804 10.5792 107.777 10.6515C107.165 12.2216 106.553 13.7894 105.595 15.1946C104.926 16.1773 104.106 16.9884 102.952 17.3634C101.732 17.761 100.794 17.4876 100.146 16.4078C99.6196 15.5312 99.414 14.5553 99.2062 13.5748C98.8809 12.0341 99.0254 10.4753 99.0593 8.92782C99.091 7.42324 99.2152 5.91867 99.3349 4.41861C99.3824 3.81769 99.5179 3.22354 99.6264 2.62713C99.6761 2.35829 99.8975 2.32215 100.078 2.4351C100.724 2.84175 101.398 3.26646 101.456 4.12719C101.49 4.62419 101.409 5.13249 101.348 5.63176C101.239 6.52185 101.106 7.40743 100.982 8.29526C100.815 9.48582 100.769 10.6832 100.873 11.8805C100.95 12.7638 101.018 13.6539 101.172 14.5259C101.237 14.9009 101.47 15.2692 101.702 15.5854C101.976 15.9582 102.369 16.0282 102.748 15.7639C103.135 15.4951 103.512 15.1811 103.803 14.8151C105.527 12.6531 106.584 10.1816 107.142 7.48198C107.416 6.15814 107.549 4.82525 107.549 3.47204C107.549 2.52999 107.626 1.58567 107.705 0.643621C107.752 0.0923955 108.035 -0.0747794 108.572 0.0336584C109.117 0.142096 109.589 0.395118 110.023 0.733986C110.423 1.048 110.414 1.47046 110.366 1.91099C110.256 2.91404 110.104 3.91483 110.048 4.92014C109.939 6.87428 109.883 8.82842 109.81 10.7848C109.736 12.8158 109.688 14.8467 109.591 16.8754C109.557 17.587 109.627 18.145 110.262 18.6488C111.552 19.6722 112.189 21.1519 112.725 22.6655C113.317 24.3441 113.732 26.0723 114.055 27.8186C114.275 29.0024 114.412 30.202 114.591 31.3948C114.607 31.4964 114.652 31.5958 114.683 31.6952C114.701 31.6885 114.717 31.6817 114.735 31.6772V31.6726ZM101.074 23.4449C101.027 24.2063 101.312 24.8501 101.716 25.451C102.349 26.3886 103.34 26.5693 104.276 25.9322C105.204 25.2997 105.848 24.4141 106.392 23.4562C107.174 22.0804 107.486 20.5713 107.603 19.0058C107.626 18.7076 107.52 18.5946 107.271 18.4952C106.225 18.0773 105.182 18.0863 104.172 18.572C102.136 19.5525 101.264 21.2897 101.074 23.4449Z" fill="white"/>
<path d="M125.61 34.8695C125.576 34.9215 125.558 34.935 125.558 34.9509C125.607 35.7574 125.024 35.8161 124.489 35.6625C124.236 35.5902 123.997 35.4411 123.78 35.2852C123.542 35.1135 123.43 34.8582 123.441 34.551C123.452 34.2822 123.441 34.0133 123.38 33.7016C123.267 33.8484 123.158 33.9975 123.043 34.1444C122.58 34.7385 122.11 35.3326 121.362 35.5834C120.529 35.8635 120.07 35.7528 119.539 35.0683C118.988 34.359 118.769 33.5457 118.665 32.6804C118.473 31.0923 118.541 29.5064 118.71 27.9205C118.764 27.4099 118.789 26.8948 118.828 26.382C118.857 26.0025 119.049 25.8059 119.431 25.7969C120.052 25.7811 120.637 25.9279 121.173 26.2487C121.584 26.4972 121.665 26.7932 121.457 27.2224C121.096 27.9769 120.956 28.788 120.89 29.608C120.827 30.3897 120.834 31.1781 120.832 31.9643C120.832 32.5133 120.938 33.0442 121.202 33.5321C121.451 33.9862 121.715 34.0269 122.045 33.6406C122.65 32.9289 123.104 32.1224 123.439 31.2527C123.491 31.1171 123.495 30.959 123.495 30.8121C123.504 28.1983 123.506 25.5845 123.515 22.973C123.52 21.8683 123.545 20.7636 123.558 19.6589C123.563 19.2929 123.771 19.0534 124.143 19.0557C124.81 19.0557 125.44 19.2274 126.021 19.5504C126.285 19.6973 126.362 19.9706 126.323 20.2779C126.222 21.1024 126.113 21.927 126.057 22.7539C125.976 23.9309 125.939 25.1079 125.885 26.2871C125.878 26.4317 125.885 26.5763 125.885 26.8045C126.034 26.6915 126.111 26.6328 126.188 26.574C126.773 26.1403 127.415 25.9076 128.153 26.007C128.696 26.0793 129.077 26.3843 129.36 26.8316C129.784 27.5071 129.952 28.2661 130.028 29.041C130.153 30.3219 130.137 31.6028 129.821 32.8612C129.642 33.5705 129.387 34.2505 128.96 34.8605C128.151 36.0104 126.94 35.8794 126.057 35.2378C125.901 35.1248 125.759 34.996 125.607 34.8718L125.61 34.8695ZM127.835 30.2722C127.866 29.6306 127.774 28.849 127.367 28.1328C127.121 27.7013 126.832 27.6562 126.47 28.0063C126.034 28.4288 125.759 28.9167 125.754 29.5583C125.747 30.6969 125.691 31.8378 125.659 32.9764C125.659 33.0374 125.675 33.1142 125.713 33.1594C125.957 33.4531 126.201 33.749 126.464 34.0246C126.599 34.1669 126.771 34.1534 126.906 33.9975C126.979 33.9139 127.049 33.8236 127.103 33.7264C127.681 32.703 127.848 31.5893 127.837 30.2722H127.835Z" fill="white"/>
<path d="M128.976 11.8584C128.817 12.6536 128.689 13.3675 128.53 14.0768C128.325 15.0053 127.837 15.7395 126.99 16.2185C126.443 16.528 125.903 16.842 125.277 16.9708C125.06 17.0159 124.882 16.9708 124.821 16.7607C124.683 16.2885 124.484 15.8096 124.473 15.3306C124.432 13.6182 124.403 11.9035 124.478 10.1934C124.536 8.82436 124.742 7.45985 124.911 6.09534C124.943 5.84232 125.067 5.56671 125.228 5.36565C125.901 4.52977 126.836 4.25416 127.866 4.22931C127.948 4.22931 128.031 4.26094 128.113 4.28127C128.318 4.33323 128.343 4.41682 128.201 4.59077C128.038 4.78957 127.878 5.00645 127.78 5.2414C127.082 6.91766 126.669 8.673 126.468 10.4713C126.368 11.3614 126.224 12.256 126.393 13.1551C126.443 13.4194 126.515 13.6837 126.606 13.9368C126.689 14.174 126.847 14.3841 127.121 14.3954C127.394 14.4067 127.588 14.2214 127.672 13.9842C127.821 13.573 127.952 13.1528 128.042 12.7259C128.189 12.0233 128.296 11.3094 128.415 10.6023C128.429 10.53 128.451 10.4442 128.429 10.3809C128.314 10.0533 128.478 9.84323 128.713 9.66024C128.998 9.43884 129.296 9.231 129.683 9.30781C129.929 9.35751 130.055 9.5518 130.107 9.78223C130.261 10.4939 130.408 11.2077 130.557 11.9216C130.767 12.936 130.964 13.9526 131.189 14.9647C131.241 15.1951 131.368 15.4187 131.499 15.6175C131.725 15.9587 132.037 15.9496 132.256 15.5972C132.357 15.4346 132.45 15.247 132.484 15.0595C132.796 13.3042 133.098 11.5466 133.394 9.78901C133.582 8.6843 133.769 7.57959 133.927 6.47036C134.077 5.42438 134.187 4.37163 134.068 3.31211C134.052 3.16526 134.009 3.02068 133.973 2.87384C133.891 2.53949 134 2.40394 134.325 2.5169C134.673 2.63663 135.034 2.78347 135.321 3.00712C136.214 3.70067 136.632 4.66306 136.548 5.76777C136.329 8.6233 135.685 11.3952 134.797 14.113C134.404 15.3171 133.95 16.4941 133.25 17.5581C133.083 17.8111 132.861 18.0371 132.631 18.2381C132.353 18.4798 132.023 18.4505 131.736 18.2178C131.33 17.8857 131.09 17.4339 130.909 16.964C130.408 15.6763 129.94 14.375 129.463 13.0783C129.341 12.7462 129.233 12.4073 129.113 12.073C129.093 12.0165 129.05 11.9713 128.976 11.8516V11.8584Z" fill="white"/>
<path d="M117.022 13.4484C116.859 13.6201 116.748 13.7579 116.617 13.8731C115.951 14.4605 115.153 14.7655 114.29 14.9078C113.043 15.1111 112.129 14.6164 111.48 13.5591C111.008 12.791 110.773 11.9529 110.732 11.0628C110.669 9.73214 110.863 8.43089 111.302 7.17482C111.424 6.82691 111.627 6.50386 111.821 6.18532C112.37 5.28619 113.222 5.06028 114.2 5.18227C114.494 5.21842 114.797 5.28167 115.063 5.39915C115.752 5.70413 116.026 6.30505 116.107 7.01216C116.265 8.39474 115.745 9.59659 115.106 10.7713C114.686 11.544 114.15 12.2262 113.572 12.8768C113.414 13.0553 113.448 13.1253 113.649 13.2134C114.702 13.6811 116.218 13.0621 116.617 11.989C116.649 11.9054 116.642 11.806 116.647 11.7134C116.667 11.0402 116.676 10.367 116.705 9.69374C116.726 9.22158 116.87 9.1041 117.345 9.13573C117.783 9.16736 118.183 9.30968 118.547 9.56045C118.784 9.7231 118.856 9.92191 118.755 10.2111C118.468 11.0334 118.352 11.8851 118.42 12.7503C118.443 13.0282 118.551 13.3151 118.678 13.5681C118.827 13.8641 119.105 13.8573 119.261 13.5681C119.977 12.2285 120.115 10.7465 118.827 9.54237C118.52 9.25547 118.224 8.95274 117.932 8.65002C117.347 8.04458 117.148 7.33973 117.449 6.53774C117.745 5.75157 118.307 5.2523 119.141 5.09868C120.718 4.80952 121.825 5.57762 122.1 7.19289C122.173 7.62212 122.125 8.08524 122.051 8.51899C121.976 8.94371 121.226 9.14025 120.926 8.82623C120.819 8.71554 120.767 8.48059 120.799 8.32471C120.898 7.839 120.932 7.36458 120.797 6.88339C120.734 6.65748 120.627 6.46319 120.372 6.41349C120.119 6.36605 119.968 6.51967 119.841 6.70266C119.541 7.13641 119.412 7.61986 119.491 8.1372C119.518 8.30438 119.642 8.48737 119.773 8.60258C120.004 8.80364 120.266 8.97308 120.53 9.13121C121.124 9.49041 121.662 9.90157 121.983 10.5386C122.568 11.6931 122.236 13.2699 121.246 14.1261C120.505 14.7677 119.642 14.9869 118.691 14.901C118.047 14.8423 117.623 14.4469 117.306 13.916C117.221 13.7737 117.135 13.6336 117.02 13.4439L117.022 13.4484ZM112.96 11.4558C112.985 11.4671 113.007 11.4784 113.032 11.4875C113.089 11.4333 113.163 11.3881 113.202 11.3226C113.809 10.2788 114.34 9.20125 114.6 8.01295C114.693 7.59275 114.751 7.16352 114.559 6.74784C114.417 6.43834 114.051 6.34798 113.832 6.59874C113.658 6.79754 113.504 7.03701 113.418 7.28325C113.136 8.0875 112.987 8.92337 112.962 9.77732C112.946 10.3353 112.96 10.8933 112.96 11.4536V11.4558Z" fill="white"/>
<path d="M136.76 12.7277C136.774 11.4739 136.979 10.2472 137.46 9.09277C137.655 8.62513 138.018 8.21397 138.357 7.82315C138.509 7.64693 138.784 7.51139 139.017 7.48654C139.523 7.43232 140.047 7.39165 140.546 7.46846C141.524 7.61757 142.022 8.23657 142.148 9.2238C142.308 10.4776 141.879 11.5801 141.332 12.6599C140.883 13.5432 140.298 14.3294 139.62 15.0478C139.41 15.2715 139.433 15.3415 139.726 15.4545C140.686 15.8272 141.784 15.5042 142.408 14.6095C142.738 14.1351 142.991 13.6088 143.266 13.1005C143.442 12.7774 143.456 12.7638 143.806 12.8994C143.858 12.9197 143.912 12.9401 143.962 12.9649C144.391 13.184 144.396 13.2089 144.202 13.6449C143.874 14.3814 143.544 15.1088 143.016 15.7368C142.064 16.8664 140.214 17.4651 138.902 16.9952C138.572 16.8777 138.244 16.6608 138.003 16.4055C137.033 15.3776 136.728 14.108 136.76 12.73V12.7277ZM139.082 13.785C139.164 13.6946 139.234 13.6472 139.265 13.5794C139.631 12.8135 140.018 12.0567 140.345 11.2751C140.621 10.6177 140.756 9.91961 140.65 9.19669C140.616 8.96626 140.515 8.79231 140.275 8.72679C140.043 8.66354 139.889 8.78327 139.787 8.96174C139.64 9.21928 139.466 9.47908 139.394 9.75921C139.231 10.3985 139.085 11.0469 139.006 11.7021C138.927 12.373 138.922 13.0553 139.082 13.785Z" fill="white"/>
<path d="M136.285 28.481C136.26 29.4976 135.855 30.3809 135.431 31.2597C134.992 32.1701 134.4 32.9744 133.732 33.7244C133.481 34.0045 133.492 34.0474 133.845 34.1694C134.909 34.5422 136.011 34.1107 136.653 33.0467C136.904 32.631 137.118 32.1927 137.33 31.7567C137.446 31.5195 137.602 31.472 137.83 31.5647C137.873 31.5827 137.916 31.5986 137.959 31.6189C138.492 31.8584 138.489 31.8674 138.236 32.3938C137.873 33.1438 137.552 33.9232 136.951 34.5219C135.871 35.5972 134.592 36.0694 133.07 35.7102C132.198 35.5046 131.762 34.8178 131.371 34.1039C131.03 33.4804 130.869 32.7891 130.822 32.0888C130.711 30.5074 131 28.9802 131.633 27.5299C132.137 26.3732 133.113 25.9123 134.382 26.0999C135.205 26.2218 135.826 26.5765 136.097 27.3808C136.214 27.7287 136.226 28.1105 136.287 28.4787L136.285 28.481ZM133.108 32.4886C133.21 32.3621 133.26 32.3102 133.298 32.2514C133.982 31.2077 134.414 30.0578 134.714 28.8582C134.793 28.5442 134.78 28.185 134.721 27.8642C134.69 27.6903 134.498 27.5028 134.33 27.4101C134.125 27.2949 133.926 27.4463 133.809 27.627C133.682 27.8213 133.555 28.0269 133.492 28.246C133.363 28.7024 133.228 29.1655 133.18 29.6331C133.099 30.4758 133.079 31.3252 133.038 32.1724C133.034 32.2492 133.07 32.3283 133.106 32.4886H133.108Z" fill="white"/>
<path d="M122.256 23.8272C122.154 24.1706 122.071 24.523 121.944 24.8574C121.852 25.1013 121.626 25.2459 121.37 25.2459C120.828 25.2459 120.286 25.2007 119.807 24.898C119.319 24.5885 119.188 24.1322 119.459 23.6216C119.696 23.1721 120.047 22.8241 120.478 22.5644C121.339 22.0448 122.1 22.4401 122.177 23.4431C122.186 23.5651 122.177 23.6871 122.177 23.8069L122.256 23.8272Z" fill="white"/>
<path d="M134.467 23.086C135.698 23.1267 136.522 23.7908 137.18 24.7306C137.304 24.9091 137.268 25.056 137.044 25.1463C136.73 25.2751 136.525 25.2231 136.308 24.9701C136.066 24.6877 135.813 24.4098 135.549 24.1478C135.23 23.836 134.819 23.705 134.39 23.635C134.295 23.6192 134.186 23.6485 134.089 23.6711C133.963 23.7005 133.838 23.7728 133.714 23.7705C133.59 23.7705 133.468 23.7005 133.344 23.6621C133.414 23.5514 133.461 23.3774 133.561 23.339C133.852 23.2261 134.164 23.1651 134.467 23.0837V23.086Z" fill="white"/>
<path d="M135.149 38.8048C134.225 38.7641 133.299 38.7257 132.418 38.4094C131.939 38.2377 131.49 38.0028 131.212 37.5464C131.164 37.4674 131.169 37.3612 131.148 37.2663C131.252 37.2528 131.363 37.2144 131.458 37.2369C131.562 37.2595 131.677 37.3205 131.745 37.3996C132.145 37.8898 132.705 38.0389 133.286 38.0999C133.934 38.1677 134.589 38.1677 135.24 38.2219C135.411 38.2355 135.583 38.3281 135.734 38.4185C135.786 38.4478 135.809 38.5969 135.78 38.667C135.755 38.7325 135.649 38.789 135.57 38.8025C135.432 38.8251 135.289 38.8093 135.149 38.8093V38.8048Z" fill="white"/>
<path d="M137.629 24.0234C137.444 24.0505 137.324 23.9579 137.249 23.7614C136.974 23.0204 136.384 22.6431 135.67 22.4104C135.517 22.3607 135.282 22.3698 135.307 22.1461C135.331 21.9134 135.56 21.8569 135.761 21.8592C136.404 21.8727 136.974 22.11 137.428 22.555C137.676 22.799 137.88 23.104 138.049 23.4112C138.273 23.8133 138.121 24.0234 137.627 24.0234H137.629Z" fill="white"/>
<path d="M134.678 39.9931C133.926 39.9095 133.181 39.8011 132.496 39.4487C132.437 39.4193 132.365 39.399 132.329 39.3515C132.245 39.2431 132.18 39.1211 132.107 39.0059C132.241 39.0059 132.381 38.9855 132.507 39.0149C133.113 39.155 133.714 39.3086 134.315 39.46C134.511 39.5097 134.714 39.5526 134.895 39.6384C134.972 39.6746 135.004 39.8124 135.056 39.9028C134.967 39.9344 134.879 39.9705 134.789 39.9976C134.755 40.0067 134.714 39.9976 134.678 39.9931Z" fill="white"/>
</g>
<defs>
<clipPath id="clip0_8099_10840">
<rect width="45.3247" height="40" fill="white" transform="translate(99)"/>
</clipPath>
</defs>
</svg>
